<svg width="268" height="262" viewBox="0 0 268 262" fill="none" xmlns="http://www.w3.org/2000/svg">
<rect width="267.777" height="261.567" rx="10.6313" fill="#F8FAFC"/>
<rect x="18.9372" y="18.937" width="50.4989" height="50.4989" rx="4.98344" stroke="#EAEAEA" stroke-width="0.664459"/>
<path d="M48.1446 32.5623C48.249 33.9261 47.8177 35.2769 46.9423 36.3278C46.5231 36.8492 45.991 37.2687 45.3862 37.5547C44.7814 37.8406 44.1195 37.9856 43.4506 37.9787C43.4079 37.3229 43.4949 36.6651 43.7066 36.0429C43.9183 35.4207 44.2505 34.8463 44.6844 34.3526C45.5716 33.342 46.8071 32.7027 48.1446 32.5623Z" fill="#242424"/>
<path d="M50.5843 42.4884C50.1398 43.2715 49.9007 44.1544 49.8891 45.0548C49.8901 46.0676 50.1894 47.0577 50.7494 47.9016C51.3094 48.7455 52.1054 49.4059 53.0382 49.8005C52.6715 50.9919 52.1187 52.1178 51.4002 53.1366C50.4354 54.5798 49.4238 55.9899 47.8182 56.0159C47.0545 56.0336 46.5391 55.814 46.002 55.5852C45.4417 55.3465 44.8579 55.0978 43.9443 55.0978C42.9754 55.0978 42.3655 55.3545 41.7772 55.6021C41.2688 55.816 40.7766 56.0232 40.083 56.0519C38.5539 56.1086 37.3853 54.5115 36.3854 53.0818C34.3869 50.162 32.8307 44.8533 34.917 41.2412C35.3986 40.3757 36.0962 39.6497 36.9418 39.134C37.7875 38.6183 38.7522 38.3304 39.7422 38.2984C40.6094 38.2806 41.4416 38.6149 42.1712 38.9079C42.7292 39.132 43.2271 39.3321 43.6349 39.3321C43.9934 39.3321 44.4775 39.1399 45.0416 38.916C45.9303 38.5633 47.0176 38.1318 48.1257 38.2481C48.9749 38.2746 49.8062 38.4989 50.5536 38.9029C51.301 39.307 51.9439 39.8797 52.4312 40.5757C51.6641 41.0473 51.0288 41.7053 50.5843 42.4884Z" fill="#242424"/>
<path d="M81.2379 41.5217H79.9996L82.782 33.7898H84.1298L86.9123 41.5217H85.674L83.488 35.1943H83.4276L81.2379 41.5217ZM81.4456 38.4939H85.4625V39.4755H81.4456V38.4939ZM87.9382 43.6963V35.7228H89.0406V36.6629H89.135C89.2004 36.5421 89.2948 36.4024 89.4181 36.2438C89.5415 36.0852 89.7126 35.9468 89.9316 35.8285C90.1506 35.7077 90.44 35.6473 90.7999 35.6473C91.2681 35.6473 91.6859 35.7656 92.0533 36.0022C92.4208 36.2388 92.709 36.5798 92.9179 37.0253C93.1293 37.4708 93.235 38.0069 93.235 38.6336C93.235 39.2603 93.1306 39.7977 92.9217 40.2457C92.7128 40.6912 92.4258 41.0347 92.0609 41.2763C91.6959 41.5154 91.2794 41.635 90.8112 41.635C90.4589 41.635 90.1707 41.5758 89.9467 41.4575C89.7252 41.3393 89.5515 41.2008 89.4257 41.0423C89.2999 40.8837 89.203 40.7428 89.135 40.6194H89.067V43.6963H87.9382ZM89.0444 38.6223C89.0444 39.03 89.1035 39.3874 89.2218 39.6945C89.3401 40.0015 89.5113 40.2419 89.7353 40.4156C89.9593 40.5867 90.2336 40.6723 90.5583 40.6723C90.8956 40.6723 91.1775 40.5829 91.404 40.4042C91.6305 40.223 91.8016 39.9776 91.9174 39.668C92.0357 39.3585 92.0949 39.0099 92.0949 38.6223C92.0949 38.2397 92.037 37.8961 91.9212 37.5916C91.8079 37.2871 91.6368 37.0467 91.4077 36.8705C91.1812 36.6943 90.8981 36.6062 90.5583 36.6062C90.2311 36.6062 89.9542 36.6906 89.7277 36.8592C89.5037 37.0278 89.3338 37.2631 89.2181 37.5652C89.1023 37.8672 89.0444 38.2196 89.0444 38.6223ZM94.4997 43.6963V35.7228H95.6021V36.6629H95.6965C95.762 36.5421 95.8564 36.4024 95.9797 36.2438C96.103 36.0852 96.2742 35.9468 96.4931 35.8285C96.7121 35.7077 97.0015 35.6473 97.3615 35.6473C97.8296 35.6473 98.2474 35.7656 98.6149 36.0022C98.9823 36.2388 99.2705 36.5798 99.4794 37.0253C99.6908 37.4708 99.7965 38.0069 99.7965 38.6336C99.7965 39.2603 99.6921 39.7977 99.4832 40.2457C99.2743 40.6912 98.9874 41.0347 98.6224 41.2763C98.2575 41.5154 97.8409 41.635 97.3728 41.635C97.0204 41.635 96.7322 41.5758 96.5082 41.4575C96.2867 41.3393 96.1131 41.2008 95.9872 41.0423C95.8614 40.8837 95.7645 40.7428 95.6965 40.6194H95.6286V43.6963H94.4997ZM95.6059 38.6223C95.6059 39.03 95.6651 39.3874 95.7834 39.6945C95.9017 40.0015 96.0728 40.2419 96.2968 40.4156C96.5208 40.5867 96.7952 40.6723 97.1198 40.6723C97.4571 40.6723 97.739 40.5829 97.9655 40.4042C98.192 40.223 98.3632 39.9776 98.479 39.668C98.5972 39.3585 98.6564 39.0099 98.6564 38.6223C98.6564 38.2397 98.5985 37.8961 98.4827 37.5916C98.3695 37.2871 98.1983 37.0467 97.9693 36.8705C97.7428 36.6943 97.4596 36.6062 97.1198 36.6062C96.7926 36.6062 96.5158 36.6906 96.2893 36.8592C96.0653 37.0278 95.8954 37.2631 95.7796 37.5652C95.6638 37.8672 95.6059 38.2196 95.6059 38.6223ZM102.19 33.7898V41.5217H101.061V33.7898H102.19ZM106.208 41.6388C105.637 41.6388 105.145 41.5167 104.732 41.2726C104.322 41.0259 104.004 40.6798 103.78 40.2343C103.559 39.7863 103.448 39.2616 103.448 38.66C103.448 38.066 103.559 37.5425 103.78 37.0895C104.004 36.6364 104.317 36.2828 104.717 36.0286C105.119 35.7744 105.59 35.6473 106.129 35.6473C106.456 35.6473 106.773 35.7014 107.08 35.8096C107.387 35.9179 107.663 36.0878 107.907 36.3193C108.151 36.5509 108.344 36.8516 108.485 37.2216C108.625 37.5891 108.696 38.0358 108.696 38.5619V38.9621H104.086V38.1164H107.59C107.59 37.8194 107.529 37.5564 107.409 37.3273C107.288 37.0958 107.118 36.9133 106.899 36.7799C106.682 36.6465 106.428 36.5798 106.136 36.5798C105.819 36.5798 105.542 36.6578 105.306 36.8139C105.072 36.9674 104.89 37.1688 104.762 37.4179C104.636 37.6646 104.573 37.9326 104.573 38.2221V38.8828C104.573 39.2704 104.641 39.6001 104.777 39.8719C104.916 40.1437 105.108 40.3514 105.355 40.4948C105.601 40.6358 105.89 40.7063 106.219 40.7063C106.433 40.7063 106.628 40.6761 106.805 40.6156C106.981 40.5527 107.133 40.4596 107.261 40.3363C107.39 40.2129 107.488 40.0607 107.556 39.8795L108.624 40.072C108.539 40.3866 108.385 40.6622 108.164 40.8988C107.945 41.1329 107.669 41.3153 107.337 41.4462C107.007 41.5746 106.631 41.6388 106.208 41.6388ZM114.019 33.7898V41.5217H112.853V33.7898H114.019ZM116.756 38.0786V41.5217H115.627V35.7228H116.711V36.6666H116.783C116.916 36.3596 117.125 36.1129 117.409 35.9267C117.696 35.7404 118.058 35.6473 118.493 35.6473C118.888 35.6473 119.234 35.7304 119.531 35.8965C119.828 36.0601 120.058 36.3042 120.222 36.6289C120.386 36.9536 120.467 37.355 120.467 37.8332V41.5217H119.339V37.9691C119.339 37.5488 119.229 37.2204 119.01 36.9838C118.791 36.7447 118.49 36.6251 118.108 36.6251C117.846 36.6251 117.613 36.6817 117.409 36.795C117.208 36.9083 117.048 37.0744 116.93 37.2934C116.814 37.5098 116.756 37.7716 116.756 38.0786ZM124.424 41.6388C123.863 41.6388 123.379 41.5117 122.974 41.2575C122.572 41.0007 122.262 40.6471 122.046 40.1966C121.829 39.7461 121.721 39.2301 121.721 38.6487C121.721 38.0597 121.832 37.54 122.053 37.0895C122.275 36.6364 122.587 36.2828 122.989 36.0286C123.392 35.7744 123.867 35.6473 124.413 35.6473C124.853 35.6473 125.246 35.7291 125.591 35.8927C125.935 36.0538 126.214 36.2803 126.425 36.5723C126.639 36.8642 126.766 37.2053 126.806 37.5954H125.708C125.647 37.3236 125.509 37.0895 125.292 36.8932C125.078 36.6968 124.791 36.5987 124.432 36.5987C124.117 36.5987 123.841 36.6817 123.605 36.8479C123.371 37.0115 123.188 37.2455 123.057 37.5501C122.926 37.8521 122.861 38.2095 122.861 38.6223C122.861 39.0451 122.925 39.4101 123.054 39.7171C123.182 40.0242 123.363 40.262 123.597 40.4307C123.834 40.5993 124.112 40.6836 124.432 40.6836C124.645 40.6836 124.839 40.6446 125.013 40.5666C125.189 40.486 125.336 40.3715 125.455 40.223C125.575 40.0745 125.66 39.8958 125.708 39.6869H126.806C126.766 40.0619 126.644 40.3967 126.44 40.6912C126.236 40.9856 125.963 41.2172 125.621 41.3858C125.281 41.5544 124.882 41.6388 124.424 41.6388ZM128.757 41.5935C128.551 41.5935 128.373 41.5205 128.225 41.3745C128.076 41.226 128.002 41.0473 128.002 40.8384C128.002 40.632 128.076 40.4558 128.225 40.3098C128.373 40.1613 128.551 40.0871 128.757 40.0871C128.964 40.0871 129.141 40.1613 129.289 40.3098C129.438 40.4558 129.512 40.632 129.512 40.8384C129.512 40.9768 129.477 41.1039 129.407 41.2197C129.339 41.333 129.248 41.4236 129.135 41.4915C129.021 41.5595 128.896 41.5935 128.757 41.5935Z" fill="#242424"/>
<g clip-path="url(#clip0_937_7076)">
<path fill-rule="evenodd" clip-rule="evenodd" d="M142.145 33.4996C142.098 33.1466 141.758 32.9104 141.41 32.99L140.85 33.1185C140.619 33.1713 140.379 33.0852 140.235 32.8979L139.884 32.442C139.667 32.1597 139.254 32.1254 138.993 32.3679L138.572 32.7597C138.399 32.9205 138.148 32.9659 137.929 32.8758L137.398 32.6564C137.068 32.5206 136.694 32.6973 136.589 33.0378L136.42 33.5878C136.35 33.8136 136.156 33.9783 135.922 34.0095L135.351 34.0855C134.998 34.1325 134.762 34.4729 134.842 34.8201L134.97 35.3809C135.023 35.6112 134.937 35.8512 134.75 35.9953L134.294 36.3463C134.011 36.5635 133.977 36.9764 134.219 37.2373L134.611 37.6587C134.772 37.8318 134.817 38.0827 134.727 38.3011L134.508 38.833C134.372 39.1623 134.549 39.537 134.889 39.6417L135.439 39.8108C135.665 39.8802 135.83 40.0748 135.861 40.309L135.937 40.8794C135.984 41.2324 136.324 41.4686 136.672 41.389L137.233 41.2604C137.463 41.2077 137.703 41.2938 137.847 41.4811L138.198 41.937C138.415 42.2193 138.828 42.2536 139.089 42.0111L139.51 41.6193C139.683 41.4584 139.934 41.4131 140.153 41.5032L140.685 41.7226C141.014 41.8584 141.389 41.6817 141.493 41.3412L141.662 40.7912C141.732 40.5654 141.926 40.4007 142.161 40.3695L142.731 40.2935C143.084 40.2465 143.32 39.9061 143.241 39.5589L143.112 38.9981C143.059 38.7678 143.145 38.5278 143.333 38.3837L143.789 38.0327C144.071 37.8155 144.105 37.4026 143.863 37.1417L143.471 36.7203C143.31 36.5472 143.265 36.2963 143.355 36.0779L143.574 35.546C143.71 35.2167 143.533 34.842 143.193 34.7373L142.643 34.5682C142.417 34.4988 142.252 34.3042 142.221 34.07L142.145 33.4996ZM140.892 35.5374C141.065 35.7106 141.065 35.9917 140.892 36.1653L138.766 38.2951C138.593 38.4687 138.311 38.4689 138.138 38.2957L137.119 37.2785C136.946 37.1053 136.945 36.8241 137.119 36.6506C137.292 36.477 137.573 36.4768 137.746 36.6501L138.451 37.3536L140.264 35.5379C140.437 35.3644 140.718 35.3641 140.892 35.5374Z" fill="#74B8EF"/>
</g>
<path d="M86.4359 49.0588V55.8242H85.3458L82.158 51.2159H82.1018V55.8242H80.8763V49.0588H81.973L85.1575 53.6704H85.217V49.0588H86.4359ZM88.3079 55.8242H86.9998L89.3815 49.0588H90.8945L93.2796 55.8242H91.9714L90.1644 50.4463H90.1116L88.3079 55.8242ZM88.3509 53.1716H91.9185V54.156H88.3509V53.1716ZM97.4061 50.9186C97.3753 50.6301 97.2453 50.4055 97.0163 50.2447C96.7895 50.084 96.4944 50.0036 96.131 50.0036C95.8755 50.0036 95.6564 50.0421 95.4736 50.1192C95.2908 50.1963 95.151 50.3009 95.0541 50.433C94.9572 50.5652 94.9076 50.716 94.9054 50.8856C94.9054 51.0266 94.9374 51.1488 95.0012 51.2523C95.0673 51.3558 95.1565 51.4439 95.2688 51.5166C95.3811 51.587 95.5055 51.6465 95.6421 51.6949C95.7786 51.7434 95.9163 51.7841 96.055 51.8172L96.6893 51.9757C96.9447 52.0352 97.1903 52.1156 97.4259 52.2169C97.6638 52.3182 97.8763 52.4459 98.0635 52.6001C98.2529 52.7542 98.4026 52.9403 98.5128 53.1584C98.6229 53.3764 98.6779 53.6318 98.6779 53.9248C98.6779 54.3212 98.5766 54.6702 98.374 54.9719C98.1714 55.2714 97.8785 55.506 97.4953 55.6756C97.1143 55.8429 96.6529 55.9266 96.1112 55.9266C95.5848 55.9266 95.1279 55.8451 94.7403 55.6822C94.3549 55.5192 94.0531 55.2814 93.8351 54.9686C93.6193 54.6559 93.5026 54.2749 93.485 53.8257H94.6907C94.7083 54.0613 94.781 54.2573 94.9087 54.4137C95.0365 54.57 95.2027 54.6867 95.4075 54.7638C95.6146 54.8409 95.8458 54.8794 96.1013 54.8794C96.3677 54.8794 96.6012 54.8398 96.8016 54.7605C97.0042 54.679 97.1628 54.5667 97.2773 54.4236C97.3918 54.2782 97.4502 54.1086 97.4524 53.9148C97.4502 53.7387 97.3984 53.5933 97.2971 53.4788C97.1958 53.3621 97.0537 53.2652 96.871 53.1881C96.6904 53.1088 96.479 53.0383 96.2367 52.9767L95.467 52.7785C94.9098 52.6353 94.4694 52.4184 94.1456 52.1277C93.8241 51.8348 93.6633 51.4461 93.6633 50.9616C93.6633 50.563 93.7713 50.2139 93.9871 49.9144C94.2051 49.6149 94.5013 49.3826 94.8757 49.2174C95.2501 49.05 95.674 48.9663 96.1475 48.9663C96.6276 48.9663 97.0482 49.05 97.4094 49.2174C97.7728 49.3826 98.058 49.6127 98.265 49.9078C98.472 50.2007 98.5788 50.5376 98.5854 50.9186H97.4061ZM101.731 55.8242H99.4383V49.0588H101.777C102.449 49.0588 103.026 49.1943 103.508 49.4651C103.993 49.7338 104.365 50.1203 104.625 50.6246C104.885 51.129 105.014 51.7324 105.014 52.4349C105.014 53.1396 104.883 53.7453 104.621 54.2518C104.362 54.7583 103.986 55.147 103.495 55.4179C103.006 55.6888 102.418 55.8242 101.731 55.8242ZM100.664 54.7638H101.671C102.143 54.7638 102.536 54.6779 102.851 54.5062C103.166 54.3322 103.402 54.0734 103.561 53.7299C103.72 53.3841 103.799 52.9524 103.799 52.4349C103.799 51.9174 103.72 51.4879 103.561 51.1466C103.402 50.803 103.168 50.5465 102.857 50.3769C102.549 50.2051 102.166 50.1192 101.708 50.1192H100.664V54.7638ZM106.352 55.8242H105.044L107.426 49.0588H108.939L111.324 55.8242H110.016L108.209 50.4463H108.156L106.352 55.8242ZM106.395 53.1716H109.963V54.156H106.395V53.1716ZM114.085 53.5515H115.195L115.853 54.4037L116.322 54.9587L117.448 56.4056H116.259L115.492 55.4344L115.165 54.9719L114.085 53.5515ZM117.61 52.4415C117.61 53.1705 117.473 53.7948 117.2 54.3146C116.929 54.8321 116.559 55.2285 116.09 55.5038C115.623 55.7791 115.094 55.9167 114.501 55.9167C113.909 55.9167 113.378 55.7791 112.909 55.5038C112.442 55.2263 112.072 54.8288 111.799 54.3113C111.528 53.7915 111.393 53.1683 111.393 52.4415C111.393 51.7126 111.528 51.0893 111.799 50.5718C112.072 50.052 112.442 49.6545 112.909 49.3792C113.378 49.104 113.909 48.9663 114.501 48.9663C115.094 48.9663 115.623 49.104 116.09 49.3792C116.559 49.6545 116.929 50.052 117.2 50.5718C117.473 51.0893 117.61 51.7126 117.61 52.4415ZM116.378 52.4415C116.378 51.9284 116.297 51.4956 116.137 51.1433C115.978 50.7887 115.758 50.5211 115.476 50.3405C115.194 50.1578 114.869 50.0664 114.501 50.0664C114.134 50.0664 113.809 50.1578 113.527 50.3405C113.245 50.5211 113.024 50.7887 112.863 51.1433C112.704 51.4956 112.625 51.9284 112.625 52.4415C112.625 52.9546 112.704 53.3885 112.863 53.7431C113.024 54.0954 113.245 54.363 113.527 54.5458C113.809 54.7264 114.134 54.8167 114.501 54.8167C114.869 54.8167 115.194 54.7264 115.476 54.5458C115.758 54.363 115.978 54.0954 116.137 53.7431C116.297 53.3885 116.378 52.9546 116.378 52.4415ZM119.129 55.0116C118.929 55.0116 118.757 54.9411 118.614 54.8002C118.471 54.657 118.4 54.4852 118.403 54.2848C118.4 54.0866 118.471 53.917 118.614 53.7761C118.757 53.6352 118.929 53.5647 119.129 53.5647C119.323 53.5647 119.492 53.6352 119.635 53.7761C119.78 53.917 119.854 54.0866 119.856 54.2848C119.854 54.4192 119.819 54.5414 119.75 54.6515C119.684 54.7616 119.596 54.8497 119.486 54.9158C119.378 54.9796 119.259 55.0116 119.129 55.0116ZM119.129 51.6586C118.929 51.6586 118.757 51.5881 118.614 51.4472C118.471 51.304 118.4 51.1323 118.403 50.9319C118.4 50.7336 118.471 50.5641 118.614 50.4231C118.757 50.28 118.929 50.2084 119.129 50.2084C119.323 50.2084 119.492 50.28 119.635 50.4231C119.78 50.5641 119.854 50.7336 119.856 50.9319C119.854 51.064 119.819 51.1851 119.75 51.2952C119.684 51.4053 119.596 51.4934 119.486 51.5595C119.378 51.6256 119.259 51.6586 119.129 51.6586ZM123.655 55.8242H122.347L124.729 49.0588H126.242L128.627 55.8242H127.319L125.512 50.4463H125.459L123.655 55.8242ZM123.698 53.1716H127.266V54.156H123.698V53.1716ZM130.055 55.8242H128.746L131.128 49.0588H132.641L135.026 55.8242H133.718L131.911 50.4463H131.858L130.055 55.8242ZM130.098 53.1716H133.665V54.156H130.098V53.1716ZM135.585 55.8242V49.0588H138.122C138.642 49.0588 139.078 49.1557 139.43 49.3495C139.785 49.5433 140.052 49.8098 140.233 50.1489C140.416 50.4859 140.507 50.8691 140.507 51.2985C140.507 51.7324 140.416 52.1178 140.233 52.4547C140.05 52.7917 139.78 53.0571 139.424 53.2509C139.067 53.4425 138.628 53.5383 138.106 53.5383H136.424V52.5307H137.94C138.244 52.5307 138.493 52.4779 138.687 52.3721C138.881 52.2664 139.024 52.1211 139.116 51.9361C139.211 51.7511 139.259 51.5386 139.259 51.2985C139.259 51.0585 139.211 50.8471 139.116 50.6643C139.024 50.4815 138.88 50.3394 138.684 50.2381C138.49 50.1346 138.24 50.0829 137.934 50.0829H136.811V55.8242H135.585ZM141.24 55.8242V49.0588H142.465V54.7969H145.445V55.8242H141.24Z" fill="#7A7A7A"/>
<rect x="18.9372" y="84.7185" width="112.808" height="64.223" rx="2.32561" fill="#F9F9F9"/>
<rect x="18.9372" y="84.7185" width="112.808" height="64.223" rx="2.32561" stroke="#F2F2F2" stroke-width="0.664459"/>
<path d="M48.5086 108.004V101.239H52.8427V102.266H49.7342V104.103H52.5454V105.13H49.7342V108.004H48.5086ZM59.6723 104.622C59.6723 105.351 59.5357 105.975 59.2626 106.495C58.9918 107.012 58.6218 107.409 58.1527 107.684C57.6858 107.959 57.1562 108.097 56.5638 108.097C55.9713 108.097 55.4406 107.959 54.9715 107.684C54.5046 107.406 54.1346 107.009 53.8616 106.491C53.5907 105.972 53.4552 105.348 53.4552 104.622C53.4552 103.893 53.5907 103.269 53.8616 102.752C54.1346 102.232 54.5046 101.835 54.9715 101.559C55.4406 101.284 55.9713 101.146 56.5638 101.146C57.1562 101.146 57.6858 101.284 58.1527 101.559C58.6218 101.835 58.9918 102.232 59.2626 102.752C59.5357 103.269 59.6723 103.893 59.6723 104.622ZM58.4401 104.622C58.4401 104.109 58.3597 103.676 58.1989 103.323C58.0404 102.969 57.8202 102.701 57.5383 102.521C57.2564 102.338 56.9315 102.247 56.5638 102.247C56.196 102.247 55.8711 102.338 55.5892 102.521C55.3074 102.701 55.086 102.969 54.9253 103.323C54.7667 103.676 54.6874 104.109 54.6874 104.622C54.6874 105.135 54.7667 105.569 54.9253 105.923C55.086 106.276 55.3074 106.543 55.5892 106.726C55.8711 106.907 56.196 106.997 56.5638 106.997C56.9315 106.997 57.2564 106.907 57.5383 106.726C57.8202 106.543 58.0404 106.276 58.1989 105.923C58.3597 105.569 58.4401 105.135 58.4401 104.622ZM60.4987 108.004V101.239H61.7243V106.977H64.704V108.004H60.4987ZM65.4354 108.004V101.239H66.661V106.977H69.6407V108.004H65.4354ZM76.154 104.622C76.154 105.351 76.0174 105.975 75.7443 106.495C75.4735 107.012 75.1035 107.409 74.6344 107.684C74.1675 107.959 73.6379 108.097 73.0455 108.097C72.453 108.097 71.9223 107.959 71.4532 107.684C70.9863 107.406 70.6163 107.009 70.3433 106.491C70.0724 105.972 69.9369 105.348 69.9369 104.622C69.9369 103.893 70.0724 103.269 70.3433 102.752C70.6163 102.232 70.9863 101.835 71.4532 101.559C71.9223 101.284 72.453 101.146 73.0455 101.146C73.6379 101.146 74.1675 101.284 74.6344 101.559C75.1035 101.835 75.4735 102.232 75.7443 102.752C76.0174 103.269 76.154 103.893 76.154 104.622ZM74.9218 104.622C74.9218 104.109 74.8414 103.676 74.6806 103.323C74.5221 102.969 74.3019 102.701 74.02 102.521C73.7381 102.338 73.4132 102.247 73.0455 102.247C72.6777 102.247 72.3528 102.338 72.0709 102.521C71.7891 102.701 71.5677 102.969 71.407 103.323C71.2484 103.676 71.1691 104.109 71.1691 104.622C71.1691 105.135 71.2484 105.569 71.407 105.923C71.5677 106.276 71.7891 106.543 72.0709 106.726C72.3528 106.907 72.6777 106.997 73.0455 106.997C73.4132 106.997 73.7381 106.907 74.02 106.726C74.3019 106.543 74.5221 106.276 74.6806 105.923C74.8414 105.569 74.9218 105.135 74.9218 104.622ZM78.2316 108.004L76.3222 101.239H77.6403L78.8592 106.211H78.922L80.2235 101.239H81.4227L82.7275 106.214H82.787L84.006 101.239H85.324L83.4146 108.004H82.2056L80.8512 103.257H80.7983L79.4406 108.004H78.2316ZM85.8416 108.004V101.239H90.2418V102.266H87.0672V104.103H90.0138V105.13H87.0672V106.977H90.2682V108.004H85.8416ZM91.1599 108.004V101.239H93.6969C94.2166 101.239 94.6527 101.329 95.0051 101.51C95.3596 101.69 95.6272 101.944 95.8078 102.27C95.9906 102.593 96.082 102.971 96.082 103.403C96.082 103.837 95.9895 104.213 95.8045 104.533C95.6217 104.85 95.3519 105.095 94.9951 105.269C94.6384 105.441 94.2001 105.527 93.6804 105.527H91.8734V104.509H93.5152C93.8191 104.509 94.068 104.468 94.2618 104.384C94.4556 104.298 94.5987 104.174 94.6912 104.011C94.7859 103.845 94.8333 103.643 94.8333 103.403C94.8333 103.163 94.7859 102.958 94.6912 102.788C94.5965 102.617 94.4523 102.487 94.2585 102.398C94.0647 102.308 93.8147 102.263 93.5086 102.263H92.3854V108.004H91.1599ZM94.6549 104.939L96.3297 108.004H94.9621L93.317 104.939H94.6549ZM100.555 103.099C100.524 102.81 100.394 102.586 100.165 102.425C99.9379 102.264 99.6428 102.184 99.2794 102.184C99.024 102.184 98.8048 102.222 98.6221 102.299C98.4393 102.376 98.2994 102.481 98.2025 102.613C98.1056 102.745 98.0561 102.896 98.0539 103.066C98.0539 103.207 98.0858 103.329 98.1497 103.432C98.2157 103.536 98.3049 103.624 98.4172 103.697C98.5296 103.767 98.654 103.827 98.7905 103.875C98.9271 103.924 99.0647 103.964 99.2035 103.997L99.8377 104.156C100.093 104.215 100.339 104.296 100.574 104.397C100.812 104.498 101.025 104.626 101.212 104.78C101.401 104.934 101.551 105.121 101.661 105.339C101.771 105.557 101.826 105.812 101.826 106.105C101.826 106.501 101.725 106.85 101.522 107.152C101.32 107.452 101.027 107.686 100.644 107.856C100.263 108.023 99.8014 108.107 99.2596 108.107C98.7333 108.107 98.2763 108.025 97.8887 107.862C97.5033 107.699 97.2016 107.462 96.9836 107.149C96.7677 106.836 96.651 106.455 96.6334 106.006H97.8391C97.8568 106.241 97.9294 106.437 98.0572 106.594C98.1849 106.75 98.3512 106.867 98.556 106.944C98.763 107.021 98.9942 107.06 99.2497 107.06C99.5162 107.06 99.7496 107.02 99.95 106.941C100.153 106.859 100.311 106.747 100.426 106.604C100.54 106.458 100.599 106.289 100.601 106.095C100.599 105.919 100.547 105.773 100.446 105.659C100.344 105.542 100.202 105.445 100.019 105.368C99.8388 105.289 99.6274 105.219 99.3851 105.157L98.6154 104.959C98.0583 104.815 97.6178 104.599 97.2941 104.308C96.9725 104.015 96.8118 103.626 96.8118 103.142C96.8118 102.743 96.9197 102.394 97.1355 102.095C97.3535 101.795 97.6497 101.563 98.0241 101.398C98.3985 101.23 98.8225 101.146 99.296 101.146C99.7761 101.146 100.197 101.23 100.558 101.398C100.921 101.563 101.206 101.793 101.413 102.088C101.62 102.381 101.727 102.718 101.734 103.099H100.555Z" fill="#7A7A7A"/>
<path d="M53.4569 130.656V129.387L57.3814 125.321C57.8004 124.879 58.1459 124.492 58.4177 124.16C58.6933 123.824 58.8991 123.505 59.035 123.203C59.1709 122.901 59.2388 122.58 59.2388 122.24C59.2388 121.855 59.1482 121.523 58.967 121.244C58.7858 120.96 58.5385 120.743 58.2252 120.592C57.9118 120.438 57.5588 120.36 57.1662 120.36C56.7509 120.36 56.3885 120.445 56.0789 120.615C55.7693 120.785 55.5315 121.025 55.3654 121.334C55.1992 121.644 55.1162 122.006 55.1162 122.422H53.4456C53.4456 121.716 53.6079 121.098 53.9326 120.57C54.2573 120.041 54.7028 119.632 55.2691 119.341C55.8354 119.046 56.4791 118.899 57.2002 118.899C57.9288 118.899 58.5706 119.044 59.1256 119.335C59.6843 119.622 60.1204 120.015 60.4337 120.513C60.7471 121.008 60.9038 121.566 60.9038 122.189C60.9038 122.62 60.8226 123.041 60.6603 123.452C60.5017 123.864 60.2242 124.322 59.8278 124.828C59.4314 125.33 58.8802 125.94 58.1742 126.657L55.8694 129.07V129.155H61.0906V130.656H53.4569ZM66.6215 130.814C66.1043 130.807 65.5946 130.712 65.0925 130.531C64.5942 130.35 64.1411 130.048 63.7334 129.625C63.3256 129.202 62.9991 128.634 62.7537 127.92C62.5121 127.207 62.3913 126.316 62.3913 125.247C62.3913 124.236 62.4913 123.337 62.6914 122.552C62.8953 121.766 63.1878 121.104 63.5692 120.564C63.9505 120.02 64.4111 119.607 64.9509 119.324C65.4908 119.041 66.0967 118.899 66.7688 118.899C67.4596 118.899 68.0731 119.035 68.6092 119.307C69.1453 119.579 69.5795 119.954 69.9117 120.434C70.2477 120.913 70.461 121.459 70.5516 122.07H68.8244C68.7074 121.587 68.4752 121.193 68.1279 120.887C67.7805 120.581 67.3275 120.428 66.7688 120.428C65.9193 120.428 65.2567 120.798 64.781 121.538C64.3091 122.278 64.0713 123.307 64.0675 124.624H64.1524C64.3525 124.296 64.5979 124.017 64.8886 123.786C65.1831 123.552 65.5116 123.373 65.874 123.248C66.2402 123.12 66.6253 123.056 67.0293 123.056C67.7013 123.056 68.3091 123.22 68.8527 123.548C69.4002 123.873 69.8362 124.322 70.1609 124.896C70.4856 125.47 70.6479 126.127 70.6479 126.867C70.6479 127.607 70.4799 128.277 70.1439 128.877C69.8117 129.478 69.3435 129.953 68.7395 130.304C68.1354 130.652 67.4294 130.822 66.6215 130.814ZM66.6159 129.342C67.0613 129.342 67.4596 129.232 67.8107 129.013C68.1619 128.794 68.4393 128.5 68.6432 128.13C68.8471 127.76 68.949 127.346 68.949 126.89C68.949 126.444 68.849 126.038 68.6489 125.672C68.4526 125.306 68.1807 125.015 67.8334 124.8C67.4898 124.585 67.0972 124.477 66.6555 124.477C66.3195 124.477 66.008 124.541 65.7211 124.67C65.4379 124.798 65.1888 124.976 64.9736 125.202C64.7584 125.429 64.5885 125.689 64.4639 125.984C64.3431 126.274 64.2827 126.582 64.2827 126.907C64.2827 127.341 64.3827 127.743 64.5828 128.113C64.7867 128.483 65.0642 128.781 65.4153 129.008C65.7702 129.23 66.1704 129.342 66.6159 129.342ZM73.7423 129.07L73.6573 129.687C73.6007 130.14 73.5044 130.612 73.3685 131.103C73.2364 131.597 73.0986 132.056 72.9551 132.479C72.8154 132.902 72.7003 133.238 72.6097 133.487H71.4091C71.4582 133.253 71.5262 132.936 71.613 132.536C71.6998 132.139 71.7848 131.696 71.8678 131.205C71.9509 130.714 72.0132 130.214 72.0547 129.704L72.1113 129.07H73.7423ZM78.9758 130.814C78.1641 130.814 77.4468 130.674 76.8239 130.395C76.2047 130.116 75.7196 129.731 75.3685 129.24C75.0174 128.749 74.8437 128.19 74.8475 127.564C74.8437 127.073 74.9438 126.622 75.1476 126.21C75.3553 125.795 75.6365 125.449 75.9914 125.174C76.3463 124.894 76.7427 124.717 77.1807 124.641V124.573C76.603 124.434 76.1406 124.124 75.7932 123.645C75.4459 123.165 75.2741 122.614 75.2779 121.991C75.2741 121.398 75.4308 120.87 75.7479 120.405C76.0688 119.937 76.5087 119.569 77.0674 119.301C77.6262 119.033 78.2623 118.899 78.9758 118.899C79.6818 118.899 80.3123 119.035 80.8673 119.307C81.426 119.575 81.8659 119.943 82.1868 120.411C82.5077 120.876 82.67 121.402 82.6738 121.991C82.67 122.614 82.4926 123.165 82.1415 123.645C81.7903 124.124 81.3335 124.434 80.771 124.573V124.641C81.2052 124.717 81.5959 124.894 81.9432 125.174C82.2944 125.449 82.5737 125.795 82.7814 126.21C82.9928 126.622 83.1004 127.073 83.1042 127.564C83.1004 128.19 82.9229 128.749 82.5718 129.24C82.2207 129.731 81.7337 130.116 81.1108 130.395C80.4916 130.674 79.78 130.814 78.9758 130.814ZM78.9758 129.381C79.4553 129.381 79.8706 129.302 80.2217 129.143C80.5728 128.981 80.8446 128.757 81.0372 128.47C81.2297 128.179 81.3279 127.839 81.3316 127.45C81.3279 127.046 81.2222 126.69 81.0145 126.38C80.8106 126.07 80.5332 125.827 80.1821 125.649C79.8309 125.472 79.4289 125.383 78.9758 125.383C78.519 125.383 78.1132 125.472 77.7583 125.649C77.4034 125.827 77.124 126.07 76.9202 126.38C76.7163 126.69 76.6162 127.046 76.62 127.45C76.6162 127.839 76.7087 128.179 76.8975 128.47C77.0901 128.757 77.3638 128.981 77.7186 129.143C78.0735 129.302 78.4926 129.381 78.9758 129.381ZM78.9758 123.984C79.3609 123.984 79.7026 123.907 80.0008 123.752C80.2991 123.598 80.5332 123.382 80.7031 123.107C80.8767 122.831 80.9654 122.508 80.9692 122.138C80.9654 121.776 80.8786 121.459 80.7087 121.187C80.5426 120.915 80.3104 120.706 80.0122 120.558C79.7139 120.407 79.3685 120.332 78.9758 120.332C78.5756 120.332 78.2245 120.407 77.9225 120.558C77.6243 120.706 77.3921 120.915 77.226 121.187C77.0599 121.459 76.9787 121.776 76.9825 122.138C76.9787 122.508 77.0617 122.831 77.2316 123.107C77.4015 123.382 77.6356 123.598 77.9338 123.752C78.2359 123.907 78.5832 123.984 78.9758 123.984ZM84.627 119.058H86.7507L90.4429 128.073H90.5789L94.2711 119.058H96.3948V130.656H94.7298V122.263H94.6222L91.2018 130.639H89.82L86.3996 122.257H86.292V130.656H84.627V119.058Z" fill="#242424"/>
<rect x="136.396" y="84.7185" width="112.958" height="64.223" rx="2.32561" fill="#F9F9F9"/>
<rect x="136.396" y="84.7185" width="112.958" height="64.223" rx="2.32561" stroke="#F2F2F2" stroke-width="0.664459"/>
<path d="M181.719 103.099C181.688 102.81 181.558 102.586 181.329 102.425C181.102 102.264 180.807 102.184 180.444 102.184C180.188 102.184 179.969 102.222 179.786 102.299C179.604 102.376 179.464 102.481 179.367 102.613C179.27 102.745 179.221 102.896 179.218 103.066C179.218 103.207 179.25 103.329 179.314 103.432C179.38 103.536 179.469 103.624 179.582 103.697C179.694 103.767 179.818 103.827 179.955 103.875C180.092 103.924 180.229 103.964 180.368 103.997L181.002 104.156C181.258 104.215 181.503 104.296 181.739 104.397C181.977 104.498 182.189 104.626 182.376 104.78C182.566 104.934 182.716 105.121 182.826 105.339C182.936 105.557 182.991 105.812 182.991 106.105C182.991 106.501 182.89 106.85 182.687 107.152C182.484 107.452 182.191 107.686 181.808 107.856C181.427 108.023 180.966 108.107 180.424 108.107C179.898 108.107 179.441 108.025 179.053 107.862C178.668 107.699 178.366 107.462 178.148 107.149C177.932 106.836 177.815 106.455 177.798 106.006H179.004C179.021 106.241 179.094 106.437 179.222 106.594C179.349 106.75 179.516 106.867 179.72 106.944C179.927 107.021 180.159 107.06 180.414 107.06C180.681 107.06 180.914 107.02 181.114 106.941C181.317 106.859 181.476 106.747 181.59 106.604C181.705 106.458 181.763 106.289 181.765 106.095C181.763 105.919 181.711 105.773 181.61 105.659C181.509 105.542 181.367 105.445 181.184 105.368C181.003 105.289 180.792 105.219 180.55 105.157L179.78 104.959C179.223 104.815 178.782 104.599 178.459 104.308C178.137 104.015 177.976 103.626 177.976 103.142C177.976 102.743 178.084 102.394 178.3 102.095C178.518 101.795 178.814 101.563 179.189 101.398C179.563 101.23 179.987 101.146 180.46 101.146C180.94 101.146 181.361 101.23 181.722 101.398C182.086 101.563 182.371 101.793 182.578 102.088C182.785 102.381 182.892 102.718 182.898 103.099H181.719ZM183.454 102.266V101.239H188.852V102.266H186.761V108.004H185.545V102.266H183.454ZM195.305 104.622C195.305 105.351 195.169 105.975 194.896 106.495C194.625 107.012 194.255 107.409 193.786 107.684C193.319 107.959 192.789 108.097 192.197 108.097C191.605 108.097 191.074 107.959 190.605 107.684C190.138 107.406 189.768 107.009 189.495 106.491C189.224 105.972 189.088 105.348 189.088 104.622C189.088 103.893 189.224 103.269 189.495 102.752C189.768 102.232 190.138 101.835 190.605 101.559C191.074 101.284 191.605 101.146 192.197 101.146C192.789 101.146 193.319 101.284 193.786 101.559C194.255 101.835 194.625 102.232 194.896 102.752C195.169 103.269 195.305 103.893 195.305 104.622ZM194.073 104.622C194.073 104.109 193.993 103.676 193.832 103.323C193.674 102.969 193.453 102.701 193.171 102.521C192.89 102.338 192.565 102.247 192.197 102.247C191.829 102.247 191.504 102.338 191.222 102.521C190.941 102.701 190.719 102.969 190.558 103.323C190.4 103.676 190.321 104.109 190.321 104.622C190.321 105.135 190.4 105.569 190.558 105.923C190.719 106.276 190.941 106.543 191.222 106.726C191.504 106.907 191.829 106.997 192.197 106.997C192.565 106.997 192.89 106.907 193.171 106.726C193.453 106.543 193.674 106.276 193.832 105.923C193.993 105.569 194.073 105.135 194.073 104.622ZM201.923 103.522H200.687C200.652 103.319 200.587 103.14 200.492 102.983C200.398 102.825 200.28 102.69 200.139 102.58C199.998 102.47 199.837 102.387 199.657 102.332C199.478 102.275 199.286 102.247 199.079 102.247C198.711 102.247 198.385 102.339 198.101 102.524C197.817 102.707 197.594 102.975 197.433 103.33C197.273 103.682 197.192 104.113 197.192 104.622C197.192 105.139 197.273 105.575 197.433 105.93C197.596 106.282 197.819 106.549 198.101 106.729C198.385 106.908 198.71 106.997 199.075 106.997C199.278 106.997 199.467 106.97 199.643 106.918C199.822 106.863 199.982 106.782 200.122 106.676C200.266 106.571 200.386 106.441 200.483 106.287C200.582 106.132 200.65 105.956 200.687 105.758L201.923 105.765C201.877 106.086 201.776 106.388 201.622 106.67C201.47 106.952 201.271 107.201 201.024 107.416C200.778 107.63 200.489 107.797 200.159 107.919C199.828 108.037 199.462 108.097 199.059 108.097C198.464 108.097 197.933 107.959 197.467 107.684C197 107.409 196.632 107.011 196.363 106.491C196.094 105.972 195.96 105.348 195.96 104.622C195.96 103.893 196.096 103.269 196.366 102.752C196.637 102.232 197.006 101.835 197.473 101.559C197.94 101.284 198.469 101.146 199.059 101.146C199.435 101.146 199.786 101.199 200.109 101.305C200.433 101.411 200.721 101.566 200.975 101.771C201.228 101.973 201.436 102.222 201.599 102.517C201.764 102.81 201.872 103.145 201.923 103.522ZM202.713 108.004V101.239H203.939V104.348H204.021L206.661 101.239H208.157L205.541 104.275L208.18 108.004H206.707L204.688 105.104L203.939 105.989V108.004H202.713Z" fill="#7A7A7A"/>
<path d="M167.143 132.105V117.608H168.072V132.105H167.143ZM169.822 122.246C169.769 121.751 169.546 121.366 169.154 121.091C168.765 120.815 168.259 120.677 167.636 120.677C167.198 120.677 166.822 120.743 166.509 120.876C166.196 121.008 165.956 121.187 165.79 121.413C165.624 121.64 165.539 121.899 165.535 122.189C165.535 122.431 165.59 122.64 165.699 122.818C165.812 122.995 165.965 123.146 166.158 123.271C166.35 123.392 166.564 123.494 166.798 123.577C167.032 123.66 167.268 123.73 167.506 123.786L168.593 124.058C169.031 124.16 169.452 124.298 169.856 124.472C170.264 124.645 170.628 124.864 170.949 125.128C171.273 125.393 171.53 125.712 171.719 126.085C171.908 126.459 172.002 126.897 172.002 127.399C172.002 128.079 171.828 128.677 171.481 129.194C171.134 129.708 170.632 130.11 169.975 130.401C169.322 130.688 168.531 130.831 167.602 130.831C166.7 130.831 165.916 130.691 165.252 130.412C164.591 130.133 164.074 129.725 163.7 129.189C163.33 128.653 163.13 128 163.1 127.229H165.167C165.197 127.633 165.322 127.969 165.541 128.237C165.76 128.505 166.045 128.706 166.396 128.838C166.751 128.97 167.147 129.036 167.585 129.036C168.042 129.036 168.442 128.968 168.786 128.832C169.133 128.692 169.405 128.5 169.601 128.254C169.797 128.005 169.897 127.715 169.901 127.382C169.897 127.08 169.809 126.831 169.635 126.635C169.461 126.435 169.218 126.269 168.904 126.136C168.595 126.001 168.232 125.88 167.817 125.774L166.498 125.434C165.543 125.189 164.787 124.817 164.232 124.319C163.681 123.816 163.406 123.15 163.406 122.32C163.406 121.636 163.591 121.038 163.961 120.524C164.334 120.011 164.842 119.613 165.484 119.33C166.126 119.043 166.853 118.899 167.664 118.899C168.487 118.899 169.208 119.043 169.828 119.33C170.45 119.613 170.939 120.007 171.294 120.513C171.649 121.015 171.832 121.593 171.844 122.246H169.822ZM178.147 119.058V130.656H176.046V121.102H175.978L173.265 122.835V120.909L176.148 119.058H178.147ZM185.007 130.814C184.452 130.81 183.91 130.714 183.381 130.525C182.853 130.333 182.377 130.021 181.954 129.591C181.532 129.157 181.196 128.581 180.946 127.864C180.697 127.143 180.574 126.25 180.578 125.185C180.578 124.192 180.684 123.307 180.895 122.529C181.107 121.751 181.411 121.094 181.807 120.558C182.204 120.019 182.681 119.607 183.24 119.324C183.802 119.041 184.431 118.899 185.126 118.899C185.854 118.899 186.5 119.043 187.062 119.33C187.629 119.616 188.086 120.009 188.433 120.507C188.78 121.002 188.995 121.561 189.078 122.184H187.011C186.906 121.738 186.689 121.383 186.36 121.119C186.036 120.851 185.624 120.717 185.126 120.717C184.322 120.717 183.702 121.066 183.268 121.765C182.838 122.463 182.621 123.422 182.617 124.641H182.696C182.881 124.309 183.121 124.024 183.415 123.786C183.71 123.548 184.042 123.365 184.412 123.237C184.786 123.105 185.18 123.039 185.596 123.039C186.275 123.039 186.885 123.201 187.425 123.526C187.968 123.85 188.399 124.298 188.716 124.868C189.033 125.434 189.19 126.084 189.186 126.816C189.19 127.579 189.016 128.264 188.665 128.872C188.314 129.476 187.825 129.951 187.198 130.299C186.572 130.646 185.841 130.818 185.007 130.814ZM184.995 129.115C185.407 129.115 185.775 129.015 186.1 128.815C186.424 128.615 186.681 128.345 186.87 128.005C187.059 127.665 187.151 127.284 187.147 126.861C187.151 126.446 187.061 126.07 186.876 125.734C186.694 125.398 186.443 125.132 186.122 124.936C185.801 124.74 185.435 124.641 185.024 124.641C184.718 124.641 184.433 124.7 184.169 124.817C183.904 124.934 183.674 125.096 183.478 125.304C183.281 125.508 183.127 125.746 183.013 126.018C182.904 126.286 182.847 126.572 182.843 126.878C182.847 127.282 182.942 127.654 183.127 127.994C183.312 128.334 183.566 128.606 183.891 128.809C184.216 129.013 184.584 129.115 184.995 129.115ZM194.8 130.814C194.045 130.814 193.369 130.673 192.773 130.389C192.176 130.102 191.702 129.71 191.351 129.211C191.004 128.713 190.819 128.143 190.796 127.501H192.835C192.873 127.977 193.078 128.366 193.452 128.668C193.826 128.966 194.275 129.115 194.8 129.115C195.211 129.115 195.578 129.021 195.899 128.832C196.219 128.643 196.472 128.381 196.657 128.045C196.842 127.709 196.933 127.326 196.929 126.895C196.933 126.457 196.841 126.068 196.652 125.729C196.463 125.389 196.204 125.123 195.876 124.93C195.547 124.734 195.17 124.636 194.743 124.636C194.396 124.632 194.054 124.696 193.718 124.828C193.382 124.96 193.116 125.134 192.92 125.349L191.023 125.038L191.629 119.058H198.356V120.813H193.367L193.033 123.888H193.101C193.316 123.635 193.62 123.426 194.013 123.26C194.405 123.09 194.836 123.005 195.304 123.005C196.006 123.005 196.633 123.171 197.184 123.503C197.735 123.832 198.169 124.285 198.487 124.862C198.804 125.44 198.962 126.101 198.962 126.844C198.962 127.611 198.785 128.294 198.43 128.894C198.079 129.491 197.59 129.961 196.963 130.304C196.34 130.644 195.619 130.814 194.8 130.814ZM202.567 129.07L202.494 129.693C202.441 130.168 202.346 130.652 202.21 131.143C202.078 131.637 201.939 132.092 201.791 132.507C201.644 132.923 201.525 133.249 201.435 133.487H200.053C200.106 133.257 200.177 132.943 200.268 132.547C200.362 132.151 200.453 131.705 200.54 131.21C200.627 130.716 200.685 130.214 200.715 129.704L200.755 129.07H202.567ZM208.344 130.876C207.411 130.876 206.611 130.64 205.943 130.168C205.278 129.693 204.767 129.008 204.408 128.113C204.053 127.214 203.876 126.133 203.876 124.868C203.88 123.603 204.059 122.527 204.414 121.64C204.772 120.749 205.284 120.069 205.949 119.601C206.617 119.133 207.415 118.899 208.344 118.899C209.273 118.899 210.071 119.133 210.739 119.601C211.408 120.069 211.919 120.749 212.274 121.64C212.633 122.531 212.812 123.607 212.812 124.868C212.812 126.136 212.633 127.22 212.274 128.118C211.919 129.013 211.408 129.697 210.739 130.168C210.075 130.64 209.276 130.876 208.344 130.876ZM208.344 129.104C209.069 129.104 209.641 128.747 210.06 128.034C210.483 127.316 210.694 126.261 210.694 124.868C210.694 123.947 210.598 123.173 210.405 122.546C210.213 121.919 209.941 121.447 209.59 121.13C209.239 120.809 208.823 120.649 208.344 120.649C207.623 120.649 207.053 121.008 206.634 121.725C206.215 122.438 206.003 123.486 205.999 124.868C205.996 125.793 206.088 126.571 206.277 127.201C206.47 127.832 206.741 128.307 207.092 128.628C207.444 128.945 207.861 129.104 208.344 129.104ZM214.361 130.656V129.138L218.388 125.191C218.773 124.802 219.094 124.456 219.35 124.154C219.607 123.852 219.8 123.56 219.928 123.277C220.056 122.993 220.121 122.691 220.121 122.371C220.121 122.004 220.038 121.691 219.871 121.43C219.705 121.166 219.477 120.962 219.186 120.819C218.896 120.675 218.565 120.604 218.195 120.604C217.814 120.604 217.48 120.683 217.193 120.842C216.906 120.996 216.683 121.217 216.525 121.504C216.37 121.791 216.292 122.133 216.292 122.529H214.293C214.293 121.793 214.461 121.153 214.797 120.609C215.133 120.066 215.596 119.645 216.185 119.346C216.778 119.048 217.457 118.899 218.224 118.899C219.001 118.899 219.685 119.044 220.274 119.335C220.863 119.626 221.319 120.024 221.644 120.53C221.972 121.036 222.137 121.614 222.137 122.263C222.137 122.697 222.054 123.124 221.888 123.543C221.721 123.962 221.429 124.426 221.01 124.936C220.594 125.446 220.011 126.063 219.26 126.788L217.261 128.821V128.9H222.312V130.656H214.361Z" fill="#242424"/>
<g clip-path="url(#clip1_937_7076)">
<rect x="18.605" y="153.925" width="230.567" height="89.0375" rx="2.65784" fill="url(#paint0_linear_937_7076)" fill-opacity="0.52"/>
<path d="M25.2495 242.298L37.542 211.733H41.5288L51.4956 232.996L56.1469 230.006L59.8014 225.022V218.378L67.7749 220.703L73.755 226.351L77.4096 231.999L87.7087 220.703L90.6987 230.006H93.3566L95.35 231.999L103.656 223.693L107.975 225.022L112.958 223.693L116.613 230.006L123.257 222.696L126.912 227.348L131.895 223.693L137.211 230.006H142.527L145.517 231.999L151.497 227.348L154.819 230.006L159.47 223.693L168.44 232.996L172.095 231.002L174.753 231.999L178.407 227.348H186.049L189.703 230.006L197.344 222.696L202.328 226.351L204.321 220.703L209.637 227.348L221.929 226.351L226.913 230.006L232.229 231.002L235.219 232.996L242.86 227.348L249.837 231.002" stroke="#978FED" stroke-width="0.996689" stroke-linecap="round"/>
<path d="M37.542 211.733L25.2495 242.298H249.837V231.002L242.86 227.348L235.219 232.996L232.229 231.002L226.913 230.006L221.929 226.351L209.637 227.348L204.321 220.703L202.328 226.351L197.344 222.696L189.703 230.006L186.049 227.348H178.407L174.753 231.999L172.095 231.002L168.44 232.996L159.47 223.693L154.819 230.006L151.497 227.348L145.517 231.999L142.527 230.006H137.211L131.895 223.693L126.912 227.348L123.257 222.696L116.613 230.006L112.958 223.693L107.975 225.022L103.656 223.693L95.35 231.999L93.3566 230.006H90.6987L87.7087 220.703L77.4096 231.999L73.755 226.351L67.7749 220.703L59.8014 218.378V225.022L56.1469 230.006L51.4956 232.996L41.5288 211.733H37.542Z" fill="url(#paint1_linear_937_7076)"/>
<path d="M110.858 198.47V197.836L112.82 195.803C113.03 195.582 113.203 195.389 113.338 195.222C113.476 195.054 113.579 194.895 113.647 194.744C113.715 194.593 113.749 194.432 113.749 194.263C113.749 194.07 113.704 193.904 113.613 193.764C113.523 193.623 113.399 193.514 113.242 193.439C113.086 193.361 112.909 193.323 112.713 193.323C112.505 193.323 112.324 193.365 112.169 193.45C112.014 193.535 111.895 193.655 111.812 193.81C111.729 193.964 111.688 194.146 111.688 194.353H110.852C110.852 194 110.934 193.692 111.096 193.427C111.258 193.163 111.481 192.958 111.764 192.813C112.047 192.666 112.369 192.592 112.73 192.592C113.094 192.592 113.415 192.665 113.692 192.81C113.972 192.954 114.19 193.15 114.347 193.399C114.503 193.646 114.582 193.926 114.582 194.237C114.582 194.452 114.541 194.663 114.46 194.869C114.38 195.074 114.242 195.304 114.044 195.557C113.845 195.808 113.57 196.113 113.217 196.471L112.064 197.677V197.72H114.675V198.47H110.858ZM117.948 192.671V198.47H117.07V193.549H117.036L115.649 194.455V193.617L117.096 192.671H117.948ZM122.196 198.47H121.267L123.354 192.671H124.365L126.452 198.47H125.523L123.884 193.725H123.838L122.196 198.47ZM122.352 196.199H125.365V196.936H122.352V196.199ZM127.221 200.101V194.121H128.048V194.826H128.119C128.168 194.735 128.239 194.631 128.331 194.512C128.424 194.393 128.552 194.289 128.716 194.2C128.881 194.11 129.098 194.064 129.368 194.064C129.719 194.064 130.032 194.153 130.308 194.331C130.583 194.508 130.799 194.764 130.956 195.098C131.115 195.432 131.194 195.834 131.194 196.304C131.194 196.774 131.116 197.177 130.959 197.513C130.802 197.847 130.587 198.105 130.313 198.286C130.04 198.465 129.727 198.555 129.376 198.555C129.112 198.555 128.896 198.511 128.728 198.422C128.562 198.333 128.431 198.23 128.337 198.111C128.243 197.992 128.17 197.886 128.119 197.793H128.068V200.101H127.221ZM128.051 196.296C128.051 196.601 128.095 196.869 128.184 197.1C128.273 197.33 128.401 197.51 128.569 197.641C128.737 197.769 128.943 197.833 129.186 197.833C129.439 197.833 129.651 197.766 129.821 197.632C129.991 197.496 130.119 197.312 130.206 197.08C130.294 196.848 130.339 196.586 130.339 196.296C130.339 196.009 130.295 195.751 130.209 195.523C130.124 195.294 129.995 195.114 129.824 194.982C129.654 194.85 129.441 194.784 129.186 194.784C128.941 194.784 128.733 194.847 128.563 194.973C128.395 195.1 128.268 195.276 128.181 195.503C128.094 195.729 128.051 195.994 128.051 196.296ZM132.143 198.47V194.121H132.961V194.812H133.006C133.085 194.578 133.225 194.394 133.425 194.26C133.627 194.124 133.856 194.056 134.11 194.056C134.163 194.056 134.226 194.058 134.297 194.062C134.371 194.065 134.428 194.07 134.47 194.076V194.886C134.436 194.876 134.376 194.866 134.289 194.854C134.202 194.841 134.115 194.835 134.028 194.835C133.828 194.835 133.65 194.877 133.493 194.962C133.338 195.045 133.216 195.161 133.125 195.31C133.034 195.457 132.989 195.625 132.989 195.814V198.47H132.143ZM135.806 197.677L135.763 197.986C135.735 198.213 135.687 198.449 135.619 198.694C135.553 198.941 135.484 199.171 135.412 199.382C135.342 199.593 135.285 199.761 135.239 199.886H134.639C134.664 199.769 134.698 199.61 134.741 199.41C134.785 199.212 134.827 198.99 134.869 198.745C134.91 198.499 134.941 198.249 134.962 197.995L134.99 197.677H135.806ZM141.207 192.671V198.47H140.329V193.549H140.295L138.908 194.455V193.617L140.355 192.671H141.207ZM144.704 192.592C144.962 192.594 145.217 192.641 145.468 192.734C145.719 192.826 145.946 192.977 146.148 193.187C146.352 193.396 146.514 193.679 146.635 194.036C146.758 194.391 146.82 194.833 146.822 195.361C146.822 195.869 146.771 196.321 146.669 196.718C146.567 197.112 146.421 197.445 146.23 197.717C146.041 197.989 145.812 198.196 145.542 198.337C145.272 198.479 144.968 198.549 144.63 198.549C144.285 198.549 143.978 198.482 143.71 198.346C143.442 198.21 143.224 198.022 143.056 197.782C142.888 197.541 142.783 197.263 142.742 196.95H143.605C143.662 197.199 143.777 197.401 143.951 197.556C144.126 197.709 144.353 197.785 144.63 197.785C145.055 197.785 145.386 197.6 145.624 197.23C145.862 196.858 145.982 196.339 145.984 195.673H145.938C145.84 195.835 145.717 195.975 145.57 196.092C145.425 196.209 145.262 196.299 145.08 196.364C144.899 196.428 144.706 196.46 144.5 196.46C144.166 196.46 143.862 196.378 143.588 196.214C143.314 196.049 143.096 195.824 142.934 195.537C142.772 195.25 142.691 194.922 142.691 194.554C142.691 194.188 142.774 193.856 142.94 193.558C143.108 193.259 143.342 193.023 143.642 192.85C143.944 192.674 144.298 192.588 144.704 192.592ZM144.707 193.328C144.486 193.328 144.287 193.383 144.109 193.492C143.934 193.6 143.795 193.746 143.693 193.931C143.591 194.114 143.54 194.318 143.54 194.543C143.54 194.768 143.589 194.971 143.687 195.155C143.787 195.336 143.923 195.48 144.095 195.588C144.269 195.693 144.467 195.746 144.69 195.746C144.856 195.746 145.01 195.714 145.154 195.65C145.297 195.586 145.423 195.497 145.531 195.384C145.638 195.269 145.722 195.138 145.783 194.993C145.843 194.848 145.873 194.695 145.873 194.534C145.873 194.321 145.822 194.123 145.72 193.94C145.62 193.757 145.482 193.609 145.307 193.498C145.131 193.385 144.931 193.328 144.707 193.328ZM148.414 197.751C148.259 197.751 148.126 197.696 148.014 197.587C147.903 197.475 147.847 197.341 147.847 197.185C147.847 197.03 147.903 196.898 148.014 196.788C148.126 196.677 148.259 196.621 148.414 196.621C148.569 196.621 148.702 196.677 148.813 196.788C148.924 196.898 148.98 197.03 148.98 197.185C148.98 197.289 148.954 197.384 148.901 197.471C148.85 197.556 148.782 197.624 148.697 197.675C148.612 197.726 148.518 197.751 148.414 197.751ZM148.414 194.846C148.259 194.846 148.126 194.791 148.014 194.682C147.903 194.57 147.847 194.436 147.847 194.28C147.847 194.125 147.903 193.993 148.014 193.883C148.126 193.772 148.259 193.716 148.414 193.716C148.569 193.716 148.702 193.772 148.813 193.883C148.924 193.993 148.98 194.125 148.98 194.28C148.98 194.383 148.954 194.479 148.901 194.566C148.85 194.651 148.782 194.718 148.697 194.769C148.612 194.82 148.518 194.846 148.414 194.846ZM152.017 198.549C151.662 198.549 151.343 198.482 151.06 198.346C150.779 198.208 150.554 198.019 150.386 197.779C150.218 197.54 150.128 197.266 150.117 196.958H150.966C150.987 197.207 151.098 197.412 151.298 197.573C151.498 197.733 151.737 197.813 152.017 197.813C152.24 197.813 152.437 197.762 152.609 197.66C152.782 197.557 152.918 197.414 153.016 197.233C153.116 197.052 153.166 196.845 153.166 196.613C153.166 196.377 153.115 196.166 153.014 195.981C152.912 195.796 152.771 195.651 152.592 195.545C152.414 195.44 152.21 195.386 151.98 195.384C151.804 195.384 151.628 195.414 151.451 195.474C151.273 195.535 151.13 195.614 151.02 195.712L150.219 195.593L150.544 192.671H153.733V193.422H151.272L151.088 195.044H151.122C151.235 194.935 151.385 194.843 151.572 194.769C151.761 194.696 151.963 194.659 152.178 194.659C152.531 194.659 152.845 194.743 153.121 194.911C153.399 195.079 153.617 195.308 153.775 195.599C153.936 195.888 154.015 196.22 154.013 196.596C154.015 196.971 153.93 197.306 153.758 197.601C153.588 197.895 153.352 198.128 153.05 198.297C152.75 198.465 152.406 198.549 152.017 198.549ZM156.975 192.592C157.234 192.594 157.489 192.641 157.74 192.734C157.991 192.826 158.218 192.977 158.42 193.187C158.623 193.396 158.786 193.679 158.907 194.036C159.029 194.391 159.092 194.833 159.093 195.361C159.093 195.869 159.042 196.321 158.941 196.718C158.839 197.112 158.692 197.445 158.502 197.717C158.313 197.989 158.084 198.196 157.814 198.337C157.544 198.479 157.24 198.549 156.902 198.549C156.556 198.549 156.25 198.482 155.982 198.346C155.714 198.21 155.496 198.022 155.328 197.782C155.16 197.541 155.055 197.263 155.013 196.95H155.877C155.933 197.199 156.049 197.401 156.222 197.556C156.398 197.709 156.624 197.785 156.902 197.785C157.327 197.785 157.658 197.6 157.896 197.23C158.134 196.858 158.253 196.339 158.255 195.673H158.21C158.112 195.835 157.989 195.975 157.842 196.092C157.697 196.209 157.533 196.299 157.352 196.364C157.171 196.428 156.977 196.46 156.772 196.46C156.437 196.46 156.134 196.378 155.86 196.214C155.586 196.049 155.368 195.824 155.206 195.537C155.043 195.25 154.962 194.922 154.962 194.554C154.962 194.188 155.045 193.856 155.211 193.558C155.379 193.259 155.614 193.023 155.914 192.85C156.216 192.674 156.57 192.588 156.975 192.592ZM156.978 193.328C156.757 193.328 156.558 193.383 156.381 193.492C156.205 193.6 156.067 193.746 155.965 193.931C155.863 194.114 155.812 194.318 155.812 194.543C155.812 194.768 155.861 194.971 155.959 195.155C156.059 195.336 156.195 195.48 156.367 195.588C156.54 195.693 156.739 195.746 156.961 195.746C157.127 195.746 157.282 195.714 157.426 195.65C157.569 195.586 157.695 195.497 157.802 195.384C157.91 195.269 157.994 195.138 158.054 194.993C158.115 194.848 158.145 194.695 158.145 194.534C158.145 194.321 158.094 194.123 157.992 193.94C157.892 193.757 157.754 193.609 157.579 193.498C157.403 193.385 157.203 193.328 156.978 193.328Z" fill="#7A7A7A"/>
<path d="M97.7927 185.657V171.16H98.7214V185.657H97.7927ZM100.471 175.798C100.418 175.303 100.196 174.918 99.803 174.643C99.4142 174.367 98.9083 174.229 98.2853 174.229C97.8474 174.229 97.4718 174.295 97.1584 174.428C96.8451 174.56 96.6053 174.739 96.4392 174.965C96.2731 175.192 96.1881 175.451 96.1844 175.741C96.1844 175.983 96.2391 176.192 96.3486 176.37C96.4619 176.547 96.6148 176.698 96.8073 176.823C96.9998 176.944 97.2131 177.046 97.4472 177.129C97.6813 177.212 97.9172 177.282 98.1551 177.338L99.2424 177.61C99.6803 177.712 100.101 177.85 100.505 178.024C100.913 178.197 101.277 178.416 101.598 178.68C101.923 178.945 102.18 179.264 102.368 179.637C102.557 180.011 102.652 180.449 102.652 180.951C102.652 181.631 102.478 182.229 102.131 182.746C101.783 183.26 101.281 183.662 100.624 183.953C99.971 184.24 99.1801 184.383 98.2514 184.383C97.3491 184.383 96.5657 184.243 95.9012 183.964C95.2405 183.685 94.7233 183.277 94.3496 182.741C93.9796 182.205 93.7795 181.552 93.7493 180.781H95.8163C95.8465 181.185 95.9711 181.521 96.19 181.789C96.409 182.057 96.694 182.258 97.0451 182.39C97.4 182.522 97.7964 182.588 98.2344 182.588C98.6912 182.588 99.0914 182.52 99.4349 182.384C99.7823 182.244 100.054 182.052 100.25 181.806C100.447 181.557 100.547 181.267 100.551 180.934C100.547 180.632 100.458 180.383 100.284 180.187C100.111 179.987 99.8672 179.821 99.5539 179.688C99.2443 179.553 98.8818 179.432 98.4666 179.326L97.1471 178.986C96.1919 178.741 95.4369 178.369 94.8819 177.871C94.3307 177.368 94.0551 176.702 94.0551 175.872C94.0551 175.188 94.2401 174.59 94.6101 174.076C94.9838 173.563 95.4916 173.165 96.1334 172.882C96.7752 172.595 97.502 172.451 98.3137 172.451C99.1367 172.451 99.8578 172.595 100.477 172.882C101.1 173.165 101.589 173.559 101.944 174.065C102.299 174.567 102.482 175.145 102.493 175.798H100.471ZM108.796 172.61V184.208H106.695V174.654H106.627L103.915 176.387V174.461L106.797 172.61H108.796ZM111.409 184.208V182.69L115.435 178.743C115.82 178.354 116.141 178.008 116.398 177.706C116.655 177.404 116.847 177.112 116.976 176.829C117.104 176.545 117.168 176.243 117.168 175.923C117.168 175.556 117.085 175.243 116.919 174.982C116.753 174.718 116.524 174.514 116.234 174.371C115.943 174.227 115.613 174.156 115.243 174.156C114.861 174.156 114.527 174.235 114.24 174.394C113.953 174.548 113.731 174.769 113.572 175.056C113.417 175.343 113.34 175.685 113.34 176.081H111.341C111.341 175.345 111.509 174.705 111.845 174.161C112.181 173.618 112.643 173.197 113.232 172.899C113.825 172.6 114.505 172.451 115.271 172.451C116.049 172.451 116.732 172.596 117.321 172.887C117.91 173.178 118.367 173.576 118.692 174.082C119.02 174.588 119.184 175.166 119.184 175.815C119.184 176.249 119.101 176.676 118.935 177.095C118.769 177.514 118.476 177.978 118.057 178.488C117.642 178.998 117.059 179.615 116.307 180.34L114.308 182.373V182.452H119.36V184.208H111.409ZM120.523 182.056V180.385L125.444 172.61H126.837V174.988H125.987L122.674 180.238V180.328H129.544V182.056H120.523ZM126.055 184.208V181.546L126.078 180.798V172.61H128.06V184.208H126.055ZM133.123 182.622L133.05 183.245C132.997 183.721 132.902 184.204 132.766 184.695C132.634 185.189 132.495 185.644 132.347 186.059C132.2 186.475 132.081 186.801 131.991 187.039H130.609C130.662 186.809 130.733 186.495 130.824 186.099C130.918 185.703 131.009 185.257 131.096 184.762C131.183 184.268 131.241 183.766 131.271 183.256L131.311 182.622H133.123ZM135.065 184.208V182.69L139.091 178.743C139.476 178.354 139.797 178.008 140.054 177.706C140.31 177.404 140.503 177.112 140.631 176.829C140.76 176.545 140.824 176.243 140.824 175.923C140.824 175.556 140.741 175.243 140.575 174.982C140.409 174.718 140.18 174.514 139.89 174.371C139.599 174.227 139.269 174.156 138.899 174.156C138.517 174.156 138.183 174.235 137.896 174.394C137.609 174.548 137.386 174.769 137.228 175.056C137.073 175.343 136.996 175.685 136.996 176.081H134.997C134.997 175.345 135.165 174.705 135.501 174.161C135.837 173.618 136.299 173.197 136.888 172.899C137.481 172.6 138.16 172.451 138.927 172.451C139.705 172.451 140.388 172.596 140.977 172.887C141.566 173.178 142.023 173.576 142.347 174.082C142.676 174.588 142.84 175.166 142.84 175.815C142.84 176.249 142.757 176.676 142.591 177.095C142.425 177.514 142.132 177.978 141.713 178.488C141.298 178.998 140.714 179.615 139.963 180.34L137.964 182.373V182.452H143.016V184.208H135.065ZM148.924 184.428C147.991 184.428 147.191 184.192 146.523 183.721C145.858 183.245 145.347 182.56 144.988 181.665C144.633 180.766 144.456 179.685 144.456 178.42C144.46 177.155 144.639 176.079 144.994 175.192C145.352 174.301 145.864 173.621 146.528 173.153C147.197 172.685 147.995 172.451 148.924 172.451C149.853 172.451 150.651 172.685 151.319 173.153C151.988 173.621 152.499 174.301 152.854 175.192C153.213 176.083 153.392 177.159 153.392 178.42C153.392 179.688 153.213 180.772 152.854 181.67C152.499 182.565 151.988 183.249 151.319 183.721C150.655 184.192 149.856 184.428 148.924 184.428ZM148.924 182.656C149.649 182.656 150.221 182.299 150.64 181.586C151.063 180.868 151.274 179.813 151.274 178.42C151.274 177.499 151.178 176.725 150.985 176.098C150.793 175.471 150.521 174.999 150.17 174.682C149.819 174.361 149.403 174.201 148.924 174.201C148.203 174.201 147.633 174.56 147.214 175.277C146.795 175.991 146.583 177.038 146.579 178.42C146.576 179.345 146.668 180.123 146.857 180.753C147.049 181.384 147.321 181.859 147.672 182.18C148.024 182.497 148.441 182.656 148.924 182.656Z" fill="#242424"/>
<rect x="157.682" y="171.879" width="30.3157" height="13.6578" rx="2.65784" fill="#E0F0E4"/>
<path d="M162.974 180.233V176.405H163.736V180.233H162.974ZM161.442 178.699V177.94H165.271V178.699H161.442ZM168.51 181.287C168.121 181.287 167.774 181.22 167.468 181.086C167.164 180.952 166.923 180.766 166.746 180.528C166.57 180.288 166.476 180.011 166.463 179.695H167.352C167.363 179.867 167.421 180.016 167.524 180.143C167.63 180.267 167.768 180.364 167.938 180.432C168.108 180.5 168.296 180.534 168.504 180.534C168.733 180.534 168.934 180.494 169.11 180.415C169.287 180.335 169.426 180.225 169.526 180.083C169.626 179.94 169.676 179.775 169.676 179.588C169.676 179.393 169.626 179.223 169.526 179.075C169.428 178.926 169.284 178.809 169.093 178.724C168.904 178.639 168.676 178.597 168.408 178.597H167.918V177.883H168.408C168.623 177.883 168.812 177.845 168.974 177.767C169.138 177.69 169.267 177.582 169.359 177.444C169.452 177.305 169.498 177.141 169.498 176.955C169.498 176.775 169.457 176.62 169.376 176.487C169.297 176.353 169.184 176.249 169.036 176.173C168.891 176.098 168.719 176.06 168.521 176.06C168.332 176.06 168.156 176.095 167.992 176.165C167.829 176.233 167.697 176.331 167.595 176.459C167.493 176.586 167.439 176.738 167.431 176.915H166.584C166.594 176.602 166.686 176.326 166.862 176.088C167.039 175.85 167.273 175.664 167.564 175.53C167.855 175.396 168.178 175.329 168.532 175.329C168.904 175.329 169.225 175.402 169.495 175.547C169.767 175.691 169.976 175.882 170.124 176.122C170.273 176.362 170.346 176.624 170.345 176.909C170.346 177.234 170.256 177.51 170.073 177.736C169.892 177.963 169.65 178.115 169.348 178.192V178.237C169.733 178.296 170.031 178.449 170.243 178.696C170.456 178.943 170.562 179.25 170.56 179.616C170.562 179.935 170.473 180.221 170.294 180.474C170.116 180.727 169.874 180.926 169.566 181.072C169.258 181.215 168.906 181.287 168.51 181.287ZM172.028 181.261C171.873 181.261 171.74 181.207 171.629 181.097C171.517 180.986 171.462 180.852 171.462 180.695C171.462 180.54 171.517 180.408 171.629 180.299C171.74 180.187 171.873 180.132 172.028 180.132C172.183 180.132 172.316 180.187 172.427 180.299C172.539 180.408 172.594 180.54 172.594 180.695C172.594 180.799 172.568 180.894 172.515 180.981C172.464 181.066 172.396 181.134 172.311 181.185C172.226 181.236 172.132 181.261 172.028 181.261ZM173.595 180.075V179.367L176.101 175.409H176.659V176.451H176.305L174.513 179.288V179.333H177.947V180.075H173.595ZM176.345 181.208V179.86L176.35 179.537V175.409H177.18V181.208H176.345ZM181.961 180.12V179.814C181.961 179.595 182.006 179.395 182.097 179.214C182.189 179.031 182.323 178.885 182.499 178.775C182.676 178.664 182.89 178.608 183.142 178.608C183.398 178.608 183.613 178.663 183.787 178.772C183.961 178.882 184.092 179.028 184.181 179.211C184.271 179.394 184.317 179.595 184.317 179.814V180.12C184.317 180.339 184.271 180.54 184.181 180.723C184.09 180.905 183.957 181.051 183.781 181.162C183.608 181.272 183.395 181.326 183.142 181.326C182.887 181.326 182.672 181.272 182.496 181.162C182.32 181.051 182.187 180.905 182.097 180.723C182.006 180.54 181.961 180.339 181.961 180.12ZM182.621 179.814V180.12C182.621 180.283 182.659 180.43 182.737 180.562C182.814 180.694 182.949 180.76 183.142 180.76C183.332 180.76 183.465 180.694 183.541 180.562C183.616 180.43 183.654 180.283 183.654 180.12V179.814C183.654 179.652 183.617 179.505 183.544 179.373C183.472 179.241 183.338 179.175 183.142 179.175C182.953 179.175 182.819 179.241 182.739 179.373C182.66 179.505 182.621 179.652 182.621 179.814ZM179.044 176.802V176.496C179.044 176.277 179.09 176.076 179.18 175.893C179.273 175.71 179.407 175.563 179.582 175.454C179.76 175.344 179.974 175.29 180.225 175.29C180.482 175.29 180.697 175.344 180.871 175.454C181.044 175.563 181.176 175.71 181.264 175.893C181.353 176.076 181.397 176.277 181.397 176.496V176.802C181.397 177.021 181.352 177.222 181.261 177.405C181.173 177.586 181.041 177.732 180.865 177.844C180.691 177.953 180.478 178.008 180.225 178.008C179.968 178.008 179.752 177.953 179.577 177.844C179.403 177.732 179.271 177.586 179.18 177.405C179.09 177.222 179.044 177.021 179.044 176.802ZM179.707 176.496V176.802C179.707 176.964 179.745 177.111 179.82 177.243C179.898 177.376 180.033 177.442 180.225 177.442C180.414 177.442 180.546 177.376 180.622 177.243C180.699 177.111 180.738 176.964 180.738 176.802V176.496C180.738 176.334 180.701 176.186 180.627 176.054C180.554 175.922 180.42 175.856 180.225 175.856C180.036 175.856 179.902 175.922 179.823 176.054C179.746 176.186 179.707 176.334 179.707 176.496ZM179.313 181.208L183.3 175.409H183.977L179.99 181.208H179.313Z" fill="#377E36"/>
</g>
<rect x="18.9372" y="154.257" width="229.903" height="88.3731" rx="2.32561" stroke="#F6F4FE" stroke-width="0.664459"/>
<defs>
<linearGradient id="paint0_linear_937_7076" x1="133.889" y1="153.925" x2="133.889" y2="242.962" gradientUnits="userSpaceOnUse">
<stop stop-color="#EBEAFC"/>
<stop offset="1" stop-color="#EBEAFC" stop-opacity="0"/>
</linearGradient>
<linearGradient id="paint1_linear_937_7076" x1="167.442" y1="219.137" x2="172.412" y2="256.439" gradientUnits="userSpaceOnUse">
<stop stop-color="#E6E5FB"/>
<stop offset="1" stop-color="#FEFDFF"/>
</linearGradient>
<clipPath id="clip0_937_7076">
<rect width="15.947" height="15.947" fill="white" transform="translate(130.735 29.5483)"/>
</clipPath>
<clipPath id="clip1_937_7076">
<rect x="18.605" y="153.925" width="230.567" height="89.0375" rx="2.65784" fill="white"/>
</clipPath>
</defs>
</svg>
