<svg width="42" height="20" viewBox="0 0 42 20" fill="none" xmlns="http://www.w3.org/2000/svg">
<g clip-path="url(#clip0_937_7041)">
<path d="M14.5301 7.071C13.3012 7.8304 12.5422 9.13223 12.5422 10.5787C12.5422 12.206 13.5181 13.6886 15 14.3034C14.7108 15.2436 14.2771 16.1115 13.7349 16.9071C12.9398 18.0281 12.1084 19.1853 10.8795 19.1853C9.6506 19.1853 9.28916 18.462 7.84337 18.462C6.43374 18.462 5.92771 19.2214 4.77108 19.2214C3.61446 19.2214 2.81928 18.1727 1.91566 16.8709C0.722892 15.0628 0.0361446 12.9654 0 10.7595C0 7.17948 2.31325 5.2629 4.62651 5.2629C5.85542 5.2629 6.86747 6.05846 7.62651 6.05846C8.3494 6.05846 9.50602 5.22674 10.8795 5.22674C12.3253 5.19057 13.6988 5.87765 14.5301 7.071ZM10.2289 3.70793C10.8434 2.98469 11.1687 2.08064 11.2048 1.14043C11.2048 1.03194 11.2048 0.887295 11.1687 0.778809C10.1205 0.887295 9.14458 1.39356 8.45783 2.18913C7.84337 2.8762 7.48193 3.74409 7.44578 4.68431C7.44578 4.79279 7.44578 4.90128 7.48193 5.00976C7.55422 5.00976 7.66265 5.04593 7.73494 5.04593C8.71084 4.9736 9.61446 4.46733 10.2289 3.70793Z" fill="white"/>
</g>
<path d="M21 0.778809V19.2214" stroke="#F8FAFC" stroke-width="0.3"/>
<path d="M27.2829 2.5883C27.1037 2.77117 27 3.05589 27 3.4246V16.5764C27 16.9452 27.1037 17.2299 27.2829 17.4127L27.3271 17.4529L34.8859 10.086V9.91206L27.3271 2.54519L27.2829 2.5883Z" fill="white"/>
<path d="M38.3176 12.5427L35.8008 10.0859V9.91191L38.3206 7.45505L38.3771 7.48702L41.3612 9.14252C42.2129 9.61233 42.2129 10.3854 41.3612 10.8582L38.3771 12.5108L38.3176 12.5427Z" fill="white"/>
<path d="M37.9196 12.9682L35.3433 10.4563L27.7402 17.87C28.0231 18.1599 28.4844 18.1949 29.0089 17.905L37.9196 12.9682Z" fill="white"/>
<path d="M37.9196 7.02963L29.0089 2.09286C28.4844 1.80592 28.0231 1.84086 27.7402 2.13077L35.3433 9.5415L37.9196 7.02963Z" fill="white"/>
<defs>
<clipPath id="clip0_937_7041">
<rect width="15" height="18.4426" fill="white" transform="translate(0 0.778809)"/>
</clipPath>
</defs>
</svg>
