<svg width="71" height="62" viewBox="0 0 71 62" fill="none" xmlns="http://www.w3.org/2000/svg">
<g clip-path="url(#clip0_1370_10177)">
<path d="M21.3253 27.1483C23.8497 26.0802 24.9428 25.0547 24.9428 22.1636C24.9428 17.8554 22.1229 16.2852 16.9886 16.2852H8.79937V19.7673H16.7857C19.5842 19.7673 21.0369 19.9133 21.0369 22.1102C21.0369 24.307 19.5842 24.5313 16.7857 24.5313H8.78516V35.01H13.0115V27.9494H17.3197L19.9438 33.2297C20.2093 33.7647 20.619 34.2149 21.1267 34.5295C21.6344 34.844 22.2199 35.0105 22.8172 35.01H25.4128L21.3253 27.1483Z" fill="#262626"/>
<path d="M25.5473 35.0931H22.8199C22.2052 35.096 21.6021 34.9259 21.0795 34.6023C20.5569 34.2787 20.1359 33.8145 19.8647 33.2629L17.2619 28.0325H13.0997V35.0931H8.69531V24.4542H16.7706C19.7044 24.4542 20.9328 24.1302 20.9328 22.1221C20.9328 20.1139 19.7294 19.8682 16.7706 19.8682H8.69531V16.208H16.9878C22.5529 16.208 25.031 18.0488 25.031 22.1755C25.031 25.1165 23.8774 26.1526 21.4491 27.1923L25.5473 35.0931ZM12.9217 27.8545H17.3723L17.3972 27.9044L20.0213 33.1846C20.2792 33.706 20.6782 34.1446 21.1729 34.4505C21.6676 34.7564 22.2382 34.9173 22.8199 34.915H25.2553L21.1999 27.1033L21.2889 27.0676C23.7563 26.0208 24.8494 25.0666 24.8494 22.1755C24.8494 18.1699 22.4247 16.386 16.9842 16.386H8.86977V19.7009H16.767C19.4588 19.7009 21.1073 19.8184 21.1073 22.1327C21.1073 24.4471 19.3875 24.6251 16.767 24.6251H8.86977V34.9079H12.9181L12.9217 27.8545Z" fill="#262626"/>
<path d="M39.1085 16.2959H34.9071L26.5684 35.01H28.7617C29.3937 35.0108 30.0118 34.8246 30.5383 34.4748C31.0647 34.1251 31.476 33.6275 31.7204 33.0446L36.9936 19.7318L42.2418 33.0375C42.4853 33.6223 42.8967 34.1218 43.424 34.4728C43.9512 34.8239 44.5707 35.0109 45.2041 35.01H47.4865L39.1085 16.2959Z" fill="#262626"/>
<path d="M47.6116 35.0931H45.2047C44.5539 35.0939 43.9174 34.902 43.3756 34.5414C42.8338 34.1808 42.4109 33.6678 42.1605 33.0671L36.9941 19.9679L31.8029 33.0707C31.5525 33.6705 31.13 34.1826 30.5889 34.5425C30.0477 34.9024 29.4121 35.094 28.7622 35.0931H26.4336L26.487 34.9685L34.8507 16.208H39.166L39.1874 16.2579L47.6116 35.0931ZM36.9941 19.4837L42.3349 33.0137C42.571 33.5819 42.9704 34.0672 43.4826 34.4082C43.9947 34.7493 44.5965 34.9306 45.2118 34.9293H47.3481L39.0628 16.4145H34.9824L26.722 34.9293H28.7764C29.391 34.9295 29.9919 34.7481 30.5037 34.4079C31.0156 34.0677 31.4155 33.584 31.6533 33.0173L36.9941 19.4837Z" fill="#262626"/>
<path d="M48.6973 24.5136V35.01H49.712C50.5619 35.01 51.377 34.6725 51.9779 34.0715C52.5789 33.4705 52.9165 32.6555 52.9165 31.8056V27.9566H58.7059C59.5558 27.9566 60.3708 27.619 60.9718 27.0181C61.5727 26.4171 61.9104 25.602 61.9104 24.7521V24.5314L48.6973 24.5136ZM48.6973 16.2959V19.7247H63.0747V16.2959H48.6973Z" fill="#262626"/>
<path d="M49.7112 35.0931H48.6074V24.4115H62.0128V24.7212C62.0119 25.596 61.6637 26.4346 61.0448 27.0528C60.4259 27.6711 59.587 28.0183 58.7122 28.0183H53.0154V31.8067C53.0107 32.6799 52.6604 33.5158 52.0413 34.1316C51.4222 34.7474 50.5844 35.0931 49.7112 35.0931ZM48.7854 34.915H49.7112C50.5354 34.9122 51.3251 34.5841 51.9085 34.002C52.492 33.4198 52.8219 32.6309 52.8266 31.8067V27.8545H58.7051C59.5323 27.8536 60.3255 27.5248 60.9108 26.9401C61.496 26.3555 61.8258 25.5628 61.8277 24.7355V24.6038H48.7783L48.7854 34.915ZM63.1629 19.8148H48.6074V16.208H63.1522L63.1629 19.8148ZM48.7854 19.6368H62.9848V16.386H48.7854V19.6368Z" fill="#262626"/>
<path d="M35.9653 51.2968H35.862L8.6062 45.9561C6.44619 45.5295 4.50075 44.3676 3.1011 42.668C1.70145 40.9685 0.934091 38.8363 0.929688 36.6346V14.6661C0.933416 12.4642 1.70051 10.3318 3.10027 8.63206C4.50004 6.93234 6.44588 5.77058 8.6062 5.3447L35.894 0.00390625H35.9973L63.2567 5.3447C65.4167 5.77067 67.3621 6.93258 68.7612 8.63236C70.1604 10.3321 70.9268 12.4646 70.9296 14.6661V36.6346C70.9261 38.836 70.1595 40.9681 68.7604 42.6677C67.3614 44.3674 65.4164 45.5294 63.2567 45.9561L35.9653 51.2968ZM35.9297 0.651903L8.73081 5.99269C6.71662 6.38977 4.90242 7.473 3.59743 9.05783C2.29244 10.6426 1.57739 12.631 1.57414 14.684V36.6524C1.57754 38.7049 2.29272 40.6927 3.59776 42.277C4.9028 43.8612 6.71691 44.9438 8.73081 45.3401L35.9297 50.6809L63.1321 45.3401C65.1453 44.943 66.9586 43.8602 68.263 42.276C69.5673 40.6918 70.282 38.7044 70.2852 36.6524V14.684C70.2814 12.6317 69.5666 10.6441 68.2625 9.05948C66.9583 7.47486 65.1453 6.39113 63.1321 5.99269L35.9297 0.651903Z" fill="#262626"/>
</g>
<path d="M2.64646 60.2233H1.83365V61.7843H0.929688V57.1923H2.78319C2.98995 57.1755 3.19791 57.2027 3.39336 57.2723C3.5888 57.3418 3.76727 57.452 3.91697 57.5956C4.06667 57.7392 4.1842 57.9129 4.26178 58.1053C4.33936 58.2977 4.37524 58.5043 4.36703 58.7116C4.38311 58.9974 4.31128 59.2813 4.16122 59.5251C4.01116 59.7688 3.79004 59.9608 3.52763 60.0752L4.6215 61.7729H3.61879L2.64646 60.2233ZM1.83365 59.3839H2.78319C2.87101 59.387 2.95853 59.3722 3.04035 59.3401C3.12217 59.3081 3.19654 59.2595 3.25885 59.1976C3.32117 59.1356 3.37009 59.0615 3.40261 58.9799C3.43512 58.8983 3.45053 58.8108 3.44787 58.723C3.45092 58.6336 3.43601 58.5446 3.40402 58.4611C3.37203 58.3776 3.32362 58.3013 3.26165 58.2369C3.19967 58.1724 3.12538 58.1211 3.0432 58.0858C2.96102 58.0506 2.87261 58.0322 2.78319 58.0318H1.83365V59.3839Z" fill="#262626"/>
<path d="M5.25586 57.1934H6.2016V61.7854H5.25586V57.1934Z" fill="#262626"/>
<path d="M7.02907 59.4915C7.01685 59.1737 7.07034 58.8567 7.18617 58.5604C7.302 58.2642 7.47769 57.995 7.70226 57.7697C7.92683 57.5445 8.19545 57.3679 8.49134 57.2511C8.78722 57.1343 9.10402 57.0799 9.42191 57.0911C9.86278 57.0671 10.3004 57.1792 10.6754 57.4123C11.0504 57.6453 11.3447 57.988 11.5185 58.3939L10.7019 58.8192C10.6087 58.5626 10.4363 58.3422 10.2096 58.19C9.98294 58.0377 9.71374 57.9615 9.4409 57.9723C9.03797 57.9723 8.65153 58.1323 8.36662 58.4172C8.0817 58.7021 7.92164 59.0886 7.92164 59.4915C7.92164 59.8945 8.0817 60.2809 8.36662 60.5658C8.65153 60.8507 9.03797 61.0108 9.4409 61.0108C9.716 61.0228 9.98765 60.9458 10.2155 60.7911C10.4433 60.6365 10.6152 60.4125 10.7057 60.1524L11.5337 60.5588C11.3636 60.9703 11.0705 61.3193 10.6946 61.5579C10.3186 61.7965 9.8781 61.9132 9.43331 61.8919C9.11447 61.9048 8.79644 61.8515 8.49919 61.7354C8.20195 61.6194 7.93193 61.4431 7.70612 61.2176C7.48031 60.9922 7.30359 60.7225 7.18707 60.4254C7.07056 60.1283 7.01676 59.8104 7.02907 59.4915Z" fill="#262626"/>
<path d="M12.2109 57.1934H13.1567V58.9177H15.0975V57.1934H16.0433V61.7854H15.0975V59.7837H13.1567V61.7854H12.2109V57.1934Z" fill="#262626"/>
<path d="M21.0149 57.1934L22.6747 61.7854H21.691L21.3606 60.8016H19.6704L19.3399 61.7854H18.3828L20.0426 57.1934H21.0149ZM19.9439 59.9888H21.0833L20.5098 58.2834L19.9439 59.9888Z" fill="#262626"/>
<path d="M23.084 59.997V57.194H24.0297V59.9135C24.0297 60.6351 24.4095 60.9997 24.9982 60.9997C25.587 60.9997 25.9554 60.6199 25.9554 59.9135V57.1826H26.9011V59.9856C26.9011 60.4918 26.7 60.9773 26.3421 61.3352C25.9842 61.6931 25.4987 61.8942 24.9926 61.8942C24.4864 61.8942 24.0009 61.6931 23.643 61.3352C23.2851 60.9773 23.084 60.4918 23.084 59.9856V59.997Z" fill="#262626"/>
<path d="M27.9121 61.7854V57.1934H28.8958L30.8899 60.323V57.1934H31.7824V61.7854H30.7987L28.8047 58.6556V61.7854H27.9121Z" fill="#262626"/>
<path d="M36.1501 57.1934V58.0594H34.798V61.7854H33.8522V58.0594H32.5039V57.1934H36.1501Z" fill="#262626"/>
<path d="M38.0186 61.7854V59.9964L36.4766 57.1934H37.4793L38.4972 59.1874L39.5151 57.1934H40.5064L38.9644 59.9964V61.7854H38.0186Z" fill="#262626"/>
<path d="M42.8379 57.1934H45.8043V58.0594H43.8026V59.0583H45.5612V59.9129H43.8026V61.774H42.8569L42.8379 57.1934Z" fill="#262626"/>
<path d="M46.6289 57.1934H47.5746V61.7854H46.6289V57.1934Z" fill="#262626"/>
<path d="M48.5957 61.7854V57.1934H49.5794L51.5735 60.323V57.1934H52.466V61.7854H51.4823L49.4883 58.6556V61.7854H48.5957Z" fill="#262626"/>
<path d="M55.726 57.1934L57.3858 61.7854H56.4021L56.0754 60.8016H54.3814L54.0548 61.7854H53.0977L54.7575 57.1934H55.726ZM54.6587 59.9888H55.7982L55.2284 58.2834L54.6587 59.9888Z" fill="#262626"/>
<path d="M58.0156 61.7854V57.1934H58.9956L60.9896 60.323V57.1934H61.8821V61.7854H60.8946L58.9006 58.6556V61.7854H58.0156Z" fill="#262626"/>
<path d="M62.7107 59.4918C62.6985 59.1736 62.752 58.8563 62.8681 58.5597C62.9841 58.2632 63.1602 57.9939 63.3852 57.7685C63.6101 57.5432 63.8792 57.3667 64.1756 57.2502C64.4719 57.1337 64.7891 57.0796 65.1073 57.0913C65.5457 57.0705 65.98 57.1837 66.3524 57.4157C66.7249 57.6477 67.0179 57.9877 67.1925 58.3903L66.3721 58.8157C66.2799 58.5584 66.1078 58.3373 65.8809 58.1849C65.6539 58.0325 65.3842 57.9567 65.1111 57.9687C64.7082 57.9687 64.3217 58.1287 64.0368 58.4137C63.7519 58.6986 63.5918 59.085 63.5918 59.488C63.5918 59.8909 63.7519 60.2773 64.0368 60.5622C64.3217 60.8471 64.7082 61.0072 65.1111 61.0072C65.3866 61.0188 65.6586 60.9417 65.8869 60.7872C66.1153 60.6326 66.288 60.4089 66.3797 60.1488L67.2039 60.5552C67.0349 60.9668 66.7427 61.3159 66.3673 61.5546C65.9918 61.7934 65.5517 61.9099 65.1073 61.8884C64.7896 61.8995 64.473 61.8451 64.1772 61.7286C63.8813 61.6121 63.6127 61.436 63.3879 61.2112C63.1631 60.9864 62.9869 60.7177 62.8704 60.4219C62.7539 60.1261 62.6996 59.8095 62.7107 59.4918Z" fill="#262626"/>
<path d="M67.8906 57.1934H70.9292V58.0594H68.844V58.9709H70.6671V59.8369H68.844V60.9194H70.9292V61.7854H67.8906V57.1934Z" fill="#262626"/>
<defs>
<clipPath id="clip0_1370_10177">
<rect width="70" height="51.2965" fill="white" transform="translate(0.929688)"/>
</clipPath>
</defs>
</svg>
