<svg width="265" height="252" viewBox="0 0 265 252" fill="none" xmlns="http://www.w3.org/2000/svg">
<rect x="0.33223" y="0.33223" width="261.797" height="250.696" rx="10.2991" fill="#F8FAFC"/>
<rect x="0.33223" y="0.33223" width="261.797" height="250.696" rx="10.2991" stroke="#F2F2F2" stroke-width="0.664459"/>
<path d="M18.8098 20.8393H20.1939L21.8489 23.8322H21.915L23.57 20.8393H24.9542L22.4931 25.0809V27.6047H21.2708V25.0809L18.8098 20.8393ZM31.1536 24.222C31.1536 24.951 31.0171 25.5753 30.744 26.0951C30.4731 26.6126 30.1031 27.009 29.634 27.2843C29.1672 27.5596 28.6375 27.6972 28.0451 27.6972C27.4527 27.6972 26.9219 27.5596 26.4528 27.2843C25.986 27.0068 25.616 26.6093 25.3429 26.0918C25.072 25.572 24.9366 24.9488 24.9366 24.222C24.9366 23.4931 25.072 22.8698 25.3429 22.3523C25.616 21.8326 25.986 21.4351 26.4528 21.1598C26.9219 20.8845 27.4527 20.7468 28.0451 20.7468C28.6375 20.7468 29.1672 20.8845 29.634 21.1598C30.1031 21.4351 30.4731 21.8326 30.744 22.3523C31.0171 22.8698 31.1536 23.4931 31.1536 24.222ZM29.9214 24.222C29.9214 23.7089 29.841 23.2762 29.6803 22.9238C29.5217 22.5692 29.3015 22.3016 29.0196 22.1211C28.7377 21.9383 28.4129 21.8469 28.0451 21.8469C27.6773 21.8469 27.3525 21.9383 27.0706 22.1211C26.7887 22.3016 26.5674 22.5692 26.4066 22.9238C26.248 23.2762 26.1687 23.7089 26.1687 24.222C26.1687 24.7352 26.248 25.169 26.4066 25.5236C26.5674 25.8759 26.7887 26.1435 27.0706 26.3263C27.3525 26.5069 27.6773 26.5972 28.0451 26.5972C28.4129 26.5972 28.7377 26.5069 29.0196 26.3263C29.3015 26.1435 29.5217 25.8759 29.6803 25.5236C29.841 25.169 29.9214 24.7352 29.9214 24.222ZM36.2448 20.8393H37.4703V25.2593C37.4703 25.7438 37.3558 26.17 37.1268 26.5377C36.8999 26.9055 36.5806 27.1929 36.1688 27.3999C35.757 27.6047 35.2758 27.7071 34.7252 27.7071C34.1724 27.7071 33.6901 27.6047 33.2783 27.3999C32.8665 27.1929 32.5471 26.9055 32.3203 26.5377C32.0935 26.17 31.9801 25.7438 31.9801 25.2593V20.8393H33.2056V25.1569C33.2056 25.4388 33.2673 25.6899 33.3906 25.9101C33.5161 26.1303 33.6923 26.3032 33.9192 26.4287C34.146 26.552 34.4147 26.6137 34.7252 26.6137C35.0357 26.6137 35.3044 26.552 35.5312 26.4287C35.7603 26.3032 35.9364 26.1303 36.0598 25.9101C36.1831 25.6899 36.2448 25.4388 36.2448 25.1569V20.8393ZM38.4702 27.6047V20.8393H41.0072C41.527 20.8393 41.963 20.9296 42.3154 21.1102C42.67 21.2908 42.9375 21.5441 43.1181 21.87C43.3009 22.1937 43.3923 22.5714 43.3923 23.0031C43.3923 23.4369 43.2998 23.8135 43.1148 24.1328C42.932 24.45 42.6622 24.6955 42.3055 24.8695C41.9487 25.0413 41.5105 25.1272 40.9907 25.1272H39.1837V24.1097H40.8255C41.1295 24.1097 41.3783 24.0679 41.5721 23.9842C41.7659 23.8983 41.9091 23.7739 42.0016 23.6109C42.0963 23.4457 42.1436 23.2431 42.1436 23.0031C42.1436 22.763 42.0963 22.5582 42.0016 22.3886C41.9069 22.2169 41.7626 22.0869 41.5688 21.9988C41.375 21.9085 41.1251 21.8634 40.8189 21.8634H39.6958V27.6047H38.4702ZM41.9652 24.5392L43.6401 27.6047H42.2724L40.6273 24.5392H41.9652ZM51.9543 23.122H50.7188C50.6836 22.9194 50.6186 22.7399 50.5239 22.5835C50.4292 22.425 50.3114 22.2906 50.1704 22.1805C50.0295 22.0704 49.8687 21.9878 49.6881 21.9328C49.5098 21.8755 49.3171 21.8469 49.11 21.8469C48.7423 21.8469 48.4163 21.9394 48.1322 22.1244C47.8481 22.3072 47.6257 22.5758 47.4649 22.9304C47.3042 23.2828 47.2238 23.7133 47.2238 24.222C47.2238 24.7396 47.3042 25.1756 47.4649 25.5302C47.6279 25.8826 47.8503 26.149 48.1322 26.3296C48.4163 26.508 48.7412 26.5972 49.1067 26.5972C49.3094 26.5972 49.4988 26.5708 49.6749 26.5179C49.8533 26.4629 50.013 26.3825 50.1539 26.2768C50.2971 26.1711 50.4171 26.0411 50.514 25.887C50.6131 25.7328 50.6814 25.5566 50.7188 25.3584L51.9543 25.365C51.908 25.6866 51.8078 25.9883 51.6537 26.2702C51.5017 26.552 51.3024 26.8009 51.0558 27.0167C50.8091 27.2303 50.5206 27.3977 50.1903 27.5188C49.8599 27.6378 49.4932 27.6972 49.0902 27.6972C48.4956 27.6972 47.9649 27.5596 47.498 27.2843C47.0311 27.009 46.6633 26.6115 46.3946 26.0918C46.126 25.572 45.9916 24.9488 45.9916 24.222C45.9916 23.4931 46.1271 22.8698 46.3979 22.3523C46.6688 21.8326 47.0377 21.4351 47.5046 21.1598C47.9715 20.8845 48.5 20.7468 49.0902 20.7468C49.4668 20.7468 49.817 20.7997 50.1407 20.9054C50.4645 21.0111 50.753 21.1664 51.0062 21.3712C51.2595 21.5738 51.4676 21.8227 51.6306 22.1178C51.7957 22.4107 51.9036 22.7454 51.9543 23.122ZM52.7444 27.6047V20.8393H55.2814C55.8012 20.8393 56.2372 20.9296 56.5896 21.1102C56.9441 21.2908 57.2117 21.5441 57.3923 21.87C57.5751 22.1937 57.6665 22.5714 57.6665 23.0031C57.6665 23.4369 57.574 23.8135 57.389 24.1328C57.2062 24.45 56.9364 24.6955 56.5797 24.8695C56.2229 25.0413 55.7846 25.1272 55.2649 25.1272H53.4579V24.1097H55.0997C55.4037 24.1097 55.6525 24.0679 55.8463 23.9842C56.0401 23.8983 56.1833 23.7739 56.2758 23.6109C56.3705 23.4457 56.4178 23.2431 56.4178 23.0031C56.4178 22.763 56.3705 22.5582 56.2758 22.3886C56.1811 22.2169 56.0368 22.0869 55.843 21.9988C55.6492 21.9085 55.3992 21.8634 55.0931 21.8634H53.97V27.6047H52.7444ZM56.2394 24.5392L57.9143 27.6047H56.5466L54.9015 24.5392H56.2394ZM58.4624 27.6047V20.8393H62.8625V21.8667H59.688V23.7034H62.6346V24.7308H59.688V26.5774H62.889V27.6047H58.4624ZM66.0732 27.6047H63.7807V20.8393H66.1195C66.7912 20.8393 67.3682 20.9748 67.8505 21.2457C68.335 21.5143 68.7072 21.9008 68.967 22.4052C69.2269 22.9095 69.3568 23.5129 69.3568 24.2154C69.3568 24.9202 69.2258 25.5258 68.9637 26.0323C68.7038 26.5388 68.3284 26.9275 67.8373 27.1984C67.3483 27.4693 66.7603 27.6047 66.0732 27.6047ZM65.0062 26.5443H66.0138C66.4851 26.5443 66.8782 26.4584 67.1931 26.2867C67.508 26.1127 67.7448 25.8539 67.9033 25.5104C68.0619 25.1646 68.1412 24.733 68.1412 24.2154C68.1412 23.6979 68.0619 23.2684 67.9033 22.9271C67.7448 22.5835 67.5102 22.327 67.1997 22.1574C66.8914 21.9856 66.5082 21.8997 66.0501 21.8997H65.0062V26.5443ZM71.4146 20.8393V27.6047H70.189V20.8393H71.4146ZM72.1122 21.8667V20.8393H77.51V21.8667H75.419V27.6047H74.2033V21.8667H72.1122ZM83.8703 22.6992C83.8394 22.4107 83.7095 22.186 83.4805 22.0253C83.2536 21.8645 82.9585 21.7841 82.5952 21.7841C82.3397 21.7841 82.1206 21.8227 81.9378 21.8997C81.755 21.9768 81.6151 22.0814 81.5182 22.2136C81.4213 22.3457 81.3718 22.4965 81.3696 22.6661C81.3696 22.8071 81.4015 22.9293 81.4654 23.0328C81.5315 23.1363 81.6207 23.2244 81.733 23.2971C81.8453 23.3676 81.9697 23.427 82.1063 23.4755C82.2428 23.5239 82.3804 23.5647 82.5192 23.5977L83.1534 23.7563C83.4089 23.8157 83.6545 23.8961 83.8901 23.9974C84.1279 24.0987 84.3405 24.2264 84.5277 24.3806C84.7171 24.5348 84.8668 24.7209 84.9769 24.9389C85.087 25.1569 85.1421 25.4124 85.1421 25.7053C85.1421 26.1017 85.0408 26.4507 84.8382 26.7525C84.6356 27.052 84.3427 27.2865 83.9595 27.4561C83.5785 27.6235 83.1171 27.7071 82.5753 27.7071C82.049 27.7071 81.592 27.6257 81.2044 27.4627C80.819 27.2997 80.5173 27.0619 80.2993 26.7492C80.0835 26.4364 79.9667 26.0554 79.9491 25.6062H81.1549C81.1725 25.8418 81.2452 26.0378 81.3729 26.1942C81.5006 26.3505 81.6669 26.4673 81.8717 26.5443C82.0787 26.6214 82.31 26.66 82.5654 26.66C82.8319 26.66 83.0653 26.6203 83.2658 26.541C83.4684 26.4596 83.6269 26.3472 83.7414 26.2041C83.856 26.0587 83.9143 25.8892 83.9165 25.6954C83.9143 25.5192 83.8626 25.3738 83.7613 25.2593C83.66 25.1426 83.5179 25.0457 83.3351 24.9686C83.1545 24.8893 82.9431 24.8189 82.7009 24.7572L81.9312 24.559C81.374 24.4158 80.9335 24.1989 80.6098 23.9082C80.2883 23.6153 80.1275 23.2266 80.1275 22.7421C80.1275 22.3435 80.2354 21.9944 80.4512 21.6949C80.6693 21.3954 80.9655 21.1631 81.3399 20.9979C81.7142 20.8305 82.1382 20.7468 82.6117 20.7468C83.0918 20.7468 83.5124 20.8305 83.8736 20.9979C84.237 21.1631 84.5222 21.3932 84.7292 21.6883C84.9362 21.9812 85.043 22.3182 85.0496 22.6992H83.8703ZM91.6934 23.122H90.4579C90.4226 22.9194 90.3577 22.7399 90.263 22.5835C90.1683 22.425 90.0505 22.2906 89.9095 22.1805C89.7686 22.0704 89.6078 21.9878 89.4272 21.9328C89.2488 21.8755 89.0561 21.8469 88.8491 21.8469C88.4813 21.8469 88.1554 21.9394 87.8713 22.1244C87.5872 22.3072 87.3648 22.5758 87.204 22.9304C87.0432 23.2828 86.9629 23.7133 86.9629 24.222C86.9629 24.7396 87.0432 25.1756 87.204 25.5302C87.367 25.8826 87.5894 26.149 87.8713 26.3296C88.1554 26.508 88.4802 26.5972 88.8458 26.5972C89.0484 26.5972 89.2378 26.5708 89.414 26.5179C89.5924 26.4629 89.7521 26.3825 89.893 26.2768C90.0361 26.1711 90.1562 26.0411 90.2531 25.887C90.3522 25.7328 90.4204 25.5566 90.4579 25.3584L91.6934 25.365C91.6471 25.6866 91.5469 25.9883 91.3927 26.2702C91.2408 26.552 91.0415 26.8009 90.7948 27.0167C90.5482 27.2303 90.2597 27.3977 89.9293 27.5188C89.599 27.6378 89.2323 27.6972 88.8293 27.6972C88.2347 27.6972 87.7039 27.5596 87.237 27.2843C86.7702 27.009 86.4024 26.6115 86.1337 26.0918C85.865 25.572 85.7307 24.9488 85.7307 24.222C85.7307 23.4931 85.8661 22.8698 86.137 22.3523C86.4079 21.8326 86.7768 21.4351 87.2437 21.1598C87.7105 20.8845 88.2391 20.7468 88.8293 20.7468C89.2059 20.7468 89.556 20.7997 89.8798 20.9054C90.2035 21.0111 90.492 21.1664 90.7453 21.3712C90.9985 21.5738 91.2067 21.8227 91.3696 22.1178C91.5348 22.4107 91.6427 22.7454 91.6934 23.122ZM98.5287 24.222C98.5287 24.951 98.3922 25.5753 98.1191 26.0951C97.8482 26.6126 97.4782 27.009 97.0092 27.2843C96.5423 27.5596 96.0126 27.6972 95.4202 27.6972C94.8278 27.6972 94.297 27.5596 93.828 27.2843C93.3611 27.0068 92.9911 26.6093 92.718 26.0918C92.4471 25.572 92.3117 24.9488 92.3117 24.222C92.3117 23.4931 92.4471 22.8698 92.718 22.3523C92.9911 21.8326 93.3611 21.4351 93.828 21.1598C94.297 20.8845 94.8278 20.7468 95.4202 20.7468C96.0126 20.7468 96.5423 20.8845 97.0092 21.1598C97.4782 21.4351 97.8482 21.8326 98.1191 22.3523C98.3922 22.8698 98.5287 23.4931 98.5287 24.222ZM97.2966 24.222C97.2966 23.7089 97.2162 23.2762 97.0554 22.9238C96.8968 22.5692 96.6766 22.3016 96.3947 22.1211C96.1128 21.9383 95.788 21.8469 95.4202 21.8469C95.0524 21.8469 94.7276 21.9383 94.4457 22.1211C94.1638 22.3016 93.9425 22.5692 93.7817 22.9238C93.6231 23.2762 93.5439 23.7089 93.5439 24.222C93.5439 24.7352 93.6231 25.169 93.7817 25.5236C93.9425 25.8759 94.1638 26.1435 94.4457 26.3263C94.7276 26.5069 95.0524 26.5972 95.4202 26.5972C95.788 26.5972 96.1128 26.5069 96.3947 26.3263C96.6766 26.1435 96.8968 25.8759 97.0554 25.5236C97.2162 25.169 97.2966 24.7352 97.2966 24.222ZM99.3552 27.6047V20.8393H101.892C102.412 20.8393 102.848 20.9296 103.2 21.1102C103.555 21.2908 103.822 21.5441 104.003 21.87C104.186 22.1937 104.277 22.5714 104.277 23.0031C104.277 23.4369 104.185 23.8135 104 24.1328C103.817 24.45 103.547 24.6955 103.19 24.8695C102.834 25.0413 102.395 25.1272 101.876 25.1272H100.069V24.1097H101.711C102.014 24.1097 102.263 24.0679 102.457 23.9842C102.651 23.8983 102.794 23.7739 102.887 23.6109C102.981 23.4457 103.029 23.2431 103.029 23.0031C103.029 22.763 102.981 22.5582 102.887 22.3886C102.792 22.2169 102.648 22.0869 102.454 21.9988C102.26 21.9085 102.01 21.8634 101.704 21.8634H100.581V27.6047H99.3552ZM102.85 24.5392L104.525 27.6047H103.157L101.512 24.5392H102.85ZM105.073 27.6047V20.8393H109.473V21.8667H106.299V23.7034H109.245V24.7308H106.299V26.5774H109.5V27.6047H105.073Z" fill="#7A7A7A"/>
<g filter="url(#filter0_f_937_7440)">
<ellipse cx="206.498" cy="93.0982" rx="11.6291" ry="9.7929" transform="rotate(1.07834 206.498 93.0982)" fill="#EA973D"/>
</g>
<path d="M56.6364 136.19C56.1241 139.707 55.8479 143.275 55.8173 146.87L56.1495 146.873C56.1476 147.095 56.1467 147.318 56.1467 147.541H56.7582C56.7582 147.32 56.7592 147.099 56.761 146.879L57.0933 146.881C57.1233 143.347 57.3948 139.84 57.8985 136.382L57.5697 136.334C57.6333 135.897 57.7006 135.462 57.7716 135.026L58.0995 135.08C58.6671 131.6 59.4705 128.174 60.4998 124.827L60.1822 124.729C60.3119 124.307 60.4451 123.887 60.5818 123.468L60.8977 123.571C61.9889 120.227 63.3072 116.964 64.8427 113.807L64.544 113.662C64.7369 113.265 64.9332 112.87 65.1329 112.477L65.4291 112.628C67.0185 109.499 68.8238 106.478 70.8352 103.591L70.5626 103.401C70.8147 103.039 71.07 102.68 71.3284 102.322L71.5977 102.517C73.6481 99.68 75.901 96.9779 78.3467 94.434L78.1072 94.2038C78.2601 94.0448 78.4137 93.8864 78.5681 93.7286C78.7205 93.5729 78.8734 93.4179 79.0269 93.2637L79.2624 93.4981C81.725 91.0245 84.3393 88.7438 87.0827 86.6655L86.8821 86.4007C87.2291 86.1378 87.5783 85.8781 87.9294 85.6217L88.1254 85.8899C90.9356 83.8375 93.8754 81.9939 96.9212 80.369L96.7648 80.0759C97.1487 79.8711 97.5343 79.6698 97.9215 79.4719L98.0727 79.7677C101.163 78.1888 104.357 76.8324 107.631 75.7085L107.524 75.3943C107.935 75.2531 108.348 75.1155 108.762 74.9816L108.864 75.2977C112.155 74.2332 115.525 73.402 118.947 72.8143L118.891 72.4869C119.32 72.4133 119.749 72.3435 120.179 72.2775L120.23 72.6059C123.638 72.0834 127.096 71.8016 130.58 71.7704L130.577 71.4382C130.795 71.4362 131.013 71.4353 131.231 71.4353C131.448 71.4353 131.666 71.4362 131.884 71.4382L131.881 71.7704C135.365 71.8016 138.823 72.0834 142.231 72.6059L142.282 72.2775C142.712 72.3435 143.141 72.4133 143.57 72.4869L143.514 72.8143C146.937 73.402 150.306 74.2332 153.597 75.2977L153.699 74.9816C154.113 75.1155 154.526 75.2531 154.938 75.3943L154.83 75.7085C158.104 76.8324 161.299 78.1888 164.388 79.7677L164.54 79.4719C164.927 79.6698 165.312 79.8711 165.696 80.0759L165.54 80.369C168.586 81.9939 171.525 83.8375 174.336 85.89L174.532 85.6217C174.883 85.8781 175.232 86.1378 175.579 86.4007L175.378 86.6656C178.122 88.7438 180.736 91.0245 183.199 93.4981L183.434 93.2637C183.588 93.4179 183.741 93.5729 183.893 93.7286C184.047 93.8864 184.201 94.0448 184.354 94.2038L184.114 94.434C186.56 96.9779 188.813 99.68 190.863 102.517L191.133 102.322C191.391 102.68 191.646 103.039 191.899 103.401L191.626 103.591C193.637 106.478 195.443 109.499 197.032 112.628L197.328 112.477C197.528 112.87 197.724 113.265 197.917 113.662L197.618 113.807C199.154 116.964 200.472 120.227 201.563 123.571L201.879 123.468C202.016 123.887 202.149 124.307 202.279 124.729L201.961 124.827C202.991 128.174 203.794 131.6 204.362 135.08L204.69 135.026C204.761 135.462 204.828 135.897 204.891 136.334L204.563 136.382C205.066 139.84 205.338 143.347 205.368 146.881L205.7 146.879C205.702 147.099 205.703 147.32 205.703 147.541H206.314C206.314 147.318 206.314 147.095 206.312 146.873L206.644 146.87C206.613 143.275 206.337 139.707 205.825 136.19L205.496 136.238C205.432 135.797 205.364 135.358 205.292 134.919L205.62 134.865C205.043 131.326 204.226 127.841 203.179 124.436L202.861 124.533C202.73 124.108 202.596 123.684 202.458 123.261L202.774 123.158C201.664 119.756 200.323 116.438 198.761 113.227L198.462 113.372C198.268 112.972 198.07 112.574 197.868 112.177L198.165 112.027C196.548 108.844 194.711 105.772 192.665 102.835L192.393 103.025C192.139 102.66 191.881 102.297 191.621 101.936L191.89 101.742C189.804 98.8563 187.512 96.1077 185.025 93.52L184.785 93.7503C184.631 93.59 184.476 93.4302 184.32 93.2711C184.167 93.1141 184.013 92.9579 183.858 92.8024L184.093 92.568C181.588 90.0518 178.929 87.7318 176.138 85.6179L175.938 85.8827C175.588 85.6176 175.236 85.3558 174.882 85.0972L175.078 84.8289C172.219 82.7412 169.229 80.8658 166.13 79.213L165.974 79.5061C165.587 79.2996 165.198 79.0966 164.808 78.8972L164.959 78.6013C161.816 76.9952 158.567 75.6154 155.236 74.4722L155.128 74.7865C154.713 74.6441 154.297 74.5055 153.88 74.3705L153.982 74.0544C150.634 72.9715 147.207 72.126 143.725 71.5282L143.669 71.8557C143.237 71.7815 142.804 71.7111 142.37 71.6446L142.421 71.3162C138.954 70.7847 135.437 70.4981 131.892 70.4663L131.889 70.7986C131.67 70.7966 131.45 70.7956 131.231 70.7956C131.011 70.7956 130.792 70.7966 130.572 70.7986L130.569 70.4663C127.025 70.4981 123.507 70.7847 120.04 71.3162L120.091 71.6446C119.657 71.7111 119.224 71.7815 118.792 71.8557L118.736 71.5282C115.254 72.126 111.827 72.9715 108.479 74.0544L108.581 74.3705C108.164 74.5055 107.748 74.6441 107.333 74.7865L107.225 74.4722C103.894 75.6154 100.645 76.9952 97.502 78.6013L97.6532 78.8971C97.2628 79.0966 96.8741 79.2996 96.4871 79.5061L96.3307 79.213C93.2325 80.8658 90.2421 82.7412 87.3835 84.8289L87.5794 85.0972C87.2254 85.3558 86.8734 85.6176 86.5235 85.8827L86.3229 85.6178C83.5323 87.7318 80.873 90.0518 78.368 92.568L78.6034 92.8024C78.4486 92.9579 78.2944 93.1141 78.1408 93.2711C77.9851 93.4302 77.8302 93.5899 77.6761 93.7503L77.4366 93.52C74.9488 96.1077 72.6571 98.8563 70.5714 101.742L70.8406 101.936C70.58 102.297 70.3226 102.66 70.0684 103.025L69.7958 102.835C67.7498 105.772 65.9134 108.844 64.2966 112.027L64.5929 112.177C64.3914 112.574 64.1934 112.972 63.9989 113.372L63.7001 113.227C62.1382 116.438 60.7972 119.756 59.6872 123.158L60.003 123.261C59.8651 123.684 59.7308 124.108 59.6 124.533L59.2825 124.436C58.2354 127.841 57.4183 131.326 56.8409 134.865L57.1688 134.919C57.0972 135.358 57.0293 135.797 56.9651 136.238L56.6364 136.19Z" stroke="#7A7A7A" stroke-width="0.664459" stroke-dasharray="1.33 10.63"/>
<path d="M42.7066 152.205C39.7769 152.393 37.2341 150.168 37.2125 147.232C37.043 124.197 45.3434 101.827 60.6407 84.4396C75.9381 67.0521 97.0685 55.9697 119.937 53.2036C122.852 52.8511 125.382 55.0897 125.57 58.0195L125.583 58.2216C125.77 61.1514 123.543 63.6608 120.631 64.0348C100.631 66.6035 82.1737 76.3659 68.7747 91.5958C55.3757 106.826 48.0439 126.376 48.0438 146.54C48.0438 149.476 45.8385 152.005 42.9087 152.192L42.7066 152.205Z" fill="#D76B66"/>
<path d="M127.475 57.9181C127.351 54.985 129.629 52.4907 132.565 52.5323C150.378 52.7846 167.757 58.0946 182.669 67.8411C185.126 69.4473 185.622 72.7892 183.879 75.152L183.759 75.315C182.017 77.6777 178.697 78.1649 176.228 76.5768C163.321 68.2759 148.365 63.7063 133.023 63.376C130.088 63.3128 127.608 61.0536 127.484 58.1204L127.475 57.9181Z" fill="#F6CF7D"/>
<path d="M185.565 76.4263C187.363 74.1058 190.713 73.6711 192.928 75.5976C201.349 82.9206 208.399 91.6849 213.748 101.479C215.155 104.056 214.013 107.235 211.361 108.494L211.178 108.581C208.526 109.84 205.37 108.701 203.944 106.135C199.348 97.8644 193.374 90.4378 186.28 84.1762C184.079 82.2335 183.643 78.907 185.441 76.5864L185.565 76.4263Z" fill="#EA973D"/>
<path d="M211.748 109.319C214.412 108.087 217.586 109.244 218.666 111.974C223.104 123.2 225.34 135.176 225.249 147.247C225.227 150.183 222.684 152.407 219.754 152.219L219.552 152.206C216.623 152.018 214.418 149.49 214.418 146.554C214.419 136.285 212.519 126.104 208.814 116.528C207.755 113.79 208.899 110.636 211.564 109.404L211.748 109.319Z" fill="#75C57F"/>
<circle cx="201.996" cy="93.0551" r="6.64459" fill="#F9F9F9" stroke="#EA973D" stroke-width="5.31567"/>
<path d="M111.554 144.97C110.444 144.963 109.36 144.77 108.303 144.393C107.246 144.008 106.295 143.385 105.449 142.524C104.603 141.656 103.931 140.504 103.433 139.07C102.935 137.627 102.689 135.842 102.697 133.712C102.697 131.727 102.908 129.956 103.331 128.4C103.754 126.845 104.362 125.531 105.155 124.459C105.948 123.379 106.903 122.556 108.02 121.99C109.145 121.424 110.402 121.141 111.792 121.141C113.249 121.141 114.54 121.427 115.665 122.001C116.798 122.575 117.711 123.36 118.406 124.357C119.101 125.346 119.531 126.464 119.697 127.71H115.563C115.352 126.819 114.918 126.109 114.261 125.58C113.611 125.044 112.788 124.776 111.792 124.776C110.183 124.776 108.945 125.475 108.077 126.871C107.216 128.268 106.782 130.186 106.774 132.625H106.933C107.303 131.961 107.782 131.391 108.371 130.915C108.96 130.439 109.625 130.073 110.365 129.816C111.112 129.552 111.901 129.42 112.732 129.42C114.091 129.42 115.31 129.745 116.39 130.394C117.477 131.043 118.338 131.938 118.972 133.078C119.607 134.211 119.92 135.509 119.912 136.974C119.92 138.5 119.573 139.87 118.87 141.086C118.168 142.294 117.19 143.245 115.937 143.94C114.684 144.634 113.223 144.978 111.554 144.97ZM111.531 141.573C112.354 141.573 113.09 141.373 113.74 140.972C114.389 140.572 114.903 140.032 115.28 139.353C115.658 138.673 115.843 137.911 115.835 137.065C115.843 136.234 115.661 135.483 115.291 134.811C114.929 134.139 114.427 133.607 113.785 133.214C113.143 132.821 112.411 132.625 111.588 132.625C110.976 132.625 110.406 132.742 109.878 132.976C109.349 133.21 108.888 133.535 108.496 133.95C108.103 134.358 107.794 134.834 107.567 135.377C107.348 135.913 107.235 136.487 107.227 137.099C107.235 137.907 107.424 138.651 107.794 139.33C108.164 140.01 108.673 140.553 109.323 140.961C109.972 141.369 110.708 141.573 111.531 141.573ZM130.906 144.97C129.796 144.963 128.713 144.77 127.656 144.393C126.599 144.008 125.647 143.385 124.802 142.524C123.956 141.656 123.284 140.504 122.786 139.07C122.287 137.627 122.042 135.842 122.049 133.712C122.049 131.727 122.261 129.956 122.684 128.4C123.106 126.845 123.714 125.531 124.507 124.459C125.3 123.379 126.255 122.556 127.373 121.99C128.498 121.424 129.755 121.141 131.144 121.141C132.601 121.141 133.893 121.427 135.018 122.001C136.15 122.575 137.064 123.36 137.758 124.357C138.453 125.346 138.884 126.464 139.05 127.71H134.916C134.704 126.819 134.27 126.109 133.613 125.58C132.964 125.044 132.141 124.776 131.144 124.776C129.536 124.776 128.298 125.475 127.429 126.871C126.568 128.268 126.134 130.186 126.127 132.625H126.285C126.655 131.961 127.135 131.391 127.724 130.915C128.313 130.439 128.977 130.073 129.717 129.816C130.465 129.552 131.254 129.42 132.084 129.42C133.443 129.42 134.663 129.745 135.742 130.394C136.83 131.043 137.691 131.938 138.325 133.078C138.959 134.211 139.272 135.509 139.265 136.974C139.272 138.5 138.925 139.87 138.223 141.086C137.521 142.294 136.543 143.245 135.289 143.94C134.036 144.634 132.575 144.978 130.906 144.97ZM130.884 141.573C131.707 141.573 132.443 141.373 133.092 140.972C133.742 140.572 134.255 140.032 134.633 139.353C135.01 138.673 135.195 137.911 135.187 137.065C135.195 136.234 135.014 135.483 134.644 134.811C134.281 134.139 133.779 133.607 133.137 133.214C132.496 132.821 131.763 132.625 130.94 132.625C130.329 132.625 129.759 132.742 129.23 132.976C128.701 133.21 128.241 133.535 127.848 133.95C127.456 134.358 127.146 134.834 126.92 135.377C126.701 135.913 126.587 136.487 126.58 137.099C126.587 137.907 126.776 138.651 127.146 139.33C127.516 140.01 128.026 140.553 128.675 140.961C129.324 141.369 130.061 141.573 130.884 141.573ZM150.338 145.095C148.473 145.095 146.872 144.623 145.536 143.679C144.207 142.728 143.184 141.357 142.466 139.568C141.757 137.771 141.402 135.608 141.402 133.078C141.409 130.549 141.768 128.397 142.478 126.622C143.195 124.84 144.218 123.481 145.547 122.545C146.883 121.609 148.48 121.141 150.338 121.141C152.195 121.141 153.792 121.609 155.129 122.545C156.465 123.481 157.488 124.84 158.198 126.622C158.915 128.404 159.274 130.556 159.274 133.078C159.274 135.615 158.915 137.782 158.198 139.579C157.488 141.369 156.465 142.735 155.129 143.679C153.8 144.623 152.203 145.095 150.338 145.095ZM150.338 141.55C151.788 141.55 152.932 140.836 153.77 139.409C154.615 137.975 155.038 135.864 155.038 133.078C155.038 131.236 154.846 129.688 154.461 128.434C154.075 127.181 153.532 126.237 152.83 125.603C152.127 124.961 151.297 124.64 150.338 124.64C148.896 124.64 147.756 125.358 146.917 126.792C146.079 128.219 145.656 130.315 145.649 133.078C145.641 134.928 145.826 136.483 146.204 137.744C146.589 139.005 147.133 139.957 147.835 140.599C148.537 141.233 149.371 141.55 150.338 141.55Z" fill="#242424"/>
<path d="M62.965 164.801H64.5469L66.4383 168.221H66.5138L68.4053 164.801H69.9872L67.1745 169.648V172.532H65.7777V169.648L62.965 164.801ZM72.0362 172.646C71.4699 172.646 70.9791 172.521 70.5638 172.272C70.1485 172.023 69.8264 171.674 69.5973 171.226C69.3708 170.778 69.2576 170.255 69.2576 169.656C69.2576 169.057 69.3708 168.532 69.5973 168.081C69.8264 167.631 70.1485 167.281 70.5638 167.032C70.9791 166.783 71.4699 166.658 72.0362 166.658C72.6025 166.658 73.0933 166.783 73.5086 167.032C73.9239 167.281 74.2448 167.631 74.4713 168.081C74.7003 168.532 74.8149 169.057 74.8149 169.656C74.8149 170.255 74.7003 170.778 74.4713 171.226C74.2448 171.674 73.9239 172.023 73.5086 172.272C73.0933 172.521 72.6025 172.646 72.0362 172.646ZM72.0438 171.551C72.3508 171.551 72.6076 171.467 72.8139 171.298C73.0203 171.127 73.1739 170.898 73.2745 170.611C73.3777 170.324 73.4293 170.004 73.4293 169.652C73.4293 169.297 73.3777 168.976 73.2745 168.689C73.1739 168.4 73.0203 168.169 72.8139 167.998C72.6076 167.827 72.3508 167.742 72.0438 167.742C71.7292 167.742 71.4674 167.827 71.2585 167.998C71.0521 168.169 70.8973 168.4 70.7941 168.689C70.6935 168.976 70.6431 169.297 70.6431 169.652C70.6431 170.004 70.6935 170.324 70.7941 170.611C70.8973 170.898 71.0521 171.127 71.2585 171.298C71.4674 171.467 71.7292 171.551 72.0438 171.551ZM79.3387 170.094V166.734H80.7053V172.532H79.3802V171.502H79.3198C79.1889 171.826 78.9737 172.092 78.6742 172.298C78.3772 172.505 78.011 172.608 77.5756 172.608C77.1955 172.608 76.8595 172.524 76.5676 172.355C76.2781 172.184 76.0516 171.936 75.888 171.611C75.7244 171.284 75.6426 170.889 75.6426 170.426V166.734H77.0093V170.214C77.0093 170.582 77.11 170.874 77.3113 171.09C77.5127 171.307 77.7769 171.415 78.1041 171.415C78.3055 171.415 78.5005 171.366 78.6893 171.268C78.8781 171.17 79.0329 171.024 79.1537 170.83C79.277 170.633 79.3387 170.388 79.3387 170.094ZM81.7785 172.532V166.734H83.1036V167.7H83.164C83.2697 167.365 83.4509 167.107 83.7077 166.926C83.9669 166.742 84.2626 166.65 84.5949 166.65C84.6704 166.65 84.7547 166.654 84.8478 166.662C84.9435 166.667 85.0227 166.676 85.0857 166.688V167.945C85.0278 167.925 84.9359 167.908 84.8101 167.893C84.6867 167.875 84.5672 167.866 84.4514 167.866C84.2022 167.866 83.9782 167.92 83.7794 168.028C83.5831 168.134 83.4283 168.281 83.315 168.47C83.2018 168.659 83.1451 168.877 83.1451 169.123V172.532H81.7785ZM94.6448 167.409H93.2328C93.1926 167.178 93.1183 166.973 93.0101 166.794C92.9019 166.613 92.7672 166.459 92.6061 166.333C92.4451 166.208 92.2613 166.113 92.0549 166.05C91.8511 165.985 91.6308 165.952 91.3943 165.952C90.9739 165.952 90.6014 166.058 90.2768 166.269C89.9521 166.478 89.6979 166.785 89.5141 167.19C89.3304 167.593 89.2385 168.085 89.2385 168.667C89.2385 169.258 89.3304 169.756 89.5141 170.162C89.7004 170.564 89.9546 170.869 90.2768 171.075C90.6014 171.279 90.9727 171.381 91.3905 171.381C91.622 171.381 91.8385 171.351 92.0398 171.29C92.2437 171.227 92.4262 171.136 92.5873 171.015C92.7509 170.894 92.888 170.745 92.9988 170.569C93.112 170.393 93.1901 170.192 93.2328 169.965L94.6448 169.973C94.592 170.34 94.4774 170.685 94.3013 171.007C94.1276 171.329 93.8998 171.614 93.6179 171.86C93.336 172.105 93.0063 172.296 92.6288 172.434C92.2513 172.57 91.8322 172.638 91.3716 172.638C90.692 172.638 90.0855 172.481 89.5519 172.166C89.0183 171.852 88.598 171.397 88.2909 170.803C87.9839 170.209 87.8303 169.497 87.8303 168.667C87.8303 167.833 87.9851 167.121 88.2947 166.53C88.6043 165.936 89.0259 165.481 89.5594 165.167C90.093 164.852 90.6971 164.695 91.3716 164.695C91.802 164.695 92.2022 164.755 92.5722 164.876C92.9421 164.997 93.2719 165.174 93.5613 165.408C93.8507 165.64 94.0886 165.924 94.2748 166.262C94.4636 166.596 94.5869 166.979 94.6448 167.409ZM95.5349 172.532V166.734H96.86V167.7H96.9204C97.0261 167.365 97.2073 167.107 97.4641 166.926C97.7233 166.742 98.019 166.65 98.3513 166.65C98.4268 166.65 98.5111 166.654 98.6042 166.662C98.6998 166.667 98.7791 166.676 98.842 166.688V167.945C98.7842 167.925 98.6923 167.908 98.5664 167.893C98.4431 167.875 98.3236 167.866 98.2078 167.866C97.9586 167.866 97.7346 167.92 97.5358 168.028C97.3395 168.134 97.1847 168.281 97.0714 168.47C96.9582 168.659 96.9015 168.877 96.9015 169.123V172.532H95.5349ZM101.746 172.646C101.165 172.646 100.663 172.525 100.24 172.283C99.8195 172.039 99.4961 171.694 99.2696 171.249C99.0431 170.801 98.9298 170.274 98.9298 169.667C98.9298 169.07 99.0431 168.547 99.2696 168.096C99.4986 167.643 99.8183 167.291 100.229 167.039C100.639 166.785 101.121 166.658 101.674 166.658C102.032 166.658 102.369 166.716 102.686 166.832C103.006 166.945 103.288 167.121 103.532 167.36C103.779 167.599 103.972 167.904 104.113 168.274C104.254 168.641 104.325 169.079 104.325 169.588V170.007H99.5716V169.086H103.015C103.012 168.824 102.956 168.591 102.845 168.387C102.734 168.181 102.579 168.018 102.38 167.9C102.184 167.782 101.955 167.723 101.693 167.723C101.414 167.723 101.169 167.791 100.957 167.927C100.746 168.06 100.581 168.236 100.463 168.455C100.347 168.672 100.288 168.909 100.285 169.169V169.973C100.285 170.31 100.347 170.599 100.47 170.841C100.593 171.08 100.766 171.264 100.987 171.392C101.209 171.518 101.468 171.581 101.765 171.581C101.964 171.581 102.144 171.553 102.305 171.498C102.466 171.44 102.606 171.356 102.724 171.245C102.842 171.134 102.932 170.997 102.992 170.834L104.268 170.977C104.188 171.314 104.034 171.609 103.808 171.86C103.584 172.11 103.297 172.303 102.947 172.442C102.597 172.578 102.197 172.646 101.746 172.646ZM107.301 172.634C106.845 172.634 106.437 172.517 106.077 172.283C105.718 172.049 105.433 171.709 105.224 171.264C105.015 170.818 104.911 170.277 104.911 169.641C104.911 168.996 105.017 168.453 105.228 168.01C105.442 167.564 105.73 167.228 106.093 167.002C106.455 166.773 106.859 166.658 107.304 166.658C107.644 166.658 107.924 166.716 108.143 166.832C108.362 166.945 108.535 167.082 108.664 167.243C108.792 167.402 108.891 167.552 108.962 167.692H109.018V164.801H110.389V172.532H109.045V171.619H108.962C108.891 171.76 108.789 171.91 108.656 172.068C108.523 172.224 108.346 172.358 108.127 172.468C107.909 172.579 107.633 172.634 107.301 172.634ZM107.682 171.513C107.971 171.513 108.218 171.435 108.422 171.279C108.626 171.12 108.781 170.9 108.886 170.618C108.992 170.336 109.045 170.008 109.045 169.633C109.045 169.258 108.992 168.932 108.886 168.655C108.783 168.378 108.63 168.163 108.426 168.01C108.224 167.856 107.976 167.779 107.682 167.779C107.377 167.779 107.123 167.859 106.919 168.017C106.716 168.176 106.562 168.395 106.459 168.674C106.356 168.953 106.304 169.273 106.304 169.633C106.304 169.995 106.356 170.319 106.459 170.603C106.564 170.885 106.719 171.108 106.923 171.272C107.13 171.433 107.382 171.513 107.682 171.513ZM111.513 172.532V166.734H112.88V172.532H111.513ZM112.2 165.911C111.984 165.911 111.797 165.839 111.641 165.695C111.485 165.549 111.407 165.374 111.407 165.171C111.407 164.964 111.485 164.789 111.641 164.646C111.797 164.5 111.984 164.427 112.2 164.427C112.419 164.427 112.605 164.5 112.759 164.646C112.915 164.789 112.993 164.964 112.993 165.171C112.993 165.374 112.915 165.549 112.759 165.695C112.605 165.839 112.419 165.911 112.2 165.911ZM116.849 166.734V167.791H113.515V166.734H116.849ZM114.338 165.344H115.705V170.788C115.705 170.972 115.732 171.113 115.788 171.211C115.846 171.307 115.921 171.372 116.014 171.407C116.107 171.443 116.21 171.46 116.324 171.46C116.409 171.46 116.487 171.454 116.558 171.441C116.631 171.429 116.686 171.417 116.724 171.407L116.954 172.476C116.881 172.501 116.777 172.529 116.641 172.559C116.507 172.589 116.344 172.607 116.15 172.612C115.808 172.622 115.499 172.57 115.225 172.457C114.951 172.341 114.733 172.162 114.572 171.921C114.413 171.679 114.335 171.377 114.338 171.015V165.344ZM124.226 166.926C124.191 166.596 124.043 166.34 123.781 166.156C123.522 165.972 123.184 165.88 122.769 165.88C122.477 165.88 122.227 165.924 122.018 166.012C121.809 166.101 121.649 166.22 121.538 166.371C121.428 166.522 121.371 166.695 121.369 166.888C121.369 167.049 121.405 167.189 121.478 167.307C121.554 167.426 121.655 167.526 121.784 167.609C121.912 167.69 122.054 167.758 122.21 167.813C122.366 167.869 122.524 167.915 122.682 167.953L123.407 168.134C123.699 168.202 123.98 168.294 124.249 168.41C124.521 168.526 124.764 168.672 124.978 168.848C125.194 169.024 125.365 169.237 125.491 169.486C125.617 169.735 125.68 170.027 125.68 170.362C125.68 170.815 125.564 171.214 125.333 171.558C125.101 171.901 124.766 172.169 124.328 172.363C123.893 172.554 123.366 172.65 122.747 172.65C122.145 172.65 121.623 172.556 121.18 172.37C120.739 172.184 120.394 171.912 120.145 171.555C119.899 171.197 119.765 170.762 119.745 170.248H121.123C121.143 170.518 121.226 170.742 121.372 170.92C121.518 171.099 121.708 171.232 121.942 171.321C122.179 171.409 122.443 171.453 122.735 171.453C123.04 171.453 123.307 171.407 123.536 171.317C123.767 171.224 123.948 171.095 124.079 170.932C124.21 170.766 124.277 170.572 124.279 170.35C124.277 170.149 124.218 169.983 124.102 169.852C123.986 169.719 123.824 169.608 123.615 169.52C123.408 169.429 123.167 169.349 122.89 169.278L122.01 169.052C121.374 168.888 120.87 168.64 120.5 168.308C120.133 167.973 119.949 167.529 119.949 166.975C119.949 166.52 120.072 166.121 120.319 165.778C120.568 165.436 120.907 165.171 121.335 164.982C121.762 164.791 122.247 164.695 122.788 164.695C123.337 164.695 123.817 164.791 124.23 164.982C124.646 165.171 124.971 165.434 125.208 165.771C125.445 166.106 125.567 166.491 125.574 166.926H124.226ZM129.066 172.646C128.487 172.646 127.99 172.519 127.574 172.264C127.161 172.01 126.843 171.659 126.619 171.211C126.398 170.761 126.287 170.242 126.287 169.656C126.287 169.067 126.4 168.547 126.627 168.096C126.853 167.643 127.173 167.291 127.586 167.039C128.001 166.785 128.492 166.658 129.058 166.658C129.529 166.658 129.945 166.745 130.308 166.919C130.673 167.09 130.963 167.333 131.18 167.647C131.396 167.959 131.519 168.324 131.55 168.742H130.243C130.191 168.463 130.065 168.23 129.866 168.044C129.67 167.855 129.407 167.76 129.077 167.76C128.797 167.76 128.552 167.836 128.341 167.987C128.129 168.135 127.964 168.349 127.846 168.629C127.73 168.908 127.672 169.243 127.672 169.633C127.672 170.028 127.73 170.368 127.846 170.652C127.962 170.934 128.124 171.152 128.333 171.305C128.545 171.456 128.792 171.532 129.077 171.532C129.278 171.532 129.458 171.494 129.617 171.419C129.778 171.341 129.912 171.229 130.021 171.083C130.129 170.937 130.203 170.759 130.243 170.55H131.55C131.517 170.961 131.396 171.324 131.187 171.641C130.978 171.956 130.694 172.203 130.334 172.381C129.974 172.558 129.551 172.646 129.066 172.646ZM134.869 172.646C134.303 172.646 133.812 172.521 133.397 172.272C132.981 172.023 132.659 171.674 132.43 171.226C132.204 170.778 132.09 170.255 132.09 169.656C132.09 169.057 132.204 168.532 132.43 168.081C132.659 167.631 132.981 167.281 133.397 167.032C133.812 166.783 134.303 166.658 134.869 166.658C135.435 166.658 135.926 166.783 136.342 167.032C136.757 167.281 137.078 167.631 137.304 168.081C137.533 168.532 137.648 169.057 137.648 169.656C137.648 170.255 137.533 170.778 137.304 171.226C137.078 171.674 136.757 172.023 136.342 172.272C135.926 172.521 135.435 172.646 134.869 172.646ZM134.877 171.551C135.184 171.551 135.44 171.467 135.647 171.298C135.853 171.127 136.007 170.898 136.107 170.611C136.211 170.324 136.262 170.004 136.262 169.652C136.262 169.297 136.211 168.976 136.107 168.689C136.007 168.4 135.853 168.169 135.647 167.998C135.44 167.827 135.184 167.742 134.877 167.742C134.562 167.742 134.3 167.827 134.091 167.998C133.885 168.169 133.73 168.4 133.627 168.689C133.526 168.976 133.476 169.297 133.476 169.652C133.476 170.004 133.526 170.324 133.627 170.611C133.73 170.898 133.885 171.127 134.091 171.298C134.3 171.467 134.562 171.551 134.877 171.551ZM138.476 172.532V166.734H139.801V167.7H139.861C139.967 167.365 140.148 167.107 140.405 166.926C140.664 166.742 140.96 166.65 141.292 166.65C141.367 166.65 141.452 166.654 141.545 166.662C141.641 166.667 141.72 166.676 141.783 166.688V167.945C141.725 167.925 141.633 167.908 141.507 167.893C141.384 167.875 141.264 167.866 141.148 167.866C140.899 167.866 140.675 167.92 140.476 168.028C140.28 168.134 140.125 168.281 140.012 168.47C139.899 168.659 139.842 168.877 139.842 169.123V172.532H138.476ZM144.687 172.646C144.105 172.646 143.603 172.525 143.181 172.283C142.76 172.039 142.437 171.694 142.21 171.249C141.984 170.801 141.87 170.274 141.87 169.667C141.87 169.07 141.984 168.547 142.21 168.096C142.439 167.643 142.759 167.291 143.169 167.039C143.579 166.785 144.061 166.658 144.615 166.658C144.973 166.658 145.31 166.716 145.627 166.832C145.947 166.945 146.228 167.121 146.473 167.36C146.719 167.599 146.913 167.904 147.054 168.274C147.195 168.641 147.265 169.079 147.265 169.588V170.007H142.512V169.086H145.955C145.953 168.824 145.896 168.591 145.786 168.387C145.675 168.181 145.52 168.018 145.321 167.9C145.125 167.782 144.896 167.723 144.634 167.723C144.355 167.723 144.109 167.791 143.898 167.927C143.686 168.06 143.522 168.236 143.403 168.455C143.288 168.672 143.228 168.909 143.226 169.169V169.973C143.226 170.31 143.288 170.599 143.411 170.841C143.534 171.08 143.707 171.264 143.928 171.392C144.15 171.518 144.409 171.581 144.706 171.581C144.905 171.581 145.085 171.553 145.246 171.498C145.407 171.44 145.546 171.356 145.665 171.245C145.783 171.134 145.872 170.997 145.933 170.834L147.209 170.977C147.128 171.314 146.975 171.609 146.748 171.86C146.524 172.11 146.237 172.303 145.887 172.442C145.538 172.578 145.137 172.646 144.687 172.646ZM150.394 172.532V166.734H151.761V172.532H150.394ZM151.081 165.911C150.865 165.911 150.679 165.839 150.523 165.695C150.367 165.549 150.289 165.374 150.289 165.171C150.289 164.964 150.367 164.789 150.523 164.646C150.679 164.5 150.865 164.427 151.081 164.427C151.3 164.427 151.487 164.5 151.64 164.646C151.796 164.789 151.874 164.964 151.874 165.171C151.874 165.374 151.796 165.549 151.64 165.695C151.487 165.839 151.3 165.911 151.081 165.911ZM157.417 168.266L156.171 168.402C156.136 168.276 156.075 168.158 155.986 168.047C155.901 167.937 155.785 167.847 155.639 167.779C155.493 167.711 155.314 167.677 155.103 167.677C154.819 167.677 154.58 167.739 154.386 167.862C154.194 167.986 154.1 168.146 154.103 168.342C154.1 168.51 154.162 168.648 154.288 168.753C154.416 168.859 154.627 168.946 154.922 169.014L155.911 169.225C156.46 169.344 156.867 169.531 157.134 169.788C157.403 170.045 157.539 170.381 157.542 170.796C157.539 171.161 157.432 171.483 157.221 171.762C157.012 172.039 156.721 172.256 156.349 172.412C155.976 172.568 155.549 172.646 155.065 172.646C154.356 172.646 153.784 172.497 153.351 172.2C152.918 171.901 152.66 171.484 152.577 170.951L153.91 170.822C153.97 171.084 154.099 171.282 154.295 171.415C154.491 171.548 154.747 171.615 155.062 171.615C155.386 171.615 155.647 171.548 155.843 171.415C156.042 171.282 156.141 171.117 156.141 170.92C156.141 170.754 156.077 170.617 155.949 170.509C155.823 170.401 155.627 170.318 155.36 170.26L154.371 170.052C153.814 169.936 153.403 169.741 153.136 169.467C152.869 169.19 152.737 168.84 152.74 168.417C152.737 168.06 152.834 167.75 153.03 167.489C153.229 167.224 153.505 167.02 153.857 166.877C154.212 166.731 154.621 166.658 155.084 166.658C155.764 166.658 156.299 166.803 156.689 167.092C157.081 167.382 157.324 167.773 157.417 168.266ZM162.31 172.65C161.943 172.65 161.612 172.584 161.317 172.453C161.025 172.32 160.794 172.123 160.623 171.864C160.454 171.605 160.37 171.285 160.37 170.905C160.37 170.578 160.43 170.308 160.551 170.094C160.672 169.88 160.837 169.709 161.045 169.58C161.254 169.452 161.49 169.355 161.751 169.289C162.016 169.222 162.289 169.172 162.571 169.142C162.91 169.107 163.186 169.076 163.397 169.048C163.609 169.018 163.762 168.972 163.858 168.912C163.956 168.849 164.005 168.752 164.005 168.621V168.599C164.005 168.314 163.921 168.094 163.752 167.938C163.584 167.782 163.341 167.704 163.024 167.704C162.689 167.704 162.423 167.777 162.227 167.923C162.033 168.069 161.902 168.241 161.834 168.44L160.558 168.259C160.659 167.906 160.825 167.612 161.057 167.375C161.288 167.136 161.571 166.958 161.906 166.839C162.241 166.718 162.611 166.658 163.016 166.658C163.296 166.658 163.574 166.691 163.851 166.756C164.127 166.822 164.38 166.93 164.609 167.081C164.838 167.229 165.022 167.432 165.161 167.689C165.301 167.945 165.372 168.266 165.372 168.651V172.532H164.058V171.736H164.013C163.93 171.897 163.813 172.048 163.662 172.189C163.513 172.327 163.326 172.439 163.099 172.525C162.875 172.608 162.612 172.65 162.31 172.65ZM162.665 171.645C162.939 171.645 163.177 171.591 163.379 171.483C163.58 171.372 163.735 171.226 163.843 171.045C163.954 170.864 164.009 170.666 164.009 170.452V169.769C163.966 169.804 163.893 169.837 163.79 169.867C163.689 169.897 163.576 169.924 163.45 169.946C163.324 169.969 163.2 169.989 163.077 170.007C162.953 170.024 162.846 170.039 162.756 170.052C162.552 170.08 162.369 170.125 162.208 170.188C162.047 170.251 161.92 170.339 161.827 170.452C161.734 170.563 161.687 170.706 161.687 170.883C161.687 171.134 161.779 171.324 161.963 171.453C162.147 171.581 162.381 171.645 162.665 171.645ZM171.386 166.734L169.321 172.532H167.811L165.746 166.734H167.203L168.536 171.041H168.596L169.933 166.734H171.386ZM174.37 172.646C173.788 172.646 173.286 172.525 172.863 172.283C172.443 172.039 172.119 171.694 171.893 171.249C171.666 170.801 171.553 170.274 171.553 169.667C171.553 169.07 171.666 168.547 171.893 168.096C172.122 167.643 172.442 167.291 172.852 167.039C173.262 166.785 173.744 166.658 174.298 166.658C174.655 166.658 174.992 166.716 175.31 166.832C175.629 166.945 175.911 167.121 176.155 167.36C176.402 167.599 176.596 167.904 176.737 168.274C176.878 168.641 176.948 169.079 176.948 169.588V170.007H172.195V169.086H175.638C175.636 168.824 175.579 168.591 175.468 168.387C175.357 168.181 175.203 168.018 175.004 167.9C174.807 167.782 174.578 167.723 174.317 167.723C174.037 167.723 173.792 167.791 173.58 167.927C173.369 168.06 173.204 168.236 173.086 168.455C172.97 168.672 172.911 168.909 172.908 169.169V169.973C172.908 170.31 172.97 170.599 173.093 170.841C173.217 171.08 173.389 171.264 173.611 171.392C173.832 171.518 174.091 171.581 174.388 171.581C174.587 171.581 174.767 171.553 174.928 171.498C175.089 171.44 175.229 171.356 175.347 171.245C175.466 171.134 175.555 170.997 175.615 170.834L176.891 170.977C176.811 171.314 176.657 171.609 176.431 171.86C176.207 172.11 175.92 172.303 175.57 172.442C175.22 172.578 174.82 172.646 174.37 172.646ZM177.772 172.532V166.734H179.097V167.7H179.158C179.263 167.365 179.445 167.107 179.701 166.926C179.96 166.742 180.256 166.65 180.588 166.65C180.664 166.65 180.748 166.654 180.841 166.662C180.937 166.667 181.016 166.676 181.079 166.688V167.945C181.021 167.925 180.929 167.908 180.804 167.893C180.68 167.875 180.561 167.866 180.445 167.866C180.196 167.866 179.972 167.92 179.773 168.028C179.577 168.134 179.422 168.281 179.309 168.47C179.195 168.659 179.139 168.877 179.139 169.123V172.532H177.772ZM183.22 172.65C182.852 172.65 182.521 172.584 182.227 172.453C181.935 172.32 181.703 172.123 181.532 171.864C181.364 171.605 181.279 171.285 181.279 170.905C181.279 170.578 181.34 170.308 181.461 170.094C181.581 169.88 181.746 169.709 181.955 169.58C182.164 169.452 182.399 169.355 182.661 169.289C182.925 169.222 183.198 169.172 183.48 169.142C183.82 169.107 184.096 169.076 184.307 169.048C184.519 169.018 184.672 168.972 184.768 168.912C184.866 168.849 184.915 168.752 184.915 168.621V168.599C184.915 168.314 184.831 168.094 184.662 167.938C184.493 167.782 184.251 167.704 183.933 167.704C183.599 167.704 183.333 167.777 183.137 167.923C182.943 168.069 182.812 168.241 182.744 168.44L181.468 168.259C181.569 167.906 181.735 167.612 181.966 167.375C182.198 167.136 182.481 166.958 182.816 166.839C183.151 166.718 183.521 166.658 183.926 166.658C184.205 166.658 184.483 166.691 184.76 166.756C185.037 166.822 185.29 166.93 185.519 167.081C185.748 167.229 185.932 167.432 186.07 167.689C186.211 167.945 186.282 168.266 186.282 168.651V172.532H184.968V171.736H184.923C184.839 171.897 184.722 172.048 184.571 172.189C184.423 172.327 184.235 172.439 184.009 172.525C183.785 172.608 183.522 172.65 183.22 172.65ZM183.575 171.645C183.849 171.645 184.087 171.591 184.288 171.483C184.49 171.372 184.644 171.226 184.753 171.045C184.863 170.864 184.919 170.666 184.919 170.452V169.769C184.876 169.804 184.803 169.837 184.7 169.867C184.599 169.897 184.486 169.924 184.36 169.946C184.234 169.969 184.11 169.989 183.986 170.007C183.863 170.024 183.756 170.039 183.665 170.052C183.461 170.08 183.279 170.125 183.118 170.188C182.957 170.251 182.83 170.339 182.737 170.452C182.644 170.563 182.597 170.706 182.597 170.883C182.597 171.134 182.689 171.324 182.873 171.453C183.056 171.581 183.29 171.645 183.575 171.645ZM189.846 174.828C189.355 174.828 188.933 174.761 188.581 174.628C188.228 174.497 187.945 174.321 187.731 174.099C187.517 173.878 187.369 173.632 187.286 173.363L188.517 173.065C188.572 173.178 188.653 173.29 188.758 173.401C188.864 173.514 189.006 173.607 189.185 173.68C189.366 173.756 189.594 173.793 189.868 173.793C190.256 173.793 190.577 173.699 190.831 173.51C191.085 173.324 191.212 173.017 191.212 172.589V171.49H191.144C191.074 171.631 190.971 171.776 190.835 171.925C190.701 172.073 190.524 172.198 190.302 172.298C190.083 172.399 189.808 172.449 189.476 172.449C189.03 172.449 188.626 172.345 188.264 172.136C187.904 171.925 187.617 171.61 187.403 171.192C187.192 170.772 187.086 170.246 187.086 169.614C187.086 168.977 187.192 168.44 187.403 168.002C187.617 167.562 187.905 167.228 188.267 167.002C188.63 166.773 189.034 166.658 189.479 166.658C189.819 166.658 190.099 166.716 190.317 166.832C190.539 166.945 190.715 167.082 190.846 167.243C190.977 167.402 191.076 167.552 191.144 167.692H191.22V166.734H192.568V172.627C192.568 173.123 192.449 173.533 192.213 173.858C191.976 174.182 191.653 174.425 191.242 174.586C190.832 174.747 190.367 174.828 189.846 174.828ZM189.857 171.377C190.146 171.377 190.393 171.307 190.597 171.166C190.801 171.025 190.956 170.822 191.061 170.558C191.167 170.294 191.22 169.977 191.22 169.607C191.22 169.242 191.167 168.922 191.061 168.648C190.958 168.373 190.805 168.161 190.601 168.01C190.399 167.856 190.151 167.779 189.857 167.779C189.552 167.779 189.298 167.859 189.094 168.017C188.89 168.176 188.737 168.393 188.634 168.67C188.531 168.945 188.479 169.257 188.479 169.607C188.479 169.961 188.531 170.272 188.634 170.539C188.739 170.803 188.894 171.01 189.098 171.158C189.304 171.304 189.557 171.377 189.857 171.377ZM196.203 172.646C195.622 172.646 195.12 172.525 194.697 172.283C194.277 172.039 193.953 171.694 193.727 171.249C193.5 170.801 193.387 170.274 193.387 169.667C193.387 169.07 193.5 168.547 193.727 168.096C193.956 167.643 194.275 167.291 194.686 167.039C195.096 166.785 195.578 166.658 196.132 166.658C196.489 166.658 196.826 166.716 197.143 166.832C197.463 166.945 197.745 167.121 197.989 167.36C198.236 167.599 198.429 167.904 198.57 168.274C198.711 168.641 198.782 169.079 198.782 169.588V170.007H194.029V169.086H197.472C197.469 168.824 197.413 168.591 197.302 168.387C197.191 168.181 197.036 168.018 196.838 167.9C196.641 167.782 196.412 167.723 196.15 167.723C195.871 167.723 195.626 167.791 195.414 167.927C195.203 168.06 195.038 168.236 194.92 168.455C194.804 168.672 194.745 168.909 194.742 169.169V169.973C194.742 170.31 194.804 170.599 194.927 170.841C195.051 171.08 195.223 171.264 195.444 171.392C195.666 171.518 195.925 171.581 196.222 171.581C196.421 171.581 196.601 171.553 196.762 171.498C196.923 171.44 197.063 171.356 197.181 171.245C197.299 171.134 197.389 170.997 197.449 170.834L198.725 170.977C198.645 171.314 198.491 171.609 198.265 171.86C198.041 172.11 197.754 172.303 197.404 172.442C197.054 172.578 196.654 172.646 196.203 172.646Z" fill="#242424"/>
<path d="M87.9742 187.19V180.425H88.995V186.312H92.0606V187.19H87.9742ZM94.2901 187.303C93.9686 187.303 93.6779 187.243 93.418 187.124C93.1582 187.003 92.9522 186.828 92.8003 186.599C92.6505 186.37 92.5757 186.089 92.5757 185.757C92.5757 185.47 92.6307 185.235 92.7408 185.05C92.8509 184.865 92.9996 184.718 93.1868 184.61C93.374 184.503 93.5832 184.421 93.8144 184.366C94.0457 184.311 94.2813 184.269 94.5214 184.24C94.8253 184.205 95.0719 184.177 95.2613 184.155C95.4507 184.13 95.5884 184.092 95.6743 184.039C95.7601 183.986 95.8031 183.9 95.8031 183.781V183.758C95.8031 183.47 95.7216 183.246 95.5586 183.088C95.3979 182.929 95.1578 182.85 94.8385 182.85C94.506 182.85 94.2439 182.924 94.0523 183.071C93.8629 183.216 93.7319 183.378 93.6592 183.557L92.7309 183.345C92.841 183.037 93.0018 182.788 93.2132 182.599C93.4268 182.407 93.6724 182.268 93.9499 182.182C94.2274 182.094 94.5192 182.05 94.8253 182.05C95.0279 182.05 95.2426 182.075 95.4694 182.123C95.6985 182.169 95.9121 182.255 96.1103 182.381C96.3107 182.506 96.4748 182.686 96.6025 182.919C96.7303 183.15 96.7941 183.451 96.7941 183.821V187.19H95.8295V186.497H95.7899C95.726 186.624 95.6302 186.75 95.5025 186.873C95.3748 186.997 95.2107 187.099 95.0103 187.181C94.8099 187.262 94.5698 187.303 94.2901 187.303ZM94.5049 186.51C94.7779 186.51 95.0114 186.456 95.2052 186.348C95.4012 186.24 95.5498 186.099 95.6511 185.925C95.7546 185.749 95.8064 185.561 95.8064 185.36V184.706C95.7712 184.741 95.7029 184.775 95.6016 184.805C95.5025 184.834 95.3891 184.859 95.2613 184.881C95.1336 184.901 95.0092 184.92 94.888 184.937C94.7669 184.953 94.6656 184.966 94.5841 184.977C94.3925 185.001 94.2175 185.042 94.0589 185.099C93.9025 185.157 93.777 185.239 93.6823 185.347C93.5898 185.453 93.5436 185.594 93.5436 185.77C93.5436 186.014 93.6338 186.199 93.8144 186.325C93.995 186.448 94.2252 186.51 94.5049 186.51ZM101.58 183.355L100.684 183.514C100.647 183.399 100.588 183.29 100.506 183.187C100.427 183.083 100.319 182.998 100.182 182.932C100.046 182.866 99.8751 182.833 99.6703 182.833C99.3906 182.833 99.1572 182.896 98.97 183.022C98.7828 183.145 98.6892 183.305 98.6892 183.501C98.6892 183.67 98.752 183.807 98.8775 183.91C99.003 184.014 99.2057 184.098 99.4853 184.164L100.291 184.349C100.758 184.457 101.106 184.624 101.335 184.848C101.564 185.073 101.679 185.365 101.679 185.724C101.679 186.028 101.591 186.299 101.415 186.536C101.241 186.772 100.997 186.957 100.684 187.091C100.374 187.226 100.014 187.293 99.6043 187.293C99.0361 187.293 98.5725 187.172 98.2135 186.929C97.8546 186.685 97.6343 186.338 97.5528 185.889L98.5075 185.744C98.567 185.992 98.6892 186.181 98.8742 186.308C99.0592 186.434 99.3004 186.497 99.5977 186.497C99.9214 186.497 100.18 186.43 100.374 186.295C100.568 186.159 100.665 185.992 100.665 185.796C100.665 185.638 100.605 185.505 100.486 185.397C100.37 185.289 100.19 185.207 99.9478 185.152L99.0889 184.964C98.6154 184.856 98.2653 184.684 98.0384 184.449C97.8138 184.213 97.7015 183.915 97.7015 183.553C97.7015 183.254 97.7852 182.992 97.9526 182.767C98.1199 182.543 98.3512 182.367 98.6463 182.242C98.9414 182.114 99.2794 182.05 99.6604 182.05C100.209 182.05 100.64 182.169 100.955 182.407C101.27 182.643 101.478 182.959 101.58 183.355ZM104.801 182.116V182.909H102.03V182.116H104.801ZM102.773 180.901H103.761V185.701C103.761 185.892 103.789 186.036 103.846 186.133C103.904 186.228 103.977 186.293 104.068 186.328C104.16 186.361 104.26 186.378 104.368 186.378C104.448 186.378 104.517 186.372 104.577 186.361C104.636 186.35 104.682 186.341 104.715 186.335L104.894 187.151C104.836 187.173 104.755 187.195 104.649 187.217C104.543 187.241 104.411 187.254 104.253 187.256C103.993 187.261 103.751 187.215 103.526 187.118C103.301 187.021 103.12 186.871 102.981 186.668C102.842 186.466 102.773 186.212 102.773 185.905V180.901ZM113.39 182.625H112.359C112.319 182.405 112.245 182.211 112.138 182.044C112.03 181.876 111.898 181.734 111.741 181.618C111.585 181.501 111.41 181.413 111.216 181.353C111.024 181.294 110.821 181.264 110.605 181.264C110.215 181.264 109.866 181.362 109.558 181.558C109.251 181.754 109.009 182.042 108.831 182.42C108.655 182.799 108.567 183.262 108.567 183.808C108.567 184.358 108.655 184.823 108.831 185.202C109.009 185.581 109.253 185.867 109.561 186.061C109.869 186.254 110.216 186.351 110.601 186.351C110.815 186.351 111.018 186.323 111.209 186.265C111.403 186.206 111.578 186.119 111.735 186.005C111.891 185.89 112.023 185.75 112.131 185.585C112.241 185.418 112.317 185.226 112.359 185.01L113.39 185.013C113.334 185.346 113.228 185.652 113.069 185.932C112.913 186.209 112.711 186.449 112.465 186.652C112.22 186.852 111.94 187.008 111.626 187.118C111.311 187.228 110.967 187.283 110.595 187.283C110.009 187.283 109.487 187.144 109.029 186.867C108.571 186.587 108.21 186.187 107.946 185.668C107.683 185.148 107.552 184.528 107.552 183.808C107.552 183.085 107.685 182.465 107.949 181.948C108.213 181.428 108.574 181.03 109.032 180.752C109.49 180.472 110.011 180.333 110.595 180.333C110.954 180.333 111.289 180.384 111.599 180.488C111.912 180.589 112.193 180.739 112.441 180.937C112.69 181.133 112.896 181.373 113.059 181.657C113.222 181.939 113.332 182.262 113.39 182.625ZM115.187 184.178V187.19H114.199V180.425H115.174V182.942H115.237C115.356 182.669 115.537 182.452 115.782 182.291C116.026 182.131 116.346 182.05 116.74 182.05C117.088 182.05 117.392 182.122 117.652 182.265C117.914 182.408 118.116 182.622 118.259 182.906C118.405 183.188 118.477 183.54 118.477 183.963V187.19H117.49V184.082C117.49 183.71 117.394 183.421 117.202 183.216C117.011 183.009 116.744 182.906 116.403 182.906C116.169 182.906 115.96 182.955 115.775 183.055C115.592 183.154 115.448 183.299 115.342 183.491C115.239 183.68 115.187 183.909 115.187 184.178ZM121.65 187.293C121.15 187.293 120.72 187.186 120.358 186.972C119.999 186.757 119.722 186.454 119.526 186.064C119.332 185.672 119.235 185.213 119.235 184.686C119.235 184.167 119.332 183.709 119.526 183.312C119.722 182.916 119.995 182.606 120.345 182.384C120.698 182.162 121.109 182.05 121.581 182.05C121.867 182.05 122.145 182.098 122.413 182.192C122.682 182.287 122.923 182.436 123.137 182.638C123.35 182.841 123.519 183.104 123.642 183.428C123.765 183.749 123.827 184.14 123.827 184.601V184.951H119.794V184.211H122.859C122.859 183.951 122.806 183.721 122.701 183.52C122.595 183.318 122.446 183.158 122.255 183.041C122.065 182.925 121.843 182.866 121.587 182.866C121.31 182.866 121.068 182.935 120.861 183.071C120.656 183.205 120.497 183.382 120.385 183.6C120.275 183.815 120.22 184.05 120.22 184.303V184.881C120.22 185.22 120.279 185.509 120.398 185.747C120.519 185.985 120.688 186.166 120.904 186.292C121.119 186.415 121.372 186.477 121.66 186.477C121.847 186.477 122.018 186.45 122.172 186.398C122.326 186.343 122.459 186.261 122.572 186.153C122.684 186.045 122.77 185.912 122.829 185.753L123.764 185.922C123.689 186.197 123.555 186.438 123.361 186.645C123.17 186.85 122.929 187.01 122.638 187.124C122.349 187.237 122.02 187.293 121.65 187.293ZM126.728 187.293C126.237 187.293 125.814 187.182 125.46 186.959C125.107 186.735 124.836 186.425 124.647 186.031C124.458 185.637 124.363 185.185 124.363 184.677C124.363 184.161 124.46 183.706 124.654 183.312C124.847 182.916 125.12 182.606 125.473 182.384C125.825 182.162 126.24 182.05 126.718 182.05C127.104 182.05 127.447 182.122 127.749 182.265C128.051 182.406 128.294 182.604 128.479 182.86C128.666 183.115 128.777 183.414 128.813 183.755H127.851C127.798 183.517 127.677 183.312 127.488 183.14C127.301 182.969 127.05 182.883 126.735 182.883C126.459 182.883 126.218 182.955 126.011 183.101C125.806 183.244 125.647 183.449 125.532 183.715C125.418 183.98 125.36 184.292 125.36 184.653C125.36 185.023 125.417 185.343 125.529 185.611C125.641 185.88 125.8 186.088 126.005 186.236C126.212 186.383 126.455 186.457 126.735 186.457C126.922 186.457 127.091 186.423 127.243 186.355C127.398 186.284 127.526 186.184 127.63 186.054C127.736 185.924 127.809 185.768 127.851 185.585H128.813C128.777 185.913 128.67 186.206 128.492 186.464C128.314 186.721 128.075 186.924 127.775 187.072C127.478 187.219 127.129 187.293 126.728 187.293ZM130.445 185.469L130.438 184.264H130.61L132.632 182.116H133.814L131.509 184.561H131.353L130.445 185.469ZM129.537 187.19V180.425H130.524V187.19H129.537ZM132.741 187.19L130.924 184.779L131.604 184.089L133.953 187.19H132.741ZM138.649 187.293C138.174 187.293 137.759 187.184 137.404 186.966C137.049 186.748 136.774 186.443 136.578 186.051C136.382 185.659 136.284 185.201 136.284 184.677C136.284 184.15 136.382 183.69 136.578 183.296C136.774 182.901 137.049 182.595 137.404 182.377C137.759 182.159 138.174 182.05 138.649 182.05C139.125 182.05 139.54 182.159 139.895 182.377C140.249 182.595 140.525 182.901 140.721 183.296C140.917 183.69 141.015 184.15 141.015 184.677C141.015 185.201 140.917 185.659 140.721 186.051C140.525 186.443 140.249 186.748 139.895 186.966C139.54 187.184 139.125 187.293 138.649 187.293ZM138.653 186.464C138.961 186.464 139.216 186.382 139.419 186.219C139.622 186.056 139.771 185.839 139.868 185.568C139.967 185.298 140.017 184.999 140.017 184.673C140.017 184.349 139.967 184.052 139.868 183.781C139.771 183.508 139.622 183.289 139.419 183.124C139.216 182.959 138.961 182.876 138.653 182.876C138.342 182.876 138.084 182.959 137.88 183.124C137.677 183.289 137.526 183.508 137.427 183.781C137.33 184.052 137.282 184.349 137.282 184.673C137.282 184.999 137.33 185.298 137.427 185.568C137.526 185.839 137.677 186.056 137.88 186.219C138.084 186.382 138.342 186.464 138.653 186.464ZM142.773 184.178V187.19H141.785V182.116H142.733V182.942H142.796C142.912 182.674 143.095 182.458 143.344 182.295C143.595 182.132 143.911 182.05 144.292 182.05C144.638 182.05 144.941 182.123 145.201 182.268C145.461 182.411 145.662 182.625 145.805 182.909C145.948 183.193 146.02 183.545 146.02 183.963V187.19H145.032V184.082C145.032 183.714 144.936 183.427 144.745 183.22C144.553 183.011 144.29 182.906 143.955 182.906C143.726 182.906 143.523 182.955 143.344 183.055C143.168 183.154 143.028 183.299 142.925 183.491C142.823 183.68 142.773 183.909 142.773 184.178ZM149.129 187.19V186.45L151.418 184.079C151.662 183.821 151.864 183.595 152.023 183.401C152.183 183.205 152.303 183.019 152.383 182.843C152.462 182.667 152.502 182.48 152.502 182.282C152.502 182.057 152.449 181.863 152.343 181.7C152.237 181.535 152.093 181.408 151.91 181.32C151.727 181.23 151.522 181.185 151.293 181.185C151.05 181.185 150.839 181.234 150.658 181.333C150.478 181.433 150.339 181.572 150.242 181.753C150.145 181.934 150.097 182.145 150.097 182.387H149.122C149.122 181.975 149.217 181.615 149.406 181.307C149.596 180.999 149.856 180.76 150.186 180.59C150.516 180.418 150.892 180.333 151.312 180.333C151.737 180.333 152.112 180.417 152.435 180.587C152.761 180.754 153.016 180.983 153.199 181.274C153.381 181.563 153.473 181.888 153.473 182.252C153.473 182.503 153.425 182.748 153.331 182.988C153.238 183.229 153.076 183.496 152.845 183.791C152.614 184.084 152.292 184.44 151.881 184.858L150.536 186.265V186.315H153.582V187.19H149.129ZM157.068 180.425V187.19H156.044V181.449H156.005L154.386 182.506V181.528L156.074 180.425H157.068ZM161.36 187.19H160.276L162.711 180.425H163.89L166.325 187.19H165.241L163.329 181.654H163.276L161.36 187.19ZM161.541 184.541H165.056V185.4H161.541V184.541ZM166.89 189.093V182.116H167.855V182.939H167.937C167.995 182.833 168.077 182.711 168.185 182.572C168.293 182.434 168.443 182.312 168.635 182.209C168.826 182.103 169.079 182.05 169.394 182.05C169.804 182.05 170.17 182.154 170.491 182.361C170.813 182.568 171.065 182.866 171.248 183.256C171.433 183.646 171.525 184.115 171.525 184.663C171.525 185.212 171.434 185.682 171.251 186.074C171.068 186.464 170.817 186.764 170.498 186.976C170.178 187.185 169.814 187.29 169.404 187.29C169.096 187.29 168.844 187.238 168.648 187.134C168.454 187.031 168.302 186.91 168.192 186.771C168.082 186.632 167.997 186.509 167.937 186.401H167.878V189.093H166.89ZM167.858 184.653C167.858 185.01 167.91 185.323 168.013 185.592C168.117 185.86 168.267 186.071 168.463 186.223C168.659 186.372 168.899 186.447 169.183 186.447C169.478 186.447 169.725 186.369 169.923 186.213C170.121 186.054 170.271 185.839 170.372 185.568C170.476 185.298 170.527 184.993 170.527 184.653C170.527 184.319 170.477 184.018 170.375 183.752C170.276 183.485 170.127 183.275 169.926 183.121C169.728 182.966 169.48 182.889 169.183 182.889C168.897 182.889 168.654 182.963 168.456 183.111C168.26 183.258 168.111 183.464 168.01 183.728C167.909 183.993 167.858 184.301 167.858 184.653ZM172.299 187.19V182.116H173.254V182.922H173.307C173.399 182.649 173.562 182.435 173.796 182.278C174.032 182.12 174.298 182.04 174.595 182.04C174.657 182.04 174.73 182.043 174.813 182.047C174.899 182.051 174.966 182.057 175.015 182.064V183.008C174.975 182.997 174.905 182.985 174.803 182.972C174.702 182.957 174.601 182.949 174.5 182.949C174.266 182.949 174.058 182.998 173.875 183.097C173.695 183.194 173.551 183.33 173.446 183.504C173.34 183.676 173.287 183.872 173.287 184.092V187.19H172.299Z" fill="#7A7A7A"/>
<rect x="74.0864" y="202.151" width="114.289" height="19.9735" rx="5.31567" fill="#EAEAEA"/>
<path d="M82.7989 215.138L80.9226 208.372H81.9962L83.3142 213.612H83.377L84.7479 208.372H85.8116L87.1825 213.615H87.2453L88.5601 208.372H89.637L87.7573 215.138H86.73L85.3062 210.07H85.2533L83.8296 215.138H82.7989ZM91.1439 212.125V215.138H90.1562V208.372H91.1307V210.889H91.1935C91.3124 210.616 91.4941 210.399 91.7385 210.239C91.983 210.078 92.3023 209.998 92.6965 209.998C93.0445 209.998 93.3484 210.069 93.6083 210.212C93.8703 210.355 94.073 210.569 94.2161 210.853C94.3615 211.135 94.4341 211.487 94.4341 211.91V215.138H93.4464V212.029C93.4464 211.657 93.3506 211.368 93.159 211.164C92.9674 210.957 92.7009 210.853 92.3596 210.853C92.1261 210.853 91.9169 210.903 91.7319 211.002C91.5491 211.101 91.4049 211.246 91.2992 211.438C91.1957 211.627 91.1439 211.856 91.1439 212.125ZM96.8966 215.25C96.5751 215.25 96.2844 215.191 96.0245 215.072C95.7646 214.951 95.5587 214.775 95.4068 214.546C95.257 214.317 95.1821 214.037 95.1821 213.704C95.1821 213.418 95.2372 213.182 95.3473 212.997C95.4574 212.812 95.6061 212.666 95.7933 212.558C95.9804 212.45 96.1897 212.368 96.4209 212.313C96.6521 212.258 96.8878 212.216 97.1278 212.188C97.4317 212.153 97.6784 212.124 97.8678 212.102C98.0572 212.078 98.1948 212.039 98.2807 211.986C98.3666 211.933 98.4096 211.847 98.4096 211.729V211.705C98.4096 211.417 98.3281 211.193 98.1651 211.035C98.0043 210.876 97.7643 210.797 97.445 210.797C97.1124 210.797 96.8503 210.871 96.6587 211.018C96.4694 211.164 96.3383 211.326 96.2656 211.504L95.3374 211.293C95.4475 210.984 95.6083 210.735 95.8197 210.546C96.0333 210.354 96.2789 210.216 96.5563 210.13C96.8338 210.042 97.1256 209.998 97.4317 209.998C97.6344 209.998 97.8491 210.022 98.0759 210.07C98.305 210.116 98.5186 210.202 98.7168 210.328C98.9172 210.453 99.0813 210.633 99.209 210.866C99.3367 211.098 99.4006 211.398 99.4006 211.768V215.138H98.436V214.444H98.3963C98.3325 214.572 98.2367 214.697 98.1089 214.821C97.9812 214.944 97.8171 215.046 97.6167 215.128C97.4163 215.209 97.1763 215.25 96.8966 215.25ZM97.1113 214.457C97.3844 214.457 97.6178 214.403 97.8116 214.295C98.0076 214.187 98.1563 214.046 98.2576 213.872C98.3611 213.696 98.4129 213.508 98.4129 213.308V212.654C98.3776 212.689 98.3094 212.722 98.208 212.753C98.1089 212.781 97.9955 212.807 97.8678 212.829C97.7401 212.848 97.6156 212.867 97.4945 212.885C97.3734 212.9 97.2721 212.913 97.1906 212.924C96.999 212.949 96.8239 212.989 96.6654 213.047C96.509 213.104 96.3835 213.186 96.2888 213.294C96.1963 213.4 96.15 213.541 96.15 213.717C96.15 213.962 96.2403 214.147 96.4209 214.272C96.6015 214.396 96.8316 214.457 97.1113 214.457ZM102.752 210.064V210.856H99.9809V210.064H102.752ZM100.724 208.848H101.712V213.648C101.712 213.839 101.741 213.984 101.798 214.081C101.855 214.175 101.929 214.24 102.019 214.276C102.112 214.309 102.212 214.325 102.32 214.325C102.399 214.325 102.468 214.32 102.528 214.309C102.587 214.298 102.634 214.289 102.667 214.282L102.845 215.098C102.788 215.12 102.706 215.142 102.601 215.164C102.495 215.188 102.363 215.202 102.204 215.204C101.944 215.208 101.702 215.162 101.477 215.065C101.253 214.968 101.071 214.818 100.932 214.616C100.794 214.413 100.724 214.159 100.724 213.853V208.848ZM108.011 210.064V210.856H105.239V210.064H108.011ZM105.983 208.848H106.97V213.648C106.97 213.839 106.999 213.984 107.056 214.081C107.114 214.175 107.187 214.24 107.278 214.276C107.37 214.309 107.47 214.325 107.578 214.325C107.658 214.325 107.727 214.32 107.786 214.309C107.846 214.298 107.892 214.289 107.925 214.282L108.104 215.098C108.046 215.12 107.965 215.142 107.859 215.164C107.753 215.188 107.621 215.202 107.463 215.204C107.203 215.208 106.961 215.162 106.736 215.065C106.511 214.968 106.33 214.818 106.191 214.616C106.052 214.413 105.983 214.159 105.983 213.853V208.848ZM109.868 212.125V215.138H108.88V208.372H109.855V210.889H109.918C110.037 210.616 110.218 210.399 110.463 210.239C110.707 210.078 111.027 209.998 111.421 209.998C111.769 209.998 112.073 210.069 112.333 210.212C112.595 210.355 112.797 210.569 112.94 210.853C113.086 211.135 113.158 211.487 113.158 211.91V215.138H112.171V212.029C112.171 211.657 112.075 211.368 111.883 211.164C111.692 210.957 111.425 210.853 111.084 210.853C110.85 210.853 110.641 210.903 110.456 211.002C110.273 211.101 110.129 211.246 110.023 211.438C109.92 211.627 109.868 211.856 109.868 212.125ZM116.331 215.24C115.831 215.24 115.401 215.133 115.039 214.92C114.68 214.704 114.403 214.401 114.207 214.011C114.013 213.619 113.916 213.16 113.916 212.634C113.916 212.114 114.013 211.656 114.207 211.259C114.403 210.863 114.676 210.554 115.026 210.331C115.379 210.109 115.79 209.998 116.262 209.998C116.548 209.998 116.825 210.045 117.094 210.14C117.363 210.234 117.604 210.383 117.818 210.586C118.031 210.788 118.2 211.051 118.323 211.375C118.446 211.697 118.508 212.088 118.508 212.548V212.898H114.475V212.158H117.54C117.54 211.898 117.487 211.668 117.382 211.468C117.276 211.265 117.127 211.105 116.936 210.989C116.746 210.872 116.524 210.814 116.268 210.814C115.991 210.814 115.749 210.882 115.542 211.018C115.337 211.153 115.178 211.329 115.066 211.547C114.956 211.763 114.901 211.997 114.901 212.251V212.829C114.901 213.168 114.96 213.456 115.079 213.694C115.2 213.932 115.369 214.114 115.585 214.239C115.8 214.362 116.052 214.424 116.341 214.424C116.528 214.424 116.699 214.398 116.853 214.345C117.007 214.29 117.14 214.208 117.253 214.1C117.365 213.993 117.451 213.859 117.51 213.701L118.445 213.869C118.37 214.144 118.236 214.386 118.042 214.593C117.851 214.797 117.61 214.957 117.319 215.072C117.03 215.184 116.701 215.24 116.331 215.24ZM123.074 211.302L122.179 211.461C122.141 211.346 122.082 211.237 122 211.134C121.921 211.03 121.813 210.946 121.677 210.88C121.54 210.814 121.369 210.78 121.165 210.78C120.885 210.78 120.651 210.843 120.464 210.969C120.277 211.092 120.183 211.252 120.183 211.448C120.183 211.617 120.246 211.754 120.372 211.857C120.497 211.961 120.7 212.046 120.98 212.112L121.786 212.297C122.252 212.405 122.6 212.571 122.829 212.796C123.059 213.02 123.173 213.312 123.173 213.671C123.173 213.975 123.085 214.246 122.909 214.484C122.735 214.719 122.491 214.904 122.179 215.039C121.868 215.173 121.508 215.24 121.099 215.24C120.53 215.24 120.067 215.119 119.708 214.877C119.349 214.632 119.129 214.285 119.047 213.836L120.002 213.691C120.061 213.94 120.183 214.128 120.368 214.256C120.553 214.381 120.795 214.444 121.092 214.444C121.416 214.444 121.674 214.377 121.868 214.242C122.062 214.106 122.159 213.94 122.159 213.744C122.159 213.585 122.099 213.452 121.981 213.344C121.864 213.236 121.684 213.155 121.442 213.099L120.583 212.911C120.11 212.803 119.76 212.632 119.533 212.396C119.308 212.16 119.196 211.862 119.196 211.501C119.196 211.201 119.279 210.939 119.447 210.714C119.614 210.49 119.845 210.315 120.141 210.189C120.436 210.061 120.774 209.998 121.155 209.998C121.703 209.998 122.135 210.116 122.45 210.354C122.765 210.59 122.973 210.906 123.074 211.302ZM126.114 215.24C125.614 215.24 125.183 215.133 124.822 214.92C124.463 214.704 124.186 214.401 123.99 214.011C123.796 213.619 123.699 213.16 123.699 212.634C123.699 212.114 123.796 211.656 123.99 211.259C124.186 210.863 124.459 210.554 124.809 210.331C125.161 210.109 125.573 209.998 126.044 209.998C126.331 209.998 126.608 210.045 126.877 210.14C127.145 210.234 127.387 210.383 127.6 210.586C127.814 210.788 127.982 211.051 128.106 211.375C128.229 211.697 128.291 212.088 128.291 212.548V212.898H124.257V212.158H127.323C127.323 211.898 127.27 211.668 127.164 211.468C127.058 211.265 126.91 211.105 126.718 210.989C126.529 210.872 126.306 210.814 126.051 210.814C125.773 210.814 125.531 210.882 125.324 211.018C125.119 211.153 124.961 211.329 124.848 211.547C124.738 211.763 124.683 211.997 124.683 212.251V212.829C124.683 213.168 124.743 213.456 124.862 213.694C124.983 213.932 125.151 214.114 125.367 214.239C125.583 214.362 125.835 214.424 126.124 214.424C126.311 214.424 126.481 214.398 126.636 214.345C126.79 214.29 126.923 214.208 127.035 214.1C127.148 213.993 127.234 213.859 127.293 213.701L128.228 213.869C128.153 214.144 128.019 214.386 127.825 214.593C127.633 214.797 127.392 214.957 127.101 215.072C126.813 215.184 126.484 215.24 126.114 215.24ZM134.986 211.302L134.091 211.461C134.054 211.346 133.994 211.237 133.913 211.134C133.833 211.03 133.725 210.946 133.589 210.88C133.452 210.814 133.282 210.78 133.077 210.78C132.797 210.78 132.564 210.843 132.376 210.969C132.189 211.092 132.096 211.252 132.096 211.448C132.096 211.617 132.158 211.754 132.284 211.857C132.41 211.961 132.612 212.046 132.892 212.112L133.698 212.297C134.165 212.405 134.513 212.571 134.742 212.796C134.971 213.02 135.085 213.312 135.085 213.671C135.085 213.975 134.997 214.246 134.821 214.484C134.647 214.719 134.404 214.904 134.091 215.039C133.78 215.173 133.42 215.24 133.011 215.24C132.443 215.24 131.979 215.119 131.62 214.877C131.261 214.632 131.041 214.285 130.959 213.836L131.914 213.691C131.973 213.94 132.096 214.128 132.281 214.256C132.466 214.381 132.707 214.444 133.004 214.444C133.328 214.444 133.587 214.377 133.78 214.242C133.974 214.106 134.071 213.94 134.071 213.744C134.071 213.585 134.012 213.452 133.893 213.344C133.776 213.236 133.597 213.155 133.354 213.099L132.495 212.911C132.022 212.803 131.672 212.632 131.445 212.396C131.22 212.16 131.108 211.862 131.108 211.501C131.108 211.201 131.192 210.939 131.359 210.714C131.526 210.49 131.758 210.315 132.053 210.189C132.348 210.061 132.686 209.998 133.067 209.998C133.615 209.998 134.047 210.116 134.362 210.354C134.677 210.59 134.885 210.906 134.986 211.302ZM138.208 210.064V210.856H135.436V210.064H138.208ZM136.179 208.848H137.167V213.648C137.167 213.839 137.196 213.984 137.253 214.081C137.31 214.175 137.384 214.24 137.474 214.276C137.567 214.309 137.667 214.325 137.775 214.325C137.854 214.325 137.924 214.32 137.983 214.309C138.042 214.298 138.089 214.289 138.122 214.282L138.3 215.098C138.243 215.12 138.161 215.142 138.056 215.164C137.95 215.188 137.818 215.202 137.659 215.204C137.399 215.208 137.157 215.162 136.932 215.065C136.708 214.968 136.526 214.818 136.387 214.616C136.249 214.413 136.179 214.159 136.179 213.853V208.848ZM140.445 215.25C140.123 215.25 139.832 215.191 139.573 215.072C139.313 214.951 139.107 214.775 138.955 214.546C138.805 214.317 138.73 214.037 138.73 213.704C138.73 213.418 138.785 213.182 138.895 212.997C139.005 212.812 139.154 212.666 139.341 212.558C139.528 212.45 139.738 212.368 139.969 212.313C140.2 212.258 140.436 212.216 140.676 212.188C140.98 212.153 141.226 212.124 141.416 212.102C141.605 212.078 141.743 212.039 141.829 211.986C141.915 211.933 141.958 211.847 141.958 211.729V211.705C141.958 211.417 141.876 211.193 141.713 211.035C141.552 210.876 141.312 210.797 140.993 210.797C140.66 210.797 140.398 210.871 140.207 211.018C140.017 211.164 139.886 211.326 139.814 211.504L138.885 211.293C138.996 210.984 139.156 210.735 139.368 210.546C139.581 210.354 139.827 210.216 140.104 210.13C140.382 210.042 140.674 209.998 140.98 209.998C141.182 209.998 141.397 210.022 141.624 210.07C141.853 210.116 142.067 210.202 142.265 210.328C142.465 210.453 142.629 210.633 142.757 210.866C142.885 211.098 142.949 211.398 142.949 211.768V215.138H141.984V214.444H141.944C141.881 214.572 141.785 214.697 141.657 214.821C141.529 214.944 141.365 215.046 141.165 215.128C140.964 215.209 140.724 215.25 140.445 215.25ZM140.659 214.457C140.932 214.457 141.166 214.403 141.36 214.295C141.556 214.187 141.704 214.046 141.806 213.872C141.909 213.696 141.961 213.508 141.961 213.308V212.654C141.926 212.689 141.857 212.722 141.756 212.753C141.657 212.781 141.544 212.807 141.416 212.829C141.288 212.848 141.164 212.867 141.043 212.885C140.921 212.9 140.82 212.913 140.739 212.924C140.547 212.949 140.372 212.989 140.213 213.047C140.057 213.104 139.931 213.186 139.837 213.294C139.744 213.4 139.698 213.541 139.698 213.717C139.698 213.962 139.788 214.147 139.969 214.272C140.15 214.396 140.38 214.457 140.659 214.457ZM146.301 210.064V210.856H143.529V210.064H146.301ZM144.272 208.848H145.26V213.648C145.26 213.839 145.289 213.984 145.346 214.081C145.403 214.175 145.477 214.24 145.567 214.276C145.66 214.309 145.76 214.325 145.868 214.325C145.947 214.325 146.016 214.32 146.076 214.309C146.135 214.298 146.182 214.289 146.215 214.282L146.393 215.098C146.336 215.12 146.254 215.142 146.149 215.164C146.043 215.188 145.911 215.202 145.752 215.204C145.492 215.208 145.25 215.162 145.025 215.065C144.801 214.968 144.619 214.818 144.48 214.616C144.342 214.413 144.272 214.159 144.272 213.853V208.848ZM150.781 211.302L149.886 211.461C149.849 211.346 149.789 211.237 149.708 211.134C149.628 211.03 149.521 210.946 149.384 210.88C149.247 210.814 149.077 210.78 148.872 210.78C148.592 210.78 148.359 210.843 148.172 210.969C147.984 211.092 147.891 211.252 147.891 211.448C147.891 211.617 147.954 211.754 148.079 211.857C148.205 211.961 148.407 212.046 148.687 212.112L149.493 212.297C149.96 212.405 150.308 212.571 150.537 212.796C150.766 213.02 150.88 213.312 150.88 213.671C150.88 213.975 150.792 214.246 150.616 214.484C150.442 214.719 150.199 214.904 149.886 215.039C149.576 215.173 149.216 215.24 148.806 215.24C148.238 215.24 147.774 215.119 147.415 214.877C147.056 214.632 146.836 214.285 146.755 213.836L147.709 213.691C147.769 213.94 147.891 214.128 148.076 214.256C148.261 214.381 148.502 214.444 148.799 214.444C149.123 214.444 149.382 214.377 149.576 214.242C149.769 214.106 149.866 213.94 149.866 213.744C149.866 213.585 149.807 213.452 149.688 213.344C149.571 213.236 149.392 213.155 149.149 213.099L148.291 212.911C147.817 212.803 147.467 212.632 147.24 212.396C147.015 212.16 146.903 211.862 146.903 211.501C146.903 211.201 146.987 210.939 147.154 210.714C147.322 210.49 147.553 210.315 147.848 210.189C148.143 210.061 148.481 209.998 148.862 209.998C149.41 209.998 149.842 210.116 150.157 210.354C150.472 210.59 150.68 210.906 150.781 211.302ZM153.764 215.138V210.064H154.712V210.889H154.775C154.88 210.61 155.053 210.392 155.293 210.235C155.533 210.077 155.821 209.998 156.156 209.998C156.495 209.998 156.779 210.077 157.008 210.235C157.239 210.394 157.41 210.612 157.52 210.889H157.573C157.694 210.619 157.887 210.403 158.151 210.242C158.415 210.079 158.73 209.998 159.096 209.998C159.556 209.998 159.931 210.142 160.222 210.43C160.515 210.719 160.661 211.154 160.661 211.735V215.138H159.674V211.828C159.674 211.484 159.58 211.235 159.393 211.081C159.206 210.927 158.982 210.85 158.722 210.85C158.401 210.85 158.151 210.949 157.972 211.147C157.794 211.343 157.705 211.595 157.705 211.904V215.138H156.72V211.765C156.72 211.49 156.635 211.268 156.463 211.101C156.291 210.934 156.067 210.85 155.792 210.85C155.605 210.85 155.432 210.899 155.274 210.999C155.117 211.095 154.991 211.231 154.894 211.405C154.799 211.579 154.752 211.78 154.752 212.009V215.138H153.764ZM163.84 215.24C163.34 215.24 162.909 215.133 162.548 214.92C162.189 214.704 161.912 214.401 161.716 214.011C161.522 213.619 161.425 213.16 161.425 212.634C161.425 212.114 161.522 211.656 161.716 211.259C161.912 210.863 162.185 210.554 162.535 210.331C162.887 210.109 163.299 209.998 163.771 209.998C164.057 209.998 164.334 210.045 164.603 210.14C164.872 210.234 165.113 210.383 165.326 210.586C165.54 210.788 165.709 211.051 165.832 211.375C165.955 211.697 166.017 212.088 166.017 212.548V212.898H161.983V212.158H165.049C165.049 211.898 164.996 211.668 164.89 211.468C164.785 211.265 164.636 211.105 164.444 210.989C164.255 210.872 164.033 210.814 163.777 210.814C163.5 210.814 163.257 210.882 163.05 211.018C162.846 211.153 162.687 211.329 162.575 211.547C162.465 211.763 162.41 211.997 162.41 212.251V212.829C162.41 213.168 162.469 213.456 162.588 213.694C162.709 213.932 162.878 214.114 163.093 214.239C163.309 214.362 163.561 214.424 163.85 214.424C164.037 214.424 164.208 214.398 164.362 214.345C164.516 214.29 164.649 214.208 164.762 214.1C164.874 213.993 164.96 213.859 165.019 213.701L165.954 213.869C165.879 214.144 165.745 214.386 165.551 214.593C165.359 214.797 165.118 214.957 164.828 215.072C164.539 215.184 164.21 215.24 163.84 215.24ZM168.257 215.25C167.936 215.25 167.645 215.191 167.385 215.072C167.125 214.951 166.919 214.775 166.767 214.546C166.618 214.317 166.543 214.037 166.543 213.704C166.543 213.418 166.598 213.182 166.708 212.997C166.818 212.812 166.967 212.666 167.154 212.558C167.341 212.45 167.55 212.368 167.781 212.313C168.013 212.258 168.248 212.216 168.488 212.188C168.792 212.153 169.039 212.124 169.228 212.102C169.418 212.078 169.555 212.039 169.641 211.986C169.727 211.933 169.77 211.847 169.77 211.729V211.705C169.77 211.417 169.689 211.193 169.526 211.035C169.365 210.876 169.125 210.797 168.806 210.797C168.473 210.797 168.211 210.871 168.019 211.018C167.83 211.164 167.699 211.326 167.626 211.504L166.698 211.293C166.808 210.984 166.969 210.735 167.18 210.546C167.394 210.354 167.639 210.216 167.917 210.13C168.194 210.042 168.486 209.998 168.792 209.998C168.995 209.998 169.21 210.022 169.436 210.07C169.666 210.116 169.879 210.202 170.077 210.328C170.278 210.453 170.442 210.633 170.57 210.866C170.697 211.098 170.761 211.398 170.761 211.768V215.138H169.797V214.444H169.757C169.693 214.572 169.597 214.697 169.47 214.821C169.342 214.944 169.178 215.046 168.977 215.128C168.777 215.209 168.537 215.25 168.257 215.25ZM168.472 214.457C168.745 214.457 168.978 214.403 169.172 214.295C169.368 214.187 169.517 214.046 169.618 213.872C169.722 213.696 169.773 213.508 169.773 213.308V212.654C169.738 212.689 169.67 212.722 169.569 212.753C169.47 212.781 169.356 212.807 169.228 212.829C169.101 212.848 168.976 212.867 168.855 212.885C168.734 212.9 168.633 212.913 168.551 212.924C168.36 212.949 168.184 212.989 168.026 213.047C167.87 213.104 167.744 213.186 167.649 213.294C167.557 213.4 167.511 213.541 167.511 213.717C167.511 213.962 167.601 214.147 167.781 214.272C167.962 214.396 168.192 214.457 168.472 214.457ZM172.732 212.125V215.138H171.745V210.064H172.693V210.889H172.755C172.872 210.621 173.055 210.405 173.304 210.242C173.555 210.079 173.871 209.998 174.252 209.998C174.598 209.998 174.9 210.07 175.16 210.216C175.42 210.359 175.622 210.572 175.765 210.856C175.908 211.141 175.979 211.492 175.979 211.91V215.138H174.992V212.029C174.992 211.661 174.896 211.374 174.704 211.167C174.513 210.958 174.25 210.853 173.915 210.853C173.686 210.853 173.482 210.903 173.304 211.002C173.128 211.101 172.988 211.246 172.884 211.438C172.783 211.627 172.732 211.856 172.732 212.125ZM178.052 213.192V213.129C178.057 212.72 178.097 212.394 178.174 212.151C178.254 211.909 178.366 211.713 178.511 211.563C178.657 211.414 178.832 211.277 179.037 211.154C179.169 211.07 179.288 210.976 179.393 210.873C179.499 210.769 179.583 210.651 179.644 210.516C179.706 210.382 179.737 210.233 179.737 210.07C179.737 209.874 179.691 209.705 179.598 209.562C179.506 209.418 179.382 209.308 179.228 209.231C179.076 209.152 178.907 209.112 178.719 209.112C178.55 209.112 178.388 209.147 178.234 209.218C178.08 209.288 177.952 209.399 177.851 209.548C177.749 209.696 177.691 209.886 177.676 210.12H176.671C176.687 209.723 176.787 209.389 176.972 209.116C177.157 208.84 177.401 208.632 177.705 208.491C178.011 208.35 178.349 208.28 178.719 208.28C179.125 208.28 179.479 208.356 179.783 208.508C180.087 208.657 180.323 208.868 180.49 209.139C180.66 209.407 180.744 209.721 180.744 210.08C180.744 210.327 180.706 210.549 180.629 210.747C180.552 210.943 180.442 211.119 180.298 211.273C180.158 211.427 179.988 211.563 179.79 211.682C179.603 211.799 179.451 211.92 179.334 212.046C179.219 212.171 179.136 212.32 179.083 212.492C179.03 212.663 179.001 212.876 178.997 213.129V213.192H178.052ZM178.551 215.2C178.37 215.2 178.215 215.137 178.085 215.009C177.955 214.879 177.89 214.723 177.89 214.54C177.89 214.359 177.955 214.205 178.085 214.077C178.215 213.947 178.37 213.882 178.551 213.882C178.729 213.882 178.884 213.947 179.013 214.077C179.146 214.205 179.212 214.359 179.212 214.54C179.212 214.661 179.181 214.772 179.119 214.873C179.06 214.973 178.98 215.052 178.881 215.111C178.782 215.171 178.672 215.2 178.551 215.2Z" fill="#7A7A7A"/>
<defs>
<filter id="filter0_f_937_7440" x="148.357" y="36.7923" width="116.281" height="112.612" filterUnits="userSpaceOnUse" color-interpolation-filters="sRGB">
<feFlood flood-opacity="0" result="BackgroundImageFix"/>
<feBlend mode="normal" in="SourceGraphic" in2="BackgroundImageFix" result="shape"/>
<feGaussianBlur stdDeviation="23.2561" result="effect1_foregroundBlur_937_7440"/>
</filter>
</defs>
</svg>
