<svg width="355" height="424" viewBox="0 0 355 424" fill="none" xmlns="http://www.w3.org/2000/svg">
<g filter="url(#filter0_b_887_1145)">
<rect width="355" height="424" rx="24" fill="white" fill-opacity="0.05"/>
<path d="M38.797 287.13H35.836C35.395 285.576 34.198 284.757 32.602 284.757C30.208 284.757 28.822 286.71 28.822 289.881C28.822 293.073 30.187 294.963 32.602 294.963C34.114 294.963 35.311 294.186 35.794 292.695H38.776C38.02 295.677 35.563 297.315 32.644 297.315C28.465 297.315 25.924 294.501 25.924 289.881C25.924 285.282 28.507 282.405 32.686 282.405C35.647 282.405 38.146 284.022 38.797 287.13ZM47.7515 292.275V285.744H50.4395V297H47.7515V295.488C47.0165 296.727 45.8615 297.315 44.4755 297.315C42.2495 297.315 40.7585 295.971 40.7585 293.262V285.744H43.4465V292.716C43.4465 294.249 44.0765 295.089 45.3995 295.089C46.8485 295.089 47.7515 293.787 47.7515 292.275ZM55.1667 288.768C55.1667 291.351 62.2647 289.167 62.2647 293.682C62.2647 295.845 60.2697 297.315 57.4557 297.315C54.6837 297.315 52.6887 296.034 52.2897 293.325H54.9777C55.1667 294.543 56.1327 295.236 57.5397 295.236C58.8627 295.236 59.5557 294.669 59.5557 293.85C59.5557 291.33 52.6047 293.493 52.6047 288.936C52.6047 287.109 54.0327 285.429 56.9727 285.429C59.5557 285.429 61.5087 286.647 61.8447 289.44H59.1567C58.9467 288.075 58.1487 287.529 56.8677 287.529C55.7967 287.529 55.1667 288.054 55.1667 288.768ZM64.4534 293.493V287.823H63.0044V285.744H64.4534V283.161H67.1414V285.744H69.5144V287.823H67.1414V293.262C67.1414 294.438 67.4774 295.068 68.9684 295.068H69.4724V297.042C69.1784 297.189 68.5694 297.315 67.8344 297.315C65.5454 297.315 64.4534 296.013 64.4534 293.493ZM75.9616 297.315C72.6226 297.315 70.5646 295.068 70.5646 291.393C70.5646 287.571 72.6856 285.429 75.9616 285.429C79.2796 285.429 81.3376 287.697 81.3376 291.393C81.3376 295.173 79.2166 297.315 75.9616 297.315ZM75.9616 295.089C77.6626 295.089 78.5656 293.787 78.5656 291.393C78.5656 288.999 77.6416 287.655 75.9616 287.655C74.2396 287.655 73.3366 288.978 73.3366 291.393C73.3366 293.766 74.2606 295.089 75.9616 295.089ZM83.2917 297V285.744H85.9797V287.193C86.6937 286.017 87.7857 285.429 89.1087 285.429C90.5367 285.429 91.6497 286.059 92.2167 287.34C92.9727 286.059 94.1697 285.429 95.6187 285.429C97.7817 285.429 99.2517 286.773 99.2517 289.503V297H96.5637V290.049C96.5637 288.516 95.9967 287.655 94.7997 287.655C93.4557 287.655 92.6157 288.957 92.6157 290.469V297H89.9277V290.049C89.9277 288.516 89.3607 287.655 88.1637 287.655C86.8197 287.655 85.9797 288.957 85.9797 290.469V297H83.2917ZM101.728 284.484V281.88H104.416V284.484H101.728ZM101.728 297V285.744H104.416V297H101.728ZM106.267 297V294.942L112.378 287.823H106.498V285.744H115.57V287.823L109.459 294.942H115.927V297H106.267ZM127.747 293.325C127.138 295.929 125.122 297.315 122.434 297.315C119.032 297.315 116.953 295.068 116.953 291.393C116.953 287.571 119.053 285.429 122.329 285.429C125.626 285.429 127.663 287.655 127.663 291.288V291.918H119.725C119.851 293.976 120.796 295.11 122.434 295.11C123.694 295.11 124.555 294.522 124.912 293.325H127.747ZM122.329 287.634C120.901 287.634 120.04 288.537 119.788 290.238H124.849C124.597 288.558 123.736 287.634 122.329 287.634ZM133.901 297.315C130.961 297.315 129.155 295.068 129.155 291.393C129.155 287.571 131.003 285.429 133.901 285.429C135.14 285.429 136.169 285.954 136.862 286.962V281.88H139.55V297H136.862V295.719C136.148 296.748 135.14 297.315 133.901 297.315ZM134.384 295.089C136.001 295.089 136.862 293.787 136.862 291.393C136.862 288.999 135.959 287.655 134.384 287.655C132.788 287.655 131.927 288.978 131.927 291.393C131.927 293.766 132.809 295.089 134.384 295.089ZM146.214 297V282.72H156.252V284.967H149.049V288.999H155.454V291.246H149.049V297H146.214ZM158.186 284.484V281.88H160.874V284.484H158.186ZM158.186 297V285.744H160.874V297H158.186ZM163.334 297V285.744H166.022V287.256C166.757 286.038 167.933 285.429 169.361 285.429C171.608 285.429 173.141 286.773 173.141 289.503V297H170.453V290.049C170.453 288.516 169.802 287.655 168.437 287.655C166.946 287.655 166.022 288.957 166.022 290.469V297H163.334ZM178.222 289.44H175.513C175.87 286.941 177.697 285.429 180.532 285.429C183.661 285.429 185.257 287.277 185.257 289.881V294.249C185.257 295.635 185.383 296.412 185.593 297H182.8C182.653 296.622 182.59 296.076 182.569 295.467C181.645 296.769 180.259 297.315 178.915 297.315C176.71 297.315 175.135 296.223 175.135 294.06C175.135 292.527 175.996 291.372 177.718 290.805C179.209 290.301 180.658 290.175 182.548 290.154V289.881C182.548 288.432 181.855 287.655 180.364 287.655C179.083 287.655 178.39 288.369 178.222 289.44ZM177.844 293.913C177.844 294.774 178.516 295.32 179.608 295.32C181.267 295.32 182.548 293.976 182.548 292.296V291.813C178.726 291.876 177.844 292.779 177.844 293.913ZM187.82 297V285.744H190.508V287.256C191.243 286.038 192.419 285.429 193.847 285.429C196.094 285.429 197.627 286.773 197.627 289.503V297H194.939V290.049C194.939 288.516 194.288 287.655 192.923 287.655C191.432 287.655 190.508 288.957 190.508 290.469V297H187.82ZM209.848 289.734H207.16C206.908 288.264 206.026 287.655 204.892 287.655C203.233 287.655 202.351 288.978 202.351 291.393C202.351 293.766 203.275 295.089 204.976 295.089C206.131 295.089 206.95 294.459 207.223 293.178H209.932C209.428 295.992 207.454 297.315 204.913 297.315C201.595 297.315 199.579 295.047 199.579 291.393C199.579 287.571 201.658 285.429 204.892 285.429C207.454 285.429 209.47 286.857 209.848 289.734ZM211.794 284.484V281.88H214.482V284.484H211.794ZM211.794 297V285.744H214.482V297H211.794ZM219.545 289.44H216.836C217.193 286.941 219.02 285.429 221.855 285.429C224.984 285.429 226.58 287.277 226.58 289.881V294.249C226.58 295.635 226.706 296.412 226.916 297H224.123C223.976 296.622 223.913 296.076 223.892 295.467C222.968 296.769 221.582 297.315 220.238 297.315C218.033 297.315 216.458 296.223 216.458 294.06C216.458 292.527 217.319 291.372 219.041 290.805C220.532 290.301 221.981 290.175 223.871 290.154V289.881C223.871 288.432 223.178 287.655 221.687 287.655C220.406 287.655 219.713 288.369 219.545 289.44ZM219.167 293.913C219.167 294.774 219.839 295.32 220.931 295.32C222.59 295.32 223.871 293.976 223.871 292.296V291.813C220.049 291.876 219.167 292.779 219.167 293.913ZM229.143 297V281.88H231.831V297H229.143ZM240.893 286.311C240.893 289.734 249.44 286.962 249.44 292.8C249.44 295.677 247.088 297.315 243.854 297.315C240.599 297.315 238.289 295.803 237.743 292.695H240.704C241.061 294.207 242.153 295.047 243.875 295.047C245.639 295.047 246.542 294.312 246.542 293.157C246.542 289.524 238.016 292.254 238.016 286.563C238.016 284.295 239.885 282.405 243.266 282.405C246.143 282.405 248.579 283.791 249.041 287.004H246.038C245.702 285.408 244.715 284.673 243.182 284.673C241.754 284.673 240.893 285.324 240.893 286.311ZM251.69 293.493V287.823H250.241V285.744H251.69V283.161H254.378V285.744H256.751V287.823H254.378V293.262C254.378 294.438 254.714 295.068 256.205 295.068H256.709V297.042C256.415 297.189 255.806 297.315 255.071 297.315C252.782 297.315 251.69 296.013 251.69 293.493ZM258.326 297V285.744H261.014V287.382C261.749 286.038 262.883 285.429 264.101 285.429C264.563 285.429 264.983 285.555 265.193 285.744V288.075C264.836 287.97 264.437 287.928 263.954 287.928C261.917 287.928 261.014 289.146 261.014 291.015V297H258.326ZM269.092 289.44H266.383C266.74 286.941 268.567 285.429 271.402 285.429C274.531 285.429 276.127 287.277 276.127 289.881V294.249C276.127 295.635 276.253 296.412 276.463 297H273.67C273.523 296.622 273.46 296.076 273.439 295.467C272.515 296.769 271.129 297.315 269.785 297.315C267.58 297.315 266.005 296.223 266.005 294.06C266.005 292.527 266.866 291.372 268.588 290.805C270.079 290.301 271.528 290.175 273.418 290.154V289.881C273.418 288.432 272.725 287.655 271.234 287.655C269.953 287.655 269.26 288.369 269.092 289.44ZM268.714 293.913C268.714 294.774 269.386 295.32 270.478 295.32C272.137 295.32 273.418 293.976 273.418 292.296V291.813C269.596 291.876 268.714 292.779 268.714 293.913ZM279.047 293.493V287.823H277.598V285.744H279.047V283.161H281.735V285.744H284.108V287.823H281.735V293.262C281.735 294.438 282.071 295.068 283.562 295.068H284.066V297.042C283.772 297.189 283.163 297.315 282.428 297.315C280.139 297.315 279.047 296.013 279.047 293.493ZM295.952 293.325C295.343 295.929 293.327 297.315 290.639 297.315C287.237 297.315 285.158 295.068 285.158 291.393C285.158 287.571 287.258 285.429 290.534 285.429C293.831 285.429 295.868 287.655 295.868 291.288V291.918H287.93C288.056 293.976 289.001 295.11 290.639 295.11C291.899 295.11 292.76 294.522 293.117 293.325H295.952ZM290.534 287.634C289.106 287.634 288.245 288.537 287.993 290.238H293.054C292.802 288.558 291.941 287.634 290.534 287.634ZM301.98 297.042C299.124 297.042 297.36 294.837 297.36 291.246C297.36 287.508 299.166 285.429 301.98 285.429C303.324 285.429 304.374 285.933 305.067 286.878V285.744H307.755V297.357C307.755 300.402 305.655 301.956 302.862 301.956C300.09 301.956 298.074 300.675 297.675 298.008H300.384C300.552 299.205 301.518 299.835 302.82 299.835C304.164 299.835 305.067 299.184 305.067 297.399V295.509C304.332 296.517 303.282 297.042 301.98 297.042ZM302.589 294.816C304.206 294.816 305.067 293.556 305.067 291.246C305.067 288.957 304.164 287.655 302.589 287.655C300.993 287.655 300.132 288.915 300.132 291.246C300.132 293.535 300.993 294.816 302.589 294.816ZM311.365 301.935C310.819 301.935 310.252 301.788 309.979 301.683V299.625H310.609C311.827 299.625 312.394 299.373 313.255 297.231L313.528 296.538L309.097 285.744H311.974L314.473 292.275L314.935 293.913L315.397 292.275L317.791 285.744H320.542L315.586 298.113C314.431 301.032 313.423 301.935 311.365 301.935Z" fill="white"/>
<path d="M36.008 329L33.656 320.968L33.416 320.088L33.16 320.968L30.808 329H29.064L25.608 318.12H27.176L29.752 326.632L29.976 327.448L30.184 326.632L32.664 318.12H34.248L36.712 326.632L36.92 327.448L37.128 326.632L39.688 318.12H41.192L37.736 329H36.008ZM49.5421 326.232C49.0781 328.216 47.6541 329.192 45.7181 329.192C43.2541 329.192 41.7661 327.528 41.7661 324.76C41.7661 321.88 43.2541 320.296 45.6381 320.296C48.0381 320.296 49.4781 321.944 49.4781 324.648V325H43.2061C43.2861 326.904 44.1821 327.976 45.7181 327.976C46.9181 327.976 47.7661 327.4 48.0701 326.232H49.5421ZM45.6381 321.512C44.2781 321.512 43.4621 322.36 43.2541 323.944H48.0061C47.8141 322.376 46.9661 321.512 45.6381 321.512ZM54.6855 329V318.12H58.2375C61.6135 318.12 63.7255 320.168 63.7255 323.576C63.7255 326.984 61.6135 329 58.2375 329H54.6855ZM58.2375 327.8C60.7335 327.8 62.2215 326.232 62.2215 323.576C62.2215 320.888 60.7335 319.32 58.2375 319.32H56.1575V327.8H58.2375ZM73.0578 326.232C72.5938 328.216 71.1698 329.192 69.2338 329.192C66.7698 329.192 65.2818 327.528 65.2818 324.76C65.2818 321.88 66.7698 320.296 69.1538 320.296C71.5538 320.296 72.9938 321.944 72.9938 324.648V325H66.7218C66.8018 326.904 67.6978 327.976 69.2338 327.976C70.4338 327.976 71.2818 327.4 71.5858 326.232H73.0578ZM69.1538 321.512C67.7938 321.512 66.9778 322.36 66.7698 323.944H71.5218C71.3298 322.376 70.4818 321.512 69.1538 321.512ZM75.91 322.68C75.91 325.048 81.43 323.096 81.43 326.6C81.43 328.184 80.022 329.192 78.022 329.192C76.006 329.192 74.598 328.232 74.278 326.232H75.686C75.878 327.416 76.758 328.072 78.07 328.072C79.35 328.072 80.022 327.496 80.022 326.696C80.022 324.376 74.566 326.296 74.566 322.776C74.566 321.48 75.574 320.296 77.654 320.296C79.494 320.296 80.854 321.16 81.126 323.272H79.718C79.51 321.944 78.774 321.448 77.574 321.448C76.518 321.448 75.91 321.976 75.91 322.68ZM83.1044 319.368V317.48H84.5124V319.368H83.1044ZM83.1044 329V320.504H84.5124V329H83.1044ZM89.769 329.064C87.609 329.064 86.313 327.416 86.313 324.696C86.313 321.848 87.641 320.296 89.769 320.296C90.905 320.296 91.753 320.696 92.313 321.432V320.504H93.721V329.256C93.721 331.624 92.201 332.728 90.249 332.728C88.249 332.728 86.841 331.768 86.537 329.832H87.945C88.121 330.952 89.001 331.56 90.233 331.56C91.481 331.56 92.313 330.888 92.313 329.304V327.848C91.721 328.648 90.857 329.064 89.769 329.064ZM90.025 327.848C91.513 327.848 92.313 326.728 92.313 324.68C92.313 322.68 91.481 321.512 90.025 321.512C88.553 321.512 87.753 322.632 87.753 324.696C87.753 326.696 88.569 327.848 90.025 327.848ZM95.9794 329V320.504H97.3874V321.656C97.9634 320.76 98.8914 320.296 100.011 320.296C101.819 320.296 102.891 321.352 102.891 323.32V329H101.483V323.608C101.483 322.328 100.907 321.496 99.6274 321.496C98.2194 321.496 97.3874 322.76 97.3874 323.976V329H95.9794ZM115.774 329L114.75 326.392H109.534L108.51 329H107.054L111.326 318.12H113.022L117.31 329H115.774ZM111.822 320.504L109.982 325.208H114.302L112.462 320.504L112.142 319.544L111.822 320.504ZM121.592 329V318.12H125.32C127.784 318.12 129.336 319.432 129.336 321.56C129.336 323.752 127.768 325.032 125.336 325.032H123.064V329H121.592ZM125.304 319.32H123.064V323.832H125.256C126.872 323.832 127.816 322.968 127.816 321.576C127.816 320.2 126.856 319.32 125.304 319.32ZM138.433 326.232C137.969 328.216 136.545 329.192 134.609 329.192C132.145 329.192 130.657 327.528 130.657 324.76C130.657 321.88 132.145 320.296 134.529 320.296C136.929 320.296 138.369 321.944 138.369 324.648V325H132.097C132.177 326.904 133.073 327.976 134.609 327.976C135.809 327.976 136.657 327.4 136.961 326.232H138.433ZM134.529 321.512C133.169 321.512 132.353 322.36 132.145 323.944H136.897C136.705 322.376 135.857 321.512 134.529 321.512ZM140.245 329V320.504H141.653V321.816C142.229 320.776 143.141 320.296 144.165 320.296C144.501 320.296 144.805 320.376 144.965 320.504V321.768C144.725 321.688 144.421 321.656 144.085 321.656C142.389 321.656 141.653 322.712 141.653 324.248V329H140.245ZM147.254 322.68C147.254 325.048 152.774 323.096 152.774 326.6C152.774 328.184 151.366 329.192 149.366 329.192C147.35 329.192 145.942 328.232 145.622 326.232H147.03C147.222 327.416 148.102 328.072 149.414 328.072C150.694 328.072 151.366 327.496 151.366 326.696C151.366 324.376 145.91 326.296 145.91 322.776C145.91 321.48 146.918 320.296 148.998 320.296C150.838 320.296 152.198 321.16 152.47 323.272H151.062C150.854 321.944 150.118 321.448 148.918 321.448C147.862 321.448 147.254 321.976 147.254 322.68ZM157.904 329.192C155.472 329.192 154.016 327.528 154.016 324.76C154.016 321.88 155.52 320.296 157.904 320.296C160.336 320.296 161.792 321.992 161.792 324.76C161.792 327.624 160.288 329.192 157.904 329.192ZM157.904 327.976C159.488 327.976 160.352 326.84 160.352 324.76C160.352 322.696 159.472 321.512 157.904 321.512C156.32 321.512 155.456 322.664 155.456 324.76C155.456 326.808 156.336 327.976 157.904 327.976ZM163.604 329V320.504H165.012V321.656C165.588 320.76 166.516 320.296 167.636 320.296C169.444 320.296 170.516 321.352 170.516 323.32V329H169.108V323.608C169.108 322.328 168.532 321.496 167.252 321.496C165.844 321.496 165.012 322.76 165.012 323.976V329H163.604ZM174.057 323.272H172.649C172.921 321.4 174.153 320.296 176.233 320.296C178.505 320.296 179.609 321.624 179.609 323.608V326.952C179.609 327.928 179.689 328.536 179.913 329H178.425C178.265 328.664 178.217 328.168 178.201 327.656C177.481 328.728 176.329 329.192 175.305 329.192C173.545 329.192 172.361 328.376 172.361 326.76C172.361 325.592 173.001 324.744 174.249 324.328C175.401 323.944 176.569 323.848 178.201 323.832V323.64C178.201 322.264 177.561 321.512 176.105 321.512C174.889 321.512 174.233 322.184 174.057 323.272ZM173.801 326.728C173.801 327.512 174.457 327.976 175.449 327.976C177.017 327.976 178.201 326.744 178.201 325.288V324.888C174.585 324.92 173.801 325.688 173.801 326.728ZM181.917 329V317.48H183.325V329H181.917ZM185.558 319.368V317.48H186.966V319.368H185.558ZM185.558 329V320.504H186.966V329H185.558ZM188.558 329V327.896L193.598 321.624H188.75V320.504H195.278V321.624L190.238 327.896H195.566V329H188.558ZM204.277 326.232C203.812 328.216 202.389 329.192 200.453 329.192C197.989 329.192 196.501 327.528 196.501 324.76C196.501 321.88 197.989 320.296 200.373 320.296C202.773 320.296 204.213 321.944 204.213 324.648V325H197.941C198.021 326.904 198.917 327.976 200.453 327.976C201.653 327.976 202.501 327.4 202.805 326.232H204.277ZM200.373 321.512C199.013 321.512 198.197 322.36 197.989 323.944H202.741C202.549 322.376 201.701 321.512 200.373 321.512ZM209.273 329.192C207.017 329.192 205.657 327.528 205.657 324.76C205.657 321.88 207.049 320.296 209.273 320.296C210.281 320.296 211.097 320.712 211.657 321.496V317.48H213.065V329H211.657V327.928C211.097 328.728 210.281 329.192 209.273 329.192ZM209.369 327.976C210.857 327.976 211.657 326.84 211.657 324.76C211.657 322.696 210.825 321.512 209.369 321.512C207.897 321.512 207.097 322.664 207.097 324.76C207.097 326.808 207.929 327.976 209.369 327.976ZM218.639 329V318.12H222.367C224.831 318.12 226.383 319.432 226.383 321.56C226.383 323.752 224.815 325.032 222.383 325.032H220.111V329H218.639ZM222.351 319.32H220.111V323.832H222.303C223.919 323.832 224.863 322.968 224.863 321.576C224.863 320.2 223.903 319.32 222.351 319.32ZM228.136 329V317.48H229.544V329H228.136ZM233.072 323.272H231.664C231.936 321.4 233.168 320.296 235.248 320.296C237.52 320.296 238.624 321.624 238.624 323.608V326.952C238.624 327.928 238.704 328.536 238.928 329H237.44C237.28 328.664 237.232 328.168 237.216 327.656C236.496 328.728 235.344 329.192 234.32 329.192C232.56 329.192 231.376 328.376 231.376 326.76C231.376 325.592 232.016 324.744 233.264 324.328C234.416 323.944 235.584 323.848 237.216 323.832V323.64C237.216 322.264 236.576 321.512 235.12 321.512C233.904 321.512 233.248 322.184 233.072 323.272ZM232.816 326.728C232.816 327.512 233.472 327.976 234.464 327.976C236.032 327.976 237.216 326.744 237.216 325.288V324.888C233.6 324.92 232.816 325.688 232.816 326.728ZM240.933 329V320.504H242.341V321.656C242.917 320.76 243.845 320.296 244.965 320.296C246.773 320.296 247.845 321.352 247.845 323.32V329H246.437V323.608C246.437 322.328 245.861 321.496 244.581 321.496C243.173 321.496 242.341 322.76 242.341 323.976V329H240.933ZM256.083 329V319.368H252.355V318.12H261.283V319.368H257.555V329H256.083ZM264.92 329.192C262.488 329.192 261.032 327.528 261.032 324.76C261.032 321.88 262.536 320.296 264.92 320.296C267.352 320.296 268.808 321.992 268.808 324.76C268.808 327.624 267.304 329.192 264.92 329.192ZM264.92 327.976C266.504 327.976 267.368 326.84 267.368 324.76C267.368 322.696 266.488 321.512 264.92 321.512C263.336 321.512 262.472 322.664 262.472 324.76C262.472 326.808 263.352 327.976 264.92 327.976ZM281.259 329L280.235 326.392H275.019L273.995 329H272.539L276.811 318.12H278.507L282.795 329H281.259ZM277.307 320.504L275.467 325.208H279.787L277.947 320.504L277.627 319.544L277.307 320.504ZM284.229 329V317.48H285.637V329H284.229ZM287.87 329V317.48H289.278V329H287.87ZM294.967 329.192C292.535 329.192 291.079 327.528 291.079 324.76C291.079 321.88 292.583 320.296 294.967 320.296C297.399 320.296 298.855 321.992 298.855 324.76C298.855 327.624 297.351 329.192 294.967 329.192ZM294.967 327.976C296.551 327.976 297.415 326.84 297.415 324.76C297.415 322.696 296.535 321.512 294.967 321.512C293.383 321.512 292.519 322.664 292.519 324.76C292.519 326.808 293.399 327.976 294.967 327.976ZM307.691 323.432H306.283C306.059 322.136 305.195 321.512 304.075 321.512C302.507 321.512 301.675 322.664 301.675 324.76C301.675 326.824 302.555 327.992 304.123 327.992C305.259 327.992 306.075 327.384 306.347 326.168H307.755C307.371 328.28 305.947 329.192 304.091 329.192C301.675 329.192 300.235 327.512 300.235 324.76C300.235 321.88 301.707 320.296 304.075 320.296C305.947 320.296 307.419 321.352 307.691 323.432ZM310.791 323.272H309.383C309.655 321.4 310.887 320.296 312.967 320.296C315.239 320.296 316.343 321.624 316.343 323.608V326.952C316.343 327.928 316.423 328.536 316.647 329H315.159C314.999 328.664 314.951 328.168 314.935 327.656C314.215 328.728 313.063 329.192 312.039 329.192C310.279 329.192 309.095 328.376 309.095 326.76C309.095 325.592 309.735 324.744 310.983 324.328C312.135 323.944 313.303 323.848 314.935 323.832V323.64C314.935 322.264 314.295 321.512 312.839 321.512C311.623 321.512 310.967 322.184 310.791 323.272ZM310.535 326.728C310.535 327.512 311.191 327.976 312.183 327.976C313.751 327.976 314.935 326.744 314.935 325.288V324.888C311.319 324.92 310.535 325.688 310.535 326.728ZM318.843 326.552V321.624H317.659V320.504H318.843V318.552H320.251V320.504H322.123V321.624H320.251V326.552C320.251 327.576 320.555 328.056 321.803 328.056H322.091V329.064C321.931 329.144 321.579 329.192 321.179 329.192C319.595 329.192 318.843 328.344 318.843 326.552ZM330.808 326.232C330.344 328.216 328.92 329.192 326.984 329.192C324.52 329.192 323.032 327.528 323.032 324.76C323.032 321.88 324.52 320.296 326.904 320.296C329.304 320.296 330.744 321.944 330.744 324.648V325H324.472C324.552 326.904 325.448 327.976 326.984 327.976C328.184 327.976 329.032 327.4 329.336 326.232H330.808ZM326.904 321.512C325.544 321.512 324.728 322.36 324.52 323.944H329.272C329.08 322.376 328.232 321.512 326.904 321.512ZM29.144 355V350.984L25.24 344.12H26.888L29.432 348.648L29.928 349.688L30.408 348.648L32.952 344.12H34.52L30.616 350.984V355H29.144ZM38.2948 355.192C35.8628 355.192 34.4068 353.528 34.4068 350.76C34.4068 347.88 35.9108 346.296 38.2948 346.296C40.7268 346.296 42.1828 347.992 42.1828 350.76C42.1828 353.624 40.6788 355.192 38.2948 355.192ZM38.2948 353.976C39.8788 353.976 40.7428 352.84 40.7428 350.76C40.7428 348.696 39.8628 347.512 38.2948 347.512C36.7108 347.512 35.8468 348.664 35.8468 350.76C35.8468 352.808 36.7268 353.976 38.2948 353.976ZM49.403 351.528V346.504H50.811V355H49.403V353.848C48.827 354.744 47.931 355.192 46.827 355.192C45.051 355.192 43.995 354.152 43.995 352.184V346.504H45.403V351.896C45.403 353.176 45.963 353.992 47.211 353.992C48.587 353.992 49.403 352.744 49.403 351.528ZM53.0575 355V346.504H54.4655V347.816C55.0415 346.776 55.9535 346.296 56.9775 346.296C57.3135 346.296 57.6175 346.376 57.7775 346.504V347.768C57.5375 347.688 57.2335 347.656 56.8975 347.656C55.2015 347.656 54.4655 348.712 54.4655 350.248V355H53.0575ZM62.3574 355V344.12H69.7334V345.32H63.8294V349.048H69.1414V350.248H63.8294V355H62.3574ZM76.6686 351.528V346.504H78.0766V355H76.6686V353.848C76.0926 354.744 75.1966 355.192 74.0926 355.192C72.3166 355.192 71.2606 354.152 71.2606 352.184V346.504H72.6686V351.896C72.6686 353.176 73.2286 353.992 74.4766 353.992C75.8526 353.992 76.6686 352.744 76.6686 351.528ZM80.3231 355V346.504H81.7311V347.656C82.3071 346.76 83.2351 346.296 84.3551 346.296C86.1631 346.296 87.2351 347.352 87.2351 349.32V355H85.8271V349.608C85.8271 348.328 85.2511 347.496 83.9711 347.496C82.5631 347.496 81.7311 348.76 81.7311 349.976V355H80.3231ZM92.6634 355.192C90.4074 355.192 89.0474 353.528 89.0474 350.76C89.0474 347.88 90.4394 346.296 92.6634 346.296C93.6714 346.296 94.4874 346.712 95.0474 347.496V343.48H96.4554V355H95.0474V353.928C94.4874 354.728 93.6714 355.192 92.6634 355.192ZM92.7594 353.976C94.2474 353.976 95.0474 352.84 95.0474 350.76C95.0474 348.696 94.2154 347.512 92.7594 347.512C91.2874 347.512 90.4874 348.664 90.4874 350.76C90.4874 352.808 91.3194 353.976 92.7594 353.976ZM99.7381 348.68C99.7381 351.048 105.258 349.096 105.258 352.6C105.258 354.184 103.85 355.192 101.85 355.192C99.8341 355.192 98.4261 354.232 98.1061 352.232H99.5141C99.7061 353.416 100.586 354.072 101.898 354.072C103.178 354.072 103.85 353.496 103.85 352.696C103.85 350.376 98.3941 352.296 98.3941 348.776C98.3941 347.48 99.4021 346.296 101.482 346.296C103.322 346.296 104.682 347.16 104.954 349.272H103.546C103.338 347.944 102.602 347.448 101.402 347.448C100.346 347.448 99.7381 347.976 99.7381 348.68ZM117.571 355L116.547 352.392H111.331L110.307 355H108.851L113.123 344.12H114.819L119.107 355H117.571ZM113.619 346.504L111.779 351.208H116.099L114.259 346.504L113.939 345.544L113.619 346.504ZM127.332 349.432H125.924C125.7 348.136 124.836 347.512 123.716 347.512C122.148 347.512 121.316 348.664 121.316 350.76C121.316 352.824 122.196 353.992 123.764 353.992C124.9 353.992 125.716 353.384 125.988 352.168H127.396C127.012 354.28 125.588 355.192 123.732 355.192C121.316 355.192 119.876 353.512 119.876 350.76C119.876 347.88 121.348 346.296 123.716 346.296C125.588 346.296 127.06 347.352 127.332 349.432ZM129.136 355V346.504H130.544V347.816C131.12 346.776 132.032 346.296 133.056 346.296C133.392 346.296 133.696 346.376 133.856 346.504V347.768C133.616 347.688 133.312 347.656 132.976 347.656C131.28 347.656 130.544 348.712 130.544 350.248V355H129.136ZM138.404 355.192C135.972 355.192 134.516 353.528 134.516 350.76C134.516 347.88 136.02 346.296 138.404 346.296C140.836 346.296 142.292 347.992 142.292 350.76C142.292 353.624 140.788 355.192 138.404 355.192ZM138.404 353.976C139.988 353.976 140.852 352.84 140.852 350.76C140.852 348.696 139.972 347.512 138.404 347.512C136.82 347.512 135.956 348.664 135.956 350.76C135.956 352.808 136.836 353.976 138.404 353.976ZM145.144 348.68C145.144 351.048 150.664 349.096 150.664 352.6C150.664 354.184 149.256 355.192 147.256 355.192C145.24 355.192 143.832 354.232 143.512 352.232H144.92C145.112 353.416 145.992 354.072 147.304 354.072C148.584 354.072 149.256 353.496 149.256 352.696C149.256 350.376 143.8 352.296 143.8 348.776C143.8 347.48 144.808 346.296 146.888 346.296C148.728 346.296 150.088 347.16 150.36 349.272H148.952C148.744 347.944 148.008 347.448 146.808 347.448C145.752 347.448 145.144 347.976 145.144 348.68ZM153.379 348.68C153.379 351.048 158.899 349.096 158.899 352.6C158.899 354.184 157.491 355.192 155.491 355.192C153.475 355.192 152.067 354.232 151.747 352.232H153.155C153.347 353.416 154.227 354.072 155.539 354.072C156.819 354.072 157.491 353.496 157.491 352.696C157.491 350.376 152.035 352.296 152.035 348.776C152.035 347.48 153.043 346.296 155.123 346.296C156.963 346.296 158.323 347.16 158.595 349.272H157.187C156.979 347.944 156.243 347.448 155.043 347.448C153.987 347.448 153.379 347.976 153.379 348.68ZM164.2 344.12L167.512 352.616L167.832 353.576L168.152 352.616L171.464 344.12H172.92L168.648 355H166.952L162.664 344.12H164.2ZM174.932 349.272H173.524C173.796 347.4 175.028 346.296 177.108 346.296C179.38 346.296 180.484 347.624 180.484 349.608V352.952C180.484 353.928 180.564 354.536 180.788 355H179.3C179.14 354.664 179.092 354.168 179.076 353.656C178.356 354.728 177.204 355.192 176.18 355.192C174.42 355.192 173.236 354.376 173.236 352.76C173.236 351.592 173.876 350.744 175.124 350.328C176.276 349.944 177.444 349.848 179.076 349.832V349.64C179.076 348.264 178.436 347.512 176.98 347.512C175.764 347.512 175.108 348.184 174.932 349.272ZM174.676 352.728C174.676 353.512 175.332 353.976 176.324 353.976C177.892 353.976 179.076 352.744 179.076 351.288V350.888C175.46 350.92 174.676 351.688 174.676 352.728ZM182.792 355V346.504H184.2V347.816C184.776 346.776 185.688 346.296 186.712 346.296C187.048 346.296 187.352 346.376 187.512 346.504V347.768C187.272 347.688 186.968 347.656 186.632 347.656C184.936 347.656 184.2 348.712 184.2 350.248V355H182.792ZM188.761 345.368V343.48H190.169V345.368H188.761ZM188.761 355V346.504H190.169V355H188.761ZM195.857 355.192C193.425 355.192 191.969 353.528 191.969 350.76C191.969 347.88 193.473 346.296 195.857 346.296C198.289 346.296 199.745 347.992 199.745 350.76C199.745 353.624 198.241 355.192 195.857 355.192ZM195.857 353.976C197.441 353.976 198.305 352.84 198.305 350.76C198.305 348.696 197.425 347.512 195.857 347.512C194.273 347.512 193.409 348.664 193.409 350.76C193.409 352.808 194.289 353.976 195.857 353.976ZM206.966 351.528V346.504H208.374V355H206.966V353.848C206.39 354.744 205.494 355.192 204.39 355.192C202.614 355.192 201.558 354.152 201.558 352.184V346.504H202.966V351.896C202.966 353.176 203.526 353.992 204.774 353.992C206.15 353.992 206.966 352.744 206.966 351.528ZM211.66 348.68C211.66 351.048 217.18 349.096 217.18 352.6C217.18 354.184 215.772 355.192 213.772 355.192C211.756 355.192 210.348 354.232 210.028 352.232H211.436C211.628 353.416 212.508 354.072 213.82 354.072C215.1 354.072 215.772 353.496 215.772 352.696C215.772 350.376 210.316 352.296 210.316 348.776C210.316 347.48 211.324 346.296 213.404 346.296C215.244 346.296 216.604 347.16 216.876 349.272H215.468C215.26 347.944 214.524 347.448 213.324 347.448C212.268 347.448 211.66 347.976 211.66 348.68ZM222.186 355V344.12H229.562V345.32H223.658V349.048H228.97V350.248H223.658V355H222.186ZM231.245 345.368V343.48H232.653V345.368H231.245ZM231.245 355V346.504H232.653V355H231.245ZM234.886 355V346.504H236.294V347.656C236.87 346.76 237.798 346.296 238.918 346.296C240.726 346.296 241.798 347.352 241.798 349.32V355H240.39V349.608C240.39 348.328 239.814 347.496 238.534 347.496C237.126 347.496 236.294 348.76 236.294 349.976V355H234.886ZM245.338 349.272H243.93C244.202 347.4 245.434 346.296 247.514 346.296C249.786 346.296 250.89 347.624 250.89 349.608V352.952C250.89 353.928 250.97 354.536 251.194 355H249.706C249.546 354.664 249.498 354.168 249.482 353.656C248.762 354.728 247.61 355.192 246.586 355.192C244.826 355.192 243.642 354.376 243.642 352.76C243.642 351.592 244.282 350.744 245.53 350.328C246.682 349.944 247.85 349.848 249.482 349.832V349.64C249.482 348.264 248.842 347.512 247.386 347.512C246.17 347.512 245.514 348.184 245.338 349.272ZM245.082 352.728C245.082 353.512 245.738 353.976 246.73 353.976C248.298 353.976 249.482 352.744 249.482 351.288V350.888C245.866 350.92 245.082 351.688 245.082 352.728ZM253.198 355V346.504H254.606V347.656C255.182 346.76 256.11 346.296 257.23 346.296C259.038 346.296 260.11 347.352 260.11 349.32V355H258.702V349.608C258.702 348.328 258.126 347.496 256.846 347.496C255.438 347.496 254.606 348.76 254.606 349.976V355H253.198ZM269.378 349.432H267.97C267.746 348.136 266.882 347.512 265.762 347.512C264.194 347.512 263.362 348.664 263.362 350.76C263.362 352.824 264.242 353.992 265.81 353.992C266.946 353.992 267.762 353.384 268.034 352.168H269.442C269.058 354.28 267.634 355.192 265.778 355.192C263.362 355.192 261.922 353.512 261.922 350.76C261.922 347.88 263.394 346.296 265.762 346.296C267.634 346.296 269.106 347.352 269.378 349.432ZM271.183 345.368V343.48H272.591V345.368H271.183ZM271.183 355V346.504H272.591V355H271.183ZM276.119 349.272H274.711C274.983 347.4 276.215 346.296 278.295 346.296C280.567 346.296 281.671 347.624 281.671 349.608V352.952C281.671 353.928 281.751 354.536 281.975 355H280.487C280.327 354.664 280.279 354.168 280.263 353.656C279.543 354.728 278.391 355.192 277.367 355.192C275.607 355.192 274.423 354.376 274.423 352.76C274.423 351.592 275.063 350.744 276.311 350.328C277.463 349.944 278.631 349.848 280.263 349.832V349.64C280.263 348.264 279.623 347.512 278.167 347.512C276.951 347.512 276.295 348.184 276.119 349.272ZM275.863 352.728C275.863 353.512 276.519 353.976 277.511 353.976C279.079 353.976 280.263 352.744 280.263 351.288V350.888C276.647 350.92 275.863 351.688 275.863 352.728ZM283.979 355V343.48H285.387V355H283.979ZM26.248 381V370.12H27.72V381H26.248ZM30.0888 381V372.504H31.4968V373.656C32.0728 372.76 33.0008 372.296 34.1208 372.296C35.9288 372.296 37.0008 373.352 37.0008 375.32V381H35.5928V375.608C35.5928 374.328 35.0168 373.496 33.7368 373.496C32.3288 373.496 31.4968 374.76 31.4968 375.976V381H30.0888ZM40.285 374.68C40.285 377.048 45.805 375.096 45.805 378.6C45.805 380.184 44.397 381.192 42.397 381.192C40.381 381.192 38.973 380.232 38.653 378.232H40.061C40.253 379.416 41.133 380.072 42.445 380.072C43.725 380.072 44.397 379.496 44.397 378.696C44.397 376.376 38.941 378.296 38.941 374.776C38.941 373.48 39.949 372.296 42.029 372.296C43.869 372.296 45.229 373.16 45.501 375.272H44.093C43.885 373.944 43.149 373.448 41.949 373.448C40.893 373.448 40.285 373.976 40.285 374.68ZM47.6714 378.552V373.624H46.4874V372.504H47.6714V370.552H49.0794V372.504H50.9514V373.624H49.0794V378.552C49.0794 379.576 49.3834 380.056 50.6314 380.056H50.9194V381.064C50.7594 381.144 50.4074 381.192 50.0074 381.192C48.4234 381.192 47.6714 380.344 47.6714 378.552ZM52.2919 381V372.504H53.6999V373.816C54.2759 372.776 55.1879 372.296 56.2119 372.296C56.5479 372.296 56.8519 372.376 57.0119 372.504V373.768C56.7719 373.688 56.4679 373.656 56.1319 373.656C54.4359 373.656 53.6999 374.712 53.6999 376.248V381H52.2919ZM63.6686 377.528V372.504H65.0766V381H63.6686V379.848C63.0926 380.744 62.1966 381.192 61.0926 381.192C59.3166 381.192 58.2606 380.152 58.2606 378.184V372.504H59.6686V377.896C59.6686 379.176 60.2286 379.992 61.4766 379.992C62.8526 379.992 63.6686 378.744 63.6686 377.528ZM67.3231 381V372.504H68.7311V373.592C69.2751 372.728 70.1231 372.296 71.1631 372.296C72.3311 372.296 73.1791 372.808 73.5791 373.8C74.1391 372.808 75.0671 372.296 76.2031 372.296C77.9311 372.296 78.9711 373.352 78.9711 375.32V381H77.5631V375.608C77.5631 374.328 77.0511 373.496 75.8991 373.496C74.6191 373.496 73.8511 374.76 73.8511 375.976V381H72.4431V375.608C72.4431 374.328 71.9311 373.496 70.7791 373.496C69.4991 373.496 68.7311 374.76 68.7311 375.976V381H67.3231ZM88.5578 378.232C88.0938 380.216 86.6698 381.192 84.7338 381.192C82.2698 381.192 80.7818 379.528 80.7818 376.76C80.7818 373.88 82.2698 372.296 84.6538 372.296C87.0538 372.296 88.4938 373.944 88.4938 376.648V377H82.2218C82.3018 378.904 83.1978 379.976 84.7338 379.976C85.9338 379.976 86.7818 379.4 87.0858 378.232H88.5578ZM84.6538 373.512C83.2938 373.512 82.4778 374.36 82.2698 375.944H87.0218C86.8298 374.376 85.9818 373.512 84.6538 373.512ZM90.37 381V372.504H91.778V373.656C92.354 372.76 93.282 372.296 94.402 372.296C96.21 372.296 97.282 373.352 97.282 375.32V381H95.874V375.608C95.874 374.328 95.298 373.496 94.018 373.496C92.61 373.496 91.778 374.76 91.778 375.976V381H90.37ZM99.7183 378.552V373.624H98.5343V372.504H99.7183V370.552H101.126V372.504H102.998V373.624H101.126V378.552C101.126 379.576 101.43 380.056 102.678 380.056H102.966V381.064C102.806 381.144 102.454 381.192 102.054 381.192C100.47 381.192 99.7183 380.344 99.7183 378.552ZM105.379 374.68C105.379 377.048 110.899 375.096 110.899 378.6C110.899 380.184 109.491 381.192 107.491 381.192C105.475 381.192 104.067 380.232 103.747 378.232H105.155C105.347 379.416 106.227 380.072 107.539 380.072C108.819 380.072 109.491 379.496 109.491 378.696C109.491 376.376 104.035 378.296 104.035 374.776C104.035 373.48 105.043 372.296 107.123 372.296C108.963 372.296 110.323 373.16 110.595 375.272H109.187C108.979 373.944 108.243 373.448 107.043 373.448C105.987 373.448 105.379 373.976 105.379 374.68Z" fill="#CECECE"/>
<path d="M54 72.3576C54 56.6961 66.6961 44 82.3575 44H128.061C135.458 44 142.562 46.89 147.858 52.0535L152.343 56.4269C157.639 61.5905 164.743 64.4804 172.14 64.4804H272.458C288.12 64.4804 300.816 77.1766 300.816 92.838V157.43C300.816 173.092 288.12 185.788 272.458 185.788H82.3576C66.6961 185.788 54 173.092 54 157.43V72.3576Z" fill="#4677D4"/>
<path d="M54.5 72.3576C54.5 56.9723 66.9722 44.5 82.3575 44.5H128.061C135.328 44.5 142.306 47.339 147.509 52.4115L151.994 56.7849C157.384 62.0395 164.613 64.9804 172.14 64.9804H272.458C287.843 64.9804 300.316 77.4527 300.316 92.838V157.43C300.316 172.815 287.843 185.288 272.458 185.288H82.3576C66.9723 185.288 54.5 172.815 54.5 157.43V72.3576Z" stroke="#4C81E5" stroke-opacity="0.2"/>
<g filter="url(#filter1_d_887_1145)">
<rect x="81.3071" y="77.6089" width="191.151" height="37.8101" rx="10.5028" fill="#E8E8E8"/>
<rect x="79.2065" y="79.7095" width="195.352" height="37.8101" rx="10.5028" fill="white"/>
<rect x="88" y="86" width="64" height="6" rx="3" fill="#E2E8F0"/>
<rect x="251" y="86" width="11" height="6" rx="3" fill="#E2E8F0"/>
<rect x="237" y="86" width="11" height="6" rx="3" fill="#E2E8F0"/>
</g>
<g filter="url(#filter2_d_887_1145)">
<rect x="54" y="90.2124" width="246.816" height="141.788" rx="28.3575" fill="#4677D4"/>
<rect x="54.5251" y="90.7375" width="245.765" height="140.737" rx="27.8324" stroke="#4C81E6" stroke-opacity="0.2" stroke-width="1.05028"/>
</g>
<path d="M71.1088 130.698H72.2851C72.3586 131.527 72.7262 132.021 73.4509 132.021C74.1861 132.021 74.6167 131.454 74.6167 130.508V125.73H75.793V130.403C75.793 132.021 74.8898 133.008 73.4509 133.008C72.054 133.008 71.1928 132.105 71.1088 130.698ZM78.2196 129.101H77.0958C77.2743 127.862 78.1251 127.127 79.5219 127.127C81.0448 127.127 81.801 128.019 81.801 129.322V131.506C81.801 132.178 81.8641 132.567 81.9901 132.872H80.8138C80.7298 132.662 80.6982 132.367 80.6877 132.052C80.2151 132.714 79.4904 133.008 78.8182 133.008C77.6839 133.008 76.9067 132.472 76.9067 131.401C76.9067 130.634 77.3268 130.067 78.1671 129.784C78.9128 129.532 79.669 129.469 80.6772 129.458V129.332C80.6772 128.513 80.2991 128.072 79.4379 128.072C78.7132 128.072 78.3246 128.471 78.2196 129.101ZM78.041 131.359C78.041 131.832 78.4296 132.126 79.0283 132.126C79.963 132.126 80.6772 131.38 80.6772 130.477V130.225C78.5242 130.246 78.041 130.719 78.041 131.359ZM83.2102 132.872V127.274H84.334V128.019C84.7121 127.421 85.3003 127.127 86.025 127.127C87.1908 127.127 87.9155 127.809 87.9155 129.133V132.872H86.8022V129.364C86.8022 128.555 86.4451 128.061 85.6784 128.061C84.8381 128.061 84.334 128.807 84.334 129.584V132.872H83.2102ZM91.3227 130.487V129.532H94.148V130.487H91.3227ZM100.836 133.008C98.7038 133.008 97.4015 131.601 97.4015 129.311C97.4015 127.022 98.7038 125.593 100.836 125.593C102.947 125.593 104.26 127.022 104.26 129.311C104.26 131.601 102.947 133.008 100.836 133.008ZM100.836 132.021C102.233 132.021 103.062 130.992 103.062 129.311C103.062 127.62 102.233 126.58 100.836 126.58C99.439 126.58 98.5988 127.62 98.5988 129.311C98.5988 130.992 99.439 132.021 100.836 132.021ZM110.194 129.227H109.07C108.933 128.429 108.419 128.072 107.767 128.072C106.833 128.072 106.329 128.786 106.329 130.078C106.329 131.349 106.854 132.073 107.799 132.073C108.471 132.073 108.944 131.706 109.112 130.992H110.225C109.984 132.388 109.017 133.008 107.778 133.008C106.161 133.008 105.184 131.895 105.184 130.078C105.184 128.177 106.182 127.127 107.767 127.127C109.017 127.127 110.005 127.83 110.194 129.227ZM111.419 131.202V128.145H110.663V127.274H111.419V125.982H112.543V127.274H113.751V128.145H112.543V131.139C112.543 131.779 112.722 132.084 113.509 132.084H113.73V132.903C113.604 132.966 113.341 133.008 113.026 133.008C111.934 133.008 111.419 132.409 111.419 131.202Z" fill="#CECECE"/>
<path d="M71.4438 116.916V109.786H76.561V111.117H73.1216V112.858H76.1521V114.19H73.1216V116.916H71.4438ZM77.5368 116.916V109.786H79.2145V116.916H77.5368ZM80.4962 116.916V109.786H82.2683L84.5228 113.529L85.0681 114.662L84.9842 109.786H86.662V116.916H84.8898L82.6353 113.173L82.0901 112.03L82.174 116.916H80.4962ZM92.8168 116.916L92.345 115.584H89.5452L89.0733 116.916H87.3851L89.9856 109.786H91.9989L94.6099 116.916H92.8168ZM90.7301 112.239L90.0066 114.295H91.8836L91.16 112.239L90.9503 111.432L90.7301 112.239ZM95.324 116.916V109.786H97.0962L99.3507 113.529L99.8959 114.662L99.8121 109.786H101.49V116.916H99.7177L97.4632 113.173L96.9179 112.03L97.0018 116.916H95.324ZM109.134 112.071H107.372C107.173 111.369 106.669 110.991 105.956 110.991C104.876 110.991 104.258 111.893 104.258 113.361C104.258 114.84 104.866 115.71 105.956 115.71C106.628 115.71 107.152 115.354 107.351 114.682H109.134C108.767 116.255 107.498 117.084 105.977 117.084C103.849 117.084 102.538 115.668 102.538 113.361C102.538 111.054 103.849 109.618 105.998 109.618C107.529 109.618 108.83 110.446 109.134 112.071ZM110.08 116.916V109.786H111.758V116.916H110.08ZM117.916 116.916L117.444 115.584H114.644L114.172 116.916H112.484L115.084 109.786H117.098L119.709 116.916H117.916ZM115.829 112.239L115.105 114.295H116.982L116.259 112.239L116.049 111.432L115.829 112.239ZM120.423 116.916V109.786H122.101V115.553H125.236V116.916H120.423ZM128.113 116.916V109.786H130.892C132.654 109.786 133.744 110.677 133.744 112.176C133.744 113.707 132.643 114.588 130.913 114.588H129.791V116.916H128.113ZM130.861 111.117H129.791V113.256H130.819C131.637 113.256 132.014 112.826 132.014 112.187C132.014 111.537 131.616 111.117 130.861 111.117ZM134.698 116.916V109.786H136.375V115.553H139.511V116.916H134.698ZM145.288 116.916L144.816 115.584H142.016L141.544 116.916H139.856L142.457 109.786H144.47L147.081 116.916H145.288ZM143.201 112.239L142.477 114.295H144.354L143.631 112.239L143.421 111.432L143.201 112.239ZM147.795 116.916V109.786H149.567L151.822 113.529L152.367 114.662L152.283 109.786H153.961V116.916H152.189L149.934 113.173L149.389 112.03L149.473 116.916H147.795Z" fill="#D5E3A1"/>
<circle cx="85.5081" cy="208.894" r="11.5531" fill="#4270C7"/>
<rect x="107.564" y="199.441" width="107.128" height="8.40224" rx="4.20112" fill="#4270C7"/>
<rect x="107.564" y="212.045" width="61.9665" height="8.40224" rx="4.20112" fill="#4270C7"/>
<rect x="70.4891" y="149.763" width="11.133" height="11.133" rx="2.41564" stroke="#CECECE" stroke-width="0.630168"/>
<path d="M86.275 159.33V152.188H87.4513V155.181H90.9172V152.188H92.0936V159.33H90.9172V156.137H87.4513V159.33H86.275ZM93.545 153.038V151.768H94.6688V153.038H93.545ZM93.545 159.33V153.732H94.6688V159.33H93.545ZM98.0436 159.361C96.6153 159.361 95.754 158.269 95.754 156.483C95.754 154.614 96.6363 153.585 98.0436 153.585C98.7578 153.585 99.2935 153.837 99.6506 154.32V153.732H100.774V159.508C100.774 161.042 99.7556 161.787 98.4112 161.787C97.0669 161.787 96.1006 161.157 95.9011 159.855H97.0249C97.1299 160.527 97.6655 160.884 98.4007 160.884C99.1464 160.884 99.6506 160.495 99.6506 159.529V158.584C99.2725 159.099 98.7263 159.361 98.0436 159.361ZM98.2747 158.416C99.1674 158.416 99.6506 157.733 99.6506 156.473C99.6506 155.244 99.1464 154.53 98.2747 154.53C97.382 154.53 96.8988 155.212 96.8988 156.483C96.8988 157.712 97.3925 158.416 98.2747 158.416ZM102.14 159.33V151.768H103.264V154.477C103.642 153.879 104.23 153.585 104.955 153.585C106.121 153.585 106.845 154.267 106.845 155.591V159.33H105.732V155.822C105.732 155.013 105.375 154.519 104.608 154.519C103.768 154.519 103.264 155.265 103.264 156.042V159.33H102.14ZM110.358 159.33V152.188H113.036C114.58 152.188 115.556 152.986 115.556 154.246C115.556 155.055 115.189 155.622 114.548 155.937C114.968 156.158 115.199 156.546 115.357 157.187L115.893 159.33H114.653L114.223 157.418C114.034 156.599 113.718 156.441 112.931 156.441H111.534V159.33H110.358ZM113.004 153.133H111.534V155.496H112.983C113.855 155.496 114.349 155.034 114.349 154.309C114.349 153.595 113.855 153.133 113.004 153.133ZM116.889 153.038V151.768H118.013V153.038H116.889ZM116.889 159.33V153.732H118.013V159.33H116.889ZM120.264 155.202C120.264 156.63 123.845 155.433 123.845 157.712C123.845 158.773 122.89 159.466 121.535 159.466C120.18 159.466 119.224 158.836 119.014 157.502H120.138C120.253 158.206 120.779 158.594 121.566 158.594C122.322 158.594 122.722 158.258 122.722 157.786C122.722 156.389 119.193 157.565 119.193 155.265C119.193 154.393 119.875 153.585 121.293 153.585C122.543 153.585 123.467 154.162 123.646 155.559H122.522C122.396 154.771 121.955 154.477 121.241 154.477C120.621 154.477 120.264 154.782 120.264 155.202ZM124.869 159.33V151.768H125.993V156.105L128.219 153.732H129.564L127.148 156.221L129.711 159.33H128.314L125.993 156.536V159.33H124.869Z" fill="white"/>
<rect x="143.536" y="149.763" width="11.133" height="11.133" rx="2.41564" stroke="#CECECE" stroke-width="0.630168"/>
<path d="M159.322 159.33V152.188H160.908L162.925 157.135L163.166 157.891L163.408 157.135L165.403 152.188H166.947V159.33H165.771L165.803 153.543L165.288 155.076L163.555 159.33H162.715L160.971 155.065L160.467 153.574L160.499 159.33H159.322ZM170.74 159.466C169.112 159.466 168.124 158.363 168.124 156.536C168.124 154.635 169.143 153.585 170.74 153.585C172.368 153.585 173.355 154.708 173.355 156.536C173.355 158.426 172.336 159.466 170.74 159.466ZM170.74 158.521C171.695 158.521 172.21 157.828 172.21 156.536C172.21 155.255 171.685 154.53 170.74 154.53C169.794 154.53 169.269 155.233 169.269 156.536C169.269 157.807 169.794 158.521 170.74 158.521ZM176.549 159.466C175.069 159.466 174.176 158.363 174.176 156.536C174.176 154.635 175.09 153.585 176.549 153.585C177.19 153.585 177.715 153.847 178.072 154.362V151.768H179.196V159.33H178.072V158.647C177.715 159.172 177.19 159.466 176.549 159.466ZM176.697 158.521C177.589 158.521 178.072 157.828 178.072 156.536C178.072 155.255 177.568 154.53 176.697 154.53C175.804 154.53 175.321 155.244 175.321 156.536C175.321 157.807 175.825 158.521 176.697 158.521ZM185.519 157.502C185.215 158.804 184.249 159.466 182.936 159.466C181.287 159.466 180.279 158.363 180.279 156.536C180.279 154.635 181.287 153.585 182.883 153.585C184.501 153.585 185.477 154.677 185.477 156.473V156.746H181.423C181.486 157.891 182.022 158.531 182.936 158.531C183.65 158.531 184.154 158.195 184.343 157.502H185.519ZM182.883 154.519C182.075 154.519 181.591 155.034 181.455 155.979H184.312C184.175 155.034 183.681 154.519 182.883 154.519ZM186.603 159.33V153.732H187.727V154.561C188.094 153.889 188.672 153.585 189.323 153.585C189.544 153.585 189.754 153.637 189.859 153.732V154.719C189.691 154.666 189.491 154.645 189.26 154.645C188.189 154.645 187.727 155.297 187.727 156.273V159.33H186.603ZM191.602 155.559H190.479C190.657 154.32 191.508 153.585 192.905 153.585C194.428 153.585 195.184 154.477 195.184 155.78V157.964C195.184 158.636 195.247 159.025 195.373 159.33H194.197C194.113 159.12 194.081 158.825 194.071 158.51C193.598 159.172 192.873 159.466 192.201 159.466C191.067 159.466 190.29 158.93 190.29 157.859C190.29 157.092 190.71 156.525 191.55 156.242C192.296 155.99 193.052 155.927 194.06 155.916V155.79C194.06 154.971 193.682 154.53 192.821 154.53C192.096 154.53 191.707 154.929 191.602 155.559ZM191.424 157.817C191.424 158.29 191.812 158.584 192.411 158.584C193.346 158.584 194.06 157.838 194.06 156.935V156.683C191.907 156.704 191.424 157.177 191.424 157.817ZM196.74 157.66V154.603H195.984V153.732H196.74V152.44H197.864V153.732H199.072V154.603H197.864V157.597C197.864 158.237 198.042 158.542 198.83 158.542H199.051V159.361C198.925 159.424 198.662 159.466 198.347 159.466C197.255 159.466 196.74 158.867 196.74 157.66ZM204.884 157.502C204.579 158.804 203.613 159.466 202.3 159.466C200.651 159.466 199.643 158.363 199.643 156.536C199.643 154.635 200.651 153.585 202.248 153.585C203.865 153.585 204.842 154.677 204.842 156.473V156.746H200.788C200.851 157.891 201.387 158.531 202.3 158.531C203.014 158.531 203.519 158.195 203.708 157.502H204.884ZM202.248 154.519C201.439 154.519 200.956 155.034 200.819 155.979H203.676C203.54 155.034 203.046 154.519 202.248 154.519Z" fill="white"/>
<rect x="218.584" y="149.763" width="11.133" height="11.133" rx="2.41564" stroke="#CECECE" stroke-width="0.630168"/>
<path d="M234.37 159.33V152.188H235.547V158.374H239.002V159.33H234.37ZM242.341 159.466C240.713 159.466 239.726 158.363 239.726 156.536C239.726 154.635 240.745 153.585 242.341 153.585C243.969 153.585 244.956 154.708 244.956 156.536C244.956 158.426 243.938 159.466 242.341 159.466ZM242.341 158.521C243.297 158.521 243.812 157.828 243.812 156.536C243.812 155.255 243.287 154.53 242.341 154.53C241.396 154.53 240.871 155.233 240.871 156.536C240.871 157.807 241.396 158.521 242.341 158.521ZM250.863 159.33L249.75 155.349L249.634 154.719L249.508 155.349L248.395 159.33H247.008L245.391 153.732H246.599L247.628 157.891L247.764 158.521L247.912 157.891L249.088 153.732H250.275L251.461 157.891L251.588 158.489L251.714 157.891L252.743 153.732H253.898L252.27 159.33H250.863Z" fill="white"/>
<path d="M144.489 154.846C145.745 155.046 146.904 155.324 148.023 155.946C148.568 156.248 148.834 156.812 149.412 157.059C149.735 157.198 149.856 157.515 150.182 157.678C150.866 158.02 152.118 156.026 152.478 155.671C154.138 154.036 156.001 152.554 157.552 150.831C157.644 150.728 158.102 149.791 158.102 150.143" stroke="#262626" stroke-width="1.2" stroke-linecap="round"/>
</g>
<defs>
<filter id="filter0_b_887_1145" x="-4" y="-4" width="363" height="432" filterUnits="userSpaceOnUse" color-interpolation-filters="sRGB">
<feFlood flood-opacity="0" result="BackgroundImageFix"/>
<feGaussianBlur in="BackgroundImageFix" stdDeviation="2"/>
<feComposite in2="SourceAlpha" operator="in" result="effect1_backgroundBlur_887_1145"/>
<feBlend mode="normal" in="SourceGraphic" in2="effect1_backgroundBlur_887_1145" result="shape"/>
</filter>
<filter id="filter1_d_887_1145" x="61.2065" y="51.2067" width="231.352" height="75.9106" filterUnits="userSpaceOnUse" color-interpolation-filters="sRGB">
<feFlood flood-opacity="0" result="BackgroundImageFix"/>
<feColorMatrix in="SourceAlpha" type="matrix" values="0 0 0 0 0 0 0 0 0 0 0 0 0 0 0 0 0 0 127 0" result="hardAlpha"/>
<feOffset dy="-8.40224"/>
<feGaussianBlur stdDeviation="9"/>
<feComposite in2="hardAlpha" operator="out"/>
<feColorMatrix type="matrix" values="0 0 0 0 0 0 0 0 0 0 0 0 0 0 0 0 0 0 0.2 0"/>
<feBlend mode="normal" in2="BackgroundImageFix" result="effect1_dropShadow_887_1145"/>
<feBlend mode="normal" in="SourceGraphic" in2="effect1_dropShadow_887_1145" result="shape"/>
</filter>
<filter id="filter2_d_887_1145" x="50" y="84.2124" width="254.815" height="149.788" filterUnits="userSpaceOnUse" color-interpolation-filters="sRGB">
<feFlood flood-opacity="0" result="BackgroundImageFix"/>
<feColorMatrix in="SourceAlpha" type="matrix" values="0 0 0 0 0 0 0 0 0 0 0 0 0 0 0 0 0 0 127 0" result="hardAlpha"/>
<feOffset dy="-2"/>
<feGaussianBlur stdDeviation="2"/>
<feComposite in2="hardAlpha" operator="out"/>
<feColorMatrix type="matrix" values="0 0 0 0 0 0 0 0 0 0 0 0 0 0 0 0 0 0 0.1 0"/>
<feBlend mode="normal" in2="BackgroundImageFix" result="effect1_dropShadow_887_1145"/>
<feBlend mode="normal" in="SourceGraphic" in2="effect1_dropShadow_887_1145" result="shape"/>
</filter>
</defs>
</svg>
