<svg width="400" height="450" viewBox="0 0 400 450" fill="none" xmlns="http://www.w3.org/2000/svg">
<rect width="400" height="450" rx="24" fill="#F8FAFC"/>
<rect x="34.5" y="34.5" width="35" height="35" rx="17.5" fill="#D5E3A1"/>
<path d="M55.1938 59.875H52.35V56.8781H45.8313V54.3844L52.6563 45.8094H55.1938V54.7344H57.0313V56.8781H55.1938V59.875ZM48.0844 54.7344H52.35V49.1781L48.0844 54.7344Z" fill="black"/>
<path d="M23.407 361V346.72H28.993C32.206 346.72 34.201 348.337 34.201 350.941C34.201 352.537 33.508 353.65 32.29 354.301C33.025 354.763 33.466 355.519 33.76 356.695L34.831 361H31.891L31.051 357.22C30.715 355.75 30.169 355.456 28.762 355.456H26.242V361H23.407ZM28.93 348.967H26.242V353.23H28.867C30.463 353.23 31.303 352.39 31.303 351.088C31.303 349.807 30.442 348.967 28.93 348.967ZM46.8996 357.325C46.2906 359.929 44.2746 361.315 41.5866 361.315C38.1846 361.315 36.1056 359.068 36.1056 355.393C36.1056 351.571 38.2056 349.429 41.4816 349.429C44.7786 349.429 46.8156 351.655 46.8156 355.288V355.918H38.8776C39.0036 357.976 39.9486 359.11 41.5866 359.11C42.8466 359.11 43.7076 358.522 44.0646 357.325H46.8996ZM41.4816 351.634C40.0536 351.634 39.1926 352.537 38.9406 354.238H44.0016C43.7496 352.558 42.8886 351.634 41.4816 351.634ZM58.5768 353.734H55.8888C55.6368 352.264 54.7548 351.655 53.6208 351.655C51.9618 351.655 51.0798 352.978 51.0798 355.393C51.0798 357.766 52.0038 359.089 53.7048 359.089C54.8598 359.089 55.6788 358.459 55.9518 357.178H58.6608C58.1568 359.992 56.1828 361.315 53.6418 361.315C50.3238 361.315 48.3078 359.047 48.3078 355.393C48.3078 351.571 50.3868 349.429 53.6208 349.429C56.1828 349.429 58.1987 350.857 58.5768 353.734ZM70.7912 357.325C70.1822 359.929 68.1662 361.315 65.4782 361.315C62.0762 361.315 59.9972 359.068 59.9972 355.393C59.9972 351.571 62.0972 349.429 65.3732 349.429C68.6702 349.429 70.7072 351.655 70.7072 355.288V355.918H62.7692C62.8952 357.976 63.8402 359.11 65.4782 359.11C66.7382 359.11 67.5992 358.522 67.9562 357.325H70.7912ZM65.3732 351.634C63.9452 351.634 63.0842 352.537 62.8322 354.238H67.8932C67.6412 352.558 66.7802 351.634 65.3732 351.634ZM72.7244 348.484V345.88H75.4124V348.484H72.7244ZM72.7244 361V349.744H75.4124V361H72.7244ZM80.7488 361L76.6958 349.744H79.5938L82.1978 357.682L82.4918 358.9L82.7648 357.682L85.3688 349.744H88.1198L84.0668 361H80.7488ZM99.5637 357.325C98.9547 359.929 96.9387 361.315 94.2507 361.315C90.8487 361.315 88.7697 359.068 88.7697 355.393C88.7697 351.571 90.8697 349.429 94.1457 349.429C97.4427 349.429 99.4797 351.655 99.4797 355.288V355.918H91.5417C91.6677 357.976 92.6127 359.11 94.2507 359.11C95.5107 359.11 96.3717 358.522 96.7287 357.325H99.5637ZM94.1457 351.634C92.7177 351.634 91.8567 352.537 91.6047 354.238H96.6657C96.4137 352.558 95.5527 351.634 94.1457 351.634ZM109.075 361V355.918L104.077 346.72H107.248L109.957 351.97L110.566 353.503L111.175 351.97L113.884 346.72H116.887L111.889 355.918V361H109.075ZM121.77 361.315C118.431 361.315 116.373 359.068 116.373 355.393C116.373 351.571 118.494 349.429 121.77 349.429C125.088 349.429 127.146 351.697 127.146 355.393C127.146 359.173 125.025 361.315 121.77 361.315ZM121.77 359.089C123.471 359.089 124.374 357.787 124.374 355.393C124.374 352.999 123.45 351.655 121.77 351.655C120.048 351.655 119.145 352.978 119.145 355.393C119.145 357.766 120.069 359.089 121.77 359.089ZM136.093 356.275V349.744H138.781V361H136.093V359.488C135.358 360.727 134.203 361.315 132.817 361.315C130.591 361.315 129.1 359.971 129.1 357.262V349.744H131.788V356.716C131.788 358.249 132.418 359.089 133.741 359.089C135.19 359.089 136.093 357.787 136.093 356.275ZM141.261 361V349.744H143.949V351.382C144.684 350.038 145.818 349.429 147.036 349.429C147.498 349.429 147.918 349.555 148.128 349.744V352.075C147.771 351.97 147.372 351.928 146.889 351.928C144.852 351.928 143.949 353.146 143.949 355.015V361H141.261ZM153.755 361V346.72H159.341C162.554 346.72 164.549 348.337 164.549 350.941C164.549 352.537 163.856 353.65 162.638 354.301C163.373 354.763 163.814 355.519 164.108 356.695L165.179 361H162.239L161.399 357.22C161.063 355.75 160.517 355.456 159.11 355.456H156.59V361H153.755ZM159.278 348.967H156.59V353.23H159.215C160.811 353.23 161.651 352.39 161.651 351.088C161.651 349.807 160.79 348.967 159.278 348.967ZM177.247 357.325C176.638 359.929 174.622 361.315 171.934 361.315C168.532 361.315 166.453 359.068 166.453 355.393C166.453 351.571 168.553 349.429 171.829 349.429C175.126 349.429 177.163 351.655 177.163 355.288V355.918H169.225C169.351 357.976 170.296 359.11 171.934 359.11C173.194 359.11 174.055 358.522 174.412 357.325H177.247ZM171.829 351.634C170.401 351.634 169.54 352.537 169.288 354.238H174.349C174.097 352.558 173.236 351.634 171.829 351.634ZM179.537 357.493V351.823H178.088V349.744H179.537V347.161H182.225V349.744H184.598V351.823H182.225V357.262C182.225 358.438 182.561 359.068 184.052 359.068H184.556V361.042C184.262 361.189 183.653 361.315 182.918 361.315C180.629 361.315 179.537 360.013 179.537 357.493ZM193.167 356.275V349.744H195.855V361H193.167V359.488C192.432 360.727 191.277 361.315 189.891 361.315C187.665 361.315 186.174 359.971 186.174 357.262V349.744H188.862V356.716C188.862 358.249 189.492 359.089 190.815 359.089C192.264 359.089 193.167 357.787 193.167 356.275ZM198.335 361V349.744H201.023V351.382C201.758 350.038 202.892 349.429 204.11 349.429C204.572 349.429 204.992 349.555 205.202 349.744V352.075C204.845 351.97 204.446 351.928 203.963 351.928C201.926 351.928 201.023 353.146 201.023 355.015V361H198.335ZM206.62 361V349.744H209.308V351.256C210.043 350.038 211.219 349.429 212.647 349.429C214.894 349.429 216.427 350.773 216.427 353.503V361H213.739V354.049C213.739 352.516 213.088 351.655 211.723 351.655C210.232 351.655 209.308 352.957 209.308 354.469V361H206.62ZM221.151 352.768C221.151 355.351 228.249 353.167 228.249 357.682C228.249 359.845 226.254 361.315 223.44 361.315C220.668 361.315 218.673 360.034 218.274 357.325H220.962C221.151 358.543 222.117 359.236 223.524 359.236C224.847 359.236 225.54 358.669 225.54 357.85C225.54 355.33 218.589 357.493 218.589 352.936C218.589 351.109 220.017 349.429 222.957 349.429C225.54 349.429 227.493 350.647 227.829 353.44H225.141C224.931 352.075 224.133 351.529 222.852 351.529C221.781 351.529 221.151 352.054 221.151 352.768ZM243.607 361L242.515 358.039H236.425L235.333 361H232.498L237.874 346.72H241.213L246.589 361H243.607ZM239.05 350.962L237.244 355.855H241.696L239.89 350.962L239.47 349.492L239.05 350.962ZM250.026 352.768C250.026 355.351 257.124 353.167 257.124 357.682C257.124 359.845 255.129 361.315 252.315 361.315C249.543 361.315 247.548 360.034 247.149 357.325H249.837C250.026 358.543 250.992 359.236 252.399 359.236C253.722 359.236 254.415 358.669 254.415 357.85C254.415 355.33 247.464 357.493 247.464 352.936C247.464 351.109 248.892 349.429 251.832 349.429C254.415 349.429 256.368 350.647 256.704 353.44H254.016C253.806 352.075 253.008 351.529 251.727 351.529C250.656 351.529 250.026 352.054 250.026 352.768ZM263.164 361V346.72H268.477C271.9 346.72 274.021 348.484 274.021 351.403C274.021 354.406 271.879 356.128 268.519 356.128H265.999V361H263.164ZM268.435 348.967H265.999V353.881H268.372C270.178 353.881 271.123 352.915 271.123 351.424C271.123 349.933 270.157 348.967 268.435 348.967ZM275.977 361V349.744H278.665V351.382C279.4 350.038 280.534 349.429 281.752 349.429C282.214 349.429 282.634 349.555 282.844 349.744V352.075C282.487 351.97 282.088 351.928 281.605 351.928C279.568 351.928 278.665 353.146 278.665 355.015V361H275.977ZM288.929 361.315C285.59 361.315 283.532 359.068 283.532 355.393C283.532 351.571 285.653 349.429 288.929 349.429C292.247 349.429 294.305 351.697 294.305 355.393C294.305 359.173 292.184 361.315 288.929 361.315ZM288.929 359.089C290.63 359.089 291.533 357.787 291.533 355.393C291.533 352.999 290.609 351.655 288.929 351.655C287.207 351.655 286.304 352.978 286.304 355.393C286.304 357.766 287.228 359.089 288.929 359.089ZM296.26 361V349.744H298.948V351.193C299.662 350.017 300.754 349.429 302.077 349.429C303.505 349.429 304.618 350.059 305.185 351.34C305.941 350.059 307.138 349.429 308.587 349.429C310.75 349.429 312.22 350.773 312.22 353.503V361H309.532V354.049C309.532 352.516 308.965 351.655 307.768 351.655C306.424 351.655 305.584 352.957 305.584 354.469V361H302.896V354.049C302.896 352.516 302.329 351.655 301.132 351.655C299.788 351.655 298.948 352.957 298.948 354.469V361H296.26ZM314.696 348.484V345.88H317.384V348.484H314.696ZM314.696 361V349.744H317.384V361H314.696ZM322.09 352.768C322.09 355.351 329.188 353.167 329.188 357.682C329.188 359.845 327.193 361.315 324.379 361.315C321.607 361.315 319.612 360.034 319.213 357.325H321.901C322.09 358.543 323.056 359.236 324.463 359.236C325.786 359.236 326.479 358.669 326.479 357.85C326.479 355.33 319.528 357.493 319.528 352.936C319.528 351.109 320.956 349.429 323.896 349.429C326.479 349.429 328.432 350.647 328.768 353.44H326.08C325.87 352.075 325.072 351.529 323.791 351.529C322.72 351.529 322.09 352.054 322.09 352.768ZM341.289 357.325C340.68 359.929 338.664 361.315 335.976 361.315C332.574 361.315 330.495 359.068 330.495 355.393C330.495 351.571 332.595 349.429 335.871 349.429C339.168 349.429 341.205 351.655 341.205 355.288V355.918H333.267C333.393 357.976 334.338 359.11 335.976 359.11C337.236 359.11 338.097 358.522 338.454 357.325H341.289ZM335.871 351.634C334.443 351.634 333.582 352.537 333.33 354.238H338.391C338.139 352.558 337.278 351.634 335.871 351.634ZM347.443 361.315C344.503 361.315 342.697 359.068 342.697 355.393C342.697 351.571 344.545 349.429 347.443 349.429C348.682 349.429 349.711 349.954 350.404 350.962V345.88H353.092V361H350.404V359.719C349.69 360.748 348.682 361.315 347.443 361.315ZM347.926 359.089C349.543 359.089 350.404 357.787 350.404 355.393C350.404 352.999 349.501 351.655 347.926 351.655C346.33 351.655 345.469 352.978 345.469 355.393C345.469 357.766 346.351 359.089 347.926 359.089Z" fill="#262626"/>
<path d="M23.092 390V380.48H29.546V381.53H24.38V384.54H29.028V385.59H24.38V388.95H29.546V390H23.092ZM31.1421 390V382.566H32.3741V383.574C32.8781 382.79 33.6901 382.384 34.6701 382.384C36.2521 382.384 37.1901 383.308 37.1901 385.03V390H35.9581V385.282C35.9581 384.162 35.4541 383.434 34.3341 383.434C33.1021 383.434 32.3741 384.54 32.3741 385.604V390H31.1421ZM39.1538 381.572V379.92H40.3858V381.572H39.1538ZM40.3858 390.952C40.3858 392.52 39.7418 393.262 38.3698 393.262C38.0618 393.262 37.8098 393.206 37.6838 393.15V392.268H37.8098C38.8878 392.268 39.1538 391.848 39.1538 390.952V382.566H40.3858V390.952ZM45.3634 390.168C43.2354 390.168 41.9614 388.712 41.9614 386.29C41.9614 383.77 43.2774 382.384 45.3634 382.384C47.4914 382.384 48.7654 383.868 48.7654 386.29C48.7654 388.796 47.4494 390.168 45.3634 390.168ZM45.3634 389.104C46.7494 389.104 47.5054 388.11 47.5054 386.29C47.5054 384.484 46.7354 383.448 45.3634 383.448C43.9774 383.448 43.2214 384.456 43.2214 386.29C43.2214 388.082 43.9914 389.104 45.3634 389.104ZM50.482 393.248C50.202 393.248 49.908 393.178 49.754 393.136V392.184H50.132C51.042 392.184 51.294 392.002 52.022 390.336L52.274 389.762L49.236 382.566H50.566L52.582 387.48L52.918 388.474L53.254 387.48L55.214 382.566H56.474L53.002 390.98C52.26 392.772 51.77 393.248 50.482 393.248ZM60.4996 387.858V383.546H59.4636V382.566H60.4996V380.858H61.7316V382.566H63.3696V383.546H61.7316V387.858C61.7316 388.754 61.9976 389.174 63.0896 389.174H63.3416V390.056C63.2016 390.126 62.8936 390.168 62.5436 390.168C61.1576 390.168 60.4996 389.426 60.4996 387.858ZM64.5425 390V379.92H65.7745V383.574C66.2785 382.79 67.0905 382.384 68.0705 382.384C69.6525 382.384 70.5905 383.308 70.5905 385.03V390H69.3585V385.282C69.3585 384.162 68.8545 383.434 67.7345 383.434C66.5025 383.434 65.7745 384.54 65.7745 385.604V390H64.5425ZM78.9802 387.578C78.5742 389.314 77.3282 390.168 75.6342 390.168C73.4782 390.168 72.1762 388.712 72.1762 386.29C72.1762 383.77 73.4782 382.384 75.5642 382.384C77.6642 382.384 78.9242 383.826 78.9242 386.192V386.5H73.4362C73.5062 388.166 74.2902 389.104 75.6342 389.104C76.6842 389.104 77.4262 388.6 77.6922 387.578H78.9802ZM75.5642 383.448C74.3742 383.448 73.6602 384.19 73.4782 385.576H77.6362C77.4682 384.204 76.7262 383.448 75.5642 383.448ZM83.3687 390V382.566H84.6007V383.714C85.1047 382.804 85.9027 382.384 86.7987 382.384C87.0927 382.384 87.3587 382.454 87.4987 382.566V383.672C87.2887 383.602 87.0227 383.574 86.7287 383.574C85.2447 383.574 84.6007 384.498 84.6007 385.842V390H83.3687ZM94.8806 387.578C94.4746 389.314 93.2286 390.168 91.5346 390.168C89.3786 390.168 88.0766 388.712 88.0766 386.29C88.0766 383.77 89.3786 382.384 91.4646 382.384C93.5646 382.384 94.8246 383.826 94.8246 386.192V386.5H89.3366C89.4066 388.166 90.1906 389.104 91.5346 389.104C92.5846 389.104 93.3266 388.6 93.5926 387.578H94.8806ZM91.4646 383.448C90.2746 383.448 89.5606 384.19 89.3786 385.576H93.5366C93.3686 384.204 92.6266 383.448 91.4646 383.448ZM97.3763 384.47C97.3763 386.542 102.206 384.834 102.206 387.9C102.206 389.286 100.974 390.168 99.2243 390.168C97.4603 390.168 96.2283 389.328 95.9483 387.578H97.1803C97.3483 388.614 98.1183 389.188 99.2663 389.188C100.386 389.188 100.974 388.684 100.974 387.984C100.974 385.954 96.2003 387.634 96.2003 384.554C96.2003 383.42 97.0823 382.384 98.9023 382.384C100.512 382.384 101.702 383.14 101.94 384.988H100.708C100.526 383.826 99.8823 383.392 98.8323 383.392C97.9083 383.392 97.3763 383.854 97.3763 384.47ZM108.403 386.962V382.566H109.635V390H108.403V388.992C107.899 389.776 107.115 390.168 106.149 390.168C104.595 390.168 103.671 389.258 103.671 387.536V382.566H104.903V387.284C104.903 388.404 105.393 389.118 106.485 389.118C107.689 389.118 108.403 388.026 108.403 386.962ZM111.601 390V379.92H112.833V390H111.601ZM114.955 387.858V383.546H113.919V382.566H114.955V380.858H116.187V382.566H117.825V383.546H116.187V387.858C116.187 388.754 116.453 389.174 117.545 389.174H117.797V390.056C117.657 390.126 117.349 390.168 116.999 390.168C115.613 390.168 114.955 389.426 114.955 387.858ZM119.908 384.47C119.908 386.542 124.738 384.834 124.738 387.9C124.738 389.286 123.506 390.168 121.756 390.168C119.992 390.168 118.76 389.328 118.48 387.578H119.712C119.88 388.614 120.65 389.188 121.798 389.188C122.918 389.188 123.506 388.684 123.506 387.984C123.506 385.954 118.732 387.634 118.732 384.554C118.732 383.42 119.614 382.384 121.434 382.384C123.044 382.384 124.234 383.14 124.472 384.988H123.24C123.058 383.826 122.414 383.392 121.364 383.392C120.44 383.392 119.908 383.854 119.908 384.47ZM132.029 390.168C129.901 390.168 128.627 388.712 128.627 386.29C128.627 383.77 129.943 382.384 132.029 382.384C134.157 382.384 135.431 383.868 135.431 386.29C135.431 388.796 134.115 390.168 132.029 390.168ZM132.029 389.104C133.415 389.104 134.171 388.11 134.171 386.29C134.171 384.484 133.401 383.448 132.029 383.448C130.643 383.448 129.887 384.456 129.887 386.29C129.887 388.082 130.657 389.104 132.029 389.104ZM136.107 383.546V382.566H137.143V382.062C137.143 380.494 137.787 379.752 139.159 379.752C139.467 379.752 139.719 379.808 139.845 379.864V380.746H139.719C138.641 380.746 138.375 381.166 138.375 382.062V382.566H139.845V383.546H138.375V390H137.143V383.546H136.107ZM143.97 393.248C143.69 393.248 143.396 393.178 143.242 393.136V392.184H143.62C144.53 392.184 144.782 392.002 145.51 390.336L145.762 389.762L142.724 382.566H144.054L146.07 387.48L146.406 388.474L146.742 387.48L148.702 382.566H149.962L146.49 390.98C145.748 392.772 145.258 393.248 143.97 393.248ZM153.973 390.168C151.845 390.168 150.571 388.712 150.571 386.29C150.571 383.77 151.887 382.384 153.973 382.384C156.101 382.384 157.375 383.868 157.375 386.29C157.375 388.796 156.059 390.168 153.973 390.168ZM153.973 389.104C155.359 389.104 156.115 388.11 156.115 386.29C156.115 384.484 155.345 383.448 153.973 383.448C152.587 383.448 151.831 384.456 151.831 386.29C151.831 388.082 152.601 389.104 153.973 389.104ZM163.692 386.962V382.566H164.924V390H163.692V388.992C163.188 389.776 162.404 390.168 161.438 390.168C159.884 390.168 158.96 389.258 158.96 387.536V382.566H160.192V387.284C160.192 388.404 160.682 389.118 161.774 389.118C162.978 389.118 163.692 388.026 163.692 386.962ZM166.89 390V382.566H168.122V383.714C168.626 382.804 169.424 382.384 170.32 382.384C170.614 382.384 170.88 382.454 171.02 382.566V383.672C170.81 383.602 170.544 383.574 170.25 383.574C168.766 383.574 168.122 384.498 168.122 385.842V390H166.89ZM174.916 381.572V379.92H176.148V381.572H174.916ZM174.916 390V382.566H176.148V390H174.916ZM178.101 390V382.566H179.333V383.574C179.837 382.79 180.649 382.384 181.629 382.384C183.211 382.384 184.149 383.308 184.149 385.03V390H182.917V385.282C182.917 384.162 182.413 383.434 181.293 383.434C180.061 383.434 179.333 384.54 179.333 385.604V390H178.101ZM187.701 390L184.929 382.566H186.259L188.317 388.334L188.499 388.978L188.681 388.334L190.739 382.566H191.985L189.213 390H187.701ZM199.457 387.578C199.051 389.314 197.805 390.168 196.111 390.168C193.955 390.168 192.653 388.712 192.653 386.29C192.653 383.77 193.955 382.384 196.041 382.384C198.141 382.384 199.401 383.826 199.401 386.192V386.5H193.913C193.983 388.166 194.767 389.104 196.111 389.104C197.161 389.104 197.903 388.6 198.169 387.578H199.457ZM196.041 383.448C194.851 383.448 194.137 384.19 193.955 385.576H198.113C197.945 384.204 197.203 383.448 196.041 383.448ZM201.953 384.47C201.953 386.542 206.783 384.834 206.783 387.9C206.783 389.286 205.551 390.168 203.801 390.168C202.037 390.168 200.805 389.328 200.524 387.578H201.757C201.925 388.614 202.695 389.188 203.843 389.188C204.963 389.188 205.551 388.684 205.551 387.984C205.551 385.954 200.777 387.634 200.777 384.554C200.777 383.42 201.659 382.384 203.479 382.384C205.089 382.384 206.279 383.14 206.517 384.988H205.285C205.103 383.826 204.459 383.392 203.409 383.392C202.485 383.392 201.953 383.854 201.953 384.47ZM208.416 387.858V383.546H207.38V382.566H208.416V380.858H209.648V382.566H211.286V383.546H209.648V387.858C209.648 388.754 209.914 389.174 211.006 389.174H211.258V390.056C211.118 390.126 210.81 390.168 210.46 390.168C209.074 390.168 208.416 389.426 208.416 387.858ZM212.459 390V382.566H213.691V383.518C214.167 382.762 214.909 382.384 215.819 382.384C216.841 382.384 217.583 382.832 217.933 383.7C218.423 382.832 219.235 382.384 220.229 382.384C221.741 382.384 222.651 383.308 222.651 385.03V390H221.419V385.282C221.419 384.162 220.971 383.434 219.963 383.434C218.843 383.434 218.171 384.54 218.171 385.604V390H216.939V385.282C216.939 384.162 216.491 383.434 215.483 383.434C214.363 383.434 213.691 384.54 213.691 385.604V390H212.459ZM231.039 387.578C230.633 389.314 229.387 390.168 227.693 390.168C225.537 390.168 224.235 388.712 224.235 386.29C224.235 383.77 225.537 382.384 227.623 382.384C229.723 382.384 230.983 383.826 230.983 386.192V386.5H225.495C225.565 388.166 226.349 389.104 227.693 389.104C228.743 389.104 229.485 388.6 229.751 387.578H231.039ZM227.623 383.448C226.433 383.448 225.719 384.19 225.537 385.576H229.695C229.527 384.204 228.785 383.448 227.623 383.448ZM232.625 390V382.566H233.857V383.574C234.361 382.79 235.173 382.384 236.153 382.384C237.735 382.384 238.673 383.308 238.673 385.03V390H237.441V385.282C237.441 384.162 236.937 383.434 235.817 383.434C234.585 383.434 233.857 384.54 233.857 385.604V390H232.625ZM240.804 387.858V383.546H239.768V382.566H240.804V380.858H242.036V382.566H243.674V383.546H242.036V387.858C242.036 388.754 242.302 389.174 243.394 389.174H243.646V390.056C243.506 390.126 243.198 390.168 242.848 390.168C241.462 390.168 240.804 389.426 240.804 387.858ZM254.09 390L252.48 384.442L252.312 383.602L252.144 384.442L250.548 390H249.022L246.81 382.566H248.14L249.666 388.334L249.848 389.09L250.03 388.334L251.724 382.566H253.054L254.748 388.334L254.916 389.062L255.07 388.334L256.596 382.566H257.87L255.644 390H254.09ZM258.984 381.572V379.92H260.216V381.572H258.984ZM258.984 390V382.566H260.216V390H258.984ZM262.337 387.858V383.546H261.301V382.566H262.337V380.858H263.569V382.566H265.207V383.546H263.569V387.858C263.569 388.754 263.835 389.174 264.927 389.174H265.179V390.056C265.039 390.126 264.731 390.168 264.381 390.168C262.995 390.168 262.337 389.426 262.337 387.858ZM266.38 390V379.92H267.612V383.574C268.116 382.79 268.928 382.384 269.908 382.384C271.49 382.384 272.428 383.308 272.428 385.03V390H271.196V385.282C271.196 384.162 270.692 383.434 269.572 383.434C268.34 383.434 267.612 384.54 267.612 385.604V390H266.38ZM283.341 385.128H282.109C281.913 383.994 281.157 383.448 280.177 383.448C278.805 383.448 278.077 384.456 278.077 386.29C278.077 388.096 278.847 389.118 280.219 389.118C281.213 389.118 281.927 388.586 282.165 387.522H283.397C283.061 389.37 281.815 390.168 280.191 390.168C278.077 390.168 276.817 388.698 276.817 386.29C276.817 383.77 278.105 382.384 280.177 382.384C281.815 382.384 283.103 383.308 283.341 385.128ZM287.943 390.168C285.815 390.168 284.541 388.712 284.541 386.29C284.541 383.77 285.857 382.384 287.943 382.384C290.071 382.384 291.345 383.868 291.345 386.29C291.345 388.796 290.029 390.168 287.943 390.168ZM287.943 389.104C289.329 389.104 290.085 388.11 290.085 386.29C290.085 384.484 289.315 383.448 287.943 383.448C286.557 383.448 285.801 384.456 285.801 386.29C285.801 388.082 286.571 389.104 287.943 389.104ZM292.931 390V382.566H294.163V383.518C294.639 382.762 295.381 382.384 296.291 382.384C297.313 382.384 298.055 382.832 298.405 383.7C298.895 382.832 299.707 382.384 300.701 382.384C302.213 382.384 303.123 383.308 303.123 385.03V390H301.891V385.282C301.891 384.162 301.443 383.434 300.435 383.434C299.315 383.434 298.643 384.54 298.643 385.604V390H297.411V385.282C297.411 384.162 296.963 383.434 295.955 383.434C294.835 383.434 294.163 384.54 294.163 385.604V390H292.931ZM306.331 393.08H305.099V382.566H306.331V383.49C306.821 382.79 307.535 382.384 308.417 382.384C310.391 382.384 311.581 383.84 311.581 386.262C311.581 388.782 310.363 390.168 308.417 390.168C307.535 390.168 306.821 389.804 306.331 389.118V393.08ZM308.333 383.448C307.031 383.448 306.331 384.442 306.331 386.262C306.331 388.068 307.059 389.104 308.333 389.104C309.621 389.104 310.321 388.096 310.321 386.262C310.321 384.47 309.593 383.448 308.333 383.448ZM319.592 387.578C319.186 389.314 317.94 390.168 316.246 390.168C314.09 390.168 312.788 388.712 312.788 386.29C312.788 383.77 314.09 382.384 316.176 382.384C318.276 382.384 319.536 383.826 319.536 386.192V386.5H314.048C314.118 388.166 314.902 389.104 316.246 389.104C317.296 389.104 318.038 388.6 318.304 387.578H319.592ZM316.176 383.448C314.986 383.448 314.272 384.19 314.09 385.576H318.248C318.08 384.204 317.338 383.448 316.176 383.448ZM321.345 387.858V383.546H320.309V382.566H321.345V380.858H322.577V382.566H324.215V383.546H322.577V387.858C322.577 388.754 322.843 389.174 323.935 389.174H324.187V390.056C324.047 390.126 323.739 390.168 323.389 390.168C322.003 390.168 321.345 389.426 321.345 387.858ZM325.388 381.572V379.92H326.62V381.572H325.388ZM325.388 390V382.566H326.62V390H325.388ZM328.742 387.858V383.546H327.706V382.566H328.742V380.858H329.974V382.566H331.612V383.546H329.974V387.858C329.974 388.754 330.24 389.174 331.332 389.174H331.584V390.056C331.444 390.126 331.136 390.168 330.786 390.168C329.4 390.168 328.742 389.426 328.742 387.858ZM332.785 381.572V379.92H334.017V381.572H332.785ZM332.785 390V382.566H334.017V390H332.785ZM337.832 390L335.06 382.566H336.39L338.448 388.334L338.63 388.978L338.812 388.334L340.87 382.566H342.116L339.344 390H337.832ZM349.588 387.578C349.182 389.314 347.936 390.168 346.242 390.168C344.086 390.168 342.784 388.712 342.784 386.29C342.784 383.77 344.086 382.384 346.172 382.384C348.272 382.384 349.532 383.826 349.532 386.192V386.5H344.044C344.114 388.166 344.898 389.104 346.242 389.104C347.292 389.104 348.034 388.6 348.3 387.578H349.588ZM346.172 383.448C344.982 383.448 344.268 384.19 344.086 385.576H348.244C348.076 384.204 347.334 383.448 346.172 383.448ZM22.98 412V404.566H24.212V405.714C24.716 404.804 25.514 404.384 26.41 404.384C26.704 404.384 26.97 404.454 27.11 404.566V405.672C26.9 405.602 26.634 405.574 26.34 405.574C24.856 405.574 24.212 406.498 24.212 407.842V412H22.98ZM34.4919 409.578C34.0859 411.314 32.8399 412.168 31.1459 412.168C28.9899 412.168 27.6879 410.712 27.6879 408.29C27.6879 405.77 28.9899 404.384 31.0759 404.384C33.1759 404.384 34.4359 405.826 34.4359 408.192V408.5H28.9479C29.0179 410.166 29.8019 411.104 31.1459 411.104C32.1959 411.104 32.9379 410.6 33.2039 409.578H34.4919ZM31.0759 405.448C29.8859 405.448 29.1719 406.19 28.9899 407.576H33.1479C32.9799 406.204 32.2379 405.448 31.0759 405.448ZM36.2457 409.858V405.546H35.2097V404.566H36.2457V402.858H37.4777V404.566H39.1157V405.546H37.4777V409.858C37.4777 410.754 37.7437 411.174 38.8357 411.174H39.0877V412.056C38.9477 412.126 38.6397 412.168 38.2897 412.168C36.9037 412.168 36.2457 411.426 36.2457 409.858ZM45.0206 408.962V404.566H46.2526V412H45.0206V410.992C44.5166 411.776 43.7326 412.168 42.7666 412.168C41.2126 412.168 40.2886 411.258 40.2886 409.536V404.566H41.5206V409.284C41.5206 410.404 42.0106 411.118 43.1026 411.118C44.3066 411.118 45.0206 410.026 45.0206 408.962ZM48.2183 412V404.566H49.4503V405.714C49.9543 404.804 50.7523 404.384 51.6483 404.384C51.9423 404.384 52.2083 404.454 52.3483 404.566V405.672C52.1383 405.602 51.8723 405.574 51.5783 405.574C50.0943 405.574 49.4503 406.498 49.4503 407.842V412H48.2183ZM53.4409 412V404.566H54.6729V405.574C55.1769 404.79 55.9889 404.384 56.9689 404.384C58.5509 404.384 59.4889 405.308 59.4889 407.03V412H58.2569V407.282C58.2569 406.162 57.7529 405.434 56.6329 405.434C55.4009 405.434 54.6729 406.54 54.6729 407.604V412H53.4409ZM62.3627 406.47C62.3627 408.542 67.1927 406.834 67.1927 409.9C67.1927 411.286 65.9607 412.168 64.2107 412.168C62.4467 412.168 61.2147 411.328 60.9347 409.578H62.1667C62.3347 410.614 63.1047 411.188 64.2527 411.188C65.3727 411.188 65.9607 410.684 65.9607 409.984C65.9607 407.954 61.1867 409.634 61.1867 406.554C61.1867 405.42 62.0687 404.384 63.8887 404.384C65.4987 404.384 66.6887 405.14 66.9267 406.988H65.6947C65.5127 405.826 64.8687 405.392 63.8187 405.392C62.8947 405.392 62.3627 405.854 62.3627 406.47ZM68.5177 412V410.488H70.0297V411.3C70.0297 412.602 69.8197 413.4 69.3297 414.31H68.6297C68.9517 413.47 69.1337 412.868 69.1337 412H68.5177ZM75.892 415.08H74.66V404.566H75.892V405.49C76.382 404.79 77.096 404.384 77.978 404.384C79.952 404.384 81.142 405.84 81.142 408.262C81.142 410.782 79.924 412.168 77.978 412.168C77.096 412.168 76.382 411.804 75.892 411.118V415.08ZM77.894 405.448C76.592 405.448 75.892 406.442 75.892 408.262C75.892 410.068 76.62 411.104 77.894 411.104C79.182 411.104 79.882 410.096 79.882 408.262C79.882 406.47 79.154 405.448 77.894 405.448ZM83.8601 406.988H82.6281C82.8661 405.35 83.9441 404.384 85.7641 404.384C87.7521 404.384 88.7181 405.546 88.7181 407.282V410.208C88.7181 411.062 88.7881 411.594 88.9841 412H87.6821C87.5421 411.706 87.5001 411.272 87.4861 410.824C86.8561 411.762 85.8481 412.168 84.9521 412.168C83.4121 412.168 82.3761 411.454 82.3761 410.04C82.3761 409.018 82.9361 408.276 84.0281 407.912C85.0361 407.576 86.0581 407.492 87.4861 407.478V407.31C87.4861 406.106 86.9261 405.448 85.6521 405.448C84.5881 405.448 84.0141 406.036 83.8601 406.988ZM83.6361 410.012C83.6361 410.698 84.2101 411.104 85.0781 411.104C86.4501 411.104 87.4861 410.026 87.4861 408.752V408.402C84.3221 408.43 83.6361 409.102 83.6361 410.012ZM90.7378 403.572V401.92H91.9698V403.572H90.7378ZM90.7378 412V404.566H91.9698V412H90.7378ZM96.7094 412.168C94.7354 412.168 93.5454 410.712 93.5454 408.29C93.5454 405.77 94.7634 404.384 96.7094 404.384C97.5914 404.384 98.3054 404.748 98.7954 405.434V401.92H100.027V412H98.7954V411.062C98.3054 411.762 97.5914 412.168 96.7094 412.168ZM96.7934 411.104C98.0954 411.104 98.7954 410.11 98.7954 408.29C98.7954 406.484 98.0674 405.448 96.7934 405.448C95.5054 405.448 94.8054 406.456 94.8054 408.29C94.8054 410.082 95.5334 411.104 96.7934 411.104ZM107.817 412.168C105.689 412.168 104.415 410.712 104.415 408.29C104.415 405.77 105.731 404.384 107.817 404.384C109.945 404.384 111.219 405.868 111.219 408.29C111.219 410.796 109.903 412.168 107.817 412.168ZM107.817 411.104C109.203 411.104 109.959 410.11 109.959 408.29C109.959 406.484 109.189 405.448 107.817 405.448C106.431 405.448 105.675 406.456 105.675 408.29C105.675 410.082 106.445 411.104 107.817 411.104ZM117.536 408.962V404.566H118.768V412H117.536V410.992C117.032 411.776 116.248 412.168 115.282 412.168C113.728 412.168 112.804 411.258 112.804 409.536V404.566H114.036V409.284C114.036 410.404 114.526 411.118 115.618 411.118C116.822 411.118 117.536 410.026 117.536 408.962ZM120.902 409.858V405.546H119.866V404.566H120.902V402.858H122.134V404.566H123.772V405.546H122.134V409.858C122.134 410.754 122.4 411.174 123.492 411.174H123.744V412.056C123.604 412.126 123.296 412.168 122.946 412.168C121.56 412.168 120.902 411.426 120.902 409.858ZM128.882 406.988H127.65C127.888 405.35 128.966 404.384 130.786 404.384C132.774 404.384 133.74 405.546 133.74 407.282V410.208C133.74 411.062 133.81 411.594 134.006 412H132.704C132.564 411.706 132.522 411.272 132.508 410.824C131.878 411.762 130.87 412.168 129.974 412.168C128.434 412.168 127.398 411.454 127.398 410.04C127.398 409.018 127.958 408.276 129.05 407.912C130.058 407.576 131.08 407.492 132.508 407.478V407.31C132.508 406.106 131.948 405.448 130.674 405.448C129.61 405.448 129.036 406.036 128.882 406.988ZM128.658 410.012C128.658 410.698 129.232 411.104 130.1 411.104C131.472 411.104 132.508 410.026 132.508 408.752V408.402C129.344 408.43 128.658 409.102 128.658 410.012ZM141.905 407.128H140.673C140.477 405.994 139.721 405.448 138.741 405.448C137.369 405.448 136.641 406.456 136.641 408.29C136.641 410.096 137.411 411.118 138.783 411.118C139.777 411.118 140.491 410.586 140.729 409.522H141.961C141.625 411.37 140.379 412.168 138.755 412.168C136.641 412.168 135.381 410.698 135.381 408.29C135.381 405.77 136.669 404.384 138.741 404.384C140.379 404.384 141.667 405.308 141.905 407.128ZM149.63 407.128H148.398C148.202 405.994 147.446 405.448 146.466 405.448C145.094 405.448 144.366 406.456 144.366 408.29C144.366 410.096 145.136 411.118 146.508 411.118C147.502 411.118 148.216 410.586 148.454 409.522H149.686C149.35 411.37 148.104 412.168 146.48 412.168C144.366 412.168 143.106 410.698 143.106 408.29C143.106 405.77 144.394 404.384 146.466 404.384C148.104 404.384 149.392 405.308 149.63 407.128ZM154.233 412.168C152.105 412.168 150.831 410.712 150.831 408.29C150.831 405.77 152.147 404.384 154.233 404.384C156.361 404.384 157.635 405.868 157.635 408.29C157.635 410.796 156.319 412.168 154.233 412.168ZM154.233 411.104C155.619 411.104 156.375 410.11 156.375 408.29C156.375 406.484 155.605 405.448 154.233 405.448C152.847 405.448 152.091 406.456 152.091 408.29C152.091 410.082 152.861 411.104 154.233 411.104ZM159.22 412V404.566H160.452V405.714C160.956 404.804 161.754 404.384 162.65 404.384C162.944 404.384 163.21 404.454 163.35 404.566V405.672C163.14 405.602 162.874 405.574 162.58 405.574C161.096 405.574 160.452 406.498 160.452 407.842V412H159.22ZM167.092 412.168C165.118 412.168 163.928 410.712 163.928 408.29C163.928 405.77 165.146 404.384 167.092 404.384C167.974 404.384 168.688 404.748 169.178 405.434V401.92H170.41V412H169.178V411.062C168.688 411.762 167.974 412.168 167.092 412.168ZM167.176 411.104C168.478 411.104 169.178 410.11 169.178 408.29C169.178 406.484 168.45 405.448 167.176 405.448C165.888 405.448 165.188 406.456 165.188 408.29C165.188 410.082 165.916 411.104 167.176 411.104ZM172.373 403.572V401.92H173.605V403.572H172.373ZM172.373 412V404.566H173.605V412H172.373ZM175.558 412V404.566H176.79V405.574C177.294 404.79 178.106 404.384 179.086 404.384C180.668 404.384 181.606 405.308 181.606 407.03V412H180.374V407.282C180.374 406.162 179.87 405.434 178.75 405.434C177.518 405.434 176.79 406.54 176.79 407.604V412H175.558ZM186.216 412.056C184.326 412.056 183.192 410.614 183.192 408.234C183.192 405.742 184.354 404.384 186.216 404.384C187.21 404.384 187.952 404.734 188.442 405.378V404.566H189.674V412.224C189.674 414.296 188.344 415.262 186.636 415.262C184.886 415.262 183.654 414.422 183.388 412.728H184.62C184.774 413.708 185.544 414.24 186.622 414.24C187.714 414.24 188.442 413.652 188.442 412.266V410.992C187.924 411.692 187.168 412.056 186.216 412.056ZM186.44 410.992C187.742 410.992 188.442 410.012 188.442 408.22C188.442 406.47 187.714 405.448 186.44 405.448C185.152 405.448 184.452 406.428 184.452 408.234C184.452 409.984 185.166 410.992 186.44 410.992ZM194.621 409.858V405.546H193.585V404.566H194.621V402.858H195.853V404.566H197.491V405.546H195.853V409.858C195.853 410.754 196.119 411.174 197.211 411.174H197.463V412.056C197.323 412.126 197.015 412.168 196.665 412.168C195.279 412.168 194.621 411.426 194.621 409.858ZM201.688 412.168C199.56 412.168 198.286 410.712 198.286 408.29C198.286 405.77 199.602 404.384 201.688 404.384C203.816 404.384 205.09 405.868 205.09 408.29C205.09 410.796 203.774 412.168 201.688 412.168ZM201.688 411.104C203.074 411.104 203.83 410.11 203.83 408.29C203.83 406.484 203.06 405.448 201.688 405.448C200.302 405.448 199.546 406.456 199.546 408.29C199.546 410.082 200.316 411.104 201.688 411.104ZM209.646 409.858V405.546H208.61V404.566H209.646V402.858H210.878V404.566H212.516V405.546H210.878V409.858C210.878 410.754 211.144 411.174 212.236 411.174H212.488V412.056C212.348 412.126 212.04 412.168 211.69 412.168C210.304 412.168 209.646 411.426 209.646 409.858ZM213.689 412V401.92H214.921V405.574C215.425 404.79 216.237 404.384 217.217 404.384C218.799 404.384 219.737 405.308 219.737 407.03V412H218.505V407.282C218.505 406.162 218.001 405.434 216.881 405.434C215.649 405.434 214.921 406.54 214.921 407.604V412H213.689ZM228.127 409.578C227.721 411.314 226.475 412.168 224.781 412.168C222.625 412.168 221.323 410.712 221.323 408.29C221.323 405.77 222.625 404.384 224.711 404.384C226.811 404.384 228.071 405.826 228.071 408.192V408.5H222.583C222.653 410.166 223.437 411.104 224.781 411.104C225.831 411.104 226.573 410.6 226.839 409.578H228.127ZM224.711 405.448C223.521 405.448 222.807 406.19 222.625 407.576H226.783C226.615 406.204 225.873 405.448 224.711 405.448ZM232.683 409.858V405.546H231.647V404.566H232.683V402.858H233.915V404.566H235.553V405.546H233.915V409.858C233.915 410.754 234.181 411.174 235.273 411.174H235.525V412.056C235.385 412.126 235.077 412.168 234.727 412.168C233.341 412.168 232.683 411.426 232.683 409.858ZM243.152 409.578C242.746 411.314 241.5 412.168 239.806 412.168C237.65 412.168 236.348 410.712 236.348 408.29C236.348 405.77 237.65 404.384 239.736 404.384C241.836 404.384 243.096 405.826 243.096 408.192V408.5H237.608C237.678 410.166 238.462 411.104 239.806 411.104C240.856 411.104 241.598 410.6 241.864 409.578H243.152ZM239.736 405.448C238.546 405.448 237.832 406.19 237.65 407.576H241.808C241.64 406.204 240.898 405.448 239.736 405.448ZM244.738 412V404.566H245.97V405.714C246.474 404.804 247.272 404.384 248.168 404.384C248.462 404.384 248.728 404.454 248.868 404.566V405.672C248.658 405.602 248.392 405.574 248.098 405.574C246.614 405.574 245.97 406.498 245.97 407.842V412H244.738ZM249.96 412V404.566H251.192V405.518C251.668 404.762 252.41 404.384 253.32 404.384C254.342 404.384 255.084 404.832 255.434 405.7C255.924 404.832 256.736 404.384 257.73 404.384C259.242 404.384 260.152 405.308 260.152 407.03V412H258.92V407.282C258.92 406.162 258.472 405.434 257.464 405.434C256.344 405.434 255.672 406.54 255.672 407.604V412H254.44V407.282C254.44 406.162 253.992 405.434 252.984 405.434C251.864 405.434 251.192 406.54 251.192 407.604V412H249.96ZM263.025 406.47C263.025 408.542 267.855 406.834 267.855 409.9C267.855 411.286 266.623 412.168 264.873 412.168C263.109 412.168 261.877 411.328 261.597 409.578H262.829C262.997 410.614 263.767 411.188 264.915 411.188C266.035 411.188 266.623 410.684 266.623 409.984C266.623 407.954 261.849 409.634 261.849 406.554C261.849 405.42 262.731 404.384 264.551 404.384C266.161 404.384 267.351 405.14 267.589 406.988H266.357C266.175 405.826 265.531 405.392 264.481 405.392C263.557 405.392 263.025 405.854 263.025 406.47ZM275.147 412.168C273.019 412.168 271.745 410.712 271.745 408.29C271.745 405.77 273.061 404.384 275.147 404.384C277.275 404.384 278.549 405.868 278.549 408.29C278.549 410.796 277.233 412.168 275.147 412.168ZM275.147 411.104C276.533 411.104 277.289 410.11 277.289 408.29C277.289 406.484 276.519 405.448 275.147 405.448C273.761 405.448 273.005 406.456 273.005 408.29C273.005 410.082 273.775 411.104 275.147 411.104ZM279.224 405.546V404.566H280.26V404.062C280.26 402.494 280.904 401.752 282.276 401.752C282.584 401.752 282.836 401.808 282.962 401.864V402.746H282.836C281.758 402.746 281.492 403.166 281.492 404.062V404.566H282.962V405.546H281.492V412H280.26V405.546H279.224ZM287.087 415.248C286.807 415.248 286.513 415.178 286.359 415.136V414.184H286.737C287.647 414.184 287.899 414.002 288.627 412.336L288.879 411.762L285.841 404.566H287.171L289.187 409.48L289.523 410.474L289.859 409.48L291.819 404.566H293.079L289.607 412.98C288.865 414.772 288.375 415.248 287.087 415.248ZM297.09 412.168C294.962 412.168 293.688 410.712 293.688 408.29C293.688 405.77 295.004 404.384 297.09 404.384C299.218 404.384 300.492 405.868 300.492 408.29C300.492 410.796 299.176 412.168 297.09 412.168ZM297.09 411.104C298.476 411.104 299.232 410.11 299.232 408.29C299.232 406.484 298.462 405.448 297.09 405.448C295.704 405.448 294.948 406.456 294.948 408.29C294.948 410.082 295.718 411.104 297.09 411.104ZM306.81 408.962V404.566H308.042V412H306.81V410.992C306.306 411.776 305.522 412.168 304.556 412.168C303.002 412.168 302.078 411.258 302.078 409.536V404.566H303.31V409.284C303.31 410.404 303.8 411.118 304.892 411.118C306.096 411.118 306.81 410.026 306.81 408.962ZM310.007 412V404.566H311.239V405.714C311.743 404.804 312.541 404.384 313.437 404.384C313.731 404.384 313.997 404.454 314.137 404.566V405.672C313.927 405.602 313.661 405.574 313.367 405.574C311.883 405.574 311.239 406.498 311.239 407.842V412H310.007ZM324.179 407.128H322.947C322.751 405.994 321.995 405.448 321.015 405.448C319.643 405.448 318.915 406.456 318.915 408.29C318.915 410.096 319.685 411.118 321.057 411.118C322.051 411.118 322.765 410.586 323.003 409.522H324.235C323.899 411.37 322.653 412.168 321.029 412.168C318.915 412.168 317.655 410.698 317.655 408.29C317.655 405.77 318.943 404.384 321.015 404.384C322.653 404.384 323.941 405.308 324.179 407.128ZM325.757 412V401.92H326.989V405.574C327.493 404.79 328.305 404.384 329.285 404.384C330.867 404.384 331.805 405.308 331.805 407.03V412H330.573V407.282C330.573 406.162 330.069 405.434 328.949 405.434C327.717 405.434 326.989 406.54 326.989 407.604V412H325.757ZM336.793 412.168C334.665 412.168 333.391 410.712 333.391 408.29C333.391 405.77 334.707 404.384 336.793 404.384C338.921 404.384 340.195 405.868 340.195 408.29C340.195 410.796 338.879 412.168 336.793 412.168ZM336.793 411.104C338.179 411.104 338.935 410.11 338.935 408.29C338.935 406.484 338.165 405.448 336.793 405.448C335.407 405.448 334.651 406.456 334.651 408.29C334.651 410.082 335.421 411.104 336.793 411.104ZM342.691 406.47C342.691 408.542 347.521 406.834 347.521 409.9C347.521 411.286 346.289 412.168 344.539 412.168C342.775 412.168 341.543 411.328 341.263 409.578H342.495C342.663 410.614 343.433 411.188 344.581 411.188C345.701 411.188 346.289 410.684 346.289 409.984C346.289 407.954 341.515 409.634 341.515 406.554C341.515 405.42 342.397 404.384 344.217 404.384C345.827 404.384 347.017 405.14 347.255 406.988H346.023C345.841 405.826 345.197 405.392 344.147 405.392C343.223 405.392 342.691 405.854 342.691 406.47ZM355.412 409.578C355.006 411.314 353.76 412.168 352.066 412.168C349.91 412.168 348.608 410.712 348.608 408.29C348.608 405.77 349.91 404.384 351.996 404.384C354.096 404.384 355.356 405.826 355.356 408.192V408.5H349.868C349.938 410.166 350.722 411.104 352.066 411.104C353.116 411.104 353.858 410.6 354.124 409.578H355.412ZM351.996 405.448C350.806 405.448 350.092 406.19 349.91 407.576H354.068C353.9 406.204 353.158 405.448 351.996 405.448ZM356.998 412V404.566H358.23V405.574C358.734 404.79 359.546 404.384 360.526 404.384C362.108 404.384 363.046 405.308 363.046 407.03V412H361.814V407.282C361.814 406.162 361.31 405.434 360.19 405.434C358.958 405.434 358.23 406.54 358.23 407.604V412H356.998ZM26.004 434.168C23.876 434.168 22.602 432.712 22.602 430.29C22.602 427.77 23.918 426.384 26.004 426.384C28.132 426.384 29.406 427.868 29.406 430.29C29.406 432.796 28.09 434.168 26.004 434.168ZM26.004 433.104C27.39 433.104 28.146 432.11 28.146 430.29C28.146 428.484 27.376 427.448 26.004 427.448C24.618 427.448 23.862 428.456 23.862 430.29C23.862 432.082 24.632 433.104 26.004 433.104ZM32.2377 437.08H31.0057V426.566H32.2377V427.49C32.7277 426.79 33.4417 426.384 34.3237 426.384C36.2977 426.384 37.4877 427.84 37.4877 430.262C37.4877 432.782 36.2697 434.168 34.3237 434.168C33.4417 434.168 32.7277 433.804 32.2377 433.118V437.08ZM34.2397 427.448C32.9377 427.448 32.2377 428.442 32.2377 430.262C32.2377 432.068 32.9657 433.104 34.2397 433.104C35.5277 433.104 36.2277 432.096 36.2277 430.262C36.2277 428.47 35.4997 427.448 34.2397 427.448ZM39.2398 431.858V427.546H38.2038V426.566H39.2398V424.858H40.4718V426.566H42.1098V427.546H40.4718V431.858C40.4718 432.754 40.7378 433.174 41.8298 433.174H42.0818V434.056C41.9418 434.126 41.6338 434.168 41.2838 434.168C39.8978 434.168 39.2398 433.426 39.2398 431.858ZM43.2827 425.572V423.92H44.5147V425.572H43.2827ZM43.2827 434V426.566H44.5147V434H43.2827ZM49.4923 434.168C47.3643 434.168 46.0903 432.712 46.0903 430.29C46.0903 427.77 47.4063 426.384 49.4923 426.384C51.6203 426.384 52.8943 427.868 52.8943 430.29C52.8943 432.796 51.5783 434.168 49.4923 434.168ZM49.4923 433.104C50.8783 433.104 51.6343 432.11 51.6343 430.29C51.6343 428.484 50.8643 427.448 49.4923 427.448C48.1063 427.448 47.3503 428.456 47.3503 430.29C47.3503 432.082 48.1203 433.104 49.4923 433.104ZM54.48 434V426.566H55.712V427.574C56.216 426.79 57.028 426.384 58.008 426.384C59.59 426.384 60.528 427.308 60.528 429.03V434H59.296V429.282C59.296 428.162 58.792 427.434 57.672 427.434C56.44 427.434 55.712 428.54 55.712 429.604V434H54.48Z" fill="#595959"/>
</svg>
