<svg width="310" height="235" viewBox="0 0 310 235" fill="none" xmlns="http://www.w3.org/2000/svg">
<path d="M16.6814 17.8223H15.598L17.5707 12.2188H18.8238L20.7992 17.8223H19.7157L18.2191 13.368H18.1753L16.6814 17.8223ZM16.717 15.6252H19.6719V16.4406H16.717V15.6252ZM24.217 13.7592C24.1915 13.5203 24.0838 13.3342 23.8941 13.2011C23.7063 13.0679 23.4618 13.0014 23.1609 13.0014C22.9493 13.0014 22.7678 13.0333 22.6164 13.0971C22.465 13.161 22.3492 13.2476 22.2689 13.357C22.1887 13.4665 22.1476 13.5914 22.1458 13.7319C22.1458 13.8486 22.1723 13.9499 22.2252 14.0356C22.2799 14.1213 22.3537 14.1943 22.4468 14.2545C22.5398 14.3128 22.6429 14.3621 22.7559 14.4022C22.869 14.4423 22.983 14.4761 23.098 14.5034L23.6233 14.6348C23.8349 14.684 24.0382 14.7506 24.2334 14.8345C24.4304 14.9184 24.6064 15.0242 24.7615 15.1519C24.9183 15.2796 25.0424 15.4337 25.1336 15.6143C25.2248 15.7949 25.2704 16.0064 25.2704 16.249C25.2704 16.5774 25.1865 16.8665 25.0187 17.1164C24.8508 17.3644 24.6082 17.5587 24.2909 17.6991C23.9753 17.8378 23.5932 17.9071 23.1445 17.9071C22.7085 17.9071 22.33 17.8396 22.009 17.7046C21.6898 17.5696 21.4399 17.3726 21.2593 17.1136C21.0806 16.8546 20.9839 16.5391 20.9693 16.167H21.968C21.9826 16.3621 22.0427 16.5245 22.1485 16.654C22.2543 16.7835 22.3921 16.8802 22.5617 16.944C22.7331 17.0078 22.9247 17.0398 23.1363 17.0398C23.357 17.0398 23.5503 17.0069 23.7163 16.9413C23.8841 16.8738 24.0154 16.7807 24.1103 16.6622C24.2051 16.5418 24.2535 16.4013 24.2553 16.2408C24.2535 16.0949 24.2106 15.9745 24.1267 15.8797C24.0428 15.783 23.9251 15.7027 23.7738 15.6389C23.6242 15.5732 23.4491 15.5149 23.2484 15.4638L22.6109 15.2996C22.1495 15.1811 21.7846 15.0014 21.5165 14.7606C21.2502 14.518 21.1171 14.1961 21.1171 13.7948C21.1171 13.4647 21.2064 13.1756 21.3852 12.9275C21.5658 12.6794 21.8111 12.487 22.1212 12.3502C22.4313 12.2116 22.7824 12.1422 23.1746 12.1422C23.5722 12.1422 23.9206 12.2116 24.2197 12.3502C24.5207 12.487 24.7569 12.6776 24.9284 12.922C25.0998 13.1646 25.1883 13.4437 25.1938 13.7592H24.217ZM28.9454 13.7592C28.9198 13.5203 28.8122 13.3342 28.6225 13.2011C28.4346 13.0679 28.1902 13.0014 27.8893 13.0014C27.6777 13.0014 27.4962 13.0333 27.3448 13.0971C27.1934 13.161 27.0776 13.2476 26.9973 13.357C26.917 13.4665 26.876 13.5914 26.8742 13.7319C26.8742 13.8486 26.9006 13.9499 26.9535 14.0356C27.0082 14.1213 27.0821 14.1943 27.1751 14.2545C27.2682 14.3128 27.3712 14.3621 27.4843 14.4022C27.5974 14.4423 27.7114 14.4761 27.8263 14.5034L28.3516 14.6348C28.5632 14.684 28.7666 14.7506 28.9618 14.8345C29.1588 14.9184 29.3348 15.0242 29.4898 15.1519C29.6467 15.2796 29.7707 15.4337 29.8619 15.6143C29.9531 15.7949 29.9987 16.0064 29.9987 16.249C29.9987 16.5774 29.9148 16.8665 29.747 17.1164C29.5792 17.3644 29.3366 17.5587 29.0192 17.6991C28.7037 17.8378 28.3215 17.9071 27.8728 17.9071C27.4369 17.9071 27.0584 17.8396 26.7374 17.7046C26.4182 17.5696 26.1683 17.3726 25.9877 17.1136C25.8089 16.8546 25.7123 16.5391 25.6977 16.167H26.6963C26.7109 16.3621 26.7711 16.5245 26.8769 16.654C26.9827 16.7835 27.1204 16.8802 27.2901 16.944C27.4615 17.0078 27.653 17.0398 27.8646 17.0398C28.0853 17.0398 28.2787 17.0069 28.4447 16.9413C28.6125 16.8738 28.7438 16.7807 28.8387 16.6622C28.9335 16.5418 28.9818 16.4013 28.9837 16.2408C28.9818 16.0949 28.939 15.9745 28.8551 15.8797C28.7712 15.783 28.6535 15.7027 28.5021 15.6389C28.3526 15.5732 28.1774 15.5149 27.9768 15.4638L27.3393 15.2996C26.8778 15.1811 26.513 15.0014 26.2449 14.7606C25.9786 14.518 25.8454 14.1961 25.8454 13.7948C25.8454 13.4647 25.9348 13.1756 26.1136 12.9275C26.2941 12.6794 26.5395 12.487 26.8496 12.3502C27.1596 12.2116 27.5108 12.1422 27.9029 12.1422C28.3006 12.1422 28.649 12.2116 28.9481 12.3502C29.2491 12.487 29.4853 12.6776 29.6567 12.922C29.8282 13.1646 29.9167 13.4437 29.9221 13.7592H28.9454ZM30.6285 17.8223V12.2188H34.2729V13.0698H31.6436V14.591H34.0841V15.4419H31.6436V16.9714H34.2948V17.8223H30.6285ZM34.7871 13.0698V12.2188H39.2578V13.0698H37.5259V17.8223H36.519V13.0698H34.7871ZM45.2343 14.0082C45.1887 13.8605 45.1258 13.7282 45.0455 13.6115C44.9671 13.4929 44.8722 13.3917 44.761 13.3078C44.6515 13.2239 44.5257 13.161 44.3834 13.119C44.2411 13.0752 44.0861 13.0533 43.9183 13.0533C43.6173 13.0533 43.3492 13.129 43.1139 13.2804C42.8786 13.4318 42.6934 13.6544 42.5584 13.948C42.4253 14.2399 42.3587 14.5956 42.3587 15.0151C42.3587 15.4383 42.4253 15.7967 42.5584 16.0904C42.6916 16.384 42.8767 16.6075 43.1139 16.7607C43.351 16.9121 43.6264 16.9878 43.9402 16.9878C44.2247 16.9878 44.4709 16.9331 44.6789 16.8236C44.8886 16.7142 45.0501 16.5591 45.1632 16.3585C45.2763 16.156 45.3328 15.9189 45.3328 15.6471L45.5626 15.6827H44.0414V14.8892H46.315V15.5623C46.315 16.042 46.2129 16.457 46.0086 16.8072C45.8043 17.1574 45.5234 17.4274 45.1659 17.6171C44.8084 17.8049 44.398 17.8989 43.9347 17.8989C43.4185 17.8989 42.9652 17.783 42.5749 17.5514C42.1863 17.3179 41.8826 16.9869 41.6638 16.5582C41.4467 16.1277 41.3382 15.617 41.3382 15.026C41.3382 14.5737 41.402 14.1696 41.5297 13.814C41.6592 13.4583 41.8398 13.1564 42.0714 12.9083C42.3031 12.6584 42.5749 12.4687 42.8868 12.3392C43.1987 12.2079 43.538 12.1422 43.9046 12.1422C44.2147 12.1422 44.5038 12.1878 44.7719 12.279C45.04 12.3684 45.2781 12.4961 45.486 12.6621C45.6958 12.8281 45.8681 13.0251 46.0031 13.2531C46.1381 13.4811 46.2266 13.7328 46.2685 14.0082H45.2343ZM47.0214 17.8223V12.2188H50.6658V13.0698H48.0365V14.591H50.477V15.4419H48.0365V16.9714H50.6877V17.8223H47.0214ZM56.031 12.2188V17.8223H55.1281L52.4878 14.0055H52.4413V17.8223H51.4263V12.2188H52.3346L54.9722 16.0384H55.0214V12.2188H56.031ZM56.8619 17.8223V12.2188H60.5063V13.0698H57.877V14.591H60.3175V15.4419H57.877V16.9714H60.5282V17.8223H56.8619ZM61.2667 17.8223V12.2188H63.368C63.7985 12.2188 64.1596 12.2936 64.4515 12.4432C64.7452 12.5928 64.9668 12.8025 65.1163 13.0725C65.2677 13.3406 65.3434 13.6534 65.3434 14.011C65.3434 14.3703 65.2668 14.6822 65.1136 14.9467C64.9622 15.2093 64.7388 15.4127 64.4433 15.5568C64.1478 15.6991 63.7848 15.7702 63.3543 15.7702H61.8577V14.9275H63.2175C63.4692 14.9275 63.6754 14.8929 63.8359 14.8236C63.9964 14.7524 64.115 14.6494 64.1916 14.5144C64.27 14.3776 64.3092 14.2098 64.3092 14.011C64.3092 13.8121 64.27 13.6425 64.1916 13.5021C64.1131 13.3598 63.9937 13.2522 63.8331 13.1792C63.6726 13.1044 63.4656 13.067 63.2121 13.067H62.2818V17.8223H61.2667ZM64.1615 15.2832L65.5486 17.8223H64.4159L63.0534 15.2832H64.1615ZM66.7222 17.8223H65.6387L67.6114 12.2188H68.8645L70.84 17.8223H69.7565L68.2599 13.368H68.2161L66.7222 17.8223ZM66.7578 15.6252H69.7127V16.4406H66.7578V15.6252ZM70.3794 13.0698V12.2188H74.8501V13.0698H73.1182V17.8223H72.1113V13.0698H70.3794ZM75.4368 17.8223V12.2188H79.0812V13.0698H76.4519V14.591H78.8924V15.4419H76.4519V16.9714H79.1031V17.8223H75.4368ZM81.7404 17.8223H79.8416V12.2188H81.7788C82.3351 12.2188 82.813 12.331 83.2124 12.5554C83.6137 12.7779 83.922 13.098 84.1372 13.5157C84.3525 13.9334 84.4601 14.4332 84.4601 15.0151C84.4601 15.5988 84.3515 16.1004 84.1345 16.5199C83.9192 16.9394 83.6083 17.2614 83.2015 17.4857C82.7966 17.7101 82.3095 17.8223 81.7404 17.8223ZM80.8567 16.944H81.6912C82.0815 16.944 82.4071 16.8729 82.668 16.7306C82.9288 16.5865 83.1249 16.3722 83.2562 16.0876C83.3875 15.8012 83.4532 15.4437 83.4532 15.0151C83.4532 14.5864 83.3875 14.2308 83.2562 13.948C83.1249 13.6635 82.9306 13.451 82.6734 13.3105C82.4181 13.1683 82.1007 13.0971 81.7213 13.0971H80.8567V16.944Z" fill="#7A7A7A"/>
<path d="M24.9306 42.5705V61.7822H21.4504V45.957H21.3378L16.8444 48.8275V45.638L21.6192 42.5705H24.9306ZM28.7079 61.7822V59.2682L35.3776 52.7298C36.0155 52.0857 36.5471 51.5135 36.9723 51.0132C37.3976 50.5129 37.7165 50.0282 37.9292 49.5591C38.1418 49.0901 38.2481 48.5898 38.2481 48.0582C38.2481 47.4516 38.1105 46.9325 37.8354 46.501C37.5602 46.0633 37.1818 45.7256 36.7003 45.4879C36.2187 45.2503 35.6715 45.1314 35.0587 45.1314C34.427 45.1314 33.8736 45.2628 33.3983 45.5254C32.923 45.7818 32.554 46.1477 32.2913 46.623C32.0349 47.0983 31.9067 47.6642 31.9067 48.3209H28.5953C28.5953 47.1014 28.8736 46.0414 29.4302 45.1408C29.9868 44.2403 30.7529 43.543 31.7285 43.0489C32.7104 42.5549 33.836 42.3079 35.1056 42.3079C36.3939 42.3079 37.5258 42.5486 38.5014 43.0302C39.477 43.5117 40.2337 44.1715 40.7715 45.0095C41.3156 45.8475 41.5876 46.8043 41.5876 47.88C41.5876 48.5992 41.4501 49.3059 41.1749 50C40.8997 50.6942 40.4151 51.4634 39.7209 52.3077C39.033 53.152 38.0667 54.1745 36.8222 55.3752L33.5108 58.7429V58.8742H41.8784V61.7822H28.7079ZM50.8433 62.0449C49.4487 62.0449 48.2104 61.8104 47.1285 61.3413C46.0529 60.8723 45.2086 60.2313 44.5957 59.4183C43.9891 58.599 43.6889 57.6703 43.6952 56.6322C43.6889 55.8255 43.864 55.0844 44.2205 54.409C44.577 53.7336 45.0585 53.1707 45.6651 52.7205C46.278 52.2639 46.9597 51.9731 47.7101 51.848V51.7167C46.722 51.4978 45.9215 50.9944 45.3087 50.2064C44.702 49.4122 44.4019 48.496 44.4081 47.4579C44.4019 46.4698 44.677 45.588 45.2336 44.8125C45.7902 44.037 46.5532 43.4273 47.5225 42.9833C48.4919 42.533 49.5988 42.3079 50.8433 42.3079C52.0753 42.3079 53.1728 42.533 54.1359 42.9833C55.1053 43.4273 55.8682 44.037 56.4248 44.8125C56.9877 45.588 57.2691 46.4698 57.2691 47.4579C57.2691 48.496 56.9595 49.4122 56.3404 50.2064C55.7275 50.9944 54.9364 51.4978 53.9671 51.7167V51.848C54.7175 51.9731 55.3929 52.2639 55.9933 52.7205C56.5999 53.1707 57.0815 53.7336 57.4379 54.409C57.8007 55.0844 57.982 55.8255 57.982 56.6322C57.982 57.6703 57.6756 58.599 57.0627 59.4183C56.4498 60.2313 55.6056 60.8723 54.5299 61.3413C53.4605 61.8104 52.2316 62.0449 50.8433 62.0449ZM50.8433 59.362C51.5625 59.362 52.1879 59.2401 52.7194 58.9962C53.251 58.746 53.6638 58.3958 53.9577 57.9455C54.2516 57.4952 54.4017 56.9762 54.408 56.3883C54.4017 55.7754 54.2422 55.2345 53.9295 54.7654C53.6231 54.2902 53.201 53.9181 52.6631 53.6491C52.1316 53.3802 51.525 53.2458 50.8433 53.2458C50.1554 53.2458 49.5425 53.3802 49.0047 53.6491C48.4668 53.9181 48.0416 54.2902 47.7289 54.7654C47.4225 55.2345 47.2724 55.7754 47.2786 56.3883C47.2724 56.9762 47.4162 57.4952 47.7101 57.9455C48.0041 58.3895 48.4168 58.7366 48.9484 58.9868C49.4862 59.2369 50.1178 59.362 50.8433 59.362ZM50.8433 50.6098C51.4311 50.6098 51.9502 50.491 52.4005 50.2533C52.857 50.0157 53.2166 49.6842 53.4793 49.259C53.7419 48.8337 53.8764 48.3428 53.8826 47.7862C53.8764 47.2359 53.7451 46.7543 53.4886 46.3416C53.2322 45.9226 52.8758 45.6005 52.4192 45.3753C51.9627 45.144 51.4374 45.0283 50.8433 45.0283C50.2367 45.0283 49.702 45.144 49.2392 45.3753C48.7827 45.6005 48.4262 45.9226 48.1698 46.3416C47.9196 46.7543 47.7977 47.2359 47.8039 47.7862C47.7977 48.3428 47.9228 48.8337 48.1792 49.259C48.4418 49.678 48.8014 50.0094 49.2579 50.2533C49.7207 50.491 50.2492 50.6098 50.8433 50.6098ZM63.422 59.1556L63.3001 60.1875C63.2125 60.9755 63.0562 61.776 62.8311 62.589C62.6122 63.4082 62.3808 64.1618 62.1369 64.8497C61.893 65.5376 61.696 66.0786 61.5459 66.4726H59.257C59.3446 66.0911 59.4634 65.572 59.6135 64.9154C59.7698 64.2587 59.9199 63.5208 60.0638 62.7015C60.2076 61.8823 60.3045 61.0505 60.3546 60.2063L60.4202 59.1556H63.422ZM66.1722 61.7822L74.3428 45.6099V45.4785H64.8589V42.5705H77.945V45.5442L69.7837 61.7822H66.1722ZM80.0595 61.7822V42.5705H83.5398V51.3978H83.7743L91.2695 42.5705H95.519L88.0894 51.1914L95.5846 61.7822H91.4008L85.6692 53.546L83.5398 56.06V61.7822H80.0595Z" fill="#242424"/>
<mask id="mask0_937_6837" style="mask-type:alpha" maskUnits="userSpaceOnUse" x="14" y="52" width="279" height="204">
<line x1="33.1476" y1="52.3726" x2="33.1476" y2="255.997" stroke="black" stroke-width="0.825503"/>
<path d="M34.9367 52.3726L34.9367 255.997" stroke="black" stroke-width="0.825503"/>
<path d="M37.1379 52.3726L37.1379 255.997" stroke="black" stroke-width="0.825503"/>
<path d="M39.339 52.3726L39.339 255.997" stroke="black" stroke-width="0.825503"/>
<path d="M41.5407 52.3726L41.5407 255.997" stroke="black" stroke-width="0.825503"/>
<path d="M43.7419 52.3726L43.7419 255.997" stroke="black" stroke-width="0.825503"/>
<path d="M45.9435 52.3726L45.9435 255.997" stroke="black" stroke-width="0.825503"/>
<path d="M48.1447 52.3726L48.1447 255.997" stroke="black" stroke-width="0.825503"/>
<path d="M50.3459 52.3726L50.3459 255.997" stroke="black" stroke-width="0.825503"/>
<path d="M52.5475 52.3726L52.5475 255.997" stroke="black" stroke-width="0.825503"/>
<path d="M54.7487 52.3726L54.7487 255.997" stroke="black" stroke-width="0.825503"/>
<path d="M56.9499 52.3726L56.9499 255.997" stroke="black" stroke-width="0.825503"/>
<path d="M59.1515 52.3726L59.1515 255.997" stroke="black" stroke-width="0.825503"/>
<path d="M61.3527 52.3726L61.3527 255.997" stroke="black" stroke-width="0.825503"/>
<path d="M63.5539 52.3726L63.5539 255.997" stroke="black" stroke-width="0.825503"/>
<path d="M65.7555 52.3726L65.7555 255.997" stroke="black" stroke-width="0.825503"/>
<path d="M67.9567 52.3726L67.9567 255.997" stroke="black" stroke-width="0.825503"/>
<path d="M70.1579 52.3726L70.1579 255.997" stroke="black" stroke-width="0.825503"/>
<path d="M72.3594 52.3726L72.3594 255.997" stroke="black" stroke-width="0.825503"/>
<path d="M74.5607 52.3726L74.5607 255.997" stroke="black" stroke-width="0.825503"/>
<path d="M76.7619 52.3726L76.7619 255.997" stroke="black" stroke-width="0.825503"/>
<path d="M78.9635 52.3726L78.9635 255.997" stroke="black" stroke-width="0.825503"/>
<path d="M81.1647 52.3726L81.1647 255.997" stroke="black" stroke-width="0.825503"/>
<path d="M83.3659 52.3726L83.3659 255.997" stroke="black" stroke-width="0.825503"/>
<path d="M85.5675 52.3726L85.5675 255.997" stroke="black" stroke-width="0.825503"/>
<path d="M87.7687 52.3726L87.7687 255.997" stroke="black" stroke-width="0.825503"/>
<path d="M89.9699 52.3726L89.9699 255.997" stroke="black" stroke-width="0.825503"/>
<path d="M92.1715 52.3726L92.1715 255.997" stroke="black" stroke-width="0.825503"/>
<path d="M94.3727 52.3726L94.3727 255.997" stroke="black" stroke-width="0.825503"/>
<path d="M96.5744 52.3726L96.5744 255.997" stroke="black" stroke-width="0.825503"/>
<path d="M98.7755 52.3726L98.7755 255.997" stroke="black" stroke-width="0.825503"/>
<path d="M100.977 52.3726L100.977 255.997" stroke="black" stroke-width="0.825503"/>
<path d="M103.178 52.3726L103.178 255.997" stroke="black" stroke-width="0.825503"/>
<path d="M105.38 52.3726L105.38 255.997" stroke="black" stroke-width="0.825503"/>
<path d="M107.581 52.3726L107.581 255.997" stroke="black" stroke-width="0.825503"/>
<path d="M109.782 52.3726L109.782 255.997" stroke="black" stroke-width="0.825503"/>
<path d="M111.984 52.3726L111.984 255.997" stroke="black" stroke-width="0.825503"/>
<path d="M114.185 52.3726L114.185 255.997" stroke="black" stroke-width="0.825503"/>
<path d="M116.386 52.3726L116.386 255.997" stroke="black" stroke-width="0.825503"/>
<path d="M118.588 52.3726L118.588 255.997" stroke="black" stroke-width="0.825503"/>
<path d="M120.789 52.3726L120.789 255.997" stroke="black" stroke-width="0.825503"/>
<path d="M122.99 52.3726L122.99 255.997" stroke="black" stroke-width="0.825503"/>
<path d="M125.192 52.3726L125.192 255.997" stroke="black" stroke-width="0.825503"/>
<path d="M127.393 52.3726L127.393 255.997" stroke="black" stroke-width="0.825503"/>
<path d="M129.594 52.3726V255.997" stroke="black" stroke-width="0.825503"/>
<path d="M131.796 52.3726V255.997" stroke="black" stroke-width="0.825503"/>
<path d="M133.997 52.3726V255.997" stroke="black" stroke-width="0.825503"/>
<path d="M136.198 52.3726V255.997" stroke="black" stroke-width="0.825503"/>
<path d="M138.4 52.3726V255.997" stroke="black" stroke-width="0.825503"/>
<path d="M140.601 52.3726V255.997" stroke="black" stroke-width="0.825503"/>
<path d="M142.802 52.3726V255.997" stroke="black" stroke-width="0.825503"/>
<path d="M145.004 52.3726V255.997" stroke="black" stroke-width="0.825503"/>
<path d="M147.205 52.3726V255.997" stroke="black" stroke-width="0.825503"/>
<path d="M149.406 52.3726V255.997" stroke="black" stroke-width="0.825503"/>
<path d="M151.608 52.3726V255.997" stroke="black" stroke-width="0.825503"/>
<path d="M153.809 52.3726V255.997" stroke="black" stroke-width="0.825503"/>
<path d="M156.01 52.3726V255.997" stroke="black" stroke-width="0.825503"/>
<path d="M158.212 52.3726V255.997" stroke="black" stroke-width="0.825503"/>
<path d="M160.413 52.3726V255.997" stroke="black" stroke-width="0.825503"/>
<path d="M162.614 52.3726V255.997" stroke="black" stroke-width="0.825503"/>
<path d="M164.816 52.3726V255.997" stroke="black" stroke-width="0.825503"/>
<path d="M167.017 52.3726V255.997" stroke="black" stroke-width="0.825503"/>
<path d="M169.218 52.3726V255.997" stroke="black" stroke-width="0.825503"/>
<path d="M171.42 52.3726V255.997" stroke="black" stroke-width="0.825503"/>
<path d="M173.621 52.3726V255.997" stroke="black" stroke-width="0.825503"/>
<path d="M175.822 52.3726V255.997" stroke="black" stroke-width="0.825503"/>
<path d="M178.024 52.3726V255.997" stroke="black" stroke-width="0.825503"/>
<path d="M180.225 52.3726V255.997" stroke="black" stroke-width="0.825503"/>
<path d="M182.426 52.3726V255.997" stroke="black" stroke-width="0.825503"/>
<path d="M184.628 52.3726V255.997" stroke="black" stroke-width="0.825503"/>
<path d="M186.829 52.3726V255.997" stroke="black" stroke-width="0.825503"/>
<path d="M189.03 52.3726V255.997" stroke="black" stroke-width="0.825503"/>
<path d="M191.232 52.3726V255.997" stroke="black" stroke-width="0.825503"/>
<path d="M193.433 52.3726V255.997" stroke="black" stroke-width="0.825503"/>
<path d="M195.634 52.3726V255.997" stroke="black" stroke-width="0.825503"/>
<path d="M197.836 52.3726V255.997" stroke="black" stroke-width="0.825503"/>
<path d="M200.037 52.3726V255.997" stroke="black" stroke-width="0.825503"/>
<path d="M202.238 52.3726V255.997" stroke="black" stroke-width="0.825503"/>
<path d="M204.44 52.3726V255.997" stroke="black" stroke-width="0.825503"/>
<path d="M206.641 52.3726V255.997" stroke="black" stroke-width="0.825503"/>
<path d="M208.842 52.3726V255.997" stroke="black" stroke-width="0.825503"/>
<path d="M211.044 52.3726V255.997" stroke="black" stroke-width="0.825503"/>
<path d="M213.245 52.3726V255.997" stroke="black" stroke-width="0.825503"/>
<path d="M215.446 52.3726V255.997" stroke="black" stroke-width="0.825503"/>
<path d="M217.648 52.3726V255.997" stroke="black" stroke-width="0.825503"/>
<path d="M219.849 52.3726V255.997" stroke="black" stroke-width="0.825503"/>
<path d="M222.05 52.3726V255.997" stroke="black" stroke-width="0.825503"/>
<path d="M224.252 52.3726V255.997" stroke="black" stroke-width="0.825503"/>
<path d="M226.453 52.3726V255.997" stroke="black" stroke-width="0.825503"/>
<path d="M228.654 52.3726V255.997" stroke="black" stroke-width="0.825503"/>
<path d="M230.856 52.3726V255.997" stroke="black" stroke-width="0.825503"/>
<path d="M233.057 52.3726V255.997" stroke="black" stroke-width="0.825503"/>
<path d="M235.258 52.3726V255.997" stroke="black" stroke-width="0.825503"/>
<path d="M237.46 52.3726V255.997" stroke="black" stroke-width="0.825503"/>
<path d="M239.661 52.3726V255.997" stroke="black" stroke-width="0.825503"/>
<path d="M241.862 52.3726V255.997" stroke="black" stroke-width="0.825503"/>
<path d="M244.064 52.3726V255.997" stroke="black" stroke-width="0.825503"/>
<path d="M246.265 52.3726V255.997" stroke="black" stroke-width="0.825503"/>
<path d="M248.466 52.3726V255.997" stroke="black" stroke-width="0.825503"/>
<path d="M250.668 52.3726V255.997" stroke="black" stroke-width="0.825503"/>
<path d="M252.869 52.3726V255.997" stroke="black" stroke-width="0.825503"/>
<path d="M255.07 52.3726V255.997" stroke="black" stroke-width="0.825503"/>
<path d="M257.272 52.3726V255.997" stroke="black" stroke-width="0.825503"/>
<path d="M259.473 52.3726V255.997" stroke="black" stroke-width="0.825503"/>
<path d="M261.674 52.3726V255.997" stroke="black" stroke-width="0.825503"/>
<path d="M263.876 52.3726V255.997" stroke="black" stroke-width="0.825503"/>
<path d="M266.077 52.3726V255.997" stroke="black" stroke-width="0.825503"/>
<path d="M268.278 52.3726V255.997" stroke="black" stroke-width="0.825503"/>
<path d="M270.48 52.3726V255.997" stroke="black" stroke-width="0.825503"/>
<path d="M272.681 52.3726V255.997" stroke="black" stroke-width="0.825503"/>
<path d="M274.882 52.3726V255.997" stroke="black" stroke-width="0.825503"/>
</mask>
<g mask="url(#mask0_937_6837)">
<path d="M87.1263 145.654C77.26 145.379 19.0825 198.487 19.0825 198.487V220.775C19.0825 223.207 21.0537 225.178 23.4852 225.178H291.958C294.39 225.178 296.361 223.207 296.361 220.775V83.1914C296.361 83.1914 237.843 134.648 232.74 136.024C227.637 137.399 179.666 134.648 171.16 136.024C162.655 137.399 151.768 158.257 143.262 158.863C134.757 159.468 112.303 158.863 108.22 158.863C104.137 158.863 96.9927 145.93 87.1263 145.654Z" fill="url(#paint0_linear_937_6837)"/>
<path d="M85.7655 145.654C75.8991 145.379 17.7217 198.487 17.7217 198.487V220.775C17.7217 223.207 19.6928 225.178 22.1244 225.178H290.598C293.029 225.178 295 223.207 295 220.775V83.1914C295 83.1914 236.483 134.648 231.379 136.024C226.276 137.399 178.305 134.648 169.8 136.024C161.294 137.399 150.407 158.257 141.902 158.863C133.396 159.468 110.942 158.863 106.859 158.863C102.776 158.863 95.6319 145.93 85.7655 145.654Z" fill="url(#paint1_linear_937_6837)"/>
</g>
<path d="M17.7217 198.487C17.7217 198.487 75.8991 145.379 85.7655 145.654C95.6319 145.93 102.776 158.863 106.859 158.863C110.942 158.863 133.396 159.468 141.902 158.863C150.407 158.257 161.294 137.399 169.8 136.024C178.305 134.648 226.276 137.399 231.379 136.024C236.483 134.648 295 83.1914 295 83.1914" stroke="#3C76E1" stroke-width="1.65101" stroke-linecap="round"/>
<path d="M203.481 138.5C205.268 138.5 207.028 137.3 207.028 135.473C207.028 133.647 205.268 132.446 203.481 132.446C201.694 132.446 199.934 133.647 199.934 135.473C199.934 137.3 201.694 138.5 203.481 138.5Z" fill="white" stroke="url(#paint2_linear_937_6837)" stroke-width="1.65101"/>
<path d="M17.167 89.6917V84.6887H17.4875V89.6917H17.167ZM18.1696 86.2404C18.1487 86.0554 18.0627 85.9121 17.9116 85.8104C17.7605 85.7075 17.5702 85.656 17.3409 85.656C17.1768 85.656 17.0348 85.6821 16.9149 85.7342C16.795 85.785 16.7019 85.8554 16.6354 85.9453C16.5703 86.0339 16.5377 86.1349 16.5377 86.2482C16.5377 86.3433 16.5599 86.4254 16.6042 86.4944C16.6498 86.5635 16.709 86.6215 16.782 86.6684C16.8563 86.714 16.9357 86.7524 17.0204 86.7837C17.1051 86.8137 17.1865 86.8384 17.2647 86.858L17.6556 86.9596C17.7833 86.9908 17.9142 87.0332 18.0484 87.0866C18.1826 87.14 18.307 87.2104 18.4217 87.2977C18.5363 87.385 18.6288 87.4931 18.6992 87.6221C18.7708 87.7511 18.8067 87.9055 18.8067 88.0853C18.8067 88.312 18.748 88.5133 18.6308 88.6891C18.5148 88.865 18.3461 89.0038 18.1246 89.1054C17.9044 89.207 17.638 89.2579 17.3253 89.2579C17.0256 89.2579 16.7664 89.2103 16.5475 89.1152C16.3286 89.0201 16.1573 88.8852 16.0335 88.7106C15.9097 88.5348 15.8413 88.3263 15.8283 88.0853H16.4341C16.4459 88.2299 16.4928 88.3504 16.5748 88.4468C16.6582 88.5419 16.7644 88.6129 16.8934 88.6598C17.0237 88.7054 17.1664 88.7282 17.3214 88.7282C17.4921 88.7282 17.6439 88.7015 17.7768 88.6481C17.9109 88.5934 18.0165 88.5178 18.0933 88.4214C18.1702 88.3237 18.2087 88.2097 18.2087 88.0794C18.2087 87.9608 18.1748 87.8638 18.107 87.7882C18.0406 87.7126 17.95 87.6501 17.8354 87.6006C17.722 87.5511 17.5937 87.5074 17.4504 87.4697L16.9774 87.3407C16.6569 87.2534 16.4029 87.125 16.2153 86.9557C16.0289 86.7863 15.9358 86.5622 15.9358 86.2834C15.9358 86.0528 15.9983 85.8515 16.1234 85.6795C16.2485 85.5075 16.4178 85.374 16.6315 85.2789C16.8452 85.1825 17.0862 85.1342 17.3546 85.1342C17.6256 85.1342 17.8647 85.1818 18.0719 85.2769C18.2803 85.372 18.4445 85.503 18.5643 85.6697C18.6842 85.8352 18.7467 86.0254 18.752 86.2404H18.1696ZM20.7169 85.189V89.1914H20.1111V85.7948H20.0876L19.13 86.4202V85.8417L20.1287 85.189H20.7169ZM22.9179 89.2579C22.6091 89.2566 22.3453 89.1751 22.1264 89.0136C21.9075 88.852 21.7401 88.6168 21.6241 88.3081C21.5082 87.9993 21.4502 87.6273 21.4502 87.1921C21.4502 86.7583 21.5082 86.3876 21.6241 86.0801C21.7414 85.7727 21.9094 85.5381 22.1283 85.3766C22.3485 85.215 22.6117 85.1342 22.9179 85.1342C23.2241 85.1342 23.4866 85.2157 23.7055 85.3785C23.9243 85.5401 24.0918 85.7746 24.2077 86.0821C24.325 86.3883 24.3836 86.7583 24.3836 87.1921C24.3836 87.6286 24.3256 88.0012 24.2097 88.31C24.0937 88.6175 23.9263 88.8527 23.7074 89.0155C23.4885 89.1771 23.2254 89.2579 22.9179 89.2579ZM22.9179 88.7361C23.1889 88.7361 23.4006 88.6038 23.553 88.3393C23.7068 88.0748 23.7836 87.6924 23.7836 87.1921C23.7836 86.8599 23.7485 86.5791 23.6781 86.3498C23.6091 86.1192 23.5094 85.9446 23.3791 85.8261C23.2501 85.7062 23.0964 85.6463 22.9179 85.6463C22.6482 85.6463 22.4365 85.7792 22.2827 86.045C22.129 86.3107 22.0515 86.6931 22.0502 87.1921C22.0502 87.5257 22.0847 87.8077 22.1537 88.0384C22.2241 88.2677 22.3238 88.4416 22.4527 88.5602C22.5817 88.6774 22.7368 88.7361 22.9179 88.7361ZM26.1952 89.2579C25.8864 89.2566 25.6226 89.1751 25.4037 89.0136C25.1848 88.852 25.0174 88.6168 24.9014 88.3081C24.7855 87.9993 24.7275 87.6273 24.7275 87.1921C24.7275 86.7583 24.7855 86.3876 24.9014 86.0801C25.0187 85.7727 25.1867 85.5381 25.4056 85.3766C25.6258 85.215 25.889 85.1342 26.1952 85.1342C26.5013 85.1342 26.7639 85.2157 26.9828 85.3785C27.2016 85.5401 27.3691 85.7746 27.485 86.0821C27.6023 86.3883 27.6609 86.7583 27.6609 87.1921C27.6609 87.6286 27.6029 88.0012 27.487 88.31C27.371 88.6175 27.2036 88.8527 26.9847 89.0155C26.7658 89.1771 26.5026 89.2579 26.1952 89.2579ZM26.1952 88.7361C26.4662 88.7361 26.6779 88.6038 26.8303 88.3393C26.9841 88.0748 27.0609 87.6924 27.0609 87.1921C27.0609 86.8599 27.0257 86.5791 26.9554 86.3498C26.8863 86.1192 26.7867 85.9446 26.6564 85.8261C26.5274 85.7062 26.3737 85.6463 26.1952 85.6463C25.9255 85.6463 25.7138 85.7792 25.56 86.045C25.4063 86.3107 25.3288 86.6931 25.3274 87.1921C25.3274 87.5257 25.362 87.8077 25.431 88.0384C25.5014 88.2677 25.6011 88.4416 25.73 88.5602C25.859 88.6774 26.0141 88.7361 26.1952 88.7361ZM29.4725 89.2579C29.1637 89.2566 28.8998 89.1751 28.681 89.0136C28.4621 88.852 28.2947 88.6168 28.1787 88.3081C28.0627 87.9993 28.0048 87.6273 28.0048 87.1921C28.0048 86.7583 28.0627 86.3876 28.1787 86.0801C28.296 85.7727 28.464 85.5381 28.6829 85.3766C28.9031 85.215 29.1663 85.1342 29.4725 85.1342C29.7786 85.1342 30.0412 85.2157 30.26 85.3785C30.4789 85.5401 30.6464 85.7746 30.7623 86.0821C30.8796 86.3883 30.9382 86.7583 30.9382 87.1921C30.9382 87.6286 30.8802 88.0012 30.7643 88.31C30.6483 88.6175 30.4809 88.8527 30.262 89.0155C30.0431 89.1771 29.7799 89.2579 29.4725 89.2579ZM29.4725 88.7361C29.7435 88.7361 29.9552 88.6038 30.1076 88.3393C30.2613 88.0748 30.3382 87.6924 30.3382 87.1921C30.3382 86.8599 30.303 86.5791 30.2327 86.3498C30.1636 86.1192 30.064 85.9446 29.9337 85.8261C29.8047 85.7062 29.651 85.6463 29.4725 85.6463C29.2028 85.6463 28.991 85.7792 28.8373 86.045C28.6836 86.3107 28.606 86.6931 28.6047 87.1921C28.6047 87.5257 28.6393 87.8077 28.7083 88.0384C28.7787 88.2677 28.8783 88.4416 29.0073 88.5602C29.1363 88.6774 29.2914 88.7361 29.4725 88.7361Z" fill="#464646"/>
<path d="M17.167 110.9V105.897H17.4875V110.9H17.167ZM18.1696 107.448C18.1487 107.263 18.0627 107.12 17.9116 107.018C17.7605 106.916 17.5702 106.864 17.3409 106.864C17.1768 106.864 17.0348 106.89 16.9149 106.942C16.795 106.993 16.7019 107.063 16.6354 107.153C16.5703 107.242 16.5377 107.343 16.5377 107.456C16.5377 107.551 16.5599 107.633 16.6042 107.702C16.6498 107.772 16.709 107.829 16.782 107.876C16.8563 107.922 16.9357 107.96 17.0204 107.992C17.1051 108.022 17.1865 108.046 17.2647 108.066L17.6556 108.168C17.7833 108.199 17.9142 108.241 18.0484 108.295C18.1826 108.348 18.307 108.418 18.4217 108.506C18.5363 108.593 18.6288 108.701 18.6992 108.83C18.7708 108.959 18.8067 109.113 18.8067 109.293C18.8067 109.52 18.748 109.721 18.6308 109.897C18.5148 110.073 18.3461 110.212 18.1246 110.313C17.9044 110.415 17.638 110.466 17.3253 110.466C17.0256 110.466 16.7664 110.418 16.5475 110.323C16.3286 110.228 16.1573 110.093 16.0335 109.919C15.9097 109.743 15.8413 109.534 15.8283 109.293H16.4341C16.4459 109.438 16.4928 109.558 16.5748 109.655C16.6582 109.75 16.7644 109.821 16.8934 109.868C17.0237 109.913 17.1664 109.936 17.3214 109.936C17.4921 109.936 17.6439 109.91 17.7768 109.856C17.9109 109.801 18.0165 109.726 18.0933 109.629C18.1702 109.532 18.2087 109.418 18.2087 109.287C18.2087 109.169 18.1748 109.072 18.107 108.996C18.0406 108.921 17.95 108.858 17.8354 108.809C17.722 108.759 17.5937 108.715 17.4504 108.678L16.9774 108.549C16.6569 108.461 16.4029 108.333 16.2153 108.164C16.0289 107.994 15.9358 107.77 15.9358 107.491C15.9358 107.261 15.9983 107.059 16.1234 106.888C16.2485 106.716 16.4178 106.582 16.6315 106.487C16.8452 106.39 17.0862 106.342 17.3546 106.342C17.6256 106.342 17.8647 106.39 18.0719 106.485C18.2803 106.58 18.4445 106.711 18.5643 106.878C18.6842 107.043 18.7467 107.233 18.752 107.448H18.1696ZM20.5195 110.454C20.2746 110.454 20.0544 110.407 19.859 110.313C19.6648 110.218 19.5098 110.088 19.3938 109.923C19.2779 109.757 19.216 109.568 19.2082 109.356H19.7945C19.8088 109.528 19.885 109.669 20.0231 109.78C20.1612 109.891 20.3267 109.946 20.5195 109.946C20.6733 109.946 20.8094 109.911 20.928 109.84C21.0479 109.769 21.1417 109.67 21.2094 109.545C21.2785 109.42 21.313 109.278 21.313 109.117C21.313 108.955 21.2778 108.809 21.2075 108.682C21.1371 108.554 21.04 108.454 20.9163 108.381C20.7938 108.308 20.6531 108.271 20.4941 108.269C20.373 108.269 20.2511 108.29 20.1287 108.332C20.0062 108.373 19.9072 108.428 19.8316 108.496L19.2785 108.414L19.5033 106.397H21.7039V106.915H20.0056L19.8785 108.035H19.902C19.9801 107.959 20.0837 107.896 20.2127 107.845C20.343 107.794 20.4824 107.769 20.6309 107.769C20.8746 107.769 21.0915 107.827 21.2817 107.943C21.4732 108.059 21.6237 108.217 21.7332 108.418C21.8439 108.617 21.8986 108.846 21.8973 109.106C21.8986 109.365 21.84 109.596 21.7214 109.799C21.6042 110.003 21.4413 110.163 21.2329 110.28C21.0257 110.396 20.7879 110.454 20.5195 110.454ZM23.7294 110.466C23.4206 110.465 23.1568 110.383 22.9379 110.222C22.719 110.06 22.5516 109.825 22.4356 109.516C22.3197 109.207 22.2617 108.835 22.2617 108.4C22.2617 107.966 22.3197 107.596 22.4356 107.288C22.5529 106.981 22.721 106.746 22.9399 106.585C23.16 106.423 23.4232 106.342 23.7294 106.342C24.0356 106.342 24.2981 106.424 24.517 106.587C24.7359 106.748 24.9033 106.983 25.0193 107.29C25.1365 107.596 25.1951 107.966 25.1951 108.4C25.1951 108.837 25.1372 109.209 25.0212 109.518C24.9053 109.825 24.7378 110.061 24.5189 110.224C24.3001 110.385 24.0369 110.466 23.7294 110.466ZM23.7294 109.944C24.0004 109.944 24.2121 109.812 24.3646 109.547C24.5183 109.283 24.5952 108.9 24.5952 108.4C24.5952 108.068 24.56 107.787 24.4896 107.558C24.4206 107.327 24.3209 107.153 24.1906 107.034C24.0616 106.914 23.9079 106.854 23.7294 106.854C23.4597 106.854 23.248 106.987 23.0943 107.253C22.9405 107.519 22.863 107.901 22.8617 108.4C22.8617 108.734 22.8962 109.016 22.9653 109.246C23.0356 109.476 23.1353 109.65 23.2643 109.768C23.3933 109.885 23.5483 109.944 23.7294 109.944ZM27.0067 110.466C26.6979 110.465 26.4341 110.383 26.2152 110.222C25.9963 110.06 25.8289 109.825 25.7129 109.516C25.597 109.207 25.539 108.835 25.539 108.4C25.539 107.966 25.597 107.596 25.7129 107.288C25.8302 106.981 25.9983 106.746 26.2172 106.585C26.4373 106.423 26.7005 106.342 27.0067 106.342C27.3129 106.342 27.5754 106.424 27.7943 106.587C28.0132 106.748 28.1806 106.983 28.2965 107.29C28.4138 107.596 28.4724 107.966 28.4724 108.4C28.4724 108.837 28.4145 109.209 28.2985 109.518C28.1825 109.825 28.0151 110.061 27.7962 110.224C27.5774 110.385 27.3142 110.466 27.0067 110.466ZM27.0067 109.944C27.2777 109.944 27.4894 109.812 27.6418 109.547C27.7956 109.283 27.8725 108.9 27.8725 108.4C27.8725 108.068 27.8373 107.787 27.7669 107.558C27.6979 107.327 27.5982 107.153 27.4679 107.034C27.3389 106.914 27.1852 106.854 27.0067 106.854C26.737 106.854 26.5253 106.987 26.3715 107.253C26.2178 107.519 26.1403 107.901 26.139 108.4C26.139 108.734 26.1735 109.016 26.2426 109.246C26.3129 109.476 26.4126 109.65 26.5416 109.768C26.6706 109.885 26.8256 109.944 27.0067 109.944Z" fill="#464646"/>
<path d="M17.167 132.108V127.105H17.4875V132.108H17.167ZM18.1696 128.656C18.1487 128.471 18.0627 128.328 17.9116 128.226C17.7605 128.124 17.5702 128.072 17.3409 128.072C17.1768 128.072 17.0348 128.098 16.9149 128.15C16.795 128.201 16.7019 128.271 16.6354 128.361C16.5703 128.45 16.5377 128.551 16.5377 128.664C16.5377 128.759 16.5599 128.841 16.6042 128.91C16.6498 128.98 16.709 129.037 16.782 129.084C16.8563 129.13 16.9357 129.168 17.0204 129.2C17.1051 129.23 17.1865 129.254 17.2647 129.274L17.6556 129.376C17.7833 129.407 17.9142 129.449 18.0484 129.503C18.1826 129.556 18.307 129.626 18.4217 129.714C18.5363 129.801 18.6288 129.909 18.6992 130.038C18.7708 130.167 18.8067 130.321 18.8067 130.501C18.8067 130.728 18.748 130.929 18.6308 131.105C18.5148 131.281 18.3461 131.42 18.1246 131.521C17.9044 131.623 17.638 131.674 17.3253 131.674C17.0256 131.674 16.7664 131.626 16.5475 131.531C16.3286 131.436 16.1573 131.301 16.0335 131.127C15.9097 130.951 15.8413 130.742 15.8283 130.501H16.4341C16.4459 130.646 16.4928 130.766 16.5748 130.863C16.6582 130.958 16.7644 131.029 16.8934 131.076C17.0237 131.121 17.1664 131.144 17.3214 131.144C17.4921 131.144 17.6439 131.118 17.7768 131.064C17.9109 131.009 18.0165 130.934 18.0933 130.837C18.1702 130.74 18.2087 130.626 18.2087 130.495C18.2087 130.377 18.1748 130.28 18.107 130.204C18.0406 130.129 17.95 130.066 17.8354 130.017C17.722 129.967 17.5937 129.923 17.4504 129.886L16.9774 129.757C16.6569 129.669 16.4029 129.541 16.2153 129.372C16.0289 129.202 15.9358 128.978 15.9358 128.699C15.9358 128.469 15.9983 128.267 16.1234 128.096C16.2485 127.924 16.4178 127.79 16.6315 127.695C16.8452 127.598 17.0862 127.55 17.3546 127.55C17.6256 127.55 17.8647 127.598 18.0719 127.693C18.2803 127.788 18.4445 127.919 18.5643 128.086C18.6842 128.251 18.7467 128.441 18.752 128.656H18.1696ZM19.1984 131.607V131.17L20.5528 129.766C20.6974 129.614 20.8166 129.48 20.9104 129.366C21.0055 129.25 21.0765 129.14 21.1234 129.036C21.1703 128.931 21.1938 128.821 21.1938 128.703C21.1938 128.57 21.1625 128.456 21.1 128.359C21.0374 128.262 20.9521 128.187 20.844 128.135C20.7358 128.081 20.614 128.054 20.4785 128.054C20.3352 128.054 20.2101 128.084 20.1033 128.142C19.9964 128.201 19.9143 128.284 19.857 128.391C19.7997 128.497 19.771 128.623 19.771 128.766H19.1945C19.1945 128.522 19.2505 128.309 19.3626 128.127C19.4746 127.944 19.6284 127.803 19.8238 127.703C20.0192 127.601 20.2414 127.55 20.4902 127.55C20.7417 127.55 20.9632 127.6 21.1547 127.701C21.3475 127.8 21.498 127.935 21.6061 128.107C21.7143 128.278 21.7683 128.471 21.7683 128.686C21.7683 128.834 21.7403 128.98 21.6843 129.122C21.6296 129.264 21.5338 129.422 21.397 129.596C21.2602 129.77 21.07 129.98 20.8264 130.228L20.031 131.06V131.09H21.8328V131.607H19.1984ZM23.6918 131.674C23.383 131.673 23.1192 131.591 22.9003 131.43C22.6814 131.268 22.514 131.033 22.398 130.724C22.2821 130.415 22.2241 130.043 22.2241 129.608C22.2241 129.174 22.2821 128.804 22.398 128.496C22.5153 128.189 22.6834 127.954 22.9022 127.793C23.1224 127.631 23.3856 127.55 23.6918 127.55C23.998 127.55 24.2605 127.632 24.4794 127.795C24.6983 127.956 24.8657 128.191 24.9816 128.498C25.0989 128.804 25.1575 129.174 25.1575 129.608C25.1575 130.045 25.0995 130.417 24.9836 130.726C24.8676 131.034 24.7002 131.269 24.4813 131.432C24.2624 131.593 23.9993 131.674 23.6918 131.674ZM23.6918 131.152C23.9628 131.152 24.1745 131.02 24.3269 130.755C24.4807 130.491 24.5575 130.108 24.5575 129.608C24.5575 129.276 24.5224 128.995 24.452 128.766C24.383 128.535 24.2833 128.361 24.153 128.242C24.024 128.122 23.8703 128.062 23.6918 128.062C23.4221 128.062 23.2104 128.195 23.0566 128.461C22.9029 128.727 22.8254 129.109 22.8241 129.608C22.8241 129.942 22.8586 130.224 22.9276 130.454C22.998 130.684 23.0977 130.858 23.2267 130.976C23.3556 131.093 23.5107 131.152 23.6918 131.152ZM26.9691 131.674C26.6603 131.673 26.3965 131.591 26.1776 131.43C25.9587 131.268 25.7913 131.033 25.6753 130.724C25.5594 130.415 25.5014 130.043 25.5014 129.608C25.5014 129.174 25.5594 128.804 25.6753 128.496C25.7926 128.189 25.9606 127.954 26.1795 127.793C26.3997 127.631 26.6629 127.55 26.9691 127.55C27.2753 127.55 27.5378 127.632 27.7567 127.795C27.9755 127.956 28.143 128.191 28.2589 128.498C28.3762 128.804 28.4348 129.174 28.4348 129.608C28.4348 130.045 28.3768 130.417 28.2609 130.726C28.1449 131.034 27.9775 131.269 27.7586 131.432C27.5397 131.593 27.2766 131.674 26.9691 131.674ZM26.9691 131.152C27.2401 131.152 27.4518 131.02 27.6042 130.755C27.758 130.491 27.8348 130.108 27.8348 129.608C27.8348 129.276 27.7997 128.995 27.7293 128.766C27.6603 128.535 27.5606 128.361 27.4303 128.242C27.3013 128.122 27.1476 128.062 26.9691 128.062C26.6994 128.062 26.4877 128.195 26.3339 128.461C26.1802 128.727 26.1027 129.109 26.1014 129.608C26.1014 129.942 26.1359 130.224 26.2049 130.454C26.2753 130.684 26.375 130.858 26.5039 130.976C26.6329 131.093 26.788 131.152 26.9691 131.152Z" fill="#464646"/>
<path d="M17.167 153.316V148.313H17.4875V153.316H17.167ZM18.1696 149.864C18.1487 149.679 18.0627 149.536 17.9116 149.434C17.7605 149.332 17.5702 149.28 17.3409 149.28C17.1768 149.28 17.0348 149.306 16.9149 149.358C16.795 149.409 16.7019 149.479 16.6354 149.569C16.5703 149.658 16.5377 149.759 16.5377 149.872C16.5377 149.967 16.5599 150.049 16.6042 150.118C16.6498 150.188 16.709 150.246 16.782 150.292C16.8563 150.338 16.9357 150.376 17.0204 150.408C17.1051 150.438 17.1865 150.462 17.2647 150.482L17.6556 150.584C17.7833 150.615 17.9142 150.657 18.0484 150.711C18.1826 150.764 18.307 150.834 18.4217 150.922C18.5363 151.009 18.6288 151.117 18.6992 151.246C18.7708 151.375 18.8067 151.529 18.8067 151.709C18.8067 151.936 18.748 152.137 18.6308 152.313C18.5148 152.489 18.3461 152.628 18.1246 152.729C17.9044 152.831 17.638 152.882 17.3253 152.882C17.0256 152.882 16.7664 152.834 16.5475 152.739C16.3286 152.644 16.1573 152.509 16.0335 152.335C15.9097 152.159 15.8413 151.95 15.8283 151.709H16.4341C16.4459 151.854 16.4928 151.974 16.5748 152.071C16.6582 152.166 16.7644 152.237 16.8934 152.284C17.0237 152.329 17.1664 152.352 17.3214 152.352C17.4921 152.352 17.6439 152.326 17.7768 152.272C17.9109 152.217 18.0165 152.142 18.0933 152.045C18.1702 151.948 18.2087 151.834 18.2087 151.703C18.2087 151.585 18.1748 151.488 18.107 151.412C18.0406 151.337 17.95 151.274 17.8354 151.225C17.722 151.175 17.5937 151.131 17.4504 151.094L16.9774 150.965C16.6569 150.877 16.4029 150.749 16.2153 150.58C16.0289 150.41 15.9358 150.186 15.9358 149.907C15.9358 149.677 15.9983 149.476 16.1234 149.304C16.2485 149.132 16.4178 148.998 16.6315 148.903C16.8452 148.806 17.0862 148.758 17.3546 148.758C17.6256 148.758 17.8647 148.806 18.0719 148.901C18.2803 148.996 18.4445 149.127 18.5643 149.294C18.6842 149.459 18.7467 149.649 18.752 149.864H18.1696ZM20.7169 148.813V152.815H20.1111V149.419H20.0876L19.13 150.044V149.466L20.1287 148.813H20.7169ZM22.9179 152.882C22.6091 152.881 22.3453 152.799 22.1264 152.638C21.9075 152.476 21.7401 152.241 21.6241 151.932C21.5082 151.623 21.4502 151.251 21.4502 150.816C21.4502 150.382 21.5082 150.012 21.6241 149.704C21.7414 149.397 21.9094 149.162 22.1283 149.001C22.3485 148.839 22.6117 148.758 22.9179 148.758C23.2241 148.758 23.4866 148.84 23.7055 149.003C23.9243 149.164 24.0918 149.399 24.2077 149.706C24.325 150.012 24.3836 150.382 24.3836 150.816C24.3836 151.253 24.3256 151.625 24.2097 151.934C24.0937 152.242 23.9263 152.477 23.7074 152.64C23.4885 152.801 23.2254 152.882 22.9179 152.882ZM22.9179 152.36C23.1889 152.36 23.4006 152.228 23.553 151.963C23.7068 151.699 23.7836 151.316 23.7836 150.816C23.7836 150.484 23.7485 150.203 23.6781 149.974C23.6091 149.743 23.5094 149.569 23.3791 149.45C23.2501 149.33 23.0964 149.27 22.9179 149.27C22.6482 149.27 22.4365 149.403 22.2827 149.669C22.129 149.935 22.0515 150.317 22.0502 150.816C22.0502 151.15 22.0847 151.432 22.1537 151.662C22.2241 151.892 22.3238 152.066 22.4527 152.184C22.5817 152.301 22.7368 152.36 22.9179 152.36ZM26.1952 152.882C25.8864 152.881 25.6226 152.799 25.4037 152.638C25.1848 152.476 25.0174 152.241 24.9014 151.932C24.7855 151.623 24.7275 151.251 24.7275 150.816C24.7275 150.382 24.7855 150.012 24.9014 149.704C25.0187 149.397 25.1867 149.162 25.4056 149.001C25.6258 148.839 25.889 148.758 26.1952 148.758C26.5013 148.758 26.7639 148.84 26.9828 149.003C27.2016 149.164 27.3691 149.399 27.485 149.706C27.6023 150.012 27.6609 150.382 27.6609 150.816C27.6609 151.253 27.6029 151.625 27.487 151.934C27.371 152.242 27.2036 152.477 26.9847 152.64C26.7658 152.801 26.5026 152.882 26.1952 152.882ZM26.1952 152.36C26.4662 152.36 26.6779 152.228 26.8303 151.963C26.9841 151.699 27.0609 151.316 27.0609 150.816C27.0609 150.484 27.0257 150.203 26.9554 149.974C26.8863 149.743 26.7867 149.569 26.6564 149.45C26.5274 149.33 26.3737 149.27 26.1952 149.27C25.9255 149.27 25.7138 149.403 25.56 149.669C25.4063 149.935 25.3288 150.317 25.3274 150.816C25.3274 151.15 25.362 151.432 25.431 151.662C25.5014 151.892 25.6011 152.066 25.73 152.184C25.859 152.301 26.0141 152.36 26.1952 152.36Z" fill="#464646"/>
<line x1="33.8856" y1="87.4967" x2="241.087" y2="87.4967" stroke="#F2F2F2" stroke-width="0.275168" stroke-linecap="round" stroke-dasharray="5.5 4.4"/>
<line x1="33.8856" y1="108.409" x2="241.087" y2="108.409" stroke="#F2F2F2" stroke-width="0.275168" stroke-linecap="round" stroke-dasharray="5.5 4.4"/>
<line x1="33.8856" y1="129.322" x2="241.087" y2="129.322" stroke="#F2F2F2" stroke-width="0.275168" stroke-linecap="round" stroke-dasharray="5.5 4.4"/>
<line x1="33.8856" y1="150.235" x2="241.087" y2="150.235" stroke="#F2F2F2" stroke-width="0.275168" stroke-linecap="round" stroke-dasharray="5.5 4.4"/>
<g filter="url(#filter0_d_937_6837)">
<rect x="107.866" y="88.6948" width="115.425" height="39.0641" rx="5.62565" fill="white" shape-rendering="crispEdges"/>
<rect x="108.217" y="89.0464" width="114.722" height="38.3609" rx="5.27405" stroke="#F9F9F9" stroke-width="0.703207" shape-rendering="crispEdges"/>
<path d="M117.537 101.32V100.871L119.225 99.0229C119.423 98.8065 119.587 98.6184 119.715 98.4585C119.843 98.2971 119.938 98.1456 119.999 98.0041C120.063 97.8609 120.094 97.7111 120.094 97.5546C120.094 97.3748 120.051 97.2191 119.964 97.0876C119.88 96.9561 119.763 96.8545 119.615 96.7829C119.467 96.7113 119.3 96.6756 119.115 96.6756C118.919 96.6756 118.748 96.7163 118.601 96.7979C118.456 96.8778 118.344 96.9902 118.264 97.135C118.186 97.2799 118.147 97.4497 118.147 97.6445H117.557C117.557 97.3448 117.626 97.0818 117.764 96.8554C117.903 96.6289 118.091 96.4525 118.329 96.3259C118.569 96.1994 118.837 96.1362 119.135 96.1362C119.435 96.1362 119.701 96.1994 119.932 96.3259C120.163 96.4525 120.345 96.6231 120.476 96.8379C120.608 97.0526 120.674 97.2915 120.674 97.5546C120.674 97.7427 120.64 97.9266 120.571 98.1064C120.505 98.2846 120.388 98.4835 120.222 98.7033C120.057 98.9214 119.828 99.1877 119.535 99.5024L118.386 100.731V100.771H120.764V101.32H117.537ZM123.212 96.1362C123.422 96.1378 123.632 96.1778 123.841 96.256C124.051 96.3343 124.243 96.4641 124.416 96.6456C124.589 96.8254 124.728 97.0709 124.833 97.3823C124.938 97.6936 124.99 98.084 124.99 98.5534C124.99 99.0079 124.947 99.4116 124.86 99.7646C124.775 100.116 124.652 100.412 124.491 100.654C124.331 100.895 124.136 101.078 123.906 101.203C123.678 101.328 123.42 101.39 123.132 101.39C122.846 101.39 122.59 101.334 122.366 101.22C122.142 101.106 121.959 100.947 121.816 100.743C121.675 100.539 121.584 100.301 121.544 100.032H122.153C122.208 100.267 122.317 100.46 122.48 100.614C122.645 100.765 122.863 100.841 123.132 100.841C123.527 100.841 123.838 100.669 124.066 100.324C124.296 99.9793 124.411 99.4924 124.411 98.8631H124.371C124.278 99.0029 124.167 99.1236 124.039 99.2252C123.91 99.3267 123.768 99.405 123.612 99.4599C123.455 99.5148 123.289 99.5423 123.112 99.5423C122.819 99.5423 122.55 99.4699 122.306 99.3251C122.063 99.1786 121.868 98.978 121.721 98.7232C121.576 98.4669 121.504 98.1739 121.504 97.8442C121.504 97.5313 121.574 97.2449 121.714 96.9852C121.855 96.7238 122.053 96.5157 122.308 96.3609C122.565 96.2061 122.866 96.1312 123.212 96.1362ZM123.212 96.6855C123.002 96.6855 122.813 96.738 122.645 96.8429C122.479 96.9461 122.346 97.0859 122.248 97.2624C122.152 97.4372 122.103 97.6311 122.103 97.8442C122.103 98.0573 122.15 98.2513 122.243 98.4261C122.338 98.5992 122.467 98.7374 122.63 98.8406C122.795 98.9422 122.982 98.9929 123.192 98.9929C123.35 98.9929 123.498 98.9621 123.634 98.9005C123.771 98.8373 123.89 98.7515 123.991 98.6433C124.094 98.5335 124.175 98.4094 124.233 98.2713C124.292 98.1314 124.321 97.9857 124.321 97.8342C124.321 97.6345 124.273 97.4472 124.176 97.2724C124.081 97.0976 123.95 96.9561 123.781 96.8479C123.615 96.7396 123.425 96.6855 123.212 96.6855ZM129.576 96.2061H130.195V99.862C130.195 100.188 130.135 100.465 130.015 100.694C129.895 100.922 129.726 101.095 129.508 101.213C129.29 101.331 129.033 101.39 128.737 101.39C128.457 101.39 128.208 101.339 127.99 101.238C127.772 101.135 127.6 100.988 127.476 100.798C127.351 100.609 127.288 100.383 127.288 100.122H127.898C127.898 100.267 127.933 100.393 128.005 100.501C128.078 100.608 128.178 100.691 128.305 100.751C128.431 100.811 128.575 100.841 128.737 100.841C128.915 100.841 129.066 100.803 129.191 100.728C129.316 100.654 129.411 100.544 129.476 100.399C129.542 100.252 129.576 100.073 129.576 99.862V96.2061ZM133.562 99.7521V97.4846H134.152V101.32H133.562V100.671H133.523C133.433 100.866 133.293 101.031 133.103 101.168C132.913 101.303 132.673 101.37 132.384 101.37C132.144 101.37 131.931 101.318 131.745 101.213C131.558 101.106 131.412 100.947 131.305 100.733C131.198 100.519 131.145 100.248 131.145 99.9219V97.4846H131.735V99.8819C131.735 100.162 131.813 100.385 131.969 100.551C132.127 100.718 132.329 100.801 132.574 100.801C132.72 100.801 132.869 100.763 133.021 100.689C133.174 100.614 133.302 100.499 133.405 100.344C133.51 100.189 133.562 99.9918 133.562 99.7521ZM135.61 96.2061V101.32H135.02V96.2061H135.61ZM136.858 102.759C136.758 102.759 136.669 102.75 136.59 102.734C136.512 102.719 136.458 102.704 136.428 102.689L136.578 102.169C136.721 102.206 136.848 102.219 136.957 102.209C137.067 102.199 137.165 102.15 137.25 102.062C137.336 101.975 137.415 101.835 137.487 101.64L137.597 101.34L136.178 97.4846H136.818L137.876 100.541H137.916L138.975 97.4846H139.614L137.986 101.88C137.913 102.078 137.822 102.242 137.714 102.372C137.606 102.503 137.48 102.601 137.337 102.664C137.196 102.727 137.036 102.759 136.858 102.759ZM143.606 101.39C143.23 101.39 142.91 101.288 142.645 101.083C142.38 100.877 142.178 100.578 142.038 100.187C141.898 99.7937 141.828 99.3192 141.828 98.7632C141.828 98.2105 141.898 97.7385 142.038 97.3473C142.18 96.9544 142.383 96.6547 142.647 96.4483C142.914 96.2402 143.233 96.1362 143.606 96.1362C143.979 96.1362 144.298 96.2402 144.563 96.4483C144.829 96.6547 145.032 96.9544 145.172 97.3473C145.314 97.7385 145.384 98.2105 145.384 98.7632C145.384 99.3192 145.314 99.7937 145.175 100.187C145.035 100.578 144.832 100.877 144.568 101.083C144.303 101.288 143.983 101.39 143.606 101.39ZM143.606 100.841C143.979 100.841 144.269 100.661 144.475 100.301C144.682 99.9419 144.785 99.4291 144.785 98.7632C144.785 98.3204 144.738 97.9433 144.643 97.632C144.549 97.3207 144.415 97.0834 144.238 96.9203C144.063 96.7571 143.853 96.6756 143.606 96.6756C143.237 96.6756 142.948 96.8578 142.74 97.2224C142.532 97.5854 142.428 98.0989 142.428 98.7632C142.428 99.206 142.474 99.5823 142.567 99.8919C142.661 100.202 142.795 100.437 142.97 100.599C143.146 100.76 143.358 100.841 143.606 100.841ZM147.79 101.39C147.414 101.39 147.094 101.288 146.829 101.083C146.564 100.877 146.362 100.578 146.222 100.187C146.082 99.7937 146.012 99.3192 146.012 98.7632C146.012 98.2105 146.082 97.7385 146.222 97.3473C146.364 96.9544 146.567 96.6547 146.831 96.4483C147.098 96.2402 147.417 96.1362 147.79 96.1362C148.163 96.1362 148.482 96.2402 148.747 96.4483C149.013 96.6547 149.216 96.9544 149.356 97.3473C149.498 97.7385 149.568 98.2105 149.568 98.7632C149.568 99.3192 149.498 99.7937 149.359 100.187C149.219 100.578 149.017 100.877 148.752 101.083C148.487 101.288 148.167 101.39 147.79 101.39ZM147.79 100.841C148.163 100.841 148.453 100.661 148.659 100.301C148.866 99.9419 148.969 99.4291 148.969 98.7632C148.969 98.3204 148.922 97.9433 148.827 97.632C148.734 97.3207 148.599 97.0834 148.422 96.9203C148.247 96.7571 148.037 96.6756 147.79 96.6756C147.421 96.6756 147.132 96.8578 146.924 97.2224C146.716 97.5854 146.612 98.0989 146.612 98.7632C146.612 99.206 146.658 99.5823 146.752 99.8919C146.845 100.202 146.979 100.437 147.154 100.599C147.33 100.76 147.542 100.841 147.79 100.841ZM150.746 100.666C150.623 100.666 150.517 100.622 150.429 100.534C150.34 100.445 150.296 100.34 150.296 100.217C150.296 100.093 150.34 99.9876 150.429 99.8994C150.517 99.8112 150.623 99.7671 150.746 99.7671C150.869 99.7671 150.975 99.8112 151.063 99.8994C151.151 99.9876 151.195 100.093 151.195 100.217C151.195 100.298 151.175 100.373 151.133 100.441C151.093 100.51 151.039 100.564 150.971 100.606C150.904 100.646 150.829 100.666 150.746 100.666ZM150.746 98.079C150.623 98.079 150.517 98.0349 150.429 97.9466C150.34 97.8584 150.296 97.7527 150.296 97.6295C150.296 97.5063 150.34 97.4006 150.429 97.3123C150.517 97.2241 150.623 97.18 150.746 97.18C150.869 97.18 150.975 97.2241 151.063 97.3123C151.151 97.4006 151.195 97.5063 151.195 97.6295C151.195 97.7111 151.175 97.786 151.133 97.8542C151.093 97.9225 151.039 97.9774 150.971 98.019C150.904 98.059 150.829 98.079 150.746 98.079ZM153.7 101.39C153.324 101.39 153.003 101.288 152.739 101.083C152.474 100.877 152.272 100.578 152.132 100.187C151.992 99.7937 151.922 99.3192 151.922 98.7632C151.922 98.2105 151.992 97.7385 152.132 97.3473C152.273 96.9544 152.476 96.6547 152.741 96.4483C153.008 96.2402 153.327 96.1362 153.7 96.1362C154.073 96.1362 154.392 96.2402 154.657 96.4483C154.923 96.6547 155.126 96.9544 155.266 97.3473C155.407 97.7385 155.478 98.2105 155.478 98.7632C155.478 99.3192 155.408 99.7937 155.268 100.187C155.128 100.578 154.926 100.877 154.662 101.083C154.397 101.288 154.076 101.39 153.7 101.39ZM153.7 100.841C154.073 100.841 154.363 100.661 154.569 100.301C154.776 99.9419 154.879 99.4291 154.879 98.7632C154.879 98.3204 154.831 97.9433 154.736 97.632C154.643 97.3207 154.508 97.0834 154.332 96.9203C154.157 96.7571 153.946 96.6756 153.7 96.6756C153.331 96.6756 153.042 96.8578 152.834 97.2224C152.625 97.5854 152.521 98.0989 152.521 98.7632C152.521 99.206 152.568 99.5823 152.661 99.8919C152.754 100.202 152.889 100.437 153.063 100.599C153.24 100.76 153.452 100.841 153.7 100.841ZM157.884 101.39C157.508 101.39 157.187 101.288 156.923 101.083C156.658 100.877 156.456 100.578 156.316 100.187C156.176 99.7937 156.106 99.3192 156.106 98.7632C156.106 98.2105 156.176 97.7385 156.316 97.3473C156.457 96.9544 156.661 96.6547 156.925 96.4483C157.192 96.2402 157.511 96.1362 157.884 96.1362C158.257 96.1362 158.576 96.2402 158.841 96.4483C159.107 96.6547 159.31 96.9544 159.45 97.3473C159.591 97.7385 159.662 98.2105 159.662 98.7632C159.662 99.3192 159.592 99.7937 159.452 100.187C159.313 100.578 159.11 100.877 158.846 101.083C158.581 101.288 158.26 101.39 157.884 101.39ZM157.884 100.841C158.257 100.841 158.547 100.661 158.753 100.301C158.96 99.9419 159.063 99.4291 159.063 98.7632C159.063 98.3204 159.015 97.9433 158.92 97.632C158.827 97.3207 158.692 97.0834 158.516 96.9203C158.341 96.7571 158.131 96.6756 157.884 96.6756C157.515 96.6756 157.226 96.8578 157.018 97.2224C156.81 97.5854 156.705 98.0989 156.705 98.7632C156.705 99.206 156.752 99.5823 156.845 99.8919C156.939 100.202 157.073 100.437 157.247 100.599C157.424 100.76 157.636 100.841 157.884 100.841Z" fill="#7A7A7A"/>
<path d="M117.794 115.32V114.425L120.563 111.557C120.859 111.245 121.103 110.972 121.294 110.737C121.489 110.5 121.634 110.275 121.73 110.062C121.826 109.849 121.874 109.623 121.874 109.383C121.874 109.111 121.81 108.877 121.682 108.68C121.554 108.48 121.38 108.327 121.159 108.22C120.938 108.111 120.689 108.057 120.411 108.057C120.118 108.057 119.863 108.116 119.644 108.236C119.426 108.356 119.258 108.525 119.141 108.744C119.024 108.962 118.965 109.218 118.965 109.511H117.786C117.786 109.013 117.901 108.577 118.13 108.204C118.359 107.831 118.673 107.542 119.073 107.337C119.473 107.13 119.927 107.026 120.435 107.026C120.95 107.026 121.402 107.128 121.794 107.333C122.188 107.536 122.496 107.813 122.717 108.164C122.938 108.513 123.049 108.908 123.049 109.347C123.049 109.651 122.991 109.948 122.877 110.238C122.765 110.528 122.569 110.852 122.289 111.209C122.01 111.563 121.621 111.993 121.123 112.499L119.497 114.202V114.262H123.18V115.32H117.794ZM124.695 115.32V114.425L127.464 111.557C127.759 111.245 128.003 110.972 128.195 110.737C128.389 110.5 128.534 110.275 128.63 110.062C128.726 109.849 128.774 109.623 128.774 109.383C128.774 109.111 128.71 108.877 128.582 108.68C128.454 108.48 128.28 108.327 128.059 108.22C127.838 108.111 127.589 108.057 127.312 108.057C127.019 108.057 126.763 108.116 126.545 108.236C126.326 108.356 126.158 108.525 126.041 108.744C125.924 108.962 125.865 109.218 125.865 109.511H124.687C124.687 109.013 124.801 108.577 125.03 108.204C125.259 107.831 125.574 107.542 125.973 107.337C126.373 107.13 126.827 107.026 127.336 107.026C127.85 107.026 128.303 107.128 128.694 107.333C129.088 107.536 129.396 107.813 129.617 108.164C129.838 108.513 129.949 108.908 129.949 109.347C129.949 109.651 129.891 109.948 129.777 110.238C129.665 110.528 129.469 110.852 129.19 111.209C128.91 111.563 128.521 111.993 128.023 112.499L126.397 114.202V114.262H130.081V115.32H124.695ZM134.444 115.456C133.812 115.453 133.273 115.287 132.825 114.957C132.378 114.626 132.036 114.146 131.799 113.514C131.562 112.883 131.443 112.123 131.443 111.233C131.443 110.346 131.562 109.588 131.799 108.959C132.038 108.331 132.382 107.851 132.829 107.521C133.28 107.191 133.818 107.026 134.444 107.026C135.07 107.026 135.606 107.192 136.054 107.525C136.501 107.855 136.844 108.335 137.081 108.963C137.32 109.589 137.44 110.346 137.44 111.233C137.44 112.125 137.322 112.887 137.085 113.518C136.848 114.147 136.505 114.628 136.058 114.961C135.61 115.291 135.072 115.456 134.444 115.456ZM134.444 114.389C134.998 114.389 135.431 114.119 135.742 113.578C136.056 113.038 136.214 112.256 136.214 111.233C136.214 110.554 136.142 109.98 135.998 109.511C135.857 109.039 135.653 108.682 135.387 108.44C135.123 108.195 134.809 108.072 134.444 108.072C133.892 108.072 133.459 108.344 133.145 108.888C132.831 109.431 132.672 110.213 132.67 111.233C132.67 111.915 132.74 112.492 132.881 112.963C133.025 113.432 133.229 113.787 133.493 114.03C133.756 114.269 134.073 114.389 134.444 114.389ZM140.131 114.202L140.071 114.637C140.031 114.957 139.963 115.29 139.868 115.636C139.774 115.985 139.677 116.309 139.576 116.607C139.477 116.905 139.396 117.142 139.332 117.318H138.485C138.52 117.153 138.568 116.929 138.629 116.647C138.69 116.367 138.75 116.054 138.809 115.708C138.867 115.362 138.911 115.009 138.941 114.649L138.981 114.202H140.131ZM144.354 115.432C143.806 115.432 143.316 115.338 142.884 115.149C142.455 114.959 142.116 114.697 141.865 114.361C141.618 114.023 141.484 113.632 141.466 113.187H142.72C142.736 113.429 142.818 113.64 142.964 113.818C143.113 113.994 143.308 114.13 143.547 114.226C143.787 114.321 144.053 114.369 144.346 114.369C144.669 114.369 144.954 114.313 145.202 114.202C145.452 114.09 145.648 113.934 145.789 113.734C145.93 113.532 146.001 113.299 146.001 113.035C146.001 112.761 145.93 112.519 145.789 112.312C145.65 112.101 145.447 111.936 145.178 111.816C144.911 111.696 144.589 111.636 144.211 111.636H143.519V110.63H144.211C144.514 110.63 144.781 110.575 145.01 110.466C145.241 110.357 145.423 110.205 145.553 110.01C145.684 109.813 145.749 109.583 145.749 109.319C145.749 109.066 145.692 108.846 145.577 108.66C145.465 108.471 145.305 108.323 145.098 108.216C144.893 108.11 144.65 108.057 144.37 108.057C144.104 108.057 143.855 108.106 143.623 108.204C143.394 108.3 143.208 108.439 143.064 108.62C142.92 108.798 142.843 109.013 142.832 109.263H141.638C141.651 108.821 141.781 108.432 142.029 108.096C142.279 107.761 142.61 107.498 143.02 107.309C143.43 107.12 143.886 107.026 144.386 107.026C144.911 107.026 145.364 107.128 145.745 107.333C146.128 107.536 146.424 107.806 146.632 108.144C146.842 108.483 146.946 108.853 146.944 109.255C146.946 109.713 146.818 110.102 146.56 110.422C146.304 110.741 145.963 110.956 145.537 111.065V111.129C146.081 111.212 146.501 111.427 146.8 111.776C147.101 112.125 147.25 112.558 147.247 113.075C147.25 113.525 147.125 113.929 146.872 114.285C146.621 114.642 146.279 114.923 145.845 115.129C145.411 115.331 144.914 115.432 144.354 115.432ZM148.586 113.722V112.723L152.122 107.138H152.909V108.608H152.409L149.88 112.611V112.675H154.727V113.722H148.586ZM152.465 115.32V113.418L152.473 112.963V107.138H153.644V115.32H152.465ZM156.119 115.32V114.425L158.888 111.557C159.184 111.245 159.427 110.972 159.619 110.737C159.814 110.5 159.959 110.275 160.055 110.062C160.151 109.849 160.199 109.623 160.199 109.383C160.199 109.111 160.135 108.877 160.007 108.68C159.879 108.48 159.704 108.327 159.483 108.22C159.262 108.111 159.013 108.057 158.736 108.057C158.443 108.057 158.188 108.116 157.969 108.236C157.751 108.356 157.583 108.525 157.466 108.744C157.348 108.962 157.29 109.218 157.29 109.511H156.111C156.111 109.013 156.226 108.577 156.455 108.204C156.684 107.831 156.998 107.542 157.398 107.337C157.797 107.13 158.251 107.026 158.76 107.026C159.274 107.026 159.727 107.128 160.119 107.333C160.513 107.536 160.821 107.813 161.042 108.164C161.263 108.513 161.373 108.908 161.373 109.347C161.373 109.651 161.316 109.948 161.201 110.238C161.09 110.528 160.894 110.852 160.614 111.209C160.334 111.563 159.946 111.993 159.447 112.499L157.821 114.202V114.262H161.505V115.32H156.119ZM163.823 115.396C163.604 115.396 163.416 115.319 163.259 115.164C163.102 115.007 163.023 114.818 163.023 114.597C163.023 114.379 163.102 114.192 163.259 114.038C163.416 113.881 163.604 113.802 163.823 113.802C164.041 113.802 164.229 113.881 164.386 114.038C164.543 114.192 164.622 114.379 164.622 114.597C164.622 114.744 164.584 114.878 164.51 115.001C164.438 115.121 164.342 115.216 164.222 115.288C164.102 115.36 163.969 115.396 163.823 115.396ZM166.273 115.32L169.845 108.256V108.196H165.713V107.138H171.123V108.232L167.563 115.32H166.273ZM175.194 115.432C174.829 115.427 174.469 115.36 174.115 115.232C173.763 115.105 173.444 114.891 173.156 114.593C172.868 114.295 172.638 113.894 172.465 113.39C172.294 112.887 172.209 112.258 172.209 111.505C172.209 110.791 172.28 110.157 172.421 109.603C172.565 109.049 172.771 108.581 173.04 108.2C173.309 107.817 173.634 107.525 174.015 107.325C174.396 107.126 174.823 107.026 175.298 107.026C175.785 107.026 176.218 107.122 176.596 107.313C176.974 107.505 177.281 107.77 177.515 108.108C177.752 108.447 177.903 108.832 177.967 109.263H176.748C176.665 108.922 176.502 108.644 176.256 108.428C176.011 108.212 175.692 108.104 175.298 108.104C174.698 108.104 174.231 108.365 173.895 108.888C173.562 109.41 173.394 110.135 173.392 111.065H173.452C173.593 110.833 173.766 110.636 173.971 110.474C174.179 110.309 174.411 110.182 174.666 110.094C174.925 110.004 175.196 109.958 175.481 109.958C175.955 109.958 176.384 110.074 176.768 110.306C177.154 110.535 177.462 110.852 177.691 111.257C177.92 111.662 178.034 112.125 178.034 112.647C178.034 113.169 177.916 113.642 177.679 114.066C177.444 114.489 177.114 114.825 176.688 115.073C176.262 115.318 175.764 115.438 175.194 115.432ZM175.19 114.393C175.504 114.393 175.785 114.316 176.033 114.162C176.28 114.007 176.476 113.799 176.62 113.538C176.764 113.277 176.836 112.986 176.836 112.663C176.836 112.349 176.765 112.063 176.624 111.804C176.486 111.546 176.294 111.341 176.049 111.189C175.806 111.037 175.529 110.961 175.218 110.961C174.981 110.961 174.761 111.007 174.558 111.097C174.359 111.188 174.183 111.313 174.031 111.473C173.879 111.632 173.759 111.816 173.671 112.024C173.586 112.229 173.544 112.446 173.544 112.675C173.544 112.982 173.614 113.265 173.755 113.526C173.899 113.787 174.095 113.998 174.343 114.158C174.593 114.315 174.875 114.393 175.19 114.393Z" fill="#242424"/>
<rect x="183.227" y="104.32" width="31.6257" height="14.8128" rx="2.81283" fill="#E0F0E4"/>
<path d="M188.599 113.696V109.644H189.405V113.696H188.599ZM186.977 112.072V111.268H191.029V112.072H186.977ZM194.457 114.81C194.045 114.81 193.678 114.74 193.354 114.598C193.033 114.456 192.778 114.259 192.59 114.007C192.404 113.754 192.304 113.46 192.29 113.126H193.231C193.243 113.308 193.304 113.466 193.414 113.6C193.526 113.732 193.672 113.834 193.852 113.905C194.031 113.977 194.231 114.013 194.451 114.013C194.693 114.013 194.906 113.971 195.092 113.888C195.28 113.804 195.427 113.687 195.533 113.537C195.639 113.385 195.692 113.21 195.692 113.012C195.692 112.807 195.639 112.626 195.533 112.47C195.429 112.312 195.276 112.188 195.074 112.099C194.874 112.009 194.633 111.964 194.349 111.964H193.831V111.209H194.349C194.577 111.209 194.777 111.168 194.948 111.086C195.122 111.004 195.258 110.89 195.356 110.744C195.454 110.596 195.503 110.423 195.503 110.226C195.503 110.036 195.46 109.871 195.374 109.731C195.29 109.589 195.17 109.478 195.014 109.399C194.861 109.319 194.679 109.279 194.469 109.279C194.269 109.279 194.082 109.316 193.909 109.39C193.737 109.462 193.597 109.565 193.489 109.701C193.381 109.835 193.323 109.996 193.315 110.184H192.419C192.429 109.852 192.527 109.56 192.713 109.309C192.901 109.057 193.148 108.86 193.456 108.718C193.764 108.577 194.105 108.506 194.481 108.506C194.874 108.506 195.214 108.582 195.5 108.736C195.787 108.888 196.009 109.091 196.165 109.345C196.323 109.598 196.401 109.876 196.399 110.178C196.401 110.521 196.305 110.813 196.111 111.053C195.919 111.292 195.664 111.453 195.344 111.535V111.583C195.752 111.645 196.067 111.807 196.291 112.069C196.517 112.33 196.629 112.655 196.627 113.042C196.629 113.38 196.535 113.683 196.345 113.95C196.157 114.218 195.9 114.429 195.575 114.583C195.249 114.735 194.876 114.81 194.457 114.81ZM198.18 114.783C198.016 114.783 197.876 114.726 197.758 114.61C197.64 114.492 197.581 114.35 197.581 114.184C197.581 114.02 197.64 113.881 197.758 113.765C197.876 113.647 198.016 113.588 198.18 113.588C198.344 113.588 198.485 113.647 198.603 113.765C198.721 113.881 198.78 114.02 198.78 114.184C198.78 114.294 198.752 114.395 198.696 114.487C198.642 114.577 198.57 114.649 198.48 114.703C198.39 114.757 198.29 114.783 198.18 114.783ZM199.839 113.528V112.779L202.491 108.589H203.081V109.692H202.707L200.81 112.695V112.743H204.445V113.528H199.839ZM202.749 114.727V113.3L202.755 112.959V108.589H203.633V114.727H202.749ZM208.692 113.576V113.252C208.692 113.02 208.74 112.809 208.836 112.617C208.934 112.423 209.076 112.268 209.262 112.152C209.45 112.035 209.676 111.976 209.942 111.976C210.214 111.976 210.441 112.034 210.625 112.149C210.809 112.265 210.948 112.42 211.042 112.614C211.138 112.808 211.186 113.02 211.186 113.252V113.576C211.186 113.808 211.138 114.02 211.042 114.214C210.946 114.406 210.805 114.561 210.619 114.679C210.435 114.794 210.21 114.852 209.942 114.852C209.672 114.852 209.445 114.794 209.259 114.679C209.073 114.561 208.932 114.406 208.836 114.214C208.74 114.02 208.692 113.808 208.692 113.576ZM209.391 113.252V113.576C209.391 113.748 209.432 113.903 209.513 114.043C209.595 114.183 209.738 114.253 209.942 114.253C210.144 114.253 210.285 114.183 210.365 114.043C210.444 113.903 210.484 113.748 210.484 113.576V113.252C210.484 113.08 210.445 112.925 210.368 112.785C210.292 112.645 210.15 112.575 209.942 112.575C209.742 112.575 209.6 112.645 209.516 112.785C209.433 112.925 209.391 113.08 209.391 113.252ZM205.606 110.064V109.74C205.606 109.508 205.654 109.296 205.75 109.102C205.848 108.908 205.989 108.753 206.175 108.637C206.363 108.522 206.59 108.464 206.855 108.464C207.127 108.464 207.355 108.522 207.539 108.637C207.723 108.753 207.861 108.908 207.955 109.102C208.049 109.296 208.096 109.508 208.096 109.74V110.064C208.096 110.296 208.048 110.508 207.952 110.702C207.858 110.894 207.719 111.049 207.533 111.167C207.349 111.282 207.123 111.34 206.855 111.34C206.584 111.34 206.355 111.282 206.169 111.167C205.985 111.049 205.846 110.894 205.75 110.702C205.654 110.508 205.606 110.296 205.606 110.064ZM206.307 109.74V110.064C206.307 110.236 206.347 110.391 206.427 110.531C206.509 110.671 206.652 110.741 206.855 110.741C207.055 110.741 207.195 110.671 207.275 110.531C207.357 110.391 207.398 110.236 207.398 110.064V109.74C207.398 109.568 207.359 109.413 207.281 109.273C207.203 109.133 207.061 109.063 206.855 109.063C206.656 109.063 206.514 109.133 206.43 109.273C206.348 109.413 206.307 109.568 206.307 109.74ZM205.891 114.727L210.11 108.589H210.826L206.607 114.727H205.891Z" fill="#377E36"/>
</g>
<defs>
<filter id="filter0_d_937_6837" x="105.053" y="87.2884" width="121.051" height="44.6896" filterUnits="userSpaceOnUse" color-interpolation-filters="sRGB">
<feFlood flood-opacity="0" result="BackgroundImageFix"/>
<feColorMatrix in="SourceAlpha" type="matrix" values="0 0 0 0 0 0 0 0 0 0 0 0 0 0 0 0 0 0 127 0" result="hardAlpha"/>
<feOffset dy="1.40641"/>
<feGaussianBlur stdDeviation="1.40641"/>
<feComposite in2="hardAlpha" operator="out"/>
<feColorMatrix type="matrix" values="0 0 0 0 0 0 0 0 0 0 0 0 0 0 0 0 0 0 0.04 0"/>
<feBlend mode="normal" in2="BackgroundImageFix" result="effect1_dropShadow_937_6837"/>
<feBlend mode="normal" in="SourceGraphic" in2="effect1_dropShadow_937_6837" result="shape"/>
</filter>
<linearGradient id="paint0_linear_937_6837" x1="194.636" y1="117.587" x2="265.292" y2="258.52" gradientUnits="userSpaceOnUse">
<stop stop-color="#E6E5FB"/>
<stop offset="1" stop-color="#FEFDFF"/>
</linearGradient>
<linearGradient id="paint1_linear_937_6837" x1="193.275" y1="117.587" x2="263.931" y2="258.52" gradientUnits="userSpaceOnUse">
<stop stop-color="#E6E5FB"/>
<stop offset="1" stop-color="#FEFDFF"/>
</linearGradient>
<linearGradient id="paint2_linear_937_6837" x1="203.481" y1="133.272" x2="203.481" y2="198.212" gradientUnits="userSpaceOnUse">
<stop stop-color="#3C76E1"/>
<stop offset="1" stop-color="#978FED" stop-opacity="0"/>
</linearGradient>
</defs>
</svg>
