<svg width="335" height="293" viewBox="0 0 335 293" fill="none" xmlns="http://www.w3.org/2000/svg">
<rect x="1.01032" y="0.548896" width="332.729" height="291.985" rx="10.7154" fill="#F8FAFC"/>
<rect x="1.01032" y="0.548896" width="332.729" height="291.985" rx="10.7154" stroke="#E2E8F0" stroke-width="0.931777"/>
<path d="M15.4526 44.7451H33.0717V27.126H15.4526V44.7451ZM37.8163 43.5117V31.5308H42.2211C44.7582 31.5308 46.3615 32.7817 46.3615 34.7903C46.3615 35.9003 45.7977 36.7636 44.7582 37.2041C46.2382 37.6446 47.0311 38.6841 47.0311 40.0936C47.0311 42.2608 45.463 43.5117 42.8201 43.5117H37.8163ZM42.1682 33.0989H39.7896V36.6227H42.133C43.5425 36.6227 44.3353 35.9179 44.3353 34.896C44.3353 33.786 43.5249 33.0989 42.1682 33.0989ZM42.5734 38.1555H39.7896V41.9436H42.7673C44.1592 41.9436 45.0049 41.186 45.0049 40.0408C45.0049 38.8955 44.1063 38.1555 42.5734 38.1555ZM52.7884 43.7408C50.0574 43.7408 48.4012 41.8908 48.4012 38.8251C48.4012 35.636 50.1103 33.8741 52.7884 33.8741C55.5193 33.8741 57.1755 35.7593 57.1755 38.8251C57.1755 41.9965 55.4665 43.7408 52.7884 43.7408ZM52.7884 42.1551C54.3917 42.1551 55.255 40.9922 55.255 38.8251C55.255 36.6755 54.3741 35.4598 52.7884 35.4598C51.2026 35.4598 50.3217 36.6403 50.3217 38.8251C50.3217 40.957 51.2026 42.1551 52.7884 42.1551ZM59.0109 43.5117V34.1208H60.8962V35.3717C61.5304 34.3674 62.5171 33.8741 63.7328 33.8741C65.6885 33.8741 66.9042 35.0193 66.9042 37.2393V43.5117H65.0366V37.627C65.0366 36.2703 64.4376 35.4422 63.1514 35.4422C61.7419 35.4422 60.8962 36.6931 60.8962 37.997V43.5117H59.0109ZM72.7207 43.7408C70.2364 43.7408 68.7388 41.8908 68.7388 38.8251C68.7388 35.636 70.2717 33.8741 72.7207 33.8741C73.7955 33.8741 74.6764 34.3146 75.2755 35.1779V30.826H77.1607V43.5117H75.2755V42.3665C74.6764 43.2474 73.7955 43.7408 72.7207 43.7408ZM72.9674 42.1551C74.465 42.1551 75.2755 40.9922 75.2755 38.8251C75.2755 36.6755 74.4298 35.4598 72.9674 35.4598C71.4698 35.4598 70.6593 36.6579 70.6593 38.8251C70.6593 40.957 71.505 42.1551 72.9674 42.1551ZM80.9322 36.5874C80.9322 38.9836 86.9403 36.9751 86.9403 40.7984C86.9403 42.5779 85.3369 43.7408 83.0641 43.7408C80.7912 43.7408 79.1879 42.6836 78.8355 40.446H80.7207C80.9146 41.6265 81.7955 42.2784 83.1169 42.2784C84.3855 42.2784 85.055 41.7146 85.055 40.9217C85.055 38.5784 79.135 40.5517 79.135 36.6931C79.135 35.2308 80.2803 33.8741 82.6588 33.8741C84.7555 33.8741 86.306 34.8431 86.6055 37.1865H84.7203C84.5088 35.8651 83.7688 35.3717 82.5707 35.3717C81.5312 35.3717 80.9322 35.8827 80.9322 36.5874Z" fill="#262626"/>
<path d="M16.5692 73.3213V63.5868H19.9047C22.1093 63.5868 23.4979 64.7606 23.4979 66.6646C23.4979 68.6258 22.095 69.7711 19.9191 69.7711H17.8863V73.3213H16.5692ZM19.8904 64.6604H17.8863V68.6974H19.8475C21.2934 68.6974 22.138 67.9244 22.138 66.6789C22.138 65.4478 21.279 64.6604 19.8904 64.6604ZM31.6372 70.8447C31.222 72.6198 29.948 73.4931 28.2158 73.4931C26.0112 73.4931 24.6799 72.0043 24.6799 69.5277C24.6799 66.9509 26.0112 65.5337 28.1442 65.5337C30.2915 65.5337 31.5799 67.0082 31.5799 69.4275V69.7424H25.9682C26.0398 71.446 26.8415 72.4051 28.2158 72.4051C29.2894 72.4051 30.0482 71.8897 30.3202 70.8447H31.6372ZM28.1442 66.6216C26.9274 66.6216 26.1973 67.3804 26.0112 68.7976H30.2629C30.0911 67.3947 29.3324 66.6216 28.1442 66.6216ZM33.2586 73.3213V65.7198H34.5184V66.8936C35.0337 65.9631 35.8497 65.5337 36.7659 65.5337C37.0665 65.5337 37.3385 65.6052 37.4817 65.7198V66.8507C37.267 66.7791 36.995 66.7505 36.6943 66.7505C35.1769 66.7505 34.5184 67.6953 34.5184 69.0696V73.3213H33.2586ZM37.6685 66.7219V65.7198H38.7278V65.2044C38.7278 63.6011 39.3863 62.8424 40.7892 62.8424C41.1042 62.8424 41.3619 62.8996 41.4907 62.9569V63.8588H41.3619C40.2596 63.8588 39.9876 64.2882 39.9876 65.2044V65.7198H41.4907V66.7219H39.9876V73.3213H38.7278V66.7219H37.6685ZM49.0702 70.8447C48.655 72.6198 47.381 73.4931 45.6488 73.4931C43.4442 73.4931 42.1129 72.0043 42.1129 69.5277C42.1129 66.9509 43.4442 65.5337 45.5772 65.5337C47.7245 65.5337 49.0129 67.0082 49.0129 69.4275V69.7424H43.4013C43.4728 71.446 44.2745 72.4051 45.6488 72.4051C46.7224 72.4051 47.4812 71.8897 47.7532 70.8447H49.0702ZM45.5772 66.6216C44.3604 66.6216 43.6303 67.3804 43.4442 68.7976H47.6959C47.5241 67.3947 46.7654 66.6216 45.5772 66.6216ZM56.9761 68.3395H55.7164C55.5159 67.1799 54.7429 66.6216 53.7408 66.6216C52.3379 66.6216 51.5935 67.6524 51.5935 69.5277C51.5935 71.3744 52.3809 72.4194 53.7838 72.4194C54.8002 72.4194 55.5303 71.8754 55.7736 70.7874H57.0334C56.6898 72.6771 55.4157 73.4931 53.7551 73.4931C51.5935 73.4931 50.3051 71.9899 50.3051 69.5277C50.3051 66.9509 51.6221 65.5337 53.7408 65.5337C55.4157 65.5337 56.7328 66.4785 56.9761 68.3395ZM58.7621 71.131V66.7219H57.7028V65.7198H58.7621V63.9733H60.0219V65.7198H61.6968V66.7219H60.0219V71.131C60.0219 72.0472 60.2939 72.4767 61.4105 72.4767H61.6681V73.3786C61.525 73.4501 61.21 73.4931 60.8522 73.4931C59.4349 73.4931 58.7621 72.7344 58.7621 71.131ZM64.8315 66.7219V65.7198H65.8909V65.2044C65.8909 63.6011 66.5494 62.8424 67.9523 62.8424C68.2672 62.8424 68.5249 62.8996 68.6538 62.9569V63.8588H68.5249C67.4226 63.8588 67.1506 64.2882 67.1506 65.2044V65.7198H68.6538V66.7219H67.1506V73.3213H65.8909V66.7219H64.8315ZM72.7546 73.4931C70.5786 73.4931 69.2759 72.0043 69.2759 69.5277C69.2759 66.9509 70.6216 65.5337 72.7546 65.5337C74.9305 65.5337 76.2332 67.0511 76.2332 69.5277C76.2332 72.0902 74.8876 73.4931 72.7546 73.4931ZM72.7546 72.4051C74.1718 72.4051 74.9448 71.3887 74.9448 69.5277C74.9448 67.681 74.1575 66.6216 72.7546 66.6216C71.3373 66.6216 70.5643 67.6524 70.5643 69.5277C70.5643 71.3601 71.3517 72.4051 72.7546 72.4051ZM77.8547 73.3213V65.7198H79.1144V66.8936C79.6298 65.9631 80.4458 65.5337 81.362 65.5337C81.6626 65.5337 81.9346 65.6052 82.0778 65.7198V66.8507C81.863 66.7791 81.591 66.7505 81.2904 66.7505C79.773 66.7505 79.1144 67.6953 79.1144 69.0696V73.3213H77.8547ZM87.335 76.4707H86.0752V65.7198H87.335V66.6646C87.836 65.9488 88.5661 65.5337 89.468 65.5337C91.4865 65.5337 92.7033 67.0225 92.7033 69.4991C92.7033 72.0758 91.4579 73.4931 89.468 73.4931C88.5661 73.4931 87.836 73.1209 87.335 72.4194V76.4707ZM89.3821 66.6216C88.0508 66.6216 87.335 67.638 87.335 69.4991C87.335 71.3458 88.0794 72.4051 89.3821 72.4051C90.6991 72.4051 91.4149 71.3744 91.4149 69.4991C91.4149 67.6667 90.6705 66.6216 89.3821 66.6216ZM100.894 70.8447C100.479 72.6198 99.2047 73.4931 97.4725 73.4931C95.2679 73.4931 93.9366 72.0043 93.9366 69.5277C93.9366 66.9509 95.2679 65.5337 97.4009 65.5337C99.5482 65.5337 100.837 67.0082 100.837 69.4275V69.7424H95.2249C95.2965 71.446 96.0982 72.4051 97.4725 72.4051C98.5461 72.4051 99.3049 71.8897 99.5769 70.8447H100.894ZM97.4009 66.6216C96.1841 66.6216 95.454 67.3804 95.2679 68.7976H99.5196C99.3478 67.3947 98.5891 66.6216 97.4009 66.6216ZM105.607 73.4931C103.432 73.4931 102.129 72.0043 102.129 69.5277C102.129 66.9509 103.474 65.5337 105.607 65.5337C107.783 65.5337 109.086 67.0511 109.086 69.5277C109.086 72.0902 107.74 73.4931 105.607 73.4931ZM105.607 72.4051C107.025 72.4051 107.798 71.3887 107.798 69.5277C107.798 67.681 107.01 66.6216 105.607 66.6216C104.19 66.6216 103.417 67.6524 103.417 69.5277C103.417 71.3601 104.205 72.4051 105.607 72.4051ZM111.982 76.4707H110.722V65.7198H111.982V66.6646C112.483 65.9488 113.213 65.5337 114.115 65.5337C116.133 65.5337 117.35 67.0225 117.35 69.4991C117.35 72.0758 116.105 73.4931 114.115 73.4931C113.213 73.4931 112.483 73.1209 111.982 72.4194V76.4707ZM114.029 66.6216C112.697 66.6216 111.982 67.638 111.982 69.4991C111.982 71.3458 112.726 72.4051 114.029 72.4051C115.346 72.4051 116.062 71.3744 116.062 69.4991C116.062 67.6667 115.317 66.6216 114.029 66.6216ZM118.97 73.3213V63.0141H120.23V73.3213H118.97ZM128.798 70.8447C128.383 72.6198 127.109 73.4931 125.376 73.4931C123.172 73.4931 121.841 72.0043 121.841 69.5277C121.841 66.9509 123.172 65.5337 125.305 65.5337C127.452 65.5337 128.741 67.0082 128.741 69.4275V69.7424H123.129C123.201 71.446 124.002 72.4051 125.376 72.4051C126.45 72.4051 127.209 71.8897 127.481 70.8447H128.798ZM125.305 66.6216C124.088 66.6216 123.358 67.3804 123.172 68.7976H127.424C127.252 67.3947 126.493 66.6216 125.305 66.6216ZM134.216 67.6667C134.216 69.7854 139.155 68.0389 139.155 71.174C139.155 72.5912 137.895 73.4931 136.105 73.4931C134.302 73.4931 133.042 72.6341 132.756 70.8447H134.015C134.187 71.9041 134.974 72.491 136.148 72.491C137.294 72.491 137.895 71.9756 137.895 71.2599C137.895 69.1841 133.013 70.902 133.013 67.7526C133.013 66.593 133.915 65.5337 135.776 65.5337C137.422 65.5337 138.639 66.3067 138.883 68.1963H137.623C137.437 67.0082 136.778 66.5644 135.705 66.5644C134.76 66.5644 134.216 67.0368 134.216 67.6667ZM147.223 70.8447C146.808 72.6198 145.534 73.4931 143.802 73.4931C141.597 73.4931 140.266 72.0043 140.266 69.5277C140.266 66.9509 141.597 65.5337 143.73 65.5337C145.878 65.5337 147.166 67.0082 147.166 69.4275V69.7424H141.555C141.626 71.446 142.428 72.4051 143.802 72.4051C144.876 72.4051 145.634 71.8897 145.906 70.8447H147.223ZM143.73 66.6216C142.514 66.6216 141.784 67.3804 141.597 68.7976H145.849C145.677 67.3947 144.919 66.6216 143.73 66.6216ZM155.416 70.8447C155.001 72.6198 153.726 73.4931 151.994 73.4931C149.79 73.4931 148.458 72.0043 148.458 69.5277C148.458 66.9509 149.79 65.5337 151.923 65.5337C154.07 65.5337 155.358 67.0082 155.358 69.4275V69.7424H149.747C149.818 71.446 150.62 72.4051 151.994 72.4051C153.068 72.4051 153.827 71.8897 154.099 70.8447H155.416ZM151.923 66.6216C150.706 66.6216 149.976 67.3804 149.79 68.7976H154.041C153.87 67.3947 153.111 66.6216 151.923 66.6216ZM157.037 73.3213V63.0141H158.297V68.9837L161.575 65.7198H163.121L159.657 69.1125L163.322 73.3213H161.718L158.297 69.4418V73.3213H157.037ZM164.544 64.7034V63.0141H165.804V64.7034H164.544ZM164.544 73.3213V65.7198H165.804V73.3213H164.544ZM167.802 73.3213V65.7198H169.061V66.7505C169.577 65.9488 170.407 65.5337 171.409 65.5337C173.027 65.5337 173.986 66.4785 173.986 68.2393V73.3213H172.726V68.497C172.726 67.3517 172.211 66.6073 171.066 66.6073C169.806 66.6073 169.061 67.7383 169.061 68.8262V73.3213H167.802ZM178.7 73.3786C176.767 73.3786 175.607 71.9041 175.607 69.4704C175.607 66.9223 176.796 65.5337 178.7 65.5337C179.716 65.5337 180.475 65.8916 180.976 66.5501V65.7198H182.236V73.5503C182.236 75.669 180.876 76.6568 179.129 76.6568C177.34 76.6568 176.08 75.7979 175.808 74.0657H177.068C177.225 75.0678 178.012 75.6118 179.115 75.6118C180.231 75.6118 180.976 75.0105 180.976 73.5933V72.2906C180.446 73.0063 179.673 73.3786 178.7 73.3786ZM178.929 72.2906C180.26 72.2906 180.976 71.2885 180.976 69.4561C180.976 67.6667 180.231 66.6216 178.929 66.6216C177.612 66.6216 176.896 67.6237 176.896 69.4704C176.896 71.2599 177.626 72.2906 178.929 72.2906ZM188.053 67.6667C188.053 69.7854 192.991 68.0389 192.991 71.174C192.991 72.5912 191.732 73.4931 189.942 73.4931C188.138 73.4931 186.879 72.6341 186.592 70.8447H187.852C188.024 71.9041 188.811 72.491 189.985 72.491C191.13 72.491 191.732 71.9756 191.732 71.2599C191.732 69.1841 186.85 70.902 186.85 67.7526C186.85 66.593 187.752 65.5337 189.613 65.5337C191.259 65.5337 192.476 66.3067 192.719 68.1963H191.46C191.274 67.0082 190.615 66.5644 189.541 66.5644C188.597 66.5644 188.053 67.0368 188.053 67.6667ZM194.661 71.131V66.7219H193.602V65.7198H194.661V63.9733H195.921V65.7198H197.596V66.7219H195.921V71.131C195.921 72.0472 196.193 72.4767 197.31 72.4767H197.567V73.3786C197.424 73.4501 197.109 73.4931 196.751 73.4931C195.334 73.4931 194.661 72.7344 194.661 71.131ZM205.366 70.8447C204.951 72.6198 203.677 73.4931 201.945 73.4931C199.74 73.4931 198.409 72.0043 198.409 69.5277C198.409 66.9509 199.74 65.5337 201.873 65.5337C204.02 65.5337 205.309 67.0082 205.309 69.4275V69.7424H199.697C199.769 71.446 200.57 72.4051 201.945 72.4051C203.018 72.4051 203.777 71.8897 204.049 70.8447H205.366ZM201.873 66.6216C200.656 66.6216 199.926 67.3804 199.74 68.7976H203.992C203.82 67.3947 203.061 66.6216 201.873 66.6216ZM208.147 68.1963H206.887C207.131 66.5214 208.233 65.5337 210.094 65.5337C212.127 65.5337 213.115 66.7219 213.115 68.497V71.4889C213.115 72.3622 213.186 72.9061 213.387 73.3213H212.055C211.912 73.0207 211.869 72.5769 211.855 72.1188C211.211 73.0779 210.18 73.4931 209.264 73.4931C207.689 73.4931 206.63 72.763 206.63 71.3171C206.63 70.2721 207.202 69.5134 208.319 69.1412C209.35 68.7976 210.395 68.7117 211.855 68.6974V68.5256C211.855 67.2945 211.282 66.6216 209.979 66.6216C208.892 66.6216 208.305 67.2229 208.147 68.1963ZM207.918 71.2885C207.918 71.9899 208.505 72.4051 209.393 72.4051C210.795 72.4051 211.855 71.3028 211.855 70.0001V69.6422C208.62 69.6708 207.918 70.358 207.918 71.2885ZM218.029 73.4931C216.01 73.4931 214.793 72.0043 214.793 69.5277C214.793 66.9509 216.039 65.5337 218.029 65.5337C218.93 65.5337 219.661 65.9059 220.162 66.6073V63.0141H221.421V73.3213H220.162V72.3622C219.661 73.0779 218.93 73.4931 218.029 73.4931ZM218.114 72.4051C219.446 72.4051 220.162 71.3887 220.162 69.5277C220.162 67.681 219.417 66.6216 218.114 66.6216C216.797 66.6216 216.082 67.6524 216.082 69.5277C216.082 71.3601 216.826 72.4051 218.114 72.4051ZM223.772 76.6425C223.485 76.6425 223.185 76.5709 223.027 76.528V75.5545H223.414C224.344 75.5545 224.602 75.3684 225.346 73.6649L225.604 73.0779L222.497 65.7198H223.857L225.919 70.7445L226.262 71.7609L226.606 70.7445L228.61 65.7198H229.899L226.348 74.3234C225.59 76.1558 225.089 76.6425 223.772 76.6425ZM229.827 73.3213V71.7752H231.374V72.6055C231.374 73.9369 231.159 74.7528 230.658 75.6833H229.942C230.271 74.8244 230.457 74.2088 230.457 73.3213H229.827ZM236.094 73.3213V63.0141H237.354V73.3213H236.094ZM242.443 73.4931C240.267 73.4931 238.965 72.0043 238.965 69.5277C238.965 66.9509 240.31 65.5337 242.443 65.5337C244.619 65.5337 245.922 67.0511 245.922 69.5277C245.922 72.0902 244.576 73.4931 242.443 73.4931ZM242.443 72.4051C243.861 72.4051 244.634 71.3887 244.634 69.5277C244.634 67.681 243.846 66.6216 242.443 66.6216C241.026 66.6216 240.253 67.6524 240.253 69.5277C240.253 71.3601 241.04 72.4051 242.443 72.4051ZM253.989 73.3213L252.342 67.638L252.171 66.7791L251.999 67.638L250.367 73.3213H248.807L246.545 65.7198H247.905L249.465 71.6177L249.651 72.3908L249.837 71.6177L251.569 65.7198H252.929L254.662 71.6177L254.833 72.3622L254.991 71.6177L256.551 65.7198H257.854L255.578 73.3213H253.989ZM258.825 69.9572V68.8835H262.632V69.9572H258.825ZM264.627 73.3213V65.7198H265.887V66.8936C266.402 65.9631 267.218 65.5337 268.134 65.5337C268.435 65.5337 268.707 65.6052 268.85 65.7198V66.8507C268.635 66.7791 268.363 66.7505 268.063 66.7505C266.545 66.7505 265.887 67.6953 265.887 69.0696V73.3213H264.627ZM269.967 64.7034V63.0141H271.227V64.7034H269.967ZM269.967 73.3213V65.7198H271.227V73.3213H269.967ZM274.155 67.6667C274.155 69.7854 279.094 68.0389 279.094 71.174C279.094 72.5912 277.834 73.4931 276.045 73.4931C274.241 73.4931 272.981 72.6341 272.695 70.8447H273.955C274.126 71.9041 274.914 72.491 276.088 72.491C277.233 72.491 277.834 71.9756 277.834 71.2599C277.834 69.1841 272.953 70.902 272.953 67.7526C272.953 66.593 273.854 65.5337 275.715 65.5337C277.362 65.5337 278.579 66.3067 278.822 68.1963H277.562C277.376 67.0082 276.718 66.5644 275.644 66.5644C274.699 66.5644 274.155 67.0368 274.155 67.6667ZM280.592 73.3213V63.0141H281.852V68.9837L285.13 65.7198H286.676L283.212 69.1125L286.877 73.3213H285.273L281.852 69.4418V73.3213H280.592ZM16.4547 96.3213V88.7198H17.7145V89.8936C18.2298 88.9631 19.0458 88.5337 19.962 88.5337C20.2626 88.5337 20.5346 88.6052 20.6778 88.7198V89.8507C20.4631 89.7791 20.1911 89.7505 19.8904 89.7505C18.373 89.7505 17.7145 90.6953 17.7145 92.0696V96.3213H16.4547ZM28.2261 93.8447C27.8109 95.6198 26.5368 96.4931 24.8047 96.4931C22.6001 96.4931 21.2687 95.0043 21.2687 92.5277C21.2687 89.9509 22.6001 88.5337 24.7331 88.5337C26.8804 88.5337 28.1688 90.0082 28.1688 92.4275V92.7424H22.5571C22.6287 94.446 23.4304 95.4051 24.8047 95.4051C25.8783 95.4051 26.637 94.8897 26.909 93.8447H28.2261ZM24.7331 89.6216C23.5163 89.6216 22.7862 90.3804 22.6001 91.7976H26.8518C26.68 90.3947 25.9213 89.6216 24.7331 89.6216ZM30.0193 94.131V89.7219H28.96V88.7198H30.0193V86.9733H31.2791V88.7198H32.954V89.7219H31.2791V94.131C31.2791 95.0472 31.5511 95.4767 32.6677 95.4767H32.9253V96.3786C32.7822 96.4501 32.4672 96.4931 32.1094 96.4931C30.6921 96.4931 30.0193 95.7344 30.0193 94.131ZM38.992 93.2148V88.7198H40.2517V96.3213H38.992V95.2906C38.4766 96.0922 37.675 96.4931 36.6872 96.4931C35.0982 96.4931 34.1533 95.5626 34.1533 93.8018V88.7198H35.4131V93.5441C35.4131 94.6893 35.9141 95.4194 37.0308 95.4194C38.2619 95.4194 38.992 94.3028 38.992 93.2148ZM42.2617 96.3213V88.7198H43.5215V89.8936C44.0368 88.9631 44.8528 88.5337 45.769 88.5337C46.0696 88.5337 46.3416 88.6052 46.4848 88.7198V89.8507C46.2701 89.7791 45.9981 89.7505 45.6974 89.7505C44.18 89.7505 43.5215 90.6953 43.5215 92.0696V96.3213H42.2617ZM47.6021 96.3213V88.7198H48.8618V89.7505C49.3772 88.9488 50.2075 88.5337 51.2096 88.5337C52.8272 88.5337 53.7863 89.4785 53.7863 91.2393V96.3213H52.5266V91.497C52.5266 90.3517 52.0112 89.6073 50.866 89.6073C49.6062 89.6073 48.8618 90.7383 48.8618 91.8262V96.3213H47.6021ZM56.7248 90.6667C56.7248 92.7854 61.6637 91.0389 61.6637 94.174C61.6637 95.5912 60.4039 96.4931 58.6145 96.4931C56.8107 96.4931 55.551 95.6341 55.2646 93.8447H56.5244C56.6962 94.9041 57.4835 95.491 58.6574 95.491C59.8026 95.491 60.4039 94.9756 60.4039 94.2599C60.4039 92.1841 55.5223 93.902 55.5223 90.7526C55.5223 89.593 56.4242 88.5337 58.2852 88.5337C59.9315 88.5337 61.1483 89.3067 61.3917 91.1963H60.1319C59.9458 90.0082 59.2873 89.5644 58.2136 89.5644C57.2688 89.5644 56.7248 90.0368 56.7248 90.6667ZM63.0186 96.3213V94.7752H64.5647V96.3213H63.0186ZM69.3995 96.3213V86.5868H72.8209C74.8251 86.5868 76.1135 87.5888 76.1135 89.1779C76.1135 90.1084 75.6124 90.8528 74.6819 91.2107C75.956 91.5399 76.6431 92.4275 76.6431 93.587C76.6431 95.3192 75.3834 96.3213 73.3076 96.3213H69.3995ZM72.7923 87.6461H70.7165V90.8098H72.7636C74.0234 90.8098 74.7535 90.1799 74.7535 89.2494C74.7535 88.2617 74.0091 87.6461 72.7923 87.6461ZM73.0786 91.8692H70.7165V95.2619H73.279C74.5244 95.2619 75.2975 94.5891 75.2975 93.5584C75.2975 92.5277 74.4529 91.8692 73.0786 91.8692ZM78.6037 99.6425C78.3174 99.6425 78.0167 99.5709 77.8593 99.528V98.5545H78.2458C79.1763 98.5545 79.434 98.3684 80.1784 96.6649L80.4361 96.0779L77.3296 88.7198H78.6896L80.751 93.7445L81.0946 94.7609L81.4381 93.7445L83.4423 88.7198H84.7307L81.1805 97.3234C80.4217 99.1558 79.9207 99.6425 78.6037 99.6425ZM88.6752 87.7034V86.0141H89.9349V87.7034H88.6752ZM88.6752 96.3213V88.7198H89.9349V96.3213H88.6752ZM91.9325 96.3213V88.7198H93.1923V89.7505C93.7076 88.9488 94.5379 88.5337 95.54 88.5337C97.1577 88.5337 98.1168 89.4785 98.1168 91.2393V96.3213H96.857V91.497C96.857 90.3517 96.3417 89.6073 95.1964 89.6073C93.9367 89.6073 93.1923 90.7383 93.1923 91.8262V96.3213H91.9325ZM101.749 96.3213L98.9147 88.7198H100.275L102.379 94.6177L102.565 95.2763L102.751 94.6177L104.856 88.7198H106.13L103.295 96.3213H101.749ZM113.769 93.8447C113.354 95.6198 112.08 96.4931 110.348 96.4931C108.143 96.4931 106.812 95.0043 106.812 92.5277C106.812 89.9509 108.143 88.5337 110.276 88.5337C112.424 88.5337 113.712 90.0082 113.712 92.4275V92.7424H108.1C108.172 94.446 108.974 95.4051 110.348 95.4051C111.422 95.4051 112.18 94.8897 112.452 93.8447H113.769ZM110.276 89.6216C109.06 89.6216 108.33 90.3804 108.143 91.7976H112.395C112.223 90.3947 111.465 89.6216 110.276 89.6216ZM116.321 90.6667C116.321 92.7854 121.26 91.0389 121.26 94.174C121.26 95.5912 120 96.4931 118.211 96.4931C116.407 96.4931 115.148 95.6341 114.861 93.8447H116.121C116.293 94.9041 117.08 95.491 118.254 95.491C119.399 95.491 120 94.9756 120 94.2599C120 92.1841 115.119 93.902 115.119 90.7526C115.119 89.593 116.021 88.5337 117.882 88.5337C119.528 88.5337 120.745 89.3067 120.988 91.1963H119.728C119.542 90.0082 118.884 89.5644 117.81 89.5644C116.865 89.5644 116.321 90.0368 116.321 90.6667ZM122.93 94.131V89.7219H121.871V88.7198H122.93V86.9733H124.19V88.7198H125.865V89.7219H124.19V94.131C124.19 95.0472 124.462 95.4767 125.578 95.4767H125.836V96.3786C125.693 96.4501 125.378 96.4931 125.02 96.4931C123.603 96.4931 122.93 95.7344 122.93 94.131ZM127.064 87.7034V86.0141H128.324V87.7034H127.064ZM127.064 96.3213V88.7198H128.324V96.3213H127.064ZM130.321 96.3213V88.7198H131.581V89.7505C132.097 88.9488 132.927 88.5337 133.929 88.5337C135.547 88.5337 136.506 89.4785 136.506 91.2393V96.3213H135.246V91.497C135.246 90.3517 134.731 89.6073 133.585 89.6073C132.326 89.6073 131.581 90.7383 131.581 91.8262V96.3213H130.321ZM141.219 96.3786C139.287 96.3786 138.127 94.9041 138.127 92.4704C138.127 89.9223 139.315 88.5337 141.219 88.5337C142.236 88.5337 142.994 88.8916 143.496 89.5501V88.7198H144.755V96.5503C144.755 98.669 143.395 99.6568 141.649 99.6568C139.859 99.6568 138.6 98.7979 138.328 97.0657H139.587C139.745 98.0678 140.532 98.6118 141.634 98.6118C142.751 98.6118 143.496 98.0105 143.496 96.5933V95.2906C142.966 96.0063 142.193 96.3786 141.219 96.3786ZM141.448 95.2906C142.78 95.2906 143.496 94.2885 143.496 92.4561C143.496 90.6667 142.751 89.6216 141.448 89.6216C140.131 89.6216 139.416 90.6237 139.416 92.4704C139.416 94.2599 140.146 95.2906 141.448 95.2906ZM149.642 87.7034V86.0141H150.902V87.7034H149.642ZM149.642 96.3213V88.7198H150.902V96.3213H149.642ZM152.899 96.3213V88.7198H154.159V89.7505C154.674 88.9488 155.505 88.5337 156.507 88.5337C158.124 88.5337 159.083 89.4785 159.083 91.2393V96.3213H157.824V91.497C157.824 90.3517 157.308 89.6073 156.163 89.6073C154.903 89.6073 154.159 90.7383 154.159 91.8262V96.3213H152.899ZM165.117 91.1963H163.857C164.1 89.5214 165.203 88.5337 167.064 88.5337C169.096 88.5337 170.084 89.7219 170.084 91.497V94.4889C170.084 95.3622 170.156 95.9061 170.356 96.3213H169.025C168.882 96.0207 168.839 95.5769 168.824 95.1188C168.18 96.0779 167.15 96.4931 166.233 96.4931C164.659 96.4931 163.599 95.763 163.599 94.3171C163.599 93.2721 164.172 92.5134 165.289 92.1412C166.319 91.7976 167.364 91.7117 168.824 91.6974V91.5256C168.824 90.2945 168.252 89.6216 166.949 89.6216C165.861 89.6216 165.274 90.2229 165.117 91.1963ZM164.888 94.2885C164.888 94.9899 165.475 95.4051 166.362 95.4051C167.765 95.4051 168.824 94.3028 168.824 93.0001V92.6422C165.589 92.6708 164.888 93.358 164.888 94.2885ZM175.015 96.3213V88.7198H176.275V89.6932C176.762 88.9202 177.521 88.5337 178.451 88.5337C179.496 88.5337 180.255 88.9918 180.613 89.8793C181.114 88.9918 181.944 88.5337 182.96 88.5337C184.507 88.5337 185.437 89.4785 185.437 91.2393V96.3213H184.177V91.497C184.177 90.3517 183.719 89.6073 182.688 89.6073C181.543 89.6073 180.856 90.7383 180.856 91.8262V96.3213H179.596V91.497C179.596 90.3517 179.138 89.6073 178.108 89.6073C176.962 89.6073 176.275 90.7383 176.275 91.8262V96.3213H175.015ZM187.444 87.7034V86.0141H188.703V87.7034H187.444ZM187.444 96.3213V88.7198H188.703V96.3213H187.444ZM195.54 96.3213L193.721 93.7874L193.349 93.2005L192.977 93.7874L191.202 96.3213H189.77L192.662 92.3702L189.999 88.7198H191.574L193.149 90.953L193.535 91.5686L193.908 90.953L195.454 88.7198H196.885L194.222 92.3702L197.114 96.3213H195.54ZM204.152 96.4931C201.976 96.4931 200.674 95.0043 200.674 92.5277C200.674 89.9509 202.019 88.5337 204.152 88.5337C206.328 88.5337 207.631 90.0511 207.631 92.5277C207.631 95.0902 206.285 96.4931 204.152 96.4931ZM204.152 95.4051C205.569 95.4051 206.342 94.3887 206.342 92.5277C206.342 90.681 205.555 89.6216 204.152 89.6216C202.735 89.6216 201.962 90.6524 201.962 92.5277C201.962 94.3601 202.749 95.4051 204.152 95.4051ZM208.322 89.7219V88.7198H209.381V88.2044C209.381 86.6011 210.04 85.8424 211.443 85.8424C211.758 85.8424 212.015 85.8996 212.144 85.9569V86.8588H212.015C210.913 86.8588 210.641 87.2882 210.641 88.2044V88.7198H212.144V89.7219H210.641V96.3213H209.381V89.7219H208.322ZM218.724 96.3786C216.792 96.3786 215.632 94.9041 215.632 92.4704C215.632 89.9223 216.82 88.5337 218.724 88.5337C219.741 88.5337 220.499 88.8916 221 89.5501V88.7198H222.26V96.5503C222.26 98.669 220.9 99.6568 219.154 99.6568C217.364 99.6568 216.104 98.7979 215.832 97.0657H217.092C217.25 98.0678 218.037 98.6118 219.139 98.6118C220.256 98.6118 221 98.0105 221 96.5933V95.2906C220.471 96.0063 219.698 96.3786 218.724 96.3786ZM218.953 95.2906C220.285 95.2906 221 94.2885 221 92.4561C221 90.6667 220.256 89.6216 218.953 89.6216C217.636 89.6216 216.92 90.6237 216.92 92.4704C216.92 94.2599 217.651 95.2906 218.953 95.2906ZM227.373 96.4931C225.197 96.4931 223.894 95.0043 223.894 92.5277C223.894 89.9509 225.24 88.5337 227.373 88.5337C229.549 88.5337 230.852 90.0511 230.852 92.5277C230.852 95.0902 229.506 96.4931 227.373 96.4931ZM227.373 95.4051C228.79 95.4051 229.563 94.3887 229.563 92.5277C229.563 90.681 228.776 89.6216 227.373 89.6216C225.956 89.6216 225.183 90.6524 225.183 92.5277C225.183 94.3601 225.97 95.4051 227.373 95.4051ZM234.237 96.3213L231.403 88.7198H232.763L234.867 94.6177L235.053 95.2763L235.239 94.6177L237.344 88.7198H238.618L235.783 96.3213H234.237ZM246.257 93.8447C245.842 95.6198 244.568 96.4931 242.836 96.4931C240.631 96.4931 239.3 95.0043 239.3 92.5277C239.3 89.9509 240.631 88.5337 242.764 88.5337C244.912 88.5337 246.2 90.0082 246.2 92.4275V92.7424H240.589C240.66 94.446 241.462 95.4051 242.836 95.4051C243.91 95.4051 244.668 94.8897 244.94 93.8447H246.257ZM242.764 89.6216C241.548 89.6216 240.818 90.3804 240.631 91.7976H244.883C244.711 90.3947 243.953 89.6216 242.764 89.6216ZM247.879 96.3213V88.7198H249.139V89.8936C249.654 88.9631 250.47 88.5337 251.386 88.5337C251.687 88.5337 251.959 88.6052 252.102 88.7198V89.8507C251.887 89.7791 251.615 89.7505 251.315 89.7505C249.797 89.7505 249.139 90.6953 249.139 92.0696V96.3213H247.879ZM253.219 96.3213V88.7198H254.479V89.7505C254.994 88.9488 255.825 88.5337 256.827 88.5337C258.444 88.5337 259.404 89.4785 259.404 91.2393V96.3213H258.144V91.497C258.144 90.3517 257.628 89.6073 256.483 89.6073C255.223 89.6073 254.479 90.7383 254.479 91.8262V96.3213H253.219ZM261.412 96.3213V88.7198H262.671V89.6932C263.158 88.9202 263.917 88.5337 264.847 88.5337C265.892 88.5337 266.651 88.9918 267.009 89.8793C267.51 88.9918 268.34 88.5337 269.357 88.5337C270.903 88.5337 271.833 89.4785 271.833 91.2393V96.3213H270.573V91.497C270.573 90.3517 270.115 89.6073 269.085 89.6073C267.939 89.6073 267.252 90.7383 267.252 91.8262V96.3213H265.992V91.497C265.992 90.3517 265.534 89.6073 264.504 89.6073C263.358 89.6073 262.671 90.7383 262.671 91.8262V96.3213H261.412ZM280.411 93.8447C279.995 95.6198 278.721 96.4931 276.989 96.4931C274.785 96.4931 273.453 95.0043 273.453 92.5277C273.453 89.9509 274.785 88.5337 276.918 88.5337C279.065 88.5337 280.353 90.0082 280.353 92.4275V92.7424H274.742C274.813 94.446 275.615 95.4051 276.989 95.4051C278.063 95.4051 278.821 94.8897 279.093 93.8447H280.411ZM276.918 89.6216C275.701 89.6216 274.971 90.3804 274.785 91.7976H279.036C278.864 90.3947 278.106 89.6216 276.918 89.6216ZM282.032 96.3213V88.7198H283.292V89.7505C283.807 88.9488 284.637 88.5337 285.639 88.5337C287.257 88.5337 288.216 89.4785 288.216 91.2393V96.3213H286.956V91.497C286.956 90.3517 286.441 89.6073 285.296 89.6073C284.036 89.6073 283.292 90.7383 283.292 91.8262V96.3213H282.032ZM290.396 94.131V89.7219H289.337V88.7198H290.396V86.9733H291.656V88.7198H293.331V89.7219H291.656V94.131C291.656 95.0472 291.928 95.4767 293.044 95.4767H293.302V96.3786C293.159 96.4501 292.844 96.4931 292.486 96.4931C291.069 96.4931 290.396 95.7344 290.396 94.131ZM294.387 96.3213V94.7752H295.933V95.6055C295.933 96.9369 295.718 97.7528 295.217 98.6833H294.501C294.831 97.8244 295.017 97.2088 295.017 96.3213H294.387ZM22.7392 114.34H21.4795C21.279 113.18 20.506 112.622 19.5039 112.622C18.101 112.622 17.3566 113.652 17.3566 115.528C17.3566 117.374 18.1439 118.419 19.5469 118.419C20.5633 118.419 21.2934 117.875 21.5367 116.787H22.7965C22.4529 118.677 21.1788 119.493 19.5182 119.493C17.3566 119.493 16.0682 117.99 16.0682 115.528C16.0682 112.951 17.3852 111.534 19.5039 111.534C21.1788 111.534 22.4959 112.478 22.7392 114.34ZM27.4455 119.493C25.2696 119.493 23.9669 118.004 23.9669 115.528C23.9669 112.951 25.3125 111.534 27.4455 111.534C29.6215 111.534 30.9242 113.051 30.9242 115.528C30.9242 118.09 29.5785 119.493 27.4455 119.493ZM27.4455 118.405C28.8628 118.405 29.6358 117.389 29.6358 115.528C29.6358 113.681 28.8485 112.622 27.4455 112.622C26.0283 112.622 25.2553 113.652 25.2553 115.528C25.2553 117.36 26.0426 118.405 27.4455 118.405ZM32.5456 119.321V111.72H33.8054V112.894C34.3208 111.963 35.1368 111.534 36.0529 111.534C36.3536 111.534 36.6256 111.605 36.7687 111.72V112.851C36.554 112.779 36.282 112.75 35.9814 112.75C34.4639 112.75 33.8054 113.695 33.8054 115.07V119.321H32.5456ZM39.1601 122.471H37.9003V111.72H39.1601V112.665C39.6611 111.949 40.3912 111.534 41.2931 111.534C43.3116 111.534 44.5284 113.022 44.5284 115.499C44.5284 118.076 43.2829 119.493 41.2931 119.493C40.3912 119.493 39.6611 119.121 39.1601 118.419V122.471ZM41.2072 112.622C39.8758 112.622 39.1601 113.638 39.1601 115.499C39.1601 117.346 39.9045 118.405 41.2072 118.405C42.5242 118.405 43.24 117.374 43.24 115.499C43.24 113.667 42.4956 112.622 41.2072 112.622ZM49.2403 119.493C47.0643 119.493 45.7616 118.004 45.7616 115.528C45.7616 112.951 47.1073 111.534 49.2403 111.534C51.4162 111.534 52.719 113.051 52.719 115.528C52.719 118.09 51.3733 119.493 49.2403 119.493ZM49.2403 118.405C50.6575 118.405 51.4306 117.389 51.4306 115.528C51.4306 113.681 50.6432 112.622 49.2403 112.622C47.8231 112.622 47.05 113.652 47.05 115.528C47.05 117.36 47.8374 118.405 49.2403 118.405ZM54.3404 119.321V111.72H55.6002V112.894C56.1155 111.963 56.9315 111.534 57.8477 111.534C58.1483 111.534 58.4203 111.605 58.5635 111.72V112.851C58.3487 112.779 58.0767 112.75 57.7761 112.75C56.2587 112.75 55.6002 113.695 55.6002 115.07V119.321H54.3404ZM60.7005 114.196H59.4407C59.6841 112.521 60.7864 111.534 62.6474 111.534C64.6802 111.534 65.668 112.722 65.668 114.497V117.489C65.668 118.362 65.7395 118.906 65.94 119.321H64.6086C64.4655 119.021 64.4225 118.577 64.4082 118.119C63.764 119.078 62.7333 119.493 61.8171 119.493C60.2424 119.493 59.1831 118.763 59.1831 117.317C59.1831 116.272 59.7557 115.513 60.8723 115.141C61.903 114.798 62.948 114.712 64.4082 114.697V114.526C64.4082 113.294 63.8356 112.622 62.5329 112.622C61.4449 112.622 60.858 113.223 60.7005 114.196ZM60.4715 117.288C60.4715 117.99 61.0584 118.405 61.9459 118.405C63.3489 118.405 64.4082 117.303 64.4082 116V115.642C61.1729 115.671 60.4715 116.358 60.4715 117.288ZM67.905 117.131V112.722H66.8456V111.72H67.905V109.973H69.1647V111.72H70.8397V112.722H69.1647V117.131C69.1647 118.047 69.4367 118.477 70.5533 118.477H70.811V119.379C70.6679 119.45 70.3529 119.493 69.995 119.493C68.5778 119.493 67.905 118.734 67.905 117.131ZM78.6098 116.845C78.1947 118.62 76.9206 119.493 75.1884 119.493C72.9838 119.493 71.6525 118.004 71.6525 115.528C71.6525 112.951 72.9838 111.534 75.1169 111.534C77.2642 111.534 78.5526 113.008 78.5526 115.427V115.742H72.9409C73.0125 117.446 73.8141 118.405 75.1884 118.405C76.2621 118.405 77.0208 117.89 77.2928 116.845H78.6098ZM75.1169 112.622C73.9 112.622 73.1699 113.38 72.9838 114.798H77.2355C77.0638 113.395 76.305 112.622 75.1169 112.622ZM79.8085 119.321V117.775H81.3546V118.606C81.3546 119.937 81.1399 120.753 80.6388 121.683H79.9231C80.2523 120.824 80.4384 120.209 80.4384 119.321H79.8085ZM87.2345 114.196H85.9747C86.2181 112.521 87.3204 111.534 89.1814 111.534C91.2142 111.534 92.2019 112.722 92.2019 114.497V117.489C92.2019 118.362 92.2735 118.906 92.4739 119.321H91.1426C90.9994 119.021 90.9565 118.577 90.9422 118.119C90.298 119.078 89.2673 119.493 88.3511 119.493C86.7764 119.493 85.717 118.763 85.717 117.317C85.717 116.272 86.2896 115.513 87.4062 115.141C88.437 114.798 89.482 114.712 90.9422 114.697V114.526C90.9422 113.294 90.3695 112.622 89.0668 112.622C87.9789 112.622 87.3919 113.223 87.2345 114.196ZM87.0054 117.288C87.0054 117.99 87.5923 118.405 88.4799 118.405C89.8828 118.405 90.9422 117.303 90.9422 116V115.642C87.7069 115.671 87.0054 116.358 87.0054 117.288ZM94.2672 119.321V111.72H95.5269V112.75C96.0423 111.949 96.8726 111.534 97.8747 111.534C99.4923 111.534 100.451 112.478 100.451 114.239V119.321H99.1917V114.497C99.1917 113.352 98.6763 112.607 97.5311 112.607C96.2713 112.607 95.5269 113.738 95.5269 114.826V119.321H94.2672ZM105.308 119.493C103.29 119.493 102.073 118.004 102.073 115.528C102.073 112.951 103.318 111.534 105.308 111.534C106.21 111.534 106.94 111.906 107.441 112.607V109.014H108.701V119.321H107.441V118.362C106.94 119.078 106.21 119.493 105.308 119.493ZM105.394 118.405C106.725 118.405 107.441 117.389 107.441 115.528C107.441 113.681 106.697 112.622 105.394 112.622C104.077 112.622 103.361 113.652 103.361 115.528C103.361 117.36 104.106 118.405 105.394 118.405ZM113.573 119.321V111.72H114.833V112.693C115.32 111.92 116.079 111.534 117.009 111.534C118.054 111.534 118.813 111.992 119.171 112.879C119.672 111.992 120.502 111.534 121.519 111.534C123.065 111.534 123.995 112.478 123.995 114.239V119.321H122.735V114.497C122.735 113.352 122.277 112.607 121.247 112.607C120.101 112.607 119.414 113.738 119.414 114.826V119.321H118.154V114.497C118.154 113.352 117.696 112.607 116.666 112.607C115.52 112.607 114.833 113.738 114.833 114.826V119.321H113.573ZM130.84 116.215V111.72H132.1V119.321H130.84V118.291C130.325 119.092 129.523 119.493 128.535 119.493C126.946 119.493 126.002 118.563 126.002 116.802V111.72H127.261V116.544C127.261 117.689 127.762 118.419 128.879 118.419C130.11 118.419 130.84 117.303 130.84 116.215ZM134.11 119.321V111.72H135.37V112.75C135.885 111.949 136.715 111.534 137.718 111.534C139.335 111.534 140.294 112.478 140.294 114.239V119.321H139.035V114.497C139.035 113.352 138.519 112.607 137.374 112.607C136.114 112.607 135.37 113.738 135.37 114.826V119.321H134.11ZM142.302 110.703V109.014H143.562V110.703H142.302ZM142.302 119.321V111.72H143.562V119.321H142.302ZM151.844 114.34H150.584C150.384 113.18 149.611 112.622 148.609 112.622C147.206 112.622 146.461 113.652 146.461 115.528C146.461 117.374 147.249 118.419 148.652 118.419C149.668 118.419 150.398 117.875 150.642 116.787H151.901C151.558 118.677 150.284 119.493 148.623 119.493C146.461 119.493 145.173 117.99 145.173 115.528C145.173 112.951 146.49 111.534 148.609 111.534C150.284 111.534 151.601 112.478 151.844 114.34ZM153.458 110.703V109.014H154.718V110.703H153.458ZM153.458 119.321V111.72H154.718V119.321H153.458ZM157.99 122.471H156.73V111.72H157.99V112.665C158.491 111.949 159.221 111.534 160.123 111.534C162.141 111.534 163.358 113.022 163.358 115.499C163.358 118.076 162.113 119.493 160.123 119.493C159.221 119.493 158.491 119.121 157.99 118.419V122.471ZM160.037 112.622C158.705 112.622 157.99 113.638 157.99 115.499C157.99 117.346 158.734 118.405 160.037 118.405C161.354 118.405 162.07 117.374 162.07 115.499C162.07 113.667 161.325 112.622 160.037 112.622ZM166.137 114.196H164.878C165.121 112.521 166.223 111.534 168.084 111.534C170.117 111.534 171.105 112.722 171.105 114.497V117.489C171.105 118.362 171.176 118.906 171.377 119.321H170.045C169.902 119.021 169.859 118.577 169.845 118.119C169.201 119.078 168.17 119.493 167.254 119.493C165.679 119.493 164.62 118.763 164.62 117.317C164.62 116.272 165.193 115.513 166.309 115.141C167.34 114.798 168.385 114.712 169.845 114.697V114.526C169.845 113.294 169.272 112.622 167.97 112.622C166.882 112.622 166.295 113.223 166.137 114.196ZM165.908 117.288C165.908 117.99 166.495 118.405 167.383 118.405C168.786 118.405 169.845 117.303 169.845 116V115.642C166.61 115.671 165.908 116.358 165.908 117.288ZM173.17 119.321V109.014H174.43V119.321H173.17ZM180.553 119.321H179.293V109.014H180.553V112.665C181.054 111.949 181.784 111.534 182.686 111.534C184.705 111.534 185.921 113.022 185.921 115.499C185.921 118.076 184.676 119.493 182.686 119.493C181.784 119.493 181.054 119.121 180.553 118.419V119.321ZM182.6 112.622C181.269 112.622 180.553 113.638 180.553 115.499C180.553 117.346 181.297 118.405 182.6 118.405C183.917 118.405 184.633 117.374 184.633 115.499C184.633 113.667 183.889 112.622 182.6 112.622ZM190.634 119.493C188.458 119.493 187.155 118.004 187.155 115.528C187.155 112.951 188.501 111.534 190.634 111.534C192.81 111.534 194.112 113.051 194.112 115.528C194.112 118.09 192.767 119.493 190.634 119.493ZM190.634 118.405C192.051 118.405 192.824 117.389 192.824 115.528C192.824 113.681 192.036 112.622 190.634 112.622C189.216 112.622 188.443 113.652 188.443 115.528C188.443 117.36 189.231 118.405 190.634 118.405ZM195.734 119.321V111.72H196.993V112.75C197.509 111.949 198.339 111.534 199.341 111.534C200.959 111.534 201.918 112.478 201.918 114.239V119.321H200.658V114.497C200.658 113.352 200.143 112.607 198.998 112.607C197.738 112.607 196.993 113.738 196.993 114.826V119.321H195.734ZM206.775 119.493C204.756 119.493 203.539 118.004 203.539 115.528C203.539 112.951 204.785 111.534 206.775 111.534C207.677 111.534 208.407 111.906 208.908 112.607V109.014H210.167V119.321H208.908V118.362C208.407 119.078 207.677 119.493 206.775 119.493ZM206.861 118.405C208.192 118.405 208.908 117.389 208.908 115.528C208.908 113.681 208.163 112.622 206.861 112.622C205.544 112.622 204.828 113.652 204.828 115.528C204.828 117.36 205.572 118.405 206.861 118.405ZM213.105 113.667C213.105 115.785 218.043 114.039 218.043 117.174C218.043 118.591 216.784 119.493 214.994 119.493C213.191 119.493 211.931 118.634 211.644 116.845H212.904C213.076 117.904 213.863 118.491 215.037 118.491C216.182 118.491 216.784 117.976 216.784 117.26C216.784 115.184 211.902 116.902 211.902 113.753C211.902 112.593 212.804 111.534 214.665 111.534C216.311 111.534 217.528 112.307 217.771 114.196H216.512C216.326 113.008 215.667 112.564 214.593 112.564C213.649 112.564 213.105 113.037 213.105 113.667ZM219.398 119.321V117.775H220.944V118.606C220.944 119.937 220.73 120.753 220.229 121.683H219.513C219.842 120.824 220.028 120.209 220.028 119.321H219.398ZM232.25 119.321L230.604 113.638L230.432 112.779L230.26 113.638L228.628 119.321H227.068L224.806 111.72H226.166L227.726 117.618L227.912 118.391L228.098 117.618L229.831 111.72H231.191L232.923 117.618L233.095 118.362L233.252 117.618L234.812 111.72H236.115L233.839 119.321H232.25ZM243.755 116.845C243.34 118.62 242.066 119.493 240.334 119.493C238.129 119.493 236.798 118.004 236.798 115.528C236.798 112.951 238.129 111.534 240.262 111.534C242.409 111.534 243.698 113.008 243.698 115.427V115.742H238.086C238.158 117.446 238.959 118.405 240.334 118.405C241.407 118.405 242.166 117.89 242.438 116.845H243.755ZM240.262 112.622C239.045 112.622 238.315 113.38 238.129 114.798H242.381C242.209 113.395 241.45 112.622 240.262 112.622ZM254.813 116.845C254.398 118.62 253.124 119.493 251.392 119.493C249.187 119.493 247.856 118.004 247.856 115.528C247.856 112.951 249.187 111.534 251.32 111.534C253.468 111.534 254.756 113.008 254.756 115.427V115.742H249.144C249.216 117.446 250.018 118.405 251.392 118.405C252.465 118.405 253.224 117.89 253.496 116.845H254.813ZM251.32 112.622C250.103 112.622 249.373 113.38 249.187 114.798H253.439C253.267 113.395 252.508 112.622 251.32 112.622ZM256.435 119.321V111.72H257.694V112.75C258.21 111.949 259.04 111.534 260.042 111.534C261.66 111.534 262.619 112.478 262.619 114.239V119.321H261.359V114.497C261.359 113.352 260.844 112.607 259.699 112.607C258.439 112.607 257.694 113.738 257.694 114.826V119.321H256.435ZM265.557 113.667C265.557 115.785 270.496 114.039 270.496 117.174C270.496 118.591 269.236 119.493 267.447 119.493C265.643 119.493 264.384 118.634 264.097 116.845H265.357C265.529 117.904 266.316 118.491 267.49 118.491C268.635 118.491 269.236 117.976 269.236 117.26C269.236 115.184 264.355 116.902 264.355 113.753C264.355 112.593 265.257 111.534 267.118 111.534C268.764 111.534 269.981 112.307 270.224 114.196H268.964C268.778 113.008 268.12 112.564 267.046 112.564C266.101 112.564 265.557 113.037 265.557 113.667ZM276.833 116.215V111.72H278.093V119.321H276.833V118.291C276.318 119.092 275.516 119.493 274.528 119.493C272.939 119.493 271.994 118.563 271.994 116.802V111.72H273.254V116.544C273.254 117.689 273.755 118.419 274.872 118.419C276.103 118.419 276.833 117.303 276.833 116.215ZM280.103 119.321V111.72H281.362V112.894C281.878 111.963 282.694 111.534 283.61 111.534C283.911 111.534 284.183 111.605 284.326 111.72V112.851C284.111 112.779 283.839 112.75 283.538 112.75C282.021 112.75 281.362 113.695 281.362 115.07V119.321H280.103ZM291.874 116.845C291.459 118.62 290.185 119.493 288.453 119.493C286.248 119.493 284.917 118.004 284.917 115.528C284.917 112.951 286.248 111.534 288.381 111.534C290.528 111.534 291.817 113.008 291.817 115.427V115.742H286.205C286.277 117.446 287.078 118.405 288.453 118.405C289.526 118.405 290.285 117.89 290.557 116.845H291.874ZM288.381 112.622C287.164 112.622 286.434 113.38 286.248 114.798H290.5C290.328 113.395 289.569 112.622 288.381 112.622ZM16.6265 140.131V135.722H15.5672V134.72H16.6265V132.973H17.8863V134.72H19.5612V135.722H17.8863V140.131C17.8863 141.047 18.1583 141.477 19.2749 141.477H19.5325V142.379C19.3894 142.45 19.0745 142.493 18.7166 142.493C17.2993 142.493 16.6265 141.734 16.6265 140.131ZM20.7605 142.321V132.014H22.0203V135.75C22.5357 134.949 23.366 134.534 24.368 134.534C25.9857 134.534 26.9448 135.478 26.9448 137.239V142.321H25.6851V137.497C25.6851 136.352 25.1697 135.607 24.0245 135.607C22.7647 135.607 22.0203 136.738 22.0203 137.826V142.321H20.7605ZM30.1124 137.196H28.8526C29.096 135.521 30.1982 134.534 32.0593 134.534C34.0921 134.534 35.0798 135.722 35.0798 137.497V140.489C35.0798 141.362 35.1514 141.906 35.3518 142.321H34.0205C33.8773 142.021 33.8344 141.577 33.8201 141.119C33.1759 142.078 32.1452 142.493 31.229 142.493C29.6543 142.493 28.5949 141.763 28.5949 140.317C28.5949 139.272 29.1675 138.513 30.2841 138.141C31.3149 137.798 32.3599 137.712 33.8201 137.697V137.526C33.8201 136.294 33.2474 135.622 31.9447 135.622C30.8568 135.622 30.2698 136.223 30.1124 137.196ZM29.8833 140.288C29.8833 140.99 30.4702 141.405 31.3578 141.405C32.7607 141.405 33.8201 140.303 33.8201 139V138.642C30.5848 138.671 29.8833 139.358 29.8833 140.288ZM37.3168 140.131V135.722H36.2575V134.72H37.3168V132.973H38.5766V134.72H40.2515V135.722H38.5766V140.131C38.5766 141.047 38.8486 141.477 39.9652 141.477H40.2229V142.379C40.0797 142.45 39.7648 142.493 39.4069 142.493C37.9897 142.493 37.3168 141.734 37.3168 140.131ZM44.6603 145.642C44.374 145.642 44.0734 145.571 43.9159 145.528V144.555H44.3025C45.233 144.555 45.4906 144.368 46.235 142.665L46.4927 142.078L43.3863 134.72H44.7462L46.8077 139.745L47.1512 140.761L47.4948 139.745L49.499 134.72H50.7874L47.2371 143.323C46.4784 145.156 45.9774 145.642 44.6603 145.642ZM54.8882 142.493C52.7122 142.493 51.4095 141.004 51.4095 138.528C51.4095 135.951 52.7552 134.534 54.8882 134.534C57.0641 134.534 58.3669 136.051 58.3669 138.528C58.3669 141.09 57.0212 142.493 54.8882 142.493ZM54.8882 141.405C56.3054 141.405 57.0785 140.389 57.0785 138.528C57.0785 136.681 56.2911 135.622 54.8882 135.622C53.471 135.622 52.6979 136.652 52.6979 138.528C52.6979 140.36 53.4853 141.405 54.8882 141.405ZM64.8269 139.215V134.72H66.0867V142.321H64.8269V141.291C64.3116 142.092 63.5099 142.493 62.5221 142.493C60.9331 142.493 59.9883 141.563 59.9883 139.802V134.72H61.2481V139.544C61.2481 140.689 61.7491 141.419 62.8657 141.419C64.0968 141.419 64.8269 140.303 64.8269 139.215ZM68.0967 142.321V134.72H69.3564V135.894C69.8718 134.963 70.6878 134.534 71.604 134.534C71.9046 134.534 72.1766 134.605 72.3197 134.72V135.851C72.105 135.779 71.833 135.75 71.5324 135.75C70.015 135.75 69.3564 136.695 69.3564 138.07V142.321H68.0967ZM76.3029 142.321V134.72H77.5627V135.693C78.0494 134.92 78.8081 134.534 79.7386 134.534C80.7837 134.534 81.5424 134.992 81.9003 135.879C82.4013 134.992 83.2316 134.534 84.248 134.534C85.7941 134.534 86.7246 135.478 86.7246 137.239V142.321H85.4648V137.497C85.4648 136.352 85.0067 135.607 83.976 135.607C82.8308 135.607 82.1436 136.738 82.1436 137.826V142.321H80.8839V137.497C80.8839 136.352 80.4258 135.607 79.3951 135.607C78.2498 135.607 77.5627 136.738 77.5627 137.826V142.321H76.3029ZM91.8232 142.493C89.6473 142.493 88.3446 141.004 88.3446 138.528C88.3446 135.951 89.6902 134.534 91.8232 134.534C93.9992 134.534 95.3019 136.051 95.3019 138.528C95.3019 141.09 93.9562 142.493 91.8232 142.493ZM91.8232 141.405C93.2405 141.405 94.0135 140.389 94.0135 138.528C94.0135 136.681 93.2262 135.622 91.8232 135.622C90.406 135.622 89.633 136.652 89.633 138.528C89.633 140.36 90.4203 141.405 91.8232 141.405ZM96.9233 142.321V134.72H98.1831V135.75C98.6985 134.949 99.5288 134.534 100.531 134.534C102.148 134.534 103.108 135.478 103.108 137.239V142.321H101.848V137.497C101.848 136.352 101.333 135.607 100.187 135.607C98.9275 135.607 98.1831 136.738 98.1831 137.826V142.321H96.9233ZM111.686 139.845C111.271 141.62 109.997 142.493 108.265 142.493C106.06 142.493 104.729 141.004 104.729 138.528C104.729 135.951 106.06 134.534 108.193 134.534C110.341 134.534 111.629 136.008 111.629 138.427V138.742H106.017C106.089 140.446 106.891 141.405 108.265 141.405C109.339 141.405 110.097 140.89 110.369 139.845H111.686ZM108.193 135.622C106.977 135.622 106.247 136.38 106.06 137.798H110.312C110.14 136.395 109.382 135.622 108.193 135.622ZM113.442 145.642C113.155 145.642 112.855 145.571 112.697 145.528V144.555H113.084C114.014 144.555 114.272 144.368 115.016 142.665L115.274 142.078L112.168 134.72H113.528L115.589 139.745L115.933 140.761L116.276 139.745L118.28 134.72H119.569L116.019 143.323C115.26 145.156 114.759 145.642 113.442 145.642ZM123.513 133.703V132.014H124.773V133.703H123.513ZM123.513 142.321V134.72H124.773V142.321H123.513ZM127.701 136.667C127.701 138.785 132.64 137.039 132.64 140.174C132.64 141.591 131.38 142.493 129.591 142.493C127.787 142.493 126.527 141.634 126.241 139.845H127.501C127.672 140.904 128.46 141.491 129.634 141.491C130.779 141.491 131.38 140.976 131.38 140.26C131.38 138.184 126.499 139.902 126.499 136.753C126.499 135.593 127.4 134.534 129.261 134.534C130.908 134.534 132.125 135.307 132.368 137.196H131.108C130.922 136.008 130.264 135.564 129.19 135.564C128.245 135.564 127.701 136.037 127.701 136.667ZM143.589 142.321L141.943 136.638L141.771 135.779L141.599 136.638L139.967 142.321H138.407L136.145 134.72H137.505L139.065 140.618L139.251 141.391L139.438 140.618L141.17 134.72H142.53L144.262 140.618L144.434 141.362L144.591 140.618L146.151 134.72H147.454L145.178 142.321H143.589ZM151.616 142.493C149.44 142.493 148.137 141.004 148.137 138.528C148.137 135.951 149.483 134.534 151.616 134.534C153.791 134.534 155.094 136.051 155.094 138.528C155.094 141.09 153.749 142.493 151.616 142.493ZM151.616 141.405C153.033 141.405 153.806 140.389 153.806 138.528C153.806 136.681 153.018 135.622 151.616 135.622C150.198 135.622 149.425 136.652 149.425 138.528C149.425 140.36 150.213 141.405 151.616 141.405ZM156.716 142.321V134.72H157.975V135.894C158.491 134.963 159.307 134.534 160.223 134.534C160.524 134.534 160.796 134.605 160.939 134.72V135.851C160.724 135.779 160.452 135.75 160.151 135.75C158.634 135.75 157.975 136.695 157.975 138.07V142.321H156.716ZM162.056 142.321V132.014H163.316V137.984L166.594 134.72H168.14L164.676 138.113L168.34 142.321H166.737L163.316 138.442V142.321H162.056ZM169.563 133.703V132.014H170.823V133.703H169.563ZM169.563 142.321V134.72H170.823V142.321H169.563ZM172.821 142.321V134.72H174.08V135.75C174.596 134.949 175.426 134.534 176.428 134.534C178.046 134.534 179.005 135.478 179.005 137.239V142.321H177.745V137.497C177.745 136.352 177.23 135.607 176.084 135.607C174.825 135.607 174.08 136.738 174.08 137.826V142.321H172.821ZM183.718 142.379C181.786 142.379 180.626 140.904 180.626 138.47C180.626 135.922 181.814 134.534 183.718 134.534C184.735 134.534 185.494 134.892 185.995 135.55V134.72H187.254V142.55C187.254 144.669 185.894 145.657 184.148 145.657C182.358 145.657 181.099 144.798 180.827 143.066H182.086C182.244 144.068 183.031 144.612 184.134 144.612C185.25 144.612 185.995 144.011 185.995 142.593V141.291C185.465 142.006 184.692 142.379 183.718 142.379ZM183.947 141.291C185.279 141.291 185.995 140.288 185.995 138.456C185.995 136.667 185.25 135.622 183.947 135.622C182.63 135.622 181.915 136.624 181.915 138.47C181.915 140.26 182.645 141.291 183.947 141.291ZM191.21 135.722V134.72H192.27V134.204C192.27 132.601 192.928 131.842 194.331 131.842C194.646 131.842 194.904 131.9 195.033 131.957V132.859H194.904C193.801 132.859 193.529 133.288 193.529 134.204V134.72H195.033V135.722H193.529V142.321H192.27V135.722H191.21ZM199.133 142.493C196.957 142.493 195.655 141.004 195.655 138.528C195.655 135.951 197 134.534 199.133 134.534C201.309 134.534 202.612 136.051 202.612 138.528C202.612 141.09 201.266 142.493 199.133 142.493ZM199.133 141.405C200.551 141.405 201.324 140.389 201.324 138.528C201.324 136.681 200.536 135.622 199.133 135.622C197.716 135.622 196.943 136.652 196.943 138.528C196.943 140.36 197.73 141.405 199.133 141.405ZM204.233 142.321V134.72H205.493V135.894C206.009 134.963 206.825 134.534 207.741 134.534C208.041 134.534 208.313 134.605 208.457 134.72V135.851C208.242 135.779 207.97 135.75 207.669 135.75C206.152 135.75 205.493 136.695 205.493 138.07V142.321H204.233ZM212.783 145.642C212.497 145.642 212.196 145.571 212.039 145.528V144.555H212.425C213.356 144.555 213.614 144.368 214.358 142.665L214.616 142.078L211.509 134.72H212.869L214.931 139.745L215.274 140.761L215.618 139.745L217.622 134.72H218.91L215.36 143.323C214.601 145.156 214.1 145.642 212.783 145.642ZM223.011 142.493C220.835 142.493 219.532 141.004 219.532 138.528C219.532 135.951 220.878 134.534 223.011 134.534C225.187 134.534 226.49 136.051 226.49 138.528C226.49 141.09 225.144 142.493 223.011 142.493ZM223.011 141.405C224.428 141.405 225.201 140.389 225.201 138.528C225.201 136.681 224.414 135.622 223.011 135.622C221.594 135.622 220.821 136.652 220.821 138.528C220.821 140.36 221.608 141.405 223.011 141.405ZM232.95 139.215V134.72H234.21V142.321H232.95V141.291C232.435 142.092 231.633 142.493 230.645 142.493C229.056 142.493 228.111 141.563 228.111 139.802V134.72H229.371V139.544C229.371 140.689 229.872 141.419 230.989 141.419C232.22 141.419 232.95 140.303 232.95 139.215ZM245.671 142.321L244.024 136.638L243.853 135.779L243.681 136.638L242.049 142.321H240.488L238.227 134.72H239.587L241.147 140.618L241.333 141.391L241.519 140.618L243.251 134.72H244.611L246.343 140.618L246.515 141.362L246.673 140.618L248.233 134.72H249.536L247.26 142.321H245.671ZM250.675 142.321V132.014H251.935V135.75C252.45 134.949 253.28 134.534 254.282 134.534C255.9 134.534 256.859 135.478 256.859 137.239V142.321H255.599V137.497C255.599 136.352 255.084 135.607 253.939 135.607C252.679 135.607 251.935 136.738 251.935 137.826V142.321H250.675ZM258.867 133.703V132.014H260.127V133.703H258.867ZM258.867 142.321V134.72H260.127V142.321H258.867ZM262.124 142.321V132.014H263.384V142.321H262.124ZM271.953 139.845C271.537 141.62 270.263 142.493 268.531 142.493C266.327 142.493 264.995 141.004 264.995 138.528C264.995 135.951 266.327 134.534 268.46 134.534C270.607 134.534 271.895 136.008 271.895 138.427V138.742H266.284C266.355 140.446 267.157 141.405 268.531 141.405C269.605 141.405 270.364 140.89 270.636 139.845H271.953ZM268.46 135.622C267.243 135.622 266.513 136.38 266.327 137.798H270.578C270.407 136.395 269.648 135.622 268.46 135.622ZM16.4547 165.321V157.72H17.7145V158.693C18.2012 157.92 18.9599 157.534 19.8904 157.534C20.9355 157.534 21.6942 157.992 22.0521 158.879C22.5531 157.992 23.3834 157.534 24.3998 157.534C25.9459 157.534 26.8764 158.478 26.8764 160.239V165.321H25.6166V160.497C25.6166 159.352 25.1585 158.607 24.1278 158.607C22.9826 158.607 22.2954 159.738 22.2954 160.826V165.321H21.0357V160.497C21.0357 159.352 20.5776 158.607 19.5469 158.607C18.4016 158.607 17.7145 159.738 17.7145 160.826V165.321H16.4547ZM28.8829 156.703V155.014H30.1427V156.703H28.8829ZM28.8829 165.321V157.72H30.1427V165.321H28.8829ZM32.1402 165.321V157.72H33.4V158.75C33.9154 157.949 34.7456 157.534 35.7477 157.534C37.3654 157.534 38.3245 158.478 38.3245 160.239V165.321H37.0648V160.497C37.0648 159.352 36.5494 158.607 35.4042 158.607C34.1444 158.607 33.4 159.738 33.4 160.826V165.321H32.1402ZM40.3325 156.703V155.014H41.5922V156.703H40.3325ZM40.3325 165.321V157.72H41.5922V165.321H40.3325ZM43.5898 165.321V157.72H44.8496V158.693C45.3363 157.92 46.095 157.534 47.0255 157.534C48.0706 157.534 48.8293 157.992 49.1872 158.879C49.6882 157.992 50.5185 157.534 51.5349 157.534C53.081 157.534 54.0115 158.478 54.0115 160.239V165.321H52.7517V160.497C52.7517 159.352 52.2936 158.607 51.2629 158.607C50.1177 158.607 49.4305 159.738 49.4305 160.826V165.321H48.1708V160.497C48.1708 159.352 47.7127 158.607 46.682 158.607C45.5367 158.607 44.8496 159.738 44.8496 160.826V165.321H43.5898ZM56.018 156.703V155.014H57.2778V156.703H56.018ZM56.018 165.321V157.72H57.2778V165.321H56.018ZM58.7027 165.321V164.334L63.2121 158.722H58.8745V157.72H64.7152V158.722L60.2058 164.334H64.9729V165.321H58.7027ZM66.4051 156.703V155.014H67.6649V156.703H66.4051ZM66.4051 165.321V157.72H67.6649V165.321H66.4051ZM69.6624 165.321V157.72H70.9222V158.75C71.4376 157.949 72.2679 157.534 73.2699 157.534C74.8876 157.534 75.8467 158.478 75.8467 160.239V165.321H74.587V160.497C74.587 159.352 74.0716 158.607 72.9264 158.607C71.6666 158.607 70.9222 159.738 70.9222 160.826V165.321H69.6624ZM80.5603 165.379C78.6277 165.379 77.4682 163.904 77.4682 161.47C77.4682 158.922 78.6564 157.534 80.5603 157.534C81.5767 157.534 82.3354 157.892 82.8365 158.55V157.72H84.0962V165.55C84.0962 167.669 82.7363 168.657 80.9898 168.657C79.2003 168.657 77.9406 167.798 77.6686 166.066H78.9284C79.0858 167.068 79.8732 167.612 80.9755 167.612C82.0921 167.612 82.8365 167.011 82.8365 165.593V164.291C82.3068 165.006 81.5338 165.379 80.5603 165.379ZM80.7894 164.291C82.1207 164.291 82.8365 163.288 82.8365 161.456C82.8365 159.667 82.0921 158.622 80.7894 158.622C79.4723 158.622 78.7566 159.624 78.7566 161.47C78.7566 163.26 79.4867 164.291 80.7894 164.291ZM88.9827 165.321V157.72H90.2425V158.894C90.7579 157.963 91.5738 157.534 92.49 157.534C92.7907 157.534 93.0626 157.605 93.2058 157.72V158.851C92.9911 158.779 92.7191 158.75 92.4184 158.75C90.901 158.75 90.2425 159.695 90.2425 161.07V165.321H88.9827ZM94.3231 156.703V155.014H95.5828V156.703H94.3231ZM94.3231 165.321V157.72H95.5828V165.321H94.3231ZM98.5109 159.667C98.5109 161.785 103.45 160.039 103.45 163.174C103.45 164.591 102.19 165.493 100.401 165.493C98.5968 165.493 97.337 164.634 97.0507 162.845H98.3105C98.4823 163.904 99.2696 164.491 100.444 164.491C101.589 164.491 102.19 163.976 102.19 163.26C102.19 161.184 97.3084 162.902 97.3084 159.753C97.3084 158.593 98.2103 157.534 100.071 157.534C101.718 157.534 102.934 158.307 103.178 160.196H101.918C101.732 159.008 101.073 158.564 99.9997 158.564C99.0549 158.564 98.5109 159.037 98.5109 159.667ZM104.948 165.321V155.014H106.208V160.984L109.486 157.72H111.032L107.568 161.113L111.232 165.321H109.629L106.208 161.442V165.321H104.948Z" fill="#595959"/>
<g filter="url(#filter0_dd_887_1251)">
<rect x="15.4526" y="208.547" width="51.619" height="21.0119" rx="10.506" fill="#F8FAFC" shape-rendering="crispEdges"/>
<path d="M25.2929 224.054V215.068H28.5304C30.4201 215.068 31.6226 216.046 31.6226 217.605C31.6226 218.636 31.1204 219.363 30.2747 219.746C30.8561 220.01 31.1601 220.499 31.3847 221.384L32.0586 224.054H30.7768L30.2086 221.622C29.9443 220.499 29.4951 220.288 28.4115 220.288H26.5086V224.054H25.2929ZM28.504 216.059H26.5086V219.297H28.4776C29.6668 219.297 30.3672 218.662 30.3672 217.671C30.3672 216.68 29.6668 216.059 28.504 216.059ZM33.5131 224.054V215.068H39.6049V216.059H34.7288V218.9H39.116V219.891H34.7288V223.063H39.6049V224.054H33.5131ZM41.2172 224.054V215.068H42.4329V224.054H41.2172ZM46.9528 224.054V216.099H43.8739V215.068H51.2474V216.099H48.1685V224.054H46.9528ZM52.2553 218.834C52.2553 220.79 56.8143 219.178 56.8143 222.072C56.8143 223.38 55.6514 224.212 53.9996 224.212C52.3346 224.212 51.1718 223.419 50.9075 221.768H52.0703C52.2289 222.745 52.9557 223.287 54.0393 223.287C55.0964 223.287 55.6514 222.812 55.6514 222.151C55.6514 220.235 51.1453 221.82 51.1453 218.913C51.1453 217.843 51.9778 216.865 53.6957 216.865C55.2153 216.865 56.3385 217.579 56.5632 219.323H55.4003C55.2285 218.226 54.6207 217.817 53.6296 217.817C52.7575 217.817 52.2553 218.253 52.2553 218.834Z" fill="#595959"/>
</g>
<g filter="url(#filter1_dd_887_1251)">
<rect x="80.2861" y="208.547" width="83.619" height="21.0119" rx="10.506" fill="#F8FAFC" shape-rendering="crispEdges"/>
<path d="M90.1264 224.054V215.068H93.3639C95.2536 215.068 96.4561 216.046 96.4561 217.605C96.4561 218.636 95.9539 219.363 95.1082 219.746C95.6896 220.01 95.9936 220.499 96.2182 221.384L96.8921 224.054H95.6103L95.0421 221.622C94.7778 220.499 94.3286 220.288 93.245 220.288H91.3421V224.054H90.1264ZM93.3375 216.059H91.3421V219.297H93.3111C94.5003 219.297 95.2007 218.662 95.2007 217.671C95.2007 216.68 94.5003 216.059 93.3375 216.059ZM104.306 221.768C103.923 223.406 102.747 224.212 101.148 224.212C99.1131 224.212 97.8841 222.838 97.8841 220.552C97.8841 218.173 99.1131 216.865 101.082 216.865C103.064 216.865 104.253 218.226 104.253 220.459V220.75H99.0734C99.1395 222.323 99.8795 223.208 101.148 223.208C102.139 223.208 102.839 222.732 103.091 221.768H104.306ZM101.082 217.869C99.9588 217.869 99.2848 218.57 99.1131 219.878H103.038C102.879 218.583 102.179 217.869 101.082 217.869ZM106.662 218.834C106.662 220.79 111.221 219.178 111.221 222.072C111.221 223.38 110.058 224.212 108.406 224.212C106.741 224.212 105.578 223.419 105.314 221.768H106.477C106.635 222.745 107.362 223.287 108.446 223.287C109.503 223.287 110.058 222.812 110.058 222.151C110.058 220.235 105.552 221.82 105.552 218.913C105.552 217.843 106.384 216.865 108.102 216.865C109.622 216.865 110.745 217.579 110.97 219.323H109.807C109.635 218.226 109.027 217.817 108.036 217.817C107.164 217.817 106.662 218.253 106.662 218.834ZM112.604 216.099V214.539H113.767V216.099H112.604ZM112.604 224.054V217.037H113.767V224.054H112.604ZM118.24 224.212C116.377 224.212 115.254 222.838 115.254 220.552C115.254 218.173 116.403 216.865 118.24 216.865C119.073 216.865 119.747 217.209 120.209 217.856V214.539H121.372V224.054H120.209V223.168C119.747 223.829 119.073 224.212 118.24 224.212ZM118.319 223.208C119.548 223.208 120.209 222.27 120.209 220.552C120.209 218.847 119.522 217.869 118.319 217.869C117.104 217.869 116.443 218.821 116.443 220.552C116.443 222.243 117.13 223.208 118.319 223.208ZM129.29 221.768C128.906 223.406 127.73 224.212 126.131 224.212C124.096 224.212 122.867 222.838 122.867 220.552C122.867 218.173 124.096 216.865 126.065 216.865C128.047 216.865 129.237 218.226 129.237 220.459V220.75H124.057C124.123 222.323 124.863 223.208 126.131 223.208C127.122 223.208 127.823 222.732 128.074 221.768H129.29ZM126.065 217.869C124.942 217.869 124.268 218.57 124.096 219.878H128.021C127.862 218.583 127.162 217.869 126.065 217.869ZM130.786 224.054V217.037H131.949V217.988C132.425 217.248 133.191 216.865 134.116 216.865C135.609 216.865 136.495 217.737 136.495 219.363V224.054H135.332V219.6C135.332 218.543 134.856 217.856 133.799 217.856C132.636 217.856 131.949 218.9 131.949 219.904V224.054H130.786ZM138.507 222.032V217.962H137.529V217.037H138.507V215.425H139.67V217.037H141.216V217.962H139.67V222.032C139.67 222.878 139.921 223.274 140.952 223.274H141.189V224.107C141.057 224.173 140.767 224.212 140.436 224.212C139.128 224.212 138.507 223.512 138.507 222.032ZM142.323 216.099V214.539H143.486V216.099H142.323ZM142.323 224.054V217.037H143.486V224.054H142.323ZM146.4 219.323H145.237C145.462 217.777 146.479 216.865 148.197 216.865C150.074 216.865 150.985 217.962 150.985 219.6V222.362C150.985 223.168 151.051 223.67 151.236 224.054H150.008C149.875 223.776 149.836 223.367 149.823 222.944C149.228 223.829 148.276 224.212 147.431 224.212C145.977 224.212 144.999 223.538 144.999 222.204C144.999 221.239 145.528 220.539 146.559 220.195C147.51 219.878 148.475 219.799 149.823 219.785V219.627C149.823 218.49 149.294 217.869 148.091 217.869C147.087 217.869 146.545 218.424 146.4 219.323ZM146.189 222.177C146.189 222.825 146.73 223.208 147.55 223.208C148.845 223.208 149.823 222.19 149.823 220.988V220.658C146.836 220.684 146.189 221.318 146.189 222.177ZM152.892 224.054V214.539H154.055V224.054H152.892Z" fill="#595959"/>
</g>
<g filter="url(#filter2_dd_887_1251)">
<rect x="177.119" y="208.547" width="90.619" height="21.0119" rx="10.506" fill="#F8FAFC" shape-rendering="crispEdges"/>
<path d="M194.359 217.658H193.091C192.76 216.561 191.822 215.953 190.673 215.953C188.915 215.953 187.871 217.328 187.871 219.574C187.871 221.82 188.902 223.168 190.673 223.168C191.783 223.168 192.681 222.6 193.064 221.517H194.346C193.844 223.221 192.377 224.212 190.659 224.212C188.149 224.212 186.629 222.455 186.629 219.574C186.629 216.707 188.175 214.909 190.712 214.909C192.443 214.909 193.923 215.861 194.359 217.658ZM198.702 224.212C196.694 224.212 195.491 222.838 195.491 220.552C195.491 218.173 196.734 216.865 198.702 216.865C200.711 216.865 201.914 218.266 201.914 220.552C201.914 222.917 200.671 224.212 198.702 224.212ZM198.702 223.208C200.011 223.208 200.724 222.27 200.724 220.552C200.724 218.847 199.997 217.869 198.702 217.869C197.394 217.869 196.681 218.821 196.681 220.552C196.681 222.243 197.407 223.208 198.702 223.208ZM203.41 224.054V217.037H204.573V217.935C205.022 217.222 205.723 216.865 206.582 216.865C207.546 216.865 208.247 217.288 208.577 218.107C209.04 217.288 209.806 216.865 210.744 216.865C212.171 216.865 213.03 217.737 213.03 219.363V224.054H211.867V219.6C211.867 218.543 211.445 217.856 210.493 217.856C209.436 217.856 208.802 218.9 208.802 219.904V224.054H207.639V219.6C207.639 218.543 207.216 217.856 206.265 217.856C205.207 217.856 204.573 218.9 204.573 219.904V224.054H203.41ZM214.882 224.054V217.037H216.045V217.935C216.495 217.222 217.195 216.865 218.054 216.865C219.019 216.865 219.719 217.288 220.049 218.107C220.512 217.288 221.278 216.865 222.216 216.865C223.644 216.865 224.502 217.737 224.502 219.363V224.054H223.34V219.6C223.34 218.543 222.917 217.856 221.965 217.856C220.908 217.856 220.274 218.9 220.274 219.904V224.054H219.111V219.6C219.111 218.543 218.688 217.856 217.737 217.856C216.68 217.856 216.045 218.9 216.045 219.904V224.054H214.882ZM232.42 221.768C232.037 223.406 230.861 224.212 229.262 224.212C227.227 224.212 225.998 222.838 225.998 220.552C225.998 218.173 227.227 216.865 229.196 216.865C231.178 216.865 232.367 218.226 232.367 220.459V220.75H227.187C227.253 222.323 227.993 223.208 229.262 223.208C230.253 223.208 230.953 222.732 231.204 221.768H232.42ZM229.196 217.869C228.072 217.869 227.399 218.57 227.227 219.878H231.151C230.993 218.583 230.292 217.869 229.196 217.869ZM233.917 224.054V217.037H235.08V218.12C235.555 217.262 236.308 216.865 237.154 216.865C237.432 216.865 237.683 216.931 237.815 217.037V218.081C237.617 218.015 237.366 217.988 237.088 217.988C235.687 217.988 235.08 218.86 235.08 220.129V224.054H233.917ZM244.518 219.455H243.355C243.17 218.385 242.457 217.869 241.532 217.869C240.237 217.869 239.55 218.821 239.55 220.552C239.55 222.257 240.276 223.221 241.571 223.221C242.51 223.221 243.184 222.719 243.408 221.715H244.571C244.254 223.459 243.078 224.212 241.545 224.212C239.55 224.212 238.36 222.825 238.36 220.552C238.36 218.173 239.576 216.865 241.532 216.865C243.078 216.865 244.294 217.737 244.518 219.455ZM246.008 216.099V214.539H247.171V216.099H246.008ZM246.008 224.054V217.037H247.171V224.054H246.008ZM250.085 219.323H248.923C249.147 217.777 250.165 216.865 251.883 216.865C253.759 216.865 254.671 217.962 254.671 219.6V222.362C254.671 223.168 254.737 223.67 254.922 224.054H253.693C253.561 223.776 253.521 223.367 253.508 222.944C252.913 223.829 251.962 224.212 251.116 224.212C249.663 224.212 248.685 223.538 248.685 222.204C248.685 221.239 249.213 220.539 250.244 220.195C251.195 219.878 252.16 219.799 253.508 219.785V219.627C253.508 218.49 252.979 217.869 251.777 217.869C250.773 217.869 250.231 218.424 250.085 219.323ZM249.874 222.177C249.874 222.825 250.416 223.208 251.235 223.208C252.53 223.208 253.508 222.19 253.508 220.988V220.658C250.521 220.684 249.874 221.318 249.874 222.177ZM256.577 224.054V214.539H257.74V224.054H256.577Z" fill="#595959"/>
</g>
<g filter="url(#filter3_dd_887_1251)">
<rect x="15.4526" y="245.559" width="81.619" height="21.0119" rx="10.506" fill="#F8FAFC" shape-rendering="crispEdges"/>
<path d="M25.2929 261.065V252.079H26.9711L29.7329 258.673L29.9972 259.479L30.2747 258.673L33.0233 252.079H34.6486V261.065H33.4329V253.546L32.7986 255.317L30.3936 261.065H29.5347L27.1297 255.304L26.5086 253.586V261.065H25.2929ZM36.6078 253.11V251.551H37.7706V253.11H36.6078ZM36.6078 261.065V254.048H37.7706V261.065H36.6078ZM44.081 261.065L42.4027 258.726L42.0592 258.184L41.7156 258.726L40.077 261.065H38.7556L41.4249 257.418L38.967 254.048H40.4206L41.8742 256.11L42.231 256.678L42.5745 256.11L44.0017 254.048H45.3231L42.8652 257.418L45.5345 261.065H44.081ZM52.4032 258.779C52.0199 260.417 50.8439 261.224 49.2449 261.224C47.2099 261.224 45.981 259.849 45.981 257.563C45.981 255.185 47.2099 253.876 49.1789 253.876C51.161 253.876 52.3503 255.237 52.3503 257.471V257.761H47.1703C47.2364 259.334 47.9764 260.219 49.2449 260.219C50.236 260.219 50.9364 259.744 51.1874 258.779H52.4032ZM49.1789 254.881C48.0557 254.881 47.3817 255.581 47.2099 256.889H51.1346C50.976 255.594 50.2757 254.881 49.1789 254.881ZM56.5295 261.224C54.6663 261.224 53.5431 259.849 53.5431 257.563C53.5431 255.185 54.6927 253.876 56.5295 253.876C57.362 253.876 58.036 254.22 58.4985 254.867V251.551H59.6613V261.065H58.4985V260.18C58.036 260.84 57.362 261.224 56.5295 261.224ZM56.6088 260.219C57.8377 260.219 58.4985 259.281 58.4985 257.563C58.4985 255.859 57.8113 254.881 56.6088 254.881C55.3931 254.881 54.7324 255.832 54.7324 257.563C54.7324 259.255 55.4195 260.219 56.6088 260.219ZM61.4872 257.96V256.969H65.0022V257.96H61.4872ZM71.3096 258.197V254.048H72.4725V261.065H71.3096V260.114C70.8339 260.854 70.0939 261.224 69.1821 261.224C67.7153 261.224 66.8432 260.365 66.8432 258.739V254.048H68.006V258.501C68.006 259.559 68.4685 260.232 69.4992 260.232C70.6357 260.232 71.3096 259.202 71.3096 258.197ZM75.1868 255.845C75.1868 257.801 79.7457 256.189 79.7457 259.083C79.7457 260.391 78.5828 261.224 76.931 261.224C75.266 261.224 74.1032 260.431 73.8389 258.779H75.0018C75.1603 259.757 75.8871 260.299 76.9707 260.299C78.0278 260.299 78.5828 259.823 78.5828 259.162C78.5828 257.246 74.0768 258.832 74.0768 255.925C74.0768 254.854 74.9093 253.876 76.6271 253.876C78.1468 253.876 79.27 254.59 79.4946 256.334H78.3318C78.16 255.237 77.5521 254.828 76.561 254.828C75.6889 254.828 75.1868 255.264 75.1868 255.845ZM87.1939 258.779C86.8107 260.417 85.6346 261.224 84.0357 261.224C82.0007 261.224 80.7718 259.849 80.7718 257.563C80.7718 255.185 82.0007 253.876 83.9696 253.876C85.9518 253.876 87.141 255.237 87.141 257.471V257.761H81.961C82.0271 259.334 82.7671 260.219 84.0357 260.219C85.0268 260.219 85.7271 259.744 85.9782 258.779H87.1939ZM83.9696 254.881C82.8464 254.881 82.1725 255.581 82.0007 256.889H85.9253C85.7668 255.594 85.0664 254.881 83.9696 254.881Z" fill="#595959"/>
</g>
<defs>
<filter id="filter0_dd_887_1251" x="7.7443" y="204.143" width="67.0358" height="36.4284" filterUnits="userSpaceOnUse" color-interpolation-filters="sRGB">
<feFlood flood-opacity="0" result="BackgroundImageFix"/>
<feColorMatrix in="SourceAlpha" type="matrix" values="0 0 0 0 0 0 0 0 0 0 0 0 0 0 0 0 0 0 127 0" result="hardAlpha"/>
<feMorphology radius="1.10119" operator="erode" in="SourceAlpha" result="effect1_dropShadow_887_1251"/>
<feOffset dy="3.30357"/>
<feGaussianBlur stdDeviation="4.40476"/>
<feComposite in2="hardAlpha" operator="out"/>
<feColorMatrix type="matrix" values="0 0 0 0 0 0 0 0 0 0 0 0 0 0 0 0 0 0 0.05 0"/>
<feBlend mode="normal" in2="BackgroundImageFix" result="effect1_dropShadow_887_1251"/>
<feColorMatrix in="SourceAlpha" type="matrix" values="0 0 0 0 0 0 0 0 0 0 0 0 0 0 0 0 0 0 127 0" result="hardAlpha"/>
<feOffset/>
<feGaussianBlur stdDeviation="0.550595"/>
<feComposite in2="hardAlpha" operator="out"/>
<feColorMatrix type="matrix" values="0 0 0 0 0 0 0 0 0 0 0 0 0 0 0 0 0 0 0.24 0"/>
<feBlend mode="normal" in2="effect1_dropShadow_887_1251" result="effect2_dropShadow_887_1251"/>
<feBlend mode="normal" in="SourceGraphic" in2="effect2_dropShadow_887_1251" result="shape"/>
</filter>
<filter id="filter1_dd_887_1251" x="72.5778" y="204.143" width="99.0358" height="36.4284" filterUnits="userSpaceOnUse" color-interpolation-filters="sRGB">
<feFlood flood-opacity="0" result="BackgroundImageFix"/>
<feColorMatrix in="SourceAlpha" type="matrix" values="0 0 0 0 0 0 0 0 0 0 0 0 0 0 0 0 0 0 127 0" result="hardAlpha"/>
<feMorphology radius="1.10119" operator="erode" in="SourceAlpha" result="effect1_dropShadow_887_1251"/>
<feOffset dy="3.30357"/>
<feGaussianBlur stdDeviation="4.40476"/>
<feComposite in2="hardAlpha" operator="out"/>
<feColorMatrix type="matrix" values="0 0 0 0 0 0 0 0 0 0 0 0 0 0 0 0 0 0 0.05 0"/>
<feBlend mode="normal" in2="BackgroundImageFix" result="effect1_dropShadow_887_1251"/>
<feColorMatrix in="SourceAlpha" type="matrix" values="0 0 0 0 0 0 0 0 0 0 0 0 0 0 0 0 0 0 127 0" result="hardAlpha"/>
<feOffset/>
<feGaussianBlur stdDeviation="0.550595"/>
<feComposite in2="hardAlpha" operator="out"/>
<feColorMatrix type="matrix" values="0 0 0 0 0 0 0 0 0 0 0 0 0 0 0 0 0 0 0.24 0"/>
<feBlend mode="normal" in2="effect1_dropShadow_887_1251" result="effect2_dropShadow_887_1251"/>
<feBlend mode="normal" in="SourceGraphic" in2="effect2_dropShadow_887_1251" result="shape"/>
</filter>
<filter id="filter2_dd_887_1251" x="169.411" y="204.143" width="106.036" height="36.4284" filterUnits="userSpaceOnUse" color-interpolation-filters="sRGB">
<feFlood flood-opacity="0" result="BackgroundImageFix"/>
<feColorMatrix in="SourceAlpha" type="matrix" values="0 0 0 0 0 0 0 0 0 0 0 0 0 0 0 0 0 0 127 0" result="hardAlpha"/>
<feMorphology radius="1.10119" operator="erode" in="SourceAlpha" result="effect1_dropShadow_887_1251"/>
<feOffset dy="3.30357"/>
<feGaussianBlur stdDeviation="4.40476"/>
<feComposite in2="hardAlpha" operator="out"/>
<feColorMatrix type="matrix" values="0 0 0 0 0 0 0 0 0 0 0 0 0 0 0 0 0 0 0.05 0"/>
<feBlend mode="normal" in2="BackgroundImageFix" result="effect1_dropShadow_887_1251"/>
<feColorMatrix in="SourceAlpha" type="matrix" values="0 0 0 0 0 0 0 0 0 0 0 0 0 0 0 0 0 0 127 0" result="hardAlpha"/>
<feOffset/>
<feGaussianBlur stdDeviation="0.550595"/>
<feComposite in2="hardAlpha" operator="out"/>
<feColorMatrix type="matrix" values="0 0 0 0 0 0 0 0 0 0 0 0 0 0 0 0 0 0 0.24 0"/>
<feBlend mode="normal" in2="effect1_dropShadow_887_1251" result="effect2_dropShadow_887_1251"/>
<feBlend mode="normal" in="SourceGraphic" in2="effect2_dropShadow_887_1251" result="shape"/>
</filter>
<filter id="filter3_dd_887_1251" x="7.7443" y="241.154" width="97.0358" height="36.4284" filterUnits="userSpaceOnUse" color-interpolation-filters="sRGB">
<feFlood flood-opacity="0" result="BackgroundImageFix"/>
<feColorMatrix in="SourceAlpha" type="matrix" values="0 0 0 0 0 0 0 0 0 0 0 0 0 0 0 0 0 0 127 0" result="hardAlpha"/>
<feMorphology radius="1.10119" operator="erode" in="SourceAlpha" result="effect1_dropShadow_887_1251"/>
<feOffset dy="3.30357"/>
<feGaussianBlur stdDeviation="4.40476"/>
<feComposite in2="hardAlpha" operator="out"/>
<feColorMatrix type="matrix" values="0 0 0 0 0 0 0 0 0 0 0 0 0 0 0 0 0 0 0.05 0"/>
<feBlend mode="normal" in2="BackgroundImageFix" result="effect1_dropShadow_887_1251"/>
<feColorMatrix in="SourceAlpha" type="matrix" values="0 0 0 0 0 0 0 0 0 0 0 0 0 0 0 0 0 0 127 0" result="hardAlpha"/>
<feOffset/>
<feGaussianBlur stdDeviation="0.550595"/>
<feComposite in2="hardAlpha" operator="out"/>
<feColorMatrix type="matrix" values="0 0 0 0 0 0 0 0 0 0 0 0 0 0 0 0 0 0 0.24 0"/>
<feBlend mode="normal" in2="effect1_dropShadow_887_1251" result="effect2_dropShadow_887_1251"/>
<feBlend mode="normal" in="SourceGraphic" in2="effect2_dropShadow_887_1251" result="shape"/>
</filter>
</defs>
</svg>
