<svg width="313" height="293" viewBox="0 0 313 293" fill="none" xmlns="http://www.w3.org/2000/svg">
<rect x="1.05817" y="0.549384" width="310.705" height="291.985" rx="10.7154" fill="#F8FAFC"/>
<rect x="1.05817" y="0.549384" width="310.705" height="291.985" rx="10.7154" stroke="#E2E8F0" stroke-width="0.931777"/>
<path d="M15.5005 44.7455H33.1195V27.1265H15.5005V44.7455ZM41.3226 43.5122V31.5313H45.8154C48.4054 31.5313 50.044 32.8703 50.044 34.9846C50.044 36.3413 49.4273 37.2927 48.3526 37.8213C49.0573 38.1913 49.445 38.8432 49.7092 39.9179L50.6078 43.5122H48.5288L47.8064 40.3055C47.4892 38.9313 46.9607 38.667 45.6392 38.667H43.2959V43.5122H41.3226ZM45.7626 33.117H43.2959V37.0813H45.7273C47.1897 37.0813 48.0178 36.306 48.0178 35.0903C48.0178 33.8922 47.1897 33.117 45.7626 33.117ZM60.6134 40.4465C60.1024 42.6313 58.4815 43.7413 56.2791 43.7413C53.5129 43.7413 51.8215 41.8913 51.8215 38.8255C51.8215 35.6365 53.5129 33.8746 56.191 33.8746C58.9043 33.8746 60.5429 35.707 60.5429 38.7198V39.1779H53.7419C53.8477 41.0984 54.7462 42.1732 56.2791 42.1732C57.4772 42.1732 58.3229 41.6093 58.64 40.4465H60.6134ZM56.191 35.4427C54.8343 35.4427 54.0238 36.306 53.7948 37.8917H58.5872C58.3581 36.306 57.53 35.4427 56.191 35.4427ZM64.2107 37.187H62.3254C62.625 35.1079 64.0521 33.8746 66.3954 33.8746C68.9502 33.8746 70.2188 35.3722 70.2188 37.557V41.2217C70.2188 42.3493 70.3245 43.0013 70.5359 43.5122H68.5626C68.4216 43.1598 68.3688 42.6665 68.3512 42.1379C67.5583 43.2479 66.3426 43.7413 65.215 43.7413C63.3121 43.7413 62.0083 42.8427 62.0083 41.0455C62.0083 39.7593 62.7131 38.8079 64.1226 38.3322C65.3735 37.9093 66.6421 37.8036 68.3335 37.786V37.5746C68.3335 36.2003 67.6993 35.4603 66.2545 35.4603C65.0388 35.4603 64.3869 36.1298 64.2107 37.187ZM63.9112 40.9751C63.9112 41.7679 64.5631 42.2613 65.5674 42.2613C67.1354 42.2613 68.3335 41.0103 68.3335 39.4951V39.0722C64.7216 39.1074 63.9112 39.9003 63.9112 40.9751ZM72.5828 43.5122V30.8265H74.468V43.5122H72.5828ZM80.346 43.5122V31.5313H88.6094V33.117H82.3193V36.5351H87.9398V38.1032H82.3193V41.9265H88.6094V43.5122H80.346ZM91.9919 36.5879C91.9919 38.9841 98 36.9755 98 40.7989C98 42.5784 96.3967 43.7413 94.1238 43.7413C91.851 43.7413 90.2476 42.6841 89.8953 40.4465H91.7805C91.9743 41.627 92.8553 42.2789 94.1767 42.2789C95.4453 42.2789 96.1148 41.7151 96.1148 40.9222C96.1148 38.5789 90.1948 40.5522 90.1948 36.6936C90.1948 35.2313 91.34 33.8746 93.7186 33.8746C95.8153 33.8746 97.3657 34.8436 97.6653 37.187H95.78C95.5686 35.8655 94.8286 35.3722 93.6305 35.3722C92.591 35.3722 91.9919 35.8832 91.9919 36.5879ZM99.9634 40.7108V35.5836H98.6949V34.1213H99.9634V31.9541H101.849V34.1213H103.875V35.5836H101.849V40.6051C101.849 41.6798 102.148 42.1908 103.47 42.1908H103.84V43.5651C103.628 43.6708 103.188 43.7413 102.659 43.7413C100.827 43.7413 99.9634 42.737 99.9634 40.7108ZM107.071 37.187H105.186C105.485 35.1079 106.913 33.8746 109.256 33.8746C111.811 33.8746 113.079 35.3722 113.079 37.557V41.2217C113.079 42.3493 113.185 43.0013 113.396 43.5122H111.423C111.282 43.1598 111.229 42.6665 111.212 42.1379C110.419 43.2479 109.203 43.7413 108.075 43.7413C106.173 43.7413 104.869 42.8427 104.869 41.0455C104.869 39.7593 105.573 38.8079 106.983 38.3322C108.234 37.9093 109.503 37.8036 111.194 37.786V37.5746C111.194 36.2003 110.56 35.4603 109.115 35.4603C107.899 35.4603 107.247 36.1298 107.071 37.187ZM106.772 40.9751C106.772 41.7679 107.423 42.2613 108.428 42.2613C109.996 42.2613 111.194 41.0103 111.194 39.4951V39.0722C107.582 39.1074 106.772 39.9003 106.772 40.9751ZM115.69 40.7108V35.5836H114.421V34.1213H115.69V31.9541H117.575V34.1213H119.601V35.5836H117.575V40.6051C117.575 41.6798 117.875 42.1908 119.196 42.1908H119.566V43.5651C119.355 43.6708 118.914 43.7413 118.386 43.7413C116.553 43.7413 115.69 42.737 115.69 40.7108ZM129.352 40.4465C128.841 42.6313 127.22 43.7413 125.017 43.7413C122.251 43.7413 120.56 41.8913 120.56 38.8255C120.56 35.6365 122.251 33.8746 124.929 33.8746C127.643 33.8746 129.281 35.707 129.281 38.7198V39.1779H122.48C122.586 41.0984 123.485 42.1732 125.017 42.1732C126.216 42.1732 127.061 41.6093 127.378 40.4465H129.352ZM124.929 35.4427C123.573 35.4427 122.762 36.306 122.533 37.8917H127.326C127.097 36.306 126.268 35.4427 124.929 35.4427Z" fill="#262626"/>
<path d="M25.3495 73.3218L23.2452 66.1354L23.0304 65.3481L22.8014 66.1354L20.697 73.3218H19.1366L16.0445 63.5873H17.4474L19.7522 71.2031L19.9526 71.9332L20.1387 71.2031L22.3576 63.5873H23.7748L25.9794 71.2031L26.1655 71.9332L26.3516 71.2031L28.6421 63.5873H29.9878L26.8956 73.3218H25.3495ZM31.531 73.3218V63.0146H32.7908V66.751C33.3061 65.9493 34.1364 65.5342 35.1385 65.5342C36.7562 65.5342 37.7153 66.479 37.7153 68.2398V73.3218H36.4555V68.4975C36.4555 67.3522 35.9402 66.6078 34.795 66.6078C33.5352 66.6078 32.7908 67.7387 32.7908 68.8267V73.3218H31.531ZM46.2941 70.8452C45.8789 72.6203 44.6049 73.4936 42.8727 73.4936C40.6681 73.4936 39.3368 72.0048 39.3368 69.5282C39.3368 66.9514 40.6681 65.5342 42.8011 65.5342C44.9484 65.5342 46.2368 67.0087 46.2368 69.428V69.7429H40.6252C40.6967 71.4464 41.4984 72.4056 42.8727 72.4056C43.9463 72.4056 44.7051 71.8902 44.9771 70.8452H46.2941ZM42.8011 66.6221C41.5843 66.6221 40.8542 67.3809 40.6681 68.7981H44.9198C44.748 67.3952 43.9893 66.6221 42.8011 66.6221ZM48.0873 71.1315V66.7223H47.028V65.7203H48.0873V63.9738H49.3471V65.7203H51.022V66.7223H49.3471V71.1315C49.3471 72.0477 49.6191 72.4772 50.7357 72.4772H50.9934V73.379C50.8502 73.4506 50.5353 73.4936 50.1774 73.4936C48.7601 73.4936 48.0873 72.7348 48.0873 71.1315ZM52.2214 73.3218V63.0146H53.4811V66.751C53.9965 65.9493 54.8268 65.5342 55.8289 65.5342C57.4465 65.5342 58.4056 66.479 58.4056 68.2398V73.3218H57.1459V68.4975C57.1459 67.3522 56.6305 66.6078 55.4853 66.6078C54.2255 66.6078 53.4811 67.7387 53.4811 68.8267V73.3218H52.2214ZM66.9844 70.8452C66.5693 72.6203 65.2952 73.4936 63.563 73.4936C61.3584 73.4936 60.0271 72.0048 60.0271 69.5282C60.0271 66.9514 61.3584 65.5342 63.4914 65.5342C65.6388 65.5342 66.9272 67.0087 66.9272 69.428V69.7429H61.3155C61.3871 71.4464 62.1887 72.4056 63.563 72.4056C64.6367 72.4056 65.3954 71.8902 65.6674 70.8452H66.9844ZM63.4914 66.6221C62.2746 66.6221 61.5445 67.3809 61.3584 68.7981H65.6101C65.4383 67.3952 64.6796 66.6221 63.4914 66.6221ZM68.6059 73.3218V65.7203H69.8656V66.8941C70.381 65.9636 71.197 65.5342 72.1132 65.5342C72.4138 65.5342 72.6858 65.6057 72.8289 65.7203V66.8512C72.6142 66.7796 72.3422 66.751 72.0416 66.751C70.5241 66.751 69.8656 67.6958 69.8656 69.0701V73.3218H68.6059ZM76.8121 64.7039V63.0146H78.0719V64.7039H76.8121ZM76.8121 73.3218V65.7203H78.0719V73.3218H76.8121ZM80.2412 71.1315V66.7223H79.1819V65.7203H80.2412V63.9738H81.501V65.7203H83.1759V66.7223H81.501V71.1315C81.501 72.0477 81.773 72.4772 82.8896 72.4772H83.1473V73.379C83.0041 73.4506 82.6892 73.4936 82.3313 73.4936C80.914 73.4936 80.2412 72.7348 80.2412 71.1315ZM84.4755 66.9371L84.2464 63.5873H85.6207L85.3773 66.9371H84.4755ZM88.4233 67.6672C88.4233 69.7859 93.3621 68.0394 93.3621 71.1745C93.3621 72.5917 92.1024 73.4936 90.3129 73.4936C88.5092 73.4936 87.2494 72.6346 86.9631 70.8452H88.2229C88.3947 71.9045 89.182 72.4915 90.3559 72.4915C91.5011 72.4915 92.1024 71.9761 92.1024 71.2603C92.1024 69.1846 87.2208 70.9025 87.2208 67.7531C87.2208 66.5935 88.1227 65.5342 89.9837 65.5342C91.63 65.5342 92.8468 66.3072 93.0901 68.1968H91.8304C91.6443 67.0087 90.9858 66.5649 89.9121 66.5649C88.9673 66.5649 88.4233 67.0373 88.4233 67.6672ZM97.7261 73.3218V65.7203H98.9859V66.8941C99.5012 65.9636 100.317 65.5342 101.233 65.5342C101.534 65.5342 101.806 65.6057 101.949 65.7203V66.8512C101.734 66.7796 101.462 66.751 101.162 66.751C99.6444 66.751 98.9859 67.6958 98.9859 69.0701V73.3218H97.7261ZM109.497 70.8452C109.082 72.6203 107.808 73.4936 106.076 73.4936C103.871 73.4936 102.54 72.0048 102.54 69.5282C102.54 66.9514 103.871 65.5342 106.004 65.5342C108.152 65.5342 109.44 67.0087 109.44 69.428V69.7429H103.829C103.9 71.4464 104.702 72.4056 106.076 72.4056C107.15 72.4056 107.908 71.8902 108.18 70.8452H109.497ZM106.004 66.6221C104.788 66.6221 104.058 67.3809 103.871 68.7981H108.123C107.951 67.3952 107.193 66.6221 106.004 66.6221ZM112.049 67.6672C112.049 69.7859 116.988 68.0394 116.988 71.1745C116.988 72.5917 115.728 73.4936 113.939 73.4936C112.135 73.4936 110.876 72.6346 110.589 70.8452H111.849C112.021 71.9045 112.808 72.4915 113.982 72.4915C115.127 72.4915 115.728 71.9761 115.728 71.2603C115.728 69.1846 110.847 70.9025 110.847 67.7531C110.847 66.5935 111.749 65.5342 113.61 65.5342C115.256 65.5342 116.473 66.3072 116.716 68.1968H115.457C115.27 67.0087 114.612 66.5649 113.538 66.5649C112.593 66.5649 112.049 67.0373 112.049 67.6672ZM118.486 64.7039V63.0146H119.746V64.7039H118.486ZM118.486 73.3218V65.7203H119.746V73.3218H118.486ZM124.592 73.4936C122.574 73.4936 121.357 72.0048 121.357 69.5282C121.357 66.9514 122.603 65.5342 124.592 65.5342C125.494 65.5342 126.224 65.9064 126.725 66.6078V63.0146H127.985V73.3218H126.725V72.3626C126.224 73.0784 125.494 73.4936 124.592 73.4936ZM124.678 72.4056C126.01 72.4056 126.725 71.3892 126.725 69.5282C126.725 67.6815 125.981 66.6221 124.678 66.6221C123.361 66.6221 122.646 67.6528 122.646 69.5282C122.646 71.3606 123.39 72.4056 124.678 72.4056ZM136.563 70.8452C136.148 72.6203 134.873 73.4936 133.141 73.4936C130.937 73.4936 129.605 72.0048 129.605 69.5282C129.605 66.9514 130.937 65.5342 133.07 65.5342C135.217 65.5342 136.505 67.0087 136.505 69.428V69.7429H130.894C130.965 71.4464 131.767 72.4056 133.141 72.4056C134.215 72.4056 134.974 71.8902 135.246 70.8452H136.563ZM133.07 66.6221C131.853 66.6221 131.123 67.3809 130.937 68.7981H135.188C135.017 67.3952 134.258 66.6221 133.07 66.6221ZM138.184 73.3218V65.7203H139.444V66.751C139.959 65.9493 140.79 65.5342 141.792 65.5342C143.409 65.5342 144.368 66.479 144.368 68.2398V73.3218H143.109V68.4975C143.109 67.3522 142.593 66.6078 141.448 66.6078C140.188 66.6078 139.444 67.7387 139.444 68.8267V73.3218H138.184ZM146.548 71.1315V66.7223H145.489V65.7203H146.548V63.9738H147.808V65.7203H149.483V66.7223H147.808V71.1315C147.808 72.0477 148.08 72.4772 149.197 72.4772H149.454V73.379C149.311 73.4506 148.996 73.4936 148.638 73.4936C147.221 73.4936 146.548 72.7348 146.548 71.1315ZM150.682 64.7039V63.0146H151.942V64.7039H150.682ZM150.682 73.3218V65.7203H151.942V73.3218H150.682ZM155.099 68.1968H153.839C154.083 66.5219 155.185 65.5342 157.046 65.5342C159.079 65.5342 160.067 66.7223 160.067 68.4975V71.4894C160.067 72.3626 160.138 72.9066 160.339 73.3218H159.007C158.864 73.0212 158.821 72.5774 158.807 72.1193C158.163 73.0784 157.132 73.4936 156.216 73.4936C154.641 73.4936 153.582 72.7635 153.582 71.3176C153.582 70.2726 154.154 69.5139 155.271 69.1417C156.302 68.7981 157.347 68.7122 158.807 68.6979V68.5261C158.807 67.295 158.234 66.6221 156.931 66.6221C155.843 66.6221 155.257 67.2234 155.099 68.1968ZM154.87 71.289C154.87 71.9904 155.457 72.4056 156.345 72.4056C157.747 72.4056 158.807 71.3033 158.807 70.0006V69.6427C155.571 69.6713 154.87 70.3585 154.87 71.289ZM162.132 73.3218V63.0146H163.392V73.3218H162.132ZM165.246 73.3218V71.7757H166.792V72.606C166.792 73.9373 166.577 74.7533 166.076 75.6838H165.36C165.69 74.8249 165.876 74.2093 165.876 73.3218H165.246ZM177.797 68.34H176.537C176.337 67.1804 175.564 66.6221 174.562 66.6221C173.159 66.6221 172.414 67.6528 172.414 69.5282C172.414 71.3749 173.202 72.4199 174.604 72.4199C175.621 72.4199 176.351 71.8759 176.594 70.7879H177.854C177.511 72.6776 176.236 73.4936 174.576 73.4936C172.414 73.4936 171.126 71.9904 171.126 69.5282C171.126 66.9514 172.443 65.5342 174.562 65.5342C176.236 65.5342 177.553 66.479 177.797 68.34ZM182.503 73.4936C180.327 73.4936 179.024 72.0048 179.024 69.5282C179.024 66.9514 180.37 65.5342 182.503 65.5342C184.679 65.5342 185.982 67.0516 185.982 69.5282C185.982 72.0906 184.636 73.4936 182.503 73.4936ZM182.503 72.4056C183.92 72.4056 184.693 71.3892 184.693 69.5282C184.693 67.6815 183.906 66.6221 182.503 66.6221C181.086 66.6221 180.313 67.6528 180.313 69.5282C180.313 71.3606 181.1 72.4056 182.503 72.4056ZM187.603 73.3218V65.7203H188.863V66.6937C189.35 65.9207 190.108 65.5342 191.039 65.5342C192.084 65.5342 192.843 65.9923 193.201 66.8798C193.702 65.9923 194.532 65.5342 195.548 65.5342C197.094 65.5342 198.025 66.479 198.025 68.2398V73.3218H196.765V68.4975C196.765 67.3522 196.307 66.6078 195.276 66.6078C194.131 66.6078 193.444 67.7387 193.444 68.8267V73.3218H192.184V68.4975C192.184 67.3522 191.726 66.6078 190.695 66.6078C189.55 66.6078 188.863 67.7387 188.863 68.8267V73.3218H187.603ZM200.031 73.3218V65.7203H201.291V66.6937C201.778 65.9207 202.537 65.5342 203.467 65.5342C204.512 65.5342 205.271 65.9923 205.629 66.8798C206.13 65.9923 206.96 65.5342 207.977 65.5342C209.523 65.5342 210.453 66.479 210.453 68.2398V73.3218H209.193V68.4975C209.193 67.3522 208.735 66.6078 207.705 66.6078C206.559 66.6078 205.872 67.7387 205.872 68.8267V73.3218H204.612V68.4975C204.612 67.3522 204.154 66.6078 203.124 66.6078C201.978 66.6078 201.291 67.7387 201.291 68.8267V73.3218H200.031ZM219.03 70.8452C218.615 72.6203 217.341 73.4936 215.609 73.4936C213.404 73.4936 212.073 72.0048 212.073 69.5282C212.073 66.9514 213.404 65.5342 215.537 65.5342C217.685 65.5342 218.973 67.0087 218.973 69.428V69.7429H213.361C213.433 71.4464 214.235 72.4056 215.609 72.4056C216.683 72.4056 217.441 71.8902 217.713 70.8452H219.03ZM215.537 66.6221C214.321 66.6221 213.591 67.3809 213.404 68.7981H217.656C217.484 67.3952 216.726 66.6221 215.537 66.6221ZM220.652 73.3218V65.7203H221.912V66.8941C222.427 65.9636 223.243 65.5342 224.159 65.5342C224.46 65.5342 224.732 65.6057 224.875 65.7203V66.8512C224.66 66.7796 224.388 66.751 224.088 66.751C222.57 66.751 221.912 67.6958 221.912 69.0701V73.3218H220.652ZM232.137 68.34H230.877C230.677 67.1804 229.904 66.6221 228.902 66.6221C227.499 66.6221 226.754 67.6528 226.754 69.5282C226.754 71.3749 227.542 72.4199 228.945 72.4199C229.961 72.4199 230.691 71.8759 230.934 70.7879H232.194C231.851 72.6776 230.577 73.4936 228.916 73.4936C226.754 73.4936 225.466 71.9904 225.466 69.5282C225.466 66.9514 226.783 65.5342 228.902 65.5342C230.577 65.5342 231.894 66.479 232.137 68.34ZM233.751 64.7039V63.0146H235.011V64.7039H233.751ZM233.751 73.3218V65.7203H235.011V73.3218H233.751ZM238.168 68.1968H236.908C237.152 66.5219 238.254 65.5342 240.115 65.5342C242.148 65.5342 243.135 66.7223 243.135 68.4975V71.4894C243.135 72.3626 243.207 72.9066 243.407 73.3218H242.076C241.933 73.0212 241.89 72.5774 241.876 72.1193C241.231 73.0784 240.201 73.4936 239.285 73.4936C237.71 73.4936 236.651 72.7635 236.651 71.3176C236.651 70.2726 237.223 69.5139 238.34 69.1417C239.37 68.7981 240.415 68.7122 241.876 68.6979V68.5261C241.876 67.295 241.303 66.6221 240 66.6221C238.912 66.6221 238.325 67.2234 238.168 68.1968ZM237.939 71.289C237.939 71.9904 238.526 72.4056 239.413 72.4056C240.816 72.4056 241.876 71.3033 241.876 70.0006V69.6427C238.64 69.6713 237.939 70.3585 237.939 71.289ZM245.201 73.3218V63.0146H246.46V73.3218H245.201ZM248.315 73.3218V71.7757H249.861V72.606C249.861 73.9373 249.646 74.7533 249.145 75.6838H248.429C248.759 74.8249 248.945 74.2093 248.945 73.3218H248.315ZM257.673 73.4936C255.497 73.4936 254.195 72.0048 254.195 69.5282C254.195 66.9514 255.54 65.5342 257.673 65.5342C259.849 65.5342 261.152 67.0516 261.152 69.5282C261.152 72.0906 259.806 73.4936 257.673 73.4936ZM257.673 72.4056C259.091 72.4056 259.864 71.3892 259.864 69.5282C259.864 67.6815 259.076 66.6221 257.673 66.6221C256.256 66.6221 255.483 67.6528 255.483 69.5282C255.483 71.3606 256.27 72.4056 257.673 72.4056ZM262.773 73.3218V65.7203H264.033V66.8941C264.549 65.9636 265.365 65.5342 266.281 65.5342C266.581 65.5342 266.853 65.6057 266.997 65.7203V66.8512C266.782 66.7796 266.51 66.751 266.209 66.751C264.692 66.751 264.033 67.6958 264.033 69.0701V73.3218H262.773ZM16.5026 96.3218V88.7203H17.7623V89.6937C18.2491 88.9207 19.0078 88.5342 19.9383 88.5342C20.9833 88.5342 21.742 88.9923 22.0999 89.8798C22.601 88.9923 23.4313 88.5342 24.4477 88.5342C25.9937 88.5342 26.9242 89.479 26.9242 91.2398V96.3218H25.6645V91.4975C25.6645 90.3522 25.2064 89.6078 24.1757 89.6078C23.0304 89.6078 22.3433 90.7387 22.3433 91.8267V96.3218H21.0835V91.4975C21.0835 90.3522 20.6254 89.6078 19.5947 89.6078C18.4495 89.6078 17.7623 90.7387 17.7623 91.8267V96.3218H16.5026ZM28.9308 87.7039V86.0146H30.1905V87.7039H28.9308ZM28.9308 96.3218V88.7203H30.1905V96.3218H28.9308ZM37.0267 96.3218L35.2086 93.7879L34.8364 93.201L34.4642 93.7879L32.6891 96.3218H31.2576L34.1493 92.3707L31.4866 88.7203H33.0613L34.636 90.9535L35.0225 91.569L35.3947 90.9535L36.9408 88.7203H38.3724L35.7097 92.3707L38.6014 96.3218H37.0267ZM46.0424 93.8452C45.6273 95.6203 44.3532 96.4936 42.621 96.4936C40.4165 96.4936 39.0851 95.0048 39.0851 92.5282C39.0851 89.9514 40.4165 88.5342 42.5495 88.5342C44.6968 88.5342 45.9852 90.0087 45.9852 92.428V92.7429H40.3735C40.4451 94.4464 41.2468 95.4056 42.621 95.4056C43.6947 95.4056 44.4534 94.8902 44.7254 93.8452H46.0424ZM42.5495 89.6221C41.3327 89.6221 40.6026 90.3809 40.4165 91.7981H44.6682C44.4964 90.3952 43.7377 89.6221 42.5495 89.6221ZM50.5127 96.4936C48.4942 96.4936 47.2774 95.0048 47.2774 92.5282C47.2774 89.9514 48.5228 88.5342 50.5127 88.5342C51.4145 88.5342 52.1446 88.9064 52.6457 89.6078V86.0146H53.9054V96.3218H52.6457V95.3626C52.1446 96.0784 51.4145 96.4936 50.5127 96.4936ZM50.5986 95.4056C51.9299 95.4056 52.6457 94.3892 52.6457 92.5282C52.6457 90.6815 51.9013 89.6221 50.5986 89.6221C49.2815 89.6221 48.5658 90.6528 48.5658 92.5282C48.5658 94.3606 49.3102 95.4056 50.5986 95.4056ZM55.8834 92.9576V91.884H59.6914V92.9576H55.8834ZM66.5244 93.2153V88.7203H67.7842V96.3218H66.5244V95.2911C66.0091 96.0927 65.2074 96.4936 64.2196 96.4936C62.6306 96.4936 61.6858 95.5631 61.6858 93.8023V88.7203H62.9456V93.5446C62.9456 94.6898 63.4466 95.4199 64.5632 95.4199C65.7943 95.4199 66.5244 94.3033 66.5244 93.2153ZM70.7247 90.6672C70.7247 92.7859 75.6635 91.0394 75.6635 94.1745C75.6635 95.5917 74.4038 96.4936 72.6143 96.4936C70.8106 96.4936 69.5508 95.6346 69.2645 93.8452H70.5243C70.696 94.9045 71.4834 95.4915 72.6573 95.4915C73.8025 95.4915 74.4038 94.9761 74.4038 94.2603C74.4038 92.1846 69.5222 93.9025 69.5222 90.7531C69.5222 89.5935 70.424 88.5342 72.2851 88.5342C73.9313 88.5342 75.1482 89.3072 75.3915 91.1968H74.1318C73.9457 90.0087 73.2871 89.5649 72.2135 89.5649C71.2687 89.5649 70.7247 90.0373 70.7247 90.6672ZM83.7324 93.8452C83.3173 95.6203 82.0432 96.4936 80.311 96.4936C78.1064 96.4936 76.7751 95.0048 76.7751 92.5282C76.7751 89.9514 78.1064 88.5342 80.2394 88.5342C82.3868 88.5342 83.6751 90.0087 83.6751 92.428V92.7429H78.0635C78.1351 94.4464 78.9367 95.4056 80.311 95.4056C81.3847 95.4056 82.1434 94.8902 82.4154 93.8452H83.7324ZM80.2394 89.6221C79.0226 89.6221 78.2925 90.3809 78.1064 91.7981H82.3581C82.1863 90.3952 81.4276 89.6221 80.2394 89.6221ZM89.4938 99.4712H88.2341V88.7203H89.4938V89.6651C89.9949 88.9493 90.725 88.5342 91.6268 88.5342C93.6453 88.5342 94.8621 90.023 94.8621 92.4995C94.8621 95.0763 93.6167 96.4936 91.6268 96.4936C90.725 96.4936 89.9949 96.1214 89.4938 95.4199V99.4712ZM91.5409 89.6221C90.2096 89.6221 89.4938 90.6385 89.4938 92.4995C89.4938 94.3462 90.2382 95.4056 91.5409 95.4056C92.858 95.4056 93.5737 94.3749 93.5737 92.4995C93.5737 90.6672 92.8293 89.6221 91.5409 89.6221ZM96.4819 96.3218V88.7203H97.7417V89.8941C98.257 88.9636 99.073 88.5342 99.9892 88.5342C100.29 88.5342 100.562 88.6057 100.705 88.7203V89.8512C100.49 89.7796 100.218 89.751 99.9176 89.751C98.4002 89.751 97.7417 90.6958 97.7417 92.0701V96.3218H96.4819ZM104.775 96.4936C102.599 96.4936 101.296 95.0048 101.296 92.5282C101.296 89.9514 102.642 88.5342 104.775 88.5342C106.951 88.5342 108.253 90.0516 108.253 92.5282C108.253 95.0906 106.908 96.4936 104.775 96.4936ZM104.775 95.4056C106.192 95.4056 106.965 94.3892 106.965 92.5282C106.965 90.6815 106.178 89.6221 104.775 89.6221C103.357 89.6221 102.584 90.6528 102.584 92.5282C102.584 94.3606 103.372 95.4056 104.775 95.4056ZM111.149 99.4712H109.889V88.7203H111.149V89.6651C111.65 88.9493 112.38 88.5342 113.282 88.5342C115.3 88.5342 116.517 90.023 116.517 92.4995C116.517 95.0763 115.272 96.4936 113.282 96.4936C112.38 96.4936 111.65 96.1214 111.149 95.4199V99.4712ZM113.196 89.6221C111.865 89.6221 111.149 90.6385 111.149 92.4995C111.149 94.3462 111.893 95.4056 113.196 95.4056C114.513 95.4056 115.229 94.3749 115.229 92.4995C115.229 90.6672 114.484 89.6221 113.196 89.6221ZM124.708 93.8452C124.293 95.6203 123.018 96.4936 121.286 96.4936C119.082 96.4936 117.75 95.0048 117.75 92.5282C117.75 89.9514 119.082 88.5342 121.215 88.5342C123.362 88.5342 124.65 90.0087 124.65 92.428V92.7429H119.039C119.11 94.4464 119.912 95.4056 121.286 95.4056C122.36 95.4056 123.119 94.8902 123.391 93.8452H124.708ZM121.215 89.6221C119.998 89.6221 119.268 90.3809 119.082 91.7981H123.333C123.162 90.3952 122.403 89.6221 121.215 89.6221ZM126.329 96.3218V88.7203H127.589V89.8941C128.104 88.9636 128.92 88.5342 129.836 88.5342C130.137 88.5342 130.409 88.6057 130.552 88.7203V89.8512C130.337 89.7796 130.065 89.751 129.765 89.751C128.247 89.751 127.589 90.6958 127.589 92.0701V96.3218H126.329ZM131.841 94.1315V89.7223H130.782V88.7203H131.841V86.9738H133.101V88.7203H134.776V89.7223H133.101V94.1315C133.101 95.0477 133.373 95.4772 134.49 95.4772H134.747V96.379C134.604 96.4506 134.289 96.4936 133.931 96.4936C132.514 96.4936 131.841 95.7348 131.841 94.1315ZM135.975 87.7039V86.0146H137.235V87.7039H135.975ZM135.975 96.3218V88.7203H137.235V96.3218H135.975ZM145.803 93.8452C145.388 95.6203 144.114 96.4936 142.382 96.4936C140.177 96.4936 138.846 95.0048 138.846 92.5282C138.846 89.9514 140.177 88.5342 142.31 88.5342C144.458 88.5342 145.746 90.0087 145.746 92.428V92.7429H140.134C140.206 94.4464 141.008 95.4056 142.382 95.4056C143.456 95.4056 144.214 94.8902 144.486 93.8452H145.803ZM142.31 89.6221C141.094 89.6221 140.364 90.3809 140.177 91.7981H144.429C144.257 90.3952 143.499 89.6221 142.31 89.6221ZM148.355 90.6672C148.355 92.7859 153.294 91.0394 153.294 94.1745C153.294 95.5917 152.034 96.4936 150.245 96.4936C148.441 96.4936 147.181 95.6346 146.895 93.8452H148.155C148.327 94.9045 149.114 95.4915 150.288 95.4915C151.433 95.4915 152.034 94.9761 152.034 94.2603C152.034 92.1846 147.153 93.9025 147.153 90.7531C147.153 89.5935 148.055 88.5342 149.916 88.5342C151.562 88.5342 152.779 89.3072 153.022 91.1968H151.762C151.576 90.0087 150.918 89.5649 149.844 89.5649C148.899 89.5649 148.355 90.0373 148.355 90.6672ZM154.649 96.3218V94.7757H156.195V95.606C156.195 96.9373 155.98 97.7533 155.479 98.6838H154.764C155.093 97.8249 155.279 97.2093 155.279 96.3218H154.649ZM161.087 94.1315V89.7223H160.028V88.7203H161.087V86.9738H162.347V88.7203H164.022V89.7223H162.347V94.1315C162.347 95.0477 162.619 95.4772 163.736 95.4772H163.993V96.379C163.85 96.4506 163.535 96.4936 163.177 96.4936C161.76 96.4936 161.087 95.7348 161.087 94.1315ZM165.221 96.3218V86.0146H166.481V89.751C166.996 88.9493 167.827 88.5342 168.829 88.5342C170.447 88.5342 171.406 89.479 171.406 91.2398V96.3218H170.146V91.4975C170.146 90.3522 169.631 89.6078 168.485 89.6078C167.226 89.6078 166.481 90.7387 166.481 91.8267V96.3218H165.221ZM173.414 87.7039V86.0146H174.673V87.7039H173.414ZM173.414 96.3218V88.7203H174.673V96.3218H173.414ZM177.601 90.6672C177.601 92.7859 182.54 91.0394 182.54 94.1745C182.54 95.5917 181.281 96.4936 179.491 96.4936C177.687 96.4936 176.428 95.6346 176.141 93.8452H177.401C177.573 94.9045 178.36 95.4915 179.534 95.4915C180.679 95.4915 181.281 94.9761 181.281 94.2603C181.281 92.1846 176.399 93.9025 176.399 90.7531C176.399 89.5935 177.301 88.5342 179.162 88.5342C180.808 88.5342 182.025 89.3072 182.268 91.1968H181.009C180.822 90.0087 180.164 89.5649 179.09 89.5649C178.145 89.5649 177.601 90.0373 177.601 90.6672ZM185.974 89.7223V88.7203H187.033V88.2049C187.033 86.6016 187.692 85.8428 189.095 85.8428C189.409 85.8428 189.667 85.9001 189.796 85.9574V86.8592H189.667C188.565 86.8592 188.293 87.2887 188.293 88.2049V88.7203H189.796V89.7223H188.293V96.3218H187.033V89.7223H185.974ZM195.643 93.2153V88.7203H196.903V96.3218H195.643V95.2911C195.128 96.0927 194.326 96.4936 193.339 96.4936C191.749 96.4936 190.805 95.5631 190.805 93.8023V88.7203H192.064V93.5446C192.064 94.6898 192.565 95.4199 193.682 95.4199C194.913 95.4199 195.643 94.3033 195.643 93.2153ZM198.913 96.3218V88.7203H200.173V89.751C200.688 88.9493 201.518 88.5342 202.521 88.5342C204.138 88.5342 205.097 89.479 205.097 91.2398V96.3218H203.838V91.4975C203.838 90.3522 203.322 89.6078 202.177 89.6078C200.917 89.6078 200.173 90.7387 200.173 91.8267V96.3218H198.913ZM209.954 96.4936C207.936 96.4936 206.719 95.0048 206.719 92.5282C206.719 89.9514 207.964 88.5342 209.954 88.5342C210.856 88.5342 211.586 88.9064 212.087 89.6078V86.0146H213.347V96.3218H212.087V95.3626C211.586 96.0784 210.856 96.4936 209.954 96.4936ZM210.04 95.4056C211.371 95.4056 212.087 94.3892 212.087 92.5282C212.087 90.6815 211.343 89.6221 210.04 89.6221C208.723 89.6221 208.007 90.6528 208.007 92.5282C208.007 94.3606 208.752 95.4056 210.04 95.4056ZM218.219 87.7039V86.0146H219.479V87.7039H218.219ZM218.219 96.3218V88.7203H219.479V96.3218H218.219ZM222.407 90.6672C222.407 92.7859 227.346 91.0394 227.346 94.1745C227.346 95.5917 226.086 96.4936 224.297 96.4936C222.493 96.4936 221.233 95.6346 220.947 93.8452H222.207C222.379 94.9045 223.166 95.4915 224.34 95.4915C225.485 95.4915 226.086 94.9761 226.086 94.2603C226.086 92.1846 221.205 93.9025 221.205 90.7531C221.205 89.5935 222.107 88.5342 223.968 88.5342C225.614 88.5342 226.831 89.3072 227.074 91.1968H225.814C225.628 90.0087 224.97 89.5649 223.896 89.5649C222.951 89.5649 222.407 90.0373 222.407 90.6672ZM234.559 96.4936C232.54 96.4936 231.323 95.0048 231.323 92.5282C231.323 89.9514 232.569 88.5342 234.559 88.5342C235.461 88.5342 236.191 88.9064 236.692 89.6078V86.0146H237.952V96.3218H236.692V95.3626C236.191 96.0784 235.461 96.4936 234.559 96.4936ZM234.645 95.4056C235.976 95.4056 236.692 94.3892 236.692 92.5282C236.692 90.6815 235.947 89.6221 234.645 89.6221C233.328 89.6221 232.612 90.6528 232.612 92.5282C232.612 94.3606 233.356 95.4056 234.645 95.4056ZM246.529 93.8452C246.114 95.6203 244.84 96.4936 243.108 96.4936C240.903 96.4936 239.572 95.0048 239.572 92.5282C239.572 89.9514 240.903 88.5342 243.036 88.5342C245.183 88.5342 246.472 90.0087 246.472 92.428V92.7429H240.86C240.932 94.4464 241.733 95.4056 243.108 95.4056C244.181 95.4056 244.94 94.8902 245.212 93.8452H246.529ZM243.036 89.6221C241.819 89.6221 241.089 90.3809 240.903 91.7981H245.155C244.983 90.3952 244.224 89.6221 243.036 89.6221ZM249.081 90.6672C249.081 92.7859 254.02 91.0394 254.02 94.1745C254.02 95.5917 252.76 96.4936 250.971 96.4936C249.167 96.4936 247.907 95.6346 247.621 93.8452H248.881C249.052 94.9045 249.84 95.4915 251.014 95.4915C252.159 95.4915 252.76 94.9761 252.76 94.2603C252.76 92.1846 247.878 93.9025 247.878 90.7531C247.878 89.5935 248.78 88.5342 250.641 88.5342C252.288 88.5342 253.504 89.3072 253.748 91.1968H252.488C252.302 90.0087 251.643 89.5649 250.57 89.5649C249.625 89.5649 249.081 90.0373 249.081 90.6672ZM255.518 87.7039V86.0146H256.778V87.7039H255.518ZM255.518 96.3218V88.7203H256.778V96.3218H255.518ZM261.481 96.379C259.548 96.379 258.389 94.9045 258.389 92.4709C258.389 89.9228 259.577 88.5342 261.481 88.5342C262.497 88.5342 263.256 88.892 263.757 89.5506V88.7203H265.017V96.5508C265.017 98.6695 263.657 99.6573 261.91 99.6573C260.121 99.6573 258.861 98.7984 258.589 97.0662H259.849C260.006 98.0683 260.794 98.6123 261.896 98.6123C263.013 98.6123 263.757 98.011 263.757 96.5938V95.2911C263.227 96.0068 262.454 96.379 261.481 96.379ZM261.71 95.2911C263.041 95.2911 263.757 94.289 263.757 92.4566C263.757 90.6672 263.013 89.6221 261.71 89.6221C260.393 89.6221 259.677 90.6242 259.677 92.4709C259.677 94.2603 260.407 95.2911 261.71 95.2911ZM267.037 96.3218V88.7203H268.297V89.751C268.812 88.9493 269.643 88.5342 270.645 88.5342C272.263 88.5342 273.222 89.479 273.222 91.2398V96.3218H271.962V91.4975C271.962 90.3522 271.447 89.6078 270.301 89.6078C269.042 89.6078 268.297 90.7387 268.297 91.8267V96.3218H267.037ZM281.8 93.8452C281.385 95.6203 280.111 96.4936 278.379 96.4936C276.174 96.4936 274.843 95.0048 274.843 92.5282C274.843 89.9514 276.174 88.5342 278.307 88.5342C280.455 88.5342 281.743 90.0087 281.743 92.428V92.7429H276.131C276.203 94.4464 277.005 95.4056 278.379 95.4056C279.453 95.4056 280.211 94.8902 280.483 93.8452H281.8ZM278.307 89.6221C277.091 89.6221 276.361 90.3809 276.174 91.7981H280.426C280.254 90.3952 279.496 89.6221 278.307 89.6221ZM286.271 96.4936C284.252 96.4936 283.035 95.0048 283.035 92.5282C283.035 89.9514 284.281 88.5342 286.271 88.5342C287.173 88.5342 287.903 88.9064 288.404 89.6078V86.0146H289.663V96.3218H288.404V95.3626C287.903 96.0784 287.173 96.4936 286.271 96.4936ZM286.357 95.4056C287.688 95.4056 288.404 94.3892 288.404 92.5282C288.404 90.6815 287.659 89.6221 286.357 89.6221C285.04 89.6221 284.324 90.6528 284.324 92.5282C284.324 94.3606 285.068 95.4056 286.357 95.4056ZM16.6744 117.132V112.722H15.615V111.72H16.6744V109.974H17.9341V111.72H19.609V112.722H17.9341V117.132C17.9341 118.048 18.2061 118.477 19.3227 118.477H19.5804V119.379C19.4372 119.451 19.1223 119.494 18.7644 119.494C17.3472 119.494 16.6744 118.735 16.6744 117.132ZM23.9005 119.494C21.7246 119.494 20.4219 118.005 20.4219 115.528C20.4219 112.951 21.7675 111.534 23.9005 111.534C26.0765 111.534 27.3792 113.052 27.3792 115.528C27.3792 118.091 26.0335 119.494 23.9005 119.494ZM23.9005 118.406C25.3178 118.406 26.0908 117.389 26.0908 115.528C26.0908 113.681 25.3035 112.622 23.9005 112.622C22.4833 112.622 21.7103 113.653 21.7103 115.528C21.7103 117.361 22.4976 118.406 23.9005 118.406ZM34.9587 119.494C32.7827 119.494 31.48 118.005 31.48 115.528C31.48 112.951 32.8257 111.534 34.9587 111.534C37.1346 111.534 38.4373 113.052 38.4373 115.528C38.4373 118.091 37.0917 119.494 34.9587 119.494ZM34.9587 118.406C36.3759 118.406 37.149 117.389 37.149 115.528C37.149 113.681 36.3616 112.622 34.9587 112.622C33.5415 112.622 32.7684 113.653 32.7684 115.528C32.7684 117.361 33.5558 118.406 34.9587 118.406ZM39.1283 112.722V111.72H40.1876V111.205C40.1876 109.602 40.8461 108.843 42.2491 108.843C42.564 108.843 42.8217 108.9 42.9505 108.957V109.859H42.8217C41.7194 109.859 41.4474 110.289 41.4474 111.205V111.72H42.9505V112.722H41.4474V119.322H40.1876V112.722H39.1283ZM43.0287 112.722V111.72H44.088V111.205C44.088 109.602 44.7466 108.843 46.1495 108.843C46.4644 108.843 46.7221 108.9 46.8509 108.957V109.859H46.7221C45.6198 109.859 45.3478 110.289 45.3478 111.205V111.72H46.8509V112.722H45.3478V119.322H44.088V112.722H43.0287ZM54.4304 116.845C54.0153 118.62 52.7412 119.494 51.009 119.494C48.8044 119.494 47.4731 118.005 47.4731 115.528C47.4731 112.951 48.8044 111.534 50.9374 111.534C53.0848 111.534 54.3732 113.009 54.3732 115.428V115.743H48.7615C48.8331 117.446 49.6347 118.406 51.009 118.406C52.0827 118.406 52.8414 117.89 53.1134 116.845H54.4304ZM50.9374 112.622C49.7206 112.622 48.9905 113.381 48.8044 114.798H53.0561C52.8843 113.395 52.1256 112.622 50.9374 112.622ZM56.0519 119.322V111.72H57.3116V112.894C57.827 111.964 58.643 111.534 59.5592 111.534C59.8598 111.534 60.1318 111.606 60.2749 111.72V112.851C60.0602 112.78 59.7882 112.751 59.4876 112.751C57.9701 112.751 57.3116 113.696 57.3116 115.07V119.322H56.0519ZM64.2581 119.322V111.72H65.5179V112.694C66.0046 111.921 66.7633 111.534 67.6938 111.534C68.7388 111.534 69.4976 111.992 69.8555 112.88C70.3565 111.992 71.1868 111.534 72.2032 111.534C73.7493 111.534 74.6798 112.479 74.6798 114.24V119.322H73.42V114.497C73.42 113.352 72.9619 112.608 71.9312 112.608C70.786 112.608 70.0988 113.739 70.0988 114.827V119.322H68.8391V114.497C68.8391 113.352 68.381 112.608 67.3502 112.608C66.205 112.608 65.5179 113.739 65.5179 114.827V119.322H64.2581ZM79.7784 119.494C77.6025 119.494 76.2998 118.005 76.2998 115.528C76.2998 112.951 77.6454 111.534 79.7784 111.534C81.9544 111.534 83.2571 113.052 83.2571 115.528C83.2571 118.091 81.9114 119.494 79.7784 119.494ZM79.7784 118.406C81.1957 118.406 81.9687 117.389 81.9687 115.528C81.9687 113.681 81.1813 112.622 79.7784 112.622C78.3612 112.622 77.5882 113.653 77.5882 115.528C77.5882 117.361 78.3755 118.406 79.7784 118.406ZM87.7273 119.494C85.7088 119.494 84.492 118.005 84.492 115.528C84.492 112.951 85.7375 111.534 87.7273 111.534C88.6292 111.534 89.3593 111.906 89.8603 112.608V109.015H91.1201V119.322H89.8603V118.363C89.3593 119.078 88.6292 119.494 87.7273 119.494ZM87.8132 118.406C89.1446 118.406 89.8603 117.389 89.8603 115.528C89.8603 113.681 89.1159 112.622 87.8132 112.622C86.4962 112.622 85.7804 113.653 85.7804 115.528C85.7804 117.361 86.5248 118.406 87.8132 118.406ZM99.6975 116.845C99.2824 118.62 98.0083 119.494 96.2761 119.494C94.0715 119.494 92.7402 118.005 92.7402 115.528C92.7402 112.951 94.0715 111.534 96.2045 111.534C98.3519 111.534 99.6403 113.009 99.6403 115.428V115.743H94.0286C94.1002 117.446 94.9018 118.406 96.2761 118.406C97.3498 118.406 98.1085 117.89 98.3805 116.845H99.6975ZM96.2045 112.622C94.9877 112.622 94.2576 113.381 94.0715 114.798H98.3232C98.1514 113.395 97.3927 112.622 96.2045 112.622ZM101.319 119.322V111.72H102.579V112.894C103.094 111.964 103.91 111.534 104.826 111.534C105.127 111.534 105.399 111.606 105.542 111.72V112.851C105.327 112.78 105.055 112.751 104.755 112.751C103.237 112.751 102.579 113.696 102.579 115.07V119.322H101.319ZM107.679 114.197H106.419C106.663 112.522 107.765 111.534 109.626 111.534C111.659 111.534 112.647 112.722 112.647 114.497V117.489C112.647 118.363 112.718 118.907 112.919 119.322H111.587C111.444 119.021 111.401 118.577 111.387 118.119C110.743 119.078 109.712 119.494 108.796 119.494C107.221 119.494 106.162 118.763 106.162 117.318C106.162 116.273 106.734 115.514 107.851 115.142C108.882 114.798 109.927 114.712 111.387 114.698V114.526C111.387 113.295 110.814 112.622 109.511 112.622C108.423 112.622 107.837 113.223 107.679 114.197ZM107.45 117.289C107.45 117.99 108.037 118.406 108.925 118.406C110.327 118.406 111.387 117.303 111.387 116.001V115.643C108.151 115.671 107.45 116.358 107.45 117.289ZM114.884 117.132V112.722H113.824V111.72H114.884V109.974H116.143V111.72H117.818V112.722H116.143V117.132C116.143 118.048 116.415 118.477 117.532 118.477H117.79V119.379C117.646 119.451 117.331 119.494 116.974 119.494C115.556 119.494 114.884 118.735 114.884 117.132ZM125.588 116.845C125.173 118.62 123.899 119.494 122.167 119.494C119.962 119.494 118.631 118.005 118.631 115.528C118.631 112.951 119.962 111.534 122.095 111.534C124.243 111.534 125.531 113.009 125.531 115.428V115.743H119.919C119.991 117.446 120.793 118.406 122.167 118.406C123.241 118.406 123.999 117.89 124.271 116.845H125.588ZM122.095 112.622C120.879 112.622 120.149 113.381 119.962 114.798H124.214C124.042 113.395 123.284 112.622 122.095 112.622ZM130.076 119.322V111.72H131.335V112.894C131.851 111.964 132.667 111.534 133.583 111.534C133.884 111.534 134.156 111.606 134.299 111.72V112.851C134.084 112.78 133.812 112.751 133.511 112.751C131.994 112.751 131.335 113.696 131.335 115.07V119.322H130.076ZM141.847 116.845C141.432 118.62 140.158 119.494 138.426 119.494C136.221 119.494 134.89 118.005 134.89 115.528C134.89 112.951 136.221 111.534 138.354 111.534C140.501 111.534 141.79 113.009 141.79 115.428V115.743H136.178C136.25 117.446 137.051 118.406 138.426 118.406C139.499 118.406 140.258 117.89 140.53 116.845H141.847ZM138.354 112.622C137.137 112.622 136.407 113.381 136.221 114.798H140.473C140.301 113.395 139.542 112.622 138.354 112.622ZM143.64 117.132V112.722H142.581V111.72H143.64V109.974H144.9V111.72H146.575V112.722H144.9V117.132C144.9 118.048 145.172 118.477 146.289 118.477H146.546V119.379C146.403 119.451 146.088 119.494 145.73 119.494C144.313 119.494 143.64 118.735 143.64 117.132ZM152.613 116.215V111.72H153.873V119.322H152.613V118.291C152.098 119.093 151.296 119.494 150.308 119.494C148.719 119.494 147.774 118.563 147.774 116.802V111.72H149.034V116.545C149.034 117.69 149.535 118.42 150.652 118.42C151.883 118.42 152.613 117.303 152.613 116.215ZM155.883 119.322V111.72H157.142V112.894C157.658 111.964 158.474 111.534 159.39 111.534C159.691 111.534 159.963 111.606 160.106 111.72V112.851C159.891 112.78 159.619 112.751 159.318 112.751C157.801 112.751 157.142 113.696 157.142 115.07V119.322H155.883ZM161.223 119.322V111.72H162.483V112.751C162.998 111.949 163.828 111.534 164.831 111.534C166.448 111.534 167.407 112.479 167.407 114.24V119.322H166.148V114.497C166.148 113.352 165.632 112.608 164.487 112.608C163.227 112.608 162.483 113.739 162.483 114.827V119.322H161.223ZM170.346 113.667C170.346 115.786 175.285 114.039 175.285 117.174C175.285 118.592 174.025 119.494 172.235 119.494C170.432 119.494 169.172 118.635 168.886 116.845H170.145C170.317 117.905 171.105 118.491 172.278 118.491C173.424 118.491 174.025 117.976 174.025 117.26C174.025 115.185 169.143 116.902 169.143 113.753C169.143 112.594 170.045 111.534 171.906 111.534C173.553 111.534 174.769 112.307 175.013 114.197H173.753C173.567 113.009 172.908 112.565 171.835 112.565C170.89 112.565 170.346 113.037 170.346 113.667ZM186.234 119.322L184.587 113.639L184.416 112.78L184.244 113.639L182.612 119.322H181.052L178.79 111.72H180.15L181.71 117.618L181.896 118.391L182.082 117.618L183.814 111.72H185.174L186.907 117.618L187.078 118.363L187.236 117.618L188.796 111.72H190.099L187.823 119.322H186.234ZM191.238 110.704V109.015H192.498V110.704H191.238ZM191.238 119.322V111.72H192.498V119.322H191.238ZM194.667 117.132V112.722H193.608V111.72H194.667V109.974H195.927V111.72H197.602V112.722H195.927V117.132C195.927 118.048 196.199 118.477 197.316 118.477H197.573V119.379C197.43 119.451 197.115 119.494 196.757 119.494C195.34 119.494 194.667 118.735 194.667 117.132ZM198.801 119.322V109.015H200.061V112.751C200.576 111.949 201.407 111.534 202.409 111.534C204.026 111.534 204.985 112.479 204.985 114.24V119.322H203.726V114.497C203.726 113.352 203.21 112.608 202.065 112.608C200.805 112.608 200.061 113.739 200.061 114.827V119.322H198.801ZM211.019 114.197H209.759C210.003 112.522 211.105 111.534 212.966 111.534C214.999 111.534 215.986 112.722 215.986 114.497V117.489C215.986 118.363 216.058 118.907 216.258 119.322H214.927C214.784 119.021 214.741 118.577 214.727 118.119C214.082 119.078 213.052 119.494 212.136 119.494C210.561 119.494 209.501 118.763 209.501 117.318C209.501 116.273 210.074 115.514 211.191 115.142C212.221 114.798 213.266 114.712 214.727 114.698V114.526C214.727 113.295 214.154 112.622 212.851 112.622C211.763 112.622 211.176 113.223 211.019 114.197ZM210.79 117.289C210.79 117.99 211.377 118.406 212.264 118.406C213.667 118.406 214.727 117.303 214.727 116.001V115.643C211.491 115.671 210.79 116.358 210.79 117.289ZM222.177 119.322H220.917V109.015H222.177V112.665C222.678 111.949 223.408 111.534 224.31 111.534C226.329 111.534 227.546 113.023 227.546 115.5C227.546 118.076 226.3 119.494 224.31 119.494C223.408 119.494 222.678 119.121 222.177 118.42V119.322ZM224.224 112.622C222.893 112.622 222.177 113.639 222.177 115.5C222.177 117.346 222.922 118.406 224.224 118.406C225.541 118.406 226.257 117.375 226.257 115.5C226.257 113.667 225.513 112.622 224.224 112.622ZM230.325 114.197H229.065C229.309 112.522 230.411 111.534 232.272 111.534C234.305 111.534 235.293 112.722 235.293 114.497V117.489C235.293 118.363 235.364 118.907 235.565 119.322H234.233C234.09 119.021 234.047 118.577 234.033 118.119C233.389 119.078 232.358 119.494 231.442 119.494C229.867 119.494 228.808 118.763 228.808 117.318C228.808 116.273 229.38 115.514 230.497 115.142C231.528 114.798 232.573 114.712 234.033 114.698V114.526C234.033 113.295 233.46 112.622 232.158 112.622C231.07 112.622 230.483 113.223 230.325 114.197ZM230.096 117.289C230.096 117.99 230.683 118.406 231.571 118.406C232.974 118.406 234.033 117.303 234.033 116.001V115.643C230.798 115.671 230.096 116.358 230.096 117.289ZM237.358 119.322V109.015H238.618V119.322H237.358ZM241.775 114.197H240.515C240.758 112.522 241.861 111.534 243.722 111.534C245.754 111.534 246.742 112.722 246.742 114.497V117.489C246.742 118.363 246.814 118.907 247.014 119.322H245.683C245.54 119.021 245.497 118.577 245.483 118.119C244.838 119.078 243.808 119.494 242.891 119.494C241.317 119.494 240.257 118.763 240.257 117.318C240.257 116.273 240.83 115.514 241.947 115.142C242.977 114.798 244.022 114.712 245.483 114.698V114.526C245.483 113.295 244.91 112.622 243.607 112.622C242.519 112.622 241.932 113.223 241.775 114.197ZM241.546 117.289C241.546 117.99 242.133 118.406 243.02 118.406C244.423 118.406 245.483 117.303 245.483 116.001V115.643C242.247 115.671 241.546 116.358 241.546 117.289ZM248.808 119.322V111.72H250.067V112.751C250.583 111.949 251.413 111.534 252.415 111.534C254.033 111.534 254.992 112.479 254.992 114.24V119.322H253.732V114.497C253.732 113.352 253.217 112.608 252.071 112.608C250.812 112.608 250.067 113.739 250.067 114.827V119.322H248.808ZM263.284 114.34H262.024C261.824 113.18 261.051 112.622 260.049 112.622C258.646 112.622 257.902 113.653 257.902 115.528C257.902 117.375 258.689 118.42 260.092 118.42C261.108 118.42 261.838 117.876 262.082 116.788H263.342C262.998 118.678 261.724 119.494 260.063 119.494C257.902 119.494 256.613 117.99 256.613 115.528C256.613 112.951 257.93 111.534 260.049 111.534C261.724 111.534 263.041 112.479 263.284 114.34ZM271.469 116.845C271.054 118.62 269.78 119.494 268.048 119.494C265.843 119.494 264.512 118.005 264.512 115.528C264.512 112.951 265.843 111.534 267.976 111.534C270.124 111.534 271.412 113.009 271.412 115.428V115.743H265.8C265.872 117.446 266.674 118.406 268.048 118.406C269.121 118.406 269.88 117.89 270.152 116.845H271.469ZM267.976 112.622C266.759 112.622 266.029 113.381 265.843 114.798H270.095C269.923 113.395 269.164 112.622 267.976 112.622ZM275.939 119.494C273.921 119.494 272.704 118.005 272.704 115.528C272.704 112.951 273.95 111.534 275.939 111.534C276.841 111.534 277.571 111.906 278.072 112.608V109.015H279.332V119.322H278.072V118.363C277.571 119.078 276.841 119.494 275.939 119.494ZM276.025 118.406C277.357 118.406 278.072 117.389 278.072 115.528C278.072 113.681 277.328 112.622 276.025 112.622C274.708 112.622 273.993 113.653 273.993 115.528C273.993 117.361 274.737 118.406 276.025 118.406ZM16.5026 142.322V134.72H17.7623V135.894C18.2777 134.964 19.0937 134.534 20.0099 134.534C20.3105 134.534 20.5825 134.606 20.7256 134.72V135.851C20.5109 135.78 20.2389 135.751 19.9383 135.751C18.4208 135.751 17.7623 136.696 17.7623 138.07V142.322H16.5026ZM21.8429 133.704V132.015H23.1027V133.704H21.8429ZM21.8429 142.322V134.72H23.1027V142.322H21.8429ZM26.0308 136.667C26.0308 138.786 30.9696 137.039 30.9696 140.174C30.9696 141.592 29.7098 142.494 27.9204 142.494C26.1166 142.494 24.8569 141.635 24.5706 139.845H25.8303C26.0021 140.905 26.7895 141.491 27.9633 141.491C29.1086 141.491 29.7098 140.976 29.7098 140.26C29.7098 138.185 24.8283 139.902 24.8283 136.753C24.8283 135.594 25.7301 134.534 27.5911 134.534C29.2374 134.534 30.4542 135.307 30.6976 137.197H29.4378C29.2517 136.009 28.5932 135.565 27.5196 135.565C26.5747 135.565 26.0308 136.037 26.0308 136.667ZM32.4677 142.322V132.015H33.7274V137.984L37.0057 134.72H38.5518L35.0874 138.113L38.7522 142.322H37.1488L33.7274 138.442V142.322H32.4677ZM44.1149 145.471H42.8551V134.72H44.1149V135.665C44.6159 134.949 45.346 134.534 46.2479 134.534C48.2664 134.534 49.4832 136.023 49.4832 138.5C49.4832 141.076 48.2377 142.494 46.2479 142.494C45.346 142.494 44.6159 142.121 44.1149 141.42V145.471ZM46.162 135.622C44.8307 135.622 44.1149 136.639 44.1149 138.5C44.1149 140.346 44.8593 141.406 46.162 141.406C47.479 141.406 48.1948 140.375 48.1948 138.5C48.1948 136.667 47.4504 135.622 46.162 135.622ZM51.103 142.322V134.72H52.3627V135.894C52.8781 134.964 53.6941 134.534 54.6103 134.534C54.9109 134.534 55.1829 134.606 55.326 134.72V135.851C55.1113 135.78 54.8393 135.751 54.5387 135.751C53.0212 135.751 52.3627 136.696 52.3627 138.07V142.322H51.103ZM59.3957 142.494C57.2197 142.494 55.917 141.005 55.917 138.528C55.917 135.951 57.2626 134.534 59.3957 134.534C61.5716 134.534 62.8743 136.052 62.8743 138.528C62.8743 141.091 61.5287 142.494 59.3957 142.494ZM59.3957 141.406C60.8129 141.406 61.5859 140.389 61.5859 138.528C61.5859 136.681 60.7986 135.622 59.3957 135.622C57.9784 135.622 57.2054 136.653 57.2054 138.528C57.2054 140.361 57.9927 141.406 59.3957 141.406ZM63.5653 135.722V134.72H64.6246V134.205C64.6246 132.602 65.2831 131.843 66.686 131.843C67.001 131.843 67.2586 131.9 67.3875 131.957V132.859H67.2586C66.1564 132.859 65.8844 133.289 65.8844 134.205V134.72H67.3875V135.722H65.8844V142.322H64.6246V135.722H63.5653ZM68.3896 133.704V132.015H69.6493V133.704H68.3896ZM68.3896 142.322V134.72H69.6493V142.322H68.3896ZM71.6535 142.322V132.015H72.9133V142.322H71.6535ZM81.4816 139.845C81.0665 141.62 79.7924 142.494 78.0602 142.494C75.8556 142.494 74.5243 141.005 74.5243 138.528C74.5243 135.951 75.8556 134.534 77.9887 134.534C80.136 134.534 81.4244 136.009 81.4244 138.428V138.743H75.8127C75.8843 140.446 76.6859 141.406 78.0602 141.406C79.1339 141.406 79.8926 140.89 80.1646 139.845H81.4816ZM77.9887 135.622C76.7718 135.622 76.0418 136.381 75.8556 137.798H80.1073C79.9356 136.395 79.1768 135.622 77.9887 135.622ZM82.6803 142.322V140.776H84.2264V142.322H82.6803Z" fill="#595959"/>
<g filter="url(#filter0_dd_887_1238)">
<rect x="15.5005" y="208.548" width="51.619" height="21.0119" rx="10.506" fill="#F8FAFC" shape-rendering="crispEdges"/>
<path d="M25.3408 224.054V215.068H28.5783C30.4679 215.068 31.6704 216.046 31.6704 217.606C31.6704 218.636 31.1683 219.363 30.3226 219.746C30.904 220.011 31.2079 220.5 31.4326 221.385L32.1065 224.054H30.8247L30.2565 221.623C29.9922 220.5 29.5429 220.288 28.4593 220.288H26.5565V224.054H25.3408ZM28.5518 216.06H26.5565V219.297H28.5254C29.7147 219.297 30.4151 218.663 30.4151 217.672C30.4151 216.681 29.7147 216.06 28.5518 216.06ZM33.561 224.054V215.068H39.6528V216.06H34.7767V218.901H39.1638V219.892H34.7767V223.063H39.6528V224.054H33.561ZM41.265 224.054V215.068H42.4807V224.054H41.265ZM47.0006 224.054V216.099H43.9217V215.068H51.2953V216.099H48.2164V224.054H47.0006ZM52.3032 218.835C52.3032 220.79 56.8621 219.178 56.8621 222.072C56.8621 223.38 55.6993 224.213 54.0475 224.213C52.3825 224.213 51.2196 223.42 50.9553 221.768H52.1182C52.2768 222.746 53.0035 223.288 54.0871 223.288C55.1443 223.288 55.6993 222.812 55.6993 222.151C55.6993 220.235 51.1932 221.821 51.1932 218.914C51.1932 217.843 52.0257 216.866 53.7435 216.866C55.2632 216.866 56.3864 217.579 56.611 219.323H55.4482C55.2764 218.227 54.6685 217.817 53.6775 217.817C52.8053 217.817 52.3032 218.253 52.3032 218.835Z" fill="#595959"/>
</g>
<g filter="url(#filter1_dd_887_1238)">
<rect x="80.334" y="208.548" width="83.619" height="21.0119" rx="10.506" fill="#F8FAFC" shape-rendering="crispEdges"/>
<path d="M90.1743 224.054V215.068H93.4118C95.3014 215.068 96.5039 216.046 96.5039 217.606C96.5039 218.636 96.0018 219.363 95.1561 219.746C95.7375 220.011 96.0414 220.5 96.2661 221.385L96.94 224.054H95.6582L95.09 221.623C94.8257 220.5 94.3764 220.288 93.2928 220.288H91.39V224.054H90.1743ZM93.3853 216.06H91.39V219.297H93.3589C94.5482 219.297 95.2486 218.663 95.2486 217.672C95.2486 216.681 94.5482 216.06 93.3853 216.06ZM104.354 221.768C103.971 223.407 102.795 224.213 101.196 224.213C99.1609 224.213 97.932 222.838 97.932 220.552C97.932 218.174 99.1609 216.866 101.13 216.866C103.112 216.866 104.301 218.227 104.301 220.46V220.751H99.1213C99.1873 222.323 99.9273 223.208 101.196 223.208C102.187 223.208 102.887 222.733 103.138 221.768H104.354ZM101.13 217.87C100.007 217.87 99.3327 218.57 99.1609 219.878H103.086C102.927 218.583 102.227 217.87 101.13 217.87ZM106.71 218.835C106.71 220.79 111.269 219.178 111.269 222.072C111.269 223.38 110.106 224.213 108.454 224.213C106.789 224.213 105.626 223.42 105.362 221.768H106.525C106.683 222.746 107.41 223.288 108.494 223.288C109.551 223.288 110.106 222.812 110.106 222.151C110.106 220.235 105.6 221.821 105.6 218.914C105.6 217.843 106.432 216.866 108.15 216.866C109.67 216.866 110.793 217.579 111.018 219.323H109.855C109.683 218.227 109.075 217.817 108.084 217.817C107.212 217.817 106.71 218.253 106.71 218.835ZM112.652 216.099V214.54H113.814V216.099H112.652ZM112.652 224.054V217.037H113.814V224.054H112.652ZM118.288 224.213C116.425 224.213 115.302 222.838 115.302 220.552C115.302 218.174 116.451 216.866 118.288 216.866C119.12 216.866 119.794 217.209 120.257 217.857V214.54H121.42V224.054H120.257V223.169C119.794 223.83 119.12 224.213 118.288 224.213ZM118.367 223.208C119.596 223.208 120.257 222.27 120.257 220.552C120.257 218.848 119.57 217.87 118.367 217.87C117.152 217.87 116.491 218.821 116.491 220.552C116.491 222.244 117.178 223.208 118.367 223.208ZM129.337 221.768C128.954 223.407 127.778 224.213 126.179 224.213C124.144 224.213 122.915 222.838 122.915 220.552C122.915 218.174 124.144 216.866 126.113 216.866C128.095 216.866 129.285 218.227 129.285 220.46V220.751H124.105C124.171 222.323 124.911 223.208 126.179 223.208C127.17 223.208 127.871 222.733 128.122 221.768H129.337ZM126.113 217.87C124.99 217.87 124.316 218.57 124.144 219.878H128.069C127.91 218.583 127.21 217.87 126.113 217.87ZM130.834 224.054V217.037H131.997V217.989C132.473 217.249 133.239 216.866 134.164 216.866C135.657 216.866 136.543 217.738 136.543 219.363V224.054H135.38V219.601C135.38 218.544 134.904 217.857 133.847 217.857C132.684 217.857 131.997 218.901 131.997 219.905V224.054H130.834ZM138.555 222.032V217.962H137.577V217.037H138.555V215.425H139.718V217.037H141.264V217.962H139.718V222.032C139.718 222.878 139.969 223.275 140.999 223.275H141.237V224.107C141.105 224.173 140.814 224.213 140.484 224.213C139.176 224.213 138.555 223.512 138.555 222.032ZM142.371 216.099V214.54H143.534V216.099H142.371ZM142.371 224.054V217.037H143.534V224.054H142.371ZM146.448 219.323H145.285C145.51 217.777 146.527 216.866 148.245 216.866C150.121 216.866 151.033 217.962 151.033 219.601V222.363C151.033 223.169 151.099 223.671 151.284 224.054H150.055C149.923 223.777 149.884 223.367 149.87 222.944C149.276 223.83 148.324 224.213 147.479 224.213C146.025 224.213 145.047 223.539 145.047 222.204C145.047 221.24 145.576 220.539 146.606 220.196C147.558 219.878 148.523 219.799 149.87 219.786V219.627C149.87 218.491 149.342 217.87 148.139 217.87C147.135 217.87 146.593 218.425 146.448 219.323ZM146.236 222.178C146.236 222.825 146.778 223.208 147.598 223.208C148.893 223.208 149.87 222.191 149.87 220.988V220.658C146.884 220.685 146.236 221.319 146.236 222.178ZM152.94 224.054V214.54H154.103V224.054H152.94Z" fill="#595959"/>
</g>
<g filter="url(#filter2_dd_887_1238)">
<rect x="177.167" y="208.548" width="90.619" height="21.0119" rx="10.506" fill="#F8FAFC" shape-rendering="crispEdges"/>
<path d="M194.407 217.658H193.139C192.808 216.562 191.87 215.954 190.72 215.954C188.963 215.954 187.919 217.328 187.919 219.575C187.919 221.821 188.95 223.169 190.72 223.169C191.83 223.169 192.729 222.601 193.112 221.517H194.394C193.892 223.222 192.425 224.213 190.707 224.213C188.197 224.213 186.677 222.455 186.677 219.575C186.677 216.707 188.223 214.91 190.76 214.91C192.491 214.91 193.971 215.861 194.407 217.658ZM198.75 224.213C196.742 224.213 195.539 222.838 195.539 220.552C195.539 218.174 196.781 216.866 198.75 216.866C200.759 216.866 201.961 218.266 201.961 220.552C201.961 222.918 200.719 224.213 198.75 224.213ZM198.75 223.208C200.059 223.208 200.772 222.27 200.772 220.552C200.772 218.848 200.045 217.87 198.75 217.87C197.442 217.87 196.729 218.821 196.729 220.552C196.729 222.244 197.455 223.208 198.75 223.208ZM203.458 224.054V217.037H204.621V217.936C205.07 217.222 205.771 216.866 206.63 216.866C207.594 216.866 208.295 217.288 208.625 218.108C209.087 217.288 209.854 216.866 210.792 216.866C212.219 216.866 213.078 217.738 213.078 219.363V224.054H211.915V219.601C211.915 218.544 211.492 217.857 210.541 217.857C209.484 217.857 208.85 218.901 208.85 219.905V224.054H207.687V219.601C207.687 218.544 207.264 217.857 206.312 217.857C205.255 217.857 204.621 218.901 204.621 219.905V224.054H203.458ZM214.93 224.054V217.037H216.093V217.936C216.542 217.222 217.243 216.866 218.102 216.866C219.066 216.866 219.767 217.288 220.097 218.108C220.56 217.288 221.326 216.866 222.264 216.866C223.691 216.866 224.55 217.738 224.55 219.363V224.054H223.387V219.601C223.387 218.544 222.965 217.857 222.013 217.857C220.956 217.857 220.322 218.901 220.322 219.905V224.054H219.159V219.601C219.159 218.544 218.736 217.857 217.785 217.857C216.727 217.857 216.093 218.901 216.093 219.905V224.054H214.93ZM232.468 221.768C232.085 223.407 230.909 224.213 229.31 224.213C227.275 224.213 226.046 222.838 226.046 220.552C226.046 218.174 227.275 216.866 229.244 216.866C231.226 216.866 232.415 218.227 232.415 220.46V220.751H227.235C227.301 222.323 228.041 223.208 229.31 223.208C230.301 223.208 231.001 222.733 231.252 221.768H232.468ZM229.244 217.87C228.12 217.87 227.446 218.57 227.275 219.878H231.199C231.041 218.583 230.34 217.87 229.244 217.87ZM233.965 224.054V217.037H235.127V218.121C235.603 217.262 236.356 216.866 237.202 216.866C237.48 216.866 237.731 216.932 237.863 217.037V218.081C237.665 218.015 237.413 217.989 237.136 217.989C235.735 217.989 235.127 218.861 235.127 220.13V224.054H233.965ZM244.566 219.456H243.403C243.218 218.385 242.505 217.87 241.58 217.87C240.285 217.87 239.598 218.821 239.598 220.552C239.598 222.257 240.324 223.222 241.619 223.222C242.558 223.222 243.231 222.72 243.456 221.715H244.619C244.302 223.46 243.126 224.213 241.593 224.213C239.598 224.213 238.408 222.825 238.408 220.552C238.408 218.174 239.624 216.866 241.58 216.866C243.126 216.866 244.341 217.738 244.566 219.456ZM246.056 216.099V214.54H247.219V216.099H246.056ZM246.056 224.054V217.037H247.219V224.054H246.056ZM250.133 219.323H248.97C249.195 217.777 250.213 216.866 251.93 216.866C253.807 216.866 254.719 217.962 254.719 219.601V222.363C254.719 223.169 254.785 223.671 254.97 224.054H253.741C253.609 223.777 253.569 223.367 253.556 222.944C252.961 223.83 252.01 224.213 251.164 224.213C249.71 224.213 248.733 223.539 248.733 222.204C248.733 221.24 249.261 220.539 250.292 220.196C251.243 219.878 252.208 219.799 253.556 219.786V219.627C253.556 218.491 253.027 217.87 251.825 217.87C250.82 217.87 250.279 218.425 250.133 219.323ZM249.922 222.178C249.922 222.825 250.464 223.208 251.283 223.208C252.578 223.208 253.556 222.191 253.556 220.988V220.658C250.569 220.685 249.922 221.319 249.922 222.178ZM256.625 224.054V214.54H257.788V224.054H256.625Z" fill="#595959"/>
</g>
<g filter="url(#filter3_dd_887_1238)">
<rect x="15.5005" y="245.56" width="81.619" height="21.0119" rx="10.506" fill="#F8FAFC" shape-rendering="crispEdges"/>
<path d="M25.3408 261.065V252.08H27.019L29.7808 258.674L30.0451 259.48L30.3226 258.674L33.0711 252.08H34.6965V261.065H33.4808V253.547L32.8465 255.317L30.4415 261.065H29.5826L27.1776 255.304L26.5565 253.586V261.065H25.3408ZM36.6556 253.11V251.551H37.8185V253.11H36.6556ZM36.6556 261.065V254.049H37.8185V261.065H36.6556ZM44.1288 261.065L42.4506 258.727L42.107 258.185L41.7634 258.727L40.1249 261.065H38.8034L41.4727 257.418L39.0149 254.049H40.4684L41.922 256.11L42.2788 256.678L42.6224 256.11L44.0495 254.049H45.3709L42.9131 257.418L45.5824 261.065H44.1288ZM52.451 258.779C52.0678 260.418 50.8917 261.224 49.2928 261.224C47.2578 261.224 46.0289 259.85 46.0289 257.564C46.0289 255.185 47.2578 253.877 49.2267 253.877C51.2089 253.877 52.3982 255.238 52.3982 257.471V257.762H47.2182C47.2842 259.334 48.0242 260.22 49.2928 260.22C50.2839 260.22 50.9842 259.744 51.2353 258.779H52.451ZM49.2267 254.881C48.1035 254.881 47.4296 255.582 47.2578 256.89H51.1824C51.0239 255.595 50.3235 254.881 49.2267 254.881ZM56.5774 261.224C54.7142 261.224 53.591 259.85 53.591 257.564C53.591 255.185 54.7406 253.877 56.5774 253.877C57.4099 253.877 58.0838 254.22 58.5463 254.868V251.551H59.7092V261.065H58.5463V260.18C58.0838 260.841 57.4099 261.224 56.5774 261.224ZM56.6567 260.22C57.8856 260.22 58.5463 259.282 58.5463 257.564C58.5463 255.859 57.8592 254.881 56.6567 254.881C55.441 254.881 54.7802 255.833 54.7802 257.564C54.7802 259.255 55.4674 260.22 56.6567 260.22ZM61.535 257.96V256.969H65.05V257.96H61.535ZM71.3575 258.198V254.049H72.5203V261.065H71.3575V260.114C70.8817 260.854 70.1417 261.224 69.23 261.224C67.7632 261.224 66.891 260.365 66.891 258.74V254.049H68.0539V258.502C68.0539 259.559 68.5164 260.233 69.5471 260.233C70.6835 260.233 71.3575 259.202 71.3575 258.198ZM75.2346 255.846C75.2346 257.802 79.7935 256.189 79.7935 259.083C79.7935 260.392 78.6307 261.224 76.9789 261.224C75.3139 261.224 74.151 260.431 73.8868 258.779H75.0496C75.2082 259.757 75.935 260.299 77.0185 260.299C78.0757 260.299 78.6307 259.823 78.6307 259.163C78.6307 257.247 74.1246 258.832 74.1246 255.925C74.1246 254.855 74.9571 253.877 76.675 253.877C78.1946 253.877 79.3178 254.59 79.5425 256.335H78.3796C78.2078 255.238 77.6 254.828 76.6089 254.828C75.7368 254.828 75.2346 255.264 75.2346 255.846ZM87.2417 258.779C86.8585 260.418 85.6825 261.224 84.0835 261.224C82.0485 261.224 80.8196 259.85 80.8196 257.564C80.8196 255.185 82.0485 253.877 84.0175 253.877C85.9996 253.877 87.1889 255.238 87.1889 257.471V257.762H82.0089C82.075 259.334 82.815 260.22 84.0835 260.22C85.0746 260.22 85.775 259.744 86.026 258.779H87.2417ZM84.0175 254.881C82.8942 254.881 82.2203 255.582 82.0485 256.89H85.9732C85.8146 255.595 85.1142 254.881 84.0175 254.881Z" fill="#595959"/>
</g>
<defs>
<filter id="filter0_dd_887_1238" x="7.79216" y="204.143" width="67.0358" height="36.4284" filterUnits="userSpaceOnUse" color-interpolation-filters="sRGB">
<feFlood flood-opacity="0" result="BackgroundImageFix"/>
<feColorMatrix in="SourceAlpha" type="matrix" values="0 0 0 0 0 0 0 0 0 0 0 0 0 0 0 0 0 0 127 0" result="hardAlpha"/>
<feMorphology radius="1.10119" operator="erode" in="SourceAlpha" result="effect1_dropShadow_887_1238"/>
<feOffset dy="3.30357"/>
<feGaussianBlur stdDeviation="4.40476"/>
<feComposite in2="hardAlpha" operator="out"/>
<feColorMatrix type="matrix" values="0 0 0 0 0 0 0 0 0 0 0 0 0 0 0 0 0 0 0.05 0"/>
<feBlend mode="normal" in2="BackgroundImageFix" result="effect1_dropShadow_887_1238"/>
<feColorMatrix in="SourceAlpha" type="matrix" values="0 0 0 0 0 0 0 0 0 0 0 0 0 0 0 0 0 0 127 0" result="hardAlpha"/>
<feOffset/>
<feGaussianBlur stdDeviation="0.550595"/>
<feComposite in2="hardAlpha" operator="out"/>
<feColorMatrix type="matrix" values="0 0 0 0 0 0 0 0 0 0 0 0 0 0 0 0 0 0 0.24 0"/>
<feBlend mode="normal" in2="effect1_dropShadow_887_1238" result="effect2_dropShadow_887_1238"/>
<feBlend mode="normal" in="SourceGraphic" in2="effect2_dropShadow_887_1238" result="shape"/>
</filter>
<filter id="filter1_dd_887_1238" x="72.6257" y="204.143" width="99.0358" height="36.4284" filterUnits="userSpaceOnUse" color-interpolation-filters="sRGB">
<feFlood flood-opacity="0" result="BackgroundImageFix"/>
<feColorMatrix in="SourceAlpha" type="matrix" values="0 0 0 0 0 0 0 0 0 0 0 0 0 0 0 0 0 0 127 0" result="hardAlpha"/>
<feMorphology radius="1.10119" operator="erode" in="SourceAlpha" result="effect1_dropShadow_887_1238"/>
<feOffset dy="3.30357"/>
<feGaussianBlur stdDeviation="4.40476"/>
<feComposite in2="hardAlpha" operator="out"/>
<feColorMatrix type="matrix" values="0 0 0 0 0 0 0 0 0 0 0 0 0 0 0 0 0 0 0.05 0"/>
<feBlend mode="normal" in2="BackgroundImageFix" result="effect1_dropShadow_887_1238"/>
<feColorMatrix in="SourceAlpha" type="matrix" values="0 0 0 0 0 0 0 0 0 0 0 0 0 0 0 0 0 0 127 0" result="hardAlpha"/>
<feOffset/>
<feGaussianBlur stdDeviation="0.550595"/>
<feComposite in2="hardAlpha" operator="out"/>
<feColorMatrix type="matrix" values="0 0 0 0 0 0 0 0 0 0 0 0 0 0 0 0 0 0 0.24 0"/>
<feBlend mode="normal" in2="effect1_dropShadow_887_1238" result="effect2_dropShadow_887_1238"/>
<feBlend mode="normal" in="SourceGraphic" in2="effect2_dropShadow_887_1238" result="shape"/>
</filter>
<filter id="filter2_dd_887_1238" x="169.459" y="204.143" width="106.036" height="36.4284" filterUnits="userSpaceOnUse" color-interpolation-filters="sRGB">
<feFlood flood-opacity="0" result="BackgroundImageFix"/>
<feColorMatrix in="SourceAlpha" type="matrix" values="0 0 0 0 0 0 0 0 0 0 0 0 0 0 0 0 0 0 127 0" result="hardAlpha"/>
<feMorphology radius="1.10119" operator="erode" in="SourceAlpha" result="effect1_dropShadow_887_1238"/>
<feOffset dy="3.30357"/>
<feGaussianBlur stdDeviation="4.40476"/>
<feComposite in2="hardAlpha" operator="out"/>
<feColorMatrix type="matrix" values="0 0 0 0 0 0 0 0 0 0 0 0 0 0 0 0 0 0 0.05 0"/>
<feBlend mode="normal" in2="BackgroundImageFix" result="effect1_dropShadow_887_1238"/>
<feColorMatrix in="SourceAlpha" type="matrix" values="0 0 0 0 0 0 0 0 0 0 0 0 0 0 0 0 0 0 127 0" result="hardAlpha"/>
<feOffset/>
<feGaussianBlur stdDeviation="0.550595"/>
<feComposite in2="hardAlpha" operator="out"/>
<feColorMatrix type="matrix" values="0 0 0 0 0 0 0 0 0 0 0 0 0 0 0 0 0 0 0.24 0"/>
<feBlend mode="normal" in2="effect1_dropShadow_887_1238" result="effect2_dropShadow_887_1238"/>
<feBlend mode="normal" in="SourceGraphic" in2="effect2_dropShadow_887_1238" result="shape"/>
</filter>
<filter id="filter3_dd_887_1238" x="7.79216" y="241.155" width="97.0358" height="36.4284" filterUnits="userSpaceOnUse" color-interpolation-filters="sRGB">
<feFlood flood-opacity="0" result="BackgroundImageFix"/>
<feColorMatrix in="SourceAlpha" type="matrix" values="0 0 0 0 0 0 0 0 0 0 0 0 0 0 0 0 0 0 127 0" result="hardAlpha"/>
<feMorphology radius="1.10119" operator="erode" in="SourceAlpha" result="effect1_dropShadow_887_1238"/>
<feOffset dy="3.30357"/>
<feGaussianBlur stdDeviation="4.40476"/>
<feComposite in2="hardAlpha" operator="out"/>
<feColorMatrix type="matrix" values="0 0 0 0 0 0 0 0 0 0 0 0 0 0 0 0 0 0 0.05 0"/>
<feBlend mode="normal" in2="BackgroundImageFix" result="effect1_dropShadow_887_1238"/>
<feColorMatrix in="SourceAlpha" type="matrix" values="0 0 0 0 0 0 0 0 0 0 0 0 0 0 0 0 0 0 127 0" result="hardAlpha"/>
<feOffset/>
<feGaussianBlur stdDeviation="0.550595"/>
<feComposite in2="hardAlpha" operator="out"/>
<feColorMatrix type="matrix" values="0 0 0 0 0 0 0 0 0 0 0 0 0 0 0 0 0 0 0.24 0"/>
<feBlend mode="normal" in2="effect1_dropShadow_887_1238" result="effect2_dropShadow_887_1238"/>
<feBlend mode="normal" in="SourceGraphic" in2="effect2_dropShadow_887_1238" result="shape"/>
</filter>
</defs>
</svg>
