<svg width="30" height="28" viewBox="0 0 30 28" fill="none" xmlns="http://www.w3.org/2000/svg">
<path d="M25.9535 0H0C1.88372 0.418605 3.2093 2.09302 3.2093 3.97674V27.4186C5.79069 24.8372 7.18604 21.4186 7.18604 17.7907V4.67442C7.18604 4.32558 7.46511 3.97674 7.88371 3.97674C8.23255 3.97674 8.58139 4.25581 8.58139 4.67442V22.1163C11.1628 19.5349 12.5581 16.1163 12.5581 12.4884V4.67442C12.5581 4.32558 12.8372 3.97674 13.2558 3.97674C13.6047 3.97674 13.9535 4.25581 13.9535 4.67442V16.814L17.4419 13.3256C17.5814 13.186 17.6512 13.0465 17.7209 12.907V12.8372C17.8605 12.6279 17.8605 12.4186 17.9302 12.1395C18.2791 7.60465 22.0465 3.97674 26.7209 3.97674H30L25.9535 0Z" fill="#262626"/>
</svg>
