<svg width="91" height="47" viewBox="0 0 91 47" fill="none" xmlns="http://www.w3.org/2000/svg">
<path d="M43.7364 0H0C3.17442 0.705426 5.40826 3.52713 5.40826 6.70155V46.2054C9.75839 41.8553 12.1098 36.0943 12.1098 29.9806V7.87726C12.1098 7.2894 12.5801 6.70155 13.2855 6.70155C13.8734 6.70155 14.4612 7.17183 14.4612 7.87726V37.27C18.8114 32.9199 21.1628 27.1589 21.1628 21.0452V7.87726C21.1628 7.2894 21.6331 6.70155 22.3385 6.70155C22.9264 6.70155 23.5142 7.17183 23.5142 7.87726V28.3346L29.3928 22.4561C29.6279 22.2209 29.7455 21.9858 29.863 21.7506V21.6331C30.0982 21.2804 30.0982 20.9277 30.2158 20.4574C30.8036 12.8152 37.1524 6.70155 45.0297 6.70155H50.5556L43.7364 0Z" fill="#262626"/>
<path d="M36.159 33.6025V13.4915H43.7006C48.0481 13.4915 50.7986 15.7392 50.7986 19.2882C50.7986 21.5655 49.7635 23.1626 47.9594 24.0498C49.1424 24.6709 49.7931 25.7652 50.2367 27.5692L51.745 33.6025H48.2552L47.0426 28.2199C46.5102 25.913 45.623 25.4694 43.4049 25.4694H39.4714V33.6025H36.159ZM43.6119 16.1533H39.4714V22.8077H43.5527C46.0075 22.8077 47.3975 21.5064 47.3975 19.4657C47.3975 17.4546 46.0075 16.1533 43.6119 16.1533ZM69.0133 33.6025L67.298 29.0776H58.1297L56.4144 33.6025H53.102L60.8506 13.4915H64.725L72.4736 33.6025H69.0133ZM62.1224 18.6376L59.1353 26.475H66.2924L63.3054 18.6376L62.7139 16.6856L62.1224 18.6376ZM75.1495 33.6025V13.4915H89.0201V16.1533H78.4619V22.4823H87.8963V25.1441H78.4619V33.6025H75.1495Z" fill="#262626"/>
</svg>
