<svg width="400" height="450" viewBox="0 0 400 450" fill="none" xmlns="http://www.w3.org/2000/svg">
<g clip-path="url(#clip0_1040_14969)">
<rect width="400" height="450" rx="24" fill="#F8FAFC"/>
<path d="M45.797 351.13H42.836C42.395 349.576 41.198 348.757 39.602 348.757C37.208 348.757 35.822 350.71 35.822 353.881C35.822 357.073 37.187 358.963 39.602 358.963C41.114 358.963 42.311 358.186 42.794 356.695H45.776C45.02 359.677 42.563 361.315 39.644 361.315C35.465 361.315 32.924 358.501 32.924 353.881C32.924 349.282 35.507 346.405 39.686 346.405C42.647 346.405 45.146 348.022 45.797 351.13ZM47.7585 361V345.88H50.4465V351.256C51.1815 350.038 52.3575 349.429 53.7855 349.429C56.0325 349.429 57.5655 350.773 57.5655 353.503V361H54.8775V354.049C54.8775 352.516 54.2265 351.655 52.8615 351.655C51.3705 351.655 50.4465 352.957 50.4465 354.469V361H47.7585ZM64.9147 361.315C61.5757 361.315 59.5177 359.068 59.5177 355.393C59.5177 351.571 61.6387 349.429 64.9147 349.429C68.2327 349.429 70.2907 351.697 70.2907 355.393C70.2907 359.173 68.1697 361.315 64.9147 361.315ZM64.9147 359.089C66.6157 359.089 67.5187 357.787 67.5187 355.393C67.5187 352.999 66.5947 351.655 64.9147 351.655C63.1927 351.655 62.2897 352.978 62.2897 355.393C62.2897 357.766 63.2137 359.089 64.9147 359.089ZM77.1169 361.315C73.7779 361.315 71.7199 359.068 71.7199 355.393C71.7199 351.571 73.8409 349.429 77.1169 349.429C80.4349 349.429 82.4929 351.697 82.4929 355.393C82.4929 359.173 80.3719 361.315 77.1169 361.315ZM77.1169 359.089C78.8179 359.089 79.7209 357.787 79.7209 355.393C79.7209 352.999 78.7969 351.655 77.1169 351.655C75.3949 351.655 74.4919 352.978 74.4919 355.393C74.4919 357.766 75.4159 359.089 77.1169 359.089ZM86.694 352.768C86.694 355.351 93.792 353.167 93.792 357.682C93.792 359.845 91.797 361.315 88.983 361.315C86.211 361.315 84.216 360.034 83.817 357.325H86.505C86.694 358.543 87.66 359.236 89.067 359.236C90.39 359.236 91.083 358.669 91.083 357.85C91.083 355.33 84.132 357.493 84.132 352.936C84.132 351.109 85.56 349.429 88.5 349.429C91.083 349.429 93.036 350.647 93.372 353.44H90.684C90.474 352.075 89.676 351.529 88.395 351.529C87.324 351.529 86.694 352.054 86.694 352.768ZM105.893 357.325C105.284 359.929 103.268 361.315 100.58 361.315C97.1778 361.315 95.0988 359.068 95.0988 355.393C95.0988 351.571 97.1988 349.429 100.475 349.429C103.772 349.429 105.809 351.655 105.809 355.288V355.918H97.8708C97.9968 357.976 98.9418 359.11 100.58 359.11C101.84 359.11 102.701 358.522 103.058 357.325H105.893ZM100.475 351.634C99.0468 351.634 98.1858 352.537 97.9338 354.238H102.995C102.743 352.558 101.882 351.634 100.475 351.634ZM121.352 361L120.26 358.039H114.17L113.078 361H110.243L115.619 346.72H118.958L124.334 361H121.352ZM116.795 350.962L114.989 355.855H119.441L117.635 350.962L117.215 349.492L116.795 350.962ZM125.832 361V349.744H128.52V351.256C129.255 350.038 130.431 349.429 131.859 349.429C134.106 349.429 135.639 350.773 135.639 353.503V361H132.951V354.049C132.951 352.516 132.3 351.655 130.935 351.655C129.444 351.655 128.52 352.957 128.52 354.469V361H125.832ZM142.324 361V346.72H145.159V361H142.324ZM147.796 361V349.744H150.484V351.256C151.219 350.038 152.395 349.429 153.823 349.429C156.07 349.429 157.603 350.773 157.603 353.503V361H154.915V354.049C154.915 352.516 154.264 351.655 152.899 351.655C151.408 351.655 150.484 352.957 150.484 354.469V361H147.796ZM162.588 361L158.535 349.744H161.433L164.037 357.682L164.331 358.9L164.604 357.682L167.208 349.744H169.959L165.906 361H162.588ZM181.403 357.325C180.794 359.929 178.778 361.315 176.09 361.315C172.688 361.315 170.609 359.068 170.609 355.393C170.609 351.571 172.709 349.429 175.985 349.429C179.282 349.429 181.319 351.655 181.319 355.288V355.918H173.381C173.507 357.976 174.452 359.11 176.09 359.11C177.35 359.11 178.211 358.522 178.568 357.325H181.403ZM175.985 351.634C174.557 351.634 173.696 352.537 173.444 354.238H178.505C178.253 352.558 177.392 351.634 175.985 351.634ZM185.583 352.768C185.583 355.351 192.681 353.167 192.681 357.682C192.681 359.845 190.686 361.315 187.872 361.315C185.1 361.315 183.105 360.034 182.706 357.325H185.394C185.583 358.543 186.549 359.236 187.956 359.236C189.279 359.236 189.972 358.669 189.972 357.85C189.972 355.33 183.021 357.493 183.021 352.936C183.021 351.109 184.449 349.429 187.389 349.429C189.972 349.429 191.925 350.647 192.261 353.44H189.573C189.363 352.075 188.565 351.529 187.284 351.529C186.213 351.529 185.583 352.054 185.583 352.768ZM194.869 357.493V351.823H193.42V349.744H194.869V347.161H197.557V349.744H199.93V351.823H197.557V357.262C197.557 358.438 197.893 359.068 199.384 359.068H199.888V361.042C199.594 361.189 198.985 361.315 198.25 361.315C195.961 361.315 194.869 360.013 194.869 357.493ZM201.506 361V349.744H204.194V351.193C204.908 350.017 206 349.429 207.323 349.429C208.751 349.429 209.864 350.059 210.431 351.34C211.187 350.059 212.384 349.429 213.833 349.429C215.996 349.429 217.466 350.773 217.466 353.503V361H214.778V354.049C214.778 352.516 214.211 351.655 213.014 351.655C211.67 351.655 210.83 352.957 210.83 354.469V361H208.142V354.049C208.142 352.516 207.575 351.655 206.378 351.655C205.034 351.655 204.194 352.957 204.194 354.469V361H201.506ZM230.211 357.325C229.602 359.929 227.586 361.315 224.898 361.315C221.496 361.315 219.417 359.068 219.417 355.393C219.417 351.571 221.517 349.429 224.793 349.429C228.09 349.429 230.127 351.655 230.127 355.288V355.918H222.189C222.315 357.976 223.26 359.11 224.898 359.11C226.158 359.11 227.019 358.522 227.376 357.325H230.211ZM224.793 351.634C223.365 351.634 222.504 352.537 222.252 354.238H227.313C227.061 352.558 226.2 351.634 224.793 351.634ZM232.144 361V349.744H234.832V351.256C235.567 350.038 236.743 349.429 238.171 349.429C240.418 349.429 241.951 350.773 241.951 353.503V361H239.263V354.049C239.263 352.516 238.612 351.655 237.247 351.655C235.756 351.655 234.832 352.957 234.832 354.469V361H232.144ZM244.785 357.493V351.823H243.336V349.744H244.785V347.161H247.473V349.744H249.846V351.823H247.473V357.262C247.473 358.438 247.809 359.068 249.3 359.068H249.804V361.042C249.51 361.189 248.901 361.315 248.166 361.315C245.877 361.315 244.785 360.013 244.785 357.493ZM262.14 361.315C257.814 361.315 255.147 358.48 255.147 353.881C255.147 349.282 257.814 346.405 262.14 346.405C266.466 346.405 269.154 349.282 269.154 353.881C269.154 358.48 266.466 361.315 262.14 361.315ZM262.14 358.963C264.723 358.963 266.256 357.052 266.256 353.881C266.256 350.71 264.723 348.757 262.14 348.757C259.557 348.757 258.045 350.689 258.045 353.881C258.045 357.052 259.557 358.963 262.14 358.963ZM274.002 365.62H271.314V349.744H274.002V351.025C274.716 349.996 275.724 349.429 276.963 349.429C279.903 349.429 281.709 351.676 281.709 355.351C281.709 359.173 279.861 361.315 276.963 361.315C275.724 361.315 274.695 360.79 274.002 359.782V365.62ZM276.48 351.655C274.863 351.655 274.002 352.957 274.002 355.351C274.002 357.745 274.905 359.089 276.48 359.089C278.076 359.089 278.937 357.766 278.937 355.351C278.937 352.978 278.055 351.655 276.48 351.655ZM284.017 357.493V351.823H282.568V349.744H284.017V347.161H286.705V349.744H289.078V351.823H286.705V357.262C286.705 358.438 287.041 359.068 288.532 359.068H289.036V361.042C288.742 361.189 288.133 361.315 287.398 361.315C285.109 361.315 284.017 360.013 284.017 357.493ZM290.653 348.484V345.88H293.341V348.484H290.653ZM290.653 361V349.744H293.341V361H290.653ZM300.673 361.315C297.334 361.315 295.276 359.068 295.276 355.393C295.276 351.571 297.397 349.429 300.673 349.429C303.991 349.429 306.049 351.697 306.049 355.393C306.049 359.173 303.928 361.315 300.673 361.315ZM300.673 359.089C302.374 359.089 303.277 357.787 303.277 355.393C303.277 352.999 302.353 351.655 300.673 351.655C298.951 351.655 298.048 352.978 298.048 355.393C298.048 357.766 298.972 359.089 300.673 359.089ZM308.003 361V349.744H310.691V351.256C311.426 350.038 312.602 349.429 314.03 349.429C316.277 349.429 317.81 350.773 317.81 353.503V361H315.122V354.049C315.122 352.516 314.471 351.655 313.106 351.655C311.615 351.655 310.691 352.957 310.691 354.469V361H308.003Z" fill="#262626"/>
<path d="M34.072 382.804C34.072 385.492 39.91 383.406 39.91 387.312C39.91 389.146 38.426 390.168 36.396 390.168C34.352 390.168 32.952 389.23 32.532 387.312H33.876C34.184 388.446 35.038 389.062 36.41 389.062C37.838 389.062 38.594 388.432 38.594 387.48C38.594 384.568 32.756 386.738 32.756 382.888C32.756 381.516 33.904 380.312 36.004 380.312C37.838 380.312 39.308 381.194 39.658 383.224H38.3C38.006 381.964 37.194 381.418 35.976 381.418C34.772 381.418 34.072 381.964 34.072 382.804ZM47.8415 387.578C47.4355 389.314 46.1895 390.168 44.4955 390.168C42.3395 390.168 41.0375 388.712 41.0375 386.29C41.0375 383.77 42.3395 382.384 44.4255 382.384C46.5255 382.384 47.7855 383.826 47.7855 386.192V386.5H42.2975C42.3675 388.166 43.1515 389.104 44.4955 389.104C45.5455 389.104 46.2875 388.6 46.5535 387.578H47.8415ZM44.4255 383.448C43.2355 383.448 42.5215 384.19 42.3395 385.576H46.4975C46.3295 384.204 45.5875 383.448 44.4255 383.448ZM49.4273 390V379.92H50.6593V390H49.4273ZM59.0388 387.578C58.6328 389.314 57.3868 390.168 55.6928 390.168C53.5368 390.168 52.2348 388.712 52.2348 386.29C52.2348 383.77 53.5368 382.384 55.6228 382.384C57.7228 382.384 58.9828 383.826 58.9828 386.192V386.5H53.4948C53.5648 388.166 54.3488 389.104 55.6928 389.104C56.7428 389.104 57.4848 388.6 57.7508 387.578H59.0388ZM55.6228 383.448C54.4328 383.448 53.7188 384.19 53.5368 385.576H57.6948C57.5268 384.204 56.7848 383.448 55.6228 383.448ZM66.7705 385.128H65.5385C65.3425 383.994 64.5865 383.448 63.6065 383.448C62.2345 383.448 61.5065 384.456 61.5065 386.29C61.5065 388.096 62.2765 389.118 63.6485 389.118C64.6425 389.118 65.3565 388.586 65.5945 387.522H66.8265C66.4905 389.37 65.2445 390.168 63.6205 390.168C61.5065 390.168 60.2465 388.698 60.2465 386.29C60.2465 383.77 61.5345 382.384 63.6065 382.384C65.2445 382.384 66.5325 383.308 66.7705 385.128ZM68.5171 387.858V383.546H67.4811V382.566H68.5171V380.858H69.7491V382.566H71.3871V383.546H69.7491V387.858C69.7491 388.754 70.0151 389.174 71.1071 389.174H71.3591V390.056C71.2191 390.126 70.9111 390.168 70.5611 390.168C69.1751 390.168 68.5171 389.426 68.5171 387.858ZM74.4528 383.546V382.566H75.4888V382.062C75.4888 380.494 76.1328 379.752 77.5048 379.752C77.8128 379.752 78.0648 379.808 78.1908 379.864V380.746H78.0648C76.9868 380.746 76.7208 381.166 76.7208 382.062V382.566H78.1908V383.546H76.7208V390H75.4888V383.546H74.4528ZM79.1773 390V382.566H80.4093V383.714C80.9133 382.804 81.7113 382.384 82.6073 382.384C82.9013 382.384 83.1673 382.454 83.3073 382.566V383.672C83.0973 383.602 82.8313 383.574 82.5373 383.574C81.0533 383.574 80.4093 384.498 80.4093 385.842V390H79.1773ZM87.2872 390.168C85.1592 390.168 83.8852 388.712 83.8852 386.29C83.8852 383.77 85.2012 382.384 87.2872 382.384C89.4152 382.384 90.6892 383.868 90.6892 386.29C90.6892 388.796 89.3732 390.168 87.2872 390.168ZM87.2872 389.104C88.6732 389.104 89.4292 388.11 89.4292 386.29C89.4292 384.484 88.6592 383.448 87.2872 383.448C85.9012 383.448 85.1452 384.456 85.1452 386.29C85.1452 388.082 85.9152 389.104 87.2872 389.104ZM92.2749 390V382.566H93.5069V383.518C93.9829 382.762 94.7249 382.384 95.6349 382.384C96.6569 382.384 97.3989 382.832 97.7489 383.7C98.2389 382.832 99.0509 382.384 100.045 382.384C101.557 382.384 102.467 383.308 102.467 385.03V390H101.235V385.282C101.235 384.162 100.787 383.434 99.7789 383.434C98.6589 383.434 97.9869 384.54 97.9869 385.604V390H96.7549V385.282C96.7549 384.162 96.3069 383.434 95.2989 383.434C94.1789 383.434 93.5069 384.54 93.5069 385.604V390H92.2749ZM110.256 390.168C108.128 390.168 106.854 388.712 106.854 386.29C106.854 383.77 108.17 382.384 110.256 382.384C112.384 382.384 113.658 383.868 113.658 386.29C113.658 388.796 112.342 390.168 110.256 390.168ZM110.256 389.104C111.642 389.104 112.398 388.11 112.398 386.29C112.398 384.484 111.628 383.448 110.256 383.448C108.87 383.448 108.114 384.456 108.114 386.29C108.114 388.082 108.884 389.104 110.256 389.104ZM119.976 386.962V382.566H121.208V390H119.976V388.992C119.472 389.776 118.688 390.168 117.722 390.168C116.168 390.168 115.244 389.258 115.244 387.536V382.566H116.476V387.284C116.476 388.404 116.966 389.118 118.058 389.118C119.262 389.118 119.976 388.026 119.976 386.962ZM123.173 390V382.566H124.405V383.714C124.909 382.804 125.707 382.384 126.603 382.384C126.897 382.384 127.163 382.454 127.303 382.566V383.672C127.093 383.602 126.827 383.574 126.533 383.574C125.049 383.574 124.405 384.498 124.405 385.842V390H123.173ZM137.345 385.128H136.113C135.917 383.994 135.161 383.448 134.181 383.448C132.809 383.448 132.081 384.456 132.081 386.29C132.081 388.096 132.851 389.118 134.223 389.118C135.217 389.118 135.931 388.586 136.169 387.522H137.401C137.065 389.37 135.819 390.168 134.195 390.168C132.081 390.168 130.821 388.698 130.821 386.29C130.821 383.77 132.109 382.384 134.181 382.384C135.819 382.384 137.107 383.308 137.345 385.128ZM143.655 386.962V382.566H144.887V390H143.655V388.992C143.151 389.776 142.367 390.168 141.401 390.168C139.847 390.168 138.923 389.258 138.923 387.536V382.566H140.155V387.284C140.155 388.404 140.645 389.118 141.737 389.118C142.941 389.118 143.655 388.026 143.655 386.962ZM146.853 390V382.566H148.085V383.714C148.589 382.804 149.387 382.384 150.283 382.384C150.577 382.384 150.843 382.454 150.983 382.566V383.672C150.773 383.602 150.507 383.574 150.213 383.574C148.729 383.574 148.085 384.498 148.085 385.842V390H146.853ZM153.073 384.988H151.841C152.079 383.35 153.157 382.384 154.977 382.384C156.965 382.384 157.931 383.546 157.931 385.282V388.208C157.931 389.062 158.001 389.594 158.197 390H156.895C156.755 389.706 156.713 389.272 156.699 388.824C156.069 389.762 155.061 390.168 154.165 390.168C152.625 390.168 151.589 389.454 151.589 388.04C151.589 387.018 152.149 386.276 153.241 385.912C154.249 385.576 155.271 385.492 156.699 385.478V385.31C156.699 384.106 156.139 383.448 154.865 383.448C153.801 383.448 153.227 384.036 153.073 384.988ZM152.849 388.012C152.849 388.698 153.423 389.104 154.291 389.104C155.663 389.104 156.699 388.026 156.699 386.752V386.402C153.535 386.43 152.849 387.102 152.849 388.012ZM160.119 387.858V383.546H159.083V382.566H160.119V380.858H161.351V382.566H162.989V383.546H161.351V387.858C161.351 388.754 161.617 389.174 162.709 389.174H162.961V390.056C162.821 390.126 162.513 390.168 162.163 390.168C160.777 390.168 160.119 389.426 160.119 387.858ZM170.588 387.578C170.182 389.314 168.936 390.168 167.242 390.168C165.086 390.168 163.784 388.712 163.784 386.29C163.784 383.77 165.086 382.384 167.172 382.384C169.272 382.384 170.532 383.826 170.532 386.192V386.5H165.044C165.114 388.166 165.898 389.104 167.242 389.104C168.292 389.104 169.034 388.6 169.3 387.578H170.588ZM167.172 383.448C165.982 383.448 165.268 384.19 165.086 385.576H169.244C169.076 384.204 168.334 383.448 167.172 383.448ZM174.959 390.168C172.985 390.168 171.795 388.712 171.795 386.29C171.795 383.77 173.013 382.384 174.959 382.384C175.841 382.384 176.555 382.748 177.045 383.434V379.92H178.277V390H177.045V389.062C176.555 389.762 175.841 390.168 174.959 390.168ZM175.043 389.104C176.345 389.104 177.045 388.11 177.045 386.29C177.045 384.484 176.317 383.448 175.043 383.448C173.755 383.448 173.055 384.456 173.055 386.29C173.055 388.082 173.783 389.104 175.043 389.104ZM183.043 390V379.92H184.275V390H183.043ZM186.228 381.572V379.92H187.46V381.572H186.228ZM186.228 390V382.566H187.46V390H186.228ZM190.324 384.47C190.324 386.542 195.154 384.834 195.154 387.9C195.154 389.286 193.922 390.168 192.172 390.168C190.408 390.168 189.176 389.328 188.896 387.578H190.128C190.296 388.614 191.066 389.188 192.214 389.188C193.334 389.188 193.922 388.684 193.922 387.984C193.922 385.954 189.148 387.634 189.148 384.554C189.148 383.42 190.03 382.384 191.85 382.384C193.46 382.384 194.65 383.14 194.888 384.988H193.656C193.474 383.826 192.83 383.392 191.78 383.392C190.856 383.392 190.324 383.854 190.324 384.47ZM196.787 387.858V383.546H195.751V382.566H196.787V380.858H198.019V382.566H199.657V383.546H198.019V387.858C198.019 388.754 198.285 389.174 199.377 389.174H199.629V390.056C199.489 390.126 199.181 390.168 198.831 390.168C197.445 390.168 196.787 389.426 196.787 387.858ZM206.656 390.168C204.528 390.168 203.254 388.712 203.254 386.29C203.254 383.77 204.57 382.384 206.656 382.384C208.784 382.384 210.058 383.868 210.058 386.29C210.058 388.796 208.742 390.168 206.656 390.168ZM206.656 389.104C208.042 389.104 208.798 388.11 208.798 386.29C208.798 384.484 208.028 383.448 206.656 383.448C205.27 383.448 204.514 384.456 204.514 386.29C204.514 388.082 205.284 389.104 206.656 389.104ZM210.734 383.546V382.566H211.77V382.062C211.77 380.494 212.414 379.752 213.786 379.752C214.094 379.752 214.346 379.808 214.472 379.864V380.746H214.346C213.268 380.746 213.002 381.166 213.002 382.062V382.566H214.472V383.546H213.002V390H211.77V383.546H210.734ZM218.261 381.572V379.92H219.493V381.572H218.261ZM218.261 390V382.566H219.493V390H218.261ZM221.447 390V382.566H222.679V383.574C223.183 382.79 223.995 382.384 224.975 382.384C226.557 382.384 227.495 383.308 227.495 385.03V390H226.263V385.282C226.263 384.162 225.759 383.434 224.639 383.434C223.407 383.434 222.679 384.54 222.679 385.604V390H221.447ZM231.047 390L228.275 382.566H229.605L231.663 388.334L231.845 388.978L232.027 388.334L234.085 382.566H235.331L232.559 390H231.047ZM242.802 387.578C242.396 389.314 241.15 390.168 239.456 390.168C237.3 390.168 235.998 388.712 235.998 386.29C235.998 383.77 237.3 382.384 239.386 382.384C241.486 382.384 242.746 383.826 242.746 386.192V386.5H237.258C237.328 388.166 238.112 389.104 239.456 389.104C240.506 389.104 241.248 388.6 241.514 387.578H242.802ZM239.386 383.448C238.196 383.448 237.482 384.19 237.3 385.576H241.458C241.29 384.204 240.548 383.448 239.386 383.448ZM245.298 384.47C245.298 386.542 250.128 384.834 250.128 387.9C250.128 389.286 248.896 390.168 247.146 390.168C245.382 390.168 244.15 389.328 243.87 387.578H245.102C245.27 388.614 246.04 389.188 247.188 389.188C248.308 389.188 248.896 388.684 248.896 387.984C248.896 385.954 244.122 387.634 244.122 384.554C244.122 383.42 245.004 382.384 246.824 382.384C248.434 382.384 249.624 383.14 249.862 384.988H248.63C248.448 383.826 247.804 383.392 246.754 383.392C245.83 383.392 245.298 383.854 245.298 384.47ZM251.761 387.858V383.546H250.725V382.566H251.761V380.858H252.993V382.566H254.631V383.546H252.993V387.858C252.993 388.754 253.259 389.174 254.351 389.174H254.603V390.056C254.463 390.126 254.155 390.168 253.805 390.168C252.419 390.168 251.761 389.426 251.761 387.858ZM255.804 390V382.566H257.036V383.518C257.512 382.762 258.254 382.384 259.164 382.384C260.186 382.384 260.928 382.832 261.278 383.7C261.768 382.832 262.58 382.384 263.574 382.384C265.086 382.384 265.996 383.308 265.996 385.03V390H264.764V385.282C264.764 384.162 264.316 383.434 263.308 383.434C262.188 383.434 261.516 384.54 261.516 385.604V390H260.284V385.282C260.284 384.162 259.836 383.434 258.828 383.434C257.708 383.434 257.036 384.54 257.036 385.604V390H255.804ZM274.385 387.578C273.979 389.314 272.733 390.168 271.039 390.168C268.883 390.168 267.581 388.712 267.581 386.29C267.581 383.77 268.883 382.384 270.969 382.384C273.069 382.384 274.329 383.826 274.329 386.192V386.5H268.841C268.911 388.166 269.695 389.104 271.039 389.104C272.089 389.104 272.831 388.6 273.097 387.578H274.385ZM270.969 383.448C269.779 383.448 269.065 384.19 268.883 385.576H273.041C272.873 384.204 272.131 383.448 270.969 383.448ZM275.97 390V382.566H277.202V383.574C277.706 382.79 278.518 382.384 279.498 382.384C281.08 382.384 282.018 383.308 282.018 385.03V390H280.786V385.282C280.786 384.162 280.282 383.434 279.162 383.434C277.93 383.434 277.202 384.54 277.202 385.604V390H275.97ZM284.15 387.858V383.546H283.114V382.566H284.15V380.858H285.382V382.566H287.02V383.546H285.382V387.858C285.382 388.754 285.648 389.174 286.74 389.174H286.992V390.056C286.852 390.126 286.544 390.168 286.194 390.168C284.808 390.168 284.15 389.426 284.15 387.858ZM36.004 412.168C33.876 412.168 32.602 410.712 32.602 408.29C32.602 405.77 33.918 404.384 36.004 404.384C38.132 404.384 39.406 405.868 39.406 408.29C39.406 410.796 38.09 412.168 36.004 412.168ZM36.004 411.104C37.39 411.104 38.146 410.11 38.146 408.29C38.146 406.484 37.376 405.448 36.004 405.448C34.618 405.448 33.862 406.456 33.862 408.29C33.862 410.082 34.632 411.104 36.004 411.104ZM42.2377 415.08H41.0057V404.566H42.2377V405.49C42.7277 404.79 43.4417 404.384 44.3237 404.384C46.2977 404.384 47.4877 405.84 47.4877 408.262C47.4877 410.782 46.2697 412.168 44.3237 412.168C43.4417 412.168 42.7277 411.804 42.2377 411.118V415.08ZM44.2397 405.448C42.9377 405.448 42.2377 406.442 42.2377 408.262C42.2377 410.068 42.9657 411.104 44.2397 411.104C45.5277 411.104 46.2277 410.096 46.2277 408.262C46.2277 406.47 45.4997 405.448 44.2397 405.448ZM50.3178 415.08H49.0858V404.566H50.3178V405.49C50.8078 404.79 51.5218 404.384 52.4038 404.384C54.3778 404.384 55.5678 405.84 55.5678 408.262C55.5678 410.782 54.3498 412.168 52.4038 412.168C51.5218 412.168 50.8078 411.804 50.3178 411.118V415.08ZM52.3198 405.448C51.0178 405.448 50.3178 406.442 50.3178 408.262C50.3178 410.068 51.0458 411.104 52.3198 411.104C53.6078 411.104 54.3078 410.096 54.3078 408.262C54.3078 406.47 53.5798 405.448 52.3198 405.448ZM60.1759 412.168C58.0479 412.168 56.7739 410.712 56.7739 408.29C56.7739 405.77 58.0899 404.384 60.1759 404.384C62.3039 404.384 63.5779 405.868 63.5779 408.29C63.5779 410.796 62.2619 412.168 60.1759 412.168ZM60.1759 411.104C61.5619 411.104 62.3179 410.11 62.3179 408.29C62.3179 406.484 61.5479 405.448 60.1759 405.448C58.7899 405.448 58.0339 406.456 58.0339 408.29C58.0339 410.082 58.8039 411.104 60.1759 411.104ZM65.1636 412V404.566H66.3956V405.714C66.8996 404.804 67.6976 404.384 68.5936 404.384C68.8876 404.384 69.1536 404.454 69.2936 404.566V405.672C69.0836 405.602 68.8176 405.574 68.5236 405.574C67.0396 405.574 66.3956 406.498 66.3956 407.842V412H65.1636ZM70.5543 409.858V405.546H69.5183V404.566H70.5543V402.858H71.7863V404.566H73.4243V405.546H71.7863V409.858C71.7863 410.754 72.0523 411.174 73.1443 411.174H73.3963V412.056C73.2563 412.126 72.9483 412.168 72.5983 412.168C71.2123 412.168 70.5543 411.426 70.5543 409.858ZM79.3292 408.962V404.566H80.5612V412H79.3292V410.992C78.8252 411.776 78.0412 412.168 77.0752 412.168C75.5212 412.168 74.5972 411.258 74.5972 409.536V404.566H75.8292V409.284C75.8292 410.404 76.3192 411.118 77.4112 411.118C78.6152 411.118 79.3292 410.026 79.3292 408.962ZM82.5269 412V404.566H83.7589V405.574C84.2629 404.79 85.0749 404.384 86.0549 404.384C87.6369 404.384 88.5749 405.308 88.5749 407.03V412H87.3429V407.282C87.3429 406.162 86.8389 405.434 85.7189 405.434C84.4869 405.434 83.7589 406.54 83.7589 407.604V412H82.5269ZM90.5386 403.572V401.92H91.7706V403.572H90.5386ZM90.5386 412V404.566H91.7706V412H90.5386ZM93.8921 409.858V405.546H92.8561V404.566H93.8921V402.858H95.1241V404.566H96.7621V405.546H95.1241V409.858C95.1241 410.754 95.3901 411.174 96.4821 411.174H96.7341V412.056C96.5941 412.126 96.2861 412.168 95.9361 412.168C94.5501 412.168 93.8921 411.426 93.8921 409.858ZM97.9351 403.572V401.92H99.1671V403.572H97.9351ZM97.9351 412V404.566H99.1671V412H97.9351ZM107.547 409.578C107.141 411.314 105.895 412.168 104.201 412.168C102.045 412.168 100.743 410.712 100.743 408.29C100.743 405.77 102.045 404.384 104.131 404.384C106.231 404.384 107.491 405.826 107.491 408.192V408.5H102.003C102.073 410.166 102.857 411.104 104.201 411.104C105.251 411.104 105.993 410.6 106.259 409.578H107.547ZM104.131 405.448C102.941 405.448 102.227 406.19 102.045 407.576H106.203C106.035 406.204 105.293 405.448 104.131 405.448ZM110.042 406.47C110.042 408.542 114.872 406.834 114.872 409.9C114.872 411.286 113.64 412.168 111.89 412.168C110.126 412.168 108.894 411.328 108.614 409.578H109.846C110.014 410.614 110.784 411.188 111.932 411.188C113.052 411.188 113.64 410.684 113.64 409.984C113.64 407.954 108.866 409.634 108.866 406.554C108.866 405.42 109.748 404.384 111.568 404.384C113.178 404.384 114.368 405.14 114.606 406.988H113.374C113.192 405.826 112.548 405.392 111.498 405.392C110.574 405.392 110.042 405.854 110.042 406.47ZM116.197 412V410.488H117.709V411.3C117.709 412.602 117.499 413.4 117.009 414.31H116.309C116.631 413.47 116.813 412.868 116.813 412H116.197ZM122.326 403.572V401.92H123.558V403.572H122.326ZM122.326 412V404.566H123.558V412H122.326ZM125.511 412V404.566H126.743V405.574C127.247 404.79 128.059 404.384 129.039 404.384C130.621 404.384 131.559 405.308 131.559 407.03V412H130.327V407.282C130.327 406.162 129.823 405.434 128.703 405.434C127.471 405.434 126.743 406.54 126.743 407.604V412H125.511ZM139.669 407.128H138.437C138.241 405.994 137.485 405.448 136.505 405.448C135.133 405.448 134.405 406.456 134.405 408.29C134.405 410.096 135.175 411.118 136.547 411.118C137.541 411.118 138.255 410.586 138.493 409.522H139.725C139.389 411.37 138.143 412.168 136.519 412.168C134.405 412.168 133.145 410.698 133.145 408.29C133.145 405.77 134.433 404.384 136.505 404.384C138.143 404.384 139.431 405.308 139.669 407.128ZM141.248 412V401.92H142.48V412H141.248ZM149.165 408.962V404.566H150.397V412H149.165V410.992C148.661 411.776 147.877 412.168 146.911 412.168C145.357 412.168 144.433 411.258 144.433 409.536V404.566H145.665V409.284C145.665 410.404 146.155 411.118 147.247 411.118C148.451 411.118 149.165 410.026 149.165 408.962ZM155.149 412.168C153.175 412.168 151.985 410.712 151.985 408.29C151.985 405.77 153.203 404.384 155.149 404.384C156.031 404.384 156.745 404.748 157.235 405.434V401.92H158.467V412H157.235V411.062C156.745 411.762 156.031 412.168 155.149 412.168ZM155.233 411.104C156.535 411.104 157.235 410.11 157.235 408.29C157.235 406.484 156.507 405.448 155.233 405.448C153.945 405.448 153.245 406.456 153.245 408.29C153.245 410.082 153.973 411.104 155.233 411.104ZM160.429 403.572V401.92H161.661V403.572H160.429ZM160.429 412V404.566H161.661V412H160.429ZM163.615 412V404.566H164.847V405.574C165.351 404.79 166.163 404.384 167.143 404.384C168.725 404.384 169.663 405.308 169.663 407.03V412H168.431V407.282C168.431 406.162 167.927 405.434 166.807 405.434C165.575 405.434 164.847 406.54 164.847 407.604V412H163.615ZM174.272 412.056C172.382 412.056 171.248 410.614 171.248 408.234C171.248 405.742 172.41 404.384 174.272 404.384C175.266 404.384 176.008 404.734 176.498 405.378V404.566H177.73V412.224C177.73 414.296 176.4 415.262 174.692 415.262C172.942 415.262 171.71 414.422 171.444 412.728H172.676C172.83 413.708 173.6 414.24 174.678 414.24C175.77 414.24 176.498 413.652 176.498 412.266V410.992C175.98 411.692 175.224 412.056 174.272 412.056ZM174.496 410.992C175.798 410.992 176.498 410.012 176.498 408.22C176.498 406.47 175.77 405.448 174.496 405.448C173.208 405.448 172.508 406.428 172.508 408.234C172.508 409.984 173.222 410.992 174.496 410.992ZM183.419 406.47C183.419 408.542 188.249 406.834 188.249 409.9C188.249 411.286 187.017 412.168 185.267 412.168C183.503 412.168 182.271 411.328 181.991 409.578H183.223C183.391 410.614 184.161 411.188 185.309 411.188C186.429 411.188 187.017 410.684 187.017 409.984C187.017 407.954 182.243 409.634 182.243 406.554C182.243 405.42 183.125 404.384 184.945 404.384C186.555 404.384 187.745 405.14 187.983 406.988H186.751C186.569 405.826 185.925 405.392 184.875 405.392C183.951 405.392 183.419 405.854 183.419 406.47ZM189.882 409.858V405.546H188.846V404.566H189.882V402.858H191.114V404.566H192.752V405.546H191.114V409.858C191.114 410.754 191.38 411.174 192.472 411.174H192.724V412.056C192.584 412.126 192.276 412.168 191.926 412.168C190.54 412.168 189.882 411.426 189.882 409.858ZM196.949 412.168C194.821 412.168 193.547 410.712 193.547 408.29C193.547 405.77 194.863 404.384 196.949 404.384C199.077 404.384 200.351 405.868 200.351 408.29C200.351 410.796 199.035 412.168 196.949 412.168ZM196.949 411.104C198.335 411.104 199.091 410.11 199.091 408.29C199.091 406.484 198.321 405.448 196.949 405.448C195.563 405.448 194.807 406.456 194.807 408.29C194.807 410.082 195.577 411.104 196.949 411.104ZM208.083 407.128H206.851C206.655 405.994 205.899 405.448 204.919 405.448C203.547 405.448 202.819 406.456 202.819 408.29C202.819 410.096 203.589 411.118 204.961 411.118C205.955 411.118 206.669 410.586 206.907 409.522H208.139C207.803 411.37 206.557 412.168 204.933 412.168C202.819 412.168 201.559 410.698 201.559 408.29C201.559 405.77 202.847 404.384 204.919 404.384C206.557 404.384 207.845 405.308 208.083 407.128ZM209.662 412V401.92H210.894V407.758L214.1 404.566H215.612L212.224 407.884L215.808 412H214.24L210.894 408.206V412H209.662ZM217.49 406.47C217.49 408.542 222.32 406.834 222.32 409.9C222.32 411.286 221.088 412.168 219.338 412.168C217.574 412.168 216.342 411.328 216.062 409.578H217.294C217.462 410.614 218.232 411.188 219.38 411.188C220.5 411.188 221.088 410.684 221.088 409.984C221.088 407.954 216.314 409.634 216.314 406.554C216.314 405.42 217.196 404.384 219.016 404.384C220.626 404.384 221.816 405.14 222.054 406.988H220.822C220.64 405.826 219.996 405.392 218.946 405.392C218.022 405.392 217.49 405.854 217.49 406.47ZM223.645 412V410.488H225.157V411.3C225.157 412.602 224.947 413.4 224.457 414.31H223.757C224.079 413.47 224.261 412.868 224.261 412H223.645ZM231.005 412H229.773V401.92H231.005V405.49C231.495 404.79 232.209 404.384 233.091 404.384C235.065 404.384 236.255 405.84 236.255 408.262C236.255 410.782 235.037 412.168 233.091 412.168C232.209 412.168 231.495 411.804 231.005 411.118V412ZM233.007 405.448C231.705 405.448 231.005 406.442 231.005 408.262C231.005 410.068 231.733 411.104 233.007 411.104C234.295 411.104 234.995 410.096 234.995 408.262C234.995 406.47 234.267 405.448 233.007 405.448ZM240.863 412.168C238.735 412.168 237.461 410.712 237.461 408.29C237.461 405.77 238.777 404.384 240.863 404.384C242.991 404.384 244.265 405.868 244.265 408.29C244.265 410.796 242.949 412.168 240.863 412.168ZM240.863 411.104C242.249 411.104 243.005 410.11 243.005 408.29C243.005 406.484 242.235 405.448 240.863 405.448C239.477 405.448 238.721 406.456 238.721 408.29C238.721 410.082 239.491 411.104 240.863 411.104ZM245.851 412V404.566H247.083V405.574C247.587 404.79 248.399 404.384 249.379 404.384C250.961 404.384 251.899 405.308 251.899 407.03V412H250.667V407.282C250.667 406.162 250.163 405.434 249.043 405.434C247.811 405.434 247.083 406.54 247.083 407.604V412H245.851ZM256.649 412.168C254.675 412.168 253.485 410.712 253.485 408.29C253.485 405.77 254.703 404.384 256.649 404.384C257.531 404.384 258.245 404.748 258.735 405.434V401.92H259.967V412H258.735V411.062C258.245 411.762 257.531 412.168 256.649 412.168ZM256.733 411.104C258.035 411.104 258.735 410.11 258.735 408.29C258.735 406.484 258.007 405.448 256.733 405.448C255.445 405.448 254.745 406.456 254.745 408.29C254.745 410.082 255.473 411.104 256.733 411.104ZM262.839 406.47C262.839 408.542 267.669 406.834 267.669 409.9C267.669 411.286 266.437 412.168 264.687 412.168C262.923 412.168 261.691 411.328 261.411 409.578H262.643C262.811 410.614 263.581 411.188 264.729 411.188C265.849 411.188 266.437 410.684 266.437 409.984C266.437 407.954 261.663 409.634 261.663 406.554C261.663 405.42 262.545 404.384 264.365 404.384C265.975 404.384 267.165 405.14 267.403 406.988H266.171C265.989 405.826 265.345 405.392 264.295 405.392C263.371 405.392 262.839 405.854 262.839 406.47ZM268.994 412V410.488H270.506V411.3C270.506 412.602 270.296 413.4 269.806 414.31H269.106C269.428 413.47 269.61 412.868 269.61 412H268.994ZM276.257 406.988H275.025C275.263 405.35 276.341 404.384 278.161 404.384C280.149 404.384 281.115 405.546 281.115 407.282V410.208C281.115 411.062 281.185 411.594 281.381 412H280.079C279.939 411.706 279.897 411.272 279.883 410.824C279.253 411.762 278.245 412.168 277.349 412.168C275.809 412.168 274.773 411.454 274.773 410.04C274.773 409.018 275.333 408.276 276.425 407.912C277.433 407.576 278.455 407.492 279.883 407.478V407.31C279.883 406.106 279.323 405.448 278.049 405.448C276.985 405.448 276.411 406.036 276.257 406.988ZM276.033 410.012C276.033 410.698 276.607 411.104 277.475 411.104C278.847 411.104 279.883 410.026 279.883 408.752V408.402C276.719 408.43 276.033 409.102 276.033 410.012ZM283.134 412V404.566H284.366V405.574C284.87 404.79 285.682 404.384 286.662 404.384C288.244 404.384 289.182 405.308 289.182 407.03V412H287.95V407.282C287.95 406.162 287.446 405.434 286.326 405.434C285.094 405.434 284.366 406.54 284.366 407.604V412H283.134ZM293.932 412.168C291.958 412.168 290.768 410.712 290.768 408.29C290.768 405.77 291.986 404.384 293.932 404.384C294.814 404.384 295.528 404.748 296.018 405.434V401.92H297.25V412H296.018V411.062C295.528 411.762 294.814 412.168 293.932 412.168ZM294.016 411.104C295.318 411.104 296.018 410.11 296.018 408.29C296.018 406.484 295.29 405.448 294.016 405.448C292.728 405.448 292.028 406.456 292.028 408.29C292.028 410.082 292.756 411.104 294.016 411.104ZM302.015 412V404.566H303.247V405.518C303.723 404.762 304.465 404.384 305.375 404.384C306.397 404.384 307.139 404.832 307.489 405.7C307.979 404.832 308.791 404.384 309.785 404.384C311.297 404.384 312.207 405.308 312.207 407.03V412H310.975V407.282C310.975 406.162 310.527 405.434 309.519 405.434C308.399 405.434 307.727 406.54 307.727 407.604V412H306.495V407.282C306.495 406.162 306.047 405.434 305.039 405.434C303.919 405.434 303.247 406.54 303.247 407.604V412H302.015ZM317.193 412.168C315.065 412.168 313.791 410.712 313.791 408.29C313.791 405.77 315.107 404.384 317.193 404.384C319.321 404.384 320.595 405.868 320.595 408.29C320.595 410.796 319.279 412.168 317.193 412.168ZM317.193 411.104C318.579 411.104 319.335 410.11 319.335 408.29C319.335 406.484 318.565 405.448 317.193 405.448C315.807 405.448 315.051 406.456 315.051 408.29C315.051 410.082 315.821 411.104 317.193 411.104ZM322.181 412V404.566H323.413V405.714C323.917 404.804 324.715 404.384 325.611 404.384C325.905 404.384 326.171 404.454 326.311 404.566V405.672C326.101 405.602 325.835 405.574 325.541 405.574C324.057 405.574 323.413 406.498 323.413 407.842V412H322.181ZM333.693 409.578C333.287 411.314 332.041 412.168 330.347 412.168C328.191 412.168 326.889 410.712 326.889 408.29C326.889 405.77 328.191 404.384 330.277 404.384C332.377 404.384 333.637 405.826 333.637 408.192V408.5H328.149C328.219 410.166 329.003 411.104 330.347 411.104C331.397 411.104 332.139 410.6 332.405 409.578H333.693ZM330.277 405.448C329.087 405.448 328.373 406.19 328.191 407.576H332.349C332.181 406.204 331.439 405.448 330.277 405.448Z" fill="#595959"/>
<rect x="34.5" y="34.5" width="35" height="35" rx="17.5" fill="#D5E3A1"/>
<path d="M47.6031 59.875V57.7312H50.2281V49.2H47.6031V47.1H48.8281C50.2938 47.1 50.7094 46.75 50.7094 46.0062V45.8094H53.1813V57.7312H55.8063V59.875H47.6031Z" fill="black"/>
<rect x="104" y="70" width="205" height="240" rx="17" fill="#3C76E1" fill-opacity="0.06"/>
<rect x="330" y="70" width="205" height="240" rx="17" fill="#3C76E1" fill-opacity="0.06"/>
</g>
<defs>
<clipPath id="clip0_1040_14969">
<rect width="400" height="450" rx="24" fill="white"/>
</clipPath>
</defs>
</svg>
