<svg width="134" height="134" viewBox="0 0 134 134" fill="none" xmlns="http://www.w3.org/2000/svg">
<g filter="url(#filter0_d_1337_33108)">
<g clip-path="url(#clip0_1337_33108)">
<rect x="26" y="11" width="81.8639" height="81.8639" rx="16.3728" transform="rotate(10.5873 26 11)" fill="#0F0F0F"/>
<g clip-path="url(#clip1_1337_33108)">
<path d="M46.1918 52.3143C48.7876 51.7462 50.0119 50.9638 50.527 48.2089C51.2945 44.1036 48.8871 42.105 43.9947 41.1903L36.1913 39.7313L35.5709 43.0494L43.181 44.4722C45.8477 44.9708 47.2059 45.3687 46.8145 47.4621C46.4232 49.5554 44.999 49.5104 42.3322 49.0118L34.7086 47.5864L32.8418 57.5715L36.869 58.3244L38.1269 51.5965L42.2322 52.364L43.792 57.863C43.9496 58.4202 44.2598 58.9221 44.6875 59.3123C45.1153 59.7025 45.6435 59.9654 46.2128 60.0713L48.6861 60.5338L46.1918 52.3143Z" fill="white"/>
<path d="M48.803 60.6361L46.2041 60.1502C45.6178 60.0435 45.0734 59.774 44.6331 59.3725C44.1928 58.971 43.8743 58.4538 43.7141 57.8798L42.1658 52.4321L38.1996 51.6906L36.9418 58.4185L32.7449 57.6338L34.6403 47.4962L42.3351 48.9348C45.1308 49.4575 46.359 49.3676 46.7168 47.4541C47.0745 45.5406 45.9715 45.092 43.1521 44.5649L35.4573 43.1262L36.1094 39.6384L44.0112 41.1158C49.3141 42.1072 51.3476 44.3028 50.6124 48.2351C50.0884 51.0375 48.8045 51.8193 46.3054 52.3774L48.803 60.6361ZM38.0617 51.4892L42.3027 52.2822L42.3176 52.3341L43.8773 57.8331C44.0301 58.3759 44.3322 58.8649 44.7491 59.2445C45.1661 59.6241 45.6811 59.8791 46.2358 59.9806L48.5565 60.4145L46.0838 52.2482L46.175 52.2301C48.7127 51.6722 49.9243 50.9577 50.4393 48.2027C51.153 44.3858 49.1602 42.254 43.9761 41.2848L36.2439 39.8391L35.6533 42.9979L43.1785 44.4048C45.7435 44.8844 47.2934 45.29 46.8811 47.4953C46.4688 49.7006 44.7983 49.5639 42.3013 49.097L34.7761 47.6901L32.9441 57.4885L36.8017 58.2097L38.0617 51.4892Z" fill="white"/>
<path d="M65.0744 45.1416L61.0709 44.3931L49.791 60.74L51.8809 61.1308C52.4831 61.244 53.1052 61.1767 53.6692 60.9373C54.2332 60.6978 54.7137 60.2969 55.0505 59.7851L62.447 48.0388L65.0775 61.6527C65.2053 62.2533 65.5083 62.8026 65.9482 63.2311C66.3881 63.6595 66.9451 63.948 67.5488 64.0601L69.7236 64.4667L65.0744 45.1416Z" fill="white"/>
<path d="M69.8256 64.5667L67.5321 64.1379C66.9118 64.0228 66.3395 63.7265 65.8874 63.2864C65.4354 62.8463 65.1239 62.2821 64.9922 61.6651L62.4029 48.2626L55.1219 59.8232C54.7764 60.3501 54.2827 60.7629 53.7029 61.0094C53.1231 61.256 52.4833 61.3253 51.8642 61.2086L49.6453 60.7937L49.7184 60.6845L61.0303 44.2979L65.1424 45.0667L65.1539 45.118L69.8256 64.5667ZM62.4892 47.8012L65.168 61.6453C65.2917 62.2288 65.5858 62.7624 66.0131 63.1786C66.4404 63.5948 66.9815 63.8748 67.568 63.9831L69.6037 64.3637L65.0072 45.2451L61.1191 44.5182L49.9493 60.6891L51.9069 61.0551C52.4925 61.1647 53.0974 61.0989 53.6457 60.866C54.1941 60.633 54.6614 60.2433 54.9889 59.7457L62.4892 47.8012Z" fill="white"/>
<path d="M72.7469 54.6802L70.8769 64.6822L71.8438 64.8629C72.6537 65.0144 73.4905 64.8379 74.1702 64.3723C74.8499 63.9067 75.3168 63.1902 75.4682 62.3803L76.154 58.7127L81.6706 59.7441C82.4805 59.8955 83.3173 59.719 83.997 59.2535C84.6767 58.7879 85.1436 58.0713 85.2951 57.2615L85.3344 57.0511L72.7469 54.6802ZM74.2109 46.8496L73.6001 50.1169L87.3002 52.6783L87.911 49.411L74.2109 46.8496Z" fill="white"/>
<path d="M71.8279 64.9411L70.7761 64.7444L72.6791 54.566L85.453 56.9543L85.3978 57.2495C85.2411 58.0828 84.7599 58.8199 84.06 59.2988C83.3601 59.7776 82.4988 59.959 81.6653 59.8032L76.2368 58.7882L75.5619 62.3982C75.4018 63.2294 74.9192 63.9635 74.2195 64.44C73.5198 64.9165 72.66 65.0966 71.8279 64.9411ZM70.9775 64.6065L71.8596 64.7714C72.6455 64.9156 73.4564 64.7436 74.1161 64.2928C74.7758 63.8421 75.2308 63.1491 75.3821 62.3646L76.0862 58.5986L81.6877 59.6458C82.4761 59.7923 83.2905 59.6203 83.9524 59.1675C84.6142 58.7147 85.0697 58.018 85.2188 57.2301L85.2423 57.1045L72.8077 54.7797L70.9775 64.6065ZM87.3678 52.7791L73.498 50.1859L74.1406 46.749L88.0002 49.3403L87.3678 52.7791ZM73.6994 50.048L87.2299 52.5777L87.809 49.4801L74.2785 46.9504L73.6994 50.048Z" fill="white"/>
<path d="M55.8426 77.9326L55.7442 77.9142L30.7239 67.9692C28.7416 67.178 27.0948 65.7242 26.0639 63.8553C25.033 61.9865 24.6816 59.8181 25.0697 57.7193L28.9835 36.7857C29.3794 34.6882 30.4902 32.7929 32.1269 31.4226C33.7635 30.0523 35.8247 29.292 37.9591 29.271L64.9129 29.0433L65.0113 29.0617L90.0351 39.0074C92.0174 39.7981 93.6641 41.2518 94.6946 43.1208C95.725 44.9898 96.0753 47.1583 95.6859 49.2567L91.772 70.1902C91.3764 72.2873 90.2661 74.1824 88.6302 75.5527C86.9942 76.923 84.9338 77.6838 82.7999 77.7056L55.8426 77.9326ZM64.8314 29.6672L37.9624 29.9107C35.9723 29.9302 34.0506 30.6392 32.5248 31.9169C30.9989 33.1946 29.9633 34.9618 29.5945 36.9175L25.6806 57.851C25.3182 59.8075 25.6455 61.8291 26.6069 63.5712C27.5682 65.3132 29.104 66.668 30.9524 67.4045L55.9184 77.3393L82.7909 77.0964C84.78 77.0767 86.7008 76.3679 88.2259 75.0908C89.7511 73.8136 90.7861 72.0472 91.1548 70.0924L95.0686 49.1588C95.4306 47.2026 95.1036 45.1813 94.1432 43.439C93.1828 41.6966 91.6483 40.341 89.8009 39.6026L64.8314 29.6672Z" fill="white"/>
</g>
<path d="M22.5033 80.503L21.7287 80.3582L21.4506 81.8458L20.5892 81.6847L21.4073 77.309L23.1735 77.6393C23.3735 77.6601 23.5669 77.7231 23.7407 77.8241C23.9146 77.9252 24.065 78.062 24.1821 78.2255C24.2991 78.389 24.3802 78.5755 24.4198 78.7726C24.4595 78.9698 24.4568 79.1731 24.4121 79.3691C24.3765 79.6443 24.2575 79.902 24.071 80.1076C23.8846 80.3131 23.6397 80.4567 23.3693 80.5189L24.1092 82.3316L23.1537 82.1529L22.5033 80.503ZM21.8783 79.5584L22.7831 79.7276C22.8662 79.7462 22.9523 79.7476 23.0359 79.7317C23.1196 79.7157 23.1991 79.6827 23.2695 79.6348C23.3399 79.5869 23.3998 79.525 23.4453 79.453C23.4908 79.381 23.5211 79.3004 23.5342 79.2162C23.553 79.1316 23.5547 79.0441 23.5391 78.9589C23.5235 78.8736 23.4909 78.7923 23.4434 78.7198C23.3958 78.6474 23.3341 78.5852 23.2621 78.537C23.1901 78.4888 23.1091 78.4555 23.024 78.4391L22.1192 78.27L21.8783 79.5584Z" fill="white"/>
<path d="M25.5273 78.0798L26.4285 78.2483L25.6104 82.624L24.7092 82.4555L25.5273 78.0798Z" fill="white"/>
<path d="M26.8097 80.5856C26.8547 80.2806 26.9622 79.9881 27.1253 79.7264C27.2885 79.4647 27.5038 79.2396 27.758 79.0649C28.0121 78.8902 28.2995 78.7698 28.6023 78.7113C28.905 78.6527 29.2166 78.6572 29.5175 78.7246C29.9419 78.7803 30.3389 78.9651 30.6547 79.2539C30.9705 79.5428 31.19 79.9218 31.2832 80.3395L30.4293 80.5994C30.3862 80.3382 30.2612 80.0975 30.0723 79.912C29.8835 79.7266 29.6405 79.606 29.3786 79.5676C28.9947 79.4958 28.5979 79.5795 28.2757 79.8002C27.9534 80.021 27.7321 80.3607 27.6603 80.7446C27.5885 81.1286 27.6722 81.5253 27.8929 81.8476C28.1136 82.1698 28.4533 82.3912 28.8373 82.463C29.0973 82.5235 29.3699 82.4984 29.6145 82.3917C29.8592 82.2849 30.0629 82.1021 30.1954 81.8704L30.912 82.4051C30.6766 82.767 30.3352 83.0473 29.9344 83.2077C29.5337 83.3681 29.0931 83.4008 28.6731 83.3013C28.367 83.2567 28.0734 83.1493 27.8109 82.9857C27.5483 82.8222 27.3224 82.6061 27.1474 82.351C26.9724 82.096 26.852 81.8075 26.7939 81.5037C26.7358 81.1998 26.7412 80.8873 26.8097 80.5856Z" fill="white"/>
<path d="M32.1582 79.3191L33.0594 79.4876L32.7522 81.1307L34.6016 81.4765L34.9088 79.8334L35.81 80.0018L34.9919 84.3775L34.0907 84.209L34.4473 82.3017L32.5979 81.9559L32.2413 83.8633L31.3401 83.6948L32.1582 79.3191Z" fill="white"/>
<path d="M40.5452 80.8874L41.3087 85.5588L40.3714 85.3835L40.2318 84.3872L38.6212 84.0861L38.1311 84.9647L37.219 84.7941L39.6187 80.7142L40.5452 80.8874ZM39.0266 83.3603L40.1124 83.5633L39.8697 81.8361L39.0266 83.3603Z" fill="white"/>
<path d="M42.0181 83.9272L42.5175 81.2562L43.4187 81.4247L42.9342 84.0161C42.8056 84.7037 43.1026 85.1188 43.6636 85.2237C44.2246 85.3286 44.6433 85.0323 44.7692 84.3591L45.2557 81.7569L46.1569 81.9254L45.6575 84.5964C45.5673 85.0787 45.2892 85.5055 44.8844 85.7828C44.4795 86.0601 43.9811 86.1652 43.4988 86.075C43.0165 85.9848 42.5897 85.7067 42.3124 85.3019C42.0351 84.8971 41.93 84.3987 42.0202 83.9163L42.0181 83.9272Z" fill="white"/>
<path d="M46.2991 86.4917L47.1172 82.116L48.0546 82.2912L49.3971 85.6287L49.9547 82.6465L50.8052 82.8055L49.9871 87.1812L49.0497 87.0059L47.7072 83.6684L47.1496 86.6507L46.2991 86.4917Z" fill="white"/>
<path d="M54.9686 83.5839L54.8143 84.4091L53.5259 84.1682L52.8621 87.7187L51.9609 87.5502L52.6247 83.9997L51.3399 83.7595L51.4941 82.9343L54.9686 83.5839Z" fill="white"/>
<path d="M55.9306 88.2925L56.2493 86.5878L55.2793 83.6421L56.2348 83.8207L56.8495 85.9022L58.1747 84.1834L59.1193 84.36L57.1505 86.7563L56.8318 88.461L55.9306 88.2925Z" fill="white"/>
<path d="M61.3418 84.7756L64.1684 85.3041L64.0141 86.1293L62.1068 85.7727L61.9288 86.7246L63.6045 87.0379L63.4523 87.8522L61.7766 87.5389L61.445 89.3123L60.5438 89.1438L61.3418 84.7756Z" fill="white"/>
<path d="M64.9531 85.4507L65.8543 85.6192L65.0362 89.9949L64.135 89.8264L64.9531 85.4507Z" fill="white"/>
<path d="M66.01 90.1772L66.8281 85.8015L67.7655 85.9768L69.108 89.3143L69.6656 86.332L70.5161 86.491L69.698 90.8667L68.7606 90.6915L67.4181 87.3539L66.8605 90.3362L66.01 90.1772Z" fill="white"/>
<path d="M73.6217 87.0718L74.3852 91.7432L73.4478 91.5679L73.3118 90.5723L71.6977 90.2705L71.2111 91.1497L70.2991 90.9792L72.6988 86.8992L73.6217 87.0718ZM72.1067 89.5454L73.1925 89.7484L72.9534 88.0218L72.1067 89.5454Z" fill="white"/>
<path d="M74.9846 91.8549L75.8027 87.4792L76.7365 87.6538L78.079 90.9913L78.6366 88.0091L79.4871 88.1681L78.669 92.5438L77.728 92.3678L76.3855 89.0303L75.8279 92.0126L74.9846 91.8549Z" fill="white"/>
<path d="M79.8665 90.5056C79.9115 90.2002 80.0191 89.9074 80.1825 89.6455C80.3459 89.3836 80.5617 89.1583 80.8162 88.9837C81.0707 88.8091 81.3586 88.6888 81.6617 88.6306C81.9649 88.5723 82.2768 88.5773 82.5779 88.6452C82.9993 88.7034 83.393 88.8887 83.7066 89.1761C84.0202 89.4636 84.2388 89.8397 84.3334 90.2545L83.4759 90.5136C83.4339 90.252 83.3092 90.0107 83.1201 89.8251C82.9311 89.6394 82.6875 89.5192 82.4252 89.4819C82.0412 89.4101 81.6445 89.4938 81.3222 89.7145C81 89.9352 80.7786 90.275 80.7068 90.6589C80.635 91.0429 80.7187 91.4396 80.9395 91.7619C81.1602 92.0841 81.4999 92.3055 81.8839 92.3773C82.1443 92.4374 82.4172 92.4124 82.6623 92.3058C82.9075 92.1993 83.1119 92.0168 83.2456 91.7854L83.9586 92.3194C83.7243 92.6815 83.3836 92.9621 82.9833 93.1227C82.583 93.2833 82.1429 93.316 81.7233 93.2163C81.4185 93.1703 81.1265 93.0621 80.8654 92.8983C80.6042 92.7346 80.3796 92.5189 80.2054 92.2647C80.0313 92.0104 79.9113 91.723 79.853 91.4204C79.7947 91.1177 79.7993 90.8064 79.8665 90.5056Z" fill="white"/>
<path d="M85.2129 89.2388L88.1083 89.7801L87.954 90.6053L85.967 90.2338L85.8046 91.1024L87.5419 91.4272L87.3876 92.2524L85.6504 91.9276L85.4575 92.9591L87.4445 93.3306L87.2902 94.1558L84.3948 93.6145L85.2129 89.2388Z" fill="white"/>
</g>
<rect x="24.0019" y="8.08323" width="86.8639" height="86.8639" rx="18.8728" transform="rotate(10.5873 24.0019 8.08323)" stroke="#D5E3A1" stroke-width="5"/>
</g>
<defs>
<filter id="filter0_d_1337_33108" x="0.499156" y="0.539195" width="132.804" height="132.806" filterUnits="userSpaceOnUse" color-interpolation-filters="sRGB">
<feFlood flood-opacity="0" result="BackgroundImageFix"/>
<feColorMatrix in="SourceAlpha" type="matrix" values="0 0 0 0 0 0 0 0 0 0 0 0 0 0 0 0 0 0 127 0" result="hardAlpha"/>
<feOffset dx="8.18639" dy="8.18639"/>
<feGaussianBlur stdDeviation="8.18639"/>
<feComposite in2="hardAlpha" operator="out"/>
<feColorMatrix type="matrix" values="0 0 0 0 0 0 0 0 0 0 0 0 0 0 0 0 0 0 0.25 0"/>
<feBlend mode="normal" in2="BackgroundImageFix" result="effect1_dropShadow_1337_33108"/>
<feBlend mode="normal" in="SourceGraphic" in2="effect1_dropShadow_1337_33108" result="shape"/>
</filter>
<clipPath id="clip0_1337_33108">
<rect x="26" y="11" width="81.8639" height="81.8639" rx="16.3728" transform="rotate(10.5873 26 11)" fill="white"/>
</clipPath>
<clipPath id="clip1_1337_33108">
<rect width="67.8581" height="49.727" fill="white" transform="translate(31.5957 22.8108) rotate(10.59)"/>
</clipPath>
</defs>
</svg>
