<svg width="230" height="169" viewBox="0 0 230 169" fill="none" xmlns="http://www.w3.org/2000/svg">
<rect x="0.212891" width="229.217" height="168.436" rx="6.95968" fill="#F8FAFC"/>
<path d="M13.3982 18.1794H12.5418L14.101 13.7506H15.0914L16.6528 18.1794H15.7964L14.6135 14.6588H14.5789L13.3982 18.1794ZM13.4263 16.4429H15.7618V17.0874H13.4263V16.4429ZM20.6014 15.2449H19.7926C19.7696 15.1122 19.7271 14.9947 19.6651 14.8924C19.6031 14.7886 19.5259 14.7006 19.4337 14.6285C19.3414 14.5565 19.2362 14.5024 19.1179 14.4664C19.0012 14.4289 18.875 14.4101 18.7395 14.4101C18.4987 14.4101 18.2854 14.4707 18.0994 14.5918C17.9134 14.7114 17.7678 14.8873 17.6625 15.1194C17.5573 15.3501 17.5047 15.632 17.5047 15.965C17.5047 16.3038 17.5573 16.5893 17.6625 16.8214C17.7692 17.052 17.9148 17.2265 18.0994 17.3447C18.2854 17.4615 18.498 17.5199 18.7373 17.5199C18.87 17.5199 18.9939 17.5026 19.1093 17.468C19.2261 17.4319 19.3306 17.3793 19.4229 17.3101C19.5166 17.2409 19.5951 17.1558 19.6586 17.0549C19.7234 16.954 19.7681 16.8387 19.7926 16.7089L20.6014 16.7132C20.5712 16.9237 20.5056 17.1212 20.4046 17.3058C20.3052 17.4903 20.1747 17.6532 20.0132 17.7945C19.8518 17.9344 19.6629 18.0439 19.4466 18.1232C19.2304 18.2011 18.9903 18.24 18.7265 18.24C18.3373 18.24 17.9898 18.1499 17.6842 17.9697C17.3785 17.7895 17.1378 17.5292 16.9619 17.189C16.786 16.8488 16.698 16.4408 16.698 15.965C16.698 15.4878 16.7867 15.0798 16.964 14.741C17.1414 14.4008 17.3829 14.1405 17.6885 13.9603C17.9941 13.7801 18.3401 13.69 18.7265 13.69C18.973 13.69 19.2023 13.7246 19.4142 13.7938C19.6261 13.863 19.815 13.9646 19.9808 14.0987C20.1466 14.2314 20.2828 14.3943 20.3895 14.5875C20.4976 14.7792 20.5683 14.9983 20.6014 15.2449ZM24.9096 15.2449H24.1008C24.0778 15.1122 24.0352 14.9947 23.9732 14.8924C23.9112 14.7886 23.8341 14.7006 23.7418 14.6285C23.6496 14.5565 23.5443 14.5024 23.4261 14.4664C23.3093 14.4289 23.1832 14.4101 23.0477 14.4101C22.8069 14.4101 22.5935 14.4707 22.4075 14.5918C22.2216 14.7114 22.076 14.8873 21.9707 15.1194C21.8655 15.3501 21.8129 15.632 21.8129 15.965C21.8129 16.3038 21.8655 16.5893 21.9707 16.8214C22.0774 17.052 22.223 17.2265 22.4075 17.3447C22.5935 17.4615 22.8062 17.5199 23.0455 17.5199C23.1781 17.5199 23.3021 17.5026 23.4175 17.468C23.5342 17.4319 23.6388 17.3793 23.731 17.3101C23.8247 17.2409 23.9033 17.1558 23.9667 17.0549C24.0316 16.954 24.0763 16.8387 24.1008 16.7089L24.9096 16.7132C24.8793 16.9237 24.8137 17.1212 24.7128 17.3058C24.6133 17.4903 24.4829 17.6532 24.3214 17.7945C24.1599 17.9344 23.9711 18.0439 23.7548 18.1232C23.5386 18.2011 23.2985 18.24 23.0347 18.24C22.6454 18.24 22.298 18.1499 21.9923 17.9697C21.6867 17.7895 21.4459 17.5292 21.2701 17.189C21.0942 16.8488 21.0062 16.4408 21.0062 15.965C21.0062 15.4878 21.0949 15.0798 21.2722 14.741C21.4495 14.4008 21.691 14.1405 21.9967 13.9603C22.3023 13.7801 22.6483 13.69 23.0347 13.69C23.2812 13.69 23.5104 13.7246 23.7224 13.7938C23.9343 13.863 24.1232 13.9646 24.289 14.0987C24.4548 14.2314 24.591 14.3943 24.6977 14.5875C24.8058 14.7792 24.8765 14.9983 24.9096 15.2449ZM25.4268 18.1794V13.7506H28.3074V14.4231H26.2292V15.6255H28.1581V16.298H26.2292V17.5069H28.3247V18.1794H25.4268ZM32.5479 13.7506V18.1794H31.8343L29.7475 15.1627H29.7107V18.1794H28.9084V13.7506H29.6264L31.711 16.7695H31.75V13.7506H32.5479ZM33.01 14.4231V13.7506H36.5436V14.4231H35.1747V18.1794H34.3789V14.4231H33.01ZM39.7992 13.7506H40.6015V16.644C40.6015 16.9612 40.5265 17.2402 40.3766 17.4809C40.2281 17.7217 40.019 17.9098 39.7495 18.0454C39.4799 18.1794 39.1648 18.2465 38.8044 18.2465C38.4426 18.2465 38.1268 18.1794 37.8572 18.0454C37.5876 17.9098 37.3786 17.7217 37.2301 17.4809C37.0816 17.2402 37.0073 16.9612 37.0073 16.644V13.7506H37.8097V16.577C37.8097 16.7615 37.85 16.9259 37.9308 17.0701C38.0129 17.2142 38.1283 17.3274 38.2768 17.4096C38.4253 17.4903 38.6011 17.5307 38.8044 17.5307C39.0077 17.5307 39.1836 17.4903 39.3321 17.4096C39.482 17.3274 39.5974 17.2142 39.6781 17.0701C39.7588 16.9259 39.7992 16.7615 39.7992 16.577V13.7506ZM41.256 18.1794V13.7506H42.9169C43.2571 13.7506 43.5426 13.8097 43.7733 13.9279C44.0054 14.0461 44.1805 14.2119 44.2987 14.4253C44.4184 14.6372 44.4782 14.8844 44.4782 15.167C44.4782 15.451 44.4177 15.6976 44.2966 15.9066C44.1769 16.1142 44.0003 16.275 43.7668 16.3889C43.5332 16.5013 43.2463 16.5575 42.9061 16.5575H41.7232V15.8915H42.7979C42.9969 15.8915 43.1598 15.8641 43.2867 15.8093C43.4135 15.7531 43.5073 15.6716 43.5678 15.5649C43.6298 15.4568 43.6608 15.3242 43.6608 15.167C43.6608 15.0099 43.6298 14.8758 43.5678 14.7648C43.5058 14.6523 43.4114 14.5673 43.2845 14.5096C43.1576 14.4505 42.994 14.4209 42.7936 14.4209H42.0584V18.1794H41.256ZM43.544 16.1726L44.6404 18.1794H43.7451L42.6682 16.1726H43.544ZM44.9993 18.1794V13.7506H47.8798V14.4231H45.8016V15.6255H47.7306V16.298H45.8016V17.5069H47.8971V18.1794H44.9993ZM50.3426 18.1794H49.4862L51.0454 13.7506H52.0359L53.5972 18.1794H52.7409L51.5579 14.6588H51.5233L50.3426 18.1794ZM50.3707 16.4429H52.7063V17.0874H50.3707V16.4429ZM57.6026 13.7506V18.1794H56.889L54.8021 15.1627H54.7654V18.1794H53.9631V13.7506H54.681L56.7657 16.7695H56.8047V13.7506H57.6026ZM58.8281 18.1794H57.9717L59.5309 13.7506H60.5214L62.0827 18.1794H61.2264L60.0435 14.6588H60.0089L58.8281 18.1794ZM58.8562 16.4429H61.1918V17.0874H58.8562V16.4429ZM62.4486 18.1794V13.7506H63.2509V17.5069H65.2015V18.1794H62.4486ZM64.9316 13.7506H65.8377L66.9211 15.7098H66.9644L68.0478 13.7506H68.9539L67.3428 16.5273V18.1794H66.5427V16.5273L64.9316 13.7506ZM71.7115 14.9681C71.6914 14.7792 71.6063 14.6322 71.4564 14.5269C71.3079 14.4217 71.1147 14.369 70.8768 14.369C70.7096 14.369 70.5661 14.3943 70.4465 14.4447C70.3268 14.4952 70.2352 14.5637 70.1718 14.6502C70.1084 14.7367 70.0759 14.8354 70.0745 14.9464C70.0745 15.0387 70.0954 15.1187 70.1372 15.1865C70.1805 15.2542 70.2388 15.3119 70.3124 15.3595C70.3859 15.4056 70.4674 15.4445 70.5567 15.4763C70.6461 15.508 70.7362 15.5347 70.8271 15.5563L71.2423 15.6601C71.4095 15.699 71.5703 15.7516 71.7245 15.8179C71.8802 15.8843 72.0193 15.9679 72.1419 16.0688C72.2659 16.1697 72.3639 16.2915 72.436 16.4343C72.5081 16.577 72.5441 16.7442 72.5441 16.936C72.5441 17.1955 72.4778 17.424 72.3452 17.6215C72.2125 17.8176 72.0208 17.9711 71.7699 18.0821C71.5205 18.1917 71.2185 18.2465 70.8638 18.2465C70.5193 18.2465 70.2201 18.1931 69.9664 18.0865C69.7141 17.9798 69.5166 17.8241 69.3738 17.6193C69.2325 17.4146 69.1561 17.1652 69.1446 16.8711H69.9339C69.9455 17.0254 69.993 17.1537 70.0767 17.256C70.1603 17.3584 70.2691 17.4348 70.4032 17.4853C70.5387 17.5357 70.6901 17.561 70.8573 17.561C71.0318 17.561 71.1846 17.535 71.3158 17.4831C71.4484 17.4298 71.5522 17.3562 71.6272 17.2625C71.7022 17.1674 71.7404 17.0564 71.7418 16.9295C71.7404 16.8142 71.7065 16.719 71.6402 16.644C71.5739 16.5676 71.4809 16.5042 71.3612 16.4537C71.243 16.4018 71.1046 16.3557 70.946 16.3153L70.4421 16.1856C70.0774 16.0919 69.789 15.9499 69.5771 15.7596C69.3666 15.5678 69.2614 15.3134 69.2614 14.9962C69.2614 14.7352 69.332 14.5067 69.4733 14.3107C69.616 14.1146 69.8099 13.9625 70.055 13.8544C70.3001 13.7448 70.5776 13.69 70.8876 13.69C71.2019 13.69 71.4773 13.7448 71.7137 13.8544C71.9516 13.9625 72.1383 14.1131 72.2738 14.3063C72.4093 14.4981 72.4792 14.7187 72.4836 14.9681H71.7115ZM73.8442 13.7506V18.1794H73.0419V13.7506H73.8442ZM76.9024 14.9681C76.8822 14.7792 76.7972 14.6322 76.6472 14.5269C76.4987 14.4217 76.3056 14.369 76.0677 14.369C75.9004 14.369 75.757 14.3943 75.6373 14.4447C75.5177 14.4952 75.4261 14.5637 75.3627 14.6502C75.2992 14.7367 75.2668 14.8354 75.2654 14.9464C75.2654 15.0387 75.2863 15.1187 75.3281 15.1865C75.3713 15.2542 75.4297 15.3119 75.5032 15.3595C75.5768 15.4056 75.6582 15.4445 75.7476 15.4763C75.837 15.508 75.9271 15.5347 76.0179 15.5563L76.4331 15.6601C76.6004 15.699 76.7611 15.7516 76.9154 15.8179C77.0711 15.8843 77.2102 15.9679 77.3328 16.0688C77.4567 16.1697 77.5548 16.2915 77.6269 16.4343C77.699 16.577 77.735 16.7442 77.735 16.936C77.735 17.1955 77.6687 17.424 77.536 17.6215C77.4034 17.8176 77.2117 17.9711 76.9608 18.0821C76.7114 18.1917 76.4094 18.2465 76.0547 18.2465C75.7101 18.2465 75.411 18.1931 75.1572 18.0865C74.9049 17.9798 74.7074 17.8241 74.5647 17.6193C74.4234 17.4146 74.347 17.1652 74.3355 16.8711H75.1248C75.1363 17.0254 75.1839 17.1537 75.2675 17.256C75.3512 17.3584 75.46 17.4348 75.5941 17.4853C75.7296 17.5357 75.881 17.561 76.0482 17.561C76.2227 17.561 76.3755 17.535 76.5067 17.4831C76.6393 17.4298 76.7431 17.3562 76.8181 17.2625C76.893 17.1674 76.9312 17.0564 76.9327 16.9295C76.9312 16.8142 76.8974 16.719 76.8311 16.644C76.7647 16.5676 76.6717 16.5042 76.5521 16.4537C76.4339 16.4018 76.2955 16.3557 76.1369 16.3153L75.633 16.1856C75.2683 16.0919 74.9799 15.9499 74.768 15.7596C74.5575 15.5678 74.4523 15.3134 74.4523 14.9962C74.4523 14.7352 74.5229 14.5067 74.6642 14.3107C74.8069 14.1146 75.0008 13.9625 75.2459 13.8544C75.491 13.7448 75.7685 13.69 76.0785 13.69C76.3928 13.69 76.6681 13.7448 76.9046 13.8544C77.1425 13.9625 77.3292 14.1131 77.4647 14.3063C77.6002 14.4981 77.6701 14.7187 77.6744 14.9681H76.9024Z" fill="#7A7A7A"/>
<path d="M19.6142 37.6224V52.8071H17.3158V39.9208H17.2268L13.5937 42.2935V40.0988L17.3825 37.6224H19.6142ZM22.8519 52.8071V51.1463L27.9901 45.8227C28.5387 45.2444 28.991 44.7378 29.3469 44.3028C29.7078 43.8628 29.9771 43.4452 30.1551 43.0497C30.333 42.6543 30.422 42.2341 30.422 41.7893C30.422 41.2851 30.3034 40.8501 30.0661 40.4843C29.8289 40.1136 29.5051 39.8294 29.0948 39.6317C28.6846 39.429 28.2224 39.3277 27.7083 39.3277C27.1646 39.3277 26.6901 39.4389 26.2848 39.6613C25.8794 39.8838 25.568 40.1976 25.3505 40.603C25.133 41.0083 25.0243 41.4828 25.0243 42.0265H22.837C22.837 41.1022 23.0496 40.294 23.4747 39.602C23.8998 38.91 24.4831 38.3737 25.2245 37.9931C25.9659 37.6075 26.8087 37.4148 27.7528 37.4148C28.7068 37.4148 29.5471 37.6051 30.2737 37.9857C31.0053 38.3613 31.5762 38.8754 31.9865 39.5279C32.3967 40.1754 32.6019 40.907 32.6019 41.7225C32.6019 42.286 32.4956 42.8372 32.283 43.376C32.0754 43.9147 31.7121 44.5153 31.1931 45.1777C30.6741 45.8351 29.9524 46.6334 29.0281 47.5725L26.0104 50.7311V50.8423H32.8465V52.8071H22.8519ZM37.7005 50.7311L37.5893 51.5393C37.5152 52.1324 37.3891 52.7503 37.2112 53.3929C37.0382 54.0404 36.8577 54.641 36.6699 55.1946C36.487 55.7482 36.3363 56.1881 36.2176 56.5143H34.6458C34.71 56.2079 34.799 55.7927 34.9127 55.2687C35.0264 54.7497 35.1376 54.1689 35.2463 53.5263C35.3551 52.8837 35.4366 52.2288 35.491 51.5615L35.5652 50.7311H37.7005ZM44.6676 53.0147C43.6494 53.0147 42.7399 52.8393 41.9391 52.4883C41.1433 52.1374 40.5131 51.6505 40.0484 51.0277C39.5887 50.3999 39.3416 49.6733 39.307 48.8478H41.6351C41.6648 49.2976 41.8155 49.6881 42.0874 50.0193C42.3642 50.3455 42.725 50.5976 43.1699 50.7756C43.6148 50.9535 44.1091 51.0425 44.6528 51.0425C45.2509 51.0425 45.7798 50.9387 46.2395 50.7311C46.7041 50.5235 47.0674 50.2343 47.3294 49.8636C47.5914 49.4879 47.7224 49.0554 47.7224 48.5661C47.7224 48.0569 47.5914 47.6096 47.3294 47.2241C47.0724 46.8336 46.6942 46.5271 46.195 46.3047C45.7007 46.0822 45.1026 45.971 44.4007 45.971H43.118V44.1026H44.4007C44.9642 44.1026 45.4585 44.0013 45.8836 43.7986C46.3136 43.5959 46.6497 43.3142 46.8919 42.9533C47.1342 42.5876 47.2553 42.16 47.2553 41.6706C47.2553 41.2011 47.149 40.7933 46.9364 40.4473C46.7288 40.0963 46.4323 39.822 46.0467 39.6243C45.6661 39.4265 45.2163 39.3277 44.6973 39.3277C44.203 39.3277 43.7408 39.4191 43.3108 39.602C42.8857 39.78 42.5397 40.037 42.2728 40.3731C42.0058 40.7043 41.8625 41.1022 41.8427 41.5668H39.6258C39.6505 40.7463 39.8927 40.0246 40.3524 39.4018C40.8171 38.779 41.43 38.2921 42.1912 37.9412C42.9524 37.5902 43.7977 37.4148 44.7269 37.4148C45.7007 37.4148 46.541 37.6051 47.2478 37.9857C47.9596 38.3613 48.5083 38.863 48.8938 39.4908C49.2843 40.1186 49.4771 40.8056 49.4722 41.552C49.4771 42.4022 49.2399 43.1239 48.7604 43.717C48.2859 44.3102 47.6532 44.7081 46.8623 44.9108V45.0294C47.8707 45.1826 48.6516 45.583 49.2052 46.2305C49.7638 46.8781 50.0406 47.6813 50.0357 48.6402C50.0406 49.4756 49.8083 50.2244 49.3387 50.8868C48.8741 51.5491 48.2389 52.0706 47.4332 52.4512C46.6275 52.8269 45.7056 53.0147 44.6676 53.0147ZM52.176 52.8071V37.6224H54.467V44.8737H54.6524L61.0214 37.6224H63.9056L57.7813 44.4585L63.9278 52.8071H61.1697L56.2613 46.0229L54.467 48.0841V52.8071H52.176Z" fill="#242424"/>
<g clip-path="url(#clip0_937_7370)">
<rect x="12.3926" y="70.9866" width="11.3095" height="47.8478" rx="1.73992" fill="#EAEAEA"/>
<mask id="mask0_937_7370" style="mask-type:alpha" maskUnits="userSpaceOnUse" x="12" y="70" width="12" height="49">
<rect x="12.3926" y="70.9866" width="11.3095" height="47.8478" rx="1.73992" fill="#D9D9D9"/>
</mask>
<g mask="url(#mask0_937_7370)">
<path d="M12.3927 14.0803L12.3927 175.023" stroke="#F2F2F2" stroke-width="0.65247"/>
<path d="M13.6979 14.0803L13.6979 175.023" stroke="#F2F2F2" stroke-width="0.65247"/>
<path d="M15.0026 14.0803L15.0026 175.023" stroke="#F2F2F2" stroke-width="0.65247"/>
<path d="M16.3078 14.0803L16.3078 175.023" stroke="#F2F2F2" stroke-width="0.65247"/>
<path d="M17.6125 14.0803L17.6125 175.023" stroke="#F2F2F2" stroke-width="0.65247"/>
<path d="M18.9176 14.0803L18.9176 175.023" stroke="#F2F2F2" stroke-width="0.65247"/>
<path d="M20.2223 14.0803L20.2223 175.023" stroke="#F2F2F2" stroke-width="0.65247"/>
<path d="M21.5275 14.0803L21.5275 175.023" stroke="#F2F2F2" stroke-width="0.65247"/>
<path d="M22.8322 14.0803L22.8322 175.023" stroke="#F2F2F2" stroke-width="0.65247"/>
</g>
<path d="M12.3926 94.9103C12.3926 93.9494 13.1716 93.1704 14.1325 93.1704H21.9621C22.9231 93.1704 23.7021 93.9494 23.7021 94.9103V99.2601H12.3926V94.9103Z" fill="white"/>
</g>
<rect x="12.3926" y="94.9109" width="11.3095" height="18.7042" rx="1.73992" fill="#B6B0FB"/>
<mask id="mask1_937_7370" style="mask-type:alpha" maskUnits="userSpaceOnUse" x="12" y="94" width="12" height="20">
<rect x="12.3926" y="94.9109" width="11.3095" height="18.7042" rx="1.73992" fill="#D9D9D9"/>
</mask>
<g mask="url(#mask1_937_7370)">
<path d="M12.3927 23.0046L12.3927 183.947" stroke="#978FED" stroke-width="0.65247"/>
<path d="M13.6979 23.0046L13.6979 183.947" stroke="#978FED" stroke-width="0.65247"/>
<path d="M15.0026 23.0046L15.0026 183.947" stroke="#978FED" stroke-width="0.65247"/>
<path d="M16.3078 23.0046L16.3078 183.947" stroke="#978FED" stroke-width="0.65247"/>
<path d="M17.6125 23.0046L17.6125 183.947" stroke="#978FED" stroke-width="0.65247"/>
<path d="M18.9176 23.0046L18.9176 183.947" stroke="#978FED" stroke-width="0.65247"/>
<path d="M20.2223 23.0046L20.2223 183.947" stroke="#978FED" stroke-width="0.65247"/>
<path d="M21.5275 23.0046L21.5275 183.947" stroke="#978FED" stroke-width="0.65247"/>
<path d="M22.8322 23.0046L22.8322 183.947" stroke="#978FED" stroke-width="0.65247"/>
</g>
<rect x="12.3926" y="109.662" width="11.3095" height="17.14" rx="1.73992" fill="#F7AAED"/>
<mask id="mask2_937_7370" style="mask-type:alpha" maskUnits="userSpaceOnUse" x="12" y="109" width="12" height="18">
<rect x="12.3926" y="109.662" width="11.3095" height="17.14" rx="1.73992" fill="#D9D9D9"/>
</mask>
<g mask="url(#mask2_937_7370)">
<path d="M12.3927 37.7554L12.3927 198.698" stroke="#EE89DF" stroke-width="0.65247"/>
<path d="M13.6979 37.7554L13.6979 198.698" stroke="#EE89DF" stroke-width="0.65247"/>
<path d="M15.0026 37.7554L15.0026 198.698" stroke="#EE89DF" stroke-width="0.65247"/>
<path d="M16.3078 37.7554L16.3078 198.698" stroke="#EE89DF" stroke-width="0.65247"/>
<path d="M17.6125 37.7554L17.6125 198.698" stroke="#EE89DF" stroke-width="0.65247"/>
<path d="M18.9176 37.7554L18.9176 198.698" stroke="#EE89DF" stroke-width="0.65247"/>
<path d="M20.2223 37.7554L20.2223 198.698" stroke="#EE89DF" stroke-width="0.65247"/>
<path d="M21.5275 37.7554L21.5275 198.698" stroke="#EE89DF" stroke-width="0.65247"/>
<path d="M22.8322 37.7554L22.8322 198.698" stroke="#EE89DF" stroke-width="0.65247"/>
</g>
<rect x="12.3926" y="123.725" width="11.3095" height="32.0826" rx="1.73992" fill="#FBDE9D"/>
<mask id="mask3_937_7370" style="mask-type:alpha" maskUnits="userSpaceOnUse" x="12" y="123" width="12" height="33">
<rect x="12.3926" y="123.725" width="11.3095" height="32.0826" rx="1.73992" fill="#D9D9D9"/>
</mask>
<g mask="url(#mask3_937_7370)">
<path d="M12.3927 58.8188L12.3927 219.762" stroke="#F6CF7D" stroke-width="0.65247"/>
<path d="M13.6979 58.8188L13.6979 219.762" stroke="#F6CF7D" stroke-width="0.65247"/>
<path d="M15.0026 58.8188L15.0026 219.762" stroke="#F6CF7D" stroke-width="0.65247"/>
<path d="M16.3078 58.8188L16.3078 219.762" stroke="#F6CF7D" stroke-width="0.65247"/>
<path d="M17.6125 58.8188L17.6125 219.762" stroke="#F6CF7D" stroke-width="0.65247"/>
<path d="M18.9176 58.8188L18.9176 219.762" stroke="#F6CF7D" stroke-width="0.65247"/>
<path d="M20.2223 58.8188L20.2223 219.762" stroke="#F6CF7D" stroke-width="0.65247"/>
<path d="M21.5275 58.8188L21.5275 219.762" stroke="#F6CF7D" stroke-width="0.65247"/>
<path d="M22.8322 58.8188L22.8322 219.762" stroke="#F6CF7D" stroke-width="0.65247"/>
</g>
<g clip-path="url(#clip1_937_7370)">
<rect x="36.7515" y="70.9866" width="11.3095" height="47.8478" rx="1.73992" fill="#F2F2F2"/>
<mask id="mask4_937_7370" style="mask-type:alpha" maskUnits="userSpaceOnUse" x="36" y="70" width="13" height="49">
<rect x="36.7515" y="70.9866" width="11.3095" height="47.8478" rx="1.73992" fill="#D9D9D9"/>
</mask>
<g mask="url(#mask4_937_7370)">
<path d="M36.7516 14.0803L36.7516 175.023" stroke="#EAEAEA" stroke-width="0.65247"/>
<path d="M38.0568 14.0803L38.0568 175.023" stroke="#EAEAEA" stroke-width="0.65247"/>
<path d="M39.3615 14.0803L39.3615 175.023" stroke="#EAEAEA" stroke-width="0.65247"/>
<path d="M40.6667 14.0803L40.6667 175.023" stroke="#EAEAEA" stroke-width="0.65247"/>
<path d="M41.9713 14.0803L41.9713 175.023" stroke="#EAEAEA" stroke-width="0.65247"/>
<path d="M43.2765 14.0803L43.2765 175.023" stroke="#EAEAEA" stroke-width="0.65247"/>
<path d="M44.5812 14.0803L44.5812 175.023" stroke="#EAEAEA" stroke-width="0.65247"/>
<path d="M45.8864 14.0803L45.8864 175.023" stroke="#EAEAEA" stroke-width="0.65247"/>
<path d="M47.1911 14.0803L47.1911 175.023" stroke="#EAEAEA" stroke-width="0.65247"/>
</g>
<path d="M36.7515 81.8608C36.7515 80.8998 37.5305 80.1208 38.4914 80.1208H46.321C47.282 80.1208 48.061 80.8998 48.061 81.8608V84.4707H36.7515V81.8608Z" fill="white"/>
</g>
<rect x="36.7515" y="81.8611" width="11.3095" height="10.4395" rx="1.73992" fill="#B6B0FB"/>
<mask id="mask5_937_7370" style="mask-type:alpha" maskUnits="userSpaceOnUse" x="36" y="81" width="13" height="12">
<rect x="36.7515" y="81.8611" width="11.3095" height="10.4395" rx="1.73992" fill="#D9D9D9"/>
</mask>
<g mask="url(#mask5_937_7370)">
<path d="M36.7516 5.95483L36.7516 166.898" stroke="#978FED" stroke-width="0.65247"/>
<path d="M38.0568 5.95483L38.0568 166.898" stroke="#978FED" stroke-width="0.65247"/>
<path d="M39.3615 5.95483L39.3615 166.898" stroke="#978FED" stroke-width="0.65247"/>
<path d="M40.6667 5.95483L40.6667 166.898" stroke="#978FED" stroke-width="0.65247"/>
<path d="M41.9713 5.95483L41.9713 166.898" stroke="#978FED" stroke-width="0.65247"/>
<path d="M43.2765 5.95483L43.2765 166.898" stroke="#978FED" stroke-width="0.65247"/>
<path d="M44.5812 5.95483L44.5812 166.898" stroke="#978FED" stroke-width="0.65247"/>
<path d="M45.8864 5.95483L45.8864 166.898" stroke="#978FED" stroke-width="0.65247"/>
<path d="M47.1911 5.95483L47.1911 166.898" stroke="#978FED" stroke-width="0.65247"/>
</g>
<rect x="36.7515" y="89.5413" width="11.3095" height="60.9652" rx="1.73992" fill="#F7AAED"/>
<mask id="mask6_937_7370" style="mask-type:alpha" maskUnits="userSpaceOnUse" x="36" y="89" width="13" height="62">
<rect x="36.7515" y="89.5413" width="11.3095" height="60.9652" rx="1.73992" fill="#D9D9D9"/>
</mask>
<g mask="url(#mask6_937_7370)">
<path d="M36.7516 38.635L36.7516 199.578" stroke="#EE89DF" stroke-width="0.65247"/>
<path d="M38.0568 38.635L38.0568 199.578" stroke="#EE89DF" stroke-width="0.65247"/>
<path d="M39.3615 38.635L39.3615 199.578" stroke="#EE89DF" stroke-width="0.65247"/>
<path d="M40.6667 38.635L40.6667 199.578" stroke="#EE89DF" stroke-width="0.65247"/>
<path d="M41.9713 38.635L41.9713 199.578" stroke="#EE89DF" stroke-width="0.65247"/>
<path d="M43.2765 38.635L43.2765 199.578" stroke="#EE89DF" stroke-width="0.65247"/>
<path d="M44.5812 38.635L44.5812 199.578" stroke="#EE89DF" stroke-width="0.65247"/>
<path d="M45.8864 38.635L45.8864 199.578" stroke="#EE89DF" stroke-width="0.65247"/>
<path d="M47.1911 38.635L47.1911 199.578" stroke="#EE89DF" stroke-width="0.65247"/>
</g>
<rect x="36.7515" y="140.346" width="11.3095" height="15.4622" rx="1.73992" fill="#FBDE9D"/>
<mask id="mask7_937_7370" style="mask-type:alpha" maskUnits="userSpaceOnUse" x="36" y="140" width="13" height="16">
<rect x="36.7515" y="140.346" width="11.3095" height="15.4622" rx="1.73992" fill="#D9D9D9"/>
</mask>
<g mask="url(#mask7_937_7370)">
<path d="M36.7516 67.4395L36.7516 228.382" stroke="#F6CF7D" stroke-width="0.65247"/>
<path d="M38.0568 67.4395L38.0568 228.382" stroke="#F6CF7D" stroke-width="0.65247"/>
<path d="M39.3615 67.4395L39.3615 228.382" stroke="#F6CF7D" stroke-width="0.65247"/>
<path d="M40.6667 67.4395L40.6667 228.382" stroke="#F6CF7D" stroke-width="0.65247"/>
<path d="M41.9713 67.4395L41.9713 228.382" stroke="#F6CF7D" stroke-width="0.65247"/>
<path d="M43.2765 67.4395L43.2765 228.382" stroke="#F6CF7D" stroke-width="0.65247"/>
<path d="M44.5812 67.4395L44.5812 228.382" stroke="#F6CF7D" stroke-width="0.65247"/>
<path d="M45.8864 67.4395L45.8864 228.382" stroke="#F6CF7D" stroke-width="0.65247"/>
<path d="M47.1911 67.4395L47.1911 228.382" stroke="#F6CF7D" stroke-width="0.65247"/>
</g>
<g clip-path="url(#clip2_937_7370)">
<rect x="61.1104" y="70.9868" width="11.3095" height="47.8478" rx="1.73992" fill="#F2F2F2"/>
<mask id="mask8_937_7370" style="mask-type:alpha" maskUnits="userSpaceOnUse" x="61" y="70" width="12" height="49">
<rect x="61.1104" y="70.9868" width="11.3095" height="47.8478" rx="1.73992" fill="#D9D9D9"/>
</mask>
<g mask="url(#mask8_937_7370)">
<path d="M61.1105 14.0803L61.1105 175.023" stroke="#EAEAEA" stroke-width="0.65247"/>
<path d="M62.4157 14.0803L62.4157 175.023" stroke="#EAEAEA" stroke-width="0.65247"/>
<path d="M63.7204 14.0803L63.7204 175.023" stroke="#EAEAEA" stroke-width="0.65247"/>
<path d="M65.0255 14.0803L65.0255 175.023" stroke="#EAEAEA" stroke-width="0.65247"/>
<path d="M66.3302 14.0803L66.3302 175.023" stroke="#EAEAEA" stroke-width="0.65247"/>
<path d="M67.6354 14.0803L67.6354 175.023" stroke="#EAEAEA" stroke-width="0.65247"/>
<path d="M68.9401 14.0803L68.9401 175.023" stroke="#EAEAEA" stroke-width="0.65247"/>
<path d="M70.2453 14.0803L70.2453 175.023" stroke="#EAEAEA" stroke-width="0.65247"/>
<path d="M71.55 14.0803L71.55 175.023" stroke="#EAEAEA" stroke-width="0.65247"/>
</g>
<path d="M61.1104 90.5615C61.1104 89.6005 61.8893 88.8215 62.8503 88.8215H70.6799C71.6408 88.8215 72.4198 89.6005 72.4198 90.5615V93.1713H61.1104V90.5615Z" fill="white"/>
</g>
<rect x="61.1104" y="90.5613" width="11.3095" height="12.1794" rx="1.73992" fill="#B6B0FB"/>
<mask id="mask9_937_7370" style="mask-type:alpha" maskUnits="userSpaceOnUse" x="61" y="90" width="12" height="13">
<rect x="61.1104" y="90.5613" width="11.3095" height="12.1794" rx="1.73992" fill="#D9D9D9"/>
</mask>
<g mask="url(#mask9_937_7370)">
<path d="M61.1105 15.655L61.1105 176.598" stroke="#978FED" stroke-width="0.65247"/>
<path d="M62.4157 15.655L62.4157 176.598" stroke="#978FED" stroke-width="0.65247"/>
<path d="M63.7204 15.655L63.7204 176.598" stroke="#978FED" stroke-width="0.65247"/>
<path d="M65.0255 15.655L65.0255 176.598" stroke="#978FED" stroke-width="0.65247"/>
<path d="M66.3302 15.655L66.3302 176.598" stroke="#978FED" stroke-width="0.65247"/>
<path d="M67.6354 15.655L67.6354 176.598" stroke="#978FED" stroke-width="0.65247"/>
<path d="M68.9401 15.655L68.9401 176.598" stroke="#978FED" stroke-width="0.65247"/>
<path d="M70.2453 15.655L70.2453 176.598" stroke="#978FED" stroke-width="0.65247"/>
<path d="M71.55 15.655L71.55 176.598" stroke="#978FED" stroke-width="0.65247"/>
</g>
<rect x="61.1104" y="99.2605" width="11.3095" height="51.2461" rx="1.73992" fill="#F7AAED"/>
<mask id="mask10_937_7370" style="mask-type:alpha" maskUnits="userSpaceOnUse" x="61" y="99" width="12" height="52">
<rect x="61.1104" y="99.2605" width="11.3095" height="51.2461" rx="1.73992" fill="#D9D9D9"/>
</mask>
<g mask="url(#mask10_937_7370)">
<path d="M61.1105 44.354L61.1105 205.297" stroke="#EE89DF" stroke-width="0.65247"/>
<path d="M62.4157 44.354L62.4157 205.297" stroke="#EE89DF" stroke-width="0.65247"/>
<path d="M63.7204 44.354L63.7204 205.297" stroke="#EE89DF" stroke-width="0.65247"/>
<path d="M65.0255 44.354L65.0255 205.297" stroke="#EE89DF" stroke-width="0.65247"/>
<path d="M66.3302 44.354L66.3302 205.297" stroke="#EE89DF" stroke-width="0.65247"/>
<path d="M67.6354 44.354L67.6354 205.297" stroke="#EE89DF" stroke-width="0.65247"/>
<path d="M68.9401 44.354L68.9401 205.297" stroke="#EE89DF" stroke-width="0.65247"/>
<path d="M70.2453 44.354L70.2453 205.297" stroke="#EE89DF" stroke-width="0.65247"/>
<path d="M71.55 44.354L71.55 205.297" stroke="#EE89DF" stroke-width="0.65247"/>
</g>
<rect x="61.1104" y="105.003" width="11.3095" height="50.8043" rx="1.73992" fill="#FBDE9D"/>
<mask id="mask11_937_7370" style="mask-type:alpha" maskUnits="userSpaceOnUse" x="61" y="105" width="12" height="51">
<rect x="61.1104" y="105.003" width="11.3095" height="50.8043" rx="1.73992" fill="#D9D9D9"/>
</mask>
<g mask="url(#mask11_937_7370)">
<path d="M61.1105 49.0972L61.1105 210.04" stroke="#F6CF7D" stroke-width="0.65247"/>
<path d="M62.4157 49.0972L62.4157 210.04" stroke="#F6CF7D" stroke-width="0.65247"/>
<path d="M63.7204 49.0972L63.7204 210.04" stroke="#F6CF7D" stroke-width="0.65247"/>
<path d="M65.0255 49.0972L65.0255 210.04" stroke="#F6CF7D" stroke-width="0.65247"/>
<path d="M66.3302 49.0972L66.3302 210.04" stroke="#F6CF7D" stroke-width="0.65247"/>
<path d="M67.6354 49.0972L67.6354 210.04" stroke="#F6CF7D" stroke-width="0.65247"/>
<path d="M68.9401 49.0972L68.9401 210.04" stroke="#F6CF7D" stroke-width="0.65247"/>
<path d="M70.2453 49.0972L70.2453 210.04" stroke="#F6CF7D" stroke-width="0.65247"/>
<path d="M71.55 49.0972L71.55 210.04" stroke="#F6CF7D" stroke-width="0.65247"/>
</g>
<g clip-path="url(#clip3_937_7370)">
<rect x="85.4692" y="70.9866" width="11.3095" height="47.8478" rx="1.73992" fill="#F2F2F2"/>
<mask id="mask12_937_7370" style="mask-type:alpha" maskUnits="userSpaceOnUse" x="85" y="70" width="12" height="49">
<rect x="85.4692" y="70.9866" width="11.3095" height="47.8478" rx="1.73992" fill="#D9D9D9"/>
</mask>
<g mask="url(#mask12_937_7370)">
<path d="M85.4694 14.0803L85.4694 175.023" stroke="#EAEAEA" stroke-width="0.65247"/>
<path d="M86.7746 14.0803L86.7746 175.023" stroke="#EAEAEA" stroke-width="0.65247"/>
<path d="M88.0793 14.0803L88.0793 175.023" stroke="#EAEAEA" stroke-width="0.65247"/>
<path d="M89.3844 14.0803L89.3844 175.023" stroke="#EAEAEA" stroke-width="0.65247"/>
<path d="M90.6891 14.0803L90.6891 175.023" stroke="#EAEAEA" stroke-width="0.65247"/>
<path d="M91.9943 14.0803L91.9943 175.023" stroke="#EAEAEA" stroke-width="0.65247"/>
<path d="M93.299 14.0803L93.299 175.023" stroke="#EAEAEA" stroke-width="0.65247"/>
<path d="M94.6042 14.0803L94.6042 175.023" stroke="#EAEAEA" stroke-width="0.65247"/>
<path d="M95.9088 14.0803L95.9088 175.023" stroke="#EAEAEA" stroke-width="0.65247"/>
</g>
<path d="M85.4692 110.135C85.4692 109.174 86.2482 108.395 87.2092 108.395H95.0388C95.9997 108.395 96.7787 109.174 96.7787 110.135V112.745H85.4692V110.135Z" fill="white"/>
</g>
<rect x="85.4692" y="110.135" width="11.3095" height="28.2737" rx="1.73992" fill="#B6B0FB"/>
<mask id="mask13_937_7370" style="mask-type:alpha" maskUnits="userSpaceOnUse" x="85" y="110" width="12" height="29">
<rect x="85.4692" y="110.135" width="11.3095" height="28.2737" rx="1.73992" fill="#D9D9D9"/>
</mask>
<g mask="url(#mask13_937_7370)">
<path d="M85.4694 43.2285L85.4694 204.171" stroke="#978FED" stroke-width="0.65247"/>
<path d="M86.7746 43.2285L86.7746 204.171" stroke="#978FED" stroke-width="0.65247"/>
<path d="M88.0793 43.2285L88.0793 204.171" stroke="#978FED" stroke-width="0.65247"/>
<path d="M89.3844 43.2285L89.3844 204.171" stroke="#978FED" stroke-width="0.65247"/>
<path d="M90.6891 43.2285L90.6891 204.171" stroke="#978FED" stroke-width="0.65247"/>
<path d="M91.9943 43.2285L91.9943 204.171" stroke="#978FED" stroke-width="0.65247"/>
<path d="M93.299 43.2285L93.299 204.171" stroke="#978FED" stroke-width="0.65247"/>
<path d="M94.6042 43.2285L94.6042 204.171" stroke="#978FED" stroke-width="0.65247"/>
<path d="M95.9088 43.2285L95.9088 204.171" stroke="#978FED" stroke-width="0.65247"/>
</g>
<rect x="85.4692" y="133.277" width="11.3095" height="17.2293" rx="1.73992" fill="#F7AAED"/>
<mask id="mask14_937_7370" style="mask-type:alpha" maskUnits="userSpaceOnUse" x="85" y="133" width="12" height="18">
<rect x="85.4692" y="133.277" width="11.3095" height="17.2293" rx="1.73992" fill="#D9D9D9"/>
</mask>
<g mask="url(#mask14_937_7370)">
<path d="M85.4694 61.3711L85.4694 222.314" stroke="#EE89DF" stroke-width="0.65247"/>
<path d="M86.7746 61.3711L86.7746 222.314" stroke="#EE89DF" stroke-width="0.65247"/>
<path d="M88.0793 61.3711L88.0793 222.314" stroke="#EE89DF" stroke-width="0.65247"/>
<path d="M89.3844 61.3711L89.3844 222.314" stroke="#EE89DF" stroke-width="0.65247"/>
<path d="M90.6891 61.3711L90.6891 222.314" stroke="#EE89DF" stroke-width="0.65247"/>
<path d="M91.9943 61.3711L91.9943 222.314" stroke="#EE89DF" stroke-width="0.65247"/>
<path d="M93.299 61.3711L93.299 222.314" stroke="#EE89DF" stroke-width="0.65247"/>
<path d="M94.6042 61.3711L94.6042 222.314" stroke="#EE89DF" stroke-width="0.65247"/>
<path d="M95.9088 61.3711L95.9088 222.314" stroke="#EE89DF" stroke-width="0.65247"/>
</g>
<rect x="85.4692" y="142.996" width="11.3095" height="12.8115" rx="1.73992" fill="#FBDE9D"/>
<mask id="mask15_937_7370" style="mask-type:alpha" maskUnits="userSpaceOnUse" x="85" y="142" width="12" height="14">
<rect x="85.4692" y="142.996" width="11.3095" height="12.8115" rx="1.73992" fill="#D9D9D9"/>
</mask>
<g mask="url(#mask15_937_7370)">
<path d="M85.4694 68.0901L85.4694 229.033" stroke="#F6CF7D" stroke-width="0.65247"/>
<path d="M86.7746 68.0901L86.7746 229.033" stroke="#F6CF7D" stroke-width="0.65247"/>
<path d="M88.0793 68.0901L88.0793 229.033" stroke="#F6CF7D" stroke-width="0.65247"/>
<path d="M89.3844 68.0901L89.3844 229.033" stroke="#F6CF7D" stroke-width="0.65247"/>
<path d="M90.6891 68.0901L90.6891 229.033" stroke="#F6CF7D" stroke-width="0.65247"/>
<path d="M91.9943 68.0901L91.9943 229.033" stroke="#F6CF7D" stroke-width="0.65247"/>
<path d="M93.299 68.0901L93.299 229.033" stroke="#F6CF7D" stroke-width="0.65247"/>
<path d="M94.6042 68.0901L94.6042 229.033" stroke="#F6CF7D" stroke-width="0.65247"/>
<path d="M95.9088 68.0901L95.9088 229.033" stroke="#F6CF7D" stroke-width="0.65247"/>
</g>
<g clip-path="url(#clip4_937_7370)">
<rect x="109.828" y="70.9866" width="11.3095" height="47.8478" rx="1.73992" fill="#F2F2F2"/>
<mask id="mask16_937_7370" style="mask-type:alpha" maskUnits="userSpaceOnUse" x="109" y="70" width="13" height="49">
<rect x="109.828" y="70.9866" width="11.3095" height="47.8478" rx="1.73992" fill="#D9D9D9"/>
</mask>
<g mask="url(#mask16_937_7370)">
<path d="M109.828 14.0803L109.828 175.023" stroke="#EAEAEA" stroke-width="0.65247"/>
<path d="M111.133 14.0803L111.133 175.023" stroke="#EAEAEA" stroke-width="0.65247"/>
<path d="M112.438 14.0803L112.438 175.023" stroke="#EAEAEA" stroke-width="0.65247"/>
<path d="M113.743 14.0803L113.743 175.023" stroke="#EAEAEA" stroke-width="0.65247"/>
<path d="M115.048 14.0803L115.048 175.023" stroke="#EAEAEA" stroke-width="0.65247"/>
<path d="M116.353 14.0803L116.353 175.023" stroke="#EAEAEA" stroke-width="0.65247"/>
<path d="M117.658 14.0803L117.658 175.023" stroke="#EAEAEA" stroke-width="0.65247"/>
<path d="M118.963 14.0803L118.963 175.023" stroke="#EAEAEA" stroke-width="0.65247"/>
<path d="M120.268 14.0803L120.268 175.023" stroke="#EAEAEA" stroke-width="0.65247"/>
</g>
<path d="M109.828 76.6415C109.828 75.6806 110.607 74.9016 111.568 74.9016H119.398C120.359 74.9016 121.138 75.6806 121.138 76.6415V79.2514H109.828V76.6415Z" fill="white"/>
</g>
<rect x="109.828" y="76.6414" width="11.3095" height="43.933" rx="1.73992" fill="#B6B0FB"/>
<mask id="mask17_937_7370" style="mask-type:alpha" maskUnits="userSpaceOnUse" x="109" y="76" width="13" height="45">
<rect x="109.828" y="76.6414" width="11.3095" height="43.933" rx="1.73992" fill="#D9D9D9"/>
</mask>
<g mask="url(#mask17_937_7370)">
<path d="M109.828 17.7351L109.828 178.678" stroke="#978FED" stroke-width="0.65247"/>
<path d="M111.133 17.7351L111.133 178.678" stroke="#978FED" stroke-width="0.65247"/>
<path d="M112.438 17.7351L112.438 178.678" stroke="#978FED" stroke-width="0.65247"/>
<path d="M113.743 17.7351L113.743 178.678" stroke="#978FED" stroke-width="0.65247"/>
<path d="M115.048 17.7351L115.048 178.678" stroke="#978FED" stroke-width="0.65247"/>
<path d="M116.353 17.7351L116.353 178.678" stroke="#978FED" stroke-width="0.65247"/>
<path d="M117.658 17.7351L117.658 178.678" stroke="#978FED" stroke-width="0.65247"/>
<path d="M118.963 17.7351L118.963 178.678" stroke="#978FED" stroke-width="0.65247"/>
<path d="M120.268 17.7351L120.268 178.678" stroke="#978FED" stroke-width="0.65247"/>
</g>
<rect x="109.828" y="109.863" width="11.3095" height="40.6435" rx="1.73992" fill="#F7AAED"/>
<mask id="mask18_937_7370" style="mask-type:alpha" maskUnits="userSpaceOnUse" x="109" y="109" width="13" height="42">
<rect x="109.828" y="109.863" width="11.3095" height="40.6435" rx="1.73992" fill="#D9D9D9"/>
</mask>
<g mask="url(#mask18_937_7370)">
<path d="M109.828 48.9565L109.828 209.899" stroke="#EE89DF" stroke-width="0.65247"/>
<path d="M111.133 48.9565L111.133 209.899" stroke="#EE89DF" stroke-width="0.65247"/>
<path d="M112.438 48.9565L112.438 209.899" stroke="#EE89DF" stroke-width="0.65247"/>
<path d="M113.743 48.9565L113.743 209.899" stroke="#EE89DF" stroke-width="0.65247"/>
<path d="M115.048 48.9565L115.048 209.899" stroke="#EE89DF" stroke-width="0.65247"/>
<path d="M116.353 48.9565L116.353 209.899" stroke="#EE89DF" stroke-width="0.65247"/>
<path d="M117.658 48.9565L117.658 209.899" stroke="#EE89DF" stroke-width="0.65247"/>
<path d="M118.963 48.9565L118.963 209.899" stroke="#EE89DF" stroke-width="0.65247"/>
<path d="M120.268 48.9565L120.268 209.899" stroke="#EE89DF" stroke-width="0.65247"/>
</g>
<rect x="109.828" y="123.558" width="11.3095" height="32.2497" rx="1.73992" fill="#FBDE9D"/>
<mask id="mask19_937_7370" style="mask-type:alpha" maskUnits="userSpaceOnUse" x="109" y="123" width="13" height="33">
<rect x="109.828" y="123.558" width="11.3095" height="32.2497" rx="1.73992" fill="#D9D9D9"/>
</mask>
<g mask="url(#mask19_937_7370)">
<path d="M109.828 58.6519L109.828 219.595" stroke="#F6CF7D" stroke-width="0.65247"/>
<path d="M111.133 58.6519L111.133 219.595" stroke="#F6CF7D" stroke-width="0.65247"/>
<path d="M112.438 58.6519L112.438 219.595" stroke="#F6CF7D" stroke-width="0.65247"/>
<path d="M113.743 58.6519L113.743 219.595" stroke="#F6CF7D" stroke-width="0.65247"/>
<path d="M115.048 58.6519L115.048 219.595" stroke="#F6CF7D" stroke-width="0.65247"/>
<path d="M116.353 58.6519L116.353 219.595" stroke="#F6CF7D" stroke-width="0.65247"/>
<path d="M117.658 58.6519L117.658 219.595" stroke="#F6CF7D" stroke-width="0.65247"/>
<path d="M118.963 58.6519L118.963 219.595" stroke="#F6CF7D" stroke-width="0.65247"/>
<path d="M120.268 58.6519L120.268 219.595" stroke="#F6CF7D" stroke-width="0.65247"/>
</g>
<g clip-path="url(#clip5_937_7370)">
<rect x="134.188" y="70.9866" width="11.3095" height="67.4219" rx="1.73992" fill="#F2F2F2"/>
<mask id="mask20_937_7370" style="mask-type:alpha" maskUnits="userSpaceOnUse" x="134" y="70" width="12" height="69">
<rect x="134.188" y="70.9866" width="11.3095" height="67.4219" rx="1.73992" fill="#D9D9D9"/>
</mask>
<g mask="url(#mask20_937_7370)">
<path d="M134.188 24.0803V185.023" stroke="#EAEAEA" stroke-width="0.65247"/>
<path d="M135.493 24.0803V185.023" stroke="#EAEAEA" stroke-width="0.65247"/>
<path d="M136.798 24.0803V185.023" stroke="#EAEAEA" stroke-width="0.65247"/>
<path d="M138.103 24.0803V185.023" stroke="#EAEAEA" stroke-width="0.65247"/>
<path d="M139.407 24.0803V185.023" stroke="#EAEAEA" stroke-width="0.65247"/>
<path d="M140.713 24.0803V185.023" stroke="#EAEAEA" stroke-width="0.65247"/>
<path d="M142.017 24.0803V185.023" stroke="#EAEAEA" stroke-width="0.65247"/>
<path d="M143.322 24.0803V185.023" stroke="#EAEAEA" stroke-width="0.65247"/>
<path d="M144.627 24.0803V185.023" stroke="#EAEAEA" stroke-width="0.65247"/>
</g>
<path d="M134.188 127.969C134.188 127.008 134.966 126.229 135.927 126.229H143.757C144.718 126.229 145.497 127.008 145.497 127.969V130.579H134.188V127.969Z" fill="white"/>
</g>
<rect x="134.188" y="127.969" width="11.3095" height="17.8342" rx="1.73992" fill="#B6B0FB"/>
<mask id="mask21_937_7370" style="mask-type:alpha" maskUnits="userSpaceOnUse" x="134" y="127" width="12" height="19">
<rect x="134.188" y="127.969" width="11.3095" height="17.8342" rx="1.73992" fill="#D9D9D9"/>
</mask>
<g mask="url(#mask21_937_7370)">
<path d="M134.188 56.0627V217.005" stroke="#978FED" stroke-width="0.65247"/>
<path d="M135.493 56.0627V217.005" stroke="#978FED" stroke-width="0.65247"/>
<path d="M136.798 56.0627V217.005" stroke="#978FED" stroke-width="0.65247"/>
<path d="M138.103 56.0627V217.005" stroke="#978FED" stroke-width="0.65247"/>
<path d="M139.407 56.0627V217.005" stroke="#978FED" stroke-width="0.65247"/>
<path d="M140.713 56.0627V217.005" stroke="#978FED" stroke-width="0.65247"/>
<path d="M142.017 56.0627V217.005" stroke="#978FED" stroke-width="0.65247"/>
<path d="M143.322 56.0627V217.005" stroke="#978FED" stroke-width="0.65247"/>
<path d="M144.627 56.0627V217.005" stroke="#978FED" stroke-width="0.65247"/>
</g>
<rect x="134.188" y="133.624" width="11.3095" height="16.9642" rx="1.73992" fill="#F7AAED"/>
<mask id="mask22_937_7370" style="mask-type:alpha" maskUnits="userSpaceOnUse" x="134" y="133" width="12" height="18">
<rect x="134.188" y="133.624" width="11.3095" height="16.9642" rx="1.73992" fill="#D9D9D9"/>
</mask>
<g mask="url(#mask22_937_7370)">
<path d="M134.188 60.7173V221.66" stroke="#EE89DF" stroke-width="0.65247"/>
<path d="M135.493 60.7173V221.66" stroke="#EE89DF" stroke-width="0.65247"/>
<path d="M136.798 60.7173V221.66" stroke="#EE89DF" stroke-width="0.65247"/>
<path d="M138.103 60.7173V221.66" stroke="#EE89DF" stroke-width="0.65247"/>
<path d="M139.407 60.7173V221.66" stroke="#EE89DF" stroke-width="0.65247"/>
<path d="M140.713 60.7173V221.66" stroke="#EE89DF" stroke-width="0.65247"/>
<path d="M142.017 60.7173V221.66" stroke="#EE89DF" stroke-width="0.65247"/>
<path d="M143.322 60.7173V221.66" stroke="#EE89DF" stroke-width="0.65247"/>
<path d="M144.627 60.7173V221.66" stroke="#EE89DF" stroke-width="0.65247"/>
</g>
<rect x="134.188" y="137.539" width="11.3095" height="18.2692" rx="1.73992" fill="#FBDE9D"/>
<mask id="mask23_937_7370" style="mask-type:alpha" maskUnits="userSpaceOnUse" x="134" y="137" width="12" height="19">
<rect x="134.188" y="137.539" width="11.3095" height="18.2692" rx="1.73992" fill="#D9D9D9"/>
</mask>
<g mask="url(#mask23_937_7370)">
<path d="M134.188 65.6326V226.575" stroke="#F6CF7D" stroke-width="0.65247"/>
<path d="M135.493 65.6326V226.575" stroke="#F6CF7D" stroke-width="0.65247"/>
<path d="M136.798 65.6326V226.575" stroke="#F6CF7D" stroke-width="0.65247"/>
<path d="M138.103 65.6326V226.575" stroke="#F6CF7D" stroke-width="0.65247"/>
<path d="M139.407 65.6326V226.575" stroke="#F6CF7D" stroke-width="0.65247"/>
<path d="M140.713 65.6326V226.575" stroke="#F6CF7D" stroke-width="0.65247"/>
<path d="M142.017 65.6326V226.575" stroke="#F6CF7D" stroke-width="0.65247"/>
<path d="M143.322 65.6326V226.575" stroke="#F6CF7D" stroke-width="0.65247"/>
<path d="M144.627 65.6326V226.575" stroke="#F6CF7D" stroke-width="0.65247"/>
</g>
<g clip-path="url(#clip6_937_7370)">
<circle cx="172.466" cy="36.3589" r="1.30494" fill="#F6CF7D"/>
</g>
<path d="M180.095 35.1475C180.075 34.9586 179.989 34.8116 179.84 34.7064C179.691 34.6011 179.498 34.5485 179.26 34.5485C179.093 34.5485 178.949 34.5737 178.83 34.6242C178.71 34.6746 178.618 34.7431 178.555 34.8296C178.492 34.9161 178.459 35.0149 178.458 35.1259C178.458 35.2182 178.479 35.2982 178.52 35.3659C178.564 35.4337 178.622 35.4914 178.696 35.5389C178.769 35.5851 178.851 35.624 178.94 35.6557C179.029 35.6874 179.119 35.7141 179.21 35.7357L179.625 35.8395C179.793 35.8784 179.953 35.9311 180.108 35.9974C180.263 36.0637 180.403 36.1473 180.525 36.2482C180.649 36.3492 180.747 36.471 180.819 36.6137C180.891 36.7564 180.927 36.9237 180.927 37.1154C180.927 37.3749 180.861 37.6034 180.728 37.801C180.596 37.997 180.404 38.1506 180.153 38.2616C179.904 38.3711 179.602 38.4259 179.247 38.4259C178.902 38.4259 178.603 38.3726 178.35 38.2659C178.097 38.1592 177.9 38.0035 177.757 37.7988C177.616 37.5941 177.539 37.3447 177.528 37.0505H178.317C178.329 37.2048 178.376 37.3331 178.46 37.4355C178.543 37.5378 178.652 37.6143 178.786 37.6647C178.922 37.7152 179.073 37.7404 179.241 37.7404C179.415 37.7404 179.568 37.7144 179.699 37.6625C179.832 37.6092 179.935 37.5357 180.01 37.442C180.085 37.3468 180.124 37.2358 180.125 37.1089C180.124 36.9936 180.09 36.8984 180.023 36.8235C179.957 36.7471 179.864 36.6836 179.744 36.6332C179.626 36.5813 179.488 36.5351 179.329 36.4948L178.825 36.365C178.461 36.2713 178.172 36.1293 177.96 35.939C177.75 35.7473 177.645 35.4928 177.645 35.1756C177.645 34.9147 177.715 34.6862 177.856 34.4901C177.999 34.294 178.193 34.1419 178.438 34.0338C178.683 33.9242 178.961 33.8694 179.271 33.8694C179.585 33.8694 179.86 33.9242 180.097 34.0338C180.335 34.1419 180.521 34.2926 180.657 34.4858C180.793 34.6775 180.862 34.8981 180.867 35.1475H180.095ZM181.425 38.3589V33.93H183.086C183.426 33.93 183.712 33.9934 183.942 34.1203C184.174 34.2472 184.35 34.4216 184.468 34.6436C184.587 34.8642 184.647 35.1151 184.647 35.3962C184.647 35.6802 184.587 35.9325 184.468 36.1531C184.348 36.3737 184.172 36.5474 183.938 36.6743C183.704 36.7997 183.417 36.8624 183.075 36.8624H181.974V36.2028H182.967C183.166 36.2028 183.329 36.1682 183.456 36.099C183.583 36.0298 183.676 35.9347 183.737 35.8136C183.799 35.6925 183.83 35.5533 183.83 35.3962C183.83 35.2391 183.799 35.1007 183.737 34.981C183.676 34.8613 183.582 34.7683 183.454 34.702C183.327 34.6343 183.163 34.6004 182.963 34.6004H182.227V38.3589H181.425ZM185.127 38.3589V33.93H188.007V34.6025H185.929V35.8049H187.858V36.4775H185.929V37.6863H188.024V38.3589H185.127ZM192.248 33.93V38.3589H191.534L189.447 35.3421H189.41V38.3589H188.608V33.93H189.326L191.411 36.9489H191.45V33.93H192.248ZM194.405 38.3589H192.904V33.93H194.436C194.875 33.93 195.253 34.0187 195.569 34.196C195.886 34.3719 196.13 34.6249 196.3 34.955C196.47 35.2852 196.555 35.6802 196.555 36.1401C196.555 36.6015 196.469 36.9979 196.298 37.3295C196.127 37.6611 195.882 37.9156 195.56 38.0929C195.24 38.2702 194.855 38.3589 194.405 38.3589ZM193.707 37.6647H194.366C194.675 37.6647 194.932 37.6085 195.138 37.496C195.345 37.3821 195.5 37.2127 195.603 36.9878C195.707 36.7615 195.759 36.4789 195.759 36.1401C195.759 35.8013 195.707 35.5202 195.603 35.2967C195.5 35.0718 195.346 34.9039 195.143 34.7929C194.941 34.6804 194.69 34.6242 194.39 34.6242H193.707V37.6647ZM197.902 33.93V38.3589H197.1V33.93H197.902ZM202.193 33.93V38.3589H201.479L199.392 35.3421H199.356V38.3589H198.553V33.93H199.271L201.356 36.9489H201.395V33.93H202.193ZM205.817 35.3443C205.781 35.2275 205.731 35.123 205.667 35.0307C205.605 34.937 205.53 34.857 205.442 34.7907C205.356 34.7244 205.256 34.6746 205.144 34.6415C205.032 34.6069 204.909 34.5896 204.776 34.5896C204.538 34.5896 204.327 34.6494 204.141 34.7691C203.955 34.8887 203.808 35.0646 203.702 35.2967C203.596 35.5274 203.544 35.8085 203.544 36.1401C203.544 36.4746 203.596 36.7579 203.702 36.99C203.807 37.2221 203.953 37.3987 204.141 37.5198C204.328 37.6395 204.546 37.6993 204.794 37.6993C205.019 37.6993 205.213 37.6561 205.378 37.5696C205.543 37.4831 205.671 37.3605 205.76 37.2019C205.85 37.0419 205.894 36.8545 205.894 36.6397L206.076 36.6678H204.874V36.0406H206.671V36.5726C206.671 36.9518 206.59 37.2798 206.429 37.5566C206.267 37.8334 206.045 38.0468 205.762 38.1967C205.48 38.3452 205.156 38.4194 204.789 38.4194C204.381 38.4194 204.023 38.3279 203.715 38.1448C203.407 37.9603 203.167 37.6986 202.994 37.3598C202.823 37.0196 202.737 36.6159 202.737 36.1488C202.737 35.7912 202.788 35.4719 202.888 35.1908C202.991 34.9096 203.134 34.671 203.317 34.475C203.5 34.2774 203.715 34.1275 203.961 34.0251C204.208 33.9213 204.476 33.8694 204.766 33.8694C205.011 33.8694 205.239 33.9055 205.451 33.9776C205.663 34.0482 205.851 34.1491 206.016 34.2803C206.181 34.4115 206.318 34.5672 206.424 34.7474C206.531 34.9277 206.601 35.1266 206.634 35.3443H205.817Z" fill="#7A7A7A"/>
<path d="M171.891 53.8386V53.0082L174.461 50.3464C174.735 50.0573 174.961 49.8039 175.139 49.5864C175.319 49.3665 175.454 49.1576 175.543 48.9599C175.632 48.7622 175.677 48.5521 175.677 48.3297C175.677 48.0776 175.617 47.8601 175.499 47.6772C175.38 47.4919 175.218 47.3498 175.013 47.2509C174.808 47.1496 174.577 47.0989 174.32 47.0989C174.048 47.0989 173.811 47.1545 173.608 47.2657C173.405 47.3769 173.25 47.5339 173.141 47.7365C173.032 47.9392 172.978 48.1765 172.978 48.4483H171.884C171.884 47.9862 171.99 47.5821 172.203 47.2361C172.415 46.8901 172.707 46.6219 173.078 46.4316C173.448 46.2388 173.87 46.1424 174.342 46.1424C174.819 46.1424 175.239 46.2376 175.602 46.4279C175.968 46.6157 176.254 46.8728 176.459 47.199C176.664 47.5228 176.766 47.8885 176.766 48.2963C176.766 48.5781 176.713 48.8537 176.607 49.123C176.503 49.3924 176.322 49.6927 176.062 50.0239C175.803 50.3526 175.442 50.7517 174.98 51.2213L173.471 52.8006V52.8562H176.889V53.8386H171.891ZM179.316 52.8006L179.26 53.2047C179.223 53.5013 179.16 53.8102 179.071 54.1315C178.985 54.4553 178.894 54.7555 178.8 55.0323C178.709 55.3092 178.634 55.5291 178.574 55.6922H177.788C177.821 55.539 177.865 55.3314 177.922 55.0694C177.979 54.8099 178.034 54.5195 178.089 54.1982C178.143 53.8769 178.184 53.5495 178.211 53.2158L178.248 52.8006H179.316ZM182.799 53.9424C182.29 53.9424 181.835 53.8547 181.435 53.6792C181.037 53.5037 180.722 53.2603 180.49 52.9489C180.26 52.635 180.136 52.2717 180.119 51.859H181.283C181.298 52.0839 181.373 52.2791 181.509 52.4447C181.648 52.6078 181.828 52.7339 182.05 52.8228C182.273 52.9118 182.52 52.9563 182.792 52.9563C183.091 52.9563 183.355 52.9044 183.585 52.8006C183.818 52.6968 183.999 52.5522 184.13 52.3669C184.261 52.179 184.327 51.9628 184.327 51.7181C184.327 51.4635 184.261 51.2399 184.13 51.0471C184.002 50.8518 183.813 50.6986 183.563 50.5874C183.316 50.4762 183.017 50.4206 182.666 50.4206H182.025V49.4863H182.666C182.948 49.4863 183.195 49.4357 183.407 49.3344C183.622 49.233 183.79 49.0921 183.911 48.9117C184.033 48.7288 184.093 48.5151 184.093 48.2704C184.093 48.0356 184.04 47.8317 183.934 47.6587C183.83 47.4832 183.682 47.346 183.489 47.2472C183.299 47.1483 183.074 47.0989 182.814 47.0989C182.567 47.0989 182.336 47.1446 182.121 47.2361C181.908 47.325 181.735 47.4536 181.602 47.6216C181.468 47.7872 181.397 47.9862 181.387 48.2185H180.278C180.291 47.8082 180.412 47.4474 180.642 47.136C180.874 46.8246 181.181 46.5811 181.561 46.4057C181.942 46.2302 182.364 46.1424 182.829 46.1424C183.316 46.1424 183.736 46.2376 184.089 46.4279C184.445 46.6157 184.72 46.8666 184.912 47.1805C185.108 47.4943 185.204 47.8379 185.202 48.2111C185.204 48.6362 185.085 48.997 184.846 49.2936C184.608 49.5902 184.292 49.7891 183.897 49.8904V49.9498C184.401 50.0264 184.791 50.2266 185.068 50.5503C185.347 50.8741 185.486 51.2757 185.483 51.7552C185.486 52.1728 185.37 52.5473 185.135 52.8785C184.903 53.2096 184.585 53.4704 184.182 53.6607C183.779 53.8485 183.318 53.9424 182.799 53.9424ZM186.554 53.8386V46.2462H187.699V49.8719H187.792L190.976 46.2462H192.418L189.356 49.6643L192.429 53.8386H191.05L188.596 50.4465L187.699 51.4771V53.8386H186.554Z" fill="#242424"/>
<rect x="195.771" y="45.9688" width="21.4798" height="8.73992" rx="1.73992" fill="#E0F0E4"/>
<path d="M199.295 51.201V48.6949H199.794V51.201H199.295ZM198.293 50.1963V49.6996H200.799V50.1963H198.293ZM203.089 48.0424V51.8386H202.514V48.6171H202.492L201.584 49.2102V48.6615L202.531 48.0424H203.089ZM205.556 48.0424V51.8386H204.981V48.6171H204.959L204.051 49.2102V48.6615L204.998 48.0424H205.556ZM206.736 51.8738C206.635 51.8738 206.548 51.838 206.475 51.7663C206.402 51.6934 206.365 51.6057 206.365 51.5031C206.365 51.4018 206.402 51.3153 206.475 51.2436C206.548 51.1707 206.635 51.1343 206.736 51.1343C206.838 51.1343 206.925 51.1707 206.998 51.2436C207.07 51.3153 207.107 51.4018 207.107 51.5031C207.107 51.5711 207.09 51.6335 207.055 51.6903C207.022 51.7459 206.977 51.7904 206.922 51.8238C206.866 51.8572 206.804 51.8738 206.736 51.8738ZM207.762 51.0972V50.6338L209.403 48.0424H209.768V48.7246H209.536L208.363 50.5819V50.6115H210.611V51.0972H207.762ZM209.562 51.8386V50.9563L209.566 50.745V48.0424H210.109V51.8386H209.562ZM213.239 51.1268V50.9266C213.239 50.7833 213.268 50.6523 213.328 50.5337C213.388 50.4138 213.476 50.318 213.591 50.2464C213.707 50.1735 213.847 50.137 214.012 50.137C214.18 50.137 214.321 50.1728 214.434 50.2445C214.548 50.3162 214.634 50.412 214.692 50.5318C214.751 50.6517 214.781 50.7833 214.781 50.9266V51.1268C214.781 51.2702 214.751 51.4018 214.692 51.5217C214.633 51.6403 214.545 51.7361 214.431 51.809C214.317 51.8806 214.177 51.9165 214.012 51.9165C213.845 51.9165 213.704 51.8806 213.589 51.809C213.474 51.7361 213.387 51.6403 213.328 51.5217C213.268 51.4018 213.239 51.2702 213.239 51.1268ZM213.671 50.9266V51.1268C213.671 51.2331 213.696 51.3295 213.747 51.416C213.797 51.5025 213.886 51.5458 214.012 51.5458C214.136 51.5458 214.224 51.5025 214.273 51.416C214.322 51.3295 214.347 51.2331 214.347 51.1268V50.9266C214.347 50.8204 214.323 50.724 214.275 50.6375C214.228 50.551 214.14 50.5077 214.012 50.5077C213.888 50.5077 213.8 50.551 213.748 50.6375C213.696 50.724 213.671 50.8204 213.671 50.9266ZM211.329 48.9544V48.7542C211.329 48.6109 211.359 48.4793 211.418 48.3594C211.479 48.2395 211.567 48.1438 211.682 48.0721C211.798 48.0004 211.938 47.9646 212.102 47.9646C212.27 47.9646 212.411 48.0004 212.525 48.0721C212.639 48.1438 212.725 48.2395 212.783 48.3594C212.841 48.4793 212.87 48.6109 212.87 48.7542V48.9544C212.87 49.0978 212.84 49.2294 212.781 49.3492C212.723 49.4679 212.636 49.5636 212.521 49.6365C212.408 49.7082 212.268 49.744 212.102 49.744C211.934 49.744 211.793 49.7082 211.678 49.6365C211.564 49.5636 211.478 49.4679 211.418 49.3492C211.359 49.2294 211.329 49.0978 211.329 48.9544ZM211.763 48.7542V48.9544C211.763 49.0607 211.788 49.1571 211.837 49.2436C211.888 49.3301 211.976 49.3733 212.102 49.3733C212.226 49.3733 212.312 49.3301 212.362 49.2436C212.413 49.1571 212.438 49.0607 212.438 48.9544V48.7542C212.438 48.6479 212.414 48.5516 212.366 48.4651C212.317 48.3786 212.23 48.3353 212.102 48.3353C211.979 48.3353 211.891 48.3786 211.839 48.4651C211.789 48.5516 211.763 48.6479 211.763 48.7542ZM211.506 51.8386L214.115 48.0424H214.558L211.949 51.8386H211.506Z" fill="#377E36"/>
<g clip-path="url(#clip7_937_7370)">
<circle cx="172.466" cy="86.0676" r="1.30494" fill="#EE89DF"/>
</g>
<path d="M178.257 88.0676H177.4L178.959 83.6387H179.95L181.511 88.0676H180.655L179.472 84.547H179.437L178.257 88.0676ZM178.285 86.3311H180.62V86.9755H178.285V86.3311ZM181.877 88.0676V83.6387H182.679V87.3951H184.63V88.0676H181.877ZM185.109 88.0676V83.6387H185.911V87.3951H187.862V88.0676H185.109ZM192.126 85.8532C192.126 86.3304 192.036 86.7391 191.857 87.0793C191.68 87.4181 191.438 87.6776 191.131 87.8579C190.825 88.0381 190.478 88.1282 190.091 88.1282C189.703 88.1282 189.355 88.0381 189.048 87.8579C188.743 87.6762 188.5 87.416 188.322 87.0772C188.144 86.7369 188.056 86.3289 188.056 85.8532C188.056 85.376 188.144 84.968 188.322 84.6292C188.5 84.2889 188.743 84.0287 189.048 83.8485C189.355 83.6683 189.703 83.5782 190.091 83.5782C190.478 83.5782 190.825 83.6683 191.131 83.8485C191.438 84.0287 191.68 84.2889 191.857 84.6292C192.036 84.968 192.126 85.376 192.126 85.8532ZM191.319 85.8532C191.319 85.5173 191.266 85.234 191.161 85.0033C191.057 84.7712 190.913 84.596 190.729 84.4778C190.544 84.3581 190.331 84.2983 190.091 84.2983C189.85 84.2983 189.637 84.3581 189.453 84.4778C189.268 84.596 189.123 84.7712 189.018 85.0033C188.914 85.234 188.862 85.5173 188.862 85.8532C188.862 86.1891 188.914 86.4731 189.018 86.7052C189.123 86.9359 189.268 87.1111 189.453 87.2307C189.637 87.3489 189.85 87.4081 190.091 87.4081C190.331 87.4081 190.544 87.3489 190.729 87.2307C190.913 87.1111 191.057 86.9359 191.161 86.7052C191.266 86.4731 191.319 86.1891 191.319 85.8532ZM196.458 85.1331H195.649C195.626 85.0004 195.583 84.8829 195.521 84.7806C195.459 84.6768 195.382 84.5888 195.29 84.5167C195.197 84.4446 195.092 84.3906 194.974 84.3545C194.857 84.3171 194.731 84.2983 194.596 84.2983C194.355 84.2983 194.141 84.3589 193.955 84.48C193.769 84.5996 193.624 84.7755 193.519 85.0076C193.413 85.2383 193.361 85.5202 193.361 85.8532C193.361 86.192 193.413 86.4774 193.519 86.7095C193.625 86.9402 193.771 87.1147 193.955 87.2329C194.141 87.3497 194.354 87.4081 194.593 87.4081C194.726 87.4081 194.85 87.3908 194.965 87.3562C195.082 87.3201 195.187 87.2675 195.279 87.1983C195.373 87.1291 195.451 87.044 195.515 86.9431C195.58 86.8422 195.624 86.7268 195.649 86.5971L196.458 86.6014C196.427 86.8119 196.362 87.0094 196.261 87.194C196.161 87.3785 196.031 87.5414 195.869 87.6827C195.708 87.8225 195.519 87.9321 195.303 88.0114C195.086 88.0893 194.846 88.1282 194.583 88.1282C194.193 88.1282 193.846 88.0381 193.54 87.8579C193.235 87.6776 192.994 87.4174 192.818 87.0772C192.642 86.7369 192.554 86.3289 192.554 85.8532C192.554 85.376 192.643 84.968 192.82 84.6292C192.997 84.2889 193.239 84.0287 193.545 83.8485C193.85 83.6683 194.196 83.5782 194.583 83.5782C194.829 83.5782 195.058 83.6128 195.27 83.682C195.482 83.7512 195.671 83.8528 195.837 83.9869C196.003 84.1195 196.139 84.2825 196.246 84.4756C196.354 84.6674 196.424 84.8865 196.458 85.1331ZM197.49 88.0676H196.634L198.193 83.6387H199.183L200.745 88.0676H199.888L198.705 84.547H198.671L197.49 88.0676ZM197.518 86.3311H199.854V86.9755H197.518V86.3311ZM200.381 84.3113V83.6387H203.914V84.3113H202.545V88.0676H201.75V84.3113H200.381ZM205.18 83.6387V88.0676H204.378V83.6387H205.18ZM209.789 85.8532C209.789 86.3304 209.7 86.7391 209.521 87.0793C209.344 87.4181 209.101 87.6776 208.794 87.8579C208.489 88.0381 208.142 88.1282 207.754 88.1282C207.366 88.1282 207.019 88.0381 206.712 87.8579C206.406 87.6762 206.164 87.416 205.985 87.0772C205.808 86.7369 205.719 86.3289 205.719 85.8532C205.719 85.376 205.808 84.968 205.985 84.6292C206.164 84.2889 206.406 84.0287 206.712 83.8485C207.019 83.6683 207.366 83.5782 207.754 83.5782C208.142 83.5782 208.489 83.6683 208.794 83.8485C209.101 84.0287 209.344 84.2889 209.521 84.6292C209.7 84.968 209.789 85.376 209.789 85.8532ZM208.982 85.8532C208.982 85.5173 208.93 85.234 208.825 85.0033C208.721 84.7712 208.577 84.596 208.392 84.4778C208.207 84.3581 207.995 84.2983 207.754 84.2983C207.513 84.2983 207.301 84.3581 207.116 84.4778C206.932 84.596 206.787 84.7712 206.681 85.0033C206.578 85.234 206.526 85.5173 206.526 85.8532C206.526 86.1891 206.578 86.4731 206.681 86.7052C206.787 86.9359 206.932 87.1111 207.116 87.2307C207.301 87.3489 207.513 87.4081 207.754 87.4081C207.995 87.4081 208.207 87.3489 208.392 87.2307C208.577 87.1111 208.721 86.9359 208.825 86.7052C208.93 86.4731 208.982 86.1891 208.982 85.8532ZM213.97 83.6387V88.0676H213.256L211.169 85.0509H211.132V88.0676H210.33V83.6387H211.048L213.133 86.6576H213.172V83.6387H213.97Z" fill="#7A7A7A"/>
<path d="M174.772 95.955V103.547H173.623V97.1042H173.578L171.762 98.2905V97.1932L173.656 95.955H174.772ZM177.409 102.509L177.354 102.913C177.317 103.21 177.254 103.519 177.165 103.84C177.078 104.164 176.988 104.464 176.894 104.741C176.803 105.018 176.727 105.238 176.668 105.401H175.882C175.914 105.248 175.959 105.04 176.015 104.778C176.072 104.519 176.128 104.228 176.182 103.907C176.237 103.586 176.277 103.258 176.305 102.925L176.342 102.509H177.409ZM180.9 103.651C180.562 103.646 180.228 103.584 179.899 103.466C179.573 103.347 179.277 103.149 179.01 102.873C178.743 102.596 178.529 102.224 178.368 101.757C178.21 101.29 178.131 100.706 178.131 100.007C178.131 99.3446 178.197 98.7564 178.327 98.2423C178.461 97.7283 178.652 97.2945 178.902 96.9411C179.152 96.5852 179.453 96.3146 179.807 96.1292C180.16 95.9439 180.557 95.8512 180.997 95.8512C181.449 95.8512 181.851 95.9402 182.202 96.1181C182.552 96.296 182.837 96.542 183.054 96.8558C183.274 97.1697 183.414 97.5268 183.473 97.9272H182.342C182.266 97.6109 182.114 97.3526 181.886 97.1524C181.659 96.9522 181.362 96.8521 180.997 96.8521C180.441 96.8521 180.007 97.0943 179.695 97.5787C179.387 98.0632 179.231 98.7366 179.228 99.5992H179.284C179.415 99.3842 179.576 99.2013 179.766 99.0505C179.959 98.8973 180.174 98.7799 180.411 98.6983C180.651 98.6143 180.903 98.5723 181.167 98.5723C181.607 98.5723 182.005 98.6798 182.361 98.8948C182.719 99.1074 183.005 99.4015 183.217 99.7771C183.43 100.153 183.536 100.583 183.536 101.067C183.536 101.552 183.426 101.99 183.206 102.383C182.989 102.776 182.682 103.088 182.287 103.318C181.891 103.545 181.429 103.656 180.9 103.651ZM180.897 102.687C181.188 102.687 181.449 102.616 181.679 102.472C181.909 102.329 182.09 102.136 182.224 101.894C182.357 101.652 182.424 101.381 182.424 101.082C182.424 100.79 182.358 100.525 182.227 100.285C182.099 100.045 181.921 99.855 181.694 99.7141C181.469 99.5732 181.212 99.5028 180.923 99.5028C180.703 99.5028 180.499 99.5448 180.311 99.6288C180.125 99.7129 179.962 99.829 179.822 99.9773C179.681 100.126 179.569 100.296 179.488 100.489C179.409 100.679 179.369 100.881 179.369 101.093C179.369 101.377 179.435 101.641 179.566 101.883C179.699 102.125 179.881 102.32 180.111 102.469C180.343 102.614 180.605 102.687 180.897 102.687ZM184.555 103.547V95.955H185.701V99.5806H185.794L188.978 95.955H190.42L187.358 99.373L190.431 103.547H189.052L186.598 100.155L185.701 101.186V103.547H184.555Z" fill="#242424"/>
<rect x="193.771" y="95.6775" width="19.4798" height="8.73992" rx="1.73992" fill="#E0F0E4"/>
<path d="M197.108 100.91V98.4036H197.607V100.91H197.108ZM196.106 99.9051V99.4083H198.612V99.9051H196.106ZM199.382 100.806V100.343L201.022 97.7512H201.387V98.4333H201.156L199.982 100.291V100.32H202.231V100.806H199.382ZM201.182 101.547V100.665L201.185 100.454V97.7512H201.728V101.547H201.182ZM203.107 101.583C203.005 101.583 202.918 101.547 202.845 101.475C202.772 101.402 202.736 101.314 202.736 101.212C202.736 101.111 202.772 101.024 202.845 100.952C202.918 100.879 203.005 100.843 203.107 100.843C203.208 100.843 203.295 100.879 203.368 100.952C203.441 101.024 203.477 101.111 203.477 101.212C203.477 101.28 203.46 101.342 203.425 101.399C203.392 101.455 203.348 101.499 203.292 101.533C203.236 101.566 203.175 101.583 203.107 101.583ZM205.396 101.61C205.103 101.609 204.853 101.532 204.646 101.379C204.438 101.225 204.279 101.002 204.169 100.71C204.059 100.417 204.004 100.064 204.004 99.6511C204.004 99.2396 204.059 98.8881 204.169 98.5964C204.28 98.3048 204.44 98.0824 204.647 97.9291C204.856 97.7759 205.106 97.6993 205.396 97.6993C205.687 97.6993 205.936 97.7765 206.143 97.931C206.351 98.0842 206.51 98.3066 206.62 98.5983C206.731 98.8887 206.787 99.2396 206.787 99.6511C206.787 100.065 206.732 100.419 206.622 100.711C206.512 101.003 206.353 101.226 206.145 101.381C205.938 101.534 205.688 101.61 205.396 101.61ZM205.396 101.115C205.653 101.115 205.854 100.99 205.999 100.739C206.145 100.488 206.217 100.126 206.217 99.6511C206.217 99.336 206.184 99.0697 206.117 98.8522C206.052 98.6335 205.957 98.4679 205.834 98.3554C205.711 98.2418 205.566 98.1849 205.396 98.1849C205.141 98.1849 204.94 98.311 204.794 98.5631C204.648 98.8151 204.575 99.1778 204.573 99.6511C204.573 99.9675 204.606 100.235 204.672 100.454C204.738 100.671 204.833 100.836 204.955 100.949C205.078 101.06 205.225 101.115 205.396 101.115ZM209.426 100.836V100.635C209.426 100.492 209.455 100.361 209.515 100.242C209.575 100.123 209.663 100.027 209.778 99.9551C209.894 99.8822 210.034 99.8458 210.199 99.8458C210.367 99.8458 210.507 99.8816 210.621 99.9533C210.735 100.025 210.821 100.121 210.879 100.241C210.938 100.36 210.968 100.492 210.968 100.635V100.836C210.968 100.979 210.938 101.111 210.879 101.23C210.82 101.349 210.732 101.445 210.617 101.518C210.504 101.589 210.364 101.625 210.199 101.625C210.032 101.625 209.891 101.589 209.776 101.518C209.661 101.445 209.574 101.349 209.515 101.23C209.455 101.111 209.426 100.979 209.426 100.836ZM209.857 100.635V100.836C209.857 100.942 209.883 101.038 209.933 101.125C209.984 101.211 210.073 101.254 210.199 101.254C210.323 101.254 210.41 101.211 210.46 101.125C210.509 101.038 210.534 100.942 210.534 100.836V100.635C210.534 100.529 210.51 100.433 210.462 100.346C210.415 100.26 210.327 100.216 210.199 100.216C210.075 100.216 209.987 100.26 209.935 100.346C209.883 100.433 209.857 100.529 209.857 100.635ZM207.516 98.6631V98.463C207.516 98.3196 207.546 98.188 207.605 98.0681C207.666 97.9483 207.754 97.8525 207.869 97.7808C207.985 97.7092 208.125 97.6733 208.289 97.6733C208.457 97.6733 208.598 97.7092 208.712 97.7808C208.826 97.8525 208.912 97.9483 208.97 98.0681C209.028 98.188 209.057 98.3196 209.057 98.463V98.6631C209.057 98.8065 209.027 98.9381 208.968 99.058C208.91 99.1766 208.823 99.2724 208.708 99.3453C208.595 99.4169 208.455 99.4528 208.289 99.4528C208.121 99.4528 207.98 99.4169 207.865 99.3453C207.751 99.2724 207.665 99.1766 207.605 99.058C207.546 98.9381 207.516 98.8065 207.516 98.6631ZM207.95 98.463V98.6631C207.95 98.7694 207.975 98.8658 208.024 98.9523C208.075 99.0388 208.163 99.0821 208.289 99.0821C208.413 99.0821 208.499 99.0388 208.549 98.9523C208.6 98.8658 208.625 98.7694 208.625 98.6631V98.463C208.625 98.3567 208.601 98.2603 208.553 98.1738C208.504 98.0873 208.417 98.044 208.289 98.044C208.166 98.044 208.078 98.0873 208.026 98.1738C207.975 98.2603 207.95 98.3567 207.95 98.463ZM207.692 101.547L210.302 97.7512H210.745L208.135 101.547H207.692Z" fill="#377E36"/>
<g clip-path="url(#clip8_937_7370)">
<circle cx="172.466" cy="135.776" r="1.30494" fill="#978FED"/>
</g>
<path d="M178.257 137.776H177.4L178.959 133.347H179.95L181.511 137.776H180.655L179.472 134.256H179.437L178.257 137.776ZM178.285 136.04H180.62V136.684H178.285V136.04ZM181.877 133.347H182.859L184.174 136.557H184.226L185.54 133.347H186.522V137.776H185.752V134.734H185.711L184.487 137.763H183.912L182.688 134.727H182.647V137.776H181.877V133.347ZM191.136 135.562C191.136 136.039 191.046 136.448 190.868 136.788C190.69 137.127 190.448 137.386 190.141 137.567C189.835 137.747 189.489 137.837 189.101 137.837C188.713 137.837 188.366 137.747 188.059 137.567C187.753 137.385 187.511 137.125 187.332 136.786C187.155 136.446 187.066 136.038 187.066 135.562C187.066 135.085 187.155 134.677 187.332 134.338C187.511 133.998 187.753 133.737 188.059 133.557C188.366 133.377 188.713 133.287 189.101 133.287C189.489 133.287 189.835 133.377 190.141 133.557C190.448 133.737 190.69 133.998 190.868 134.338C191.046 134.677 191.136 135.085 191.136 135.562ZM190.329 135.562C190.329 135.226 190.277 134.943 190.171 134.712C190.068 134.48 189.923 134.305 189.739 134.187C189.554 134.067 189.342 134.007 189.101 134.007C188.86 134.007 188.647 134.067 188.463 134.187C188.278 134.305 188.133 134.48 188.028 134.712C187.924 134.943 187.873 135.226 187.873 135.562C187.873 135.898 187.924 136.182 188.028 136.414C188.133 136.645 188.278 136.82 188.463 136.939C188.647 137.058 188.86 137.117 189.101 137.117C189.342 137.117 189.554 137.058 189.739 136.939C189.923 136.82 190.068 136.645 190.171 136.414C190.277 136.182 190.329 135.898 190.329 135.562ZM194.469 133.347H195.271V136.241C195.271 136.558 195.196 136.837 195.046 137.078C194.898 137.319 194.689 137.507 194.419 137.642C194.149 137.776 193.834 137.843 193.474 137.843C193.112 137.843 192.796 137.776 192.527 137.642C192.257 137.507 192.048 137.319 191.9 137.078C191.751 136.837 191.677 136.558 191.677 136.241V133.347H192.479V136.174C192.479 136.358 192.52 136.523 192.6 136.667C192.682 136.811 192.798 136.924 192.946 137.007C193.095 137.087 193.271 137.128 193.474 137.128C193.677 137.128 193.853 137.087 194.002 137.007C194.152 136.924 194.267 136.811 194.348 136.667C194.428 136.523 194.469 136.358 194.469 136.174V133.347ZM199.565 133.347V137.776H198.851L196.765 134.76H196.728V137.776H195.926V133.347H196.644L198.728 136.366H198.767V133.347H199.565ZM200.027 134.02V133.347H203.561V134.02H202.192V137.776H201.396V134.02H200.027Z" fill="#7A7A7A"/>
<path d="M174.772 145.664V153.256H173.623V146.813H173.578L171.762 147.999V146.902L173.656 145.664H174.772ZM177.409 152.218L177.354 152.622C177.317 152.919 177.254 153.228 177.165 153.549C177.078 153.873 176.988 154.173 176.894 154.45C176.803 154.727 176.727 154.947 176.668 155.11H175.882C175.914 154.956 175.959 154.749 176.015 154.487C176.072 154.227 176.128 153.937 176.182 153.616C176.237 153.294 176.277 152.967 176.305 152.633L176.342 152.218H177.409ZM180.488 145.664V153.256H179.339V146.813H179.294L177.478 147.999V146.902L179.372 145.664H180.488ZM182.21 153.256V145.664H183.356V149.289H183.449L186.633 145.664H188.075L185.013 149.082L188.086 153.256H186.707L184.253 149.864L183.356 150.895V153.256H182.21Z" fill="#242424"/>
<rect x="191.771" y="145.386" width="18.4798" height="8.73992" rx="1.73992" fill="#E0F0E4"/>
<path d="M195.123 150.618V148.112H195.622V150.618H195.123ZM194.12 149.614V149.117H196.626V149.614H194.12ZM197.477 151.256L199.134 147.979V147.951H197.217V147.46H199.727V147.968L198.076 151.256H197.477ZM200.092 151.291C199.99 151.291 199.903 151.255 199.83 151.184C199.758 151.111 199.721 151.023 199.721 150.921C199.721 150.819 199.758 150.733 199.83 150.661C199.903 150.588 199.99 150.552 200.092 150.552C200.193 150.552 200.28 150.588 200.353 150.661C200.426 150.733 200.463 150.819 200.463 150.921C200.463 150.989 200.445 151.051 200.411 151.108C200.377 151.163 200.333 151.208 200.277 151.241C200.222 151.275 200.16 151.291 200.092 151.291ZM202.381 151.319C202.089 151.318 201.838 151.241 201.631 151.087C201.423 150.934 201.264 150.711 201.154 150.418C201.044 150.125 200.989 149.773 200.989 149.36C200.989 148.948 201.044 148.597 201.154 148.305C201.266 148.014 201.425 147.791 201.633 147.638C201.841 147.485 202.091 147.408 202.381 147.408C202.672 147.408 202.921 147.485 203.128 147.64C203.336 147.793 203.495 148.015 203.605 148.307C203.716 148.597 203.772 148.948 203.772 149.36C203.772 149.774 203.717 150.127 203.607 150.42C203.497 150.712 203.338 150.935 203.13 151.089C202.923 151.243 202.673 151.319 202.381 151.319ZM202.381 150.824C202.639 150.824 202.839 150.699 202.984 150.448C203.13 150.197 203.203 149.834 203.203 149.36C203.203 149.045 203.169 148.778 203.103 148.561C203.037 148.342 202.943 148.177 202.819 148.064C202.697 147.951 202.551 147.894 202.381 147.894C202.126 147.894 201.925 148.02 201.779 148.272C201.633 148.524 201.56 148.887 201.558 149.36C201.558 149.676 201.591 149.944 201.657 150.162C201.723 150.38 201.818 150.545 201.94 150.657C202.063 150.769 202.21 150.824 202.381 150.824ZM206.411 150.544V150.344C206.411 150.201 206.44 150.07 206.5 149.951C206.56 149.831 206.648 149.736 206.763 149.664C206.879 149.591 207.019 149.554 207.184 149.554C207.352 149.554 207.493 149.59 207.606 149.662C207.72 149.734 207.806 149.829 207.864 149.949C207.923 150.069 207.953 150.201 207.953 150.344V150.544C207.953 150.688 207.923 150.819 207.864 150.939C207.805 151.058 207.718 151.154 207.603 151.226C207.489 151.298 207.349 151.334 207.184 151.334C207.017 151.334 206.876 151.298 206.761 151.226C206.646 151.154 206.559 151.058 206.5 150.939C206.44 150.819 206.411 150.688 206.411 150.544ZM206.843 150.344V150.544C206.843 150.651 206.868 150.747 206.919 150.833C206.969 150.92 207.058 150.963 207.184 150.963C207.309 150.963 207.396 150.92 207.445 150.833C207.495 150.747 207.519 150.651 207.519 150.544V150.344C207.519 150.238 207.495 150.141 207.447 150.055C207.4 149.968 207.312 149.925 207.184 149.925C207.06 149.925 206.972 149.968 206.921 150.055C206.869 150.141 206.843 150.238 206.843 150.344ZM204.502 148.372V148.172C204.502 148.028 204.531 147.897 204.591 147.777C204.651 147.657 204.739 147.561 204.854 147.49C204.97 147.418 205.11 147.382 205.275 147.382C205.443 147.382 205.583 147.418 205.697 147.49C205.811 147.561 205.897 147.657 205.955 147.777C206.013 147.897 206.042 148.028 206.042 148.172V148.372C206.042 148.515 206.012 148.647 205.953 148.767C205.895 148.885 205.808 148.981 205.693 149.054C205.58 149.126 205.44 149.162 205.275 149.162C205.106 149.162 204.965 149.126 204.85 149.054C204.736 148.981 204.65 148.885 204.591 148.767C204.531 148.647 204.502 148.515 204.502 148.372ZM204.935 148.172V148.372C204.935 148.478 204.96 148.575 205.009 148.661C205.06 148.748 205.148 148.791 205.275 148.791C205.398 148.791 205.485 148.748 205.534 148.661C205.585 148.575 205.61 148.478 205.61 148.372V148.172C205.61 148.065 205.586 147.969 205.538 147.883C205.49 147.796 205.402 147.753 205.275 147.753C205.151 147.753 205.063 147.796 205.011 147.883C204.961 147.969 204.935 148.065 204.935 148.172ZM204.678 151.256L207.288 147.46H207.731L205.121 151.256H204.678Z" fill="#377E36"/>
<defs>
<clipPath id="clip0_937_7370">
<rect width="11.3095" height="28.5667" fill="white" transform="translate(12.3926 70.9866)"/>
</clipPath>
<clipPath id="clip1_937_7370">
<rect width="11.3095" height="13.6951" fill="white" transform="translate(36.7515 70.9866)"/>
</clipPath>
<clipPath id="clip2_937_7370">
<rect width="11.3095" height="22.0888" fill="white" transform="translate(61.1104 70.9868)"/>
</clipPath>
<clipPath id="clip3_937_7370">
<rect width="11.3095" height="42.4106" fill="white" transform="translate(85.4692 70.9866)"/>
</clipPath>
<clipPath id="clip4_937_7370">
<rect width="11.3095" height="7.51021" fill="white" transform="translate(109.828 70.9866)"/>
</clipPath>
<clipPath id="clip5_937_7370">
<rect width="11.3095" height="78.2964" fill="white" transform="translate(134.188 70.9866)"/>
</clipPath>
<clipPath id="clip6_937_7370">
<rect width="2.60988" height="2.60988" fill="white" transform="translate(171.161 35.054)"/>
</clipPath>
<clipPath id="clip7_937_7370">
<rect width="2.60988" height="2.60988" fill="white" transform="translate(171.161 84.7627)"/>
</clipPath>
<clipPath id="clip8_937_7370">
<rect width="2.60988" height="2.60988" fill="white" transform="translate(171.161 134.471)"/>
</clipPath>
</defs>
</svg>
