<svg width="335" height="190" viewBox="0 0 335 190" fill="none" xmlns="http://www.w3.org/2000/svg">
<rect width="335" height="189.634" rx="7.5493" fill="#F8FAFC"/>
<path d="M18.1504 17.8091C18.1504 18.3268 18.0534 18.7701 17.8595 19.1392C17.6671 19.5067 17.4044 19.7882 17.0713 19.9836C16.7398 20.1791 16.3637 20.2769 15.943 20.2769C15.5223 20.2769 15.1454 20.1791 14.8124 19.9836C14.4808 19.7866 14.2181 19.5043 14.0242 19.1368C13.8318 18.7678 13.7357 18.3252 13.7357 17.8091C13.7357 17.2915 13.8318 16.8489 14.0242 16.4814C14.2181 16.1124 14.4808 15.8301 14.8124 15.6346C15.1454 15.4391 15.5223 15.3414 15.943 15.3414C16.3637 15.3414 16.7398 15.4391 17.0713 15.6346C17.4044 15.8301 17.6671 16.1124 17.8595 16.4814C18.0534 16.8489 18.1504 17.2915 18.1504 17.8091ZM17.2754 17.8091C17.2754 17.4448 17.2183 17.1375 17.1041 16.8873C16.9916 16.6355 16.8352 16.4455 16.635 16.3172C16.4348 16.1874 16.2042 16.1225 15.943 16.1225C15.6818 16.1225 15.4512 16.1874 15.251 16.3172C15.0508 16.4455 14.8937 16.6355 14.7795 16.8873C14.6669 17.1375 14.6106 17.4448 14.6106 17.8091C14.6106 18.1735 14.6669 18.4816 14.7795 18.7334C14.8937 18.9836 15.0508 19.1736 15.251 19.3034C15.4512 19.4316 15.6818 19.4957 15.943 19.4957C16.2042 19.4957 16.4348 19.4316 16.635 19.3034C16.8352 19.1736 16.9916 18.9836 17.1041 18.7334C17.2183 18.4816 17.2754 18.1735 17.2754 17.8091ZM18.7372 20.2112V15.4071H20.5387C20.9078 15.4071 21.2175 15.4759 21.4677 15.6135C21.7194 15.7511 21.9094 15.9404 22.0377 16.1812C22.1675 16.4204 22.2324 16.6926 22.2324 16.9975C22.2324 17.3056 22.1675 17.5792 22.0377 17.8185C21.9079 18.0578 21.7163 18.2462 21.463 18.3838C21.2096 18.5199 20.8976 18.5879 20.527 18.5879H19.333V17.8725H20.4097C20.6255 17.8725 20.8023 17.8349 20.9399 17.7599C21.0775 17.6848 21.1791 17.5816 21.2448 17.4502C21.3121 17.3189 21.3457 17.168 21.3457 16.9975C21.3457 16.827 21.3121 16.6769 21.2448 16.5471C21.1791 16.4173 21.0767 16.3165 20.9375 16.2445C20.7999 16.171 20.6224 16.1343 20.405 16.1343H19.6075V20.2112H18.7372ZM22.7524 20.2112V15.4071H24.5539C24.923 15.4071 25.2326 15.4759 25.4828 15.6135C25.7346 15.7511 25.9246 15.9404 26.0529 16.1812C26.1827 16.4204 26.2476 16.6926 26.2476 16.9975C26.2476 17.3056 26.1827 17.5792 26.0529 17.8185C25.9231 18.0578 25.7315 18.2462 25.4781 18.3838C25.2248 18.5199 24.9128 18.5879 24.5422 18.5879H23.3482V17.8725H24.4249C24.6407 17.8725 24.8174 17.8349 24.955 17.7599C25.0927 17.6848 25.1943 17.5816 25.26 17.4502C25.3272 17.3189 25.3609 17.168 25.3609 16.9975C25.3609 16.827 25.3272 16.6769 25.26 16.5471C25.1943 16.4173 25.0919 16.3165 24.9527 16.2445C24.8151 16.171 24.6376 16.1343 24.4202 16.1343H23.6227V20.2112H22.7524ZM31.0603 17.8091C31.0603 18.3268 30.9633 18.7701 30.7694 19.1392C30.5771 19.5067 30.3143 19.7882 29.9812 19.9836C29.6497 20.1791 29.2736 20.2769 28.8529 20.2769C28.4323 20.2769 28.0554 20.1791 27.7223 19.9836C27.3907 19.7866 27.128 19.5043 26.9341 19.1368C26.7418 18.7678 26.6456 18.3252 26.6456 17.8091C26.6456 17.2915 26.7418 16.8489 26.9341 16.4814C27.128 16.1124 27.3907 15.8301 27.7223 15.6346C28.0554 15.4391 28.4323 15.3414 28.8529 15.3414C29.2736 15.3414 29.6497 15.4391 29.9812 15.6346C30.3143 15.8301 30.5771 16.1124 30.7694 16.4814C30.9633 16.8489 31.0603 17.2915 31.0603 17.8091ZM30.1853 17.8091C30.1853 17.4448 30.1282 17.1375 30.0141 16.8873C29.9015 16.6355 29.7451 16.4455 29.5449 16.3172C29.3448 16.1874 29.1141 16.1225 28.8529 16.1225C28.5918 16.1225 28.3611 16.1874 28.1609 16.3172C27.9608 16.4455 27.8036 16.6355 27.6894 16.8873C27.5768 17.1375 27.5205 17.4448 27.5205 17.8091C27.5205 18.1735 27.5768 18.4816 27.6894 18.7334C27.8036 18.9836 27.9608 19.1736 28.1609 19.3034C28.3611 19.4316 28.5918 19.4957 28.8529 19.4957C29.1141 19.4957 29.3448 19.4316 29.5449 19.3034C29.7451 19.1736 29.9015 18.9836 30.0141 18.7334C30.1282 18.4816 30.1853 18.1735 30.1853 17.8091ZM31.6471 20.2112V15.4071H33.4487C33.8177 15.4071 34.1274 15.4712 34.3776 15.5994C34.6294 15.7277 34.8194 15.9075 34.9476 16.139C35.0774 16.3688 35.1423 16.637 35.1423 16.9436C35.1423 17.2516 35.0766 17.519 34.9453 17.7458C34.8155 17.971 34.6239 18.1454 34.3706 18.2689C34.1172 18.3909 33.806 18.4519 33.4369 18.4519H32.1538V17.7294H33.3197C33.5355 17.7294 33.7122 17.6997 33.8498 17.6402C33.9874 17.5792 34.0891 17.4909 34.1547 17.3752C34.222 17.2579 34.2556 17.114 34.2556 16.9436C34.2556 16.7731 34.222 16.6277 34.1547 16.5072C34.0875 16.3853 33.9851 16.293 33.8474 16.2304C33.7098 16.1663 33.5323 16.1343 33.315 16.1343H32.5174V20.2112H31.6471ZM34.1289 18.0343L35.3182 20.2112H34.3471L33.1789 18.0343H34.1289ZM35.4963 16.1366V15.4071H39.3293V16.1366H37.8444V20.2112H36.9812V16.1366H35.4963ZM42.8607 15.4071H43.7309V18.5457C43.7309 18.8897 43.6496 19.1923 43.487 19.4535C43.3259 19.7147 43.0991 19.9187 42.8067 20.0657C42.5143 20.2112 42.1726 20.2839 41.7816 20.2839C41.3891 20.2839 41.0466 20.2112 40.7542 20.0657C40.4617 19.9187 40.235 19.7147 40.0739 19.4535C39.9128 19.1923 39.8323 18.8897 39.8323 18.5457V15.4071H40.7026V18.473C40.7026 18.6732 40.7464 18.8514 40.8339 19.0078C40.9231 19.1642 41.0482 19.287 41.2093 19.3761C41.3703 19.4637 41.5611 19.5075 41.7816 19.5075C42.0021 19.5075 42.1929 19.4637 42.354 19.3761C42.5166 19.287 42.6417 19.1642 42.7293 19.0078C42.8169 18.8514 42.8607 18.6732 42.8607 18.473V15.4071ZM48.3888 15.4071V20.2112H47.6147L45.3511 16.9389H45.3112V20.2112H44.4409V15.4071H45.2197L47.481 18.6818H47.5233V15.4071H48.3888ZM49.9715 15.4071V20.2112H49.1012V15.4071H49.9715ZM50.4668 16.1366V15.4071H54.2998V16.1366H52.8149V20.2112H51.9517V16.1366H50.4668ZM55.6731 15.4071V20.2112H54.8028V15.4071H55.6731ZM56.3796 20.2112V15.4071H59.5041V16.1366H57.2498V17.4409H59.3422V18.1704H57.2498V19.4817H59.5229V20.2112H56.3796ZM62.7669 16.7277C62.745 16.5229 62.6527 16.3634 62.4901 16.2492C62.329 16.135 62.1194 16.078 61.8614 16.078C61.68 16.078 61.5244 16.1053 61.3946 16.1601C61.2648 16.2148 61.1655 16.2891 61.0967 16.3829C61.0279 16.4767 60.9927 16.5839 60.9911 16.7043C60.9911 16.8044 61.0138 16.8912 61.0592 16.9647C61.1061 17.0382 61.1694 17.1007 61.2492 17.1523C61.3289 17.2024 61.4173 17.2446 61.5142 17.279C61.6112 17.3134 61.7089 17.3423 61.8075 17.3658L62.2578 17.4784C62.4392 17.5206 62.6136 17.5777 62.7809 17.6496C62.9498 17.7216 63.1007 17.8123 63.2337 17.9217C63.3682 18.0312 63.4745 18.1633 63.5527 18.3182C63.6309 18.473 63.67 18.6544 63.67 18.8624C63.67 19.1439 63.598 19.3917 63.4542 19.606C63.3103 19.8187 63.1023 19.9852 62.8302 20.1056C62.5597 20.2245 62.232 20.2839 61.8473 20.2839C61.4736 20.2839 61.1491 20.226 60.8738 20.1103C60.6002 19.9946 60.3859 19.8257 60.2311 19.6036C60.0779 19.3816 59.995 19.111 59.9825 18.792H60.8387C60.8512 18.9593 60.9028 19.0985 60.9935 19.2095C61.0842 19.3206 61.2023 19.4035 61.3477 19.4582C61.4947 19.5129 61.6589 19.5403 61.8403 19.5403C62.0295 19.5403 62.1953 19.5121 62.3376 19.4558C62.4815 19.398 62.5941 19.3182 62.6754 19.2166C62.7567 19.1134 62.7981 18.993 62.7997 18.8553C62.7981 18.7302 62.7614 18.627 62.6895 18.5457C62.6175 18.4628 62.5167 18.394 62.3869 18.3393C62.2586 18.283 62.1085 18.2329 61.9365 18.1891L61.3899 18.0484C60.9943 17.9468 60.6815 17.7927 60.4516 17.5863C60.2233 17.3783 60.1091 17.1023 60.1091 16.7582C60.1091 16.4752 60.1858 16.2273 60.339 16.0146C60.4938 15.802 60.7042 15.637 60.97 15.5197C61.2359 15.4008 61.5369 15.3414 61.8731 15.3414C62.2141 15.3414 62.5127 15.4008 62.7692 15.5197C63.0272 15.637 63.2298 15.8004 63.3768 16.0099C63.5238 16.2179 63.5996 16.4572 63.6043 16.7277H62.7669Z" fill="#7A7A7A"/>
<g filter="url(#filter0_d_937_7130)">
<rect x="263.024" y="13.2112" width="58.5915" height="18.4366" rx="3.77465" fill="white" shape-rendering="crispEdges"/>
<rect x="263.26" y="13.4471" width="58.1197" height="17.9648" rx="3.53873" stroke="#F2F2F2" stroke-width="0.471831" shape-rendering="crispEdges"/>
<path d="M268.544 24.9294V20.1253H269.414V24.1999H271.53V24.9294H268.544ZM273.048 25.0022C272.82 25.0022 272.614 24.9615 272.431 24.8802C272.25 24.7973 272.106 24.6753 272 24.5142C271.895 24.3532 271.843 24.1546 271.843 23.9184C271.843 23.7151 271.88 23.547 271.955 23.4141C272.03 23.2812 272.133 23.1748 272.263 23.0951C272.392 23.0153 272.539 22.9551 272.701 22.9144C272.865 22.8722 273.035 22.8417 273.21 22.823C273.421 22.8011 273.593 22.7815 273.724 22.7643C273.855 22.7455 273.951 22.7174 274.01 22.6799C274.071 22.6408 274.102 22.5806 274.102 22.4992V22.4852C274.102 22.3085 274.049 22.1716 273.944 22.0747C273.84 21.9777 273.689 21.9292 273.492 21.9292C273.284 21.9292 273.119 21.9746 272.997 22.0653C272.876 22.156 272.795 22.2631 272.753 22.3866L271.96 22.2741C272.023 22.0551 272.126 21.8721 272.27 21.7251C272.413 21.5766 272.589 21.4656 272.797 21.3921C273.005 21.317 273.235 21.2795 273.487 21.2795C273.661 21.2795 273.833 21.2998 274.005 21.3404C274.177 21.3811 274.335 21.4483 274.477 21.5422C274.619 21.6344 274.733 21.7603 274.819 21.9198C274.907 22.0794 274.951 22.2787 274.951 22.518V24.9294H274.134V24.4345H274.106C274.055 24.5346 273.982 24.6284 273.888 24.716C273.796 24.802 273.679 24.8716 273.539 24.9248C273.399 24.9764 273.236 25.0022 273.048 25.0022ZM273.269 24.3782C273.439 24.3782 273.587 24.3446 273.712 24.2773C273.837 24.2085 273.934 24.1178 274.001 24.0052C274.07 23.8926 274.104 23.7699 274.104 23.6369V23.2124C274.077 23.2342 274.032 23.2546 273.968 23.2733C273.905 23.2921 273.835 23.3085 273.757 23.3226C273.679 23.3367 273.601 23.3492 273.525 23.3601C273.448 23.3711 273.381 23.3805 273.325 23.3883C273.199 23.4055 273.085 23.4336 272.985 23.4727C272.885 23.5118 272.806 23.5666 272.748 23.6369C272.69 23.7057 272.661 23.7949 272.661 23.9044C272.661 24.0607 272.718 24.1788 272.833 24.2586C272.947 24.3383 273.092 24.3782 273.269 24.3782ZM278.416 22.2787L277.642 22.3632C277.62 22.285 277.582 22.2115 277.527 22.1427C277.474 22.0739 277.402 22.0184 277.312 21.9761C277.221 21.9339 277.11 21.9128 276.979 21.9128C276.802 21.9128 276.653 21.9511 276.533 22.0277C276.414 22.1044 276.355 22.2037 276.357 22.3257C276.355 22.4304 276.394 22.5157 276.472 22.5813C276.552 22.647 276.683 22.701 276.866 22.7432L277.481 22.8746C277.821 22.9481 278.075 23.0646 278.241 23.2241C278.408 23.3836 278.492 23.5924 278.494 23.8504C278.492 24.0772 278.426 24.2773 278.294 24.4509C278.165 24.6229 277.984 24.7574 277.753 24.8544C277.521 24.9513 277.255 24.9998 276.955 24.9998C276.514 24.9998 276.159 24.9075 275.89 24.723C275.621 24.5369 275.461 24.2781 275.409 23.9466L276.237 23.8668C276.275 24.0295 276.355 24.1522 276.477 24.2351C276.599 24.318 276.757 24.3594 276.953 24.3594C277.154 24.3594 277.316 24.318 277.438 24.2351C277.562 24.1522 277.624 24.0498 277.624 23.9278C277.624 23.8246 277.584 23.7394 277.504 23.6721C277.426 23.6049 277.304 23.5533 277.138 23.5173L276.523 23.3883C276.178 23.3163 275.922 23.1952 275.756 23.0247C275.591 22.8527 275.509 22.6353 275.51 22.3726C275.509 22.1505 275.569 21.9582 275.691 21.7955C275.814 21.6313 275.985 21.5046 276.204 21.4155C276.425 21.3248 276.679 21.2795 276.967 21.2795C277.389 21.2795 277.721 21.3694 277.964 21.5492C278.208 21.7291 278.359 21.9722 278.416 22.2787ZM280.757 21.3264V21.9832H278.686V21.3264H280.757ZM279.197 20.4631H280.047V23.8457C280.047 23.9599 280.064 24.0474 280.098 24.1084C280.134 24.1679 280.181 24.2085 280.239 24.2304C280.297 24.2523 280.361 24.2633 280.431 24.2633C280.484 24.2633 280.533 24.2593 280.577 24.2515C280.622 24.2437 280.656 24.2367 280.68 24.2304L280.823 24.8943C280.778 24.9099 280.713 24.9271 280.628 24.9459C280.545 24.9646 280.444 24.9756 280.323 24.9787C280.111 24.985 279.919 24.9529 279.749 24.8825C279.578 24.8106 279.443 24.6996 279.343 24.5494C279.244 24.3993 279.196 24.2116 279.197 23.9865V20.4631ZM282.801 24.9294L284.844 20.8854V20.8525H282.472V20.1253H285.745V20.8689L283.704 24.9294H282.801ZM289.343 24.9294H287.715V20.1253H289.376C289.853 20.1253 290.263 20.2215 290.605 20.4139C290.949 20.6047 291.214 20.8791 291.398 21.2372C291.583 21.5953 291.675 22.0238 291.675 22.5227C291.675 23.0231 291.582 23.4532 291.396 23.8129C291.211 24.1725 290.945 24.4486 290.596 24.6409C290.249 24.8333 289.831 24.9294 289.343 24.9294ZM288.586 24.1765H289.301C289.636 24.1765 289.915 24.1155 290.139 23.9935C290.362 23.8699 290.53 23.6862 290.643 23.4422C290.755 23.1967 290.812 22.8902 290.812 22.5227C290.812 22.1552 290.755 21.8503 290.643 21.6079C290.53 21.3639 290.364 21.1817 290.143 21.0613C289.924 20.9393 289.652 20.8783 289.327 20.8783H288.586V24.1765ZM293.265 25.0022C293.037 25.0022 292.831 24.9615 292.648 24.8802C292.467 24.7973 292.323 24.6753 292.217 24.5142C292.112 24.3532 292.06 24.1546 292.06 23.9184C292.06 23.7151 292.097 23.547 292.172 23.4141C292.247 23.2812 292.35 23.1748 292.479 23.0951C292.609 23.0153 292.755 22.9551 292.918 22.9144C293.082 22.8722 293.252 22.8417 293.427 22.823C293.638 22.8011 293.809 22.7815 293.941 22.7643C294.072 22.7455 294.168 22.7174 294.227 22.6799C294.288 22.6408 294.318 22.5806 294.318 22.4992V22.4852C294.318 22.3085 294.266 22.1716 294.161 22.0747C294.057 21.9777 293.906 21.9292 293.709 21.9292C293.501 21.9292 293.336 21.9746 293.214 22.0653C293.093 22.156 293.012 22.2631 292.97 22.3866L292.177 22.2741C292.239 22.0551 292.343 21.8721 292.486 21.7251C292.63 21.5766 292.806 21.4656 293.014 21.3921C293.222 21.317 293.452 21.2795 293.704 21.2795C293.877 21.2795 294.05 21.2998 294.222 21.3404C294.394 21.3811 294.551 21.4483 294.694 21.5422C294.836 21.6344 294.95 21.7603 295.036 21.9198C295.124 22.0794 295.168 22.2787 295.168 22.518V24.9294H294.351V24.4345H294.323C294.272 24.5346 294.199 24.6284 294.105 24.716C294.013 24.802 293.896 24.8716 293.755 24.9248C293.616 24.9764 293.453 25.0022 293.265 25.0022ZM293.486 24.3782C293.656 24.3782 293.804 24.3446 293.929 24.2773C294.054 24.2085 294.15 24.1178 294.218 24.0052C294.286 23.8926 294.321 23.7699 294.321 23.6369V23.2124C294.294 23.2342 294.249 23.2546 294.185 23.2733C294.122 23.2921 294.052 23.3085 293.974 23.3226C293.895 23.3367 293.818 23.3492 293.741 23.3601C293.665 23.3711 293.598 23.3805 293.542 23.3883C293.415 23.4055 293.302 23.4336 293.202 23.4727C293.102 23.5118 293.023 23.5666 292.965 23.6369C292.907 23.7057 292.878 23.7949 292.878 23.9044C292.878 24.0607 292.935 24.1788 293.049 24.2586C293.164 24.3383 293.309 24.3782 293.486 24.3782ZM296.184 26.2806C296.069 26.2806 295.961 26.2712 295.863 26.2524C295.766 26.2352 295.689 26.2149 295.631 26.1915L295.828 25.53C295.951 25.5659 296.062 25.5831 296.159 25.5816C296.255 25.58 296.341 25.5495 296.414 25.4901C296.489 25.4322 296.553 25.3353 296.604 25.1992L296.677 25.0045L295.37 21.3264H296.271L297.102 24.0474H297.139L297.972 21.3264H298.875L297.432 25.3658C297.365 25.5565 297.276 25.72 297.165 25.856C297.054 25.9936 296.918 26.0984 296.757 26.1703C296.597 26.2438 296.406 26.2806 296.184 26.2806ZM302.074 22.2787L301.3 22.3632C301.278 22.285 301.24 22.2115 301.185 22.1427C301.132 22.0739 301.06 22.0184 300.97 21.9761C300.879 21.9339 300.768 21.9128 300.636 21.9128C300.46 21.9128 300.311 21.9511 300.191 22.0277C300.072 22.1044 300.013 22.2037 300.015 22.3257C300.013 22.4304 300.052 22.5157 300.13 22.5813C300.209 22.647 300.341 22.701 300.524 22.7432L301.138 22.8746C301.479 22.9481 301.733 23.0646 301.898 23.2241C302.066 23.3836 302.15 23.5924 302.152 23.8504C302.15 24.0772 302.084 24.2773 301.952 24.4509C301.823 24.6229 301.642 24.7574 301.411 24.8544C301.179 24.9513 300.913 24.9998 300.613 24.9998C300.172 24.9998 299.817 24.9075 299.548 24.723C299.279 24.5369 299.119 24.2781 299.067 23.9466L299.895 23.8668C299.933 24.0295 300.012 24.1522 300.134 24.2351C300.256 24.318 300.415 24.3594 300.611 24.3594C300.812 24.3594 300.974 24.318 301.096 24.2351C301.22 24.1522 301.281 24.0498 301.281 23.9278C301.281 23.8246 301.242 23.7394 301.162 23.6721C301.084 23.6049 300.962 23.5533 300.796 23.5173L300.181 23.3883C299.836 23.3163 299.58 23.1952 299.414 23.0247C299.249 22.8527 299.166 22.6353 299.168 22.3726C299.166 22.1505 299.227 21.9582 299.349 21.7955C299.472 21.6313 299.643 21.5046 299.862 21.4155C300.083 21.3248 300.337 21.2795 300.625 21.2795C301.047 21.2795 301.379 21.3694 301.622 21.5492C301.866 21.7291 302.016 21.9722 302.074 22.2787Z" fill="#7A7A7A"/>
<path d="M310.764 21.2322L312.485 22.9527C312.577 23.0448 312.726 23.0448 312.818 22.9527L314.539 21.2322" stroke="#CCCCCC" stroke-width="0.707746" stroke-linecap="round"/>
</g>
<path d="M21.1197 58.5914C20.3851 58.5807 19.6613 58.4466 18.9482 58.1893C18.2405 57.9319 17.597 57.503 17.018 56.9025C16.4389 56.302 15.9751 55.495 15.6266 54.4816C15.2835 53.4683 15.1119 52.2029 15.1119 50.6856C15.1119 49.2486 15.254 47.9725 15.5381 46.8573C15.8277 45.7421 16.2432 44.8011 16.7847 44.0343C17.3263 43.2623 17.9804 42.6751 18.7471 42.273C19.5139 41.8709 20.3744 41.6698 21.3288 41.6698C22.31 41.6698 23.1813 41.8629 23.9426 42.2489C24.704 42.6349 25.3206 43.1684 25.7924 43.8494C26.2696 44.5303 26.5726 45.3051 26.7012 46.1737H24.2483C24.082 45.4874 23.7523 44.9271 23.259 44.4928C22.7657 44.0585 22.1223 43.8413 21.3288 43.8413C20.1224 43.8413 19.1814 44.3668 18.5059 45.4177C17.8356 46.4686 17.4979 47.9296 17.4925 49.8009H17.6131C17.8973 49.3344 18.2458 48.9376 18.6587 48.6106C19.0769 48.2781 19.5434 48.0235 20.0581 47.8465C20.5782 47.6642 21.1251 47.5731 21.6988 47.5731C22.6531 47.5731 23.5164 47.8063 24.2885 48.2728C25.0659 48.7339 25.6852 49.3719 26.1463 50.1869C26.6074 51.0019 26.838 51.9348 26.838 52.9857C26.838 54.0366 26.5994 54.9883 26.1222 55.8408C25.6503 56.6934 24.9855 57.3689 24.1276 57.8676C23.2697 58.3608 22.2671 58.6021 21.1197 58.5914ZM21.1117 56.5003C21.7443 56.5003 22.31 56.3448 22.8086 56.0339C23.3073 55.7229 23.7014 55.3047 23.9909 54.7792C24.2804 54.2538 24.4252 53.6667 24.4252 53.0179C24.4252 52.3852 24.2831 51.8088 23.9989 51.2887C23.7201 50.7687 23.3341 50.3558 22.8408 50.0502C22.3529 49.7446 21.7953 49.5918 21.168 49.5918C20.6908 49.5918 20.2484 49.6829 19.8409 49.8652C19.4388 50.0475 19.0849 50.2995 18.7793 50.6212C18.4737 50.9429 18.2324 51.3129 18.0555 51.7311C17.8839 52.1439 17.7981 52.5809 17.7981 53.042C17.7981 53.6586 17.9402 54.2296 18.2244 54.7551C18.5139 55.2805 18.908 55.7041 19.4066 56.0258C19.9106 56.3422 20.479 56.5003 21.1117 56.5003ZM31.2326 56.1143L31.1119 56.9909C31.0315 57.6343 30.8948 58.3046 30.7018 59.0016C30.5141 59.704 30.3184 60.3554 30.1146 60.9559C29.9163 61.5564 29.7527 62.0336 29.624 62.3875H27.919C27.9887 62.0551 28.0852 61.6047 28.2086 61.0363C28.3319 60.4734 28.4525 59.8434 28.5705 59.1463C28.6884 58.4493 28.7769 57.7389 28.8359 57.0151L28.9163 56.1143H31.2326ZM33.3069 55.1492V53.1385L40.4246 41.895H42.0089V44.8547H41.0036L35.9127 52.9133V53.042H45.6683V55.1492H33.3069ZM41.1162 58.3662V54.5379L41.1323 53.6211V41.895H43.4888V58.3662H41.1162ZM47.7527 58.3662V41.895H50.2378V49.7607H50.4389L57.3475 41.895H60.476L53.8329 49.3103L60.5002 58.3662H57.5083L52.1841 51.0073L50.2378 53.2431V58.3662H47.7527Z" fill="#242424"/>
<rect x="63.7432" y="45.4226" width="21.7746" height="9.88732" rx="1.88732" fill="#E0F0E4"/>
<path d="M67.6248 51.6745V48.9562H68.1656V51.6745H67.6248ZM66.537 50.5848V50.0459H69.2554V50.5848H66.537ZM71.5556 52.4225C71.2795 52.4225 71.0328 52.3749 70.8157 52.2798C70.5999 52.1846 70.429 52.0526 70.303 51.8837C70.1783 51.7134 70.1113 51.5164 70.1019 51.2925H70.7332C70.7413 51.4145 70.7822 51.5204 70.8559 51.6102C70.931 51.6987 71.0288 51.767 71.1494 51.8153C71.2701 51.8636 71.4041 51.8877 71.5516 51.8877C71.7138 51.8877 71.8572 51.8595 71.9819 51.8032C72.1079 51.7469 72.2064 51.6685 72.2774 51.568C72.3485 51.4661 72.384 51.3488 72.384 51.2161C72.384 51.0781 72.3485 50.9567 72.2774 50.8522C72.2077 50.7463 72.1052 50.6632 71.9698 50.6029C71.8357 50.5426 71.6736 50.5124 71.4832 50.5124H71.1354V50.0057H71.4832C71.636 50.0057 71.7701 49.9782 71.8853 49.9233C72.002 49.8683 72.0931 49.7919 72.1588 49.6941C72.2245 49.5949 72.2573 49.4789 72.2573 49.3462C72.2573 49.2189 72.2285 49.1083 72.1709 49.0145C72.1146 48.9193 72.0341 48.8449 71.9296 48.7913C71.8264 48.7377 71.7044 48.7109 71.5636 48.7109C71.4296 48.7109 71.3043 48.7357 71.1876 48.7853C71.0724 48.8335 70.9785 48.9032 70.9062 48.9944C70.8338 49.0842 70.7949 49.1921 70.7895 49.3181H70.1884C70.1951 49.0956 70.2607 48.8999 70.3854 48.731C70.5114 48.5621 70.6776 48.43 70.884 48.3349C71.0905 48.2397 71.3197 48.1921 71.5717 48.1921C71.8357 48.1921 72.0636 48.2437 72.2553 48.3469C72.4483 48.4488 72.5971 48.5849 72.7017 48.7551C72.8076 48.9253 72.8598 49.1116 72.8585 49.3141C72.8598 49.5446 72.7955 49.7403 72.6655 49.9012C72.5368 50.062 72.3652 50.1699 72.1507 50.2249V50.257C72.4242 50.2986 72.636 50.4072 72.7861 50.5828C72.9376 50.7584 73.0126 50.9762 73.0113 51.2362C73.0126 51.4628 72.9496 51.6658 72.8223 51.8455C72.6963 52.0251 72.5241 52.1665 72.3056 52.2697C72.0871 52.3716 71.8371 52.4225 71.5556 52.4225ZM74.0538 52.4044C73.9439 52.4044 73.8494 52.3655 73.7703 52.2878C73.6912 52.2087 73.6517 52.1135 73.6517 52.0023C73.6517 51.8924 73.6912 51.7985 73.7703 51.7208C73.8494 51.6417 73.9439 51.6022 74.0538 51.6022C74.1637 51.6022 74.2582 51.6417 74.3373 51.7208C74.4164 51.7985 74.4559 51.8924 74.4559 52.0023C74.4559 52.076 74.4372 52.1437 74.3996 52.2054C74.3635 52.2657 74.3152 52.3139 74.2549 52.3501C74.1946 52.3863 74.1275 52.4044 74.0538 52.4044ZM75.1667 51.562V51.0593L76.9461 48.2484H77.3422V48.9883H77.0909L75.8182 51.003V51.0352H78.2571V51.562H75.1667ZM77.119 52.3662V51.4091L77.1231 51.1799V48.2484H77.7122V52.3662H77.119ZM81.1072 51.5941V51.377C81.1072 51.2215 81.1393 51.0794 81.2037 50.9507C81.2693 50.8207 81.3645 50.7168 81.4892 50.6391C81.6152 50.56 81.7673 50.5204 81.9456 50.5204C82.1279 50.5204 82.2807 50.5593 82.404 50.6371C82.5273 50.7148 82.6205 50.8187 82.6835 50.9487C82.7478 51.0787 82.78 51.2215 82.78 51.377V51.5941C82.78 51.7496 82.7478 51.8924 82.6835 52.0224C82.6192 52.1511 82.5247 52.255 82.4 52.334C82.2767 52.4118 82.1252 52.4507 81.9456 52.4507C81.7646 52.4507 81.6118 52.4118 81.4872 52.334C81.3625 52.255 81.268 52.1511 81.2037 52.0224C81.1393 51.8924 81.1072 51.7496 81.1072 51.5941ZM81.5756 51.377V51.5941C81.5756 51.7094 81.6031 51.814 81.6581 51.9078C81.713 52.0016 81.8089 52.0485 81.9456 52.0485C82.081 52.0485 82.1755 52.0016 82.2291 51.9078C82.2827 51.814 82.3095 51.7094 82.3095 51.5941V51.377C82.3095 51.2617 82.2834 51.1571 82.2311 51.0633C82.1802 50.9695 82.085 50.9226 81.9456 50.9226C81.8116 50.9226 81.7164 50.9695 81.6601 51.0633C81.6038 51.1571 81.5756 51.2617 81.5756 51.377ZM79.0362 49.2376V49.0205C79.0362 48.865 79.0684 48.7223 79.1327 48.5922C79.1984 48.4622 79.2936 48.3583 79.4182 48.2806C79.5442 48.2028 79.6964 48.164 79.8746 48.164C80.0569 48.164 80.2097 48.2028 80.3331 48.2806C80.4564 48.3583 80.5495 48.4622 80.6125 48.5922C80.6755 48.7223 80.707 48.865 80.707 49.0205V49.2376C80.707 49.3931 80.6749 49.5359 80.6105 49.6659C80.5475 49.7946 80.4537 49.8985 80.329 49.9776C80.2057 50.0553 80.0542 50.0942 79.8746 50.0942C79.6923 50.0942 79.5389 50.0553 79.4142 49.9776C79.2909 49.8985 79.197 49.7946 79.1327 49.6659C79.0684 49.5359 79.0362 49.3931 79.0362 49.2376ZM79.5067 49.0205V49.2376C79.5067 49.3529 79.5335 49.4575 79.5871 49.5513C79.6421 49.6451 79.7379 49.6921 79.8746 49.6921C80.0087 49.6921 80.1025 49.6451 80.1561 49.5513C80.2111 49.4575 80.2386 49.3529 80.2386 49.2376V49.0205C80.2386 48.9052 80.2124 48.8007 80.1601 48.7068C80.1079 48.613 80.0127 48.5661 79.8746 48.5661C79.7406 48.5661 79.6454 48.613 79.5891 48.7068C79.5342 48.8007 79.5067 48.9052 79.5067 49.0205ZM79.2272 52.3662L82.0582 48.2484H82.5387L79.7077 52.3662H79.2272Z" fill="#377E36"/>
<g clip-path="url(#clip0_937_7130)">
<path d="M13.2114 74.7463C13.2114 73.9645 13.8452 73.3308 14.6269 73.3308H83.0424V76.1618H14.6269C13.8452 76.1618 13.2114 75.5281 13.2114 74.7463Z" fill="#B6B0FB"/>
<path d="M14.1554 69.3203V80.6443" stroke="#978FED" stroke-width="0.707746"/>
<path d="M16.0426 69.3203V80.6443" stroke="#978FED" stroke-width="0.707746"/>
<path d="M17.9298 69.3203V80.6443" stroke="#978FED" stroke-width="0.707746"/>
<path d="M19.8171 69.3203V80.6443" stroke="#978FED" stroke-width="0.707746"/>
<path d="M21.7047 69.3203V80.6443" stroke="#978FED" stroke-width="0.707746"/>
<path d="M23.592 69.3203V80.6443" stroke="#978FED" stroke-width="0.707746"/>
<path d="M25.4792 69.3203V80.6443" stroke="#978FED" stroke-width="0.707746"/>
<path d="M27.3664 69.3203V80.6443" stroke="#978FED" stroke-width="0.707746"/>
<path d="M29.2541 69.3203V80.6443" stroke="#978FED" stroke-width="0.707746"/>
<path d="M31.1413 69.3203V80.6443" stroke="#978FED" stroke-width="0.707746"/>
<path d="M33.0285 69.3203V80.6443" stroke="#978FED" stroke-width="0.707746"/>
<path d="M34.9157 69.3203V80.6443" stroke="#978FED" stroke-width="0.707746"/>
<path d="M36.8029 69.3203V80.6443" stroke="#978FED" stroke-width="0.707746"/>
<path d="M38.6906 69.3203V80.6443" stroke="#978FED" stroke-width="0.707746"/>
<path d="M40.5778 69.3203V80.6443" stroke="#978FED" stroke-width="0.707746"/>
<path d="M42.465 69.3203V80.6443" stroke="#978FED" stroke-width="0.707746"/>
<path d="M44.3522 69.3203V80.6443" stroke="#978FED" stroke-width="0.707746"/>
<path d="M46.2399 69.3203V80.6443" stroke="#978FED" stroke-width="0.707746"/>
<path d="M48.1271 69.3203V80.6443" stroke="#978FED" stroke-width="0.707746"/>
<path d="M50.0143 69.3203V80.6443" stroke="#978FED" stroke-width="0.707746"/>
<path d="M51.9015 69.3203V80.6443" stroke="#978FED" stroke-width="0.707746"/>
<path d="M53.7892 69.3203V80.6443" stroke="#978FED" stroke-width="0.707746"/>
<path d="M55.6764 69.3203V80.6443" stroke="#978FED" stroke-width="0.707746"/>
<path d="M57.5636 69.3203V80.6443" stroke="#978FED" stroke-width="0.707746"/>
<path d="M59.4508 69.3203V80.6443" stroke="#978FED" stroke-width="0.707746"/>
<path d="M61.3385 69.3203V80.6443" stroke="#978FED" stroke-width="0.707746"/>
<path d="M63.2257 69.3203V80.6443" stroke="#978FED" stroke-width="0.707746"/>
<path d="M65.1129 69.3203V80.6443" stroke="#978FED" stroke-width="0.707746"/>
<path d="M67.0002 69.3203V80.6443" stroke="#978FED" stroke-width="0.707746"/>
<path d="M68.8879 69.3203V80.6443" stroke="#978FED" stroke-width="0.707746"/>
<path d="M70.7751 69.3203V80.6443" stroke="#978FED" stroke-width="0.707746"/>
<path d="M72.6623 69.3203V80.6443" stroke="#978FED" stroke-width="0.707746"/>
<path d="M74.5495 69.3203V80.6443" stroke="#978FED" stroke-width="0.707746"/>
<path d="M76.4367 69.3203V80.6443" stroke="#978FED" stroke-width="0.707746"/>
<path d="M78.3244 69.3203V80.6443" stroke="#978FED" stroke-width="0.707746"/>
<path d="M80.2116 69.3203V80.6443" stroke="#978FED" stroke-width="0.707746"/>
<path d="M82.0988 69.3203V80.6443" stroke="#978FED" stroke-width="0.707746"/>
</g>
<g clip-path="url(#clip1_937_7130)">
<rect width="97.669" height="2.83099" transform="translate(86.8169 73.3308)" fill="#BBEEED"/>
<line x1="88.1146" y1="69.3203" x2="88.1146" y2="80.6443" stroke="#A4DDDC" stroke-width="0.707746"/>
<path d="M89.6481 69.3203V80.6443" stroke="#A4DDDC" stroke-width="0.707746"/>
<path d="M91.5353 69.3203V80.6443" stroke="#A4DDDC" stroke-width="0.707746"/>
<path d="M93.4225 69.3203V80.6443" stroke="#A4DDDC" stroke-width="0.707746"/>
<path d="M95.3102 69.3203V80.6443" stroke="#A4DDDC" stroke-width="0.707746"/>
<path d="M97.1974 69.3203V80.6443" stroke="#A4DDDC" stroke-width="0.707746"/>
<path d="M99.0846 69.3203V80.6443" stroke="#A4DDDC" stroke-width="0.707746"/>
<path d="M100.972 69.3203V80.6443" stroke="#A4DDDC" stroke-width="0.707746"/>
<path d="M102.859 69.3203V80.6443" stroke="#A4DDDC" stroke-width="0.707746"/>
<path d="M104.747 69.3203V80.6443" stroke="#A4DDDC" stroke-width="0.707746"/>
<path d="M106.634 69.3203V80.6443" stroke="#A4DDDC" stroke-width="0.707746"/>
<path d="M108.521 69.3203V80.6443" stroke="#A4DDDC" stroke-width="0.707746"/>
<path d="M110.408 69.3203V80.6443" stroke="#A4DDDC" stroke-width="0.707746"/>
<path d="M112.296 69.3203V80.6443" stroke="#A4DDDC" stroke-width="0.707746"/>
<path d="M114.183 69.3203V80.6443" stroke="#A4DDDC" stroke-width="0.707746"/>
<path d="M116.07 69.3203V80.6443" stroke="#A4DDDC" stroke-width="0.707746"/>
<path d="M117.958 69.3203V80.6443" stroke="#A4DDDC" stroke-width="0.707746"/>
<path d="M119.845 69.3203V80.6443" stroke="#A4DDDC" stroke-width="0.707746"/>
<path d="M121.733 69.3203V80.6443" stroke="#A4DDDC" stroke-width="0.707746"/>
<path d="M123.62 69.3203V80.6443" stroke="#A4DDDC" stroke-width="0.707746"/>
<path d="M125.507 69.3203V80.6443" stroke="#A4DDDC" stroke-width="0.707746"/>
<path d="M127.395 69.3203V80.6443" stroke="#A4DDDC" stroke-width="0.707746"/>
<path d="M129.282 69.3203V80.6443" stroke="#A4DDDC" stroke-width="0.707746"/>
<path d="M131.169 69.3203V80.6443" stroke="#A4DDDC" stroke-width="0.707746"/>
<path d="M133.056 69.3203V80.6443" stroke="#A4DDDC" stroke-width="0.707746"/>
<path d="M134.944 69.3203V80.6443" stroke="#A4DDDC" stroke-width="0.707746"/>
<path d="M136.831 69.3203V80.6443" stroke="#A4DDDC" stroke-width="0.707746"/>
<path d="M138.718 69.3203V80.6443" stroke="#A4DDDC" stroke-width="0.707746"/>
<path d="M140.606 69.3203V80.6443" stroke="#A4DDDC" stroke-width="0.707746"/>
<path d="M142.493 69.3203V80.6443" stroke="#A4DDDC" stroke-width="0.707746"/>
<path d="M144.381 69.3203V80.6443" stroke="#A4DDDC" stroke-width="0.707746"/>
<path d="M146.268 69.3203V80.6443" stroke="#A4DDDC" stroke-width="0.707746"/>
<path d="M148.155 69.3203V80.6443" stroke="#A4DDDC" stroke-width="0.707746"/>
<path d="M150.043 69.3203V80.6443" stroke="#A4DDDC" stroke-width="0.707746"/>
<path d="M151.93 69.3203V80.6443" stroke="#A4DDDC" stroke-width="0.707746"/>
<path d="M153.817 69.3203V80.6443" stroke="#A4DDDC" stroke-width="0.707746"/>
<path d="M155.704 69.3203V80.6443" stroke="#A4DDDC" stroke-width="0.707746"/>
<path d="M157.592 69.3203V80.6443" stroke="#A4DDDC" stroke-width="0.707746"/>
<path d="M159.479 69.3203V80.6443" stroke="#A4DDDC" stroke-width="0.707746"/>
<path d="M161.366 69.3203V80.6443" stroke="#A4DDDC" stroke-width="0.707746"/>
<path d="M163.254 69.3203V80.6443" stroke="#A4DDDC" stroke-width="0.707746"/>
<path d="M165.141 69.3203V80.6443" stroke="#A4DDDC" stroke-width="0.707746"/>
<path d="M167.028 69.3203V80.6443" stroke="#A4DDDC" stroke-width="0.707746"/>
<path d="M168.916 69.3203V80.6443" stroke="#A4DDDC" stroke-width="0.707746"/>
<path d="M170.803 69.3203V80.6443" stroke="#A4DDDC" stroke-width="0.707746"/>
<path d="M172.691 69.3203V80.6443" stroke="#A4DDDC" stroke-width="0.707746"/>
<path d="M174.578 69.3203V80.6443" stroke="#A4DDDC" stroke-width="0.707746"/>
<path d="M176.465 69.3203V80.6443" stroke="#A4DDDC" stroke-width="0.707746"/>
<path d="M178.352 69.3203V80.6443" stroke="#A4DDDC" stroke-width="0.707746"/>
<path d="M180.24 69.3203V80.6443" stroke="#A4DDDC" stroke-width="0.707746"/>
<path d="M182.127 69.3203V80.6443" stroke="#A4DDDC" stroke-width="0.707746"/>
<path d="M184.014 69.3203V80.6443" stroke="#A4DDDC" stroke-width="0.707746"/>
</g>
<g clip-path="url(#clip2_937_7130)">
<rect width="37.2746" height="2.83099" transform="translate(188.261 73.3311)" fill="#FBDE9D"/>
<path d="M189.204 69.3206V80.6445" stroke="#F6CF7D" stroke-width="0.707746"/>
<path d="M191.091 69.3206V80.6445" stroke="#F6CF7D" stroke-width="0.707746"/>
<path d="M192.979 69.3206V80.6445" stroke="#F6CF7D" stroke-width="0.707746"/>
<path d="M194.866 69.3206V80.6445" stroke="#F6CF7D" stroke-width="0.707746"/>
<path d="M196.754 69.3206V80.6445" stroke="#F6CF7D" stroke-width="0.707746"/>
<path d="M198.641 69.3206V80.6445" stroke="#F6CF7D" stroke-width="0.707746"/>
<path d="M200.528 69.3206V80.6445" stroke="#F6CF7D" stroke-width="0.707746"/>
<path d="M202.416 69.3206V80.6445" stroke="#F6CF7D" stroke-width="0.707746"/>
<path d="M204.303 69.3206V80.6445" stroke="#F6CF7D" stroke-width="0.707746"/>
<path d="M206.19 69.3206V80.6445" stroke="#F6CF7D" stroke-width="0.707746"/>
<path d="M208.078 69.3206V80.6445" stroke="#F6CF7D" stroke-width="0.707746"/>
<path d="M209.965 69.3206V80.6445" stroke="#F6CF7D" stroke-width="0.707746"/>
<path d="M211.852 69.3206V80.6445" stroke="#F6CF7D" stroke-width="0.707746"/>
<path d="M213.739 69.3206V80.6445" stroke="#F6CF7D" stroke-width="0.707746"/>
<path d="M215.627 69.3206V80.6445" stroke="#F6CF7D" stroke-width="0.707746"/>
<path d="M217.514 69.3206V80.6445" stroke="#F6CF7D" stroke-width="0.707746"/>
<path d="M219.402 69.3206V80.6445" stroke="#F6CF7D" stroke-width="0.707746"/>
<path d="M221.289 69.3206V80.6445" stroke="#F6CF7D" stroke-width="0.707746"/>
<path d="M223.176 69.3206V80.6445" stroke="#F6CF7D" stroke-width="0.707746"/>
<path d="M225.064 69.3206V80.6445" stroke="#F6CF7D" stroke-width="0.707746"/>
</g>
<g clip-path="url(#clip3_937_7130)">
<path d="M229.31 73.3311H320.373C321.155 73.3311 321.789 73.9648 321.789 74.7465C321.789 75.5283 321.155 76.162 320.373 76.162H229.31V73.3311Z" fill="#95A1FC"/>
<line x1="229.664" y1="69.3206" x2="229.664" y2="80.6445" stroke="#697BE9" stroke-width="0.707746"/>
<path d="M231.197 69.3206V80.6445" stroke="#697BE9" stroke-width="0.707746"/>
<path d="M233.085 69.3206V80.6445" stroke="#697BE9" stroke-width="0.707746"/>
<path d="M234.972 69.3206V80.6445" stroke="#697BE9" stroke-width="0.707746"/>
<path d="M236.86 69.3206V80.6445" stroke="#697BE9" stroke-width="0.707746"/>
<path d="M238.747 69.3206V80.6445" stroke="#697BE9" stroke-width="0.707746"/>
<path d="M240.634 69.3206V80.6445" stroke="#697BE9" stroke-width="0.707746"/>
<path d="M242.522 69.3206V80.6445" stroke="#697BE9" stroke-width="0.707746"/>
<path d="M244.409 69.3206V80.6445" stroke="#697BE9" stroke-width="0.707746"/>
<path d="M246.296 69.3206V80.6445" stroke="#697BE9" stroke-width="0.707746"/>
<path d="M248.183 69.3206V80.6445" stroke="#697BE9" stroke-width="0.707746"/>
<path d="M250.071 69.3206V80.6445" stroke="#697BE9" stroke-width="0.707746"/>
<path d="M251.958 69.3206V80.6445" stroke="#697BE9" stroke-width="0.707746"/>
<path d="M253.845 69.3206V80.6445" stroke="#697BE9" stroke-width="0.707746"/>
<path d="M255.733 69.3206V80.6445" stroke="#697BE9" stroke-width="0.707746"/>
<path d="M257.62 69.3206V80.6445" stroke="#697BE9" stroke-width="0.707746"/>
<path d="M259.507 69.3206V80.6445" stroke="#697BE9" stroke-width="0.707746"/>
<path d="M261.395 69.3206V80.6445" stroke="#697BE9" stroke-width="0.707746"/>
<path d="M263.282 69.3206V80.6445" stroke="#697BE9" stroke-width="0.707746"/>
<path d="M265.17 69.3206V80.6445" stroke="#697BE9" stroke-width="0.707746"/>
<path d="M267.057 69.3206V80.6445" stroke="#697BE9" stroke-width="0.707746"/>
<path d="M268.944 69.3206V80.6445" stroke="#697BE9" stroke-width="0.707746"/>
<path d="M270.831 69.3206V80.6445" stroke="#697BE9" stroke-width="0.707746"/>
<path d="M272.719 69.3206V80.6445" stroke="#697BE9" stroke-width="0.707746"/>
<path d="M274.606 69.3206V80.6445" stroke="#697BE9" stroke-width="0.707746"/>
<path d="M276.493 69.3206V80.6445" stroke="#697BE9" stroke-width="0.707746"/>
<path d="M278.381 69.3206V80.6445" stroke="#697BE9" stroke-width="0.707746"/>
<path d="M280.268 69.3206V80.6445" stroke="#697BE9" stroke-width="0.707746"/>
<path d="M282.155 69.3206V80.6445" stroke="#697BE9" stroke-width="0.707746"/>
<path d="M284.042 69.3206V80.6445" stroke="#697BE9" stroke-width="0.707746"/>
<path d="M285.93 69.3206V80.6445" stroke="#697BE9" stroke-width="0.707746"/>
<path d="M287.817 69.3206V80.6445" stroke="#697BE9" stroke-width="0.707746"/>
<path d="M289.704 69.3206V80.6445" stroke="#697BE9" stroke-width="0.707746"/>
<path d="M291.591 69.3206V80.6445" stroke="#697BE9" stroke-width="0.707746"/>
<path d="M293.479 69.3206V80.6445" stroke="#697BE9" stroke-width="0.707746"/>
<path d="M295.366 69.3206V80.6445" stroke="#697BE9" stroke-width="0.707746"/>
<path d="M297.254 69.3206V80.6445" stroke="#697BE9" stroke-width="0.707746"/>
<path d="M299.141 69.3206V80.6445" stroke="#697BE9" stroke-width="0.707746"/>
<path d="M301.028 69.3206V80.6445" stroke="#697BE9" stroke-width="0.707746"/>
<path d="M302.916 69.3206V80.6445" stroke="#697BE9" stroke-width="0.707746"/>
<path d="M304.803 69.3206V80.6445" stroke="#697BE9" stroke-width="0.707746"/>
<path d="M306.69 69.3206V80.6445" stroke="#697BE9" stroke-width="0.707746"/>
<path d="M308.578 69.3206V80.6445" stroke="#697BE9" stroke-width="0.707746"/>
<path d="M310.465 69.3206V80.6445" stroke="#697BE9" stroke-width="0.707746"/>
<path d="M312.352 69.3206V80.6445" stroke="#697BE9" stroke-width="0.707746"/>
<path d="M314.239 69.3206V80.6445" stroke="#697BE9" stroke-width="0.707746"/>
<path d="M316.127 69.3206V80.6445" stroke="#697BE9" stroke-width="0.707746"/>
<path d="M318.014 69.3206V80.6445" stroke="#697BE9" stroke-width="0.707746"/>
<path d="M319.902 69.3206V80.6445" stroke="#697BE9" stroke-width="0.707746"/>
<path d="M321.789 69.3206V80.6445" stroke="#697BE9" stroke-width="0.707746"/>
</g>
<rect x="14.1549" y="93.3839" width="150.042" height="38.0986" rx="3.53873" fill="white"/>
<rect x="14.1549" y="93.3839" width="150.042" height="38.0986" rx="3.53873" stroke="#F2F2F2" stroke-width="0.471831"/>
<g clip-path="url(#clip4_937_7130)">
<circle cx="20.9965" cy="103.31" r="1.41549" fill="#978FED"/>
</g>
<path d="M27.749 105.81H26.8201L28.5113 101.006H29.5857L31.2793 105.81H30.3504L29.0673 101.991H29.0298L27.749 105.81ZM27.7795 103.926H30.3129V104.625H27.7795V103.926ZM34.2096 102.326C34.1877 102.122 34.0954 101.962 33.9328 101.848C33.7717 101.734 33.5622 101.677 33.3041 101.677C33.1227 101.677 32.9671 101.704 32.8373 101.759C32.7075 101.813 32.6082 101.888 32.5394 101.982C32.4706 102.075 32.4354 102.183 32.4339 102.303C32.4339 102.403 32.4565 102.49 32.5019 102.563C32.5488 102.637 32.6121 102.699 32.6919 102.751C32.7716 102.801 32.86 102.843 32.957 102.878C33.0539 102.912 33.1517 102.941 33.2502 102.964L33.7006 103.077C33.882 103.119 34.0563 103.176 34.2237 103.248C34.3926 103.32 34.5435 103.411 34.6764 103.52C34.8109 103.63 34.9172 103.762 34.9954 103.917C35.0736 104.072 35.1127 104.253 35.1127 104.461C35.1127 104.742 35.0408 104.99 34.8969 105.205C34.753 105.417 34.545 105.584 34.2729 105.704C34.0024 105.823 33.6748 105.883 33.2901 105.883C32.9163 105.883 32.5918 105.825 32.3166 105.709C32.0429 105.593 31.8287 105.424 31.6738 105.202C31.5206 104.98 31.4377 104.71 31.4252 104.391H32.2814C32.2939 104.558 32.3455 104.697 32.4362 104.808C32.5269 104.919 32.645 105.002 32.7904 105.057C32.9374 105.112 33.1016 105.139 33.283 105.139C33.4722 105.139 33.638 105.111 33.7803 105.054C33.9242 104.997 34.0368 104.917 34.1181 104.815C34.1994 104.712 34.2409 104.592 34.2424 104.454C34.2409 104.329 34.2041 104.226 34.1322 104.144C34.0602 104.061 33.9594 103.993 33.8296 103.938C33.7013 103.882 33.5512 103.832 33.3792 103.788L32.8326 103.647C32.437 103.545 32.1242 103.391 31.8943 103.185C31.666 102.977 31.5519 102.701 31.5519 102.357C31.5519 102.074 31.6285 101.826 31.7817 101.613C31.9366 101.401 32.1469 101.236 32.4127 101.118C32.6786 100.999 32.9796 100.94 33.3159 100.94C33.6568 100.94 33.9555 100.999 34.2119 101.118C34.47 101.236 34.6725 101.399 34.8195 101.609C34.9665 101.817 35.0423 102.056 35.047 102.326H34.2096ZM38.2635 102.326C38.2416 102.122 38.1493 101.962 37.9867 101.848C37.8256 101.734 37.616 101.677 37.358 101.677C37.1766 101.677 37.021 101.704 36.8912 101.759C36.7614 101.813 36.6621 101.888 36.5933 101.982C36.5245 102.075 36.4893 102.183 36.4877 102.303C36.4877 102.403 36.5104 102.49 36.5558 102.563C36.6027 102.637 36.666 102.699 36.7458 102.751C36.8255 102.801 36.9139 102.843 37.0108 102.878C37.1078 102.912 37.2055 102.941 37.3041 102.964L37.7544 103.077C37.9358 103.119 38.1102 103.176 38.2775 103.248C38.4464 103.32 38.5973 103.411 38.7303 103.52C38.8648 103.63 38.9711 103.762 39.0493 103.917C39.1275 104.072 39.1666 104.253 39.1666 104.461C39.1666 104.742 39.0946 104.99 38.9508 105.205C38.8069 105.417 38.5989 105.584 38.3268 105.704C38.0563 105.823 37.7286 105.883 37.3439 105.883C36.9702 105.883 36.6457 105.825 36.3704 105.709C36.0968 105.593 35.8825 105.424 35.7277 105.202C35.5745 104.98 35.4916 104.71 35.4791 104.391H36.3353C36.3478 104.558 36.3994 104.697 36.4901 104.808C36.5808 104.919 36.6989 105.002 36.8443 105.057C36.9913 105.112 37.1555 105.139 37.3369 105.139C37.5261 105.139 37.6919 105.111 37.8342 105.054C37.9781 104.997 38.0907 104.917 38.172 104.815C38.2533 104.712 38.2947 104.592 38.2963 104.454C38.2947 104.329 38.258 104.226 38.1861 104.144C38.1141 104.061 38.0133 103.993 37.8835 103.938C37.7552 103.882 37.6051 103.832 37.4331 103.788L36.8865 103.647C36.4909 103.545 36.1781 103.391 35.9482 103.185C35.7199 102.977 35.6057 102.701 35.6057 102.357C35.6057 102.074 35.6824 101.826 35.8356 101.613C35.9904 101.401 36.2008 101.236 36.4666 101.118C36.7325 100.999 37.0335 100.94 37.3697 100.94C37.7107 100.94 38.0093 100.999 38.2658 101.118C38.5238 101.236 38.7264 101.399 38.8734 101.609C39.0204 101.817 39.0962 102.056 39.1009 102.326H38.2635ZM39.7065 105.81V101.006H42.8311V101.735H40.5768V103.039H42.6692V103.769H40.5768V105.08H42.8498V105.81H39.7065ZM43.2719 101.735V101.006H47.1049V101.735H45.62V105.81H44.7568V101.735H43.2719ZM49.0104 105.81V101.006H50.812C51.181 101.006 51.4907 101.07 51.7409 101.198C51.9927 101.326 52.1827 101.506 52.3109 101.738C52.4407 101.967 52.5056 102.236 52.5056 102.542C52.5056 102.85 52.4399 103.118 52.3086 103.344C52.1788 103.57 51.9872 103.744 51.7339 103.868C51.4805 103.99 51.1693 104.051 50.8002 104.051H49.5171V103.328H50.683C50.8988 103.328 51.0755 103.298 51.2131 103.239C51.3507 103.178 51.4524 103.09 51.518 102.974C51.5853 102.857 51.6189 102.713 51.6189 102.542C51.6189 102.372 51.5853 102.226 51.518 102.106C51.4508 101.984 51.3484 101.892 51.2108 101.829C51.0731 101.765 50.8956 101.733 50.6783 101.733H49.8807V105.81H49.0104ZM51.4922 103.633L52.6815 105.81H51.7104L50.5422 103.633H51.4922ZM53.0708 105.81V101.006H56.1953V101.735H53.941V103.039H56.0335V103.769H53.941V105.08H56.2141V105.81H53.0708ZM60.9594 102.627H60.082C60.057 102.483 60.0109 102.355 59.9436 102.244C59.8764 102.132 59.7927 102.036 59.6927 101.958C59.5926 101.88 59.4784 101.821 59.3502 101.782C59.2235 101.742 59.0867 101.721 58.9397 101.721C58.6785 101.721 58.4471 101.787 58.2453 101.918C58.0436 102.048 57.8856 102.239 57.7715 102.491C57.6573 102.741 57.6002 103.047 57.6002 103.408C57.6002 103.775 57.6573 104.085 57.7715 104.337C57.8872 104.587 58.0452 104.776 58.2453 104.904C58.4471 105.031 58.6777 105.094 58.9373 105.094C59.0812 105.094 59.2157 105.076 59.3408 105.038C59.4675 104.999 59.5808 104.942 59.6809 104.867C59.7826 104.792 59.8678 104.699 59.9366 104.59C60.007 104.481 60.0555 104.355 60.082 104.215L60.9594 104.219C60.9265 104.448 60.8554 104.662 60.7459 104.862C60.638 105.062 60.4965 105.239 60.3213 105.392C60.1462 105.544 59.9413 105.663 59.7067 105.749C59.4722 105.833 59.2118 105.875 58.9256 105.875C58.5034 105.875 58.1265 105.778 57.7949 105.582C57.4634 105.387 57.2022 105.105 57.0115 104.735C56.8207 104.366 56.7253 103.924 56.7253 103.408C56.7253 102.89 56.8215 102.448 57.0138 102.08C57.2062 101.711 57.4681 101.429 57.7996 101.233C58.1312 101.038 58.5065 100.94 58.9256 100.94C59.193 100.94 59.4417 100.978 59.6715 101.053C59.9014 101.128 60.1063 101.238 60.2861 101.383C60.466 101.527 60.6138 101.704 60.7295 101.914C60.8468 102.122 60.9234 102.359 60.9594 102.627ZM61.5204 105.81V101.006H64.645V101.735H62.3907V103.039H64.4831V103.769H62.3907V105.08H64.6637V105.81H61.5204ZM66.1672 101.006V105.81H65.2969V101.006H66.1672ZM67.5164 101.006L68.7667 104.787H68.8159L70.0639 101.006H71.021L69.3273 105.81H68.253L66.5617 101.006H67.5164ZM71.4178 105.81V101.006H74.5423V101.735H72.2881V103.039H74.3805V103.769H72.2881V105.08H74.5611V105.81H71.4178ZM76.8222 105.81H75.1943V101.006H76.8551C77.3321 101.006 77.7418 101.102 78.0843 101.294C78.4283 101.485 78.6926 101.759 78.8771 102.118C79.0617 102.476 79.1539 102.904 79.1539 103.403C79.1539 103.904 79.0609 104.334 78.8748 104.693C78.6902 105.053 78.4236 105.329 78.0749 105.521C77.7277 105.714 77.3102 105.81 76.8222 105.81ZM76.0646 105.057H76.78C77.1147 105.057 77.3938 104.996 77.6175 104.874C77.8411 104.75 78.0092 104.567 78.1218 104.323C78.2344 104.077 78.2907 103.771 78.2907 103.403C78.2907 103.036 78.2344 102.731 78.1218 102.488C78.0092 102.244 77.8426 102.062 77.6221 101.942C77.4032 101.82 77.1311 101.759 76.8058 101.759H76.0646V105.057Z" fill="#7A7A7A"/>
<path d="M23.4978 114.821V123.056H22.2512V116.067H22.2029L20.2325 117.354V116.164L22.2874 114.821H23.4978ZM26.3586 121.93L26.2983 122.369C26.2581 122.69 26.1897 123.026 26.0932 123.374C25.9994 123.725 25.9015 124.051 25.7996 124.351C25.7004 124.652 25.6187 124.89 25.5543 125.067H24.7018C24.7367 124.901 24.7849 124.676 24.8466 124.391C24.9083 124.11 24.9686 123.795 25.0276 123.446C25.0865 123.098 25.1308 122.743 25.1603 122.381L25.2005 121.93H26.3586ZM29.6979 114.821V123.056H28.4513V116.067H28.4031L26.4327 117.354V116.164L28.4875 114.821H29.6979ZM31.5665 123.056V114.821H32.8091V118.754H32.9096L36.3639 114.821H37.9282L34.6066 118.528L37.9402 123.056H36.4443L33.7822 119.377L32.8091 120.495V123.056H31.5665Z" fill="#242424"/>
<rect x="43.2993" y="114.113" width="21.7746" height="9.88732" rx="1.88732" fill="#E0F0E4"/>
<path d="M47.1809 120.365V117.646H47.7218V120.365H47.1809ZM46.0932 119.275V118.736H48.8116V119.275H46.0932ZM51.1117 121.113C50.8356 121.113 50.589 121.065 50.3718 120.97C50.156 120.875 49.9851 120.743 49.8591 120.574C49.7345 120.404 49.6674 120.207 49.6581 119.983H50.2894C50.2974 120.105 50.3383 120.211 50.412 120.3C50.4871 120.389 50.585 120.457 50.7056 120.505C50.8262 120.554 50.9603 120.578 51.1077 120.578C51.2699 120.578 51.4133 120.55 51.538 120.493C51.664 120.437 51.7625 120.359 51.8336 120.258C51.9046 120.156 51.9401 120.039 51.9401 119.906C51.9401 119.768 51.9046 119.647 51.8336 119.542C51.7639 119.436 51.6613 119.353 51.5259 119.293C51.3919 119.233 51.2297 119.203 51.0394 119.203H50.6915V118.696H51.0394C51.1922 118.696 51.3262 118.668 51.4415 118.613C51.5581 118.559 51.6493 118.482 51.7149 118.384C51.7806 118.285 51.8135 118.169 51.8135 118.036C51.8135 117.909 51.7846 117.798 51.727 117.705C51.6707 117.609 51.5903 117.535 51.4857 117.481C51.3825 117.428 51.2605 117.401 51.1198 117.401C50.9857 117.401 50.8604 117.426 50.7438 117.475C50.6285 117.524 50.5347 117.593 50.4623 117.685C50.3899 117.774 50.3511 117.882 50.3457 118.008H49.7445C49.7512 117.786 49.8169 117.59 49.9416 117.421C50.0676 117.252 50.2338 117.12 50.4402 117.025C50.6466 116.93 50.8758 116.882 51.1278 116.882C51.3919 116.882 51.6198 116.934 51.8115 117.037C52.0045 117.139 52.1533 117.275 52.2578 117.445C52.3637 117.616 52.416 117.802 52.4146 118.004C52.416 118.235 52.3516 118.43 52.2216 118.591C52.0929 118.752 51.9214 118.86 51.7069 118.915V118.947C51.9803 118.989 52.1921 119.097 52.3423 119.273C52.4937 119.449 52.5688 119.666 52.5675 119.926C52.5688 120.153 52.5058 120.356 52.3785 120.536C52.2525 120.715 52.0802 120.857 51.8617 120.96C51.6432 121.062 51.3932 121.113 51.1117 121.113ZM53.61 121.095C53.5001 121.095 53.4056 121.056 53.3265 120.978C53.2474 120.899 53.2078 120.804 53.2078 120.692C53.2078 120.583 53.2474 120.489 53.3265 120.411C53.4056 120.332 53.5001 120.292 53.61 120.292C53.7199 120.292 53.8144 120.332 53.8935 120.411C53.9726 120.489 54.0121 120.583 54.0121 120.692C54.0121 120.766 53.9933 120.834 53.9558 120.896C53.9196 120.956 53.8714 121.004 53.811 121.04C53.7507 121.077 53.6837 121.095 53.61 121.095ZM54.7229 120.252V119.749L56.5023 116.939H56.8984V117.679H56.647L55.3743 119.693V119.725H57.8132V120.252H54.7229ZM56.6752 121.056V120.099L56.6792 119.87V116.939H57.2683V121.056H56.6752ZM60.6633 120.284V120.067C60.6633 119.912 60.6955 119.77 60.7598 119.641C60.8255 119.511 60.9207 119.407 61.0453 119.329C61.1713 119.25 61.3235 119.211 61.5017 119.211C61.684 119.211 61.8369 119.249 61.9602 119.327C62.0835 119.405 62.1767 119.509 62.2397 119.639C62.304 119.769 62.3362 119.912 62.3362 120.067V120.284C62.3362 120.44 62.304 120.583 62.2397 120.713C62.1753 120.841 62.0808 120.945 61.9562 121.024C61.8328 121.102 61.6814 121.141 61.5017 121.141C61.3208 121.141 61.168 121.102 61.0433 121.024C60.9187 120.945 60.8242 120.841 60.7598 120.713C60.6955 120.583 60.6633 120.44 60.6633 120.284ZM61.1318 120.067V120.284C61.1318 120.4 61.1593 120.504 61.2142 120.598C61.2692 120.692 61.365 120.739 61.5017 120.739C61.6371 120.739 61.7316 120.692 61.7852 120.598C61.8389 120.504 61.8657 120.4 61.8657 120.284V120.067C61.8657 119.952 61.8395 119.847 61.7873 119.753C61.7363 119.66 61.6412 119.613 61.5017 119.613C61.3677 119.613 61.2725 119.66 61.2162 119.753C61.1599 119.847 61.1318 119.952 61.1318 120.067ZM58.5923 117.928V117.711C58.5923 117.555 58.6245 117.412 58.6889 117.282C58.7545 117.152 58.8497 117.049 58.9744 116.971C59.1004 116.893 59.2525 116.854 59.4308 116.854C59.6131 116.854 59.7659 116.893 59.8892 116.971C60.0125 117.049 60.1057 117.152 60.1687 117.282C60.2317 117.412 60.2632 117.555 60.2632 117.711V117.928C60.2632 118.083 60.231 118.226 60.1667 118.356C60.1037 118.485 60.0098 118.589 59.8852 118.668C59.7619 118.745 59.6104 118.784 59.4308 118.784C59.2485 118.784 59.095 118.745 58.9703 118.668C58.847 118.589 58.7532 118.485 58.6889 118.356C58.6245 118.226 58.5923 118.083 58.5923 117.928ZM59.0628 117.711V117.928C59.0628 118.043 59.0896 118.148 59.1433 118.241C59.1982 118.335 59.2941 118.382 59.4308 118.382C59.5648 118.382 59.6587 118.335 59.7123 118.241C59.7672 118.148 59.7947 118.043 59.7947 117.928V117.711C59.7947 117.595 59.7686 117.491 59.7163 117.397C59.664 117.303 59.5688 117.256 59.4308 117.256C59.2967 117.256 59.2016 117.303 59.1453 117.397C59.0903 117.491 59.0628 117.595 59.0628 117.711ZM58.7834 121.056L61.6143 116.939H62.0949L59.2639 121.056H58.7834Z" fill="#377E36"/>
<rect x="170.803" y="93.3839" width="150.042" height="38.0986" rx="3.53873" fill="white"/>
<rect x="170.803" y="93.3839" width="150.042" height="38.0986" rx="3.53873" stroke="#F2F2F2" stroke-width="0.471831"/>
<g clip-path="url(#clip5_937_7130)">
<circle cx="177.645" cy="103.31" r="1.41549" fill="#A4DDDC"/>
</g>
<path d="M186.391 102.326C186.369 102.122 186.277 101.962 186.114 101.848C185.953 101.734 185.743 101.677 185.485 101.677C185.304 101.677 185.148 101.704 185.019 101.759C184.889 101.813 184.789 101.888 184.721 101.982C184.652 102.075 184.617 102.183 184.615 102.303C184.615 102.403 184.638 102.49 184.683 102.563C184.73 102.637 184.793 102.699 184.873 102.751C184.953 102.801 185.041 102.843 185.138 102.878C185.235 102.912 185.333 102.941 185.431 102.964L185.882 103.077C186.063 103.119 186.238 103.176 186.405 103.248C186.574 103.32 186.725 103.411 186.858 103.52C186.992 103.63 187.098 103.762 187.177 103.917C187.255 104.072 187.294 104.253 187.294 104.461C187.294 104.742 187.222 104.99 187.078 105.205C186.934 105.417 186.726 105.584 186.454 105.704C186.184 105.823 185.856 105.883 185.471 105.883C185.098 105.883 184.773 105.825 184.498 105.709C184.224 105.593 184.01 105.424 183.855 105.202C183.702 104.98 183.619 104.71 183.606 104.391H184.463C184.475 104.558 184.527 104.697 184.617 104.808C184.708 104.919 184.826 105.002 184.972 105.057C185.119 105.112 185.283 105.139 185.464 105.139C185.653 105.139 185.819 105.111 185.962 105.054C186.105 104.997 186.218 104.917 186.299 104.815C186.381 104.712 186.422 104.592 186.424 104.454C186.422 104.329 186.385 104.226 186.313 104.144C186.241 104.061 186.141 103.993 186.011 103.938C185.883 103.882 185.732 103.832 185.56 103.788L185.014 103.647C184.618 103.545 184.305 103.391 184.076 103.185C183.847 102.977 183.733 102.701 183.733 102.357C183.733 102.074 183.81 101.826 183.963 101.613C184.118 101.401 184.328 101.236 184.594 101.118C184.86 100.999 185.161 100.94 185.497 100.94C185.838 100.94 186.137 100.999 186.393 101.118C186.651 101.236 186.854 101.399 187.001 101.609C187.148 101.817 187.224 102.056 187.228 102.326H186.391ZM187.834 105.81V101.006H189.635C190.004 101.006 190.314 101.075 190.564 101.212C190.816 101.35 191.006 101.539 191.134 101.78C191.264 102.019 191.329 102.291 191.329 102.596C191.329 102.904 191.264 103.178 191.134 103.417C191.005 103.656 190.813 103.845 190.56 103.982C190.306 104.119 189.994 104.187 189.624 104.187H188.43V103.471H189.506C189.722 103.471 189.899 103.434 190.037 103.359C190.174 103.283 190.276 103.18 190.341 103.049C190.409 102.918 190.442 102.767 190.442 102.596C190.442 102.426 190.409 102.276 190.341 102.146C190.276 102.016 190.173 101.915 190.034 101.843C189.897 101.77 189.719 101.733 189.502 101.733H188.704V105.81H187.834ZM191.849 105.81V101.006H194.974V101.735H192.719V103.039H194.812V103.769H192.719V105.08H194.992V105.81H191.849ZM199.573 101.006V105.81H198.799L196.536 102.537H196.496V105.81H195.626V101.006H196.404L198.666 104.28H198.708V101.006H199.573ZM201.914 105.81H200.286V101.006H201.947C202.424 101.006 202.833 101.102 203.176 101.294C203.52 101.485 203.784 101.759 203.969 102.118C204.153 102.476 204.245 102.904 204.245 103.403C204.245 103.904 204.152 104.334 203.966 104.693C203.782 105.053 203.515 105.329 203.166 105.521C202.819 105.714 202.402 105.81 201.914 105.81ZM201.156 105.057H201.872C202.206 105.057 202.485 104.996 202.709 104.874C202.933 104.75 203.101 104.567 203.213 104.323C203.326 104.077 203.382 103.771 203.382 103.403C203.382 103.036 203.326 102.731 203.213 102.488C203.101 102.244 202.934 102.062 202.714 101.942C202.495 101.82 202.223 101.759 201.897 101.759H201.156V105.057ZM205.707 101.006V105.81H204.836V101.006H205.707ZM210.361 101.006V105.81H209.587L207.323 102.537H207.283V105.81H206.413V101.006H207.192L209.453 104.28H209.495V101.006H210.361ZM214.292 102.54C214.253 102.413 214.199 102.3 214.13 102.2C214.063 102.098 213.981 102.011 213.886 101.939C213.792 101.867 213.684 101.813 213.562 101.777C213.44 101.74 213.307 101.721 213.163 101.721C212.905 101.721 212.676 101.786 212.474 101.916C212.272 102.046 212.113 102.236 211.998 102.488C211.883 102.738 211.826 103.043 211.826 103.403C211.826 103.766 211.883 104.073 211.998 104.325C212.112 104.577 212.271 104.768 212.474 104.9C212.677 105.029 212.913 105.094 213.182 105.094C213.426 105.094 213.637 105.047 213.816 104.954C213.995 104.86 214.134 104.727 214.231 104.555C214.328 104.381 214.376 104.178 214.376 103.945L214.573 103.975H213.269V103.295H215.218V103.872C215.218 104.284 215.131 104.639 214.956 104.94C214.78 105.24 214.54 105.471 214.233 105.634C213.927 105.795 213.575 105.875 213.178 105.875C212.735 105.875 212.346 105.776 212.012 105.578C211.679 105.377 211.418 105.094 211.231 104.726C211.044 104.357 210.951 103.919 210.951 103.412C210.951 103.025 211.006 102.678 211.116 102.373C211.227 102.068 211.381 101.81 211.58 101.597C211.779 101.383 212.012 101.22 212.279 101.109C212.547 100.996 212.837 100.94 213.152 100.94C213.418 100.94 213.665 100.979 213.895 101.057C214.125 101.134 214.329 101.243 214.508 101.386C214.687 101.528 214.835 101.697 214.951 101.892C215.067 102.088 215.142 102.304 215.178 102.54H214.292Z" fill="#7A7A7A"/>
<path d="M177.021 123.056V122.156L179.808 119.268C180.106 118.955 180.351 118.68 180.544 118.444C180.74 118.205 180.886 117.979 180.982 117.764C181.079 117.55 181.127 117.322 181.127 117.081C181.127 116.807 181.063 116.571 180.934 116.373C180.805 116.172 180.63 116.018 180.407 115.911C180.185 115.801 179.934 115.746 179.655 115.746C179.36 115.746 179.103 115.806 178.883 115.927C178.663 116.047 178.494 116.218 178.376 116.437C178.258 116.657 178.199 116.915 178.199 117.209H177.013C177.013 116.708 177.128 116.27 177.359 115.894C177.59 115.519 177.906 115.228 178.308 115.022C178.71 114.813 179.167 114.708 179.679 114.708C180.197 114.708 180.652 114.811 181.047 115.018C181.443 115.222 181.753 115.5 181.975 115.854C182.198 116.205 182.309 116.602 182.309 117.045C182.309 117.35 182.252 117.649 182.136 117.941C182.024 118.234 181.827 118.559 181.545 118.918C181.264 119.275 180.872 119.708 180.371 120.217L178.734 121.93V121.991H182.442V123.056H177.021ZM185.074 121.93L185.014 122.369C184.974 122.69 184.906 123.026 184.809 123.374C184.715 123.725 184.617 124.051 184.516 124.351C184.416 124.652 184.335 124.89 184.27 125.067H183.418C183.453 124.901 183.501 124.676 183.562 124.391C183.624 124.11 183.684 123.795 183.743 123.446C183.802 123.098 183.847 122.743 183.876 122.381L183.916 121.93H185.074ZM188.853 123.169C188.301 123.169 187.808 123.074 187.373 122.883C186.942 122.693 186.6 122.429 186.348 122.091C186.099 121.751 185.965 121.357 185.946 120.909H187.208C187.225 121.153 187.306 121.365 187.454 121.544C187.604 121.721 187.8 121.858 188.041 121.955C188.282 122.051 188.55 122.099 188.845 122.099C189.17 122.099 189.456 122.043 189.706 121.93C189.958 121.818 190.155 121.661 190.297 121.46C190.439 121.256 190.51 121.022 190.51 120.756C190.51 120.48 190.439 120.237 190.297 120.028C190.157 119.817 189.952 119.65 189.682 119.53C189.413 119.409 189.089 119.349 188.708 119.349H188.013V118.335H188.708C189.014 118.335 189.282 118.28 189.513 118.171C189.746 118.061 189.928 117.908 190.06 117.712C190.191 117.514 190.257 117.282 190.257 117.016C190.257 116.762 190.199 116.541 190.084 116.353C189.971 116.163 189.81 116.014 189.601 115.907C189.395 115.799 189.151 115.746 188.869 115.746C188.601 115.746 188.351 115.795 188.117 115.894C187.887 115.991 187.699 116.13 187.554 116.313C187.41 116.492 187.332 116.708 187.321 116.96H186.119C186.132 116.515 186.263 116.124 186.513 115.786C186.765 115.448 187.097 115.184 187.51 114.994C187.923 114.803 188.381 114.708 188.885 114.708C189.413 114.708 189.869 114.811 190.253 115.018C190.639 115.222 190.936 115.494 191.145 115.834C191.357 116.175 191.462 116.547 191.459 116.952C191.462 117.413 191.333 117.805 191.073 118.126C190.816 118.448 190.472 118.664 190.043 118.774V118.838C190.59 118.921 191.014 119.138 191.314 119.49C191.617 119.841 191.767 120.276 191.765 120.796C191.767 121.249 191.641 121.656 191.387 122.015C191.135 122.374 190.79 122.657 190.353 122.863C189.916 123.067 189.416 123.169 188.853 123.169ZM192.925 123.056V114.821H194.168V118.754H194.268L197.723 114.821H199.287L195.965 118.528L199.299 123.056H197.803L195.141 119.377L194.168 120.495V123.056H192.925Z" fill="#242424"/>
<rect x="204.947" y="114.113" width="22.7746" height="9.88732" rx="1.88732" fill="#E0F0E4"/>
<path d="M208.508 120.365V117.646H209.049V120.365H208.508ZM207.42 119.275V118.736H210.138V119.275H207.42ZM212.623 116.939V121.056H211.999V117.562H211.975L210.99 118.205V117.61L212.017 116.939H212.623ZM215.299 116.939V121.056H214.675V117.562H214.651L213.666 118.205V117.61L214.694 116.939H215.299ZM216.579 121.095C216.469 121.095 216.375 121.056 216.296 120.978C216.216 120.899 216.177 120.804 216.177 120.692C216.177 120.583 216.216 120.489 216.296 120.411C216.375 120.332 216.469 120.292 216.579 120.292C216.689 120.292 216.783 120.332 216.863 120.411C216.942 120.489 216.981 120.583 216.981 120.692C216.981 120.766 216.962 120.834 216.925 120.896C216.889 120.956 216.84 121.004 216.78 121.04C216.72 121.077 216.653 121.095 216.579 121.095ZM217.692 120.252V119.749L219.471 116.939H219.867V117.679H219.616L218.343 119.693V119.725H220.782V120.252H217.692ZM219.644 121.056V120.099L219.648 119.87V116.939H220.237V121.056H219.644ZM223.632 120.284V120.067C223.632 119.912 223.665 119.77 223.729 119.641C223.795 119.511 223.89 119.407 224.014 119.329C224.14 119.25 224.293 119.211 224.471 119.211C224.653 119.211 224.806 119.249 224.929 119.327C225.053 119.405 225.146 119.509 225.209 119.639C225.273 119.769 225.305 119.912 225.305 120.067V120.284C225.305 120.44 225.273 120.583 225.209 120.713C225.144 120.841 225.05 120.945 224.925 121.024C224.802 121.102 224.65 121.141 224.471 121.141C224.29 121.141 224.137 121.102 224.012 121.024C223.888 120.945 223.793 120.841 223.729 120.713C223.665 120.583 223.632 120.44 223.632 120.284ZM224.101 120.067V120.284C224.101 120.4 224.128 120.504 224.183 120.598C224.238 120.692 224.334 120.739 224.471 120.739C224.606 120.739 224.701 120.692 224.754 120.598C224.808 120.504 224.835 120.4 224.835 120.284V120.067C224.835 119.952 224.809 119.847 224.756 119.753C224.705 119.66 224.61 119.613 224.471 119.613C224.337 119.613 224.242 119.66 224.185 119.753C224.129 119.847 224.101 119.952 224.101 120.067ZM221.561 117.928V117.711C221.561 117.555 221.594 117.412 221.658 117.282C221.724 117.152 221.819 117.049 221.943 116.971C222.069 116.893 222.222 116.854 222.4 116.854C222.582 116.854 222.735 116.893 222.858 116.971C222.982 117.049 223.075 117.152 223.138 117.282C223.201 117.412 223.232 117.555 223.232 117.711V117.928C223.232 118.083 223.2 118.226 223.136 118.356C223.073 118.485 222.979 118.589 222.854 118.668C222.731 118.745 222.579 118.784 222.4 118.784C222.218 118.784 222.064 118.745 221.939 118.668C221.816 118.589 221.722 118.485 221.658 118.356C221.594 118.226 221.561 118.083 221.561 117.928ZM222.032 117.711V117.928C222.032 118.043 222.059 118.148 222.112 118.241C222.167 118.335 222.263 118.382 222.4 118.382C222.534 118.382 222.628 118.335 222.681 118.241C222.736 118.148 222.764 118.043 222.764 117.928V117.711C222.764 117.595 222.738 117.491 222.685 117.397C222.633 117.303 222.538 117.256 222.4 117.256C222.266 117.256 222.171 117.303 222.114 117.397C222.059 117.491 222.032 117.595 222.032 117.711ZM221.752 121.056L224.583 116.939H225.064L222.233 121.056H221.752Z" fill="#377E36"/>
<rect x="13.4473" y="138.088" width="150.042" height="38.0986" rx="3.53873" fill="white"/>
<rect x="13.4473" y="138.088" width="150.042" height="38.0986" rx="3.53873" stroke="#F2F2F2" stroke-width="0.471831"/>
<g clip-path="url(#clip6_937_7130)">
<circle cx="20.289" cy="148.014" r="1.41549" fill="#F6CF7D"/>
</g>
<path d="M27.2948 145.71V150.514H26.4245V145.71H27.2948ZM31.9492 145.71V150.514H31.1751L28.9114 147.242H28.8716V150.514H28.0013V145.71H28.7801L31.0414 148.985H31.0836V145.71H31.9492ZM33.3043 145.71L34.5546 149.491H34.6038L35.8518 145.71H36.8088L35.1152 150.514H34.0408L32.3496 145.71H33.3043ZM37.2057 150.514V145.71H40.3302V146.44H38.076V147.744H40.1684V148.473H38.076V149.785H40.349V150.514H37.2057ZM43.593 147.031C43.5711 146.826 43.4788 146.666 43.3162 146.552C43.1551 146.438 42.9456 146.381 42.6875 146.381C42.5061 146.381 42.3505 146.408 42.2207 146.463C42.0909 146.518 41.9916 146.592 41.9228 146.686C41.854 146.78 41.8188 146.887 41.8173 147.007C41.8173 147.107 41.8399 147.194 41.8853 147.268C41.9322 147.341 41.9955 147.404 42.0753 147.455C42.155 147.505 42.2434 147.548 42.3404 147.582C42.4373 147.616 42.5351 147.645 42.6336 147.669L43.084 147.781C43.2654 147.824 43.4397 147.881 43.6071 147.953C43.776 148.025 43.9269 148.115 44.0598 148.225C44.1943 148.334 44.3006 148.466 44.3788 148.621C44.457 148.776 44.4961 148.957 44.4961 149.165C44.4961 149.447 44.4242 149.695 44.2803 149.909C44.1364 150.122 43.9284 150.288 43.6563 150.409C43.3858 150.527 43.0582 150.587 42.6735 150.587C42.2997 150.587 41.9752 150.529 41.7 150.413C41.4263 150.298 41.2121 150.129 41.0572 149.907C40.904 149.685 40.8211 149.414 40.8086 149.095H41.6648C41.6773 149.262 41.7289 149.401 41.8196 149.513C41.9103 149.624 42.0284 149.706 42.1738 149.761C42.3208 149.816 42.485 149.843 42.6664 149.843C42.8556 149.843 43.0214 149.815 43.1637 149.759C43.3076 149.701 43.4202 149.621 43.5015 149.52C43.5828 149.416 43.6243 149.296 43.6258 149.158C43.6243 149.033 43.5875 148.93 43.5156 148.849C43.4436 148.766 43.3428 148.697 43.213 148.642C43.0847 148.586 42.9346 148.536 42.7626 148.492L42.216 148.351C41.8204 148.25 41.5076 148.096 41.2777 147.889C41.0494 147.681 40.9353 147.405 40.9353 147.061C40.9353 146.778 41.0119 146.53 41.1651 146.318C41.32 146.105 41.5303 145.94 41.7961 145.823C42.062 145.704 42.363 145.644 42.6993 145.644C43.0402 145.644 43.3389 145.704 43.5953 145.823C43.8534 145.94 44.0559 146.103 44.2029 146.313C44.3499 146.521 44.4257 146.76 44.4304 147.031H43.593ZM44.8249 146.44V145.71H48.6579V146.44H47.173V150.514H46.3098V146.44H44.8249ZM50.0312 145.71V150.514H49.1609V145.71H50.0312ZM54.6855 145.71V150.514H53.9114L51.6478 147.242H51.6079V150.514H50.7376V145.71H51.5164L53.7777 148.985H53.82V145.71H54.6855ZM58.6163 147.244C58.5772 147.118 58.5232 147.004 58.4544 146.904C58.3872 146.802 58.3058 146.716 58.2104 146.644C58.1166 146.572 58.0087 146.518 57.8867 146.482C57.7648 146.444 57.6318 146.426 57.488 146.426C57.2299 146.426 57 146.49 56.7983 146.62C56.5966 146.75 56.4378 146.941 56.3221 147.193C56.208 147.443 56.1509 147.748 56.1509 148.107C56.1509 148.47 56.208 148.778 56.3221 149.029C56.4363 149.281 56.595 149.473 56.7983 149.604C57.0016 149.734 57.2377 149.799 57.5067 149.799C57.7507 149.799 57.9618 149.752 58.1401 149.658C58.3199 149.564 58.4583 149.431 58.5553 149.259C58.6522 149.086 58.7007 148.882 58.7007 148.649L58.8978 148.68H57.5935V148H59.5428V148.577C59.5428 148.988 59.4553 149.344 59.2801 149.644C59.105 149.944 58.8641 150.176 58.5576 150.338C58.2511 150.499 57.8992 150.58 57.502 150.58C57.0595 150.58 56.6709 150.481 56.3362 150.282C56.0031 150.082 55.7427 149.798 55.5551 149.43C55.369 149.061 55.2759 148.623 55.2759 148.117C55.2759 147.729 55.3306 147.383 55.4401 147.078C55.5512 146.773 55.706 146.514 55.9046 146.301C56.1032 146.087 56.3362 145.924 56.6036 145.813C56.871 145.701 57.1619 145.644 57.4762 145.644C57.7421 145.644 57.9899 145.683 58.2198 145.762C58.4497 145.838 58.6538 145.948 58.8321 146.09C59.0119 146.232 59.1597 146.401 59.2754 146.597C59.3911 146.792 59.467 147.008 59.503 147.244H58.6163Z" fill="#7A7A7A"/>
<path d="M22.7903 159.525V167.761H21.5437V160.772H21.4954L19.525 162.059V160.868L21.5799 159.525H22.7903ZM25.6511 166.635L25.5908 167.073C25.5505 167.395 25.4822 167.73 25.3857 168.078C25.2918 168.43 25.194 168.755 25.0921 169.056C24.9929 169.356 24.9112 169.594 24.8468 169.771H23.9943C24.0292 169.605 24.0774 169.38 24.1391 169.096C24.2007 168.814 24.2611 168.499 24.32 168.151C24.379 167.802 24.4232 167.447 24.4527 167.085L24.4929 166.635H25.6511ZM29.4468 167.873C28.9428 167.873 28.4898 167.777 28.0876 167.584C27.6882 167.388 27.3692 167.12 27.1306 166.78C26.892 166.439 26.7646 166.05 26.7486 165.613H27.9549C27.9844 165.967 28.1413 166.258 28.4254 166.486C28.7096 166.714 29.0501 166.828 29.4468 166.828C29.7632 166.828 30.0433 166.755 30.2873 166.611C30.5339 166.463 30.7269 166.261 30.8664 166.003C31.0084 165.746 31.0795 165.453 31.0795 165.123C31.0795 164.788 31.0071 164.489 30.8623 164.226C30.7176 163.963 30.5178 163.757 30.2632 163.607C30.0112 163.457 29.7216 163.38 29.3946 163.378C29.1452 163.378 28.8946 163.42 28.6426 163.506C28.3906 163.592 28.1868 163.705 28.0313 163.844L26.8933 163.675L27.3558 159.525H31.8837V160.591H28.3892L28.1279 162.895H28.1761C28.337 162.739 28.5501 162.609 28.8155 162.505C29.0836 162.4 29.3704 162.348 29.6761 162.348C30.1774 162.348 30.6237 162.467 31.0151 162.706C31.4092 162.945 31.7189 163.27 31.9441 163.683C32.1719 164.093 32.2845 164.565 32.2818 165.099C32.2845 165.632 32.1639 166.108 31.9199 166.526C31.6787 166.944 31.3435 167.274 30.9146 167.515C30.4884 167.754 29.9991 167.873 29.4468 167.873ZM33.3914 167.761V159.525H34.634V163.458H34.7345L38.1888 159.525H39.7531L36.4315 163.233L39.7651 167.761H38.2692L35.6071 164.081L34.634 165.199V167.761H33.3914Z" fill="#242424"/>
<rect x="45.5918" y="158.817" width="19.7746" height="9.88732" rx="1.88732" fill="#FEECEB"/>
<path d="M50.1747 163.44V163.963H48.349V163.44H50.1747ZM52.5301 161.643V165.761H51.9068V162.266H51.8827L50.8975 162.91V162.314L51.9249 161.643H52.5301ZM53.8104 165.799C53.7005 165.799 53.606 165.76 53.5269 165.682C53.4478 165.603 53.4083 165.508 53.4083 165.397C53.4083 165.287 53.4478 165.193 53.5269 165.115C53.606 165.036 53.7005 164.997 53.8104 164.997C53.9203 164.997 54.0148 165.036 54.0939 165.115C54.173 165.193 54.2125 165.287 54.2125 165.397C54.2125 165.471 54.1938 165.538 54.1563 165.6C54.1201 165.66 54.0718 165.708 54.0115 165.745C53.9512 165.781 53.8841 165.799 53.8104 165.799ZM54.9233 164.956V164.454L56.7027 161.643H57.0988V162.383H56.8475L55.5748 164.398V164.43H58.0137V164.956H54.9233ZM56.8756 165.761V164.804L56.8797 164.574V161.643H57.4688V165.761H56.8756ZM60.8638 164.989V164.772C60.8638 164.616 60.8959 164.474 60.9603 164.345C61.0259 164.215 61.1211 164.111 61.2458 164.034C61.3718 163.955 61.5239 163.915 61.7022 163.915C61.8845 163.915 62.0373 163.954 62.1606 164.032C62.2839 164.109 62.3771 164.213 62.4401 164.343C62.5044 164.473 62.5366 164.616 62.5366 164.772V164.989C62.5366 165.144 62.5044 165.287 62.4401 165.417C62.3758 165.546 62.2813 165.649 62.1566 165.729C62.0333 165.806 61.8818 165.845 61.7022 165.845C61.5212 165.845 61.3684 165.806 61.2438 165.729C61.1191 165.649 61.0246 165.546 60.9603 165.417C60.8959 165.287 60.8638 165.144 60.8638 164.989ZM61.3322 164.772V164.989C61.3322 165.104 61.3597 165.208 61.4147 165.302C61.4696 165.396 61.5655 165.443 61.7022 165.443C61.8376 165.443 61.9321 165.396 61.9857 165.302C62.0393 165.208 62.0661 165.104 62.0661 164.989V164.772C62.0661 164.656 62.04 164.552 61.9877 164.458C61.9368 164.364 61.8416 164.317 61.7022 164.317C61.5682 164.317 61.473 164.364 61.4167 164.458C61.3604 164.552 61.3322 164.656 61.3322 164.772ZM58.7928 162.632V162.415C58.7928 162.26 58.825 162.117 58.8893 161.987C58.955 161.857 59.0502 161.753 59.1748 161.675C59.3008 161.597 59.453 161.558 59.6312 161.558C59.8135 161.558 59.9663 161.597 60.0897 161.675C60.213 161.753 60.3061 161.857 60.3691 161.987C60.4321 162.117 60.4636 162.26 60.4636 162.415V162.632C60.4636 162.788 60.4315 162.93 60.3671 163.06C60.3041 163.189 60.2103 163.293 60.0856 163.372C59.9623 163.45 59.8109 163.489 59.6312 163.489C59.4489 163.489 59.2955 163.45 59.1708 163.372C59.0475 163.293 58.9536 163.189 58.8893 163.06C58.825 162.93 58.7928 162.788 58.7928 162.632ZM59.2633 162.415V162.632C59.2633 162.747 59.2901 162.852 59.3437 162.946C59.3987 163.04 59.4945 163.087 59.6312 163.087C59.7653 163.087 59.8591 163.04 59.9127 162.946C59.9677 162.852 59.9952 162.747 59.9952 162.632V162.415C59.9952 162.3 59.969 162.195 59.9167 162.101C59.8645 162.008 59.7693 161.961 59.6312 161.961C59.4972 161.961 59.402 162.008 59.3457 162.101C59.2908 162.195 59.2633 162.3 59.2633 162.415ZM58.9838 165.761L61.8148 161.643H62.2953L59.4643 165.761H58.9838Z" fill="#B12F30"/>
<rect x="171.511" y="138.088" width="150.042" height="38.0986" rx="3.53873" fill="white"/>
<rect x="171.511" y="138.088" width="150.042" height="38.0986" rx="3.53873" stroke="#F2F2F2" stroke-width="0.471831"/>
<g clip-path="url(#clip7_937_7130)">
<circle cx="178.353" cy="148.014" r="1.41549" fill="#697BE9"/>
</g>
<path d="M185.105 150.514H184.176L185.867 145.71H186.942L188.635 150.514H187.706L186.423 146.695H186.386L185.105 150.514ZM185.135 148.631H187.669V149.33H185.135V148.631ZM189.032 150.514V145.71H189.902V149.785H192.018V150.514H189.032ZM192.538 150.514V145.71H193.408V149.785H195.524V150.514H192.538ZM200.149 148.112C200.149 148.63 200.052 149.073 199.858 149.442C199.666 149.81 199.403 150.091 199.07 150.287C198.738 150.482 198.362 150.58 197.942 150.58C197.521 150.58 197.144 150.482 196.811 150.287C196.479 150.09 196.217 149.807 196.023 149.44C195.83 149.071 195.734 148.628 195.734 148.112C195.734 147.594 195.83 147.152 196.023 146.784C196.217 146.415 196.479 146.133 196.811 145.938C197.144 145.742 197.521 145.644 197.942 145.644C198.362 145.644 198.738 145.742 199.07 145.938C199.403 146.133 199.666 146.415 199.858 146.784C200.052 147.152 200.149 147.594 200.149 148.112ZM199.274 148.112C199.274 147.748 199.217 147.44 199.103 147.19C198.99 146.938 198.834 146.748 198.634 146.62C198.433 146.49 198.203 146.426 197.942 146.426C197.68 146.426 197.45 146.49 197.25 146.62C197.049 146.748 196.892 146.938 196.778 147.19C196.665 147.44 196.609 147.748 196.609 148.112C196.609 148.476 196.665 148.785 196.778 149.036C196.892 149.287 197.049 149.477 197.25 149.606C197.45 149.735 197.68 149.799 197.942 149.799C198.203 149.799 198.433 149.735 198.634 149.606C198.834 149.477 198.99 149.287 199.103 149.036C199.217 148.785 199.274 148.476 199.274 148.112ZM204.848 147.331H203.971C203.946 147.187 203.899 147.06 203.832 146.949C203.765 146.836 203.681 146.741 203.581 146.662C203.481 146.584 203.367 146.526 203.239 146.487C203.112 146.446 202.975 146.426 202.828 146.426C202.567 146.426 202.336 146.491 202.134 146.623C201.932 146.752 201.774 146.943 201.66 147.195C201.546 147.445 201.489 147.751 201.489 148.112C201.489 148.48 201.546 148.789 201.66 149.041C201.776 149.291 201.934 149.48 202.134 149.609C202.336 149.735 202.566 149.799 202.826 149.799C202.97 149.799 203.104 149.78 203.229 149.742C203.356 149.703 203.469 149.646 203.569 149.571C203.671 149.496 203.756 149.404 203.825 149.294C203.895 149.185 203.944 149.06 203.971 148.919L204.848 148.924C204.815 149.152 204.744 149.366 204.634 149.566C204.526 149.767 204.385 149.943 204.21 150.097C204.035 150.248 203.83 150.367 203.595 150.453C203.361 150.538 203.1 150.58 202.814 150.58C202.392 150.58 202.015 150.482 201.683 150.287C201.352 150.091 201.091 149.809 200.9 149.44C200.709 149.071 200.614 148.628 200.614 148.112C200.614 147.594 200.71 147.152 200.902 146.784C201.095 146.415 201.357 146.133 201.688 145.938C202.02 145.742 202.395 145.644 202.814 145.644C203.082 145.644 203.33 145.682 203.56 145.757C203.79 145.832 203.995 145.942 204.175 146.088C204.354 146.232 204.502 146.408 204.618 146.618C204.735 146.826 204.812 147.064 204.848 147.331ZM205.968 150.514H205.039L206.73 145.71H207.805L209.498 150.514H208.569L207.286 146.695H207.249L205.968 150.514ZM205.998 148.631H208.532V149.33H205.998V148.631ZM209.103 146.44V145.71H212.936V146.44H211.451V150.514H210.588V146.44H209.103ZM214.31 145.71V150.514H213.439V145.71H214.31ZM219.309 148.112C219.309 148.63 219.212 149.073 219.018 149.442C218.826 149.81 218.563 150.091 218.23 150.287C217.898 150.482 217.522 150.58 217.101 150.58C216.681 150.58 216.304 150.482 215.971 150.287C215.639 150.09 215.376 149.807 215.183 149.44C214.99 149.071 214.894 148.628 214.894 148.112C214.894 147.594 214.99 147.152 215.183 146.784C215.376 146.415 215.639 146.133 215.971 145.938C216.304 145.742 216.681 145.644 217.101 145.644C217.522 145.644 217.898 145.742 218.23 145.938C218.563 146.133 218.826 146.415 219.018 146.784C219.212 147.152 219.309 147.594 219.309 148.112ZM218.434 148.112C218.434 147.748 218.377 147.44 218.263 147.19C218.15 146.938 217.994 146.748 217.793 146.62C217.593 146.49 217.363 146.426 217.101 146.426C216.84 146.426 216.61 146.49 216.409 146.62C216.209 146.748 216.052 146.938 215.938 147.19C215.825 147.44 215.769 147.748 215.769 148.112C215.769 148.476 215.825 148.785 215.938 149.036C216.052 149.287 216.209 149.477 216.409 149.606C216.61 149.735 216.84 149.799 217.101 149.799C217.363 149.799 217.593 149.735 217.793 149.606C217.994 149.477 218.15 149.287 218.263 149.036C218.377 148.785 218.434 148.476 218.434 148.112ZM223.843 145.71V150.514H223.069L220.806 147.242H220.766V150.514H219.896V145.71H220.674L222.936 148.985H222.978V145.71H223.843Z" fill="#7A7A7A"/>
<path d="M180.854 159.525V167.761H179.607V160.772H179.559L177.588 162.059V160.868L179.643 159.525H180.854ZM183.715 166.635L183.654 167.073C183.614 167.395 183.546 167.73 183.449 168.078C183.355 168.43 183.257 168.755 183.156 169.056C183.056 169.356 182.975 169.594 182.91 169.771H182.058C182.093 169.605 182.141 169.38 182.203 169.096C182.264 168.814 182.325 168.499 182.384 168.151C182.442 167.802 182.487 167.447 182.516 167.085L182.556 166.635H183.715ZM187.501 167.873C187.134 167.868 186.772 167.801 186.416 167.672C186.062 167.544 185.74 167.329 185.45 167.029C185.161 166.729 184.929 166.325 184.755 165.818C184.583 165.312 184.497 164.679 184.497 163.92C184.497 163.202 184.568 162.564 184.71 162.006C184.855 161.449 185.063 160.978 185.334 160.595C185.605 160.209 185.932 159.915 186.315 159.714C186.698 159.513 187.129 159.413 187.606 159.413C188.096 159.413 188.532 159.509 188.913 159.702C189.293 159.895 189.602 160.162 189.838 160.502C190.076 160.843 190.228 161.23 190.292 161.664H189.066C188.982 161.321 188.818 161.041 188.571 160.824C188.324 160.607 188.003 160.498 187.606 160.498C187.003 160.498 186.532 160.761 186.194 161.286C185.859 161.812 185.69 162.542 185.688 163.478H185.748C185.89 163.245 186.064 163.046 186.271 162.883C186.48 162.717 186.713 162.589 186.97 162.501C187.231 162.41 187.504 162.364 187.791 162.364C188.268 162.364 188.7 162.481 189.086 162.714C189.474 162.945 189.784 163.264 190.015 163.671C190.245 164.079 190.36 164.545 190.36 165.071C190.36 165.596 190.241 166.072 190.003 166.498C189.767 166.924 189.434 167.262 189.005 167.511C188.576 167.758 188.075 167.879 187.501 167.873ZM187.497 166.828C187.814 166.828 188.096 166.75 188.346 166.595C188.595 166.439 188.792 166.23 188.937 165.967C189.082 165.705 189.154 165.411 189.154 165.087C189.154 164.77 189.083 164.482 188.941 164.222C188.801 163.962 188.608 163.756 188.362 163.603C188.118 163.45 187.839 163.374 187.525 163.374C187.287 163.374 187.066 163.419 186.862 163.51C186.661 163.601 186.484 163.727 186.331 163.888C186.178 164.049 186.058 164.234 185.969 164.443C185.883 164.65 185.84 164.868 185.84 165.099C185.84 165.407 185.912 165.692 186.054 165.955C186.198 166.218 186.395 166.43 186.645 166.591C186.897 166.749 187.181 166.828 187.497 166.828ZM191.466 167.761V159.525H192.708V163.458H192.809L196.263 159.525H197.828L194.506 163.233L197.84 167.761H196.344L193.682 164.081L192.708 165.199V167.761H191.466Z" fill="#242424"/>
<rect x="203.655" y="158.817" width="20.7746" height="9.88732" rx="1.88732" fill="#E0F0E4"/>
<path d="M207.656 165.069V162.351H208.197V165.069H207.656ZM206.568 163.979V163.44H209.287V163.979H206.568ZM210.209 165.761L212.007 162.206V162.176H209.928V161.643H212.65V162.194L210.859 165.761H210.209ZM213.046 165.799C212.936 165.799 212.841 165.76 212.762 165.682C212.683 165.603 212.644 165.508 212.644 165.397C212.644 165.287 212.683 165.193 212.762 165.115C212.841 165.036 212.936 164.997 213.046 164.997C213.156 164.997 213.25 165.036 213.329 165.115C213.408 165.193 213.448 165.287 213.448 165.397C213.448 165.471 213.429 165.538 213.392 165.6C213.355 165.66 213.307 165.708 213.247 165.745C213.186 165.781 213.119 165.799 213.046 165.799ZM215.529 165.829C215.212 165.828 214.94 165.744 214.715 165.578C214.49 165.412 214.318 165.17 214.198 164.852C214.079 164.534 214.019 164.152 214.019 163.704C214.019 163.257 214.079 162.876 214.198 162.56C214.319 162.243 214.492 162.002 214.717 161.836C214.944 161.67 215.214 161.587 215.529 161.587C215.844 161.587 216.114 161.67 216.34 161.838C216.565 162.004 216.737 162.245 216.856 162.562C216.977 162.877 217.037 163.257 217.037 163.704C217.037 164.153 216.978 164.536 216.858 164.854C216.739 165.17 216.567 165.412 216.342 165.58C216.116 165.746 215.846 165.829 215.529 165.829ZM215.529 165.292C215.808 165.292 216.026 165.156 216.183 164.884C216.341 164.612 216.42 164.219 216.42 163.704C216.42 163.362 216.384 163.073 216.311 162.837C216.24 162.6 216.138 162.42 216.004 162.298C215.871 162.175 215.713 162.113 215.529 162.113C215.252 162.113 215.034 162.25 214.876 162.524C214.718 162.797 214.638 163.19 214.637 163.704C214.637 164.047 214.672 164.337 214.743 164.574C214.816 164.81 214.918 164.989 215.051 165.111C215.184 165.232 215.343 165.292 215.529 165.292ZM219.9 164.989V164.772C219.9 164.616 219.932 164.474 219.996 164.345C220.062 164.215 220.157 164.111 220.282 164.034C220.408 163.955 220.56 163.915 220.738 163.915C220.921 163.915 221.074 163.954 221.197 164.032C221.32 164.109 221.413 164.213 221.476 164.343C221.541 164.473 221.573 164.616 221.573 164.772V164.989C221.573 165.144 221.541 165.287 221.476 165.417C221.412 165.546 221.317 165.649 221.193 165.729C221.07 165.806 220.918 165.845 220.738 165.845C220.557 165.845 220.405 165.806 220.28 165.729C220.155 165.649 220.061 165.546 219.996 165.417C219.932 165.287 219.9 165.144 219.9 164.989ZM220.368 164.772V164.989C220.368 165.104 220.396 165.208 220.451 165.302C220.506 165.396 220.602 165.443 220.738 165.443C220.874 165.443 220.968 165.396 221.022 165.302C221.076 165.208 221.102 165.104 221.102 164.989V164.772C221.102 164.656 221.076 164.552 221.024 164.458C220.973 164.364 220.878 164.317 220.738 164.317C220.604 164.317 220.509 164.364 220.453 164.458C220.397 164.552 220.368 164.656 220.368 164.772ZM217.829 162.632V162.415C217.829 162.26 217.861 162.117 217.926 161.987C217.991 161.857 218.086 161.753 218.211 161.675C218.337 161.597 218.489 161.558 218.667 161.558C218.85 161.558 219.003 161.597 219.126 161.675C219.249 161.753 219.342 161.857 219.405 161.987C219.468 162.117 219.5 162.26 219.5 162.415V162.632C219.5 162.788 219.468 162.93 219.403 163.06C219.34 163.189 219.247 163.293 219.122 163.372C218.999 163.45 218.847 163.489 218.667 163.489C218.485 163.489 218.332 163.45 218.207 163.372C218.084 163.293 217.99 163.189 217.926 163.06C217.861 162.93 217.829 162.788 217.829 162.632ZM218.3 162.415V162.632C218.3 162.747 218.326 162.852 218.38 162.946C218.435 163.04 218.531 163.087 218.667 163.087C218.802 163.087 218.895 163.04 218.949 162.946C219.004 162.852 219.031 162.747 219.031 162.632V162.415C219.031 162.3 219.005 162.195 218.953 162.101C218.901 162.008 218.806 161.961 218.667 161.961C218.533 161.961 218.438 162.008 218.382 162.101C218.327 162.195 218.3 162.3 218.3 162.415ZM218.02 165.761L220.851 161.643H221.332L218.501 165.761H218.02Z" fill="#377E36"/>
<defs>
<filter id="filter0_d_937_7130" x="261.137" y="12.2675" width="62.366" height="22.2112" filterUnits="userSpaceOnUse" color-interpolation-filters="sRGB">
<feFlood flood-opacity="0" result="BackgroundImageFix"/>
<feColorMatrix in="SourceAlpha" type="matrix" values="0 0 0 0 0 0 0 0 0 0 0 0 0 0 0 0 0 0 127 0" result="hardAlpha"/>
<feOffset dy="0.943662"/>
<feGaussianBlur stdDeviation="0.943662"/>
<feComposite in2="hardAlpha" operator="out"/>
<feColorMatrix type="matrix" values="0 0 0 0 0 0 0 0 0 0 0 0 0 0 0 0 0 0 0.04 0"/>
<feBlend mode="normal" in2="BackgroundImageFix" result="effect1_dropShadow_937_7130"/>
<feBlend mode="normal" in="SourceGraphic" in2="effect1_dropShadow_937_7130" result="shape"/>
</filter>
<clipPath id="clip0_937_7130">
<path d="M13.2114 74.7463C13.2114 73.9645 13.8452 73.3308 14.6269 73.3308H83.0424V76.1618H14.6269C13.8452 76.1618 13.2114 75.5281 13.2114 74.7463Z" fill="white"/>
</clipPath>
<clipPath id="clip1_937_7130">
<rect width="97.669" height="2.83099" fill="white" transform="translate(86.8169 73.3308)"/>
</clipPath>
<clipPath id="clip2_937_7130">
<rect width="37.2746" height="2.83099" fill="white" transform="translate(188.261 73.3311)"/>
</clipPath>
<clipPath id="clip3_937_7130">
<path d="M229.31 73.3311H320.373C321.155 73.3311 321.789 73.9648 321.789 74.7465C321.789 75.5283 321.155 76.162 320.373 76.162H229.31V73.3311Z" fill="white"/>
</clipPath>
<clipPath id="clip4_937_7130">
<rect width="2.83099" height="2.83099" fill="white" transform="translate(19.5811 101.894)"/>
</clipPath>
<clipPath id="clip5_937_7130">
<rect width="2.83099" height="2.83099" fill="white" transform="translate(176.229 101.894)"/>
</clipPath>
<clipPath id="clip6_937_7130">
<rect width="2.83099" height="2.83099" fill="white" transform="translate(18.8735 146.599)"/>
</clipPath>
<clipPath id="clip7_937_7130">
<rect width="2.83099" height="2.83099" fill="white" transform="translate(176.937 146.599)"/>
</clipPath>
</defs>
</svg>
