<svg width="2050" height="1124" viewBox="0 0 2050 1124" fill="none" xmlns="http://www.w3.org/2000/svg">
<rect x="1401.87" y="1.35162" width="592.009" height="592.009" rx="63.5261" fill="#F1F5F9"/>
<rect x="1401.87" y="1.35162" width="592.009" height="592.009" rx="63.5261" stroke="#F1F5F9" stroke-width="2.70324"/>
<path d="M1702.38 56.7681L1706.89 61.2735L1697.88 70.2843L1688.87 61.2735L1693.37 56.7681H1702.38Z" fill="#F5BE5A"/>
<path d="M1675.35 74.7896H1688.87V61.2735H1682.11L1675.35 68.0316V74.7896Z" fill="#F5BE5A"/>
<path d="M1675.35 92.8112L1684.36 83.8004L1675.35 74.7896L1670.85 79.295V88.3058L1675.35 92.8112Z" fill="#F5BE5A"/>
<path d="M1688.87 106.327H1682.11L1675.35 99.5693V92.8112H1688.87V106.327Z" fill="#F5BE5A"/>
<path d="M1706.89 106.327L1702.38 110.833H1693.37L1688.87 106.327L1697.88 97.3166L1706.89 106.327Z" fill="#F5BE5A"/>
<path d="M1720.41 92.8112V99.5693L1713.65 106.327H1706.89V92.8112H1720.41Z" fill="#F5BE5A"/>
<path d="M1720.41 74.7896L1724.91 79.295V88.3058L1720.41 92.8112L1711.39 83.8004L1720.41 74.7896Z" fill="#F5BE5A"/>
<path d="M1720.41 74.7896V68.0316L1713.65 61.2735H1706.89V74.7896H1720.41Z" fill="#F5BE5A"/>
<path d="M1612.72 153.048L1620.33 173.722L1621.24 176.966L1622.1 173.722L1629.72 153.048H1635.56L1624.48 182.459H1617.65L1606.53 153.048H1612.72ZM1642.06 166.888H1636.48C1637.22 161.741 1640.98 158.627 1646.82 158.627C1653.26 158.627 1656.55 162.433 1656.55 167.797V176.793C1656.55 179.648 1656.81 181.248 1657.24 182.459H1651.49C1651.19 181.68 1651.06 180.556 1651.01 179.302C1649.11 181.983 1646.26 183.108 1643.49 183.108C1638.95 183.108 1635.7 180.859 1635.7 176.404C1635.7 173.246 1637.48 170.868 1641.02 169.7C1644.09 168.662 1647.08 168.402 1650.97 168.359V167.797C1650.97 164.812 1649.54 163.212 1646.47 163.212C1643.83 163.212 1642.41 164.682 1642.06 166.888ZM1641.28 176.101C1641.28 177.874 1642.67 178.999 1644.91 178.999C1648.33 178.999 1650.97 176.231 1650.97 172.771V171.776C1643.1 171.906 1641.28 173.765 1641.28 176.101ZM1681.9 167.494H1676.36C1675.84 164.466 1674.03 163.212 1671.69 163.212C1668.27 163.212 1666.46 165.937 1666.46 170.911C1666.46 175.798 1668.36 178.523 1671.86 178.523C1674.24 178.523 1675.93 177.226 1676.49 174.587H1682.07C1681.03 180.383 1676.97 183.108 1671.73 183.108C1664.9 183.108 1660.75 178.437 1660.75 170.911C1660.75 163.039 1665.03 158.627 1671.69 158.627C1676.97 158.627 1681.12 161.568 1681.9 167.494ZM1691.27 166.888H1685.69C1686.42 161.741 1690.19 158.627 1696.03 158.627C1702.47 158.627 1705.76 162.433 1705.76 167.797V176.793C1705.76 179.648 1706.02 181.248 1706.45 182.459H1700.7C1700.39 181.68 1700.26 180.556 1700.22 179.302C1698.32 181.983 1695.46 183.108 1692.69 183.108C1688.15 183.108 1684.91 180.859 1684.91 176.404C1684.91 173.246 1686.68 170.868 1690.23 169.7C1693.3 168.662 1696.28 168.402 1700.18 168.359V167.797C1700.18 164.812 1698.75 163.212 1695.68 163.212C1693.04 163.212 1691.61 164.682 1691.27 166.888ZM1690.49 176.101C1690.49 177.874 1691.87 178.999 1694.12 178.999C1697.54 178.999 1700.18 176.231 1700.18 172.771V171.776C1692.31 171.906 1690.49 173.765 1690.49 176.101ZM1711.77 175.236V163.558H1708.79V159.276H1711.77V153.956H1717.31V159.276H1722.19V163.558H1717.31V174.76C1717.31 177.182 1718 178.48 1721.07 178.48H1722.11V182.545C1721.5 182.848 1720.25 183.108 1718.73 183.108C1714.02 183.108 1711.77 180.426 1711.77 175.236ZM1725.44 156.681V151.318H1730.98V156.681H1725.44ZM1725.44 182.459V159.276H1730.98V182.459H1725.44ZM1746.08 183.108C1739.2 183.108 1734.96 178.48 1734.96 170.911C1734.96 163.039 1739.33 158.627 1746.08 158.627C1752.91 158.627 1757.15 163.298 1757.15 170.911C1757.15 178.696 1752.78 183.108 1746.08 183.108ZM1746.08 178.523C1749.58 178.523 1751.44 175.841 1751.44 170.911C1751.44 165.98 1749.54 163.212 1746.08 163.212C1742.53 163.212 1740.67 165.937 1740.67 170.911C1740.67 175.798 1742.57 178.523 1746.08 178.523ZM1761.17 182.459V159.276H1766.71V162.39C1768.22 159.882 1770.64 158.627 1773.59 158.627C1778.21 158.627 1781.37 161.395 1781.37 167.018V182.459H1775.83V168.143C1775.83 164.985 1774.49 163.212 1771.68 163.212C1768.61 163.212 1766.71 165.894 1766.71 169.008V182.459H1761.17Z" fill="#262626"/>
<path d="M1507.95 222.459C1507.95 228.168 1520.35 223.738 1520.35 232.034C1520.35 235.929 1517.2 238.1 1512.88 238.1C1508.54 238.1 1505.57 236.108 1504.68 232.034H1507.53C1508.19 234.443 1510 235.751 1512.91 235.751C1515.95 235.751 1517.55 234.413 1517.55 232.391C1517.55 226.206 1505.15 230.815 1505.15 222.637C1505.15 219.723 1507.59 217.166 1512.05 217.166C1515.95 217.166 1519.07 219.039 1519.81 223.351H1516.93C1516.3 220.675 1514.58 219.515 1511.99 219.515C1509.43 219.515 1507.95 220.675 1507.95 222.459ZM1525.95 227.098H1523.34C1523.84 223.619 1526.13 221.567 1530 221.567C1534.22 221.567 1536.27 224.035 1536.27 227.722V233.937C1536.27 235.751 1536.42 236.881 1536.84 237.743H1534.07C1533.77 237.119 1533.68 236.197 1533.66 235.245C1532.32 237.238 1530.18 238.1 1528.27 238.1C1525 238.1 1522.8 236.583 1522.8 233.58C1522.8 231.409 1523.99 229.833 1526.31 229.06C1528.45 228.347 1530.62 228.168 1533.66 228.139V227.782C1533.66 225.224 1532.47 223.827 1529.76 223.827C1527.5 223.827 1526.28 225.076 1525.95 227.098ZM1525.48 233.521C1525.48 234.978 1526.7 235.84 1528.54 235.84C1531.45 235.84 1533.66 233.55 1533.66 230.845V230.101C1526.93 230.161 1525.48 231.588 1525.48 233.521ZM1543.94 237.743L1538.05 221.954H1540.87L1545.24 234.205L1545.63 235.572L1546.02 234.205L1550.39 221.954H1553.03L1547.15 237.743H1543.94ZM1568.9 232.599C1568.04 236.286 1565.4 238.1 1561.8 238.1C1557.22 238.1 1554.45 235.007 1554.45 229.863C1554.45 224.511 1557.22 221.567 1561.65 221.567C1566.11 221.567 1568.78 224.63 1568.78 229.655V230.309H1557.13C1557.28 233.848 1558.94 235.84 1561.8 235.84C1564.03 235.84 1565.6 234.77 1566.17 232.599H1568.9ZM1561.65 223.827C1559.12 223.827 1557.6 225.403 1557.22 228.347H1566.05C1565.69 225.433 1564.12 223.827 1561.65 223.827ZM1576.29 224.035V221.954H1578.49V220.883C1578.49 217.553 1579.86 215.977 1582.77 215.977C1583.43 215.977 1583.96 216.096 1584.23 216.215V218.088H1583.96C1581.67 218.088 1581.11 218.98 1581.11 220.883V221.954H1584.23V224.035H1581.11V237.743H1578.49V224.035H1576.29ZM1592.75 238.1C1588.23 238.1 1585.52 235.007 1585.52 229.863C1585.52 224.511 1588.32 221.567 1592.75 221.567C1597.27 221.567 1599.98 224.719 1599.98 229.863C1599.98 235.186 1597.18 238.1 1592.75 238.1ZM1592.75 235.84C1595.69 235.84 1597.3 233.729 1597.3 229.863C1597.3 226.027 1595.66 223.827 1592.75 223.827C1589.81 223.827 1588.2 225.968 1588.2 229.863C1588.2 233.669 1589.84 235.84 1592.75 235.84ZM1603.34 237.743V221.954H1605.96V224.392C1607.03 222.459 1608.73 221.567 1610.63 221.567C1611.25 221.567 1611.82 221.716 1612.12 221.954V224.303C1611.67 224.154 1611.1 224.095 1610.48 224.095C1607.33 224.095 1605.96 226.057 1605.96 228.912V237.743H1603.34ZM1621.1 244.642C1620.51 244.642 1619.88 244.493 1619.56 244.404V242.382H1620.36C1622.29 242.382 1622.83 241.995 1624.37 238.457L1624.91 237.238L1618.46 221.954H1621.28L1625.56 232.391L1626.28 234.502L1626.99 232.391L1631.15 221.954H1633.83L1626.46 239.825C1624.88 243.631 1623.84 244.642 1621.1 244.642ZM1642.35 238.1C1637.83 238.1 1635.12 235.007 1635.12 229.863C1635.12 224.511 1637.92 221.567 1642.35 221.567C1646.87 221.567 1649.57 224.719 1649.57 229.863C1649.57 235.186 1646.78 238.1 1642.35 238.1ZM1642.35 235.84C1645.29 235.84 1646.9 233.729 1646.9 229.863C1646.9 226.027 1645.26 223.827 1642.35 223.827C1639.4 223.827 1637.8 225.968 1637.8 229.863C1637.8 233.669 1639.43 235.84 1642.35 235.84ZM1662.99 231.291V221.954H1665.61V237.743H1662.99V235.602C1661.92 237.267 1660.26 238.1 1658.2 238.1C1654.9 238.1 1652.94 236.167 1652.94 232.51V221.954H1655.56V231.974C1655.56 234.353 1656.6 235.87 1658.92 235.87C1661.48 235.87 1662.99 233.55 1662.99 231.291ZM1669.78 237.743V221.954H1672.4V224.392C1673.47 222.459 1675.17 221.567 1677.07 221.567C1677.69 221.567 1678.26 221.716 1678.56 221.954V224.303C1678.11 224.154 1677.54 224.095 1676.92 224.095C1673.77 224.095 1672.4 226.057 1672.4 228.912V237.743H1669.78ZM1692.75 238.1C1688.55 238.1 1686.03 235.007 1686.03 229.863C1686.03 224.511 1688.61 221.567 1692.75 221.567C1694.62 221.567 1696.14 222.34 1697.18 223.797V216.334H1699.79V237.743H1697.18V235.751C1696.14 237.238 1694.62 238.1 1692.75 238.1ZM1692.93 235.84C1695.69 235.84 1697.18 233.729 1697.18 229.863C1697.18 226.027 1695.63 223.827 1692.93 223.827C1690.19 223.827 1688.7 225.968 1688.7 229.863C1688.7 233.669 1690.25 235.84 1692.93 235.84ZM1703.96 237.743V221.954H1706.58V224.392C1707.65 222.459 1709.34 221.567 1711.25 221.567C1711.87 221.567 1712.44 221.716 1712.73 221.954V224.303C1712.29 224.154 1711.72 224.095 1711.1 224.095C1707.95 224.095 1706.58 226.057 1706.58 228.912V237.743H1703.96ZM1728.41 232.599C1727.55 236.286 1724.9 238.1 1721.31 238.1C1716.73 238.1 1713.96 235.007 1713.96 229.863C1713.96 224.511 1716.73 221.567 1721.16 221.567C1725.62 221.567 1728.29 224.63 1728.29 229.655V230.309H1716.64C1716.79 233.848 1718.45 235.84 1721.31 235.84C1723.54 235.84 1725.11 234.77 1725.68 232.599H1728.41ZM1721.16 223.827C1718.63 223.827 1717.11 225.403 1716.73 228.347H1725.56C1725.2 225.433 1723.63 223.827 1721.16 223.827ZM1734.19 227.098H1731.57C1732.08 223.619 1734.37 221.567 1738.23 221.567C1742.46 221.567 1744.51 224.035 1744.51 227.722V233.937C1744.51 235.751 1744.66 236.881 1745.07 237.743H1742.31C1742.01 237.119 1741.92 236.197 1741.89 235.245C1740.55 237.238 1738.41 238.1 1736.51 238.1C1733.24 238.1 1731.04 236.583 1731.04 233.58C1731.04 231.409 1732.23 229.833 1734.55 229.06C1736.69 228.347 1738.86 228.168 1741.89 228.139V227.782C1741.89 225.224 1740.7 223.827 1738 223.827C1735.74 223.827 1734.52 225.076 1734.19 227.098ZM1733.71 233.521C1733.71 234.978 1734.93 235.84 1736.78 235.84C1739.69 235.84 1741.89 233.55 1741.89 230.845V230.101C1735.17 230.161 1733.71 231.588 1733.71 233.521ZM1748.8 237.743V221.954H1751.41V223.976C1752.43 222.37 1754 221.567 1755.93 221.567C1758.11 221.567 1759.68 222.519 1760.42 224.362C1761.47 222.519 1763.19 221.567 1765.3 221.567C1768.51 221.567 1770.45 223.53 1770.45 227.187V237.743H1767.83V227.722C1767.83 225.343 1766.88 223.797 1764.74 223.797C1762.36 223.797 1760.93 226.146 1760.93 228.406V237.743H1758.31V227.722C1758.31 225.343 1757.36 223.797 1755.22 223.797C1752.84 223.797 1751.41 226.146 1751.41 228.406V237.743H1748.8ZM1784.52 237.743L1778.63 221.954H1781.46L1785.83 234.205L1786.22 235.572L1786.6 234.205L1790.97 221.954H1793.62L1787.73 237.743H1784.52ZM1798.25 227.098H1795.63C1796.14 223.619 1798.43 221.567 1802.29 221.567C1806.52 221.567 1808.57 224.035 1808.57 227.722V233.937C1808.57 235.751 1808.72 236.881 1809.13 237.743H1806.37C1806.07 237.119 1805.98 236.197 1805.95 235.245C1804.61 237.238 1802.47 238.1 1800.57 238.1C1797.3 238.1 1795.1 236.583 1795.1 233.58C1795.1 231.409 1796.29 229.833 1798.61 229.06C1800.75 228.347 1802.92 228.168 1805.95 228.139V227.782C1805.95 225.224 1804.76 223.827 1802.06 223.827C1799.8 223.827 1798.58 225.076 1798.25 227.098ZM1797.77 233.521C1797.77 234.978 1798.99 235.84 1800.84 235.84C1803.75 235.84 1805.95 233.55 1805.95 230.845V230.101C1799.23 230.161 1797.77 231.588 1797.77 233.521ZM1825.91 227.395H1823.29C1822.88 224.987 1821.27 223.827 1819.19 223.827C1816.28 223.827 1814.73 225.968 1814.73 229.863C1814.73 233.699 1816.37 235.87 1819.28 235.87C1821.39 235.87 1822.91 234.74 1823.41 232.48H1826.03C1825.32 236.405 1822.67 238.1 1819.22 238.1C1814.73 238.1 1812.05 234.978 1812.05 229.863C1812.05 224.511 1814.79 221.567 1819.19 221.567C1822.67 221.567 1825.41 223.53 1825.91 227.395ZM1831.67 227.098H1829.06C1829.56 223.619 1831.85 221.567 1835.72 221.567C1839.94 221.567 1841.99 224.035 1841.99 227.722V233.937C1841.99 235.751 1842.14 236.881 1842.56 237.743H1839.79C1839.49 237.119 1839.4 236.197 1839.37 235.245C1838.04 237.238 1835.9 238.1 1833.99 238.1C1830.72 238.1 1828.52 236.583 1828.52 233.58C1828.52 231.409 1829.71 229.833 1832.03 229.06C1834.17 228.347 1836.34 228.168 1839.37 228.139V227.782C1839.37 225.224 1838.18 223.827 1835.48 223.827C1833.22 223.827 1832 225.076 1831.67 227.098ZM1831.2 233.521C1831.2 234.978 1832.42 235.84 1834.26 235.84C1837.17 235.84 1839.37 233.55 1839.37 230.845V230.101C1832.65 230.161 1831.2 231.588 1831.2 233.521ZM1846.64 233.194V224.035H1844.44V221.954H1846.64V218.326H1849.25V221.954H1852.73V224.035H1849.25V233.194C1849.25 235.097 1849.82 235.989 1852.14 235.989H1852.67V237.862C1852.38 238.011 1851.72 238.1 1850.98 238.1C1848.04 238.1 1846.64 236.524 1846.64 233.194ZM1855.22 219.842V216.334H1857.84V219.842H1855.22ZM1855.22 237.743V221.954H1857.84V237.743H1855.22ZM1868.41 238.1C1863.89 238.1 1861.19 235.007 1861.19 229.863C1861.19 224.511 1863.98 221.567 1868.41 221.567C1872.93 221.567 1875.64 224.719 1875.64 229.863C1875.64 235.186 1872.84 238.1 1868.41 238.1ZM1868.41 235.84C1871.36 235.84 1872.96 233.729 1872.96 229.863C1872.96 226.027 1871.33 223.827 1868.41 223.827C1865.47 223.827 1863.86 225.968 1863.86 229.863C1863.86 233.669 1865.5 235.84 1868.41 235.84ZM1879.01 237.743V221.954H1881.62V224.095C1882.69 222.429 1884.42 221.567 1886.5 221.567C1889.86 221.567 1891.85 223.53 1891.85 227.187V237.743H1889.24V227.722C1889.24 225.343 1888.17 223.797 1885.79 223.797C1883.17 223.797 1881.62 226.146 1881.62 228.406V237.743H1879.01Z" fill="#595959"/>
<path d="M1436.81 486.66V475.631H1440.59C1443.09 475.631 1444.66 476.961 1444.66 479.118C1444.66 481.34 1443.07 482.638 1440.61 482.638H1438.3V486.66H1436.81ZM1440.57 476.847H1438.3V481.421H1440.53C1442.16 481.421 1443.12 480.545 1443.12 479.134C1443.12 477.739 1442.15 476.847 1440.57 476.847ZM1446.57 486.66V475.631H1450.54C1452.86 475.631 1454.34 476.831 1454.34 478.745C1454.34 480.01 1453.72 480.902 1452.68 481.373C1453.4 481.697 1453.77 482.297 1454.05 483.384L1454.87 486.66H1453.3L1452.6 483.676C1452.28 482.297 1451.73 482.038 1450.4 482.038H1448.06V486.66H1446.57ZM1450.51 476.847H1448.06V480.821H1450.48C1451.94 480.821 1452.8 480.043 1452.8 478.826C1452.8 477.61 1451.94 476.847 1450.51 476.847ZM1461.46 486.855C1458.23 486.855 1456.25 484.681 1456.25 481.162C1456.25 477.642 1458.23 475.436 1461.46 475.436C1464.67 475.436 1466.67 477.642 1466.67 481.162C1466.67 484.681 1464.67 486.855 1461.46 486.855ZM1461.46 485.573C1463.76 485.573 1465.14 483.903 1465.14 481.162C1465.14 478.404 1463.76 476.718 1461.46 476.718C1459.16 476.718 1457.78 478.404 1457.78 481.162C1457.78 483.903 1459.16 485.573 1461.46 485.573ZM1477.86 486.66H1476.74L1476.63 484.925C1475.94 486.238 1474.73 486.855 1473.27 486.855C1470.28 486.855 1468.39 484.698 1468.39 481.162C1468.39 477.642 1470.28 475.436 1473.4 475.436C1475.52 475.436 1477.34 476.604 1477.87 478.81H1476.32C1475.91 477.464 1474.76 476.718 1473.35 476.718C1471.19 476.718 1469.91 478.404 1469.91 481.162C1469.91 483.919 1471.21 485.573 1473.4 485.573C1475.04 485.573 1476.33 484.568 1476.43 482.2H1473.61V481.016H1477.86V486.66ZM1480.16 486.66V475.631H1484.14C1486.46 475.631 1487.93 476.831 1487.93 478.745C1487.93 480.01 1487.32 480.902 1486.28 481.373C1486.99 481.697 1487.37 482.297 1487.64 483.384L1488.47 486.66H1486.9L1486.2 483.676C1485.87 482.297 1485.32 482.038 1483.99 482.038H1481.66V486.66H1480.16ZM1484.11 476.847H1481.66V480.821H1484.07C1485.53 480.821 1486.39 480.043 1486.39 478.826C1486.39 477.61 1485.53 476.847 1484.11 476.847ZM1490.25 486.66V475.631H1497.73V476.847H1491.75V480.335H1497.13V481.551H1491.75V485.444H1497.73V486.66H1490.25ZM1500.85 478.323C1500.85 481.438 1507.61 479.021 1507.61 483.546C1507.61 485.671 1505.89 486.855 1503.54 486.855C1501.17 486.855 1499.55 485.768 1499.06 483.546H1500.62C1500.97 484.86 1501.96 485.573 1503.55 485.573C1505.21 485.573 1506.08 484.844 1506.08 483.741C1506.08 480.367 1499.32 482.881 1499.32 478.421C1499.32 476.831 1500.65 475.436 1503.08 475.436C1505.21 475.436 1506.91 476.458 1507.32 478.81H1505.74C1505.4 477.35 1504.46 476.718 1503.05 476.718C1501.66 476.718 1500.85 477.35 1500.85 478.323ZM1510.62 478.323C1510.62 481.438 1517.38 479.021 1517.38 483.546C1517.38 485.671 1515.66 486.855 1513.31 486.855C1510.94 486.855 1509.32 485.768 1508.83 483.546H1510.39C1510.75 484.86 1511.74 485.573 1513.33 485.573C1514.98 485.573 1515.86 484.844 1515.86 483.741C1515.86 480.367 1509.09 482.881 1509.09 478.421C1509.09 476.831 1510.42 475.436 1512.86 475.436C1514.98 475.436 1516.68 476.458 1517.09 478.81H1515.52C1515.18 477.35 1514.23 476.718 1512.82 476.718C1511.43 476.718 1510.62 477.35 1510.62 478.323Z" fill="#595959"/>
<path d="M1923.24 515.216C1923.24 518.179 1921.01 520.017 1917.94 520.017C1914.46 520.017 1912.1 517.703 1912.1 512.75C1912.1 508.101 1914.24 505.463 1917.88 505.463C1920.6 505.463 1922.55 507.02 1923.17 509.831H1920.34C1919.93 508.469 1919.02 507.798 1917.79 507.798C1915.93 507.798 1914.87 509.312 1914.72 512.08C1915.54 511.129 1916.75 510.61 1918.14 510.61C1921.18 510.61 1923.24 512.34 1923.24 515.216ZM1917.88 517.724C1919.41 517.724 1920.41 516.859 1920.41 515.302C1920.41 513.767 1919.39 512.859 1917.88 512.859C1916.32 512.859 1915.32 513.745 1915.32 515.324C1915.32 516.816 1916.32 517.724 1917.88 517.724ZM1929.99 520.017C1926.49 520.017 1924.43 517.314 1924.43 512.75C1924.43 508.101 1926.51 505.463 1929.99 505.463C1933.49 505.463 1935.55 508.166 1935.55 512.75C1935.55 517.378 1933.47 520.017 1929.99 520.017ZM1929.99 517.681C1931.74 517.681 1932.69 515.929 1932.69 512.75C1932.69 509.571 1931.72 507.798 1929.99 507.798C1928.22 507.798 1927.27 509.55 1927.27 512.75C1927.27 515.886 1928.24 517.681 1929.99 517.681ZM1939.94 513.356C1937.8 513.356 1936.53 511.929 1936.53 509.442C1936.53 506.933 1937.8 505.463 1939.94 505.463C1942.08 505.463 1943.36 506.955 1943.36 509.442C1943.36 511.907 1942.1 513.356 1939.94 513.356ZM1939.08 519.692L1948.46 505.787H1950.93L1941.56 519.692H1939.08ZM1939.94 511.626C1940.76 511.626 1941.22 510.847 1941.22 509.442C1941.22 508.014 1940.76 507.236 1939.94 507.236C1939.12 507.236 1938.69 508.014 1938.69 509.442C1938.69 510.847 1939.14 511.626 1939.94 511.626ZM1950.04 519.909C1947.9 519.909 1946.65 518.46 1946.65 515.973C1946.65 513.464 1947.92 511.994 1950.04 511.994C1952.2 511.994 1953.48 513.486 1953.48 515.973C1953.48 518.46 1952.2 519.909 1950.04 519.909ZM1950.04 518.157C1950.86 518.157 1951.32 517.378 1951.32 515.973C1951.32 514.545 1950.86 513.767 1950.04 513.767C1949.24 513.767 1948.81 514.545 1948.81 515.973C1948.81 517.378 1949.24 518.157 1950.04 518.157Z" fill="#262626"/>
<g clip-path="url(#clip0_1052_11996)">
<rect x="1432.96" y="502.803" width="464.957" height="21.6259" rx="10.813" fill="#F1F5F9"/>
<rect x="1432.96" y="502.803" width="286.543" height="21.6259" rx="10.813" fill="#F5BE5A"/>
</g>
<path d="M1661.24 315.67V311.923C1657.27 311.242 1654.54 308.782 1653.9 304.506H1657.99C1658.37 307.231 1660.6 308.707 1663.7 308.707C1666.73 308.707 1668.32 307.193 1668.32 305.073C1668.32 298.829 1654.47 303.068 1654.47 293.682C1654.47 290.465 1656.82 287.475 1661.24 286.908V283.237H1665.07V286.983C1668.59 287.665 1671.31 289.935 1671.76 294.212H1667.64C1667.22 291.411 1665.41 290.2 1662.68 290.2C1660.03 290.2 1658.63 291.6 1658.63 293.682C1658.63 299.397 1672.48 295.498 1672.48 304.695C1672.48 308.971 1669.42 311.583 1665.07 312.037V315.67H1661.24ZM1683.05 315.67V311.923C1679.08 311.242 1676.35 308.782 1675.71 304.506H1679.79C1680.17 307.231 1682.41 308.707 1685.51 308.707C1688.54 308.707 1690.13 307.193 1690.13 305.073C1690.13 298.829 1676.27 303.068 1676.27 293.682C1676.27 290.465 1678.62 287.475 1683.05 286.908V283.237H1686.87V286.983C1690.39 287.665 1693.12 289.935 1693.57 294.212H1689.44C1689.03 291.411 1687.21 290.2 1684.49 290.2C1681.84 290.2 1680.44 291.6 1680.44 293.682C1680.44 299.397 1694.29 295.498 1694.29 304.695C1694.29 308.971 1691.22 311.583 1686.87 312.037V315.67H1683.05ZM1704.85 315.67V311.923C1700.88 311.242 1698.16 308.782 1697.51 304.506H1701.6C1701.98 307.231 1704.21 308.707 1707.31 308.707C1710.34 308.707 1711.93 307.193 1711.93 305.073C1711.93 298.829 1698.08 303.068 1698.08 293.682C1698.08 290.465 1700.43 287.475 1704.85 286.908V283.237H1708.68V286.983C1712.2 287.665 1714.92 289.935 1715.38 294.212H1711.25C1710.83 291.411 1709.02 290.2 1706.29 290.2C1703.64 290.2 1702.24 291.6 1702.24 293.682C1702.24 299.397 1716.09 295.498 1716.09 304.695C1716.09 308.971 1713.03 311.583 1708.68 312.037V315.67H1704.85ZM1726.66 315.67V311.923C1722.69 311.242 1719.96 308.782 1719.32 304.506H1723.41C1723.78 307.231 1726.02 308.707 1729.12 308.707C1732.15 308.707 1733.74 307.193 1733.74 305.073C1733.74 298.829 1719.89 303.068 1719.89 293.682C1719.89 290.465 1722.23 287.475 1726.66 286.908V283.237H1730.48V286.983C1734 287.665 1736.73 289.935 1737.18 294.212H1733.06C1732.64 291.411 1730.82 290.2 1728.1 290.2C1725.45 290.2 1724.05 291.6 1724.05 293.682C1724.05 299.397 1737.9 295.498 1737.9 304.695C1737.9 308.971 1734.83 311.583 1730.48 312.037V315.67H1726.66Z" fill="#262626"/>
<path d="M1465.4 628.503H1930.36C1965.44 628.503 1993.88 656.945 1993.88 692.03V1025.88H1401.87V692.03C1401.87 656.945 1430.32 628.503 1465.4 628.503Z" fill="#F1F5F9"/>
<path d="M1465.4 628.503H1930.36C1965.44 628.503 1993.88 656.945 1993.88 692.03V1025.88H1401.87V692.03C1401.87 656.945 1430.32 628.503 1465.4 628.503Z" stroke="#F1F5F9" stroke-width="2.70324"/>
<path d="M1720.4 688.876L1709.14 700.139L1697.88 688.876L1686.61 700.139L1675.35 688.876L1686.61 677.612H1709.14L1720.4 688.876Z" fill="#F5BE5A"/>
<path d="M1686.61 700.139L1697.88 711.403L1709.14 700.139L1720.4 711.403L1709.14 722.666H1686.61L1675.35 711.403L1686.61 700.139Z" fill="#F5BE5A"/>
<path d="M1520.57 809.61H1517.06L1516.67 805.458C1514.86 808.658 1511.7 810.172 1507.94 810.172C1499.89 810.172 1494.74 804.42 1494.74 794.948C1494.74 785.519 1499.89 779.636 1508.37 779.636C1514.21 779.636 1519.22 782.837 1520.61 788.936H1515.55C1514.51 785.562 1511.74 783.702 1508.24 783.702C1502.88 783.702 1499.68 787.984 1499.68 794.948C1499.68 801.911 1502.92 806.106 1508.37 806.106C1512.39 806.106 1515.63 803.684 1515.94 798.062H1508.97V794.299H1520.57V809.61ZM1525.97 783.702V778.469H1530.6V783.702H1525.97ZM1525.97 809.61V786.557H1530.6V809.61H1525.97ZM1533.6 790.147V786.557H1536.72V785.346C1536.72 780.328 1538.83 777.906 1543.16 777.906C1544.33 777.906 1545.24 778.123 1545.71 778.339V781.453H1545.28C1542.08 781.453 1541.3 782.75 1541.3 785.389V786.557H1545.71V790.147H1541.3V809.61H1536.72V790.147H1533.6ZM1549.18 802.733V790.147H1546.06V786.557H1549.18V781.237H1553.81V786.557H1558.78V790.147H1553.81V802.473C1553.81 805.112 1554.54 806.366 1557.78 806.366H1558.69V809.74C1558.17 809.999 1557.09 810.172 1555.79 810.172C1551.3 810.172 1549.18 807.707 1549.18 802.733ZM1565.93 792.612C1565.93 798.494 1580.68 793.563 1580.68 802.949C1580.68 807.318 1576.75 810.172 1571.17 810.172C1565.59 810.172 1561.65 807.577 1560.79 802.084H1565.41C1565.89 804.982 1568.05 806.582 1571.3 806.582C1574.41 806.582 1576.05 805.198 1576.05 803.252C1576.05 797.499 1561.52 802.344 1561.52 792.871C1561.52 789.282 1564.33 785.951 1570.17 785.951C1575.32 785.951 1579.13 788.33 1579.86 794.082H1575.23C1574.71 790.839 1572.9 789.628 1569.96 789.628C1567.4 789.628 1565.93 790.882 1565.93 792.612ZM1597.75 794.082H1593.13C1593.86 788.979 1597.37 785.951 1603.12 785.951C1609.39 785.951 1612.5 789.628 1612.5 794.991V803.987C1612.5 806.755 1612.76 808.356 1613.28 809.61H1608.44C1608.09 808.745 1607.96 807.534 1607.92 806.236C1605.97 808.961 1602.99 810.172 1600.22 810.172C1595.55 810.172 1592.35 807.966 1592.35 803.555C1592.35 800.397 1594.08 798.062 1597.54 796.894C1600.61 795.856 1603.72 795.596 1607.88 795.553V795.034C1607.88 791.66 1606.32 789.844 1602.77 789.844C1599.79 789.844 1598.19 791.487 1597.75 794.082ZM1597.02 803.382C1597.02 805.328 1598.62 806.539 1601.09 806.539C1604.93 806.539 1607.88 803.468 1607.88 799.748V798.71C1599.01 798.797 1597.02 800.743 1597.02 803.382ZM1618.31 809.61V786.557H1622.93V789.628C1624.49 787.162 1626.91 785.951 1629.9 785.951C1634.7 785.951 1637.68 788.762 1637.68 794.212V809.61H1633.1V795.164C1633.1 791.833 1631.63 789.801 1628.47 789.801C1625.01 789.801 1622.93 792.871 1622.93 796.072V809.61H1618.31ZM1651.96 810.172C1645.86 810.172 1642.19 805.631 1642.19 798.105C1642.19 790.276 1645.95 785.951 1651.96 785.951C1654.6 785.951 1656.76 787.032 1658.23 789.152V778.469H1662.86V809.61H1658.23V806.798C1656.76 808.961 1654.6 810.172 1651.96 810.172ZM1652.57 806.279C1656.24 806.279 1658.23 803.425 1658.23 798.105C1658.23 792.828 1656.16 789.844 1652.57 789.844C1648.89 789.844 1646.9 792.785 1646.9 798.105C1646.9 803.338 1648.98 806.279 1652.57 806.279ZM1696.44 794.601H1691.81C1691.25 791.314 1689.13 789.844 1686.45 789.844C1682.6 789.844 1680.52 792.785 1680.52 798.105C1680.52 803.338 1682.69 806.323 1686.58 806.323C1689.35 806.323 1691.29 804.809 1691.99 801.868H1696.57C1695.57 807.62 1691.6 810.172 1686.49 810.172C1679.83 810.172 1675.81 805.587 1675.81 798.105C1675.81 790.276 1679.92 785.951 1686.45 785.951C1691.6 785.951 1695.66 788.849 1696.44 794.601ZM1721.34 802.084C1720.09 807.447 1716.11 810.172 1710.7 810.172C1703.91 810.172 1699.76 805.631 1699.76 798.105C1699.76 790.276 1703.91 785.951 1710.48 785.951C1717.15 785.951 1721.17 790.449 1721.17 797.845V798.97H1704.47C1704.73 803.684 1706.94 806.323 1710.7 806.323C1713.64 806.323 1715.72 804.939 1716.5 802.084H1721.34ZM1710.48 789.801C1707.15 789.801 1705.16 791.92 1704.6 795.813H1716.37C1715.8 791.92 1713.77 789.801 1710.48 789.801ZM1725.8 809.61V778.469H1730.43V809.61H1725.8ZM1756.48 802.084C1755.23 807.447 1751.25 810.172 1745.84 810.172C1739.05 810.172 1734.9 805.631 1734.9 798.105C1734.9 790.276 1739.05 785.951 1745.63 785.951C1752.29 785.951 1756.31 790.449 1756.31 797.845V798.97H1739.61C1739.87 803.684 1742.08 806.323 1745.84 806.323C1748.78 806.323 1750.86 804.939 1751.64 802.084H1756.48ZM1745.63 789.801C1742.3 789.801 1740.31 791.92 1739.74 795.813H1751.51C1750.95 791.92 1748.91 789.801 1745.63 789.801ZM1765.57 809.61H1760.94V778.469H1765.57V789.238C1767.04 787.119 1769.21 785.951 1771.84 785.951C1777.9 785.951 1781.58 790.493 1781.58 798.018C1781.58 805.847 1777.81 810.172 1771.84 810.172C1769.21 810.172 1767.04 809.091 1765.57 807.015V809.61ZM1771.24 789.844C1767.52 789.844 1765.57 792.742 1765.57 798.018C1765.57 803.295 1767.61 806.279 1771.24 806.279C1774.87 806.279 1776.86 803.382 1776.86 798.018C1776.86 792.785 1774.83 789.844 1771.24 789.844ZM1786.08 809.61V786.557H1790.7V789.974C1792.22 787.205 1794.6 785.951 1797.28 785.951C1798.19 785.951 1799.05 786.167 1799.48 786.557V790.622C1798.79 790.406 1797.97 790.32 1797.02 790.32C1792.61 790.32 1790.7 793.001 1790.7 797.024V809.61H1786.08ZM1806.66 794.082H1802.04C1802.77 788.979 1806.28 785.951 1812.03 785.951C1818.3 785.951 1821.41 789.628 1821.41 794.991V803.987C1821.41 806.755 1821.67 808.356 1822.19 809.61H1817.35C1817 808.745 1816.87 807.534 1816.83 806.236C1814.88 808.961 1811.9 810.172 1809.13 810.172C1804.46 810.172 1801.26 807.966 1801.26 803.555C1801.26 800.397 1802.99 798.062 1806.45 796.894C1809.52 795.856 1812.63 795.596 1816.79 795.553V795.034C1816.79 791.66 1815.23 789.844 1811.68 789.844C1808.7 789.844 1807.1 791.487 1806.66 794.082ZM1805.93 803.382C1805.93 805.328 1807.53 806.539 1809.99 806.539C1813.84 806.539 1816.79 803.468 1816.79 799.748V798.71C1807.92 798.797 1805.93 800.743 1805.93 803.382ZM1827.82 802.733V790.147H1824.71V786.557H1827.82V781.237H1832.45V786.557H1837.42V790.147H1832.45V802.473C1832.45 805.112 1833.19 806.366 1836.43 806.366H1837.34V809.74C1836.82 809.999 1835.74 810.172 1834.44 810.172C1829.94 810.172 1827.82 807.707 1827.82 802.733ZM1840.9 783.702V778.469H1845.53V783.702H1840.9ZM1840.9 809.61V786.557H1845.53V809.61H1840.9ZM1860.77 810.172C1854.06 810.172 1850 805.631 1850 798.105C1850 790.276 1854.19 785.951 1860.77 785.951C1867.47 785.951 1871.54 790.579 1871.54 798.105C1871.54 805.89 1867.34 810.172 1860.77 810.172ZM1860.77 806.279C1864.7 806.279 1866.82 803.425 1866.82 798.105C1866.82 792.828 1864.66 789.844 1860.77 789.844C1856.88 789.844 1854.71 792.742 1854.71 798.105C1854.71 803.338 1856.88 806.279 1860.77 806.279ZM1876.04 809.61V786.557H1880.67V789.628C1882.23 787.162 1884.65 785.951 1887.64 785.951C1892.44 785.951 1895.42 788.762 1895.42 794.212V809.61H1890.84V795.164C1890.84 791.833 1889.37 789.801 1886.21 789.801C1882.75 789.801 1880.67 792.871 1880.67 796.072V809.61H1876.04Z" fill="#262626"/>
<path d="M1524.91 864.894V844.673H1538.62V846.904H1527.64V853.832H1537.52V856.062H1527.64V864.894H1524.91ZM1547.59 865.25C1543.07 865.25 1540.36 862.158 1540.36 857.014C1540.36 851.661 1543.16 848.717 1547.59 848.717C1552.11 848.717 1554.81 851.869 1554.81 857.014C1554.81 862.336 1552.02 865.25 1547.59 865.25ZM1547.59 862.99C1550.53 862.99 1552.14 860.879 1552.14 857.014C1552.14 853.178 1550.5 850.977 1547.59 850.977C1544.64 850.977 1543.04 853.118 1543.04 857.014C1543.04 860.82 1544.67 862.99 1547.59 862.99ZM1558.18 864.894V849.104H1560.8V851.542C1561.87 849.609 1563.56 848.717 1565.47 848.717C1566.09 848.717 1566.66 848.866 1566.95 849.104V851.453C1566.51 851.304 1565.94 851.245 1565.32 851.245C1562.17 851.245 1560.8 853.207 1560.8 856.062V864.894H1558.18ZM1585.28 858.441V849.104H1587.89V864.894H1585.28V862.753C1584.21 864.418 1582.54 865.25 1580.49 865.25C1577.19 865.25 1575.23 863.318 1575.23 859.66V849.104H1577.84V859.125C1577.84 861.504 1578.88 863.02 1581.2 863.02C1583.76 863.02 1585.28 860.701 1585.28 858.441ZM1592.07 864.894V849.104H1594.69V851.245C1595.76 849.58 1597.48 848.717 1599.56 848.717C1602.92 848.717 1604.91 850.68 1604.91 854.337V864.894H1602.3V854.873C1602.3 852.494 1601.23 850.948 1598.85 850.948C1596.23 850.948 1594.69 853.297 1594.69 855.557V864.894H1592.07ZM1622.73 859.749C1621.87 863.437 1619.23 865.25 1615.63 865.25C1611.05 865.25 1608.28 862.158 1608.28 857.014C1608.28 851.661 1611.05 848.717 1615.48 848.717C1619.94 848.717 1622.62 851.78 1622.62 856.805V857.46H1610.96C1611.11 860.998 1612.77 862.99 1615.63 862.99C1617.86 862.99 1619.43 861.92 1620 859.749H1622.73ZM1615.48 850.977C1612.95 850.977 1611.43 852.553 1611.05 855.497H1619.88C1619.52 852.583 1617.95 850.977 1615.48 850.977ZM1635.72 864.894L1631.94 859.63L1631.17 858.411L1630.39 859.63L1626.71 864.894H1623.73L1629.74 856.687L1624.21 849.104H1627.48L1630.75 853.743L1631.55 855.021L1632.33 853.743L1635.54 849.104H1638.51L1632.98 856.687L1638.99 864.894H1635.72ZM1643.88 871.435H1641.26V849.104H1643.88V851.066C1644.92 849.58 1646.44 848.717 1648.31 848.717C1652.5 848.717 1655.03 851.81 1655.03 856.954C1655.03 862.307 1652.44 865.25 1648.31 865.25C1646.44 865.25 1644.92 864.477 1643.88 863.02V871.435ZM1648.13 850.977C1645.36 850.977 1643.88 853.089 1643.88 856.954C1643.88 860.79 1645.42 862.99 1648.13 862.99C1650.87 862.99 1652.35 860.85 1652.35 856.954C1652.35 853.148 1650.81 850.977 1648.13 850.977ZM1672.04 859.749C1671.18 863.437 1668.53 865.25 1664.94 865.25C1660.36 865.25 1657.59 862.158 1657.59 857.014C1657.59 851.661 1660.36 848.717 1664.79 848.717C1669.25 848.717 1671.92 851.78 1671.92 856.805V857.46H1660.27C1660.42 860.998 1662.08 862.99 1664.94 862.99C1667.17 862.99 1668.74 861.92 1669.31 859.749H1672.04ZM1664.79 850.977C1662.26 850.977 1660.74 852.553 1660.36 855.497H1669.19C1668.83 852.583 1667.25 850.977 1664.79 850.977ZM1688.46 854.546H1685.85C1685.43 852.137 1683.83 850.977 1681.74 850.977C1678.83 850.977 1677.28 853.118 1677.28 857.014C1677.28 860.85 1678.92 863.02 1681.83 863.02C1683.94 863.02 1685.46 861.89 1685.97 859.63H1688.58C1687.87 863.555 1685.22 865.25 1681.77 865.25C1677.28 865.25 1674.61 862.128 1674.61 857.014C1674.61 851.661 1677.34 848.717 1681.74 848.717C1685.22 848.717 1687.96 850.68 1688.46 854.546ZM1692.17 860.344V851.185H1689.97V849.104H1692.17V845.476H1694.79V849.104H1698.27V851.185H1694.79V860.344C1694.79 862.247 1695.36 863.139 1697.67 863.139H1698.21V865.012C1697.91 865.161 1697.26 865.25 1696.52 865.25C1693.57 865.25 1692.17 863.674 1692.17 860.344ZM1714.41 859.749C1713.55 863.437 1710.9 865.25 1707.3 865.25C1702.72 865.25 1699.96 862.158 1699.96 857.014C1699.96 851.661 1702.72 848.717 1707.15 848.717C1711.61 848.717 1714.29 851.78 1714.29 856.805V857.46H1702.63C1702.78 860.998 1704.45 862.99 1707.3 862.99C1709.53 862.99 1711.11 861.92 1711.67 859.749H1714.41ZM1707.15 850.977C1704.63 850.977 1703.11 852.553 1702.72 855.497H1711.55C1711.2 852.583 1709.62 850.977 1707.15 850.977ZM1723.69 865.25C1719.5 865.25 1716.97 862.158 1716.97 857.014C1716.97 851.661 1719.56 848.717 1723.69 848.717C1725.57 848.717 1727.08 849.491 1728.13 850.948V843.484H1730.74V864.894H1728.13V862.901C1727.08 864.388 1725.57 865.25 1723.69 865.25ZM1723.87 862.99C1726.64 862.99 1728.13 860.879 1728.13 857.014C1728.13 853.178 1726.58 850.977 1723.87 850.977C1721.14 850.977 1719.65 853.118 1719.65 857.014C1719.65 860.82 1721.2 862.99 1723.87 862.99ZM1754.51 859.749C1753.65 863.437 1751 865.25 1747.41 865.25C1742.83 865.25 1740.06 862.158 1740.06 857.014C1740.06 851.661 1742.83 848.717 1747.26 848.717C1751.72 848.717 1754.39 851.78 1754.39 856.805V857.46H1742.74C1742.89 860.998 1744.55 862.99 1747.41 862.99C1749.64 862.99 1751.21 861.92 1751.78 859.749H1754.51ZM1747.26 850.977C1744.73 850.977 1743.21 852.553 1742.83 855.497H1751.66C1751.3 852.583 1749.72 850.977 1747.26 850.977ZM1767.49 864.894L1763.72 859.63L1762.95 858.411L1762.17 859.63L1758.49 864.894H1755.51L1761.52 856.687L1755.99 849.104H1759.26L1762.53 853.743L1763.33 855.021L1764.11 853.743L1767.32 849.104H1770.29L1764.76 856.687L1770.77 864.894H1767.49ZM1775.66 871.435H1773.04V849.104H1775.66V851.066C1776.7 849.58 1778.21 848.717 1780.09 848.717C1784.28 848.717 1786.81 851.81 1786.81 856.954C1786.81 862.307 1784.22 865.25 1780.09 865.25C1778.21 865.25 1776.7 864.477 1775.66 863.02V871.435ZM1779.91 850.977C1777.14 850.977 1775.66 853.089 1775.66 856.954C1775.66 860.79 1777.2 862.99 1779.91 862.99C1782.64 862.99 1784.13 860.85 1784.13 856.954C1784.13 853.148 1782.58 850.977 1779.91 850.977ZM1803.82 859.749C1802.96 863.437 1800.31 865.25 1796.71 865.25C1792.13 865.25 1789.37 862.158 1789.37 857.014C1789.37 851.661 1792.13 848.717 1796.56 848.717C1801.02 848.717 1803.7 851.78 1803.7 856.805V857.46H1792.04C1792.19 860.998 1793.86 862.99 1796.71 862.99C1798.94 862.99 1800.52 861.92 1801.08 859.749H1803.82ZM1796.56 850.977C1794.04 850.977 1792.52 852.553 1792.13 855.497H1800.96C1800.61 852.583 1799.03 850.977 1796.56 850.977ZM1807.19 864.894V849.104H1809.8V851.245C1810.87 849.58 1812.6 848.717 1814.68 848.717C1818.04 848.717 1820.03 850.68 1820.03 854.337V864.894H1817.42V854.873C1817.42 852.494 1816.35 850.948 1813.97 850.948C1811.35 850.948 1809.8 853.297 1809.8 855.557V864.894H1807.19ZM1826.14 853.148C1826.14 857.549 1836.4 853.921 1836.4 860.433C1836.4 863.377 1833.78 865.25 1830.06 865.25C1826.32 865.25 1823.7 863.466 1823.1 859.749H1825.72C1826.08 861.95 1827.71 863.169 1830.15 863.169C1832.53 863.169 1833.78 862.098 1833.78 860.612C1833.78 856.3 1823.64 859.868 1823.64 853.326C1823.64 850.918 1825.51 848.717 1829.38 848.717C1832.8 848.717 1835.33 850.323 1835.83 854.248H1833.21C1832.83 851.78 1831.46 850.858 1829.23 850.858C1827.27 850.858 1826.14 851.84 1826.14 853.148ZM1853.16 859.749C1852.29 863.437 1849.65 865.25 1846.05 865.25C1841.47 865.25 1838.7 862.158 1838.7 857.014C1838.7 851.661 1841.47 848.717 1845.9 848.717C1850.36 848.717 1853.04 851.78 1853.04 856.805V857.46H1841.38C1841.53 860.998 1843.19 862.99 1846.05 862.99C1848.28 862.99 1849.86 861.92 1850.42 859.749H1853.16ZM1845.9 850.977C1843.37 850.977 1841.86 852.553 1841.47 855.497H1850.3C1849.94 852.583 1848.37 850.977 1845.9 850.977ZM1858.46 853.148C1858.46 857.549 1868.72 853.921 1868.72 860.433C1868.72 863.377 1866.1 865.25 1862.38 865.25C1858.64 865.25 1856.02 863.466 1855.42 859.749H1858.04C1858.4 861.95 1860.03 863.169 1862.47 863.169C1864.85 863.169 1866.1 862.098 1866.1 860.612C1866.1 856.3 1855.96 859.868 1855.96 853.326C1855.96 850.918 1857.83 848.717 1861.7 848.717C1865.12 848.717 1867.65 850.323 1868.15 854.248H1865.53C1865.15 851.78 1863.78 850.858 1861.55 850.858C1859.59 850.858 1858.46 851.84 1858.46 853.148Z" fill="#595959"/>
<path d="M1682.68 942.822V939.075C1678.7 938.394 1675.98 935.934 1675.33 931.658H1679.42C1679.8 934.382 1682.03 935.858 1685.14 935.858C1688.16 935.858 1689.75 934.345 1689.75 932.225C1689.75 925.981 1675.9 930.219 1675.9 920.834C1675.9 917.617 1678.25 914.627 1682.68 914.059V910.388H1686.5V914.135C1690.02 914.816 1692.74 917.087 1693.2 921.364H1689.07C1688.65 918.563 1686.84 917.352 1684.11 917.352C1681.46 917.352 1680.06 918.752 1680.06 920.834C1680.06 926.548 1693.92 922.65 1693.92 931.847C1693.92 936.123 1690.85 938.735 1686.5 939.189V942.822H1682.68ZM1704.48 942.822V939.075C1700.51 938.394 1697.78 935.934 1697.14 931.658H1701.23C1701.6 934.382 1703.84 935.858 1706.94 935.858C1709.97 935.858 1711.56 934.345 1711.56 932.225C1711.56 925.981 1697.71 930.219 1697.71 920.834C1697.71 917.617 1700.05 914.627 1704.48 914.059V910.388H1708.3V914.135C1711.82 914.816 1714.55 917.087 1715 921.364H1710.88C1710.46 918.563 1708.64 917.352 1705.92 917.352C1703.27 917.352 1701.87 918.752 1701.87 920.834C1701.87 926.548 1715.72 922.65 1715.72 931.847C1715.72 936.123 1712.66 938.735 1708.3 939.189V942.822H1704.48Z" fill="#262626"/>
<rect x="82.6929" y="1.35162" width="592.009" height="592.009" rx="63.5261" fill="#F1F5F9"/>
<rect x="82.6929" y="1.35162" width="592.009" height="592.009" rx="63.5261" stroke="#F1F5F9" stroke-width="2.70324"/>
<path d="M378.697 72.536L367.433 61.2725H382.451L389.96 68.7815V83.7994L378.697 72.536Z" fill="#4187F5"/>
<path d="M367.433 83.7994L378.697 72.536L363.679 72.536L356.17 80.0449V95.0629L367.433 83.7994Z" fill="#4187F5"/>
<path d="M378.697 95.0629L389.96 83.7994L401.224 72.536L401.224 87.5539L393.715 95.0629L378.697 95.0629Z" fill="#4187F5"/>
<path d="M378.697 95.0629L367.433 83.7994V98.8174L374.942 106.326H389.96L378.697 95.0629Z" fill="#4187F5"/>
<path d="M219.902 182.459V153.048H240.187V156.94H224.746V165.331H238.544V169.181H224.746V178.566H240.187V182.459H219.902ZM244.815 182.459V159.406H249.442V162.347C250.913 159.968 253.205 158.8 255.93 158.8C259.001 158.8 261.293 160.141 262.418 162.779C263.932 160.141 266.44 158.8 269.468 158.8C274.009 158.8 276.951 161.612 276.951 167.061V182.459H272.323V168.013C272.323 164.682 271.068 162.65 268.214 162.65C265.1 162.65 263.197 165.721 263.197 168.921V182.459H258.569V168.013C258.569 164.682 257.271 162.65 254.46 162.65C251.346 162.65 249.442 165.721 249.442 168.921V182.459H244.815ZM303.033 174.933C301.779 180.296 297.8 183.021 292.394 183.021C285.603 183.021 281.451 178.48 281.451 170.954C281.451 163.125 285.603 158.8 292.177 158.8C298.838 158.8 302.86 163.298 302.86 170.694V171.819H286.165C286.425 176.533 288.631 179.172 292.394 179.172C295.335 179.172 297.411 177.788 298.189 174.933H303.033ZM292.177 162.65C288.847 162.65 286.857 164.769 286.295 168.662H298.06C297.497 164.769 295.464 162.65 292.177 162.65ZM307.496 182.459V159.406H312.124V162.823C313.638 160.055 316.016 158.8 318.698 158.8C319.606 158.8 320.471 159.017 320.904 159.406V163.471C320.212 163.255 319.39 163.169 318.439 163.169C314.027 163.169 312.124 165.85 312.124 169.873V182.459H307.496ZM331.935 182.589C326.053 182.589 322.506 178.091 322.506 170.738C322.506 163.039 326.139 158.8 331.935 158.8C334.876 158.8 337.082 159.838 338.553 161.828V159.406H343.181V183.194C343.181 189.509 338.985 192.58 333.449 192.58C327.913 192.58 323.934 189.985 323.112 184.622H327.74C328.172 187.39 330.378 188.86 333.406 188.86C336.477 188.86 338.553 187.26 338.553 183.281V179.388C336.996 181.507 334.746 182.589 331.935 182.589ZM332.887 178.696C336.563 178.696 338.553 175.885 338.553 170.694C338.553 165.634 336.477 162.693 332.887 162.693C329.21 162.693 327.221 165.504 327.221 170.738C327.221 175.798 329.254 178.696 332.887 178.696ZM369.263 174.933C368.008 180.296 364.029 183.021 358.623 183.021C351.832 183.021 347.68 178.48 347.68 170.954C347.68 163.125 351.832 158.8 358.407 158.8C365.067 158.8 369.09 163.298 369.09 170.694V171.819H352.395C352.654 176.533 354.86 179.172 358.623 179.172C361.564 179.172 363.64 177.788 364.419 174.933H369.263ZM358.407 162.65C355.076 162.65 353.087 164.769 352.524 168.662H364.289C363.727 164.769 361.694 162.65 358.407 162.65ZM373.725 182.459V159.406H378.353V162.477C379.91 160.011 382.332 158.8 385.317 158.8C390.118 158.8 393.102 161.612 393.102 167.061V182.459H388.517V168.013C388.517 164.682 387.047 162.65 383.889 162.65C380.429 162.65 378.353 165.721 378.353 168.921V182.459H373.725ZM418.237 167.451H413.609C413.046 164.163 410.927 162.693 408.245 162.693C404.396 162.693 402.32 165.634 402.32 170.954C402.32 176.187 404.483 179.172 408.375 179.172C411.143 179.172 413.09 177.658 413.782 174.717H418.366C417.372 180.469 413.392 183.021 408.289 183.021C401.628 183.021 397.606 178.437 397.606 170.954C397.606 163.125 401.714 158.8 408.245 158.8C413.392 158.8 417.458 161.698 418.237 167.451ZM423.605 192.537C422.61 192.537 421.572 192.277 421.053 192.104V188.557H422.307C424.945 188.557 425.94 188.038 427.93 183.238L428.622 181.637L419.366 159.406H424.34L430.049 173.765L431.044 176.923L432.039 173.765L437.575 159.406H442.289L431.822 185.141C429.487 190.893 427.714 192.537 423.605 192.537ZM451.213 162.996V159.406H454.328V158.195C454.328 153.178 456.447 150.755 460.772 150.755C461.94 150.755 462.848 150.972 463.324 151.188V154.302H462.891C459.691 154.302 458.912 155.6 458.912 158.238V159.406H463.324V162.996H458.912V182.459H454.328V162.996H451.213ZM480.717 172.9V159.406H485.302V182.459H480.717V179.345C479.203 181.81 476.781 183.021 473.84 183.021C469.125 183.021 466.184 180.253 466.184 174.803V159.406H470.812V173.852C470.812 177.182 472.196 179.172 475.267 179.172C478.641 179.172 480.717 176.101 480.717 172.9ZM490.936 182.459V159.406H495.564V162.477C497.121 160.011 499.543 158.8 502.527 158.8C507.328 158.8 510.313 161.612 510.313 167.061V182.459H505.728V168.013C505.728 164.682 504.257 162.65 501.1 162.65C497.64 162.65 495.564 165.721 495.564 168.921V182.459H490.936ZM524.591 183.021C518.493 183.021 514.816 178.48 514.816 170.954C514.816 163.125 518.579 158.8 524.591 158.8C527.229 158.8 529.392 159.882 530.863 162.001V151.318H535.491V182.459H530.863V179.648C529.392 181.81 527.229 183.021 524.591 183.021ZM525.197 179.129C528.873 179.129 530.863 176.274 530.863 170.954C530.863 165.677 528.787 162.693 525.197 162.693C521.52 162.693 519.531 165.634 519.531 170.954C519.531 176.187 521.607 179.129 525.197 179.129Z" fill="#262626"/>
<path d="M208.432 237.743V217.523H222.14V219.753H211.167V226.682H221.039V228.912H211.167V237.743H208.432ZM231.111 238.1C226.591 238.1 223.885 235.007 223.885 229.863C223.885 224.511 226.68 221.567 231.111 221.567C235.63 221.567 238.336 224.719 238.336 229.863C238.336 235.186 235.541 238.1 231.111 238.1ZM231.111 235.84C234.054 235.84 235.66 233.729 235.66 229.863C235.66 226.027 234.025 223.827 231.111 223.827C228.167 223.827 226.561 225.968 226.561 229.863C226.561 233.669 228.196 235.84 231.111 235.84ZM241.704 237.743V221.954H244.321V224.392C245.392 222.459 247.086 221.567 248.99 221.567C249.614 221.567 250.179 221.716 250.476 221.954V224.303C250.03 224.154 249.465 224.095 248.841 224.095C245.689 224.095 244.321 226.057 244.321 228.912V237.743H241.704ZM268.801 231.291V221.954H271.417V237.743H268.801V235.602C267.73 237.267 266.065 238.1 264.013 238.1C260.713 238.1 258.75 236.167 258.75 232.51V221.954H261.367V231.974C261.367 234.353 262.408 235.87 264.727 235.87C267.284 235.87 268.801 233.55 268.801 231.291ZM275.592 237.743V221.954H278.209V224.095C279.28 222.429 281.004 221.567 283.086 221.567C286.446 221.567 288.438 223.53 288.438 227.187V237.743H285.822V227.722C285.822 225.343 284.751 223.797 282.372 223.797C279.755 223.797 278.209 226.146 278.209 228.406V237.743H275.592ZM306.258 232.599C305.395 236.286 302.749 238.1 299.151 238.1C294.572 238.1 291.806 235.007 291.806 229.863C291.806 224.511 294.572 221.567 299.002 221.567C303.463 221.567 306.139 224.63 306.139 229.655V230.309H294.482C294.631 233.848 296.296 235.84 299.151 235.84C301.381 235.84 302.957 234.77 303.522 232.599H306.258ZM299.002 223.827C296.475 223.827 294.958 225.403 294.572 228.347H303.403C303.046 225.433 301.47 223.827 299.002 223.827ZM319.241 237.743L315.464 232.48L314.691 231.261L313.918 232.48L310.231 237.743H307.257L313.264 229.536L307.733 221.954H311.004L314.275 226.592L315.078 227.871L315.851 226.592L319.062 221.954H322.036L316.505 229.536L322.512 237.743H319.241ZM327.401 244.285H324.785V221.954H327.401V223.916C328.442 222.429 329.959 221.567 331.832 221.567C336.025 221.567 338.552 224.659 338.552 229.804C338.552 235.156 335.965 238.1 331.832 238.1C329.959 238.1 328.442 237.327 327.401 235.87V244.285ZM331.654 223.827C328.888 223.827 327.401 225.938 327.401 229.804C327.401 233.64 328.948 235.84 331.654 235.84C334.389 235.84 335.876 233.699 335.876 229.804C335.876 225.998 334.33 223.827 331.654 223.827ZM355.565 232.599C354.703 236.286 352.057 238.1 348.459 238.1C343.879 238.1 341.114 235.007 341.114 229.863C341.114 224.511 343.879 221.567 348.31 221.567C352.77 221.567 355.447 224.63 355.447 229.655V230.309H343.79C343.939 233.848 345.604 235.84 348.459 235.84C350.689 235.84 352.265 234.77 352.83 232.599H355.565ZM348.31 223.827C345.782 223.827 344.266 225.403 343.879 228.347H352.711C352.354 225.433 350.778 223.827 348.31 223.827ZM371.987 227.395H369.371C368.954 224.987 367.349 223.827 365.267 223.827C362.353 223.827 360.807 225.968 360.807 229.863C360.807 233.699 362.442 235.87 365.356 235.87C367.468 235.87 368.984 234.74 369.49 232.48H372.106C371.393 236.405 368.746 238.1 365.297 238.1C360.807 238.1 358.131 234.978 358.131 229.863C358.131 224.511 360.866 221.567 365.267 221.567C368.746 221.567 371.482 223.53 371.987 227.395ZM375.697 233.194V224.035H373.497V221.954H375.697V218.326H378.314V221.954H381.793V224.035H378.314V233.194C378.314 235.097 378.879 235.989 381.198 235.989H381.734V237.862C381.436 238.011 380.782 238.1 380.039 238.1C377.095 238.1 375.697 236.524 375.697 233.194ZM397.933 232.599C397.071 236.286 394.424 238.1 390.826 238.1C386.247 238.1 383.481 235.007 383.481 229.863C383.481 224.511 386.247 221.567 390.677 221.567C395.138 221.567 397.814 224.63 397.814 229.655V230.309H386.158C386.306 233.848 387.971 235.84 390.826 235.84C393.056 235.84 394.632 234.77 395.197 232.599H397.933ZM390.677 223.827C388.15 223.827 386.633 225.403 386.247 228.347H395.078C394.721 225.433 393.145 223.827 390.677 223.827ZM407.218 238.1C403.026 238.1 400.498 235.007 400.498 229.863C400.498 224.511 403.085 221.567 407.218 221.567C409.092 221.567 410.608 222.34 411.649 223.797V216.334H414.266V237.743H411.649V235.751C410.608 237.238 409.092 238.1 407.218 238.1ZM407.397 235.84C410.162 235.84 411.649 233.729 411.649 229.863C411.649 226.027 410.103 223.827 407.397 223.827C404.661 223.827 403.174 225.968 403.174 229.863C403.174 233.669 404.721 235.84 407.397 235.84ZM438.035 232.599C437.173 236.286 434.527 238.1 430.929 238.1C426.349 238.1 423.584 235.007 423.584 229.863C423.584 224.511 426.349 221.567 430.78 221.567C435.24 221.567 437.916 224.63 437.916 229.655V230.309H426.26C426.409 233.848 428.074 235.84 430.929 235.84C433.159 235.84 434.735 234.77 435.3 232.599H438.035ZM430.78 223.827C428.252 223.827 426.736 225.403 426.349 228.347H435.181C434.824 225.433 433.248 223.827 430.78 223.827ZM451.018 237.743L447.242 232.48L446.469 231.261L445.696 232.48L442.009 237.743H439.035L445.042 229.536L439.511 221.954H442.782L446.053 226.592L446.855 227.871L447.629 226.592L450.84 221.954H453.814L448.283 229.536L454.289 237.743H451.018ZM459.179 244.285H456.562V221.954H459.179V223.916C460.22 222.429 461.736 221.567 463.61 221.567C467.802 221.567 470.33 224.659 470.33 229.804C470.33 235.156 467.743 238.1 463.61 238.1C461.736 238.1 460.22 237.327 459.179 235.87V244.285ZM463.431 223.827C460.666 223.827 459.179 225.938 459.179 229.804C459.179 233.64 460.725 235.84 463.431 235.84C466.167 235.84 467.654 233.699 467.654 229.804C467.654 225.998 466.107 223.827 463.431 223.827ZM487.343 232.599C486.481 236.286 483.834 238.1 480.236 238.1C475.657 238.1 472.892 235.007 472.892 229.863C472.892 224.511 475.657 221.567 480.088 221.567C484.548 221.567 487.224 224.63 487.224 229.655V230.309H475.568C475.716 233.848 477.382 235.84 480.236 235.84C482.466 235.84 484.042 234.77 484.607 232.599H487.343ZM480.088 223.827C477.56 223.827 476.043 225.403 475.657 228.347H484.488C484.132 225.433 482.556 223.827 480.088 223.827ZM490.711 237.743V221.954H493.328V224.095C494.398 222.429 496.123 221.567 498.204 221.567C501.565 221.567 503.557 223.53 503.557 227.187V237.743H500.94V227.722C500.94 225.343 499.87 223.797 497.491 223.797C494.874 223.797 493.328 226.146 493.328 228.406V237.743H490.711ZM509.661 225.998C509.661 230.398 519.919 226.771 519.919 233.283C519.919 236.227 517.303 238.1 513.586 238.1C509.839 238.1 507.222 236.316 506.627 232.599H509.244C509.601 234.799 511.237 236.018 513.675 236.018C516.054 236.018 517.303 234.948 517.303 233.461C517.303 229.15 507.163 232.718 507.163 226.176C507.163 223.767 509.036 221.567 512.902 221.567C516.321 221.567 518.849 223.173 519.354 227.098H516.738C516.351 224.63 514.983 223.708 512.753 223.708C510.79 223.708 509.661 224.689 509.661 225.998ZM536.68 232.599C535.817 236.286 533.171 238.1 529.573 238.1C524.994 238.1 522.228 235.007 522.228 229.863C522.228 224.511 524.994 221.567 529.424 221.567C533.885 221.567 536.561 224.63 536.561 229.655V230.309H524.904C525.053 233.848 526.718 235.84 529.573 235.84C531.803 235.84 533.379 234.77 533.944 232.599H536.68ZM529.424 223.827C526.897 223.827 525.38 225.403 524.994 228.347H533.825C533.468 225.433 531.892 223.827 529.424 223.827ZM541.981 225.998C541.981 230.398 552.239 226.771 552.239 233.283C552.239 236.227 549.623 238.1 545.906 238.1C542.159 238.1 539.542 236.316 538.948 232.599H541.564C541.921 234.799 543.557 236.018 545.995 236.018C548.374 236.018 549.623 234.948 549.623 233.461C549.623 229.15 539.483 232.718 539.483 226.176C539.483 223.767 541.356 221.567 545.222 221.567C548.641 221.567 551.169 223.173 551.674 227.098H549.058C548.671 224.63 547.303 223.708 545.073 223.708C543.111 223.708 541.981 224.689 541.981 225.998Z" fill="#595959"/>
<path d="M342.064 315.67V311.923C338.09 311.242 335.365 308.782 334.722 304.506H338.809C339.188 307.231 341.42 308.707 344.524 308.707C347.551 308.707 349.141 307.193 349.141 305.073C349.141 298.829 335.29 303.068 335.29 293.682C335.29 290.465 337.636 287.475 342.064 286.908V283.237H345.886V286.983C349.406 287.665 352.131 289.935 352.585 294.212H348.46C348.043 291.411 346.227 290.2 343.502 290.2C340.853 290.2 339.453 291.6 339.453 293.682C339.453 299.397 353.304 295.498 353.304 304.695C353.304 308.971 350.238 311.583 345.886 312.037V315.67H342.064ZM363.869 315.67V311.923C359.895 311.242 357.171 308.782 356.527 304.506H360.615C360.993 307.231 363.226 308.707 366.329 308.707C369.357 308.707 370.946 307.193 370.946 305.073C370.946 298.829 357.095 303.068 357.095 293.682C357.095 290.465 359.441 287.475 363.869 286.908V283.237H367.692V286.983C371.211 287.665 373.936 289.935 374.39 294.212H370.265C369.849 291.411 368.032 290.2 365.307 290.2C362.658 290.2 361.258 291.6 361.258 293.682C361.258 299.397 375.109 295.498 375.109 304.695C375.109 308.971 372.044 311.583 367.692 312.037V315.67H363.869ZM385.675 315.67V311.923C381.701 311.242 378.976 308.782 378.333 304.506H382.42C382.798 307.231 385.031 308.707 388.135 308.707C391.162 308.707 392.752 307.193 392.752 305.073C392.752 298.829 378.9 303.068 378.9 293.682C378.9 290.465 381.247 287.475 385.675 286.908V283.237H389.497V286.983C393.017 287.665 395.742 289.935 396.196 294.212H392.071C391.654 291.411 389.838 290.2 387.113 290.2C384.464 290.2 383.063 291.6 383.063 293.682C383.063 299.397 396.915 295.498 396.915 304.695C396.915 308.971 393.849 311.583 389.497 312.037V315.67H385.675ZM407.48 315.67V311.923C403.506 311.242 400.781 308.782 400.138 304.506H404.225C404.604 307.231 406.837 308.707 409.94 308.707C412.968 308.707 414.557 307.193 414.557 305.073C414.557 298.829 400.706 303.068 400.706 293.682C400.706 290.465 403.052 287.475 407.48 286.908V283.237H411.302V286.983C414.822 287.665 417.547 289.935 418.001 294.212H413.876C413.46 291.411 411.643 290.2 408.918 290.2C406.269 290.2 404.869 291.6 404.869 293.682C404.869 299.397 418.72 295.498 418.72 304.695C418.72 308.971 415.655 311.583 411.302 312.037V315.67H407.48Z" fill="#262626"/>
<path d="M117.631 486.66V475.631H121.41C123.908 475.631 125.481 476.961 125.481 479.118C125.481 481.34 123.892 482.638 121.427 482.638H119.123V486.66H117.631ZM121.394 476.847H119.123V481.421H121.346C122.984 481.421 123.941 480.545 123.941 479.134C123.941 477.739 122.967 476.847 121.394 476.847ZM127.388 486.66V475.631H131.362C133.681 475.631 135.157 476.831 135.157 478.745C135.157 480.01 134.541 480.902 133.503 481.373C134.217 481.697 134.59 482.297 134.865 483.384L135.693 486.66H134.119L133.422 483.676C133.098 482.297 132.546 482.038 131.216 482.038H128.88V486.66H127.388ZM131.33 476.847H128.88V480.821H131.297C132.757 480.821 133.617 480.043 133.617 478.826C133.617 477.61 132.757 476.847 131.33 476.847ZM142.279 486.855C139.051 486.855 137.072 484.681 137.072 481.162C137.072 477.642 139.051 475.436 142.279 475.436C145.49 475.436 147.485 477.642 147.485 481.162C147.485 484.681 145.49 486.855 142.279 486.855ZM142.279 485.573C144.582 485.573 145.961 483.903 145.961 481.162C145.961 478.404 144.582 476.718 142.279 476.718C139.976 476.718 138.597 478.404 138.597 481.162C138.597 483.903 139.976 485.573 142.279 485.573ZM158.677 486.66H157.558L157.445 484.925C156.764 486.238 155.547 486.855 154.087 486.855C151.103 486.855 149.205 484.698 149.205 481.162C149.205 477.642 151.103 475.436 154.217 475.436C156.342 475.436 158.158 476.604 158.694 478.81H157.137C156.731 477.464 155.58 476.718 154.168 476.718C152.011 476.718 150.73 478.404 150.73 481.162C150.73 483.919 152.027 485.573 154.217 485.573C155.855 485.573 157.153 484.568 157.25 482.2H154.428V481.016H158.677V486.66ZM160.983 486.66V475.631H164.957C167.277 475.631 168.752 476.831 168.752 478.745C168.752 480.01 168.136 480.902 167.098 481.373C167.812 481.697 168.185 482.297 168.461 483.384L169.288 486.66H167.714L167.017 483.676C166.693 482.297 166.141 482.038 164.811 482.038H162.476V486.66H160.983ZM164.925 476.847H162.476V480.821H164.892C166.352 480.821 167.212 480.043 167.212 478.826C167.212 477.61 166.352 476.847 164.925 476.847ZM171.073 486.66V475.631H178.55V476.847H172.565V480.335H177.95V481.551H172.565V485.444H178.55V486.66H171.073ZM181.664 478.323C181.664 481.438 188.428 479.021 188.428 483.546C188.428 485.671 186.709 486.855 184.357 486.855C181.989 486.855 180.367 485.768 179.88 483.546H181.437C181.794 484.86 182.784 485.573 184.373 485.573C186.027 485.573 186.903 484.844 186.903 483.741C186.903 480.367 180.14 482.881 180.14 478.421C180.14 476.831 181.47 475.436 183.903 475.436C186.027 475.436 187.73 476.458 188.136 478.81H186.563C186.222 477.35 185.281 476.718 183.87 476.718C182.475 476.718 181.664 477.35 181.664 478.323ZM191.437 478.323C191.437 481.438 198.201 479.021 198.201 483.546C198.201 485.671 196.481 486.855 194.13 486.855C191.762 486.855 190.14 485.768 189.653 483.546H191.21C191.567 484.86 192.556 485.573 194.146 485.573C195.8 485.573 196.676 484.844 196.676 483.741C196.676 480.367 189.913 482.881 189.913 478.421C189.913 476.831 191.243 475.436 193.676 475.436C195.8 475.436 197.503 476.458 197.909 478.81H196.336C195.995 477.35 195.054 476.718 193.643 476.718C192.248 476.718 191.437 477.35 191.437 478.323Z" fill="#595959"/>
<path d="M604.061 515.216C604.061 518.179 601.833 520.017 598.762 520.017C595.281 520.017 592.923 517.703 592.923 512.75C592.923 508.101 595.064 505.463 598.697 505.463C601.422 505.463 603.369 507.02 603.996 509.831H601.163C600.752 508.469 599.844 507.798 598.611 507.798C596.751 507.798 595.691 509.312 595.54 512.08C596.362 511.129 597.573 510.61 598.957 510.61C602.006 510.61 604.061 512.34 604.061 515.216ZM598.697 517.724C600.233 517.724 601.228 516.859 601.228 515.302C601.228 513.767 600.211 512.859 598.697 512.859C597.14 512.859 596.146 513.745 596.146 515.324C596.146 516.816 597.14 517.724 598.697 517.724ZM610.812 520.017C607.308 520.017 605.254 517.314 605.254 512.75C605.254 508.101 607.33 505.463 610.812 505.463C614.315 505.463 616.37 508.166 616.37 512.75C616.37 517.378 614.293 520.017 610.812 520.017ZM610.812 517.681C612.563 517.681 613.515 515.929 613.515 512.75C613.515 509.571 612.542 507.798 610.812 507.798C609.038 507.798 608.087 509.55 608.087 512.75C608.087 515.886 609.06 517.681 610.812 517.681ZM620.763 513.356C618.622 513.356 617.346 511.929 617.346 509.442C617.346 506.933 618.622 505.463 620.763 505.463C622.904 505.463 624.18 506.955 624.18 509.442C624.18 511.907 622.926 513.356 620.763 513.356ZM619.898 519.692L629.284 505.787H631.749L622.385 519.692H619.898ZM620.763 511.626C621.585 511.626 622.039 510.847 622.039 509.442C622.039 508.014 621.585 507.236 620.763 507.236C619.942 507.236 619.509 508.014 619.509 509.442C619.509 510.847 619.963 511.626 620.763 511.626ZM630.863 519.909C628.722 519.909 627.467 518.46 627.467 515.973C627.467 513.464 628.743 511.994 630.863 511.994C633.025 511.994 634.301 513.486 634.301 515.973C634.301 518.46 633.025 519.909 630.863 519.909ZM630.863 518.157C631.684 518.157 632.139 517.378 632.139 515.973C632.139 514.545 631.684 513.767 630.863 513.767C630.062 513.767 629.63 514.545 629.63 515.973C629.63 517.378 630.062 518.157 630.863 518.157Z" fill="#262626"/>
<g clip-path="url(#clip1_1052_11996)">
<rect x="113.78" y="502.803" width="464.957" height="21.6259" rx="10.813" fill="#F1F5F9"/>
<rect x="113.78" y="502.803" width="286.543" height="21.6259" rx="10.813" fill="#4187F5"/>
</g>
<path d="M146.219 628.503H611.176C646.26 628.503 674.702 656.945 674.702 692.03V1025.88H82.6929V692.03C82.6929 656.945 111.135 628.503 146.219 628.503Z" fill="#F1F5F9"/>
<path d="M146.219 628.503H611.176C646.26 628.503 674.702 656.945 674.702 692.03V1025.88H82.6929V692.03C82.6929 656.945 111.135 628.503 146.219 628.503Z" stroke="#F1F5F9" stroke-width="2.70324"/>
<path d="M233.378 809.61V780.199H253.664V784.091H238.223V792.482H252.02V796.332H238.223V805.717H253.664V809.61H233.378ZM266.941 810.172C260.843 810.172 257.166 805.631 257.166 798.105C257.166 790.276 260.929 785.951 266.941 785.951C269.58 785.951 271.742 787.032 273.213 789.152V778.469H277.841V809.61H273.213V806.798C271.742 808.961 269.58 810.172 266.941 810.172ZM267.547 806.279C271.223 806.279 273.213 803.425 273.213 798.105C273.213 792.828 271.137 789.844 267.547 789.844C263.87 789.844 261.881 792.785 261.881 798.105C261.881 803.338 263.957 806.279 267.547 806.279ZM297.955 800.051V786.557H302.54V809.61H297.955V806.496C296.441 808.961 294.019 810.172 291.078 810.172C286.364 810.172 283.422 807.404 283.422 801.954V786.557H288.05V801.003C288.05 804.333 289.434 806.323 292.505 806.323C295.879 806.323 297.955 803.252 297.955 800.051ZM327.681 794.601H323.053C322.49 791.314 320.371 789.844 317.689 789.844C313.84 789.844 311.764 792.785 311.764 798.105C311.764 803.338 313.926 806.323 317.819 806.323C320.587 806.323 322.534 804.809 323.226 801.868H327.81C326.816 807.62 322.836 810.172 317.733 810.172C311.072 810.172 307.049 805.587 307.049 798.105C307.049 790.276 311.158 785.951 317.689 785.951C322.836 785.951 326.902 788.849 327.681 794.601ZM336.491 794.082H331.863C332.599 788.979 336.102 785.951 341.855 785.951C348.126 785.951 351.24 789.628 351.24 794.991V803.987C351.24 806.755 351.5 808.356 352.019 809.61H347.175C346.829 808.745 346.699 807.534 346.656 806.236C344.709 808.961 341.725 810.172 338.957 810.172C334.286 810.172 331.085 807.966 331.085 803.555C331.085 800.397 332.815 798.062 336.275 796.894C339.346 795.856 342.46 795.596 346.612 795.553V795.034C346.612 791.66 345.055 789.844 341.509 789.844C338.524 789.844 336.924 791.487 336.491 794.082ZM335.756 803.382C335.756 805.328 337.356 806.539 339.822 806.539C343.671 806.539 346.612 803.468 346.612 799.748V798.71C337.746 798.797 335.756 800.743 335.756 803.382ZM357.649 802.733V790.147H354.535V786.557H357.649V781.237H362.277V786.557H367.251V790.147H362.277V802.473C362.277 805.112 363.012 806.366 366.256 806.366H367.164V809.74C366.645 809.999 365.564 810.172 364.266 810.172C359.768 810.172 357.649 807.707 357.649 802.733ZM370.729 783.702V778.469H375.357V783.702H370.729ZM370.729 809.61V786.557H375.357V809.61H370.729ZM390.595 810.172C383.891 810.172 379.826 805.631 379.826 798.105C379.826 790.276 384.021 785.951 390.595 785.951C397.299 785.951 401.365 790.579 401.365 798.105C401.365 805.89 397.17 810.172 390.595 810.172ZM390.595 806.279C394.531 806.279 396.651 803.425 396.651 798.105C396.651 792.828 394.488 789.844 390.595 789.844C386.703 789.844 384.54 792.742 384.54 798.105C384.54 803.338 386.703 806.279 390.595 806.279ZM405.871 809.61V786.557H410.499V789.628C412.056 787.162 414.478 785.951 417.462 785.951C422.263 785.951 425.247 788.762 425.247 794.212V809.61H420.663V795.164C420.663 791.833 419.192 789.801 416.035 789.801C412.575 789.801 410.499 792.871 410.499 796.072V809.61H405.871ZM436.77 790.147V786.557H439.884V785.346C439.884 780.328 442.004 777.906 446.329 777.906C447.497 777.906 448.405 778.123 448.881 778.339V781.453H448.448C445.248 781.453 444.469 782.75 444.469 785.389V786.557H448.881V790.147H444.469V809.61H439.884V790.147H436.77ZM466.274 800.051V786.557H470.859V809.61H466.274V806.496C464.76 808.961 462.338 810.172 459.397 810.172C454.682 810.172 451.741 807.404 451.741 801.954V786.557H456.369V801.003C456.369 804.333 457.753 806.323 460.824 806.323C464.198 806.323 466.274 803.252 466.274 800.051ZM476.493 809.61V786.557H481.121V789.628C482.678 787.162 485.1 785.951 488.084 785.951C492.885 785.951 495.87 788.762 495.87 794.212V809.61H491.285V795.164C491.285 791.833 489.814 789.801 486.657 789.801C483.197 789.801 481.121 792.871 481.121 796.072V809.61H476.493ZM510.148 810.172C504.05 810.172 500.373 805.631 500.373 798.105C500.373 790.276 504.136 785.951 510.148 785.951C512.786 785.951 514.949 787.032 516.42 789.152V778.469H521.048V809.61H516.42V806.798C514.949 808.961 512.786 810.172 510.148 810.172ZM510.754 806.279C514.43 806.279 516.42 803.425 516.42 798.105C516.42 792.828 514.343 789.844 510.754 789.844C507.077 789.844 505.088 792.785 505.088 798.105C505.088 803.338 507.164 806.279 510.754 806.279Z" fill="#262626"/>
<path d="M232.137 849.609C232.137 855.319 244.536 850.888 244.536 859.184C244.536 863.08 241.384 865.25 237.073 865.25C232.731 865.25 229.758 863.258 228.866 859.184H231.72C232.375 861.593 234.188 862.901 237.103 862.901C240.136 862.901 241.741 861.563 241.741 859.541C241.741 853.356 229.342 857.965 229.342 849.788C229.342 846.874 231.78 844.317 236.24 844.317C240.136 844.317 243.258 846.19 244.001 850.502H241.117C240.492 847.825 238.768 846.666 236.181 846.666C233.623 846.666 232.137 847.825 232.137 849.609ZM250.143 854.248H247.526C248.032 850.769 250.321 848.717 254.187 848.717C258.409 848.717 260.461 851.185 260.461 854.873V861.087C260.461 862.901 260.61 864.031 261.026 864.894H258.261C257.963 864.269 257.874 863.347 257.844 862.396C256.506 864.388 254.365 865.25 252.462 865.25C249.191 865.25 246.991 863.734 246.991 860.731C246.991 858.56 248.18 856.984 250.5 856.211C252.641 855.497 254.811 855.319 257.844 855.289V854.932C257.844 852.375 256.655 850.977 253.949 850.977C251.689 850.977 250.47 852.226 250.143 854.248ZM249.667 860.671C249.667 862.128 250.886 862.99 252.73 862.99C255.644 862.99 257.844 860.701 257.844 857.995V857.252C251.124 857.311 249.667 858.738 249.667 860.671ZM268.125 864.894L262.237 849.104H265.062L269.433 861.355L269.82 862.723L270.206 861.355L274.578 849.104H277.224L271.336 864.894H268.125ZM293.093 859.749C292.231 863.437 289.584 865.25 285.986 865.25C281.407 865.25 278.642 862.158 278.642 857.014C278.642 851.661 281.407 848.717 285.838 848.717C290.298 848.717 292.974 851.78 292.974 856.805V857.46H281.318C281.466 860.998 283.132 862.99 285.986 862.99C288.216 862.99 289.792 861.92 290.357 859.749H293.093ZM285.838 850.977C283.31 850.977 281.794 852.553 281.407 855.497H290.238C289.882 852.583 288.306 850.977 285.838 850.977ZM300.481 851.185V849.104H302.682V848.033C302.682 844.703 304.049 843.127 306.964 843.127C307.618 843.127 308.153 843.246 308.421 843.365V845.238H308.153C305.863 845.238 305.298 846.13 305.298 848.033V849.104H308.421V851.185H305.298V864.894H302.682V851.185H300.481ZM316.939 865.25C312.419 865.25 309.713 862.158 309.713 857.014C309.713 851.661 312.508 848.717 316.939 848.717C321.459 848.717 324.164 851.869 324.164 857.014C324.164 862.336 321.369 865.25 316.939 865.25ZM316.939 862.99C319.883 862.99 321.488 860.879 321.488 857.014C321.488 853.178 319.853 850.977 316.939 850.977C313.995 850.977 312.389 853.118 312.389 857.014C312.389 860.82 314.025 862.99 316.939 862.99ZM327.532 864.894V849.104H330.149V851.542C331.22 849.609 332.915 848.717 334.818 848.717C335.442 848.717 336.007 848.866 336.304 849.104V851.453C335.858 851.304 335.293 851.245 334.669 851.245C331.517 851.245 330.149 853.207 330.149 856.062V864.894H327.532ZM357.632 854.546H355.015C354.599 852.137 352.993 850.977 350.912 850.977C347.998 850.977 346.452 853.118 346.452 857.014C346.452 860.85 348.087 863.02 351.001 863.02C353.112 863.02 354.629 861.89 355.134 859.63H357.751C357.037 863.555 354.391 865.25 350.942 865.25C346.452 865.25 343.775 862.128 343.775 857.014C343.775 851.661 346.511 848.717 350.912 848.717C354.391 848.717 357.127 850.68 357.632 854.546ZM367.408 865.25C362.888 865.25 360.182 862.158 360.182 857.014C360.182 851.661 362.977 848.717 367.408 848.717C371.928 848.717 374.634 851.869 374.634 857.014C374.634 862.336 371.839 865.25 367.408 865.25ZM367.408 862.99C370.352 862.99 371.957 860.879 371.957 857.014C371.957 853.178 370.322 850.977 367.408 850.977C364.464 850.977 362.858 853.118 362.858 857.014C362.858 860.82 364.494 862.99 367.408 862.99ZM378.002 864.894V843.484H380.618V864.894H378.002ZM384.768 864.894V843.484H387.384V864.894H384.768ZM405.182 859.749C404.32 863.437 401.674 865.25 398.076 865.25C393.496 865.25 390.731 862.158 390.731 857.014C390.731 851.661 393.496 848.717 397.927 848.717C402.387 848.717 405.063 851.78 405.063 856.805V857.46H393.407C393.556 860.998 395.221 862.99 398.076 862.99C400.306 862.99 401.882 861.92 402.447 859.749H405.182ZM397.927 850.977C395.399 850.977 393.883 852.553 393.496 855.497H402.328C401.971 852.583 400.395 850.977 397.927 850.977ZM414.17 865.012C410.156 865.012 407.748 861.95 407.748 856.895C407.748 851.602 410.216 848.717 414.17 848.717C416.282 848.717 417.858 849.461 418.898 850.829V849.104H421.515V865.369C421.515 869.77 418.69 871.822 415.063 871.822C411.346 871.822 408.729 870.038 408.164 866.44H410.781C411.108 868.521 412.743 869.651 415.033 869.651C417.352 869.651 418.898 868.402 418.898 865.459V862.753C417.798 864.239 416.192 865.012 414.17 865.012ZM414.646 862.753C417.412 862.753 418.898 860.671 418.898 856.865C418.898 853.148 417.352 850.977 414.646 850.977C411.911 850.977 410.424 853.059 410.424 856.895C410.424 860.612 411.94 862.753 414.646 862.753ZM439.361 859.749C438.499 863.437 435.852 865.25 432.254 865.25C427.675 865.25 424.909 862.158 424.909 857.014C424.909 851.661 427.675 848.717 432.105 848.717C436.566 848.717 439.242 851.78 439.242 856.805V857.46H427.586C427.734 860.998 429.399 862.99 432.254 862.99C434.484 862.99 436.06 861.92 436.625 859.749H439.361ZM432.105 850.977C429.578 850.977 428.061 852.553 427.675 855.497H436.506C436.149 852.583 434.573 850.977 432.105 850.977ZM449.039 860.344V851.185H446.838V849.104H449.039V845.476H451.655V849.104H455.135V851.185H451.655V860.344C451.655 862.247 452.22 863.139 454.54 863.139H455.075V865.012C454.778 865.161 454.123 865.25 453.38 865.25C450.436 865.25 449.039 863.674 449.039 860.344ZM467.676 858.441V849.104H470.293V864.894H467.676V862.753C466.606 864.418 464.941 865.25 462.889 865.25C459.588 865.25 457.626 863.318 457.626 859.66V849.104H460.243V859.125C460.243 861.504 461.283 863.02 463.603 863.02C466.16 863.02 467.676 860.701 467.676 858.441ZM474.468 846.993V843.484H477.085V846.993H474.468ZM474.468 864.894V849.104H477.085V864.894H474.468ZM481.591 860.344V851.185H479.391V849.104H481.591V845.476H484.208V849.104H487.687V851.185H484.208V860.344C484.208 862.247 484.773 863.139 487.092 863.139H487.627V865.012C487.33 865.161 486.676 865.25 485.932 865.25C482.989 865.25 481.591 863.674 481.591 860.344ZM490.178 846.993V843.484H492.795V846.993H490.178ZM490.178 864.894V849.104H492.795V864.894H490.178ZM503.367 865.25C498.847 865.25 496.141 862.158 496.141 857.014C496.141 851.661 498.936 848.717 503.367 848.717C507.887 848.717 510.593 851.869 510.593 857.014C510.593 862.336 507.798 865.25 503.367 865.25ZM503.367 862.99C506.311 862.99 507.917 860.879 507.917 857.014C507.917 853.178 506.281 850.977 503.367 850.977C500.423 850.977 498.818 853.118 498.818 857.014C498.818 860.82 500.453 862.99 503.367 862.99ZM513.961 864.894V849.104H516.578V851.245C517.648 849.58 519.373 848.717 521.454 848.717C524.814 848.717 526.807 850.68 526.807 854.337V864.894H524.19V854.873C524.19 852.494 523.119 850.948 520.741 850.948C518.124 850.948 516.578 853.297 516.578 855.557V864.894H513.961Z" fill="#595959"/>
<path fill-rule="evenodd" clip-rule="evenodd" d="M361.804 707.573H355.045L368.562 694.056H382.078V687.298L395.594 700.815V714.331H402.352L388.836 727.847H375.32V734.605L361.804 721.089V707.573ZM382.078 700.815H395.594L382.078 714.331H388.836V727.847L375.32 714.331V721.089H361.804L375.32 707.573H368.562V694.056L382.078 707.573V700.815Z" fill="#FF6E3C"/>
<path d="M342.064 942.822V939.075C338.09 938.394 335.365 935.934 334.722 931.658H338.809C339.188 934.382 341.42 935.858 344.524 935.858C347.551 935.858 349.141 934.345 349.141 932.225C349.141 925.981 335.29 930.219 335.29 920.834C335.29 917.617 337.636 914.627 342.064 914.059V910.388H345.886V914.135C349.406 914.816 352.131 917.087 352.585 921.364H348.46C348.043 918.563 346.227 917.352 343.502 917.352C340.853 917.352 339.453 918.752 339.453 920.834C339.453 926.548 353.304 922.65 353.304 931.847C353.304 936.123 350.238 938.735 345.886 939.189V942.822H342.064ZM363.869 942.822V939.075C359.895 938.394 357.171 935.934 356.527 931.658H360.615C360.993 934.382 363.226 935.858 366.329 935.858C369.357 935.858 370.946 934.345 370.946 932.225C370.946 925.981 357.095 930.219 357.095 920.834C357.095 917.617 359.441 914.627 363.869 914.059V910.388H367.692V914.135C371.211 914.816 373.936 917.087 374.39 921.364H370.265C369.849 918.563 368.032 917.352 365.307 917.352C362.658 917.352 361.258 918.752 361.258 920.834C361.258 926.548 375.109 922.65 375.109 931.847C375.109 936.123 372.044 938.735 367.692 939.189V942.822H363.869ZM385.675 942.822V939.075C381.701 938.394 378.976 935.934 378.333 931.658H382.42C382.798 934.382 385.031 935.858 388.135 935.858C391.162 935.858 392.752 934.345 392.752 932.225C392.752 925.981 378.9 930.219 378.9 920.834C378.9 917.617 381.247 914.627 385.675 914.059V910.388H389.497V914.135C393.017 914.816 395.742 917.087 396.196 921.364H392.071C391.654 918.563 389.838 917.352 387.113 917.352C384.464 917.352 383.063 918.752 383.063 920.834C383.063 926.548 396.915 922.65 396.915 931.847C396.915 936.123 393.849 938.735 389.497 939.189V942.822H385.675ZM407.48 942.822V939.075C403.506 938.394 400.781 935.934 400.138 931.658H404.225C404.604 934.382 406.837 935.858 409.94 935.858C412.968 935.858 414.557 934.345 414.557 932.225C414.557 925.981 400.706 930.219 400.706 920.834C400.706 917.617 403.052 914.627 407.48 914.059V910.388H411.302V914.135C414.822 914.816 417.547 917.087 418.001 921.364H413.876C413.46 918.563 411.643 917.352 408.918 917.352C406.269 917.352 404.869 918.752 404.869 920.834C404.869 926.548 418.72 922.65 418.72 931.847C418.72 936.123 415.655 938.735 411.302 939.189V942.822H407.48Z" fill="#262626"/>
<rect x="742.283" y="298.708" width="592.009" height="592.009" rx="63.5261" fill="#F1F5F9"/>
<rect x="742.283" y="298.708" width="592.009" height="592.009" rx="63.5261" stroke="#F1F5F9" stroke-width="2.70324"/>
<path d="M1038.29 403.684V381.157H1015.76L1038.29 358.63L1060.82 381.157V403.684H1038.29Z" fill="#0F973D"/>
<path d="M1015.76 381.157L1038.29 403.684H1015.76V381.157Z" fill="#0F973D"/>
<path d="M879.078 479.815V450.404H884.917V462.341H897.936V450.404H903.732V479.815H897.936V467.099H884.917V479.815H879.078ZM919.262 480.464C912.385 480.464 908.147 475.836 908.147 468.267C908.147 460.395 912.515 455.983 919.262 455.983C926.096 455.983 930.335 460.654 930.335 468.267C930.335 476.052 925.967 480.464 919.262 480.464ZM919.262 475.879C922.766 475.879 924.626 473.197 924.626 468.267C924.626 463.336 922.723 460.568 919.262 460.568C915.716 460.568 913.856 463.293 913.856 468.267C913.856 473.154 915.759 475.879 919.262 475.879ZM934.36 479.815V456.632H939.896V459.616C941.367 457.194 943.616 455.983 946.34 455.983C949.282 455.983 951.574 457.281 952.742 459.919C954.299 457.281 956.764 455.983 959.749 455.983C964.203 455.983 967.231 458.751 967.231 464.374V479.815H961.695V465.499C961.695 462.341 960.527 460.568 958.062 460.568C955.294 460.568 953.564 463.25 953.564 466.364V479.815H948.027V465.499C948.027 462.341 946.859 460.568 944.394 460.568C941.626 460.568 939.896 463.25 939.896 466.364V479.815H934.36ZM993.482 472.246C992.228 477.609 988.075 480.464 982.539 480.464C975.532 480.464 971.25 475.836 971.25 468.267C971.25 460.395 975.576 455.983 982.323 455.983C989.113 455.983 993.309 460.568 993.309 468.05V469.348H976.96C977.219 473.587 979.166 475.922 982.539 475.922C985.134 475.922 986.908 474.711 987.643 472.246H993.482ZM982.323 460.525C979.382 460.525 977.608 462.384 977.089 465.888H987.513C986.994 462.428 985.221 460.525 982.323 460.525ZM1011.32 489.33H1005.78V456.632H1011.32V459.27C1012.79 457.151 1014.87 455.983 1017.42 455.983C1023.47 455.983 1027.19 460.611 1027.19 468.18C1027.19 476.052 1023.39 480.464 1017.42 480.464C1014.87 480.464 1012.75 479.382 1011.32 477.306V489.33ZM1016.42 460.568C1013.09 460.568 1011.32 463.25 1011.32 468.18C1011.32 473.111 1013.18 475.879 1016.42 475.879C1019.71 475.879 1021.48 473.154 1021.48 468.18C1021.48 463.293 1019.67 460.568 1016.42 460.568ZM1045.61 470.083V456.632H1051.15V479.815H1045.61V476.701C1044.1 479.253 1041.72 480.464 1038.87 480.464C1034.28 480.464 1031.21 477.696 1031.21 472.116V456.632H1036.75V470.992C1036.75 474.149 1038.05 475.879 1040.77 475.879C1043.75 475.879 1045.61 473.197 1045.61 470.083ZM1056.26 479.815V456.632H1061.8V460.006C1063.31 457.238 1065.64 455.983 1068.15 455.983C1069.1 455.983 1069.97 456.243 1070.4 456.632V461.433C1069.67 461.217 1068.85 461.13 1067.85 461.13C1063.65 461.13 1061.8 463.639 1061.8 467.488V479.815H1056.26ZM1092.97 464.85H1087.43C1086.91 461.822 1085.1 460.568 1082.76 460.568C1079.35 460.568 1077.53 463.293 1077.53 468.267C1077.53 473.154 1079.43 475.879 1082.94 475.879C1085.31 475.879 1087 474.581 1087.56 471.943H1093.14C1092.1 477.739 1088.04 480.464 1082.81 480.464C1075.97 480.464 1071.82 475.793 1071.82 468.267C1071.82 460.395 1076.1 455.983 1082.76 455.983C1088.04 455.983 1092.19 458.924 1092.97 464.85ZM1096.98 479.815V448.674H1102.51V459.746C1104.03 457.238 1106.45 455.983 1109.39 455.983C1114.02 455.983 1117.17 458.751 1117.17 464.374V479.815H1111.64V465.499C1111.64 462.341 1110.3 460.568 1107.49 460.568C1104.42 460.568 1102.51 463.25 1102.51 466.364V479.815H1096.98ZM1127.64 464.244H1122.06C1122.8 459.097 1126.56 455.983 1132.4 455.983C1138.84 455.983 1142.13 459.789 1142.13 465.153V474.149C1142.13 477.004 1142.39 478.604 1142.82 479.815H1137.07C1136.77 479.036 1136.64 477.912 1136.59 476.658C1134.69 479.339 1131.84 480.464 1129.07 480.464C1124.53 480.464 1121.28 478.215 1121.28 473.76C1121.28 470.602 1123.06 468.223 1126.6 467.056C1129.67 466.018 1132.66 465.758 1136.55 465.715V465.153C1136.55 462.168 1135.12 460.568 1132.05 460.568C1129.41 460.568 1127.99 462.038 1127.64 464.244ZM1126.86 473.457C1126.86 475.23 1128.25 476.355 1130.49 476.355C1133.91 476.355 1136.55 473.587 1136.55 470.127V469.132C1128.68 469.262 1126.86 471.121 1126.86 473.457ZM1152.04 462.86C1152.04 468.18 1166.66 463.682 1166.66 472.981C1166.66 477.436 1162.55 480.464 1156.75 480.464C1151.04 480.464 1146.93 477.825 1146.11 472.246H1151.65C1152.04 474.754 1154.03 476.182 1156.92 476.182C1159.65 476.182 1161.08 475.014 1161.08 473.327C1161.08 468.137 1146.76 472.592 1146.76 463.206C1146.76 459.443 1149.7 455.983 1155.76 455.983C1161.08 455.983 1165.1 458.492 1165.79 464.244H1160.25C1159.82 461.433 1158.18 460.308 1155.54 460.308C1153.33 460.308 1152.04 461.39 1152.04 462.86ZM1191.58 472.246C1190.32 477.609 1186.17 480.464 1180.64 480.464C1173.63 480.464 1169.35 475.836 1169.35 468.267C1169.35 460.395 1173.67 455.983 1180.42 455.983C1187.21 455.983 1191.41 460.568 1191.41 468.05V469.348H1175.06C1175.32 473.587 1177.26 475.922 1180.64 475.922C1183.23 475.922 1185 474.711 1185.74 472.246H1191.58ZM1180.42 460.525C1177.48 460.525 1175.71 462.384 1175.19 465.888H1185.61C1185.09 462.428 1183.32 460.525 1180.42 460.525Z" fill="#262626"/>
<path d="M868.021 535.1V514.88H881.73V517.11H870.757V524.038H880.629V526.269H870.757V535.1H868.021ZM890.7 535.457C886.181 535.457 883.475 532.364 883.475 527.22C883.475 521.868 886.27 518.924 890.7 518.924C895.22 518.924 897.926 522.076 897.926 527.22C897.926 532.543 895.131 535.457 890.7 535.457ZM890.7 533.197C893.644 533.197 895.25 531.086 895.25 527.22C895.25 523.384 893.614 521.184 890.7 521.184C887.757 521.184 886.151 523.325 886.151 527.22C886.151 531.026 887.786 533.197 890.7 533.197ZM901.294 535.1V519.31H903.911V521.749C904.981 519.816 906.676 518.924 908.579 518.924C909.204 518.924 909.769 519.073 910.066 519.31V521.66C909.62 521.511 909.055 521.451 908.431 521.451C905.279 521.451 903.911 523.414 903.911 526.269V535.1H901.294ZM928.391 528.647V519.31H931.007V535.1H928.391V532.959C927.32 534.624 925.655 535.457 923.603 535.457C920.302 535.457 918.34 533.524 918.34 529.867V519.31H920.957V529.331C920.957 531.71 921.997 533.227 924.317 533.227C926.874 533.227 928.391 530.907 928.391 528.647ZM935.182 535.1V519.31H937.799V521.451C938.87 519.786 940.594 518.924 942.676 518.924C946.036 518.924 948.028 520.886 948.028 524.544V535.1H945.411V525.079C945.411 522.7 944.341 521.154 941.962 521.154C939.345 521.154 937.799 523.503 937.799 525.763V535.1H935.182ZM965.848 529.956C964.985 533.643 962.339 535.457 958.741 535.457C954.162 535.457 951.396 532.364 951.396 527.22C951.396 521.868 954.162 518.924 958.592 518.924C963.052 518.924 965.729 521.987 965.729 527.012V527.666H954.072C954.221 531.205 955.886 533.197 958.741 533.197C960.971 533.197 962.547 532.127 963.112 529.956H965.848ZM958.592 521.184C956.065 521.184 954.548 522.76 954.162 525.704H962.993C962.636 522.79 961.06 521.184 958.592 521.184ZM978.831 535.1L975.054 529.837L974.281 528.618L973.508 529.837L969.821 535.1H966.847L972.854 526.893L967.323 519.31H970.594L973.865 523.949L974.668 525.228L975.441 523.949L978.652 519.31H981.626L976.095 526.893L982.102 535.1H978.831ZM986.991 541.642H984.375V519.31H986.991V521.273C988.032 519.786 989.549 518.924 991.422 518.924C995.615 518.924 998.142 522.016 998.142 527.161C998.142 532.513 995.555 535.457 991.422 535.457C989.549 535.457 988.032 534.684 986.991 533.227V541.642ZM991.243 521.184C988.478 521.184 986.991 523.295 986.991 527.161C986.991 530.997 988.538 533.197 991.243 533.197C993.979 533.197 995.466 531.056 995.466 527.161C995.466 523.355 993.92 521.184 991.243 521.184ZM1015.16 529.956C1014.29 533.643 1011.65 535.457 1008.05 535.457C1003.47 535.457 1000.7 532.364 1000.7 527.22C1000.7 521.868 1003.47 518.924 1007.9 518.924C1012.36 518.924 1015.04 521.987 1015.04 527.012V527.666H1003.38C1003.53 531.205 1005.19 533.197 1008.05 533.197C1010.28 533.197 1011.85 532.127 1012.42 529.956H1015.16ZM1007.9 521.184C1005.37 521.184 1003.86 522.76 1003.47 525.704H1012.3C1011.94 522.79 1010.37 521.184 1007.9 521.184ZM1031.58 524.752H1028.96C1028.54 522.344 1026.94 521.184 1024.86 521.184C1021.94 521.184 1020.4 523.325 1020.4 527.22C1020.4 531.056 1022.03 533.227 1024.95 533.227C1027.06 533.227 1028.57 532.097 1029.08 529.837H1031.7C1030.98 533.762 1028.34 535.457 1024.89 535.457C1020.4 535.457 1017.72 532.335 1017.72 527.22C1017.72 521.868 1020.46 518.924 1024.86 518.924C1028.34 518.924 1031.07 520.886 1031.58 524.752ZM1035.29 530.551V521.392H1033.09V519.31H1035.29V515.683H1037.9V519.31H1041.38V521.392H1037.9V530.551C1037.9 532.454 1038.47 533.346 1040.79 533.346H1041.32V535.219C1041.03 535.368 1040.37 535.457 1039.63 535.457C1036.68 535.457 1035.29 533.881 1035.29 530.551ZM1057.52 529.956C1056.66 533.643 1054.01 535.457 1050.42 535.457C1045.84 535.457 1043.07 532.364 1043.07 527.22C1043.07 521.868 1045.84 518.924 1050.27 518.924C1054.73 518.924 1057.4 521.987 1057.4 527.012V527.666H1045.75C1045.9 531.205 1047.56 533.197 1050.42 533.197C1052.65 533.197 1054.22 532.127 1054.79 529.956H1057.52ZM1050.27 521.184C1047.74 521.184 1046.22 522.76 1045.84 525.704H1054.67C1054.31 522.79 1052.74 521.184 1050.27 521.184ZM1066.81 535.457C1062.62 535.457 1060.09 532.364 1060.09 527.22C1060.09 521.868 1062.67 518.924 1066.81 518.924C1068.68 518.924 1070.2 519.697 1071.24 521.154V513.69H1073.86V535.1H1071.24V533.108C1070.2 534.595 1068.68 535.457 1066.81 535.457ZM1066.99 533.197C1069.75 533.197 1071.24 531.086 1071.24 527.22C1071.24 523.384 1069.69 521.184 1066.99 521.184C1064.25 521.184 1062.76 523.325 1062.76 527.22C1062.76 531.026 1064.31 533.197 1066.99 533.197ZM1097.63 529.956C1096.76 533.643 1094.12 535.457 1090.52 535.457C1085.94 535.457 1083.17 532.364 1083.17 527.22C1083.17 521.868 1085.94 518.924 1090.37 518.924C1094.83 518.924 1097.51 521.987 1097.51 527.012V527.666H1085.85C1086 531.205 1087.66 533.197 1090.52 533.197C1092.75 533.197 1094.32 532.127 1094.89 529.956H1097.63ZM1090.37 521.184C1087.84 521.184 1086.33 522.76 1085.94 525.704H1094.77C1094.41 522.79 1092.84 521.184 1090.37 521.184ZM1110.61 535.1L1106.83 529.837L1106.06 528.618L1105.29 529.837L1101.6 535.1H1098.62L1104.63 526.893L1099.1 519.31H1102.37L1105.64 523.949L1106.45 525.228L1107.22 523.949L1110.43 519.31H1113.4L1107.87 526.893L1113.88 535.1H1110.61ZM1118.77 541.642H1116.15V519.31H1118.77V521.273C1119.81 519.786 1121.33 518.924 1123.2 518.924C1127.39 518.924 1129.92 522.016 1129.92 527.161C1129.92 532.513 1127.33 535.457 1123.2 535.457C1121.33 535.457 1119.81 534.684 1118.77 533.227V541.642ZM1123.02 521.184C1120.26 521.184 1118.77 523.295 1118.77 527.161C1118.77 530.997 1120.32 533.197 1123.02 533.197C1125.76 533.197 1127.24 531.056 1127.24 527.161C1127.24 523.355 1125.7 521.184 1123.02 521.184ZM1146.93 529.956C1146.07 533.643 1143.42 535.457 1139.83 535.457C1135.25 535.457 1132.48 532.364 1132.48 527.22C1132.48 521.868 1135.25 518.924 1139.68 518.924C1144.14 518.924 1146.81 521.987 1146.81 527.012V527.666H1135.16C1135.31 531.205 1136.97 533.197 1139.83 533.197C1142.06 533.197 1143.63 532.127 1144.2 529.956H1146.93ZM1139.68 521.184C1137.15 521.184 1135.63 522.76 1135.25 525.704H1144.08C1143.72 522.79 1142.15 521.184 1139.68 521.184ZM1150.3 535.1V519.31H1152.92V521.451C1153.99 519.786 1155.71 518.924 1157.79 518.924C1161.15 518.924 1163.15 520.886 1163.15 524.544V535.1H1160.53V525.079C1160.53 522.7 1159.46 521.154 1157.08 521.154C1154.46 521.154 1152.92 523.503 1152.92 525.763V535.1H1150.3ZM1169.25 523.355C1169.25 527.755 1179.51 524.128 1179.51 530.64C1179.51 533.584 1176.89 535.457 1173.18 535.457C1169.43 535.457 1166.81 533.673 1166.22 529.956H1168.83C1169.19 532.156 1170.83 533.375 1173.26 533.375C1175.64 533.375 1176.89 532.305 1176.89 530.818C1176.89 526.507 1166.75 530.075 1166.75 523.533C1166.75 521.124 1168.63 518.924 1172.49 518.924C1175.91 518.924 1178.44 520.53 1178.94 524.455H1176.33C1175.94 521.987 1174.57 521.065 1172.34 521.065C1170.38 521.065 1169.25 522.046 1169.25 523.355ZM1196.27 529.956C1195.41 533.643 1192.76 535.457 1189.16 535.457C1184.58 535.457 1181.82 532.364 1181.82 527.22C1181.82 521.868 1184.58 518.924 1189.01 518.924C1193.47 518.924 1196.15 521.987 1196.15 527.012V527.666H1184.49C1184.64 531.205 1186.31 533.197 1189.16 533.197C1191.39 533.197 1192.97 532.127 1193.53 529.956H1196.27ZM1189.01 521.184C1186.49 521.184 1184.97 522.76 1184.58 525.704H1193.41C1193.06 522.79 1191.48 521.184 1189.01 521.184ZM1201.57 523.355C1201.57 527.755 1211.83 524.128 1211.83 530.64C1211.83 533.584 1209.21 535.457 1205.5 535.457C1201.75 535.457 1199.13 533.673 1198.54 529.956H1201.15C1201.51 532.156 1203.15 533.375 1205.58 533.375C1207.96 533.375 1209.21 532.305 1209.21 530.818C1209.21 526.507 1199.07 530.075 1199.07 523.533C1199.07 521.124 1200.95 518.924 1204.81 518.924C1208.23 518.924 1210.76 520.53 1211.26 524.455H1208.65C1208.26 521.987 1206.89 521.065 1204.66 521.065C1202.7 521.065 1201.57 522.046 1201.57 523.355Z" fill="#595959"/>
<path d="M777.222 784.017V772.987H781.001C783.499 772.987 785.072 774.317 785.072 776.475C785.072 778.697 783.483 779.994 781.017 779.994H778.714V784.017H777.222ZM780.985 774.204H778.714V778.778H780.936C782.575 778.778 783.531 777.902 783.531 776.491C783.531 775.096 782.558 774.204 780.985 774.204ZM786.979 784.017V772.987H790.953C793.272 772.987 794.748 774.188 794.748 776.102C794.748 777.367 794.132 778.259 793.094 778.729C793.807 779.053 794.181 779.654 794.456 780.74L795.283 784.017H793.71L793.013 781.032C792.688 779.654 792.137 779.394 790.807 779.394H788.471V784.017H786.979ZM790.92 774.204H788.471V778.178H790.888C792.348 778.178 793.207 777.399 793.207 776.183C793.207 774.966 792.348 774.204 790.92 774.204ZM801.87 784.211C798.642 784.211 796.663 782.038 796.663 778.518C796.663 774.999 798.642 772.793 801.87 772.793C805.081 772.793 807.076 774.999 807.076 778.518C807.076 782.038 805.081 784.211 801.87 784.211ZM801.87 782.93C804.173 782.93 805.551 781.259 805.551 778.518C805.551 775.761 804.173 774.074 801.87 774.074C799.567 774.074 798.188 775.761 798.188 778.518C798.188 781.259 799.567 782.93 801.87 782.93ZM818.268 784.017H817.149L817.036 782.281C816.354 783.595 815.138 784.211 813.678 784.211C810.694 784.211 808.796 782.054 808.796 778.518C808.796 774.999 810.694 772.793 813.808 772.793C815.933 772.793 817.749 773.961 818.284 776.166H816.727C816.322 774.82 815.17 774.074 813.759 774.074C811.602 774.074 810.321 775.761 810.321 778.518C810.321 781.276 811.618 782.93 813.808 782.93C815.446 782.93 816.744 781.924 816.841 779.556H814.019V778.372H818.268V784.017ZM820.574 784.017V772.987H824.548C826.867 772.987 828.343 774.188 828.343 776.102C828.343 777.367 827.727 778.259 826.689 778.729C827.403 779.053 827.776 779.654 828.051 780.74L828.879 784.017H827.305L826.608 781.032C826.283 779.654 825.732 779.394 824.402 779.394H822.066V784.017H820.574ZM824.516 774.204H822.066V778.178H824.483C825.943 778.178 826.802 777.399 826.802 776.183C826.802 774.966 825.943 774.204 824.516 774.204ZM830.664 784.017V772.987H838.141V774.204H832.156V777.691H837.541V778.907H832.156V782.8H838.141V784.017H830.664ZM841.255 775.68C841.255 778.794 848.019 776.377 848.019 780.902C848.019 783.027 846.299 784.211 843.948 784.211C841.58 784.211 839.958 783.125 839.471 780.902H841.028C841.385 782.216 842.374 782.93 843.964 782.93C845.618 782.93 846.494 782.2 846.494 781.097C846.494 777.723 839.731 780.237 839.731 775.777C839.731 774.188 841.061 772.793 843.494 772.793C845.618 772.793 847.321 773.815 847.727 776.166H846.154C845.813 774.707 844.872 774.074 843.461 774.074C842.066 774.074 841.255 774.707 841.255 775.68ZM851.028 775.68C851.028 778.794 857.792 776.377 857.792 780.902C857.792 783.027 856.072 784.211 853.721 784.211C851.352 784.211 849.731 783.125 849.244 780.902H850.801C851.158 782.216 852.147 782.93 853.737 782.93C855.391 782.93 856.267 782.2 856.267 781.097C856.267 777.723 849.503 780.237 849.503 775.777C849.503 774.188 850.833 772.793 853.266 772.793C855.391 772.793 857.094 773.815 857.5 776.166H855.926C855.586 774.707 854.645 774.074 853.234 774.074C851.839 774.074 851.028 774.707 851.028 775.68Z" fill="#595959"/>
<path d="M1263.65 812.573C1263.65 815.536 1261.42 817.374 1258.35 817.374C1254.87 817.374 1252.51 815.06 1252.51 810.107C1252.51 805.458 1254.65 802.819 1258.29 802.819C1261.01 802.819 1262.96 804.377 1263.59 807.188H1260.75C1260.34 805.825 1259.43 805.155 1258.2 805.155C1256.34 805.155 1255.28 806.669 1255.13 809.437C1255.95 808.485 1257.16 807.966 1258.55 807.966C1261.6 807.966 1263.65 809.697 1263.65 812.573ZM1258.29 815.081C1259.82 815.081 1260.82 814.216 1260.82 812.659C1260.82 811.124 1259.8 810.216 1258.29 810.216C1256.73 810.216 1255.74 811.102 1255.74 812.681C1255.74 814.173 1256.73 815.081 1258.29 815.081ZM1270.4 817.374C1266.9 817.374 1264.84 814.67 1264.84 810.107C1264.84 805.458 1266.92 802.819 1270.4 802.819C1273.91 802.819 1275.96 805.523 1275.96 810.107C1275.96 814.735 1273.88 817.374 1270.4 817.374ZM1270.4 815.038C1272.15 815.038 1273.11 813.286 1273.11 810.107C1273.11 806.928 1272.13 805.155 1270.4 805.155C1268.63 805.155 1267.68 806.907 1267.68 810.107C1267.68 813.243 1268.65 815.038 1270.4 815.038ZM1280.35 810.713C1278.21 810.713 1276.94 809.286 1276.94 806.799C1276.94 804.29 1278.21 802.819 1280.35 802.819C1282.49 802.819 1283.77 804.312 1283.77 806.799C1283.77 809.264 1282.52 810.713 1280.35 810.713ZM1279.49 817.049L1288.87 803.144H1291.34L1281.98 817.049H1279.49ZM1280.35 808.983C1281.18 808.983 1281.63 808.204 1281.63 806.799C1281.63 805.371 1281.18 804.593 1280.35 804.593C1279.53 804.593 1279.1 805.371 1279.1 806.799C1279.1 808.204 1279.55 808.983 1280.35 808.983ZM1290.45 817.266C1288.31 817.266 1287.06 815.817 1287.06 813.33C1287.06 810.821 1288.33 809.35 1290.45 809.35C1292.62 809.35 1293.89 810.843 1293.89 813.33C1293.89 815.817 1292.62 817.266 1290.45 817.266ZM1290.45 815.514C1291.27 815.514 1291.73 814.735 1291.73 813.33C1291.73 811.902 1291.27 811.124 1290.45 811.124C1289.65 811.124 1289.22 811.902 1289.22 813.33C1289.22 814.735 1289.65 815.514 1290.45 815.514Z" fill="#262626"/>
<g clip-path="url(#clip2_1052_11996)">
<rect x="773.371" y="800.159" width="464.957" height="21.6259" rx="10.813" fill="#F1F5F9"/>
<rect x="773.371" y="800.159" width="286.543" height="21.6259" rx="10.813" fill="#0F973D"/>
</g>
<path d="M1001.65 613.027V609.28C997.68 608.599 994.955 606.139 994.312 601.863H998.399C998.777 604.587 1001.01 606.063 1004.11 606.063C1007.14 606.063 1008.73 604.55 1008.73 602.43C1008.73 596.186 994.879 600.424 994.879 591.039C994.879 587.822 997.226 584.832 1001.65 584.265V580.594H1005.48V584.34C1009 585.021 1011.72 587.292 1012.17 591.569H1008.05C1007.63 588.768 1005.82 587.557 1003.09 587.557C1000.44 587.557 999.042 588.957 999.042 591.039C999.042 596.753 1012.89 592.855 1012.89 602.052C1012.89 606.328 1009.83 608.94 1005.48 609.394V613.027H1001.65ZM1023.46 613.027V609.28C1019.49 608.599 1016.76 606.139 1016.12 601.863H1020.2C1020.58 604.587 1022.82 606.063 1025.92 606.063C1028.95 606.063 1030.54 604.55 1030.54 602.43C1030.54 596.186 1016.68 600.424 1016.68 591.039C1016.68 587.822 1019.03 584.832 1023.46 584.265V580.594H1027.28V584.34C1030.8 585.021 1033.53 587.292 1033.98 591.569H1029.85C1029.44 588.768 1027.62 587.557 1024.9 587.557C1022.25 587.557 1020.85 588.957 1020.85 591.039C1020.85 596.753 1034.7 592.855 1034.7 602.052C1034.7 606.328 1031.63 608.94 1027.28 609.394V613.027H1023.46ZM1045.26 613.027V609.28C1041.29 608.599 1038.57 606.139 1037.92 601.863H1042.01C1042.39 604.587 1044.62 606.063 1047.72 606.063C1050.75 606.063 1052.34 604.55 1052.34 602.43C1052.34 596.186 1038.49 600.424 1038.49 591.039C1038.49 587.822 1040.84 584.832 1045.26 584.265V580.594H1049.09V584.34C1052.61 585.021 1055.33 587.292 1055.79 591.569H1051.66C1051.24 588.768 1049.43 587.557 1046.7 587.557C1044.05 587.557 1042.65 588.957 1042.65 591.039C1042.65 596.753 1056.5 592.855 1056.5 602.052C1056.5 606.328 1053.44 608.94 1049.09 609.394V613.027H1045.26ZM1067.07 613.027V609.28C1063.1 608.599 1060.37 606.139 1059.73 601.863H1063.82C1064.19 604.587 1066.43 606.063 1069.53 606.063C1072.56 606.063 1074.15 604.55 1074.15 602.43C1074.15 596.186 1060.3 600.424 1060.3 591.039C1060.3 587.822 1062.64 584.832 1067.07 584.265V580.594H1070.89V584.34C1074.41 585.021 1077.14 587.292 1077.59 591.569H1073.47C1073.05 588.768 1071.23 587.557 1068.51 587.557C1065.86 587.557 1064.46 588.957 1064.46 591.039C1064.46 596.753 1078.31 592.855 1078.31 602.052C1078.31 606.328 1075.24 608.94 1070.89 609.394V613.027H1067.07Z" fill="#262626"/>
<g clip-path="url(#clip3_1052_11996)">
<path d="M740.931 989.385C740.931 953.554 769.978 924.507 805.809 924.507H1270.77C1306.6 924.507 1335.64 953.554 1335.64 989.385V1027.23H740.931V989.385Z" fill="#F1F5F9"/>
<path fill-rule="evenodd" clip-rule="evenodd" d="M1047.3 999.297H1056.31L1065.32 1008.31L1056.31 1017.32H1047.3V1026.33L1038.29 1035.34L1029.28 1026.33V1017.32H1020.27L1011.26 1008.31L1020.27 999.297H1029.28V990.286L1038.29 981.275L1047.3 990.286V999.297ZM1038.29 994.792L1024.77 1008.31L1038.29 1021.82L1051.8 1008.31L1038.29 994.792Z" fill="#4187F5"/>
</g>
<path d="M805.809 925.859H1270.77C1305.85 925.859 1334.29 954.301 1334.29 989.385V1025.88H742.283V989.385C742.283 954.301 770.724 925.859 805.809 925.859Z" stroke="#F1F5F9" stroke-width="2.70324"/>
<path d="M805.809 263.565H1270.77C1305.85 263.565 1334.29 235.124 1334.29 200.039V1.35135H742.283V200.039C742.283 235.124 770.724 263.565 805.809 263.565Z" fill="#F1F5F9"/>
<path d="M805.809 263.565H1270.77C1305.85 263.565 1334.29 235.124 1334.29 200.039V1.35135H742.283V200.039C742.283 235.124 770.724 263.565 805.809 263.565Z" stroke="#F1F5F9" stroke-width="2.70324"/>
<path d="M777.222 156.865V145.836H781.001C783.499 145.836 785.072 147.166 785.072 149.323C785.072 151.545 783.483 152.843 781.017 152.843H778.714V156.865H777.222ZM780.985 147.052H778.714V151.626H780.936C782.575 151.626 783.531 150.751 783.531 149.339C783.531 147.945 782.558 147.052 780.985 147.052ZM786.979 156.865V145.836H790.953C793.272 145.836 794.748 147.036 794.748 148.95C794.748 150.215 794.132 151.107 793.094 151.578C793.807 151.902 794.181 152.502 794.456 153.589L795.283 156.865H793.71L793.013 153.881C792.688 152.502 792.137 152.243 790.807 152.243H788.471V156.865H786.979ZM790.92 147.052H788.471V151.026H790.888C792.348 151.026 793.207 150.248 793.207 149.031C793.207 147.815 792.348 147.052 790.92 147.052ZM801.87 157.06C798.642 157.06 796.663 154.886 796.663 151.367C796.663 147.847 798.642 145.641 801.87 145.641C805.081 145.641 807.076 147.847 807.076 151.367C807.076 154.886 805.081 157.06 801.87 157.06ZM801.87 155.779C804.173 155.779 805.551 154.108 805.551 151.367C805.551 148.61 804.173 146.923 801.87 146.923C799.567 146.923 798.188 148.61 798.188 151.367C798.188 154.108 799.567 155.779 801.87 155.779ZM818.268 156.865H817.149L817.036 155.13C816.354 156.444 815.138 157.06 813.678 157.06C810.694 157.06 808.796 154.903 808.796 151.367C808.796 147.847 810.694 145.641 813.808 145.641C815.933 145.641 817.749 146.809 818.284 149.015H816.727C816.322 147.669 815.17 146.923 813.759 146.923C811.602 146.923 810.321 148.61 810.321 151.367C810.321 154.124 811.618 155.779 813.808 155.779C815.446 155.779 816.744 154.773 816.841 152.405H814.019V151.221H818.268V156.865ZM820.574 156.865V145.836H824.548C826.867 145.836 828.343 147.036 828.343 148.95C828.343 150.215 827.727 151.107 826.689 151.578C827.403 151.902 827.776 152.502 828.051 153.589L828.879 156.865H827.305L826.608 153.881C826.283 152.502 825.732 152.243 824.402 152.243H822.066V156.865H820.574ZM824.516 147.052H822.066V151.026H824.483C825.943 151.026 826.802 150.248 826.802 149.031C826.802 147.815 825.943 147.052 824.516 147.052ZM830.664 156.865V145.836H838.141V147.052H832.156V150.54H837.541V151.756H832.156V155.649H838.141V156.865H830.664ZM841.255 148.528C841.255 151.643 848.019 149.226 848.019 153.751C848.019 155.876 846.299 157.06 843.948 157.06C841.58 157.06 839.958 155.973 839.471 153.751H841.028C841.385 155.065 842.374 155.779 843.964 155.779C845.618 155.779 846.494 155.049 846.494 153.946C846.494 150.572 839.731 153.086 839.731 148.626C839.731 147.036 841.061 145.641 843.494 145.641C845.618 145.641 847.321 146.663 847.727 149.015H846.154C845.813 147.555 844.872 146.923 843.461 146.923C842.066 146.923 841.255 147.555 841.255 148.528ZM851.028 148.528C851.028 151.643 857.792 149.226 857.792 153.751C857.792 155.876 856.072 157.06 853.721 157.06C851.352 157.06 849.731 155.973 849.244 153.751H850.801C851.158 155.065 852.147 155.779 853.737 155.779C855.391 155.779 856.267 155.049 856.267 153.946C856.267 150.572 849.503 153.086 849.503 148.626C849.503 147.036 850.833 145.641 853.266 145.641C855.391 145.641 857.094 146.663 857.5 149.015H855.926C855.586 147.555 854.645 146.923 853.234 146.923C851.839 146.923 851.028 147.555 851.028 148.528Z" fill="#595959"/>
<path d="M1263.65 185.421C1263.65 188.384 1261.42 190.222 1258.35 190.222C1254.87 190.222 1252.51 187.908 1252.51 182.956C1252.51 178.306 1254.65 175.668 1258.29 175.668C1261.01 175.668 1262.96 177.225 1263.59 180.036H1260.75C1260.34 178.674 1259.43 178.003 1258.2 178.003C1256.34 178.003 1255.28 179.517 1255.13 182.285C1255.95 181.334 1257.16 180.815 1258.55 180.815C1261.6 180.815 1263.65 182.545 1263.65 185.421ZM1258.29 187.93C1259.82 187.93 1260.82 187.064 1260.82 185.507C1260.82 183.972 1259.8 183.064 1258.29 183.064C1256.73 183.064 1255.74 183.95 1255.74 185.529C1255.74 187.021 1256.73 187.93 1258.29 187.93ZM1270.4 190.222C1266.9 190.222 1264.84 187.519 1264.84 182.956C1264.84 178.306 1266.92 175.668 1270.4 175.668C1273.91 175.668 1275.96 178.371 1275.96 182.956C1275.96 187.583 1273.88 190.222 1270.4 190.222ZM1270.4 187.886C1272.15 187.886 1273.11 186.135 1273.11 182.956C1273.11 179.777 1272.13 178.003 1270.4 178.003C1268.63 178.003 1267.68 179.755 1267.68 182.956C1267.68 186.091 1268.65 187.886 1270.4 187.886ZM1280.35 183.561C1278.21 183.561 1276.94 182.134 1276.94 179.647C1276.94 177.138 1278.21 175.668 1280.35 175.668C1282.49 175.668 1283.77 177.16 1283.77 179.647C1283.77 182.112 1282.52 183.561 1280.35 183.561ZM1279.49 189.897L1288.87 175.992H1291.34L1281.98 189.897H1279.49ZM1280.35 181.831C1281.18 181.831 1281.63 181.052 1281.63 179.647C1281.63 178.219 1281.18 177.441 1280.35 177.441C1279.53 177.441 1279.1 178.219 1279.1 179.647C1279.1 181.052 1279.55 181.831 1280.35 181.831ZM1290.45 190.114C1288.31 190.114 1287.06 188.665 1287.06 186.178C1287.06 183.669 1288.33 182.199 1290.45 182.199C1292.62 182.199 1293.89 183.691 1293.89 186.178C1293.89 188.665 1292.62 190.114 1290.45 190.114ZM1290.45 188.362C1291.27 188.362 1291.73 187.583 1291.73 186.178C1291.73 184.75 1291.27 183.972 1290.45 183.972C1289.65 183.972 1289.22 184.75 1289.22 186.178C1289.22 187.583 1289.65 188.362 1290.45 188.362Z" fill="#262626"/>
<g clip-path="url(#clip4_1052_11996)">
<rect x="773.371" y="173.007" width="464.957" height="21.6259" rx="10.813" fill="#F1F5F9"/>
<rect x="773.371" y="173.007" width="286.543" height="21.6259" rx="10.813" fill="#CBD5E1"/>
</g>
<rect x="0.244141" y="9.23193" width="2049.51" height="1114.77" fill="url(#paint0_linear_1052_11996)"/>
<defs>
<linearGradient id="paint0_linear_1052_11996" x1="1025" y1="806.649" x2="1024.93" y2="1073.22" gradientUnits="userSpaceOnUse">
<stop stop-color="#F8FAFC" stop-opacity="0"/>
<stop offset="0.582747" stop-color="#F8FAFC"/>
</linearGradient>
<clipPath id="clip0_1052_11996">
<rect x="1432.96" y="502.803" width="464.957" height="21.6259" rx="10.813" fill="white"/>
</clipPath>
<clipPath id="clip1_1052_11996">
<rect x="113.78" y="502.803" width="464.957" height="21.6259" rx="10.813" fill="white"/>
</clipPath>
<clipPath id="clip2_1052_11996">
<rect x="773.371" y="800.159" width="464.957" height="21.6259" rx="10.813" fill="white"/>
</clipPath>
<clipPath id="clip3_1052_11996">
<path d="M740.931 989.385C740.931 953.554 769.978 924.507 805.809 924.507H1270.77C1306.6 924.507 1335.64 953.554 1335.64 989.385V1027.23H740.931V989.385Z" fill="white"/>
</clipPath>
<clipPath id="clip4_1052_11996">
<rect x="773.371" y="173.007" width="464.957" height="21.6259" rx="10.813" fill="white"/>
</clipPath>
</defs>
</svg>
