<svg width="356" height="424" viewBox="0 0 356 424" fill="none" xmlns="http://www.w3.org/2000/svg">
<rect x="0.268555" width="355" height="424" rx="19.0323" fill="white" fill-opacity="0.05"/>
<path d="M18.5696 286.311C18.5696 289.734 27.1166 286.962 27.1166 292.8C27.1166 295.677 24.7646 297.315 21.5306 297.315C18.2756 297.315 15.9656 295.803 15.4196 292.695H18.3806C18.7376 294.207 19.8296 295.047 21.5516 295.047C23.3156 295.047 24.2186 294.312 24.2186 293.157C24.2186 289.524 15.6926 292.254 15.6926 286.563C15.6926 284.295 17.5616 282.405 20.9426 282.405C23.8196 282.405 26.2556 283.791 26.7176 287.004H23.7146C23.3786 285.408 22.3916 284.673 20.8586 284.673C19.4306 284.673 18.5696 285.324 18.5696 286.311ZM29.0095 297V285.744H31.6975V287.193C32.4115 286.017 33.5035 285.429 34.8265 285.429C36.2545 285.429 37.3675 286.059 37.9345 287.34C38.6905 286.059 39.8875 285.429 41.3365 285.429C43.4995 285.429 44.9695 286.773 44.9695 289.503V297H42.2815V290.049C42.2815 288.516 41.7145 287.655 40.5175 287.655C39.1735 287.655 38.3335 288.957 38.3335 290.469V297H35.6455V290.049C35.6455 288.516 35.0785 287.655 33.8815 287.655C32.5375 287.655 31.6975 288.957 31.6975 290.469V297H29.0095ZM50.05 289.44H47.341C47.698 286.941 49.525 285.429 52.36 285.429C55.489 285.429 57.085 287.277 57.085 289.881V294.249C57.085 295.635 57.211 296.412 57.421 297H54.628C54.481 296.622 54.418 296.076 54.397 295.467C53.473 296.769 52.087 297.315 50.743 297.315C48.538 297.315 46.963 296.223 46.963 294.06C46.963 292.527 47.824 291.372 49.546 290.805C51.037 290.301 52.486 290.175 54.376 290.154V289.881C54.376 288.432 53.683 287.655 52.192 287.655C50.911 287.655 50.218 288.369 50.05 289.44ZM49.672 293.913C49.672 294.774 50.344 295.32 51.436 295.32C53.095 295.32 54.376 293.976 54.376 292.296V291.813C50.554 291.876 49.672 292.779 49.672 293.913ZM59.6482 297V285.744H62.3362V287.382C63.0712 286.038 64.2052 285.429 65.4232 285.429C65.8852 285.429 66.3052 285.555 66.5152 285.744V288.075C66.1582 287.97 65.7592 287.928 65.2762 287.928C63.2392 287.928 62.3362 289.146 62.3362 291.015V297H59.6482ZM68.2903 293.493V287.823H66.8413V285.744H68.2903V283.161H70.9783V285.744H73.3513V287.823H70.9783V293.262C70.9783 294.438 71.3143 295.068 72.8053 295.068H73.3093V297.042C73.0153 297.189 72.4063 297.315 71.6713 297.315C69.3823 297.315 68.2903 296.013 68.2903 293.493ZM81.5285 286.311C81.5285 289.734 90.0755 286.962 90.0755 292.8C90.0755 295.677 87.7235 297.315 84.4895 297.315C81.2345 297.315 78.9245 295.803 78.3785 292.695H81.3395C81.6965 294.207 82.7885 295.047 84.5105 295.047C86.2745 295.047 87.1775 294.312 87.1775 293.157C87.1775 289.524 78.6515 292.254 78.6515 286.563C78.6515 284.295 80.5205 282.405 83.9015 282.405C86.7785 282.405 89.2145 283.791 89.6765 287.004H86.6735C86.3375 285.408 85.3505 284.673 83.8175 284.673C82.3895 284.673 81.5285 285.324 81.5285 286.311ZM94.5725 289.44H91.8635C92.2205 286.941 94.0475 285.429 96.8825 285.429C100.011 285.429 101.607 287.277 101.607 289.881V294.249C101.607 295.635 101.733 296.412 101.943 297H99.1505C99.0035 296.622 98.9405 296.076 98.9195 295.467C97.9955 296.769 96.6095 297.315 95.2655 297.315C93.0605 297.315 91.4855 296.223 91.4855 294.06C91.4855 292.527 92.3465 291.372 94.0685 290.805C95.5595 290.301 97.0085 290.175 98.8985 290.154V289.881C98.8985 288.432 98.2055 287.655 96.7145 287.655C95.4335 287.655 94.7405 288.369 94.5725 289.44ZM94.1945 293.913C94.1945 294.774 94.8665 295.32 95.9585 295.32C97.6175 295.32 98.8985 293.976 98.8985 292.296V291.813C95.0765 291.876 94.1945 292.779 94.1945 293.913ZM106.535 297L102.482 285.744H105.38L107.984 293.682L108.278 294.9L108.551 293.682L111.155 285.744H113.906L109.853 297H106.535ZM115.204 284.484V281.88H117.892V284.484H115.204ZM115.204 297V285.744H117.892V297H115.204ZM120.351 297V285.744H123.039V287.256C123.774 286.038 124.95 285.429 126.378 285.429C128.625 285.429 130.158 286.773 130.158 289.503V297H127.47V290.049C127.47 288.516 126.819 287.655 125.454 287.655C123.963 287.655 123.039 288.957 123.039 290.469V297H120.351ZM136.73 297.042C133.874 297.042 132.11 294.837 132.11 291.246C132.11 287.508 133.916 285.429 136.73 285.429C138.074 285.429 139.124 285.933 139.817 286.878V285.744H142.505V297.357C142.505 300.402 140.405 301.956 137.612 301.956C134.84 301.956 132.824 300.675 132.425 298.008H135.134C135.302 299.205 136.268 299.835 137.57 299.835C138.914 299.835 139.817 299.184 139.817 297.399V295.509C139.082 296.517 138.032 297.042 136.73 297.042ZM137.339 294.816C138.956 294.816 139.817 293.556 139.817 291.246C139.817 288.957 138.914 287.655 137.339 287.655C135.743 287.655 134.882 288.915 134.882 291.246C134.882 293.535 135.743 294.816 137.339 294.816ZM147.228 288.768C147.228 291.351 154.326 289.167 154.326 293.682C154.326 295.845 152.331 297.315 149.517 297.315C146.745 297.315 144.75 296.034 144.351 293.325H147.039C147.228 294.543 148.194 295.236 149.601 295.236C150.924 295.236 151.617 294.669 151.617 293.85C151.617 291.33 144.666 293.493 144.666 288.936C144.666 287.109 146.094 285.429 149.034 285.429C151.617 285.429 153.57 286.647 153.906 289.44H151.218C151.008 288.075 150.21 287.529 148.929 287.529C147.858 287.529 147.228 288.054 147.228 288.768ZM160.366 297V282.72H163.201V297H160.366ZM165.838 297V285.744H168.526V287.256C169.261 286.038 170.437 285.429 171.865 285.429C174.112 285.429 175.645 286.773 175.645 289.503V297H172.957V290.049C172.957 288.516 172.306 287.655 170.941 287.655C169.45 287.655 168.526 288.957 168.526 290.469V297H165.838ZM178.479 293.493V287.823H177.03V285.744H178.479V283.161H181.167V285.744H183.54V287.823H181.167V293.262C181.167 294.438 181.503 295.068 182.994 295.068H183.498V297.042C183.204 297.189 182.595 297.315 181.86 297.315C179.571 297.315 178.479 296.013 178.479 293.493ZM195.384 293.325C194.775 295.929 192.759 297.315 190.071 297.315C186.669 297.315 184.59 295.068 184.59 291.393C184.59 287.571 186.69 285.429 189.966 285.429C193.263 285.429 195.3 287.655 195.3 291.288V291.918H187.362C187.488 293.976 188.433 295.11 190.071 295.11C191.331 295.11 192.192 294.522 192.549 293.325H195.384ZM189.966 287.634C188.538 287.634 187.677 288.537 187.425 290.238H192.486C192.234 288.558 191.373 287.634 189.966 287.634ZM201.412 297.042C198.556 297.042 196.792 294.837 196.792 291.246C196.792 287.508 198.598 285.429 201.412 285.429C202.756 285.429 203.806 285.933 204.499 286.878V285.744H207.187V297.357C207.187 300.402 205.087 301.956 202.294 301.956C199.522 301.956 197.506 300.675 197.107 298.008H199.816C199.984 299.205 200.95 299.835 202.252 299.835C203.596 299.835 204.499 299.184 204.499 297.399V295.509C203.764 296.517 202.714 297.042 201.412 297.042ZM202.021 294.816C203.638 294.816 204.499 293.556 204.499 291.246C204.499 288.957 203.596 287.655 202.021 287.655C200.425 287.655 199.564 288.915 199.564 291.246C199.564 293.535 200.425 294.816 202.021 294.816ZM209.663 297V285.744H212.351V287.382C213.086 286.038 214.22 285.429 215.438 285.429C215.9 285.429 216.32 285.555 216.53 285.744V288.075C216.173 287.97 215.774 287.928 215.291 287.928C213.254 287.928 212.351 289.146 212.351 291.015V297H209.663ZM220.429 289.44H217.72C218.077 286.941 219.904 285.429 222.739 285.429C225.868 285.429 227.464 287.277 227.464 289.881V294.249C227.464 295.635 227.59 296.412 227.8 297H225.007C224.86 296.622 224.797 296.076 224.776 295.467C223.852 296.769 222.466 297.315 221.122 297.315C218.917 297.315 217.342 296.223 217.342 294.06C217.342 292.527 218.203 291.372 219.925 290.805C221.416 290.301 222.865 290.175 224.755 290.154V289.881C224.755 288.432 224.062 287.655 222.571 287.655C221.29 287.655 220.597 288.369 220.429 289.44ZM220.051 293.913C220.051 294.774 220.723 295.32 221.815 295.32C223.474 295.32 224.755 293.976 224.755 292.296V291.813C220.933 291.876 220.051 292.779 220.051 293.913ZM230.384 293.493V287.823H228.935V285.744H230.384V283.161H233.072V285.744H235.445V287.823H233.072V293.262C233.072 294.438 233.408 295.068 234.899 295.068H235.403V297.042C235.109 297.189 234.5 297.315 233.765 297.315C231.476 297.315 230.384 296.013 230.384 293.493ZM237.02 284.484V281.88H239.708V284.484H237.02ZM237.02 297V285.744H239.708V297H237.02ZM247.04 297.315C243.701 297.315 241.643 295.068 241.643 291.393C241.643 287.571 243.764 285.429 247.04 285.429C250.358 285.429 252.416 287.697 252.416 291.393C252.416 295.173 250.295 297.315 247.04 297.315ZM247.04 295.089C248.741 295.089 249.644 293.787 249.644 291.393C249.644 288.999 248.72 287.655 247.04 287.655C245.318 287.655 244.415 288.978 244.415 291.393C244.415 293.766 245.339 295.089 247.04 295.089ZM254.37 297V285.744H257.058V287.256C257.793 286.038 258.969 285.429 260.397 285.429C262.644 285.429 264.177 286.773 264.177 289.503V297H261.489V290.049C261.489 288.516 260.838 287.655 259.473 287.655C257.982 287.655 257.058 288.957 257.058 290.469V297H254.37Z" fill="white"/>
<path d="M25.7766 329L23.4246 320.968L23.1846 320.088L22.9286 320.968L20.5766 329H18.8326L15.3766 318.12H16.9446L19.5206 326.632L19.7446 327.448L19.9526 326.632L22.4326 318.12H24.0166L26.4806 326.632L26.6886 327.448L26.8966 326.632L29.4566 318.12H30.9606L27.5046 329H25.7766ZM39.3107 326.232C38.8467 328.216 37.4227 329.192 35.4867 329.192C33.0227 329.192 31.5347 327.528 31.5347 324.76C31.5347 321.88 33.0227 320.296 35.4067 320.296C37.8067 320.296 39.2467 321.944 39.2467 324.648V325H32.9747C33.0547 326.904 33.9507 327.976 35.4867 327.976C36.6867 327.976 37.5347 327.4 37.8387 326.232H39.3107ZM35.4067 321.512C34.0467 321.512 33.2307 322.36 33.0227 323.944H37.7747C37.5827 322.376 36.7347 321.512 35.4067 321.512ZM44.4541 329V318.12H51.8301V319.32H45.9261V322.76H51.2381V323.96H45.9261V327.8H51.8301V329H44.4541ZM53.6542 329V320.504H55.0622V321.656C55.6382 320.76 56.5662 320.296 57.6862 320.296C59.4942 320.296 60.5662 321.352 60.5662 323.32V329H59.1582V323.608C59.1582 322.328 58.5822 321.496 57.3022 321.496C55.8942 321.496 55.0622 322.76 55.0622 323.976V329H53.6542ZM63.8504 322.68C63.8504 325.048 69.3704 323.096 69.3704 326.6C69.3704 328.184 67.9624 329.192 65.9624 329.192C63.9464 329.192 62.5384 328.232 62.2184 326.232H63.6264C63.8184 327.416 64.6984 328.072 66.0104 328.072C67.2904 328.072 67.9624 327.496 67.9624 326.696C67.9624 324.376 62.5064 326.296 62.5064 322.776C62.5064 321.48 63.5144 320.296 65.5944 320.296C67.4344 320.296 68.7944 321.16 69.0664 323.272H67.6584C67.4504 321.944 66.7144 321.448 65.5144 321.448C64.4584 321.448 63.8504 321.976 63.8504 322.68ZM76.4528 325.528V320.504H77.8608V329H76.4528V327.848C75.8768 328.744 74.9808 329.192 73.8768 329.192C72.1008 329.192 71.0448 328.152 71.0448 326.184V320.504H72.4528V325.896C72.4528 327.176 73.0128 327.992 74.2608 327.992C75.6368 327.992 76.4528 326.744 76.4528 325.528ZM80.1073 329V320.504H81.5153V321.816C82.0913 320.776 83.0033 320.296 84.0273 320.296C84.3633 320.296 84.6673 320.376 84.8273 320.504V321.768C84.5873 321.688 84.2833 321.656 83.9473 321.656C82.2513 321.656 81.5153 322.712 81.5153 324.248V329H80.1073ZM93.2638 326.232C92.7998 328.216 91.3758 329.192 89.4398 329.192C86.9758 329.192 85.4878 327.528 85.4878 324.76C85.4878 321.88 86.9758 320.296 89.3598 320.296C91.7598 320.296 93.1998 321.944 93.1998 324.648V325H86.9278C87.0078 326.904 87.9038 327.976 89.4398 327.976C90.6398 327.976 91.4878 327.4 91.7918 326.232H93.2638ZM89.3598 321.512C87.9998 321.512 87.1838 322.36 86.9758 323.944H91.7278C91.5358 322.376 90.6878 321.512 89.3598 321.512ZM105.715 329L104.691 326.392H99.4748L98.4508 329H96.9948L101.267 318.12H102.963L107.251 329H105.715ZM101.763 320.504L99.9228 325.208H104.243L102.403 320.504L102.083 319.544L101.763 320.504ZM111.532 329V318.12H115.26C117.724 318.12 119.276 319.432 119.276 321.56C119.276 323.752 117.708 325.032 115.276 325.032H113.004V329H111.532ZM115.244 319.32H113.004V323.832H115.196C116.812 323.832 117.756 322.968 117.756 321.576C117.756 320.2 116.796 319.32 115.244 319.32ZM124.485 329.192C122.053 329.192 120.597 327.528 120.597 324.76C120.597 321.88 122.101 320.296 124.485 320.296C126.917 320.296 128.373 321.992 128.373 324.76C128.373 327.624 126.869 329.192 124.485 329.192ZM124.485 327.976C126.069 327.976 126.933 326.84 126.933 324.76C126.933 322.696 126.053 321.512 124.485 321.512C122.901 321.512 122.037 322.664 122.037 324.76C122.037 326.808 122.917 327.976 124.485 327.976ZM130.185 329V320.504H131.593V321.816C132.169 320.776 133.081 320.296 134.105 320.296C134.441 320.296 134.745 320.376 134.905 320.504V321.768C134.665 321.688 134.361 321.656 134.025 321.656C132.329 321.656 131.593 322.712 131.593 324.248V329H130.185ZM136.346 326.552V321.624H135.162V320.504H136.346V318.552H137.754V320.504H139.626V321.624H137.754V326.552C137.754 327.576 138.058 328.056 139.306 328.056H139.594V329.064C139.434 329.144 139.082 329.192 138.682 329.192C137.098 329.192 136.346 328.344 136.346 326.552ZM140.967 319.368V317.48H142.375V319.368H140.967ZM140.967 329V320.504H142.375V329H140.967ZM148.063 329.192C145.631 329.192 144.175 327.528 144.175 324.76C144.175 321.88 145.679 320.296 148.063 320.296C150.495 320.296 151.951 321.992 151.951 324.76C151.951 327.624 150.447 329.192 148.063 329.192ZM148.063 327.976C149.647 327.976 150.511 326.84 150.511 324.76C150.511 322.696 149.631 321.512 148.063 321.512C146.479 321.512 145.615 322.664 145.615 324.76C145.615 326.808 146.495 327.976 148.063 327.976ZM153.764 329V320.504H155.172V321.656C155.748 320.76 156.676 320.296 157.796 320.296C159.604 320.296 160.676 321.352 160.676 323.32V329H159.268V323.608C159.268 322.328 158.692 321.496 157.412 321.496C156.004 321.496 155.172 322.76 155.172 323.976V329H153.764ZM170.987 329.192C167.803 329.192 165.851 327.048 165.851 323.576C165.851 320.104 167.803 317.928 170.987 317.928C174.155 317.928 176.123 320.104 176.123 323.576C176.123 327.048 174.155 329.192 170.987 329.192ZM170.987 327.928C173.259 327.928 174.619 326.28 174.619 323.576C174.619 320.856 173.259 319.192 170.987 319.192C168.715 319.192 167.355 320.856 167.355 323.576C167.355 326.28 168.715 327.928 170.987 327.928ZM177.052 321.624V320.504H178.236V319.928C178.236 318.136 178.972 317.288 180.54 317.288C180.892 317.288 181.18 317.352 181.324 317.416V318.424H181.18C179.948 318.424 179.644 318.904 179.644 319.928V320.504H181.324V321.624H179.644V329H178.236V321.624H177.052ZM188.366 329V324.984L184.462 318.12H186.11L188.654 322.648L189.15 323.688L189.63 322.648L192.174 318.12H193.742L189.838 324.984V329H188.366ZM197.516 329.192C195.084 329.192 193.628 327.528 193.628 324.76C193.628 321.88 195.132 320.296 197.516 320.296C199.948 320.296 201.404 321.992 201.404 324.76C201.404 327.624 199.9 329.192 197.516 329.192ZM197.516 327.976C199.1 327.976 199.964 326.84 199.964 324.76C199.964 322.696 199.084 321.512 197.516 321.512C195.932 321.512 195.068 322.664 195.068 324.76C195.068 326.808 195.948 327.976 197.516 327.976ZM208.625 325.528V320.504H210.033V329H208.625V327.848C208.049 328.744 207.153 329.192 206.049 329.192C204.273 329.192 203.217 328.152 203.217 326.184V320.504H204.625V325.896C204.625 327.176 205.185 327.992 206.433 327.992C207.809 327.992 208.625 326.744 208.625 325.528ZM212.279 329V320.504H213.687V321.816C214.263 320.776 215.175 320.296 216.199 320.296C216.535 320.296 216.839 320.376 216.999 320.504V321.768C216.759 321.688 216.455 321.656 216.119 321.656C214.423 321.656 213.687 322.712 213.687 324.248V329H212.279ZM228.887 329L227.863 326.392H222.647L221.623 329H220.167L224.439 318.12H226.135L230.423 329H228.887ZM224.935 320.504L223.095 325.208H227.415L225.575 320.504L225.255 319.544L224.935 320.504ZM232.663 322.68C232.663 325.048 238.183 323.096 238.183 326.6C238.183 328.184 236.775 329.192 234.775 329.192C232.759 329.192 231.351 328.232 231.031 326.232H232.439C232.631 327.416 233.511 328.072 234.823 328.072C236.103 328.072 236.775 327.496 236.775 326.696C236.775 324.376 231.319 326.296 231.319 322.776C231.319 321.48 232.327 320.296 234.407 320.296C236.247 320.296 237.607 321.16 237.879 323.272H236.471C236.263 321.944 235.527 321.448 234.327 321.448C233.271 321.448 232.663 321.976 232.663 322.68ZM240.897 322.68C240.897 325.048 246.417 323.096 246.417 326.6C246.417 328.184 245.009 329.192 243.009 329.192C240.993 329.192 239.585 328.232 239.265 326.232H240.673C240.865 327.416 241.745 328.072 243.057 328.072C244.337 328.072 245.009 327.496 245.009 326.696C245.009 324.376 239.553 326.296 239.553 322.776C239.553 321.48 240.561 320.296 242.641 320.296C244.481 320.296 245.841 321.16 246.113 323.272H244.705C244.497 321.944 243.761 321.448 242.561 321.448C241.505 321.448 240.897 321.976 240.897 322.68ZM255.436 326.232C254.972 328.216 253.548 329.192 251.612 329.192C249.148 329.192 247.66 327.528 247.66 324.76C247.66 321.88 249.148 320.296 251.532 320.296C253.932 320.296 255.372 321.944 255.372 324.648V325H249.1C249.18 326.904 250.076 327.976 251.612 327.976C252.812 327.976 253.66 327.4 253.964 326.232H255.436ZM251.532 321.512C250.172 321.512 249.356 322.36 249.148 323.944H253.9C253.708 322.376 252.86 321.512 251.532 321.512ZM257.44 326.552V321.624H256.256V320.504H257.44V318.552H258.848V320.504H260.72V321.624H258.848V326.552C258.848 327.576 259.152 328.056 260.4 328.056H260.688V329.064C260.528 329.144 260.176 329.192 259.776 329.192C258.192 329.192 257.44 328.344 257.44 326.552ZM263.1 322.68C263.1 325.048 268.62 323.096 268.62 326.6C268.62 328.184 267.212 329.192 265.212 329.192C263.196 329.192 261.788 328.232 261.468 326.232H262.876C263.068 327.416 263.948 328.072 265.26 328.072C266.54 328.072 267.212 327.496 267.212 326.696C267.212 324.376 261.756 326.296 261.756 322.776C261.756 321.48 262.764 320.296 264.844 320.296C266.684 320.296 268.044 321.16 268.316 323.272H266.908C266.7 321.944 265.964 321.448 264.764 321.448C263.708 321.448 263.1 321.976 263.1 322.68ZM273.626 329V318.12H275.098V329H273.626ZM278.507 322.68C278.507 325.048 284.027 323.096 284.027 326.6C284.027 328.184 282.619 329.192 280.619 329.192C278.603 329.192 277.195 328.232 276.875 326.232H278.283C278.475 327.416 279.355 328.072 280.667 328.072C281.947 328.072 282.619 327.496 282.619 326.696C282.619 324.376 277.163 326.296 277.163 322.776C277.163 321.48 278.171 320.296 280.251 320.296C282.091 320.296 283.451 321.16 283.723 323.272H282.315C282.107 321.944 281.371 321.448 280.171 321.448C279.115 321.448 278.507 321.976 278.507 322.68ZM16.0166 355V344.12H19.5686C22.9446 344.12 25.0566 346.168 25.0566 349.576C25.0566 352.984 22.9446 355 19.5686 355H16.0166ZM19.5686 353.8C22.0646 353.8 23.5526 352.232 23.5526 349.576C23.5526 346.888 22.0646 345.32 19.5686 345.32H17.4886V353.8H19.5686ZM27.0448 345.368V343.48H28.4528V345.368H27.0448ZM27.0448 355V346.504H28.4528V355H27.0448ZM30.6854 355V346.504H32.0934V347.816C32.6694 346.776 33.5814 346.296 34.6054 346.296C34.9414 346.296 35.2454 346.376 35.4054 346.504V347.768C35.1654 347.688 34.8614 347.656 34.5254 347.656C32.8294 347.656 32.0934 348.712 32.0934 350.248V355H30.6854ZM43.8419 352.232C43.3779 354.216 41.9539 355.192 40.0179 355.192C37.5539 355.192 36.0659 353.528 36.0659 350.76C36.0659 347.88 37.5539 346.296 39.9379 346.296C42.3379 346.296 43.7779 347.944 43.7779 350.648V351H37.5059C37.5859 352.904 38.4819 353.976 40.0179 353.976C41.2179 353.976 42.0659 353.4 42.3699 352.232H43.8419ZM39.9379 347.512C38.5779 347.512 37.7619 348.36 37.5539 349.944H42.3059C42.1139 348.376 41.2659 347.512 39.9379 347.512ZM52.6782 349.432H51.2702C51.0462 348.136 50.1822 347.512 49.0622 347.512C47.4942 347.512 46.6622 348.664 46.6622 350.76C46.6622 352.824 47.5422 353.992 49.1102 353.992C50.2462 353.992 51.0622 353.384 51.3342 352.168H52.7422C52.3582 354.28 50.9342 355.192 49.0782 355.192C46.6622 355.192 45.2222 353.512 45.2222 350.76C45.2222 347.88 46.6942 346.296 49.0622 346.296C50.9342 346.296 52.4062 347.352 52.6782 349.432ZM54.6743 352.552V347.624H53.4903V346.504H54.6743V344.552H56.0823V346.504H57.9543V347.624H56.0823V352.552C56.0823 353.576 56.3863 354.056 57.6343 354.056H57.9223V355.064C57.7623 355.144 57.4103 355.192 57.0103 355.192C55.4263 355.192 54.6743 354.344 54.6743 352.552ZM66.6388 352.232C66.1748 354.216 64.7508 355.192 62.8148 355.192C60.3508 355.192 58.8628 353.528 58.8628 350.76C58.8628 347.88 60.3508 346.296 62.7348 346.296C65.1348 346.296 66.5748 347.944 66.5748 350.648V351H60.3028C60.3828 352.904 61.2788 353.976 62.8148 353.976C64.0148 353.976 64.8628 353.4 65.1668 352.232H66.6388ZM62.7348 347.512C61.3748 347.512 60.5588 348.36 60.3508 349.944H65.1028C64.9108 348.376 64.0628 347.512 62.7348 347.512ZM71.6351 355.192C69.3791 355.192 68.0191 353.528 68.0191 350.76C68.0191 347.88 69.4111 346.296 71.6351 346.296C72.6431 346.296 73.4591 346.712 74.0191 347.496V343.48H75.4271V355H74.0191V353.928C73.4591 354.728 72.6431 355.192 71.6351 355.192ZM71.7311 353.976C73.2191 353.976 74.0191 352.84 74.0191 350.76C74.0191 348.696 73.1871 347.512 71.7311 347.512C70.2591 347.512 69.4591 348.664 69.4591 350.76C69.4591 352.808 70.2911 353.976 71.7311 353.976ZM83.6644 355V345.368H79.9364V344.12H88.8644V345.368H85.1364V355H83.6644ZM92.5008 355.192C90.0688 355.192 88.6128 353.528 88.6128 350.76C88.6128 347.88 90.1168 346.296 92.5008 346.296C94.9328 346.296 96.3888 347.992 96.3888 350.76C96.3888 353.624 94.8848 355.192 92.5008 355.192ZM92.5008 353.976C94.0848 353.976 94.9488 352.84 94.9488 350.76C94.9488 348.696 94.0688 347.512 92.5008 347.512C90.9168 347.512 90.0528 348.664 90.0528 350.76C90.0528 352.808 90.9328 353.976 92.5008 353.976ZM105.405 355L103.565 348.648L103.373 347.688L103.181 348.648L101.357 355H99.6128L97.0848 346.504H98.6048L100.349 353.096L100.557 353.96L100.765 353.096L102.701 346.504H104.221L106.157 353.096L106.349 353.928L106.525 353.096L108.269 346.504H109.725L107.181 355H105.405ZM112.294 349.272H110.886C111.158 347.4 112.39 346.296 114.47 346.296C116.742 346.296 117.846 347.624 117.846 349.608V352.952C117.846 353.928 117.926 354.536 118.15 355H116.662C116.502 354.664 116.454 354.168 116.438 353.656C115.718 354.728 114.566 355.192 113.542 355.192C111.782 355.192 110.598 354.376 110.598 352.76C110.598 351.592 111.238 350.744 112.486 350.328C113.638 349.944 114.806 349.848 116.438 349.832V349.64C116.438 348.264 115.798 347.512 114.342 347.512C113.126 347.512 112.47 348.184 112.294 349.272ZM112.038 352.728C112.038 353.512 112.694 353.976 113.686 353.976C115.254 353.976 116.438 352.744 116.438 351.288V350.888C112.822 350.92 112.038 351.688 112.038 352.728ZM120.154 355V346.504H121.562V347.816C122.138 346.776 123.05 346.296 124.074 346.296C124.41 346.296 124.714 346.376 124.874 346.504V347.768C124.634 347.688 124.33 347.656 123.994 347.656C122.298 347.656 121.562 348.712 121.562 350.248V355H120.154ZM129.151 355.192C126.895 355.192 125.535 353.528 125.535 350.76C125.535 347.88 126.927 346.296 129.151 346.296C130.159 346.296 130.975 346.712 131.535 347.496V343.48H132.943V355H131.535V353.928C130.975 354.728 130.159 355.192 129.151 355.192ZM129.247 353.976C130.735 353.976 131.535 352.84 131.535 350.76C131.535 348.696 130.703 347.512 129.247 347.512C127.775 347.512 126.975 348.664 126.975 350.76C126.975 352.808 127.807 353.976 129.247 353.976ZM136.225 348.68C136.225 351.048 141.745 349.096 141.745 352.6C141.745 354.184 140.337 355.192 138.337 355.192C136.321 355.192 134.913 354.232 134.593 352.232H136.001C136.193 353.416 137.073 354.072 138.385 354.072C139.665 354.072 140.337 353.496 140.337 352.696C140.337 350.376 134.881 352.296 134.881 348.776C134.881 347.48 135.889 346.296 137.969 346.296C139.809 346.296 141.169 347.16 141.441 349.272H140.033C139.825 347.944 139.089 347.448 137.889 347.448C136.833 347.448 136.225 347.976 136.225 348.68ZM147.871 346.776C147.871 349.848 154.543 347.464 154.543 351.928C154.543 354.024 152.847 355.192 150.527 355.192C148.191 355.192 146.591 354.12 146.111 351.928H147.647C147.999 353.224 148.975 353.928 150.543 353.928C152.175 353.928 153.039 353.208 153.039 352.12C153.039 348.792 146.367 351.272 146.367 346.872C146.367 345.304 147.679 343.928 150.079 343.928C152.175 343.928 153.855 344.936 154.255 347.256H152.703C152.367 345.816 151.439 345.192 150.047 345.192C148.671 345.192 147.871 345.816 147.871 346.776ZM157.56 349.272H156.152C156.424 347.4 157.656 346.296 159.736 346.296C162.008 346.296 163.112 347.624 163.112 349.608V352.952C163.112 353.928 163.192 354.536 163.416 355H161.928C161.768 354.664 161.72 354.168 161.704 353.656C160.984 354.728 159.832 355.192 158.808 355.192C157.048 355.192 155.864 354.376 155.864 352.76C155.864 351.592 156.504 350.744 157.752 350.328C158.904 349.944 160.072 349.848 161.704 349.832V349.64C161.704 348.264 161.064 347.512 159.608 347.512C158.392 347.512 157.736 348.184 157.56 349.272ZM157.304 352.728C157.304 353.512 157.96 353.976 158.952 353.976C160.52 353.976 161.704 352.744 161.704 351.288V350.888C158.088 350.92 157.304 351.688 157.304 352.728ZM167.235 355L164.067 346.504H165.587L167.939 353.096L168.147 353.832L168.355 353.096L170.707 346.504H172.131L168.963 355H167.235ZM173.326 345.368V343.48H174.734V345.368H173.326ZM173.326 355V346.504H174.734V355H173.326ZM176.967 355V346.504H178.375V347.656C178.951 346.76 179.879 346.296 180.999 346.296C182.807 346.296 183.879 347.352 183.879 349.32V355H182.471V349.608C182.471 348.328 181.895 347.496 180.615 347.496C179.207 347.496 178.375 348.76 178.375 349.976V355H176.967ZM189.147 355.064C186.987 355.064 185.691 353.416 185.691 350.696C185.691 347.848 187.019 346.296 189.147 346.296C190.283 346.296 191.131 346.696 191.691 347.432V346.504H193.099V355.256C193.099 357.624 191.579 358.728 189.627 358.728C187.627 358.728 186.219 357.768 185.915 355.832H187.323C187.499 356.952 188.379 357.56 189.611 357.56C190.859 357.56 191.691 356.888 191.691 355.304V353.848C191.099 354.648 190.235 355.064 189.147 355.064ZM189.403 353.848C190.891 353.848 191.691 352.728 191.691 350.68C191.691 348.68 190.859 347.512 189.403 347.512C187.931 347.512 187.131 348.632 187.131 350.696C187.131 352.696 187.947 353.848 189.403 353.848ZM196.397 348.68C196.397 351.048 201.917 349.096 201.917 352.6C201.917 354.184 200.509 355.192 198.509 355.192C196.493 355.192 195.085 354.232 194.765 352.232H196.173C196.365 353.416 197.245 354.072 198.557 354.072C199.837 354.072 200.509 353.496 200.509 352.696C200.509 350.376 195.053 352.296 195.053 348.776C195.053 347.48 196.061 346.296 198.141 346.296C199.981 346.296 201.341 347.16 201.613 349.272H200.205C199.997 347.944 199.261 347.448 198.061 347.448C197.005 347.448 196.397 347.976 196.397 348.68ZM203.432 355V353.272H205.16V354.2C205.16 355.688 204.92 356.6 204.36 357.64H203.56C203.928 356.68 204.136 355.992 204.136 355H203.432ZM210.563 355V344.12H214.387C216.627 344.12 218.067 345.24 218.067 347.016C218.067 348.056 217.507 348.888 216.467 349.288C217.891 349.656 218.659 350.648 218.659 351.944C218.659 353.88 217.251 355 214.931 355H210.563ZM214.355 345.304H212.035V348.84H214.323C215.731 348.84 216.547 348.136 216.547 347.096C216.547 345.992 215.715 345.304 214.355 345.304ZM214.675 350.024H212.035V353.816H214.899C216.291 353.816 217.155 353.064 217.155 351.912C217.155 350.76 216.211 350.024 214.675 350.024ZM225.875 351.528V346.504H227.283V355H225.875V353.848C225.299 354.744 224.403 355.192 223.299 355.192C221.523 355.192 220.467 354.152 220.467 352.184V346.504H221.875V351.896C221.875 353.176 222.435 353.992 223.683 353.992C225.059 353.992 225.875 352.744 225.875 351.528ZM229.529 345.368V343.48H230.937V345.368H229.529ZM229.529 355V346.504H230.937V355H229.529ZM233.17 355V343.48H234.578V355H233.17ZM239.994 355.192C237.738 355.192 236.378 353.528 236.378 350.76C236.378 347.88 237.77 346.296 239.994 346.296C241.002 346.296 241.818 346.712 242.378 347.496V343.48H243.786V355H242.378V353.928C241.818 354.728 241.002 355.192 239.994 355.192ZM240.09 353.976C241.578 353.976 242.378 352.84 242.378 350.76C242.378 348.696 241.546 347.512 240.09 347.512C238.618 347.512 237.818 348.664 237.818 350.76C237.818 352.808 238.65 353.976 240.09 353.976ZM246.029 345.368V343.48H247.437V345.368H246.029ZM246.029 355V346.504H247.437V355H246.029ZM249.67 355V346.504H251.078V347.656C251.654 346.76 252.582 346.296 253.702 346.296C255.51 346.296 256.582 347.352 256.582 349.32V355H255.174V349.608C255.174 348.328 254.598 347.496 253.318 347.496C251.91 347.496 251.078 348.76 251.078 349.976V355H249.67ZM261.85 355.064C259.69 355.064 258.394 353.416 258.394 350.696C258.394 347.848 259.722 346.296 261.85 346.296C262.986 346.296 263.834 346.696 264.394 347.432V346.504H265.802V355.256C265.802 357.624 264.282 358.728 262.33 358.728C260.33 358.728 258.922 357.768 258.618 355.832H260.026C260.202 356.952 261.082 357.56 262.314 357.56C263.562 357.56 264.394 356.888 264.394 355.304V353.848C263.802 354.648 262.938 355.064 261.85 355.064ZM262.106 353.848C263.594 353.848 264.394 352.728 264.394 350.68C264.394 348.68 263.562 347.512 262.106 347.512C260.634 347.512 259.834 348.632 259.834 350.696C259.834 352.696 260.65 353.848 262.106 353.848ZM273.975 355V350.984L270.071 344.12H271.719L274.263 348.648L274.759 349.688L275.239 348.648L277.783 344.12H279.351L275.447 350.984V355H273.975ZM283.126 355.192C280.694 355.192 279.238 353.528 279.238 350.76C279.238 347.88 280.742 346.296 283.126 346.296C285.558 346.296 287.014 347.992 287.014 350.76C287.014 353.624 285.51 355.192 283.126 355.192ZM283.126 353.976C284.71 353.976 285.574 352.84 285.574 350.76C285.574 348.696 284.694 347.512 283.126 347.512C281.542 347.512 280.678 348.664 280.678 350.76C280.678 352.808 281.558 353.976 283.126 353.976ZM294.234 351.528V346.504H295.642V355H294.234V353.848C293.658 354.744 292.762 355.192 291.658 355.192C289.882 355.192 288.826 354.152 288.826 352.184V346.504H290.234V351.896C290.234 353.176 290.794 353.992 292.042 353.992C293.418 353.992 294.234 352.744 294.234 351.528ZM297.889 355V346.504H299.297V347.816C299.873 346.776 300.785 346.296 301.809 346.296C302.145 346.296 302.449 346.376 302.609 346.504V347.768C302.369 347.688 302.065 347.656 301.729 347.656C300.033 347.656 299.297 348.712 299.297 350.248V355H297.889ZM16.0166 381V370.12H23.3926V371.32H17.4886V375.048H22.8006V376.248H17.4886V381H16.0166ZM25.0761 371.368V369.48H26.4841V371.368H25.0761ZM25.0761 381V372.504H26.4841V381H25.0761ZM28.7167 381V372.504H30.1247V373.656C30.7007 372.76 31.6287 372.296 32.7487 372.296C34.5567 372.296 35.6287 373.352 35.6287 375.32V381H34.2207V375.608C34.2207 374.328 33.6447 373.496 32.3647 373.496C30.9567 373.496 30.1247 374.76 30.1247 375.976V381H28.7167ZM39.1689 375.272H37.7609C38.0329 373.4 39.2649 372.296 41.3449 372.296C43.6169 372.296 44.7209 373.624 44.7209 375.608V378.952C44.7209 379.928 44.8009 380.536 45.0249 381H43.5369C43.3769 380.664 43.3289 380.168 43.3129 379.656C42.5929 380.728 41.4409 381.192 40.4169 381.192C38.6569 381.192 37.4729 380.376 37.4729 378.76C37.4729 377.592 38.1129 376.744 39.3609 376.328C40.5129 375.944 41.6809 375.848 43.3129 375.832V375.64C43.3129 374.264 42.6729 373.512 41.2169 373.512C40.0009 373.512 39.3449 374.184 39.1689 375.272ZM38.9129 378.728C38.9129 379.512 39.5689 379.976 40.5609 379.976C42.1289 379.976 43.3129 378.744 43.3129 377.288V376.888C39.6969 376.92 38.9129 377.688 38.9129 378.728ZM47.0292 381V372.504H48.4372V373.656C49.0132 372.76 49.9412 372.296 51.0612 372.296C52.8692 372.296 53.9412 373.352 53.9412 375.32V381H52.5332V375.608C52.5332 374.328 51.9572 373.496 50.6772 373.496C49.2692 373.496 48.4372 374.76 48.4372 375.976V381H47.0292ZM63.2094 375.432H61.8014C61.5774 374.136 60.7134 373.512 59.5934 373.512C58.0254 373.512 57.1934 374.664 57.1934 376.76C57.1934 378.824 58.0734 379.992 59.6414 379.992C60.7774 379.992 61.5934 379.384 61.8654 378.168H63.2734C62.8894 380.28 61.4654 381.192 59.6094 381.192C57.1934 381.192 55.7534 379.512 55.7534 376.76C55.7534 373.88 57.2254 372.296 59.5934 372.296C61.4654 372.296 62.9374 373.352 63.2094 375.432ZM65.0136 371.368V369.48H66.4216V371.368H65.0136ZM65.0136 381V372.504H66.4216V381H65.0136ZM69.9502 375.272H68.5422C68.8142 373.4 70.0462 372.296 72.1262 372.296C74.3982 372.296 75.5022 373.624 75.5022 375.608V378.952C75.5022 379.928 75.5822 380.536 75.8062 381H74.3182C74.1582 380.664 74.1102 380.168 74.0942 379.656C73.3742 380.728 72.2222 381.192 71.1982 381.192C69.4382 381.192 68.2542 380.376 68.2542 378.76C68.2542 377.592 68.8942 376.744 70.1422 376.328C71.2942 375.944 72.4622 375.848 74.0942 375.832V375.64C74.0942 374.264 73.4542 373.512 71.9982 373.512C70.7822 373.512 70.1262 374.184 69.9502 375.272ZM69.6942 378.728C69.6942 379.512 70.3502 379.976 71.3422 379.976C72.9102 379.976 74.0942 378.744 74.0942 377.288V376.888C70.4782 376.92 69.6942 377.688 69.6942 378.728ZM77.8104 381V369.48H79.2184V381H77.8104ZM85.9022 372.776C85.9022 375.848 92.5742 373.464 92.5742 377.928C92.5742 380.024 90.8782 381.192 88.5582 381.192C86.2222 381.192 84.6222 380.12 84.1422 377.928H85.6782C86.0302 379.224 87.0062 379.928 88.5742 379.928C90.2062 379.928 91.0702 379.208 91.0702 378.12C91.0702 374.792 84.3982 377.272 84.3982 372.872C84.3982 371.304 85.7102 369.928 88.1102 369.928C90.2062 369.928 91.8862 370.936 92.2862 373.256H90.7342C90.3982 371.816 89.4702 371.192 88.0782 371.192C86.7022 371.192 85.9022 371.816 85.9022 372.776ZM95.5908 375.272H94.1828C94.4548 373.4 95.6868 372.296 97.7668 372.296C100.039 372.296 101.143 373.624 101.143 375.608V378.952C101.143 379.928 101.223 380.536 101.447 381H99.9588C99.7988 380.664 99.7508 380.168 99.7348 379.656C99.0148 380.728 97.8628 381.192 96.8388 381.192C95.0788 381.192 93.8948 380.376 93.8948 378.76C93.8948 377.592 94.5348 376.744 95.7828 376.328C96.9348 375.944 98.1028 375.848 99.7348 375.832V375.64C99.7348 374.264 99.0948 373.512 97.6388 373.512C96.4228 373.512 95.7668 374.184 95.5908 375.272ZM95.3348 378.728C95.3348 379.512 95.9908 379.976 96.9828 379.976C98.5508 379.976 99.7348 378.744 99.7348 377.288V376.888C96.1188 376.92 95.3348 377.688 95.3348 378.728ZM102.411 373.624V372.504H103.595V371.928C103.595 370.136 104.331 369.288 105.899 369.288C106.251 369.288 106.539 369.352 106.683 369.416V370.424H106.539C105.307 370.424 105.003 370.904 105.003 371.928V372.504H106.683V373.624H105.003V381H103.595V373.624H102.411ZM115.154 378.232C114.69 380.216 113.266 381.192 111.33 381.192C108.866 381.192 107.378 379.528 107.378 376.76C107.378 373.88 108.866 372.296 111.25 372.296C113.65 372.296 115.09 373.944 115.09 376.648V377H108.818C108.898 378.904 109.794 379.976 111.33 379.976C112.53 379.976 113.378 379.4 113.682 378.232H115.154ZM111.25 373.512C109.89 373.512 109.074 374.36 108.866 375.944H113.618C113.426 374.376 112.578 373.512 111.25 373.512ZM117.159 378.552V373.624H115.975V372.504H117.159V370.552H118.567V372.504H120.439V373.624H118.567V378.552C118.567 379.576 118.871 380.056 120.119 380.056H120.407V381.064C120.247 381.144 119.895 381.192 119.495 381.192C117.911 381.192 117.159 380.344 117.159 378.552ZM122.163 384.712C121.843 384.712 121.507 384.632 121.331 384.584V383.496H121.763C122.803 383.496 123.091 383.288 123.923 381.384L124.211 380.728L120.739 372.504H122.259L124.563 378.12L124.947 379.256L125.331 378.12L127.571 372.504H129.011L125.043 382.12C124.195 384.168 123.635 384.712 122.163 384.712ZM133.548 381V370.12H135.084L140.092 377.8L140.716 378.872V370.12H142.188V381H140.652L135.66 373.368L135.02 372.248V381H133.548ZM151.904 378.232C151.44 380.216 150.016 381.192 148.08 381.192C145.616 381.192 144.128 379.528 144.128 376.76C144.128 373.88 145.616 372.296 148 372.296C150.4 372.296 151.84 373.944 151.84 376.648V377H145.568C145.648 378.904 146.544 379.976 148.08 379.976C149.28 379.976 150.128 379.4 150.432 378.232H151.904ZM148 373.512C146.64 373.512 145.824 374.36 145.616 375.944H150.368C150.176 374.376 149.328 373.512 148 373.512ZM153.909 378.552V373.624H152.725V372.504H153.909V370.552H155.317V372.504H157.189V373.624H155.317V378.552C155.317 379.576 155.621 380.056 156.869 380.056H157.157V381.064C156.997 381.144 156.645 381.192 156.245 381.192C154.661 381.192 153.909 380.344 153.909 378.552Z" fill="#CECECE"/>
<g filter="url(#filter0_d_887_1149)">
<g clip-path="url(#clip0_887_1149)">
<rect x="55" y="43.3047" width="245" height="197.695" rx="15.5461" fill="#4474CF" fill-opacity="0.2"/>
<path d="M72.6676 73.3214V71.7374C70.9876 71.4494 69.8356 70.4094 69.5636 68.6014H71.2916C71.4516 69.7534 72.3956 70.3774 73.7076 70.3774C74.9876 70.3774 75.6596 69.7374 75.6596 68.8414C75.6596 66.2014 69.8036 67.9934 69.8036 64.0254C69.8036 62.6654 70.7956 61.4014 72.6676 61.1614V59.6094H74.2836V61.1934C75.7716 61.4814 76.9236 62.4414 77.1156 64.2494H75.3716C75.1956 63.0654 74.4276 62.5534 73.2756 62.5534C72.1556 62.5534 71.5636 63.1454 71.5636 64.0254C71.5636 66.4414 77.4196 64.7934 77.4196 68.6814C77.4196 70.4894 76.1236 71.5934 74.2836 71.7854V73.3214H72.6676ZM81.8864 73.3214V71.7374C80.2064 71.4494 79.0544 70.4094 78.7824 68.6014H80.5104C80.6704 69.7534 81.6144 70.3774 82.9264 70.3774C84.2064 70.3774 84.8784 69.7374 84.8784 68.8414C84.8784 66.2014 79.0224 67.9934 79.0224 64.0254C79.0224 62.6654 80.0144 61.4014 81.8864 61.1614V59.6094H83.5024V61.1934C84.9904 61.4814 86.1424 62.4414 86.3344 64.2494H84.5904C84.4144 63.0654 83.6464 62.5534 82.4944 62.5534C81.3744 62.5534 80.7824 63.1454 80.7824 64.0254C80.7824 66.4414 86.6384 64.7934 86.6384 68.6814C86.6384 70.4894 85.3424 71.5934 83.5024 71.7854V73.3214H81.8864ZM98.8494 71.6094L97.9214 69.1614H92.9614L92.0334 71.6094H90.2414L94.4334 60.7294H96.5294L100.721 71.6094H98.8494ZM95.1214 63.5134L93.5054 67.7534H97.3774L95.7614 63.5134L95.4414 62.4574L95.1214 63.5134ZM102.041 71.6094V60.0894H103.753V71.6094H102.041ZM105.822 71.6094V60.0894H107.534V71.6094H105.822ZM113.171 71.8174C110.691 71.8174 109.187 70.1374 109.187 67.3534C109.187 64.4574 110.739 62.8574 113.171 62.8574C115.651 62.8574 117.155 64.5694 117.155 67.3534C117.155 70.2334 115.603 71.8174 113.171 71.8174ZM113.171 70.3774C114.627 70.3774 115.411 69.3214 115.411 67.3534C115.411 65.4014 114.611 64.2974 113.171 64.2974C111.731 64.2974 110.931 65.3694 110.931 67.3534C110.931 69.2894 111.731 70.3774 113.171 70.3774ZM126.038 66.0574H124.326C124.118 64.8414 123.334 64.2974 122.342 64.2974C120.918 64.2974 120.15 65.3854 120.15 67.3534C120.15 69.2894 120.95 70.3934 122.39 70.3934C123.414 70.3934 124.134 69.8334 124.39 68.7454H126.086C125.718 70.8734 124.246 71.8174 122.358 71.8174C119.894 71.8174 118.406 70.1214 118.406 67.3534C118.406 64.4574 119.926 62.8574 122.342 62.8574C124.246 62.8574 125.75 63.9294 126.038 66.0574ZM129.298 65.8654H127.586C127.858 63.9774 129.154 62.8574 131.282 62.8574C133.602 62.8574 134.754 64.2174 134.754 66.2014V69.5294C134.754 70.5534 134.85 71.1454 135.042 71.6094H133.25C133.122 71.2894 133.074 70.8414 133.058 70.3614C132.338 71.3694 131.234 71.8174 130.21 71.8174C128.482 71.8174 127.298 71.0014 127.298 69.3694C127.298 68.2014 127.938 67.3374 129.218 66.9054C130.354 66.5214 131.506 66.4254 133.042 66.4094V66.2174C133.042 64.9694 132.466 64.2974 131.154 64.2974C130.05 64.2974 129.458 64.9054 129.298 65.8654ZM129.026 69.3054C129.026 70.0254 129.618 70.4734 130.53 70.4734C131.954 70.4734 133.042 69.3374 133.042 67.9614V67.5774C129.762 67.6094 129.026 68.3294 129.026 69.3054ZM137.124 69.0654V64.4094H135.972V63.0814H137.124V61.1134H138.836V63.0814H140.676V64.4094H138.836V68.9694C138.836 69.9454 139.108 70.4094 140.308 70.4094H140.644V71.6574C140.452 71.7534 140.052 71.8174 139.572 71.8174C137.908 71.8174 137.124 70.9054 137.124 69.0654ZM141.963 62.0254V60.0894H143.675V62.0254H141.963ZM141.963 71.6094V63.0814H143.675V71.6094H141.963ZM149.312 71.8174C146.832 71.8174 145.328 70.1374 145.328 67.3534C145.328 64.4574 146.88 62.8574 149.312 62.8574C151.792 62.8574 153.296 64.5694 153.296 67.3534C153.296 70.2334 151.744 71.8174 149.312 71.8174ZM149.312 70.3774C150.768 70.3774 151.552 69.3214 151.552 67.3534C151.552 65.4014 150.752 64.2974 149.312 64.2974C147.872 64.2974 147.072 65.3694 147.072 67.3534C147.072 69.2894 147.872 70.3774 149.312 70.3774ZM154.963 71.6094V63.0814H156.675V64.2174C157.251 63.3054 158.147 62.8574 159.251 62.8574C161.027 62.8574 162.131 63.8974 162.131 65.9134V71.6094H160.435V66.2654C160.435 65.0334 159.891 64.2814 158.723 64.2814C157.443 64.2814 156.675 65.4174 156.675 66.6014V71.6094H154.963Z" fill="#D5E3A1"/>
<path d="M61.4116 83.8379H293.589" stroke="white" stroke-opacity="0.11" stroke-width="0.407619" stroke-linecap="round"/>
<circle cx="79.5916" cy="106.766" r="10.7" fill="#7291CF" fill-opacity="0.5"/>
<path d="M74.0776 106.909C74.0776 104.231 74.0776 102.892 74.9096 102.06C75.7417 101.228 77.0808 101.228 79.7589 101.228C82.4371 101.228 83.7762 101.228 84.6083 102.06C85.4402 102.892 85.4402 104.231 85.4402 106.909C85.4402 109.588 85.4402 110.927 84.6083 111.759C83.7762 112.591 82.4371 112.591 79.7589 112.591C77.0808 112.591 75.7417 112.591 74.9096 111.759C74.0776 110.927 74.0776 109.588 74.0776 106.909Z" stroke="#D5E3A1" stroke-width="0.897048" stroke-linejoin="round"/>
<path d="M74.0776 108.403H74.3998C74.6823 108.403 74.8235 108.403 74.9463 108.344C75.0691 108.285 75.1573 108.175 75.3338 107.955L76.1707 106.908L77.0678 108.403L77.9648 106.31L79.4599 109.3L81.553 105.114L82.7491 107.207L83.6462 106.31L84.5105 107.607C84.6612 107.833 84.7365 107.946 84.8466 108.014C84.8685 108.028 84.8913 108.04 84.9147 108.051C85.0327 108.104 85.1686 108.104 85.4402 108.104" stroke="#D5E3A1" stroke-width="0.897048" stroke-linejoin="round"/>
<path d="M81.5527 101.228V103.022M81.5527 112.591V108.404" stroke="#D5E3A1" stroke-width="0.897048" stroke-linecap="round" stroke-linejoin="round"/>
<path d="M81.5526 105.712C81.8829 105.712 82.1507 105.444 82.1507 105.114C82.1507 104.784 81.8829 104.516 81.5526 104.516C81.2223 104.516 80.9546 104.784 80.9546 105.114C80.9546 105.444 81.2223 105.712 81.5526 105.712Z" stroke="#D5E3A1" stroke-width="0.897048" stroke-linejoin="round"/>
<path d="M95.4419 111.267V103.107H96.7859V111.267H95.4419ZM98.4397 111.267V104.871H99.7237V105.723C100.156 105.039 100.828 104.703 101.656 104.703C102.988 104.703 103.816 105.483 103.816 106.995V111.267H102.544V107.259C102.544 106.335 102.136 105.771 101.26 105.771C100.3 105.771 99.7237 106.623 99.7237 107.511V111.267H98.4397ZM106.775 111.267L104.423 104.871H105.803L107.447 109.623L107.603 110.235L107.759 109.623L109.391 104.871H110.699L108.347 111.267H106.775ZM117.17 109.179C116.822 110.667 115.718 111.423 114.218 111.423C112.334 111.423 111.182 110.163 111.182 108.075C111.182 105.903 112.334 104.703 114.158 104.703C116.006 104.703 117.122 105.951 117.122 108.003V108.315H112.49C112.562 109.623 113.174 110.355 114.218 110.355C115.034 110.355 115.61 109.971 115.826 109.179H117.17ZM114.158 105.771C113.234 105.771 112.682 106.359 112.526 107.439H115.79C115.634 106.359 115.07 105.771 114.158 105.771ZM119.428 106.551C119.428 108.183 123.52 106.815 123.52 109.419C123.52 110.631 122.428 111.423 120.88 111.423C119.332 111.423 118.24 110.703 118 109.179H119.284C119.416 109.983 120.016 110.427 120.916 110.427C121.78 110.427 122.236 110.043 122.236 109.503C122.236 107.907 118.204 109.251 118.204 106.623C118.204 105.627 118.984 104.703 120.604 104.703C122.032 104.703 123.088 105.363 123.292 106.959H122.008C121.864 106.059 121.36 105.723 120.544 105.723C119.836 105.723 119.428 106.071 119.428 106.551ZM124.858 109.359V105.867H123.994V104.871H124.858V103.395H126.142V104.871H127.522V105.867H126.142V109.287C126.142 110.019 126.346 110.367 127.246 110.367H127.498V111.303C127.354 111.375 127.054 111.423 126.694 111.423C125.446 111.423 124.858 110.739 124.858 109.359ZM128.487 111.267V104.871H129.771V105.687C130.179 105.027 130.815 104.703 131.571 104.703C132.423 104.703 133.059 105.075 133.371 105.807C133.791 105.075 134.487 104.703 135.327 104.703C136.587 104.703 137.403 105.483 137.403 106.995V111.267H136.119V107.259C136.119 106.335 135.771 105.771 134.979 105.771C134.115 105.771 133.587 106.623 133.587 107.511V111.267H132.303V107.259C132.303 106.335 131.943 105.771 131.163 105.771C130.299 105.771 129.771 106.623 129.771 107.511V111.267H128.487ZM144.639 109.179C144.291 110.667 143.187 111.423 141.687 111.423C139.803 111.423 138.651 110.163 138.651 108.075C138.651 105.903 139.803 104.703 141.627 104.703C143.475 104.703 144.591 105.951 144.591 108.003V108.315H139.959C140.031 109.623 140.643 110.355 141.687 110.355C142.503 110.355 143.079 109.971 143.295 109.179H144.639ZM141.627 105.771C140.703 105.771 140.151 106.359 139.995 107.439H143.259C143.103 106.359 142.539 105.771 141.627 105.771ZM145.877 111.267V104.871H147.161V105.723C147.593 105.039 148.265 104.703 149.093 104.703C150.425 104.703 151.253 105.483 151.253 106.995V111.267H149.981V107.259C149.981 106.335 149.573 105.771 148.697 105.771C147.737 105.771 147.161 106.623 147.161 107.511V111.267H145.877ZM152.983 109.359V105.867H152.119V104.871H152.983V103.395H154.267V104.871H155.647V105.867H154.267V109.287C154.267 110.019 154.471 110.367 155.371 110.367H155.623V111.303C155.479 111.375 155.179 111.423 154.819 111.423C153.571 111.423 152.983 110.739 152.983 109.359ZM157.632 106.551C157.632 108.183 161.724 106.815 161.724 109.419C161.724 110.631 160.632 111.423 159.084 111.423C157.536 111.423 156.444 110.703 156.204 109.179H157.488C157.62 109.983 158.22 110.427 159.12 110.427C159.984 110.427 160.44 110.043 160.44 109.503C160.44 107.907 156.408 109.251 156.408 106.623C156.408 105.627 157.188 104.703 158.808 104.703C160.236 104.703 161.292 105.363 161.496 106.959H160.212C160.068 106.059 159.564 105.723 158.748 105.723C158.04 105.723 157.632 106.071 157.632 106.551Z" fill="white" fill-opacity="0.7"/>
<path d="M228.289 111.267H227.164C227.58 108.662 228.595 106.326 230.099 104.26H225.709V103.404H231.261V104.088C229.61 106.351 228.619 108.76 228.289 111.267ZM235.579 111.413C233.635 111.413 232.51 109.897 232.51 107.341C232.51 104.712 233.659 103.257 235.579 103.257C237.511 103.257 238.636 104.773 238.636 107.341C238.636 109.97 237.487 111.413 235.579 111.413ZM235.579 110.484C236.839 110.484 237.536 109.359 237.536 107.341C237.536 105.336 236.827 104.186 235.579 104.186C234.308 104.186 233.611 105.299 233.611 107.341C233.611 109.322 234.32 110.484 235.579 110.484ZM241.207 107.684C240.02 107.684 239.323 106.877 239.323 105.482C239.323 104.064 240.033 103.257 241.207 103.257C242.393 103.257 243.09 104.088 243.09 105.482C243.09 106.889 242.393 107.684 241.207 107.684ZM240.51 111.267L246.184 103.404H247.26L241.586 111.267H240.51ZM241.207 106.901C241.806 106.901 242.136 106.4 242.136 105.482C242.136 104.565 241.806 104.052 241.207 104.052C240.607 104.052 240.289 104.553 240.289 105.482C240.289 106.387 240.62 106.901 241.207 106.901ZM246.55 111.364C245.364 111.364 244.667 110.545 244.667 109.163C244.667 107.745 245.376 106.938 246.55 106.938C247.737 106.938 248.434 107.757 248.434 109.163C248.434 110.57 247.737 111.364 246.55 111.364ZM246.55 110.582C247.15 110.582 247.48 110.08 247.48 109.163C247.48 108.246 247.15 107.733 246.55 107.733C245.951 107.733 245.633 108.234 245.633 109.163C245.633 110.068 245.963 110.582 246.55 110.582Z" fill="white"/>
<path d="M262.208 110.493H260.912V109.126H257.94V107.989L261.051 104.08H262.208V108.149H263.046V109.126H262.208V110.493ZM258.967 108.149H260.912V105.616L258.967 108.149ZM266.179 110.642C264.563 110.642 263.616 109.396 263.616 107.291C263.616 105.147 264.573 103.93 266.179 103.93C267.795 103.93 268.742 105.177 268.742 107.291C268.742 109.426 267.785 110.642 266.179 110.642ZM266.179 109.565C266.987 109.565 267.426 108.757 267.426 107.291C267.426 105.825 266.977 105.007 266.179 105.007C265.361 105.007 264.922 105.815 264.922 107.291C264.922 108.737 265.371 109.565 266.179 109.565ZM270.768 107.571C269.781 107.571 269.193 106.912 269.193 105.765C269.193 104.609 269.781 103.93 270.768 103.93C271.756 103.93 272.344 104.618 272.344 105.765C272.344 106.902 271.766 107.571 270.768 107.571ZM270.37 110.493L274.698 104.08H275.835L271.516 110.493H270.37ZM270.768 106.773C271.147 106.773 271.357 106.414 271.357 105.765C271.357 105.107 271.147 104.748 270.768 104.748C270.389 104.748 270.19 105.107 270.19 105.765C270.19 106.414 270.399 106.773 270.768 106.773ZM275.426 110.592C274.439 110.592 273.86 109.924 273.86 108.777C273.86 107.62 274.449 106.942 275.426 106.942C276.423 106.942 277.012 107.63 277.012 108.777C277.012 109.924 276.423 110.592 275.426 110.592ZM275.426 109.785C275.805 109.785 276.014 109.426 276.014 108.777C276.014 108.119 275.805 107.76 275.426 107.76C275.057 107.76 274.857 108.119 274.857 108.777C274.857 109.426 275.057 109.785 275.426 109.785Z" fill="#91D6A8"/>
<path d="M281.835 104.143V109.842M281.835 104.143L280.41 105.568M281.835 104.143L283.26 105.568" stroke="#91D6A8" stroke-width="1.06855" stroke-linecap="round" stroke-linejoin="round"/>
<path d="M61.4116 126.466H293.589" stroke="white" stroke-opacity="0.11" stroke-width="0.407619" stroke-linecap="round"/>
<circle cx="79.5916" cy="146.166" r="10.7" fill="#7291CF" fill-opacity="0.5"/>
<g clip-path="url(#clip1_887_1149)">
<path d="M75.7685 147.016H74.6348C74.3217 147.016 74.0679 147.27 74.0679 147.583V151.268C74.0679 151.581 74.3217 151.835 74.6348 151.835H75.7685C76.0816 151.835 76.3354 151.581 76.3354 151.268V147.583C76.3354 147.27 76.0816 147.016 75.7685 147.016Z" stroke="#D5E3A1" stroke-width="0.850335" stroke-linecap="round" stroke-linejoin="round"/>
<path d="M76.3354 147.583H79.5951C79.9864 147.583 80.3037 147.9 80.3037 148.291C80.3037 148.683 79.9864 149 79.5951 149H78.3196" stroke="#D5E3A1" stroke-width="0.850335" stroke-linecap="round" stroke-linejoin="round"/>
<path d="M79.1699 149H81.2627C81.7445 149 82.2139 148.846 82.6026 148.562L84.0925 147.47C84.4164 147.219 84.8772 147.248 85.1674 147.537C85.504 147.873 85.481 148.423 85.1176 148.73L82.6251 150.759C82.2207 151.088 81.7152 151.267 81.1938 151.267H76.3354" stroke="#D5E3A1" stroke-width="0.850335" stroke-linecap="round" stroke-linejoin="round"/>
<path d="M83.705 143.331C83.705 144.896 82.436 146.165 80.8706 146.165C79.3052 146.165 78.0361 144.896 78.0361 143.331C78.0361 141.766 79.3052 140.497 80.8706 140.497C82.436 140.497 83.705 141.766 83.705 143.331Z" stroke="#D5E3A1" stroke-width="0.850335" stroke-linecap="round" stroke-linejoin="round"/>
</g>
<path d="M96.5339 144.523C96.5339 146.671 101.478 144.979 101.478 148.315C101.478 149.923 100.17 150.823 98.3819 150.823C96.5699 150.823 95.3219 149.995 94.9859 148.291H96.3899C96.6179 149.215 97.3019 149.719 98.3939 149.719C99.5099 149.719 100.098 149.227 100.098 148.495C100.098 146.191 95.1539 147.907 95.1539 144.631C95.1539 143.407 96.1859 142.351 98.0459 142.351C99.6539 142.351 100.974 143.119 101.262 144.907H99.8339C99.6059 143.899 98.9699 143.455 98.0099 143.455C97.0739 143.455 96.5339 143.875 96.5339 144.523ZM103.894 146.359H102.61C102.814 144.943 103.786 144.103 105.382 144.103C107.122 144.103 107.986 145.123 107.986 146.611V149.107C107.986 149.875 108.058 150.319 108.202 150.667H106.858C106.762 150.427 106.726 150.091 106.714 149.731C106.174 150.487 105.346 150.823 104.578 150.823C103.282 150.823 102.394 150.211 102.394 148.987C102.394 148.111 102.874 147.463 103.834 147.139C104.686 146.851 105.55 146.779 106.702 146.767V146.623C106.702 145.687 106.27 145.183 105.286 145.183C104.458 145.183 104.014 145.639 103.894 146.359ZM103.69 148.939C103.69 149.479 104.134 149.815 104.818 149.815C105.886 149.815 106.702 148.963 106.702 147.931V147.643C104.242 147.667 103.69 148.207 103.69 148.939ZM110.946 150.667L108.594 144.271H109.974L111.618 149.023L111.774 149.635L111.93 149.023L113.562 144.271H114.87L112.518 150.667H110.946ZM115.701 143.479V142.027H116.985V143.479H115.701ZM115.701 150.667V144.271H116.985V150.667H115.701ZM118.537 150.667V144.271H119.821V145.123C120.253 144.439 120.925 144.103 121.753 144.103C123.085 144.103 123.913 144.883 123.913 146.395V150.667H122.641V146.659C122.641 145.735 122.233 145.171 121.357 145.171C120.397 145.171 119.821 146.023 119.821 146.911V150.667H118.537ZM127.779 150.703C126.147 150.703 125.163 149.455 125.163 147.415C125.163 145.279 126.171 144.103 127.779 144.103C128.595 144.103 129.207 144.391 129.615 144.943V144.271H130.899V150.871C130.899 152.623 129.735 153.475 128.199 153.475C126.663 153.475 125.559 152.755 125.331 151.267H126.615C126.735 152.035 127.347 152.443 128.187 152.443C129.039 152.443 129.615 151.999 129.615 150.895V149.815C129.183 150.403 128.559 150.703 127.779 150.703ZM128.043 149.623C129.063 149.623 129.615 148.843 129.615 147.403C129.615 145.999 129.039 145.183 128.043 145.183C127.023 145.183 126.471 145.963 126.471 147.415C126.471 148.819 127.035 149.623 128.043 149.623ZM133.479 145.951C133.479 147.583 137.571 146.215 137.571 148.819C137.571 150.031 136.479 150.823 134.931 150.823C133.383 150.823 132.291 150.103 132.051 148.579H133.335C133.467 149.383 134.067 149.827 134.967 149.827C135.831 149.827 136.287 149.443 136.287 148.903C136.287 147.307 132.255 148.651 132.255 146.023C132.255 145.027 133.035 144.103 134.655 144.103C136.083 144.103 137.139 144.763 137.343 146.359H136.059C135.915 145.459 135.411 145.123 134.595 145.123C133.887 145.123 133.479 145.471 133.479 145.951Z" fill="white" fill-opacity="0.7"/>
<path d="M231.517 148.478C231.517 149.811 230.515 150.813 228.57 150.813C226.822 150.813 225.733 149.908 225.513 148.404H226.614C226.76 149.309 227.372 149.884 228.558 149.884C229.781 149.884 230.417 149.346 230.417 148.429C230.417 147.756 230.062 147.035 228.216 147.035H227.898V146.179H228.154C229.903 146.179 230.184 145.457 230.184 144.907C230.184 144.075 229.634 143.586 228.582 143.586C227.482 143.586 226.919 144.136 226.773 145.041H225.684C225.892 143.562 226.907 142.657 228.595 142.657C230.368 142.657 231.285 143.611 231.285 144.895C231.285 145.628 230.967 146.203 230.148 146.545C231.163 146.925 231.517 147.634 231.517 148.478ZM235.579 150.813C233.635 150.813 232.51 149.297 232.51 146.741C232.51 144.112 233.659 142.657 235.579 142.657C237.511 142.657 238.636 144.173 238.636 146.741C238.636 149.37 237.487 150.813 235.579 150.813ZM235.579 149.884C236.839 149.884 237.536 148.759 237.536 146.741C237.536 144.736 236.827 143.586 235.579 143.586C234.308 143.586 233.611 144.699 233.611 146.741C233.611 148.722 234.32 149.884 235.579 149.884ZM241.207 147.084C240.02 147.084 239.323 146.276 239.323 144.882C239.323 143.464 240.033 142.657 241.207 142.657C242.393 142.657 243.09 143.488 243.09 144.882C243.09 146.289 242.393 147.084 241.207 147.084ZM240.51 150.667L246.184 142.804H247.26L241.586 150.667H240.51ZM241.207 146.301C241.806 146.301 242.136 145.8 242.136 144.882C242.136 143.965 241.806 143.452 241.207 143.452C240.607 143.452 240.289 143.953 240.289 144.882C240.289 145.787 240.62 146.301 241.207 146.301ZM246.55 150.764C245.364 150.764 244.667 149.945 244.667 148.563C244.667 147.145 245.376 146.338 246.55 146.338C247.737 146.338 248.434 147.157 248.434 148.563C248.434 149.969 247.737 150.764 246.55 150.764ZM246.55 149.982C247.15 149.982 247.48 149.48 247.48 148.563C247.48 147.646 247.15 147.132 246.55 147.132C245.951 147.132 245.633 147.634 245.633 148.563C245.633 149.468 245.963 149.982 246.55 149.982Z" fill="white"/>
<path d="M262.208 149.893H260.912V148.526H257.94V147.389L261.051 143.48H262.208V147.549H263.046V148.526H262.208V149.893ZM258.967 147.549H260.912V145.016L258.967 147.549ZM266.179 150.042C264.563 150.042 263.616 148.796 263.616 146.691C263.616 144.547 264.573 143.33 266.179 143.33C267.795 143.33 268.742 144.577 268.742 146.691C268.742 148.825 267.785 150.042 266.179 150.042ZM266.179 148.965C266.987 148.965 267.426 148.157 267.426 146.691C267.426 145.225 266.977 144.407 266.179 144.407C265.361 144.407 264.922 145.215 264.922 146.691C264.922 148.137 265.371 148.965 266.179 148.965ZM270.768 146.97C269.781 146.97 269.193 146.312 269.193 145.165C269.193 144.008 269.781 143.33 270.768 143.33C271.756 143.33 272.344 144.018 272.344 145.165C272.344 146.302 271.766 146.97 270.768 146.97ZM270.37 149.893L274.698 143.48H275.835L271.516 149.893H270.37ZM270.768 146.173C271.147 146.173 271.357 145.814 271.357 145.165C271.357 144.507 271.147 144.148 270.768 144.148C270.389 144.148 270.19 144.507 270.19 145.165C270.19 145.814 270.399 146.173 270.768 146.173ZM275.426 149.992C274.439 149.992 273.86 149.324 273.86 148.177C273.86 147.02 274.449 146.342 275.426 146.342C276.423 146.342 277.012 147.03 277.012 148.177C277.012 149.324 276.423 149.992 275.426 149.992ZM275.426 149.184C275.805 149.184 276.014 148.825 276.014 148.177C276.014 147.519 275.805 147.16 275.426 147.16C275.057 147.16 274.857 147.519 274.857 148.177C274.857 148.825 275.057 149.184 275.426 149.184Z" fill="#91D6A8"/>
<path d="M281.835 143.543V149.242M281.835 143.543L280.41 144.968M281.835 143.543L283.26 144.968" stroke="#91D6A8" stroke-width="1.06855" stroke-linecap="round" stroke-linejoin="round"/>
<path d="M61.4116 165.662C61.2991 165.662 61.2078 165.754 61.2078 165.866C61.2078 165.979 61.2991 166.07 61.4116 166.07V165.662ZM61.4116 166.07H293.589V165.662H61.4116V166.07Z" fill="white" fill-opacity="0.11"/>
<circle cx="79.5916" cy="185.566" r="10.7" fill="#7291CF" fill-opacity="0.5"/>
<path d="M74.0776 185.709C74.0776 183.03 74.0776 181.691 74.9096 180.859C75.7417 180.027 77.0808 180.027 79.7589 180.027C82.4371 180.027 83.7762 180.027 84.6083 180.859C85.4402 181.691 85.4402 183.03 85.4402 185.709C85.4402 188.387 85.4402 189.726 84.6083 190.558C83.7762 191.39 82.4371 191.39 79.7589 191.39C77.0808 191.39 75.7417 191.39 74.9096 190.558C74.0776 189.726 74.0776 188.387 74.0776 185.709Z" stroke="#D5E3A1" stroke-width="0.897048" stroke-linejoin="round"/>
<path d="M74.0776 187.203H74.3998C74.6823 187.203 74.8235 187.203 74.9463 187.144C75.0691 187.085 75.1573 186.975 75.3338 186.754L76.1707 185.708L77.0678 187.203L77.9648 185.11L79.4599 188.1L81.553 183.914L82.7491 186.007L83.6462 185.11L84.5105 186.407C84.6612 186.633 84.7365 186.746 84.8466 186.814C84.8685 186.828 84.8913 186.84 84.9147 186.851C85.0327 186.904 85.1686 186.904 85.4402 186.904" stroke="#D5E3A1" stroke-width="0.897048" stroke-linejoin="round"/>
<path d="M81.5527 180.027V181.821M81.5527 191.39V187.204" stroke="#D5E3A1" stroke-width="0.897048" stroke-linecap="round" stroke-linejoin="round"/>
<path d="M81.5526 184.512C81.8829 184.512 82.1507 184.245 82.1507 183.914C82.1507 183.584 81.8829 183.316 81.5526 183.316C81.2223 183.316 80.9546 183.584 80.9546 183.914C80.9546 184.245 81.2223 184.512 81.5526 184.512Z" stroke="#D5E3A1" stroke-width="0.897048" stroke-linejoin="round"/>
<path d="M96.5339 183.922C96.5339 186.07 101.478 184.378 101.478 187.714C101.478 189.322 100.17 190.222 98.3819 190.222C96.5699 190.222 95.3219 189.394 94.9859 187.69H96.3899C96.6179 188.614 97.3019 189.118 98.3939 189.118C99.5099 189.118 100.098 188.626 100.098 187.894C100.098 185.59 95.1539 187.306 95.1539 184.03C95.1539 182.806 96.1859 181.75 98.0459 181.75C99.6539 181.75 100.974 182.518 101.262 184.306H99.8339C99.6059 183.298 98.9699 182.854 98.0099 182.854C97.0739 182.854 96.5339 183.274 96.5339 183.922ZM103.966 192.706H102.682V183.67H103.966V184.438C104.374 183.838 104.974 183.502 105.706 183.502C107.398 183.502 108.418 184.762 108.418 186.85C108.418 189.022 107.374 190.222 105.706 190.222C104.974 190.222 104.374 189.922 103.966 189.334V192.706ZM105.55 184.582C104.518 184.582 103.966 185.386 103.966 186.85C103.966 188.314 104.542 189.142 105.55 189.142C106.558 189.142 107.11 188.326 107.11 186.85C107.11 185.398 106.534 184.582 105.55 184.582ZM115.342 187.978C114.994 189.466 113.89 190.222 112.39 190.222C110.506 190.222 109.354 188.962 109.354 186.874C109.354 184.702 110.506 183.502 112.33 183.502C114.178 183.502 115.294 184.75 115.294 186.802V187.114H110.662C110.734 188.422 111.346 189.154 112.39 189.154C113.206 189.154 113.782 188.77 113.998 187.978H115.342ZM112.33 184.57C111.406 184.57 110.854 185.158 110.698 186.238H113.962C113.806 185.158 113.242 184.57 112.33 184.57ZM116.58 190.066V183.67H117.864V184.522C118.296 183.838 118.968 183.502 119.796 183.502C121.128 183.502 121.956 184.282 121.956 185.794V190.066H120.684V186.058C120.684 185.134 120.276 184.57 119.4 184.57C118.44 184.57 117.864 185.422 117.864 186.31V190.066H116.58ZM125.918 190.222C124.226 190.222 123.206 188.962 123.206 186.874C123.206 184.702 124.25 183.502 125.918 183.502C126.65 183.502 127.25 183.802 127.658 184.39V181.426H128.942V190.066H127.658V189.286C127.25 189.886 126.65 190.222 125.918 190.222ZM126.086 189.142C127.106 189.142 127.658 188.35 127.658 186.874C127.658 185.41 127.082 184.582 126.086 184.582C125.066 184.582 124.514 185.398 124.514 186.874C124.514 188.326 125.09 189.142 126.086 189.142ZM130.49 182.878V181.426H131.774V182.878H130.49ZM130.49 190.066V183.67H131.774V190.066H130.49ZM133.326 190.066V183.67H134.61V184.522C135.042 183.838 135.714 183.502 136.542 183.502C137.874 183.502 138.702 184.282 138.702 185.794V190.066H137.43V186.058C137.43 185.134 137.022 184.57 136.146 184.57C135.186 184.57 134.61 185.422 134.61 186.31V190.066H133.326ZM142.568 190.102C140.936 190.102 139.952 188.854 139.952 186.814C139.952 184.678 140.96 183.502 142.568 183.502C143.384 183.502 143.996 183.79 144.404 184.342V183.67H145.688V190.27C145.688 192.022 144.524 192.874 142.988 192.874C141.452 192.874 140.348 192.154 140.12 190.666H141.404C141.524 191.434 142.136 191.842 142.976 191.842C143.828 191.842 144.404 191.398 144.404 190.294V189.214C143.972 189.802 143.348 190.102 142.568 190.102ZM142.832 189.022C143.852 189.022 144.404 188.242 144.404 186.802C144.404 185.398 143.828 184.582 142.832 184.582C141.812 184.582 141.26 185.362 141.26 186.814C141.26 188.218 141.824 189.022 142.832 189.022Z" fill="white" fill-opacity="0.7"/>
<path d="M228.289 190.066H227.164C227.58 187.462 228.595 185.126 230.099 183.059H225.709V182.203H231.261V182.888C229.61 185.151 228.619 187.56 228.289 190.066ZM235.579 190.213C233.635 190.213 232.51 188.697 232.51 186.141C232.51 183.512 233.659 182.057 235.579 182.057C237.511 182.057 238.636 183.573 238.636 186.141C238.636 188.77 237.487 190.213 235.579 190.213ZM235.579 189.284C236.839 189.284 237.536 188.159 237.536 186.141C237.536 184.136 236.827 182.986 235.579 182.986C234.308 182.986 233.611 184.099 233.611 186.141C233.611 188.122 234.32 189.284 235.579 189.284ZM241.207 186.483C240.02 186.483 239.323 185.676 239.323 184.282C239.323 182.864 240.033 182.057 241.207 182.057C242.393 182.057 243.09 182.888 243.09 184.282C243.09 185.689 242.393 186.483 241.207 186.483ZM240.51 190.066L246.184 182.203H247.26L241.586 190.066H240.51ZM241.207 185.701C241.806 185.701 242.136 185.199 242.136 184.282C242.136 183.365 241.806 182.852 241.207 182.852C240.607 182.852 240.289 183.353 240.289 184.282C240.289 185.187 240.62 185.701 241.207 185.701ZM246.55 190.164C245.364 190.164 244.667 189.345 244.667 187.963C244.667 186.545 245.376 185.737 246.55 185.737C247.737 185.737 248.434 186.557 248.434 187.963C248.434 189.369 247.737 190.164 246.55 190.164ZM246.55 189.382C247.15 189.382 247.48 188.88 247.48 187.963C247.48 187.046 247.15 186.532 246.55 186.532C245.951 186.532 245.633 187.034 245.633 187.963C245.633 188.868 245.963 189.382 246.55 189.382Z" fill="white"/>
<path d="M262.208 189.292H260.912V187.926H257.94V186.789L261.051 182.88H262.208V186.949H263.046V187.926H262.208V189.292ZM258.967 186.949H260.912V184.416L258.967 186.949ZM266.179 189.442C264.563 189.442 263.616 188.195 263.616 186.091C263.616 183.947 264.573 182.73 266.179 182.73C267.795 182.73 268.742 183.977 268.742 186.091C268.742 188.225 267.785 189.442 266.179 189.442ZM266.179 188.365C266.987 188.365 267.426 187.557 267.426 186.091C267.426 184.625 266.977 183.807 266.179 183.807C265.361 183.807 264.922 184.615 264.922 186.091C264.922 187.537 265.371 188.365 266.179 188.365ZM270.768 186.37C269.781 186.37 269.193 185.712 269.193 184.565C269.193 183.408 269.781 182.73 270.768 182.73C271.756 182.73 272.344 183.418 272.344 184.565C272.344 185.702 271.766 186.37 270.768 186.37ZM270.37 189.292L274.698 182.88H275.835L271.516 189.292H270.37ZM270.768 185.572C271.147 185.572 271.357 185.213 271.357 184.565C271.357 183.907 271.147 183.548 270.768 183.548C270.389 183.548 270.19 183.907 270.19 184.565C270.19 185.213 270.399 185.572 270.768 185.572ZM275.426 189.392C274.439 189.392 273.86 188.724 273.86 187.577C273.86 186.42 274.449 185.742 275.426 185.742C276.423 185.742 277.012 186.43 277.012 187.577C277.012 188.724 276.423 189.392 275.426 189.392ZM275.426 188.584C275.805 188.584 276.014 188.225 276.014 187.577C276.014 186.919 275.805 186.56 275.426 186.56C275.057 186.56 274.857 186.919 274.857 187.577C274.857 188.225 275.057 188.584 275.426 188.584Z" fill="#91D6A8"/>
<path d="M281.835 182.943V188.642M281.835 182.943L280.41 184.368M281.835 182.943L283.26 184.368" stroke="#91D6A8" stroke-width="1.06855" stroke-linecap="round" stroke-linejoin="round"/>
<path d="M61.4116 205.063C61.2991 205.063 61.2078 205.154 61.2078 205.267C61.2078 205.379 61.2991 205.47 61.4116 205.47V205.063ZM61.4116 205.47H293.589V205.063H61.4116V205.47Z" fill="white" fill-opacity="0.11"/>
<circle cx="78.5088" cy="223.884" r="9.61722" fill="#7291CF" fill-opacity="0.5"/>
<path d="M73.5527 224.012C73.5527 221.605 73.5527 220.401 74.3005 219.654C75.0484 218.906 76.252 218.906 78.6591 218.906C81.0663 218.906 82.2699 218.906 83.0177 219.654C83.7655 220.401 83.7655 221.605 83.7655 224.012C83.7655 226.419 83.7655 227.623 83.0177 228.371C82.2699 229.119 81.0663 229.119 78.6591 229.119C76.252 229.119 75.0484 229.119 74.3005 228.371C73.5527 227.623 73.5527 226.419 73.5527 224.012Z" stroke="#D5E3A1" stroke-width="0.806272" stroke-linejoin="round"/>
<path d="M73.5527 225.356H73.8423C74.0962 225.356 74.2231 225.356 74.3335 225.303C74.4439 225.25 74.5232 225.151 74.6818 224.952L75.434 224.012L76.2403 225.356L77.0466 223.474L78.3904 226.162L80.2717 222.399L81.3467 224.281L82.153 223.474L82.9298 224.64C83.0653 224.843 83.133 224.945 83.232 225.006C83.2516 225.018 83.2721 225.029 83.2931 225.039C83.3992 225.087 83.5213 225.087 83.7655 225.087" stroke="#D5E3A1" stroke-width="0.806272" stroke-linejoin="round"/>
<path d="M80.272 218.906V220.518M80.272 229.119V225.356" stroke="#D5E3A1" stroke-width="0.806272" stroke-linecap="round" stroke-linejoin="round"/>
<path d="M80.2714 222.937C80.5683 222.937 80.8089 222.696 80.8089 222.399C80.8089 222.102 80.5683 221.862 80.2714 221.862C79.9745 221.862 79.7339 222.102 79.7339 222.399C79.7339 222.696 79.9745 222.937 80.2714 222.937Z" stroke="#D5E3A1" stroke-width="0.806272" stroke-linejoin="round"/>
<path d="M94.573 222.101C94.573 224.472 100.031 222.604 100.031 226.287C100.031 228.062 98.587 229.056 96.6131 229.056C94.6127 229.056 93.235 228.142 92.8641 226.261H94.414C94.6657 227.281 95.4208 227.837 96.6264 227.837C97.8584 227.837 98.5075 227.294 98.5075 226.486C98.5075 223.942 93.0495 225.837 93.0495 222.22C93.0495 220.869 94.1888 219.703 96.2422 219.703C98.0174 219.703 99.4746 220.551 99.7926 222.525H98.2161C97.9644 221.412 97.2623 220.922 96.2025 220.922C95.1691 220.922 94.573 221.386 94.573 222.101ZM101.546 226.777V222.922H100.592V221.823H101.546V220.193H102.963V221.823H104.487V222.922H102.963V226.698C102.963 227.506 103.188 227.89 104.182 227.89H104.46V228.924C104.301 229.003 103.97 229.056 103.572 229.056C102.195 229.056 101.546 228.301 101.546 226.777ZM108.506 229.056C106.453 229.056 105.207 227.665 105.207 225.36C105.207 222.962 106.492 221.637 108.506 221.637C110.559 221.637 111.805 223.055 111.805 225.36C111.805 227.744 110.52 229.056 108.506 229.056ZM108.506 227.864C109.712 227.864 110.361 226.989 110.361 225.36C110.361 223.744 109.698 222.83 108.506 222.83C107.314 222.83 106.651 223.717 106.651 225.36C106.651 226.963 107.314 227.864 108.506 227.864ZM119.159 224.287H117.742C117.57 223.28 116.92 222.83 116.099 222.83C114.92 222.83 114.284 223.73 114.284 225.36C114.284 226.963 114.947 227.877 116.139 227.877C116.987 227.877 117.583 227.413 117.795 226.512H119.199C118.894 228.274 117.676 229.056 116.112 229.056C114.072 229.056 112.84 227.652 112.84 225.36C112.84 222.962 114.099 221.637 116.099 221.637C117.676 221.637 118.921 222.525 119.159 224.287ZM120.52 228.884V219.346H121.938V224.817L124.746 221.823H126.442L123.395 224.962L126.627 228.884H124.865L121.938 225.36V228.884H120.52ZM128.386 223.677C128.386 225.479 132.904 223.969 132.904 226.844C132.904 228.182 131.698 229.056 129.989 229.056C128.28 229.056 127.075 228.261 126.81 226.579H128.227C128.373 227.466 129.035 227.956 130.029 227.956C130.983 227.956 131.486 227.533 131.486 226.936C131.486 225.174 127.035 226.658 127.035 223.757C127.035 222.657 127.896 221.637 129.685 221.637C131.261 221.637 132.427 222.366 132.652 224.128H131.235C131.076 223.134 130.519 222.763 129.618 222.763C128.837 222.763 128.386 223.148 128.386 223.677Z" fill="white"/>
<path d="M228.289 228.384H227.164C227.58 225.779 228.595 223.443 230.099 221.377H225.709V220.521H231.261V221.206C229.61 223.468 228.619 225.877 228.289 228.384ZM235.579 228.531C233.635 228.531 232.51 227.014 232.51 224.458C232.51 221.829 233.659 220.374 235.579 220.374C237.511 220.374 238.636 221.89 238.636 224.458C238.636 227.088 237.487 228.531 235.579 228.531ZM235.579 227.601C236.839 227.601 237.536 226.476 237.536 224.458C237.536 222.453 236.827 221.303 235.579 221.303C234.308 221.303 233.611 222.416 233.611 224.458C233.611 226.439 234.32 227.601 235.579 227.601ZM241.207 224.801C240.02 224.801 239.323 223.994 239.323 222.6C239.323 221.181 240.033 220.374 241.207 220.374C242.393 220.374 243.09 221.206 243.09 222.6C243.09 224.006 242.393 224.801 241.207 224.801ZM240.51 228.384L246.184 220.521H247.26L241.586 228.384H240.51ZM241.207 224.018C241.806 224.018 242.136 223.517 242.136 222.6C242.136 221.683 241.806 221.169 241.207 221.169C240.607 221.169 240.289 221.67 240.289 222.6C240.289 223.505 240.62 224.018 241.207 224.018ZM246.55 228.482C245.364 228.482 244.667 227.662 244.667 226.28C244.667 224.862 245.376 224.055 246.55 224.055C247.737 224.055 248.434 224.874 248.434 226.28C248.434 227.687 247.737 228.482 246.55 228.482ZM246.55 227.699C247.15 227.699 247.48 227.198 247.48 226.28C247.48 225.363 247.15 224.85 246.55 224.85C245.951 224.85 245.633 225.351 245.633 226.28C245.633 227.185 245.963 227.699 246.55 227.699Z" fill="white"/>
<path d="M262.208 227.61H260.912V226.244H257.94V225.107L261.051 221.197H262.208V225.266H263.046V226.244H262.208V227.61ZM258.967 225.266H260.912V222.733L258.967 225.266ZM266.179 227.759C264.563 227.759 263.616 226.513 263.616 224.408C263.616 222.264 264.573 221.048 266.179 221.048C267.795 221.048 268.742 222.294 268.742 224.408C268.742 226.543 267.785 227.759 266.179 227.759ZM266.179 226.682C266.987 226.682 267.426 225.875 267.426 224.408C267.426 222.942 266.977 222.125 266.179 222.125C265.361 222.125 264.922 222.932 264.922 224.408C264.922 225.855 265.371 226.682 266.179 226.682ZM270.768 224.688C269.781 224.688 269.193 224.029 269.193 222.883C269.193 221.726 269.781 221.048 270.768 221.048C271.756 221.048 272.344 221.736 272.344 222.883C272.344 224.02 271.766 224.688 270.768 224.688ZM270.37 227.61L274.698 221.197H275.835L271.516 227.61H270.37ZM270.768 223.89C271.147 223.89 271.357 223.531 271.357 222.883C271.357 222.224 271.147 221.865 270.768 221.865C270.389 221.865 270.19 222.224 270.19 222.883C270.19 223.531 270.399 223.89 270.768 223.89ZM275.426 227.71C274.439 227.71 273.86 227.041 273.86 225.894C273.86 224.738 274.449 224.059 275.426 224.059C276.423 224.059 277.012 224.748 277.012 225.894C277.012 227.041 276.423 227.71 275.426 227.71ZM275.426 226.902C275.805 226.902 276.014 226.543 276.014 225.894C276.014 225.236 275.805 224.877 275.426 224.877C275.057 224.877 274.857 225.236 274.857 225.894C274.857 226.543 275.057 226.902 275.426 226.902Z" fill="#91D6A8"/>
<path d="M281.835 221.26V226.959M281.835 221.26L280.41 222.685M281.835 221.26L283.26 222.685" stroke="#91D6A8" stroke-width="1.06855" stroke-linecap="round" stroke-linejoin="round"/>
</g>
<rect x="55.5095" y="43.8142" width="243.981" height="196.676" rx="15.0366" stroke="#416BB9" stroke-opacity="0.34" stroke-width="1.01905"/>
</g>
<defs>
<filter id="filter0_d_887_1149" x="45.6179" y="38.6136" width="263.764" height="216.459" filterUnits="userSpaceOnUse" color-interpolation-filters="sRGB">
<feFlood flood-opacity="0" result="BackgroundImageFix"/>
<feColorMatrix in="SourceAlpha" type="matrix" values="0 0 0 0 0 0 0 0 0 0 0 0 0 0 0 0 0 0 127 0" result="hardAlpha"/>
<feOffset dy="4.69104"/>
<feGaussianBlur stdDeviation="4.69104"/>
<feComposite in2="hardAlpha" operator="out"/>
<feColorMatrix type="matrix" values="0 0 0 0 0 0 0 0 0 0 0 0 0 0 0 0 0 0 0.1 0"/>
<feBlend mode="normal" in2="BackgroundImageFix" result="effect1_dropShadow_887_1149"/>
<feBlend mode="normal" in="SourceGraphic" in2="effect1_dropShadow_887_1149" result="shape"/>
</filter>
<clipPath id="clip0_887_1149">
<rect x="55" y="43.3047" width="245" height="197.695" rx="15.5461" fill="white"/>
</clipPath>
<clipPath id="clip1_887_1149">
<rect width="13.6054" height="13.6054" fill="white" transform="translate(72.9341 139.363)"/>
</clipPath>
</defs>
</svg>
