<svg width="400" height="450" viewBox="0 0 400 450" fill="none" xmlns="http://www.w3.org/2000/svg">
<rect width="400" height="450" rx="24" fill="#F8FAFC"/>
<rect x="34.5" y="34.5" width="35" height="35" rx="17.5" fill="#D5E3A1"/>
<path d="M56.8781 55.85C56.8781 58.2562 54.975 60.2031 51.3656 60.2031C48.1719 60.2031 46.0719 58.4531 45.6563 55.6312H48.5C48.7406 57.0094 49.6375 57.8844 51.3438 57.8844C53.0719 57.8844 54.0344 57.1187 54.0344 55.7406C54.0344 54.6906 53.4219 53.7062 50.775 53.7062H49.9656V51.6281H50.6219C53.2031 51.6281 53.6406 50.5562 53.6406 49.7031C53.6406 48.5219 52.8313 47.8 51.3656 47.8C49.8125 47.8 49.0031 48.6094 48.7625 49.9656H45.9625C46.3344 47.2094 48.325 45.4812 51.3875 45.4812C54.7125 45.4812 56.4844 47.3625 56.4844 49.6812C56.4844 50.9719 55.9375 51.9344 54.6906 52.525C56.2437 53.225 56.8781 54.3844 56.8781 55.85Z" fill="black"/>
<path d="M36.028 361L33.403 351.907L33.067 350.542L32.731 351.907L30.127 361H26.914L22.567 346.72H25.591L28.3 356.779L28.636 358.228L28.972 356.779L31.849 346.72H34.474L37.309 356.779L37.666 358.27L37.981 356.779L40.69 346.72H43.546L39.22 361H36.028ZM47.0071 353.44H44.2981C44.6551 350.941 46.4821 349.429 49.3171 349.429C52.4461 349.429 54.0421 351.277 54.0421 353.881V358.249C54.0421 359.635 54.1681 360.412 54.3781 361H51.5851C51.4381 360.622 51.3751 360.076 51.3541 359.467C50.4301 360.769 49.0441 361.315 47.7001 361.315C45.4951 361.315 43.9201 360.223 43.9201 358.06C43.9201 356.527 44.7811 355.372 46.5031 354.805C47.9941 354.301 49.4431 354.175 51.3331 354.154V353.881C51.3331 352.432 50.6401 351.655 49.1491 351.655C47.8681 351.655 47.1751 352.369 47.0071 353.44ZM46.6291 357.913C46.6291 358.774 47.3011 359.32 48.3931 359.32C50.0521 359.32 51.3331 357.976 51.3331 356.296V355.813C47.5111 355.876 46.6291 356.779 46.6291 357.913ZM56.9622 357.493V351.823H55.5132V349.744H56.9622V347.161H59.6502V349.744H62.0232V351.823H59.6502V357.262C59.6502 358.438 59.9862 359.068 61.4772 359.068H61.9812V361.042C61.6872 361.189 61.0782 361.315 60.3432 361.315C58.0542 361.315 56.9622 360.013 56.9622 357.493ZM73.3424 353.734H70.6544C70.4024 352.264 69.5204 351.655 68.3864 351.655C66.7274 351.655 65.8454 352.978 65.8454 355.393C65.8454 357.766 66.7694 359.089 68.4704 359.089C69.6254 359.089 70.4444 358.459 70.7174 357.178H73.4264C72.9224 359.992 70.9484 361.315 68.4074 361.315C65.0894 361.315 63.0734 359.047 63.0734 355.393C63.0734 351.571 65.1524 349.429 68.3864 349.429C70.9484 349.429 72.9644 350.857 73.3424 353.734ZM75.2878 361V345.88H77.9758V351.256C78.7108 350.038 79.8868 349.429 81.3148 349.429C83.5618 349.429 85.0948 350.773 85.0948 353.503V361H82.4068V354.049C82.4068 352.516 81.7558 351.655 80.3908 351.655C78.8998 351.655 77.9758 352.957 77.9758 354.469V361H75.2878ZM95.1499 361V355.918L90.1519 346.72H93.3229L96.0319 351.97L96.6409 353.503L97.2499 351.97L99.9589 346.72H102.962L97.9639 355.918V361H95.1499ZM107.845 361.315C104.506 361.315 102.448 359.068 102.448 355.393C102.448 351.571 104.569 349.429 107.845 349.429C111.163 349.429 113.221 351.697 113.221 355.393C113.221 359.173 111.1 361.315 107.845 361.315ZM107.845 359.089C109.546 359.089 110.449 357.787 110.449 355.393C110.449 352.999 109.525 351.655 107.845 351.655C106.123 351.655 105.22 352.978 105.22 355.393C105.22 357.766 106.144 359.089 107.845 359.089ZM122.169 356.275V349.744H124.857V361H122.169V359.488C121.434 360.727 120.279 361.315 118.893 361.315C116.667 361.315 115.176 359.971 115.176 357.262V349.744H117.864V356.716C117.864 358.249 118.494 359.089 119.817 359.089C121.266 359.089 122.169 357.787 122.169 356.275ZM127.337 361V349.744H130.025V351.382C130.76 350.038 131.894 349.429 133.112 349.429C133.574 349.429 133.994 349.555 134.204 349.744V352.075C133.847 351.97 133.448 351.928 132.965 351.928C130.928 351.928 130.025 353.146 130.025 355.015V361H127.337ZM139.83 361V346.72H142.665V361H139.83ZM145.302 361V349.744H147.99V351.256C148.725 350.038 149.901 349.429 151.329 349.429C153.576 349.429 155.109 350.773 155.109 353.503V361H152.421V354.049C152.421 352.516 151.77 351.655 150.405 351.655C148.914 351.655 147.99 352.957 147.99 354.469V361H145.302ZM160.094 361L156.041 349.744H158.939L161.543 357.682L161.837 358.9L162.11 357.682L164.714 349.744H167.465L163.412 361H160.094ZM178.908 357.325C178.299 359.929 176.283 361.315 173.595 361.315C170.193 361.315 168.114 359.068 168.114 355.393C168.114 351.571 170.214 349.429 173.49 349.429C176.787 349.429 178.824 351.655 178.824 355.288V355.918H170.886C171.012 357.976 171.957 359.11 173.595 359.11C174.855 359.11 175.716 358.522 176.073 357.325H178.908ZM173.49 351.634C172.062 351.634 171.201 352.537 170.949 354.238H176.01C175.758 352.558 174.897 351.634 173.49 351.634ZM183.089 352.768C183.089 355.351 190.187 353.167 190.187 357.682C190.187 359.845 188.192 361.315 185.378 361.315C182.606 361.315 180.611 360.034 180.212 357.325H182.9C183.089 358.543 184.055 359.236 185.462 359.236C186.785 359.236 187.478 358.669 187.478 357.85C187.478 355.33 180.527 357.493 180.527 352.936C180.527 351.109 181.955 349.429 184.895 349.429C187.478 349.429 189.431 350.647 189.767 353.44H187.079C186.869 352.075 186.071 351.529 184.79 351.529C183.719 351.529 183.089 352.054 183.089 352.768ZM192.375 357.493V351.823H190.926V349.744H192.375V347.161H195.063V349.744H197.436V351.823H195.063V357.262C195.063 358.438 195.399 359.068 196.89 359.068H197.394V361.042C197.1 361.189 196.491 361.315 195.756 361.315C193.467 361.315 192.375 360.013 192.375 357.493ZM199.011 361V349.744H201.699V351.193C202.413 350.017 203.505 349.429 204.828 349.429C206.256 349.429 207.369 350.059 207.936 351.34C208.692 350.059 209.889 349.429 211.338 349.429C213.501 349.429 214.971 350.773 214.971 353.503V361H212.283V354.049C212.283 352.516 211.716 351.655 210.519 351.655C209.175 351.655 208.335 352.957 208.335 354.469V361H205.647V354.049C205.647 352.516 205.08 351.655 203.883 351.655C202.539 351.655 201.699 352.957 201.699 354.469V361H199.011ZM227.717 357.325C227.108 359.929 225.092 361.315 222.404 361.315C219.002 361.315 216.923 359.068 216.923 355.393C216.923 351.571 219.023 349.429 222.299 349.429C225.596 349.429 227.633 351.655 227.633 355.288V355.918H219.695C219.821 357.976 220.766 359.11 222.404 359.11C223.664 359.11 224.525 358.522 224.882 357.325H227.717ZM222.299 351.634C220.871 351.634 220.01 352.537 219.758 354.238H224.819C224.567 352.558 223.706 351.634 222.299 351.634ZM229.65 361V349.744H232.338V351.256C233.073 350.038 234.249 349.429 235.677 349.429C237.924 349.429 239.457 350.773 239.457 353.503V361H236.769V354.049C236.769 352.516 236.118 351.655 234.753 351.655C233.262 351.655 232.338 352.957 232.338 354.469V361H229.65ZM242.291 357.493V351.823H240.842V349.744H242.291V347.161H244.979V349.744H247.352V351.823H244.979V357.262C244.979 358.438 245.315 359.068 246.806 359.068H247.31V361.042C247.016 361.189 246.407 361.315 245.672 361.315C243.383 361.315 242.291 360.013 242.291 357.493ZM265.505 361H263.531L263.3 359.194C262.418 360.643 260.927 361.315 259.163 361.315C255.236 361.315 252.653 358.501 252.653 353.881C252.653 349.282 255.236 346.405 259.415 346.405C262.376 346.405 264.875 348.022 265.526 351.13H262.565C262.124 349.597 260.927 348.757 259.331 348.757C256.937 348.757 255.551 350.689 255.551 353.881C255.551 357.073 257 358.963 259.436 358.963C261.2 358.963 262.628 357.955 262.817 355.582H259.73V353.44H265.505V361ZM267.897 361V349.744H270.585V351.382C271.32 350.038 272.454 349.429 273.672 349.429C274.134 349.429 274.554 349.555 274.764 349.744V352.075C274.407 351.97 274.008 351.928 273.525 351.928C271.488 351.928 270.585 353.146 270.585 355.015V361H267.897ZM280.849 361.315C277.51 361.315 275.452 359.068 275.452 355.393C275.452 351.571 277.573 349.429 280.849 349.429C284.167 349.429 286.225 351.697 286.225 355.393C286.225 359.173 284.104 361.315 280.849 361.315ZM280.849 359.089C282.55 359.089 283.453 357.787 283.453 355.393C283.453 352.999 282.529 351.655 280.849 351.655C279.127 351.655 278.224 352.978 278.224 355.393C278.224 357.766 279.148 359.089 280.849 359.089ZM298.01 361L295.973 353.461L295.763 352.138L295.511 353.461L293.495 361H290.156L287.027 349.744H289.904L291.71 357.682L291.983 359.047L292.298 357.682L294.461 349.744H297.254L299.417 357.682L299.69 359.005L299.942 357.682L301.769 349.744H304.52L301.37 361H298.01Z" fill="#262626"/>
<path d="M25.696 390V381.572H22.434V380.48H30.246V381.572H26.984V390H25.696ZM30.9644 390V382.566H32.1964V383.714C32.7004 382.804 33.4984 382.384 34.3944 382.384C34.6884 382.384 34.9544 382.454 35.0944 382.566V383.672C34.8844 383.602 34.6184 383.574 34.3244 383.574C32.8404 383.574 32.1964 384.498 32.1964 385.842V390H30.9644ZM37.1843 384.988H35.9523C36.1903 383.35 37.2683 382.384 39.0883 382.384C41.0763 382.384 42.0423 383.546 42.0423 385.282V388.208C42.0423 389.062 42.1123 389.594 42.3083 390H41.0063C40.8663 389.706 40.8243 389.272 40.8103 388.824C40.1803 389.762 39.1723 390.168 38.2763 390.168C36.7363 390.168 35.7003 389.454 35.7003 388.04C35.7003 387.018 36.2603 386.276 37.3523 385.912C38.3603 385.576 39.3823 385.492 40.8103 385.478V385.31C40.8103 384.106 40.2503 383.448 38.9763 383.448C37.9123 383.448 37.3383 384.036 37.1843 384.988ZM36.9603 388.012C36.9603 388.698 37.5343 389.104 38.4023 389.104C39.7743 389.104 40.8103 388.026 40.8103 386.752V386.402C37.6463 386.43 36.9603 387.102 36.9603 388.012ZM50.208 385.128H48.976C48.78 383.994 48.024 383.448 47.044 383.448C45.672 383.448 44.944 384.456 44.944 386.29C44.944 388.096 45.714 389.118 47.086 389.118C48.08 389.118 48.794 388.586 49.032 387.522H50.264C49.928 389.37 48.682 390.168 47.058 390.168C44.944 390.168 43.684 388.698 43.684 386.29C43.684 383.77 44.972 382.384 47.044 382.384C48.682 382.384 49.97 383.308 50.208 385.128ZM51.7866 390V379.92H53.0186V385.758L56.2246 382.566H57.7366L54.3486 385.884L57.9326 390H56.3646L53.0186 386.206V390H51.7866ZM62.2672 393.248C61.9872 393.248 61.6932 393.178 61.5392 393.136V392.184H61.9172C62.8272 392.184 63.0792 392.002 63.8072 390.336L64.0592 389.762L61.0212 382.566H62.3512L64.3672 387.48L64.7032 388.474L65.0392 387.48L66.9992 382.566H68.2592L64.7872 390.98C64.0452 392.772 63.5552 393.248 62.2672 393.248ZM72.2696 390.168C70.1416 390.168 68.8676 388.712 68.8676 386.29C68.8676 383.77 70.1836 382.384 72.2696 382.384C74.3976 382.384 75.6716 383.868 75.6716 386.29C75.6716 388.796 74.3556 390.168 72.2696 390.168ZM72.2696 389.104C73.6556 389.104 74.4116 388.11 74.4116 386.29C74.4116 384.484 73.6416 383.448 72.2696 383.448C70.8836 383.448 70.1276 384.456 70.1276 386.29C70.1276 388.082 70.8976 389.104 72.2696 389.104ZM81.9893 386.962V382.566H83.2213V390H81.9893V388.992C81.4853 389.776 80.7013 390.168 79.7353 390.168C78.1813 390.168 77.2573 389.258 77.2573 387.536V382.566H78.4893V387.284C78.4893 388.404 78.9793 389.118 80.0713 389.118C81.2753 389.118 81.9893 388.026 81.9893 386.962ZM85.187 390V382.566H86.419V383.714C86.923 382.804 87.721 382.384 88.617 382.384C88.911 382.384 89.177 382.454 89.317 382.566V383.672C89.107 383.602 88.841 383.574 88.547 383.574C87.063 383.574 86.419 384.498 86.419 385.842V390H85.187ZM93.2124 381.572V379.92H94.4444V381.572H93.2124ZM93.2124 390V382.566H94.4444V390H93.2124ZM96.398 390V382.566H97.63V383.574C98.134 382.79 98.946 382.384 99.926 382.384C101.508 382.384 102.446 383.308 102.446 385.03V390H101.214V385.282C101.214 384.162 100.71 383.434 99.59 383.434C98.358 383.434 97.63 384.54 97.63 385.604V390H96.398ZM105.998 390L103.226 382.566H104.556L106.614 388.334L106.796 388.978L106.978 388.334L109.036 382.566H110.282L107.51 390H105.998ZM117.754 387.578C117.348 389.314 116.102 390.168 114.408 390.168C112.252 390.168 110.95 388.712 110.95 386.29C110.95 383.77 112.252 382.384 114.338 382.384C116.438 382.384 117.698 383.826 117.698 386.192V386.5H112.21C112.28 388.166 113.064 389.104 114.408 389.104C115.458 389.104 116.2 388.6 116.466 387.578H117.754ZM114.338 383.448C113.148 383.448 112.434 384.19 112.252 385.576H116.41C116.242 384.204 115.5 383.448 114.338 383.448ZM120.249 384.47C120.249 386.542 125.079 384.834 125.079 387.9C125.079 389.286 123.847 390.168 122.097 390.168C120.333 390.168 119.101 389.328 118.821 387.578H120.053C120.221 388.614 120.991 389.188 122.139 389.188C123.259 389.188 123.847 388.684 123.847 387.984C123.847 385.954 119.073 387.634 119.073 384.554C119.073 383.42 119.955 382.384 121.775 382.384C123.385 382.384 124.575 383.14 124.813 384.988H123.581C123.399 383.826 122.755 383.392 121.705 383.392C120.781 383.392 120.249 383.854 120.249 384.47ZM126.712 387.858V383.546H125.676V382.566H126.712V380.858H127.944V382.566H129.582V383.546H127.944V387.858C127.944 388.754 128.21 389.174 129.302 389.174H129.554V390.056C129.414 390.126 129.106 390.168 128.756 390.168C127.37 390.168 126.712 389.426 126.712 387.858ZM130.755 390V382.566H131.987V383.518C132.463 382.762 133.205 382.384 134.115 382.384C135.137 382.384 135.879 382.832 136.229 383.7C136.719 382.832 137.531 382.384 138.525 382.384C140.037 382.384 140.947 383.308 140.947 385.03V390H139.715V385.282C139.715 384.162 139.267 383.434 138.259 383.434C137.139 383.434 136.467 384.54 136.467 385.604V390H135.235V385.282C135.235 384.162 134.787 383.434 133.779 383.434C132.659 383.434 131.987 384.54 131.987 385.604V390H130.755ZM149.336 387.578C148.93 389.314 147.684 390.168 145.99 390.168C143.834 390.168 142.532 388.712 142.532 386.29C142.532 383.77 143.834 382.384 145.92 382.384C148.02 382.384 149.28 383.826 149.28 386.192V386.5H143.792C143.862 388.166 144.646 389.104 145.99 389.104C147.04 389.104 147.782 388.6 148.048 387.578H149.336ZM145.92 383.448C144.73 383.448 144.016 384.19 143.834 385.576H147.992C147.824 384.204 147.082 383.448 145.92 383.448ZM150.921 390V382.566H152.153V383.574C152.657 382.79 153.469 382.384 154.449 382.384C156.031 382.384 156.969 383.308 156.969 385.03V390H155.737V385.282C155.737 384.162 155.233 383.434 154.113 383.434C152.881 383.434 152.153 384.54 152.153 385.604V390H150.921ZM159.101 387.858V383.546H158.065V382.566H159.101V380.858H160.333V382.566H161.971V383.546H160.333V387.858C160.333 388.754 160.599 389.174 161.691 389.174H161.943V390.056C161.803 390.126 161.495 390.168 161.145 390.168C159.759 390.168 159.101 389.426 159.101 387.858ZM163.242 383.756L163.018 380.48H164.362L164.124 383.756H163.242ZM167.103 384.47C167.103 386.542 171.933 384.834 171.933 387.9C171.933 389.286 170.701 390.168 168.951 390.168C167.187 390.168 165.955 389.328 165.675 387.578H166.907C167.075 388.614 167.845 389.188 168.993 389.188C170.113 389.188 170.701 388.684 170.701 387.984C170.701 385.954 165.927 387.634 165.927 384.554C165.927 383.42 166.809 382.384 168.629 382.384C170.239 382.384 171.429 383.14 171.667 384.988H170.435C170.253 383.826 169.609 383.392 168.559 383.392C167.635 383.392 167.103 383.854 167.103 384.47ZM177.447 393.08H176.215V382.566H177.447V383.49C177.937 382.79 178.651 382.384 179.533 382.384C181.507 382.384 182.697 383.84 182.697 386.262C182.697 388.782 181.479 390.168 179.533 390.168C178.651 390.168 177.937 389.804 177.447 389.118V393.08ZM179.449 383.448C178.147 383.448 177.447 384.442 177.447 386.262C177.447 388.068 178.175 389.104 179.449 389.104C180.737 389.104 181.437 388.096 181.437 386.262C181.437 384.47 180.709 383.448 179.449 383.448ZM190.707 387.578C190.301 389.314 189.055 390.168 187.361 390.168C185.205 390.168 183.903 388.712 183.903 386.29C183.903 383.77 185.205 382.384 187.291 382.384C189.391 382.384 190.651 383.826 190.651 386.192V386.5H185.163C185.233 388.166 186.017 389.104 187.361 389.104C188.411 389.104 189.153 388.6 189.419 387.578H190.707ZM187.291 383.448C186.101 383.448 185.387 384.19 185.205 385.576H189.363C189.195 384.204 188.453 383.448 187.291 383.448ZM192.293 390V382.566H193.525V383.714C194.029 382.804 194.827 382.384 195.723 382.384C196.017 382.384 196.283 382.454 196.423 382.566V383.672C196.213 383.602 195.947 383.574 195.653 383.574C194.169 383.574 193.525 384.498 193.525 385.842V390H192.293ZM196.605 383.546V382.566H197.641V382.062C197.641 380.494 198.285 379.752 199.657 379.752C199.965 379.752 200.217 379.808 200.343 379.864V380.746H200.217C199.139 380.746 198.873 381.166 198.873 382.062V382.566H200.343V383.546H198.873V390H197.641V383.546H196.605ZM204.354 390.168C202.226 390.168 200.952 388.712 200.952 386.29C200.952 383.77 202.268 382.384 204.354 382.384C206.482 382.384 207.756 383.868 207.756 386.29C207.756 388.796 206.44 390.168 204.354 390.168ZM204.354 389.104C205.74 389.104 206.496 388.11 206.496 386.29C206.496 384.484 205.726 383.448 204.354 383.448C202.968 383.448 202.212 384.456 202.212 386.29C202.212 388.082 202.982 389.104 204.354 389.104ZM209.341 390V382.566H210.573V383.714C211.077 382.804 211.875 382.384 212.771 382.384C213.065 382.384 213.331 382.454 213.471 382.566V383.672C213.261 383.602 212.995 383.574 212.701 383.574C211.217 383.574 210.573 384.498 210.573 385.842V390H209.341ZM214.564 390V382.566H215.796V383.518C216.272 382.762 217.014 382.384 217.924 382.384C218.946 382.384 219.688 382.832 220.038 383.7C220.528 382.832 221.34 382.384 222.334 382.384C223.846 382.384 224.756 383.308 224.756 385.03V390H223.524V385.282C223.524 384.162 223.076 383.434 222.068 383.434C220.948 383.434 220.276 384.54 220.276 385.604V390H219.044V385.282C219.044 384.162 218.596 383.434 217.588 383.434C216.468 383.434 215.796 384.54 215.796 385.604V390H214.564ZM227.852 384.988H226.62C226.858 383.35 227.936 382.384 229.756 382.384C231.744 382.384 232.71 383.546 232.71 385.282V388.208C232.71 389.062 232.78 389.594 232.976 390H231.674C231.534 389.706 231.492 389.272 231.478 388.824C230.848 389.762 229.84 390.168 228.944 390.168C227.404 390.168 226.368 389.454 226.368 388.04C226.368 387.018 226.928 386.276 228.02 385.912C229.028 385.576 230.05 385.492 231.478 385.478V385.31C231.478 384.106 230.918 383.448 229.644 383.448C228.58 383.448 228.006 384.036 227.852 384.988ZM227.628 388.012C227.628 388.698 228.202 389.104 229.07 389.104C230.442 389.104 231.478 388.026 231.478 386.752V386.402C228.314 386.43 227.628 387.102 227.628 388.012ZM234.73 390V382.566H235.962V383.574C236.466 382.79 237.278 382.384 238.258 382.384C239.84 382.384 240.778 383.308 240.778 385.03V390H239.546V385.282C239.546 384.162 239.042 383.434 237.922 383.434C236.69 383.434 235.962 384.54 235.962 385.604V390H234.73ZM248.888 385.128H247.656C247.46 383.994 246.704 383.448 245.724 383.448C244.352 383.448 243.624 384.456 243.624 386.29C243.624 388.096 244.394 389.118 245.766 389.118C246.76 389.118 247.474 388.586 247.712 387.522H248.944C248.608 389.37 247.362 390.168 245.738 390.168C243.624 390.168 242.364 388.698 242.364 386.29C242.364 383.77 243.652 382.384 245.724 382.384C247.362 382.384 248.65 383.308 248.888 385.128ZM256.892 387.578C256.486 389.314 255.24 390.168 253.546 390.168C251.39 390.168 250.088 388.712 250.088 386.29C250.088 383.77 251.39 382.384 253.476 382.384C255.576 382.384 256.836 383.826 256.836 386.192V386.5H251.348C251.418 388.166 252.202 389.104 253.546 389.104C254.596 389.104 255.338 388.6 255.604 387.578H256.892ZM253.476 383.448C252.286 383.448 251.572 384.19 251.39 385.576H255.548C255.38 384.204 254.638 383.448 253.476 383.448ZM267.707 387.578C267.301 389.314 266.055 390.168 264.361 390.168C262.205 390.168 260.903 388.712 260.903 386.29C260.903 383.77 262.205 382.384 264.291 382.384C266.391 382.384 267.651 383.826 267.651 386.192V386.5H262.163C262.233 388.166 263.017 389.104 264.361 389.104C265.411 389.104 266.153 388.6 266.419 387.578H267.707ZM264.291 383.448C263.101 383.448 262.387 384.19 262.205 385.576H266.363C266.195 384.204 265.453 383.448 264.291 383.448ZM270.427 384.988H269.195C269.433 383.35 270.511 382.384 272.331 382.384C274.319 382.384 275.285 383.546 275.285 385.282V388.208C275.285 389.062 275.355 389.594 275.551 390H274.249C274.109 389.706 274.067 389.272 274.053 388.824C273.423 389.762 272.415 390.168 271.519 390.168C269.979 390.168 268.943 389.454 268.943 388.04C268.943 387.018 269.503 386.276 270.595 385.912C271.603 385.576 272.625 385.492 274.053 385.478V385.31C274.053 384.106 273.493 383.448 272.219 383.448C271.155 383.448 270.581 384.036 270.427 384.988ZM270.203 388.012C270.203 388.698 270.777 389.104 271.645 389.104C273.017 389.104 274.053 388.026 274.053 386.752V386.402C270.889 386.43 270.203 387.102 270.203 388.012ZM278.214 384.47C278.214 386.542 283.044 384.834 283.044 387.9C283.044 389.286 281.812 390.168 280.062 390.168C278.298 390.168 277.066 389.328 276.786 387.578H278.018C278.186 388.614 278.956 389.188 280.104 389.188C281.224 389.188 281.812 388.684 281.812 387.984C281.812 385.954 277.038 387.634 277.038 384.554C277.038 383.42 277.92 382.384 279.74 382.384C281.35 382.384 282.54 383.14 282.778 384.988H281.546C281.364 383.826 280.72 383.392 279.67 383.392C278.746 383.392 278.214 383.854 278.214 384.47ZM284.509 381.572V379.92H285.741V381.572H284.509ZM284.509 390V382.566H285.741V390H284.509ZM287.695 390V379.92H288.927V390H287.695ZM291.216 393.248C290.936 393.248 290.642 393.178 290.488 393.136V392.184H290.866C291.776 392.184 292.028 392.002 292.756 390.336L293.008 389.762L289.97 382.566H291.3L293.316 387.48L293.652 388.474L293.988 387.48L295.948 382.566H297.208L293.736 390.98C292.994 392.772 292.504 393.248 291.216 393.248ZM301.234 387.858V383.546H300.198V382.566H301.234V380.858H302.466V382.566H304.104V383.546H302.466V387.858C302.466 388.754 302.732 389.174 303.824 389.174H304.076V390.056C303.936 390.126 303.628 390.168 303.278 390.168C301.892 390.168 301.234 389.426 301.234 387.858ZM305.277 390V379.92H306.509V383.574C307.013 382.79 307.825 382.384 308.805 382.384C310.387 382.384 311.325 383.308 311.325 385.03V390H310.093V385.282C310.093 384.162 309.589 383.434 308.469 383.434C307.237 383.434 306.509 384.54 306.509 385.604V390H305.277ZM313.289 390V382.566H314.521V383.714C315.025 382.804 315.823 382.384 316.719 382.384C317.013 382.384 317.279 382.454 317.419 382.566V383.672C317.209 383.602 316.943 383.574 316.649 383.574C315.165 383.574 314.521 384.498 314.521 385.842V390H313.289ZM321.399 390.168C319.271 390.168 317.997 388.712 317.997 386.29C317.997 383.77 319.313 382.384 321.399 382.384C323.527 382.384 324.801 383.868 324.801 386.29C324.801 388.796 323.485 390.168 321.399 390.168ZM321.399 389.104C322.785 389.104 323.541 388.11 323.541 386.29C323.541 384.484 322.771 383.448 321.399 383.448C320.013 383.448 319.257 384.456 319.257 386.29C319.257 388.082 320.027 389.104 321.399 389.104ZM331.118 386.962V382.566H332.35V390H331.118V388.992C330.614 389.776 329.83 390.168 328.864 390.168C327.31 390.168 326.386 389.258 326.386 387.536V382.566H327.618V387.284C327.618 388.404 328.108 389.118 329.2 389.118C330.404 389.118 331.118 388.026 331.118 386.962ZM336.962 390.056C335.072 390.056 333.938 388.614 333.938 386.234C333.938 383.742 335.1 382.384 336.962 382.384C337.956 382.384 338.698 382.734 339.188 383.378V382.566H340.42V390.224C340.42 392.296 339.09 393.262 337.382 393.262C335.632 393.262 334.4 392.422 334.134 390.728H335.366C335.52 391.708 336.29 392.24 337.368 392.24C338.46 392.24 339.188 391.652 339.188 390.266V388.992C338.67 389.692 337.914 390.056 336.962 390.056ZM337.186 388.992C338.488 388.992 339.188 388.012 339.188 386.22C339.188 384.47 338.46 383.448 337.186 383.448C335.898 383.448 335.198 384.428 335.198 386.234C335.198 387.984 335.912 388.992 337.186 388.992ZM342.396 390V379.92H343.628V383.574C344.132 382.79 344.944 382.384 345.924 382.384C347.506 382.384 348.444 383.308 348.444 385.03V390H347.212V385.282C347.212 384.162 346.708 383.434 345.588 383.434C344.356 383.434 343.628 384.54 343.628 385.604V390H342.396ZM26.004 412.168C23.876 412.168 22.602 410.712 22.602 408.29C22.602 405.77 23.918 404.384 26.004 404.384C28.132 404.384 29.406 405.868 29.406 408.29C29.406 410.796 28.09 412.168 26.004 412.168ZM26.004 411.104C27.39 411.104 28.146 410.11 28.146 408.29C28.146 406.484 27.376 405.448 26.004 405.448C24.618 405.448 23.862 406.456 23.862 408.29C23.862 410.082 24.632 411.104 26.004 411.104ZM35.7237 408.962V404.566H36.9557V412H35.7237V410.992C35.2197 411.776 34.4357 412.168 33.4697 412.168C31.9157 412.168 30.9917 411.258 30.9917 409.536V404.566H32.2237V409.284C32.2237 410.404 32.7137 411.118 33.8057 411.118C35.0097 411.118 35.7237 410.026 35.7237 408.962ZM38.9214 412V404.566H40.1534V405.714C40.6574 404.804 41.4554 404.384 42.3514 404.384C42.6454 404.384 42.9114 404.454 43.0514 404.566V405.672C42.8414 405.602 42.5754 405.574 42.2814 405.574C40.7974 405.574 40.1534 406.498 40.1534 407.842V412H38.9214ZM51.6788 408.962V404.566H52.9108V412H51.6788V410.992C51.1748 411.776 50.3908 412.168 49.4248 412.168C47.8708 412.168 46.9468 411.258 46.9468 409.536V404.566H48.1788V409.284C48.1788 410.404 48.6688 411.118 49.7608 411.118C50.9648 411.118 51.6788 410.026 51.6788 408.962ZM55.7865 406.47C55.7865 408.542 60.6165 406.834 60.6165 409.9C60.6165 411.286 59.3845 412.168 57.6345 412.168C55.8705 412.168 54.6385 411.328 54.3585 409.578H55.5905C55.7585 410.614 56.5285 411.188 57.6765 411.188C58.7965 411.188 59.3845 410.684 59.3845 409.984C59.3845 407.954 54.6105 409.634 54.6105 406.554C54.6105 405.42 55.4925 404.384 57.3125 404.384C58.9225 404.384 60.1125 405.14 60.3505 406.988H59.1185C58.9365 405.826 58.2925 405.392 57.2425 405.392C56.3185 405.392 55.7865 405.854 55.7865 406.47ZM68.5076 409.578C68.1016 411.314 66.8556 412.168 65.1616 412.168C63.0056 412.168 61.7036 410.712 61.7036 408.29C61.7036 405.77 63.0056 404.384 65.0916 404.384C67.1916 404.384 68.4516 405.826 68.4516 408.192V408.5H62.9636C63.0336 410.166 63.8176 411.104 65.1616 411.104C66.2116 411.104 66.9536 410.6 67.2196 409.578H68.5076ZM65.0916 405.448C63.9016 405.448 63.1876 406.19 63.0056 407.576H67.1636C66.9956 406.204 66.2536 405.448 65.0916 405.448ZM70.0933 412V404.566H71.3253V405.714C71.8293 404.804 72.6273 404.384 73.5233 404.384C73.8173 404.384 74.0833 404.454 74.2233 404.566V405.672C74.0133 405.602 73.7473 405.574 73.4533 405.574C71.9693 405.574 71.3253 406.498 71.3253 407.842V412H70.0933ZM74.5907 408.71V407.66H78.3147V408.71H74.5907ZM79.3552 405.546V404.566H80.3912V404.062C80.3912 402.494 81.0352 401.752 82.4072 401.752C82.7152 401.752 82.9672 401.808 83.0932 401.864V402.746H82.9672C81.8892 402.746 81.6232 403.166 81.6232 404.062V404.566H83.0932V405.546H81.6232V412H80.3912V405.546H79.3552ZM84.0796 412V404.566H85.3116V405.714C85.8156 404.804 86.6136 404.384 87.5096 404.384C87.8036 404.384 88.0696 404.454 88.2096 404.566V405.672C87.9996 405.602 87.7336 405.574 87.4396 405.574C85.9556 405.574 85.3116 406.498 85.3116 407.842V412H84.0796ZM89.3023 403.572V401.92H90.5343V403.572H89.3023ZM89.3023 412V404.566H90.5343V412H89.3023ZM98.9138 409.578C98.5078 411.314 97.2618 412.168 95.5678 412.168C93.4118 412.168 92.1098 410.712 92.1098 408.29C92.1098 405.77 93.4118 404.384 95.4978 404.384C97.5978 404.384 98.8578 405.826 98.8578 408.192V408.5H93.3698C93.4398 410.166 94.2238 411.104 95.5678 411.104C96.6178 411.104 97.3598 410.6 97.6258 409.578H98.9138ZM95.4978 405.448C94.3078 405.448 93.5938 406.19 93.4118 407.576H97.5698C97.4018 406.204 96.6598 405.448 95.4978 405.448ZM100.5 412V404.566H101.732V405.574C102.236 404.79 103.048 404.384 104.028 404.384C105.61 404.384 106.548 405.308 106.548 407.03V412H105.316V407.282C105.316 406.162 104.812 405.434 103.692 405.434C102.46 405.434 101.732 406.54 101.732 407.604V412H100.5ZM111.297 412.168C109.323 412.168 108.133 410.712 108.133 408.29C108.133 405.77 109.351 404.384 111.297 404.384C112.179 404.384 112.893 404.748 113.383 405.434V401.92H114.615V412H113.383V411.062C112.893 411.762 112.179 412.168 111.297 412.168ZM111.381 411.104C112.683 411.104 113.383 410.11 113.383 408.29C113.383 406.484 112.655 405.448 111.381 405.448C110.093 405.448 109.393 406.456 109.393 408.29C109.393 410.082 110.121 411.104 111.381 411.104ZM116.578 412V401.92H117.81V412H116.578ZM120.099 415.248C119.819 415.248 119.525 415.178 119.371 415.136V414.184H119.749C120.659 414.184 120.911 414.002 121.639 412.336L121.891 411.762L118.853 404.566H120.183L122.199 409.48L122.535 410.474L122.871 409.48L124.831 404.566H126.091L122.619 412.98C121.877 414.772 121.387 415.248 120.099 415.248ZM131.083 406.988H129.851C130.089 405.35 131.167 404.384 132.987 404.384C134.975 404.384 135.941 405.546 135.941 407.282V410.208C135.941 411.062 136.011 411.594 136.207 412H134.905C134.765 411.706 134.723 411.272 134.709 410.824C134.079 411.762 133.071 412.168 132.175 412.168C130.635 412.168 129.599 411.454 129.599 410.04C129.599 409.018 130.159 408.276 131.251 407.912C132.259 407.576 133.281 407.492 134.709 407.478V407.31C134.709 406.106 134.149 405.448 132.875 405.448C131.811 405.448 131.237 406.036 131.083 406.988ZM130.859 410.012C130.859 410.698 131.433 411.104 132.301 411.104C133.673 411.104 134.709 410.026 134.709 408.752V408.402C131.545 408.43 130.859 409.102 130.859 410.012ZM139.206 415.08H137.974V404.566H139.206V405.49C139.696 404.79 140.41 404.384 141.292 404.384C143.266 404.384 144.456 405.84 144.456 408.262C144.456 410.782 143.238 412.168 141.292 412.168C140.41 412.168 139.696 411.804 139.206 411.118V415.08ZM141.208 405.448C139.906 405.448 139.206 406.442 139.206 408.262C139.206 410.068 139.934 411.104 141.208 411.104C142.496 411.104 143.196 410.096 143.196 408.262C143.196 406.47 142.468 405.448 141.208 405.448ZM147.287 415.08H146.055V404.566H147.287V405.49C147.777 404.79 148.491 404.384 149.373 404.384C151.347 404.384 152.537 405.84 152.537 408.262C152.537 410.782 151.319 412.168 149.373 412.168C148.491 412.168 147.777 411.804 147.287 411.118V415.08ZM149.289 405.448C147.987 405.448 147.287 406.442 147.287 408.262C147.287 410.068 148.015 411.104 149.289 411.104C150.577 411.104 151.277 410.096 151.277 408.262C151.277 406.47 150.549 405.448 149.289 405.448Z" fill="#595959"/>
<path d="M67.6824 87.8221H66.5989L68.5716 82.2187H69.8247L71.8002 87.8221H70.7167L69.2201 83.3679H69.1763L67.6824 87.8221ZM67.718 85.6251H70.6729V86.4404H67.718V85.6251ZM75.218 83.7591C75.1924 83.5202 75.0848 83.3341 74.8951 83.201C74.7072 83.0678 74.4628 83.0012 74.1619 83.0012C73.9503 83.0012 73.7688 83.0332 73.6174 83.097C73.466 83.1608 73.3502 83.2475 73.2699 83.3569C73.1896 83.4664 73.1486 83.5913 73.1468 83.7318C73.1468 83.8485 73.1732 83.9497 73.2261 84.0355C73.2808 84.1212 73.3547 84.1942 73.4477 84.2543C73.5408 84.3127 73.6438 84.362 73.7569 84.4021C73.87 84.4422 73.984 84.476 74.0989 84.5033L74.6242 84.6347C74.8358 84.6839 75.0392 84.7505 75.2344 84.8344C75.4314 84.9183 75.6074 85.0241 75.7624 85.1518C75.9193 85.2794 76.0433 85.4336 76.1345 85.6142C76.2257 85.7947 76.2713 86.0063 76.2713 86.2489C76.2713 86.5772 76.1874 86.8664 76.0196 87.1162C75.8518 87.3643 75.6092 87.5586 75.2918 87.699C74.9763 87.8376 74.5942 87.907 74.1454 87.907C73.7095 87.907 73.331 87.8395 73.01 87.7045C72.6908 87.5695 72.4409 87.3725 72.2603 87.1135C72.0816 86.8545 71.9849 86.5389 71.9703 86.1668H72.9689C72.9835 86.362 73.0437 86.5243 73.1495 86.6539C73.2553 86.7834 73.393 86.88 73.5627 86.9439C73.7341 87.0077 73.9256 87.0396 74.1372 87.0396C74.3579 87.0396 74.5513 87.0068 74.7173 86.9411C74.8851 86.8736 75.0164 86.7806 75.1113 86.6621C75.2061 86.5417 75.2544 86.4012 75.2563 86.2407C75.2544 86.0948 75.2116 85.9744 75.1277 85.8796C75.0438 85.7829 74.9261 85.7026 74.7747 85.6388C74.6252 85.5731 74.4501 85.5147 74.2494 85.4637L73.6119 85.2995C73.1504 85.1809 72.7856 85.0013 72.5175 84.7605C72.2512 84.5179 72.118 84.196 72.118 83.7947C72.118 83.4645 72.2074 83.1754 72.3862 82.9274C72.5667 82.6793 72.8121 82.4869 73.1222 82.3501C73.4322 82.2114 73.7834 82.1421 74.1755 82.1421C74.5732 82.1421 74.9216 82.2114 75.2207 82.3501C75.5217 82.4869 75.7579 82.6775 75.9293 82.9219C76.1008 83.1645 76.1893 83.4436 76.1947 83.7591H75.218ZM79.9463 83.7591C79.9208 83.5202 79.8132 83.3341 79.6235 83.201C79.4356 83.0678 79.1912 83.0012 78.8902 83.0012C78.6786 83.0012 78.4971 83.0332 78.3458 83.097C78.1944 83.1608 78.0785 83.2475 77.9983 83.3569C77.918 83.4664 77.877 83.5913 77.8752 83.7318C77.8752 83.8485 77.9016 83.9497 77.9545 84.0355C78.0092 84.1212 78.0831 84.1942 78.1761 84.2543C78.2691 84.3127 78.3722 84.362 78.4853 84.4021C78.5984 84.4422 78.7124 84.476 78.8273 84.5033L79.3526 84.6347C79.5642 84.6839 79.7676 84.7505 79.9628 84.8344C80.1598 84.9183 80.3358 85.0241 80.4908 85.1518C80.6477 85.2794 80.7717 85.4336 80.8629 85.6142C80.9541 85.7947 80.9997 86.0063 80.9997 86.2489C80.9997 86.5772 80.9158 86.8664 80.748 87.1162C80.5802 87.3643 80.3376 87.5586 80.0202 87.699C79.7047 87.8376 79.3225 87.907 78.8738 87.907C78.4379 87.907 78.0594 87.8395 77.7384 87.7045C77.4191 87.5695 77.1693 87.3725 76.9887 87.1135C76.8099 86.8545 76.7132 86.5389 76.6987 86.1668H77.6973C77.7119 86.362 77.7721 86.5243 77.8779 86.6539C77.9837 86.7834 78.1214 86.88 78.291 86.9439C78.4625 87.0077 78.654 87.0396 78.8656 87.0396C79.0863 87.0396 79.2797 87.0068 79.4456 86.9411C79.6135 86.8736 79.7448 86.7806 79.8396 86.6621C79.9345 86.5417 79.9828 86.4012 79.9846 86.2407C79.9828 86.0948 79.94 85.9744 79.8561 85.8796C79.7721 85.7829 79.6545 85.7026 79.5031 85.6388C79.3535 85.5731 79.1784 85.5147 78.9778 85.4637L78.3403 85.2995C77.8788 85.1809 77.514 85.0013 77.2459 84.7605C76.9796 84.5179 76.8464 84.196 76.8464 83.7947C76.8464 83.4645 76.9358 83.1754 77.1145 82.9274C77.2951 82.6793 77.5404 82.4869 77.8505 82.3501C78.1606 82.2114 78.5117 82.1421 78.9039 82.1421C79.3015 82.1421 79.6499 82.2114 79.9491 82.3501C80.25 82.4869 80.4863 82.6775 80.6577 82.9219C80.8292 83.1645 80.9176 83.4436 80.9231 83.7591H79.9463ZM81.6295 87.8221V82.2187H85.2739V83.0696H82.6446V84.5909H85.0851V85.4418H82.6446V86.9712H85.2958V87.8221H81.6295ZM85.7881 83.0696V82.2187H90.2588V83.0696H88.5269V87.8221H87.52V83.0696H85.7881ZM96.2353 84.0081C96.1897 83.8604 96.1267 83.7281 96.0465 83.6114C95.9681 83.4928 95.8732 83.3916 95.7619 83.3077C95.6525 83.2238 95.5266 83.1608 95.3844 83.1189C95.2421 83.0751 95.087 83.0532 94.9192 83.0532C94.6183 83.0532 94.3501 83.1289 94.1148 83.2803C93.8795 83.4317 93.6944 83.6542 93.5594 83.9479C93.4263 84.2398 93.3597 84.5954 93.3597 85.015C93.3597 85.4381 93.4263 85.7966 93.5594 86.0902C93.6926 86.3839 93.8777 86.6073 94.1148 86.7606C94.352 86.912 94.6274 86.9877 94.9411 86.9877C95.2257 86.9877 95.4719 86.9329 95.6799 86.8235C95.8896 86.714 96.051 86.559 96.1641 86.3584C96.2772 86.1559 96.3338 85.9188 96.3338 85.647L96.5636 85.6826H95.0424V84.8891H97.316V85.5622C97.316 86.0419 97.2139 86.4569 97.0096 86.8071C96.8053 87.1573 96.5244 87.4272 96.1669 87.6169C95.8094 87.8048 95.399 87.8988 94.9357 87.8988C94.4195 87.8988 93.9662 87.7829 93.5758 87.5513C93.1873 87.3178 92.8836 86.9867 92.6647 86.5581C92.4477 86.1276 92.3391 85.6169 92.3391 85.0259C92.3391 84.5735 92.403 84.1695 92.5307 83.8138C92.6602 83.4582 92.8408 83.1563 93.0724 82.9082C93.3041 82.6583 93.5758 82.4686 93.8878 82.3391C94.1997 82.2078 94.5389 82.1421 94.9056 82.1421C95.2156 82.1421 95.5048 82.1877 95.7729 82.2789C96.041 82.3683 96.2791 82.496 96.487 82.662C96.6968 82.828 96.8691 83.0249 97.0041 83.253C97.1391 83.481 97.2275 83.7327 97.2695 84.0081H96.2353ZM98.0224 87.8221V82.2187H101.667V83.0696H99.0375V84.5909H101.478V85.4418H99.0375V86.9712H101.689V87.8221H98.0224ZM107.032 82.2187V87.8221H106.129L103.489 84.0054H103.442V87.8221H102.427V82.2187H103.336L105.973 86.0382H106.022V82.2187H107.032ZM107.863 87.8221V82.2187H111.507V83.0696H108.878V84.5909H111.318V85.4418H108.878V86.9712H111.529V87.8221H107.863ZM112.268 87.8221V82.2187H114.369C114.799 82.2187 115.161 82.2935 115.452 82.4431C115.746 82.5927 115.968 82.8024 116.117 83.0724C116.269 83.3405 116.344 83.6533 116.344 84.0108C116.344 84.3702 116.268 84.6821 116.115 84.9466C115.963 85.2092 115.74 85.4126 115.444 85.5567C115.149 85.699 114.786 85.7701 114.355 85.7701H112.859V84.9274H114.219C114.47 84.9274 114.676 84.8928 114.837 84.8234C114.997 84.7523 115.116 84.6492 115.193 84.5143C115.271 84.3775 115.31 84.2097 115.31 84.0108C115.31 83.812 115.271 83.6424 115.193 83.5019C115.114 83.3597 114.995 83.252 114.834 83.1791C114.674 83.1043 114.467 83.0669 114.213 83.0669H113.283V87.8221H112.268ZM115.162 85.2831L116.55 87.8221H115.417L114.054 85.2831H115.162ZM117.723 87.8221H116.64L118.612 82.2187H119.866L121.841 87.8221H120.757L119.261 83.3679H119.217L117.723 87.8221ZM117.759 85.6251H120.714V86.4404H117.759V85.6251ZM121.38 83.0696V82.2187H125.851V83.0696H124.119V87.8221H123.112V83.0696H121.38ZM126.438 87.8221V82.2187H130.082V83.0696H127.453V84.5909H129.893V85.4418H127.453V86.9712H130.104V87.8221H126.438ZM132.741 87.8221H130.843V82.2187H132.78C133.336 82.2187 133.814 82.3309 134.213 82.5553C134.615 82.7778 134.923 83.0979 135.138 83.5156C135.353 83.9333 135.461 84.4331 135.461 85.015C135.461 85.5987 135.353 86.1003 135.135 86.5198C134.92 86.9393 134.609 87.2613 134.202 87.4856C133.798 87.71 133.311 87.8221 132.741 87.8221ZM131.858 86.9439H132.692C133.083 86.9439 133.408 86.8727 133.669 86.7305C133.93 86.5864 134.126 86.372 134.257 86.0875C134.389 85.8011 134.454 85.4436 134.454 85.015C134.454 84.5863 134.389 84.2306 134.257 83.9479C134.126 83.6634 133.932 83.4509 133.674 83.3104C133.419 83.1681 133.102 83.097 132.722 83.097H131.858V86.9439Z" fill="#7A7A7A"/>
<path d="M75.9316 112.57V131.782H72.4513V115.957H72.3388L67.8454 118.827V115.638L72.6202 112.57H75.9316ZM79.7089 131.782V129.268L86.3786 122.729C87.0165 122.085 87.548 121.513 87.9733 121.013C88.3986 120.512 88.7175 120.028 88.9301 119.559C89.1428 119.09 89.2491 118.589 89.2491 118.058C89.2491 117.451 89.1115 116.932 88.8363 116.501C88.5612 116.063 88.1828 115.725 87.7013 115.488C87.2197 115.25 86.6725 115.131 86.0596 115.131C85.428 115.131 84.8745 115.262 84.3993 115.525C83.924 115.781 83.555 116.147 83.2923 116.623C83.0359 117.098 82.9077 117.664 82.9077 118.321H79.5963C79.5963 117.101 79.8746 116.041 80.4312 115.14C80.9878 114.24 81.7539 113.543 82.7295 113.049C83.7113 112.555 84.837 112.307 86.1065 112.307C87.3948 112.307 88.5268 112.548 89.5024 113.03C90.478 113.511 91.2347 114.171 91.7725 115.009C92.3166 115.847 92.5886 116.804 92.5886 117.88C92.5886 118.599 92.451 119.306 92.1759 120C91.9007 120.694 91.416 121.463 90.7219 122.307C90.0339 123.152 89.0677 124.174 87.8232 125.375L84.5118 128.743V128.874H92.8794V131.782H79.7089ZM101.844 132.045C100.45 132.045 99.2114 131.81 98.1295 131.341C97.0538 130.872 96.2096 130.231 95.5967 129.418C94.9901 128.599 94.6899 127.67 94.6962 126.632C94.6899 125.825 94.865 125.084 95.2215 124.409C95.5779 123.733 96.0595 123.17 96.6661 122.72C97.279 122.264 97.9606 121.973 98.7111 121.848V121.716C97.723 121.497 96.9225 120.994 96.3096 120.206C95.703 119.412 95.4028 118.496 95.4091 117.458C95.4028 116.469 95.678 115.588 96.2346 114.812C96.7912 114.037 97.5541 113.427 98.5235 112.983C99.4928 112.533 100.6 112.307 101.844 112.307C103.076 112.307 104.174 112.533 105.137 112.983C106.106 113.427 106.869 114.037 107.426 114.812C107.989 115.588 108.27 116.469 108.27 117.458C108.27 118.496 107.96 119.412 107.341 120.206C106.728 120.994 105.937 121.497 104.968 121.716V121.848C105.719 121.973 106.394 122.264 106.994 122.72C107.601 123.17 108.082 123.733 108.439 124.409C108.802 125.084 108.983 125.825 108.983 126.632C108.983 127.67 108.677 128.599 108.064 129.418C107.451 130.231 106.607 130.872 105.531 131.341C104.461 131.81 103.233 132.045 101.844 132.045ZM101.844 129.362C102.563 129.362 103.189 129.24 103.72 128.996C104.252 128.746 104.665 128.395 104.959 127.945C105.253 127.495 105.403 126.976 105.409 126.388C105.403 125.775 105.243 125.234 104.931 124.765C104.624 124.29 104.202 123.918 103.664 123.649C103.133 123.38 102.526 123.245 101.844 123.245C101.156 123.245 100.543 123.38 100.006 123.649C99.4678 123.918 99.0426 124.29 98.7299 124.765C98.4234 125.234 98.2733 125.775 98.2796 126.388C98.2733 126.976 98.4172 127.495 98.7111 127.945C99.005 128.389 99.4178 128.736 99.9494 128.986C100.487 129.237 101.119 129.362 101.844 129.362ZM101.844 120.609C102.432 120.609 102.951 120.491 103.401 120.253C103.858 120.015 104.218 119.684 104.48 119.259C104.743 118.833 104.877 118.342 104.884 117.786C104.877 117.235 104.746 116.754 104.49 116.341C104.233 115.922 103.877 115.6 103.42 115.375C102.964 115.144 102.438 115.028 101.844 115.028C101.238 115.028 100.703 115.144 100.24 115.375C99.7836 115.6 99.4272 115.922 99.1708 116.341C98.9206 116.754 98.7987 117.235 98.8049 117.786C98.7987 118.342 98.9237 118.833 99.1801 119.259C99.4428 119.678 99.8024 120.009 100.259 120.253C100.722 120.491 101.25 120.609 101.844 120.609ZM114.423 129.155L114.301 130.187C114.214 130.975 114.057 131.776 113.832 132.589C113.613 133.408 113.382 134.161 113.138 134.849C112.894 135.537 112.697 136.078 112.547 136.472H110.258C110.346 136.091 110.464 135.572 110.614 134.915C110.771 134.258 110.921 133.52 111.065 132.701C111.209 131.882 111.306 131.05 111.356 130.206L111.421 129.155H114.423ZM117.173 131.782L125.344 115.609V115.478H115.86V112.57H128.946V115.544L120.785 131.782H117.173ZM131.061 131.782V112.57H134.541V121.397H134.775L142.27 112.57H146.52L139.09 121.191L146.586 131.782H142.402L136.67 123.546L134.541 126.06V131.782H131.061Z" fill="#242424"/>
<mask id="mask0_1040_14995" style="mask-type:alpha" maskUnits="userSpaceOnUse" x="66" y="122" width="278" height="204">
<line x1="84.1491" y1="122.373" x2="84.1491" y2="325.997" stroke="black" stroke-width="0.825503"/>
<path d="M85.9377 122.373L85.9377 325.997" stroke="black" stroke-width="0.825503"/>
<path d="M88.1388 122.373L88.1388 325.997" stroke="black" stroke-width="0.825503"/>
<path d="M90.34 122.373L90.34 325.997" stroke="black" stroke-width="0.825503"/>
<path d="M92.5412 122.373L92.5412 325.997" stroke="black" stroke-width="0.825503"/>
<path d="M94.7423 122.373L94.7423 325.997" stroke="black" stroke-width="0.825503"/>
<path d="M96.9435 122.373L96.9435 325.997" stroke="black" stroke-width="0.825503"/>
<path d="M99.1447 122.373L99.1447 325.997" stroke="black" stroke-width="0.825503"/>
<path d="M101.346 122.373L101.346 325.997" stroke="black" stroke-width="0.825503"/>
<path d="M103.547 122.373L103.547 325.997" stroke="black" stroke-width="0.825503"/>
<path d="M105.748 122.373L105.748 325.997" stroke="black" stroke-width="0.825503"/>
<path d="M107.951 122.373L107.951 325.997" stroke="black" stroke-width="0.825503"/>
<path d="M110.152 122.373L110.152 325.997" stroke="black" stroke-width="0.825503"/>
<path d="M112.354 122.373L112.354 325.997" stroke="black" stroke-width="0.825503"/>
<path d="M114.555 122.373L114.555 325.997" stroke="black" stroke-width="0.825503"/>
<path d="M116.756 122.373L116.756 325.997" stroke="black" stroke-width="0.825503"/>
<path d="M118.957 122.373L118.957 325.997" stroke="black" stroke-width="0.825503"/>
<path d="M121.158 122.373L121.158 325.997" stroke="black" stroke-width="0.825503"/>
<path d="M123.359 122.373L123.359 325.997" stroke="black" stroke-width="0.825503"/>
<path d="M125.561 122.373L125.561 325.997" stroke="black" stroke-width="0.825503"/>
<path d="M127.762 122.373L127.762 325.997" stroke="black" stroke-width="0.825503"/>
<path d="M129.963 122.373V325.997" stroke="black" stroke-width="0.825503"/>
<path d="M132.166 122.373V325.997" stroke="black" stroke-width="0.825503"/>
<path d="M134.367 122.373V325.997" stroke="black" stroke-width="0.825503"/>
<path d="M136.569 122.373V325.997" stroke="black" stroke-width="0.825503"/>
<path d="M138.77 122.373V325.997" stroke="black" stroke-width="0.825503"/>
<path d="M140.971 122.373V325.997" stroke="black" stroke-width="0.825503"/>
<path d="M143.172 122.373V325.997" stroke="black" stroke-width="0.825503"/>
<path d="M145.373 122.373V325.997" stroke="black" stroke-width="0.825503"/>
<path d="M147.574 122.373V325.997" stroke="black" stroke-width="0.825503"/>
<path d="M149.776 122.373V325.997" stroke="black" stroke-width="0.825503"/>
<path d="M151.977 122.373V325.997" stroke="black" stroke-width="0.825503"/>
<path d="M154.178 122.373V325.997" stroke="black" stroke-width="0.825503"/>
<path d="M156.379 122.373V325.997" stroke="black" stroke-width="0.825503"/>
<path d="M158.582 122.373V325.997" stroke="black" stroke-width="0.825503"/>
<path d="M160.783 122.373V325.997" stroke="black" stroke-width="0.825503"/>
<path d="M162.985 122.373V325.997" stroke="black" stroke-width="0.825503"/>
<path d="M165.186 122.373V325.997" stroke="black" stroke-width="0.825503"/>
<path d="M167.387 122.373V325.997" stroke="black" stroke-width="0.825503"/>
<path d="M169.588 122.373V325.997" stroke="black" stroke-width="0.825503"/>
<path d="M171.789 122.373V325.997" stroke="black" stroke-width="0.825503"/>
<path d="M173.99 122.373V325.997" stroke="black" stroke-width="0.825503"/>
<path d="M176.192 122.373V325.997" stroke="black" stroke-width="0.825503"/>
<path d="M178.393 122.373V325.997" stroke="black" stroke-width="0.825503"/>
<path d="M180.594 122.373V325.997" stroke="black" stroke-width="0.825503"/>
<path d="M182.797 122.373V325.997" stroke="black" stroke-width="0.825503"/>
<path d="M184.998 122.373V325.997" stroke="black" stroke-width="0.825503"/>
<path d="M187.199 122.373V325.997" stroke="black" stroke-width="0.825503"/>
<path d="M189.401 122.373V325.997" stroke="black" stroke-width="0.825503"/>
<path d="M191.602 122.373V325.997" stroke="black" stroke-width="0.825503"/>
<path d="M193.803 122.373V325.997" stroke="black" stroke-width="0.825503"/>
<path d="M196.004 122.373V325.997" stroke="black" stroke-width="0.825503"/>
<path d="M198.205 122.373V325.997" stroke="black" stroke-width="0.825503"/>
<path d="M200.406 122.373V325.997" stroke="black" stroke-width="0.825503"/>
<path d="M202.608 122.373V325.997" stroke="black" stroke-width="0.825503"/>
<path d="M204.809 122.373V325.997" stroke="black" stroke-width="0.825503"/>
<path d="M207.01 122.373V325.997" stroke="black" stroke-width="0.825503"/>
<path d="M209.213 122.373V325.997" stroke="black" stroke-width="0.825503"/>
<path d="M211.414 122.373V325.997" stroke="black" stroke-width="0.825503"/>
<path d="M213.615 122.373V325.997" stroke="black" stroke-width="0.825503"/>
<path d="M215.817 122.373V325.997" stroke="black" stroke-width="0.825503"/>
<path d="M218.018 122.373V325.997" stroke="black" stroke-width="0.825503"/>
<path d="M220.219 122.373V325.997" stroke="black" stroke-width="0.825503"/>
<path d="M222.42 122.373V325.997" stroke="black" stroke-width="0.825503"/>
<path d="M224.621 122.373V325.997" stroke="black" stroke-width="0.825503"/>
<path d="M226.822 122.373V325.997" stroke="black" stroke-width="0.825503"/>
<path d="M229.024 122.373V325.997" stroke="black" stroke-width="0.825503"/>
<path d="M231.225 122.373V325.997" stroke="black" stroke-width="0.825503"/>
<path d="M233.426 122.373V325.997" stroke="black" stroke-width="0.825503"/>
<path d="M235.629 122.373V325.997" stroke="black" stroke-width="0.825503"/>
<path d="M237.83 122.373V325.997" stroke="black" stroke-width="0.825503"/>
<path d="M240.031 122.373V325.997" stroke="black" stroke-width="0.825503"/>
<path d="M242.233 122.373V325.997" stroke="black" stroke-width="0.825503"/>
<path d="M244.434 122.373V325.997" stroke="black" stroke-width="0.825503"/>
<path d="M246.635 122.373V325.997" stroke="black" stroke-width="0.825503"/>
<path d="M248.836 122.373V325.997" stroke="black" stroke-width="0.825503"/>
<path d="M251.037 122.373V325.997" stroke="black" stroke-width="0.825503"/>
<path d="M253.238 122.373V325.997" stroke="black" stroke-width="0.825503"/>
<path d="M255.44 122.373V325.997" stroke="black" stroke-width="0.825503"/>
<path d="M257.641 122.373V325.997" stroke="black" stroke-width="0.825503"/>
<path d="M259.844 122.373V325.997" stroke="black" stroke-width="0.825503"/>
<path d="M262.045 122.373V325.997" stroke="black" stroke-width="0.825503"/>
<path d="M264.246 122.373V325.997" stroke="black" stroke-width="0.825503"/>
<path d="M266.447 122.373V325.997" stroke="black" stroke-width="0.825503"/>
<path d="M268.649 122.373V325.997" stroke="black" stroke-width="0.825503"/>
<path d="M270.85 122.373V325.997" stroke="black" stroke-width="0.825503"/>
<path d="M273.051 122.373V325.997" stroke="black" stroke-width="0.825503"/>
<path d="M275.252 122.373V325.997" stroke="black" stroke-width="0.825503"/>
<path d="M277.453 122.373V325.997" stroke="black" stroke-width="0.825503"/>
<path d="M279.654 122.373V325.997" stroke="black" stroke-width="0.825503"/>
<path d="M281.856 122.373V325.997" stroke="black" stroke-width="0.825503"/>
<path d="M284.057 122.373V325.997" stroke="black" stroke-width="0.825503"/>
<path d="M286.26 122.373V325.997" stroke="black" stroke-width="0.825503"/>
<path d="M288.461 122.373V325.997" stroke="black" stroke-width="0.825503"/>
<path d="M290.662 122.373V325.997" stroke="black" stroke-width="0.825503"/>
<path d="M292.863 122.373V325.997" stroke="black" stroke-width="0.825503"/>
<path d="M295.065 122.373V325.997" stroke="black" stroke-width="0.825503"/>
<path d="M297.266 122.373V325.997" stroke="black" stroke-width="0.825503"/>
<path d="M299.467 122.373V325.997" stroke="black" stroke-width="0.825503"/>
<path d="M301.668 122.373V325.997" stroke="black" stroke-width="0.825503"/>
<path d="M303.869 122.373V325.997" stroke="black" stroke-width="0.825503"/>
<path d="M306.07 122.373V325.997" stroke="black" stroke-width="0.825503"/>
<path d="M308.272 122.373V325.997" stroke="black" stroke-width="0.825503"/>
<path d="M310.473 122.373V325.997" stroke="black" stroke-width="0.825503"/>
<path d="M312.676 122.373V325.997" stroke="black" stroke-width="0.825503"/>
<path d="M314.877 122.373V325.997" stroke="black" stroke-width="0.825503"/>
<path d="M317.078 122.373V325.997" stroke="black" stroke-width="0.825503"/>
<path d="M319.279 122.373V325.997" stroke="black" stroke-width="0.825503"/>
<path d="M321.481 122.373V325.997" stroke="black" stroke-width="0.825503"/>
<path d="M323.682 122.373V325.997" stroke="black" stroke-width="0.825503"/>
<path d="M325.883 122.373V325.997" stroke="black" stroke-width="0.825503"/>
</mask>
<g mask="url(#mask0_1040_14995)">
<path d="M138.126 215.654C128.259 215.379 70.082 268.487 70.082 268.487V290.775C70.082 293.207 72.0532 295.178 74.4847 295.178H342.958C345.389 295.178 347.361 293.207 347.361 290.775V153.191C347.361 153.191 288.843 204.648 283.74 206.023C278.636 207.399 230.665 204.648 222.16 206.023C213.654 207.399 202.767 228.257 194.262 228.862C185.757 229.468 163.302 228.862 159.219 228.862C155.137 228.862 147.992 215.93 138.126 215.654Z" fill="url(#paint0_linear_1040_14995)"/>
<path d="M136.766 215.654C126.9 215.379 68.7227 268.487 68.7227 268.487V290.775C68.7227 293.207 70.6938 295.178 73.1253 295.178H341.599C344.03 295.178 346.001 293.207 346.001 290.775V153.191C346.001 153.191 287.484 204.648 282.38 206.023C277.277 207.399 229.306 204.648 220.801 206.023C212.295 207.399 201.408 228.257 192.903 228.862C184.397 229.468 161.943 228.862 157.86 228.862C153.777 228.862 146.633 215.93 136.766 215.654Z" fill="url(#paint1_linear_1040_14995)"/>
</g>
<path d="M68.7227 268.487C68.7227 268.487 126.9 215.379 136.766 215.654C146.633 215.93 153.777 228.862 157.86 228.862C161.943 228.862 184.397 229.468 192.903 228.862C201.408 228.257 212.295 207.399 220.801 206.024C229.306 204.648 277.277 207.399 282.38 206.024C287.484 204.648 346.001 153.191 346.001 153.191" stroke="#3C76E1" stroke-width="1.65101" stroke-linecap="round"/>
<path d="M254.482 208.5C256.268 208.5 258.029 207.3 258.029 205.473C258.029 203.647 256.268 202.446 254.482 202.446C252.695 202.446 250.934 203.647 250.934 205.473C250.934 207.3 252.695 208.5 254.482 208.5Z" fill="white" stroke="url(#paint2_linear_1040_14995)" stroke-width="1.65101"/>
<path d="M68.169 159.692V154.689H68.4895V159.692H68.169ZM69.1715 156.24C69.1507 156.055 69.0647 155.912 68.9136 155.81C68.7624 155.707 68.5722 155.656 68.3429 155.656C68.1787 155.656 68.0367 155.682 67.9168 155.734C67.797 155.785 67.7038 155.855 67.6374 155.945C67.5722 156.034 67.5397 156.135 67.5397 156.248C67.5397 156.343 67.5618 156.425 67.6061 156.494C67.6517 156.563 67.711 156.621 67.784 156.668C67.8582 156.714 67.9377 156.752 68.0224 156.784C68.1071 156.814 68.1885 156.838 68.2667 156.858L68.6575 156.959C68.7852 156.991 68.9162 157.033 69.0504 157.086C69.1846 157.14 69.309 157.21 69.4236 157.298C69.5383 157.385 69.6308 157.493 69.7011 157.622C69.7728 157.751 69.8086 157.905 69.8086 158.085C69.8086 158.312 69.75 158.513 69.6327 158.689C69.5168 158.865 69.3481 159.004 69.1266 159.105C68.9064 159.207 68.6399 159.258 68.3273 159.258C68.0276 159.258 67.7683 159.21 67.5494 159.115C67.3306 159.02 67.1592 158.885 67.0355 158.711C66.9117 158.535 66.8433 158.326 66.8302 158.085H67.4361C67.4478 158.23 67.4947 158.35 67.5768 158.447C67.6602 158.542 67.7664 158.613 67.8954 158.66C68.0256 158.705 68.1683 158.728 68.3233 158.728C68.494 158.728 68.6458 158.701 68.7787 158.648C68.9129 158.593 69.0184 158.518 69.0953 158.421C69.1722 158.324 69.2106 158.21 69.2106 158.079C69.2106 157.961 69.1767 157.864 69.109 157.788C69.0425 157.713 68.952 157.65 68.8373 157.6C68.724 157.551 68.5956 157.507 68.4523 157.47L67.9794 157.341C67.6589 157.253 67.4048 157.125 67.2172 156.956C67.0309 156.786 66.9377 156.562 66.9377 156.283C66.9377 156.053 67.0003 155.851 67.1254 155.679C67.2504 155.507 67.4198 155.374 67.6335 155.279C67.8471 155.182 68.0882 155.134 68.3566 155.134C68.6276 155.134 68.8666 155.182 69.0738 155.277C69.2823 155.372 69.4464 155.503 69.5663 155.67C69.6862 155.835 69.7487 156.025 69.7539 156.24H69.1715ZM71.7189 155.189V159.191H71.113V155.795H71.0896L70.132 156.42V155.842L71.1306 155.189H71.7189ZM73.9198 159.258C73.611 159.256 73.3472 159.175 73.1283 159.013C72.9094 158.852 72.742 158.617 72.6261 158.308C72.5101 157.999 72.4521 157.627 72.4521 157.192C72.4521 156.758 72.5101 156.387 72.6261 156.08C72.7433 155.773 72.9114 155.538 73.1303 155.376C73.3505 155.215 73.6137 155.134 73.9198 155.134C74.226 155.134 74.4885 155.216 74.7074 155.378C74.9263 155.54 75.0937 155.774 75.2097 156.082C75.3269 156.388 75.3856 156.758 75.3856 157.192C75.3856 157.628 75.3276 158.001 75.2116 158.31C75.0957 158.617 74.9283 158.853 74.7094 159.015C74.4905 159.177 74.2273 159.258 73.9198 159.258ZM73.9198 158.736C74.1908 158.736 74.4025 158.604 74.555 158.339C74.7087 158.075 74.7856 157.692 74.7856 157.192C74.7856 156.86 74.7504 156.579 74.6801 156.35C74.611 156.119 74.5113 155.945 74.381 155.826C74.2521 155.706 74.0983 155.646 73.9198 155.646C73.6501 155.646 73.4384 155.779 73.2847 156.045C73.1309 156.311 73.0534 156.693 73.0521 157.192C73.0521 157.526 73.0866 157.808 73.1557 158.038C73.226 158.268 73.3257 158.441 73.4547 158.56C73.5837 158.677 73.7387 158.736 73.9198 158.736ZM77.1971 159.258C76.8883 159.256 76.6245 159.175 76.4056 159.013C76.1867 158.852 76.0193 158.617 75.9034 158.308C75.7874 157.999 75.7294 157.627 75.7294 157.192C75.7294 156.758 75.7874 156.387 75.9034 156.08C76.0206 155.773 76.1887 155.538 76.4076 155.376C76.6278 155.215 76.8909 155.134 77.1971 155.134C77.5033 155.134 77.7658 155.216 77.9847 155.378C78.2036 155.54 78.371 155.774 78.487 156.082C78.6042 156.388 78.6629 156.758 78.6629 157.192C78.6629 157.628 78.6049 158.001 78.4889 158.31C78.373 158.617 78.2055 158.853 77.9867 159.015C77.7678 159.177 77.5046 159.258 77.1971 159.258ZM77.1971 158.736C77.4681 158.736 77.6798 158.604 77.8323 158.339C77.986 158.075 78.0629 157.692 78.0629 157.192C78.0629 156.86 78.0277 156.579 77.9573 156.35C77.8883 156.119 77.7886 155.945 77.6583 155.826C77.5294 155.706 77.3756 155.646 77.1971 155.646C76.9274 155.646 76.7157 155.779 76.562 156.045C76.4082 156.311 76.3307 156.693 76.3294 157.192C76.3294 157.526 76.3639 157.808 76.433 158.038C76.5033 158.268 76.603 158.441 76.732 158.56C76.861 158.677 77.016 158.736 77.1971 158.736ZM80.4744 159.258C80.1656 159.256 79.9018 159.175 79.6829 159.013C79.464 158.852 79.2966 158.617 79.1807 158.308C79.0647 157.999 79.0067 157.627 79.0067 157.192C79.0067 156.758 79.0647 156.387 79.1807 156.08C79.2979 155.773 79.466 155.538 79.6849 155.376C79.9051 155.215 80.1682 155.134 80.4744 155.134C80.7806 155.134 81.0431 155.216 81.262 155.378C81.4809 155.54 81.6483 155.774 81.7643 156.082C81.8815 156.388 81.9401 156.758 81.9401 157.192C81.9401 157.628 81.8822 158.001 81.7662 158.31C81.6503 158.617 81.4828 158.853 81.264 159.015C81.0451 159.177 80.7819 159.258 80.4744 159.258ZM80.4744 158.736C80.7454 158.736 80.9571 158.604 81.1096 158.339C81.2633 158.075 81.3402 157.692 81.3402 157.192C81.3402 156.86 81.305 156.579 81.2346 156.35C81.1656 156.119 81.0659 155.945 80.9356 155.826C80.8066 155.706 80.6529 155.646 80.4744 155.646C80.2047 155.646 79.993 155.779 79.8393 156.045C79.6855 156.311 79.608 156.693 79.6067 157.192C79.6067 157.526 79.6412 157.808 79.7103 158.038C79.7806 158.268 79.8803 158.441 80.0093 158.56C80.1383 158.677 80.2933 158.736 80.4744 158.736Z" fill="#464646"/>
<path d="M68.169 180.9V175.897H68.4895V180.9H68.169ZM69.1715 177.448C69.1507 177.263 69.0647 177.12 68.9136 177.018C68.7624 176.915 68.5722 176.864 68.3429 176.864C68.1787 176.864 68.0367 176.89 67.9168 176.942C67.797 176.993 67.7038 177.063 67.6374 177.153C67.5722 177.242 67.5397 177.343 67.5397 177.456C67.5397 177.551 67.5618 177.633 67.6061 177.702C67.6517 177.771 67.711 177.829 67.784 177.876C67.8582 177.922 67.9377 177.96 68.0224 177.992C68.1071 178.022 68.1885 178.046 68.2667 178.066L68.6575 178.167C68.7852 178.199 68.9162 178.241 69.0504 178.294C69.1846 178.348 69.309 178.418 69.4236 178.506C69.5383 178.593 69.6308 178.701 69.7011 178.83C69.7728 178.959 69.8086 179.113 69.8086 179.293C69.8086 179.52 69.75 179.721 69.6327 179.897C69.5168 180.073 69.3481 180.212 69.1266 180.313C68.9064 180.415 68.6399 180.466 68.3273 180.466C68.0276 180.466 67.7683 180.418 67.5494 180.323C67.3306 180.228 67.1592 180.093 67.0355 179.919C66.9117 179.743 66.8433 179.534 66.8302 179.293H67.4361C67.4478 179.438 67.4947 179.558 67.5768 179.655C67.6602 179.75 67.7664 179.821 67.8954 179.868C68.0256 179.913 68.1683 179.936 68.3233 179.936C68.494 179.936 68.6458 179.909 68.7787 179.856C68.9129 179.801 69.0184 179.726 69.0953 179.629C69.1722 179.532 69.2106 179.418 69.2106 179.287C69.2106 179.169 69.1767 179.072 69.109 178.996C69.0425 178.921 68.952 178.858 68.8373 178.808C68.724 178.759 68.5956 178.715 68.4523 178.678L67.9794 178.549C67.6589 178.461 67.4048 178.333 67.2172 178.164C67.0309 177.994 66.9377 177.77 66.9377 177.491C66.9377 177.261 67.0003 177.059 67.1254 176.887C67.2504 176.715 67.4198 176.582 67.6335 176.487C67.8471 176.39 68.0882 176.342 68.3566 176.342C68.6276 176.342 68.8666 176.39 69.0738 176.485C69.2823 176.58 69.4464 176.711 69.5663 176.878C69.6862 177.043 69.7487 177.233 69.7539 177.448H69.1715ZM71.5215 180.454C71.2765 180.454 71.0564 180.407 70.8609 180.313C70.6668 180.218 70.5118 180.088 70.3958 179.922C70.2798 179.757 70.218 179.568 70.2101 179.356H70.7964C70.8108 179.528 70.887 179.669 71.0251 179.78C71.1632 179.891 71.3287 179.946 71.5215 179.946C71.6752 179.946 71.8114 179.911 71.9299 179.84C72.0498 179.769 72.1436 179.67 72.2114 179.545C72.2804 179.42 72.3149 179.278 72.3149 179.117C72.3149 178.954 72.2798 178.809 72.2094 178.681C72.1391 178.554 72.042 178.453 71.9182 178.38C71.7957 178.308 71.655 178.27 71.4961 178.269C71.3749 178.269 71.2531 178.29 71.1306 178.332C71.0082 178.373 70.9091 178.428 70.8336 178.496L70.2805 178.414L70.5052 176.397H72.7058V176.915H71.0075L70.8805 178.035H70.9039C70.9821 177.959 71.0857 177.896 71.2147 177.845C71.3449 177.794 71.4844 177.769 71.6329 177.769C71.8765 177.769 72.0935 177.827 72.2837 177.943C72.4752 178.059 72.6257 178.217 72.7351 178.418C72.8459 178.617 72.9006 178.846 72.8993 179.106C72.9006 179.365 72.842 179.596 72.7234 179.799C72.6061 180.003 72.4433 180.163 72.2348 180.28C72.0277 180.396 71.7899 180.454 71.5215 180.454ZM74.7314 180.466C74.4226 180.464 74.1587 180.383 73.9399 180.221C73.721 180.06 73.5536 179.825 73.4376 179.516C73.3216 179.207 73.2637 178.835 73.2637 178.4C73.2637 177.966 73.3216 177.595 73.4376 177.288C73.5549 176.981 73.7229 176.746 73.9418 176.584C74.162 176.423 74.4252 176.342 74.7314 176.342C75.0375 176.342 75.3001 176.424 75.5189 176.586C75.7378 176.748 75.9053 176.982 76.0212 177.29C76.1385 177.596 76.1971 177.966 76.1971 178.4C76.1971 178.836 76.1391 179.209 76.0232 179.518C75.9072 179.825 75.7398 180.061 75.5209 180.223C75.302 180.385 75.0388 180.466 74.7314 180.466ZM74.7314 179.944C75.0024 179.944 75.2141 179.812 75.3665 179.547C75.5202 179.283 75.5971 178.9 75.5971 178.4C75.5971 178.068 75.5619 177.787 75.4916 177.558C75.4225 177.327 75.3229 177.153 75.1926 177.034C75.0636 176.914 74.9099 176.854 74.7314 176.854C74.4617 176.854 74.2499 176.987 74.0962 177.253C73.9425 177.519 73.8649 177.901 73.8636 178.4C73.8636 178.734 73.8982 179.016 73.9672 179.246C74.0376 179.476 74.1372 179.649 74.2662 179.768C74.3952 179.885 74.5503 179.944 74.7314 179.944ZM78.0086 180.466C77.6999 180.464 77.436 180.383 77.2171 180.221C76.9983 180.06 76.8308 179.825 76.7149 179.516C76.5989 179.207 76.541 178.835 76.541 178.4C76.541 177.966 76.5989 177.595 76.7149 177.288C76.8321 176.981 77.0002 176.746 77.2191 176.584C77.4393 176.423 77.7025 176.342 78.0086 176.342C78.3148 176.342 78.5774 176.424 78.7962 176.586C79.0151 176.748 79.1825 176.982 79.2985 177.29C79.4158 177.596 79.4744 177.966 79.4744 178.4C79.4744 178.836 79.4164 179.209 79.3005 179.518C79.1845 179.825 79.0171 180.061 78.7982 180.223C78.5793 180.385 78.3161 180.466 78.0086 180.466ZM78.0086 179.944C78.2796 179.944 78.4914 179.812 78.6438 179.547C78.7975 179.283 78.8744 178.9 78.8744 178.4C78.8744 178.068 78.8392 177.787 78.7689 177.558C78.6998 177.327 78.6002 177.153 78.4699 177.034C78.3409 176.914 78.1871 176.854 78.0086 176.854C77.739 176.854 77.5272 176.987 77.3735 177.253C77.2198 177.519 77.1422 177.901 77.1409 178.4C77.1409 178.734 77.1755 179.016 77.2445 179.246C77.3149 179.476 77.4145 179.649 77.5435 179.768C77.6725 179.885 77.8275 179.944 78.0086 179.944Z" fill="#464646"/>
<path d="M68.169 202.108V197.105H68.4895V202.108H68.169ZM69.1715 198.656C69.1507 198.471 69.0647 198.328 68.9136 198.226C68.7624 198.124 68.5722 198.072 68.3429 198.072C68.1787 198.072 68.0367 198.098 67.9168 198.15C67.797 198.201 67.7038 198.271 67.6374 198.361C67.5722 198.45 67.5397 198.551 67.5397 198.664C67.5397 198.759 67.5618 198.841 67.6061 198.91C67.6517 198.98 67.711 199.037 67.784 199.084C67.8582 199.13 67.9377 199.168 68.0224 199.2C68.1071 199.23 68.1885 199.254 68.2667 199.274L68.6575 199.376C68.7852 199.407 68.9162 199.449 69.0504 199.503C69.1846 199.556 69.309 199.626 69.4236 199.714C69.5383 199.801 69.6308 199.909 69.7011 200.038C69.7728 200.167 69.8086 200.321 69.8086 200.501C69.8086 200.728 69.75 200.929 69.6327 201.105C69.5168 201.281 69.3481 201.42 69.1266 201.521C68.9064 201.623 68.6399 201.674 68.3273 201.674C68.0276 201.674 67.7683 201.626 67.5494 201.531C67.3306 201.436 67.1592 201.301 67.0355 201.127C66.9117 200.951 66.8433 200.742 66.8302 200.501H67.4361C67.4478 200.646 67.4947 200.766 67.5768 200.863C67.6602 200.958 67.7664 201.029 67.8954 201.076C68.0256 201.121 68.1683 201.144 68.3233 201.144C68.494 201.144 68.6458 201.118 68.7787 201.064C68.9129 201.009 69.0184 200.934 69.0953 200.837C69.1722 200.74 69.2106 200.626 69.2106 200.495C69.2106 200.377 69.1767 200.28 69.109 200.204C69.0425 200.129 68.952 200.066 68.8373 200.017C68.724 199.967 68.5956 199.923 68.4523 199.886L67.9794 199.757C67.6589 199.669 67.4048 199.541 67.2172 199.372C67.0309 199.202 66.9377 198.978 66.9377 198.699C66.9377 198.469 67.0003 198.267 67.1254 198.096C67.2504 197.924 67.4198 197.79 67.6335 197.695C67.8471 197.598 68.0882 197.55 68.3566 197.55C68.6276 197.55 68.8666 197.598 69.0738 197.693C69.2823 197.788 69.4464 197.919 69.5663 198.086C69.6862 198.251 69.7487 198.441 69.7539 198.656H69.1715ZM70.2004 201.607V201.17L71.5547 199.766C71.6993 199.614 71.8185 199.48 71.9124 199.366C72.0075 199.25 72.0785 199.14 72.1254 199.036C72.1723 198.931 72.1957 198.821 72.1957 198.703C72.1957 198.57 72.1645 198.456 72.1019 198.359C72.0394 198.262 71.954 198.187 71.8459 198.135C71.7378 198.081 71.6159 198.054 71.4804 198.054C71.3371 198.054 71.2121 198.084 71.1052 198.142C70.9984 198.201 70.9163 198.284 70.859 198.391C70.8016 198.497 70.773 198.623 70.773 198.766H70.1965C70.1965 198.522 70.2525 198.309 70.3645 198.127C70.4766 197.944 70.6303 197.803 70.8258 197.703C71.0212 197.601 71.2433 197.55 71.4922 197.55C71.7436 197.55 71.9651 197.6 72.1566 197.701C72.3495 197.8 72.5 197.935 72.6081 198.107C72.7162 198.278 72.7703 198.471 72.7703 198.686C72.7703 198.834 72.7423 198.98 72.6863 199.122C72.6315 199.264 72.5358 199.422 72.399 199.596C72.2622 199.77 72.072 199.98 71.8283 200.228L71.0329 201.06V201.09H72.8348V201.607H70.2004ZM74.6937 201.674C74.385 201.673 74.1211 201.591 73.9022 201.43C73.6834 201.268 73.5159 201.033 73.4 200.724C73.284 200.415 73.226 200.043 73.226 199.608C73.226 199.174 73.284 198.804 73.4 198.496C73.5172 198.189 73.6853 197.954 73.9042 197.793C74.1244 197.631 74.3876 197.55 74.6937 197.55C74.9999 197.55 75.2624 197.632 75.4813 197.795C75.7002 197.956 75.8676 198.191 75.9836 198.498C76.1008 198.804 76.1595 199.174 76.1595 199.608C76.1595 200.045 76.1015 200.417 75.9855 200.726C75.8696 201.034 75.7022 201.269 75.4833 201.432C75.2644 201.593 75.0012 201.674 74.6937 201.674ZM74.6937 201.152C74.9647 201.152 75.1765 201.02 75.3289 200.755C75.4826 200.491 75.5595 200.108 75.5595 199.608C75.5595 199.276 75.5243 198.995 75.454 198.766C75.3849 198.535 75.2852 198.361 75.155 198.242C75.026 198.122 74.8722 198.062 74.6937 198.062C74.424 198.062 74.2123 198.195 74.0586 198.461C73.9048 198.727 73.8273 199.109 73.826 199.608C73.826 199.942 73.8605 200.224 73.9296 200.454C74 200.684 74.0996 200.858 74.2286 200.976C74.3576 201.093 74.5126 201.152 74.6937 201.152ZM77.971 201.674C77.6622 201.673 77.3984 201.591 77.1795 201.43C76.9606 201.268 76.7932 201.033 76.6773 200.724C76.5613 200.415 76.5033 200.043 76.5033 199.608C76.5033 199.174 76.5613 198.804 76.6773 198.496C76.7945 198.189 76.9626 197.954 77.1815 197.793C77.4017 197.631 77.6649 197.55 77.971 197.55C78.2772 197.55 78.5397 197.632 78.7586 197.795C78.9775 197.956 79.1449 198.191 79.2609 198.498C79.3781 198.804 79.4368 199.174 79.4368 199.608C79.4368 200.045 79.3788 200.417 79.2628 200.726C79.1469 201.034 78.9795 201.269 78.7606 201.432C78.5417 201.593 78.2785 201.674 77.971 201.674ZM77.971 201.152C78.242 201.152 78.4537 201.02 78.6062 200.755C78.7599 200.491 78.8368 200.108 78.8368 199.608C78.8368 199.276 78.8016 198.995 78.7313 198.766C78.6622 198.535 78.5625 198.361 78.4322 198.242C78.3033 198.122 78.1495 198.062 77.971 198.062C77.7013 198.062 77.4896 198.195 77.3359 198.461C77.1821 198.727 77.1046 199.109 77.1033 199.608C77.1033 199.942 77.1378 200.224 77.2069 200.454C77.2772 200.684 77.3769 200.858 77.5059 200.976C77.6349 201.093 77.7899 201.152 77.971 201.152Z" fill="#464646"/>
<path d="M68.169 223.316V218.313H68.4895V223.316H68.169ZM69.1715 219.864C69.1507 219.679 69.0647 219.536 68.9136 219.434C68.7624 219.332 68.5722 219.28 68.3429 219.28C68.1787 219.28 68.0367 219.306 67.9168 219.358C67.797 219.409 67.7038 219.479 67.6374 219.569C67.5722 219.658 67.5397 219.759 67.5397 219.872C67.5397 219.967 67.5618 220.049 67.6061 220.118C67.6517 220.188 67.711 220.246 67.784 220.292C67.8582 220.338 67.9377 220.376 68.0224 220.408C68.1071 220.438 68.1885 220.462 68.2667 220.482L68.6575 220.584C68.7852 220.615 68.9162 220.657 69.0504 220.711C69.1846 220.764 69.309 220.834 69.4236 220.922C69.5383 221.009 69.6308 221.117 69.7011 221.246C69.7728 221.375 69.8086 221.529 69.8086 221.709C69.8086 221.936 69.75 222.137 69.6327 222.313C69.5168 222.489 69.3481 222.628 69.1266 222.729C68.9064 222.831 68.6399 222.882 68.3273 222.882C68.0276 222.882 67.7683 222.834 67.5494 222.739C67.3306 222.644 67.1592 222.509 67.0355 222.335C66.9117 222.159 66.8433 221.95 66.8302 221.709H67.4361C67.4478 221.854 67.4947 221.974 67.5768 222.071C67.6602 222.166 67.7664 222.237 67.8954 222.284C68.0256 222.329 68.1683 222.352 68.3233 222.352C68.494 222.352 68.6458 222.326 68.7787 222.272C68.9129 222.217 69.0184 222.142 69.0953 222.045C69.1722 221.948 69.2106 221.834 69.2106 221.703C69.2106 221.585 69.1767 221.488 69.109 221.412C69.0425 221.337 68.952 221.274 68.8373 221.225C68.724 221.175 68.5956 221.131 68.4523 221.094L67.9794 220.965C67.6589 220.877 67.4048 220.749 67.2172 220.58C67.0309 220.41 66.9377 220.186 66.9377 219.907C66.9377 219.677 67.0003 219.476 67.1254 219.304C67.2504 219.132 67.4198 218.998 67.6335 218.903C67.8471 218.806 68.0882 218.758 68.3566 218.758C68.6276 218.758 68.8666 218.806 69.0738 218.901C69.2823 218.996 69.4464 219.127 69.5663 219.294C69.6862 219.459 69.7487 219.649 69.7539 219.864H69.1715ZM71.7189 218.813V222.815H71.113V219.419H71.0896L70.132 220.044V219.466L71.1306 218.813H71.7189ZM73.9198 222.882C73.611 222.881 73.3472 222.799 73.1283 222.638C72.9094 222.476 72.742 222.241 72.6261 221.932C72.5101 221.623 72.4521 221.251 72.4521 220.816C72.4521 220.382 72.5101 220.012 72.6261 219.704C72.7433 219.397 72.9114 219.162 73.1303 219.001C73.3505 218.839 73.6137 218.758 73.9198 218.758C74.226 218.758 74.4885 218.84 74.7074 219.003C74.9263 219.164 75.0937 219.399 75.2097 219.706C75.3269 220.012 75.3856 220.382 75.3856 220.816C75.3856 221.253 75.3276 221.625 75.2116 221.934C75.0957 222.242 74.9283 222.477 74.7094 222.64C74.4905 222.801 74.2273 222.882 73.9198 222.882ZM73.9198 222.36C74.1908 222.36 74.4025 222.228 74.555 221.963C74.7087 221.699 74.7856 221.316 74.7856 220.816C74.7856 220.484 74.7504 220.203 74.6801 219.974C74.611 219.743 74.5113 219.569 74.381 219.45C74.2521 219.33 74.0983 219.27 73.9198 219.27C73.6501 219.27 73.4384 219.403 73.2847 219.669C73.1309 219.935 73.0534 220.317 73.0521 220.816C73.0521 221.15 73.0866 221.432 73.1557 221.662C73.226 221.892 73.3257 222.066 73.4547 222.184C73.5837 222.301 73.7387 222.36 73.9198 222.36ZM77.1971 222.882C76.8883 222.881 76.6245 222.799 76.4056 222.638C76.1867 222.476 76.0193 222.241 75.9034 221.932C75.7874 221.623 75.7294 221.251 75.7294 220.816C75.7294 220.382 75.7874 220.012 75.9034 219.704C76.0206 219.397 76.1887 219.162 76.4076 219.001C76.6278 218.839 76.8909 218.758 77.1971 218.758C77.5033 218.758 77.7658 218.84 77.9847 219.003C78.2036 219.164 78.371 219.399 78.487 219.706C78.6042 220.012 78.6629 220.382 78.6629 220.816C78.6629 221.253 78.6049 221.625 78.4889 221.934C78.373 222.242 78.2055 222.477 77.9867 222.64C77.7678 222.801 77.5046 222.882 77.1971 222.882ZM77.1971 222.36C77.4681 222.36 77.6798 222.228 77.8323 221.963C77.986 221.699 78.0629 221.316 78.0629 220.816C78.0629 220.484 78.0277 220.203 77.9573 219.974C77.8883 219.743 77.7886 219.569 77.6583 219.45C77.5294 219.33 77.3756 219.27 77.1971 219.27C76.9274 219.27 76.7157 219.403 76.562 219.669C76.4082 219.935 76.3307 220.317 76.3294 220.816C76.3294 221.15 76.3639 221.432 76.433 221.662C76.5033 221.892 76.603 222.066 76.732 222.184C76.861 222.301 77.016 222.36 77.1971 222.36Z" fill="#464646"/>
<line x1="84.8876" y1="157.497" x2="292.089" y2="157.497" stroke="#F2F2F2" stroke-width="0.275168" stroke-linecap="round" stroke-dasharray="5.5 4.4"/>
<line x1="84.8876" y1="178.41" x2="292.089" y2="178.41" stroke="#F2F2F2" stroke-width="0.275168" stroke-linecap="round" stroke-dasharray="5.5 4.4"/>
<line x1="84.8876" y1="199.322" x2="292.089" y2="199.322" stroke="#F2F2F2" stroke-width="0.275168" stroke-linecap="round" stroke-dasharray="5.5 4.4"/>
<line x1="84.8876" y1="220.235" x2="292.089" y2="220.235" stroke="#F2F2F2" stroke-width="0.275168" stroke-linecap="round" stroke-dasharray="5.5 4.4"/>
<g filter="url(#filter0_d_1040_14995)">
<rect x="158.867" y="158.695" width="115.425" height="39.0641" rx="5.62565" fill="white" shape-rendering="crispEdges"/>
<rect x="159.219" y="159.046" width="114.722" height="38.3609" rx="5.27405" stroke="#F9F9F9" stroke-width="0.703207" shape-rendering="crispEdges"/>
<path d="M168.539 171.32V170.871L170.227 169.023C170.425 168.806 170.589 168.618 170.717 168.459C170.845 168.297 170.94 168.146 171.001 168.004C171.065 167.861 171.096 167.711 171.096 167.555C171.096 167.375 171.053 167.219 170.966 167.088C170.882 166.956 170.765 166.855 170.617 166.783C170.469 166.711 170.302 166.676 170.117 166.676C169.921 166.676 169.749 166.716 169.603 166.798C169.458 166.878 169.346 166.99 169.266 167.135C169.188 167.28 169.148 167.45 169.148 167.644H168.559C168.559 167.345 168.628 167.082 168.766 166.855C168.905 166.629 169.093 166.452 169.331 166.326C169.571 166.199 169.839 166.136 170.137 166.136C170.437 166.136 170.703 166.199 170.934 166.326C171.165 166.452 171.347 166.623 171.478 166.838C171.61 167.053 171.676 167.292 171.676 167.555C171.676 167.743 171.642 167.927 171.573 168.106C171.507 168.285 171.39 168.484 171.224 168.703C171.059 168.921 170.83 169.188 170.537 169.502L169.388 170.731V170.771H171.766V171.32H168.539ZM174.214 166.136C174.424 166.138 174.634 166.178 174.843 166.256C175.053 166.334 175.245 166.464 175.418 166.646C175.591 166.825 175.73 167.071 175.835 167.382C175.94 167.694 175.992 168.084 175.992 168.553C175.992 169.008 175.949 169.412 175.862 169.765C175.777 170.116 175.654 170.412 175.493 170.654C175.333 170.895 175.138 171.078 174.908 171.203C174.68 171.328 174.422 171.39 174.134 171.39C173.848 171.39 173.592 171.334 173.368 171.22C173.144 171.106 172.961 170.947 172.818 170.743C172.677 170.539 172.586 170.301 172.546 170.032H173.155C173.21 170.267 173.319 170.46 173.482 170.614C173.647 170.765 173.864 170.841 174.134 170.841C174.529 170.841 174.84 170.669 175.068 170.324C175.298 169.979 175.413 169.492 175.413 168.863H175.373C175.28 169.003 175.169 169.124 175.041 169.225C174.912 169.327 174.77 169.405 174.614 169.46C174.457 169.515 174.291 169.542 174.114 169.542C173.821 169.542 173.552 169.47 173.308 169.325C173.065 169.179 172.87 168.978 172.723 168.723C172.578 168.467 172.506 168.174 172.506 167.844C172.506 167.531 172.576 167.245 172.716 166.985C172.857 166.724 173.055 166.516 173.31 166.361C173.566 166.206 173.868 166.131 174.214 166.136ZM174.214 166.686C174.004 166.686 173.815 166.738 173.647 166.843C173.481 166.946 173.348 167.086 173.25 167.262C173.154 167.437 173.105 167.631 173.105 167.844C173.105 168.057 173.152 168.251 173.245 168.426C173.34 168.599 173.469 168.737 173.632 168.841C173.797 168.942 173.984 168.993 174.194 168.993C174.352 168.993 174.5 168.962 174.636 168.901C174.773 168.837 174.892 168.752 174.993 168.643C175.096 168.533 175.177 168.409 175.235 168.271C175.294 168.131 175.323 167.986 175.323 167.834C175.323 167.634 175.275 167.447 175.178 167.272C175.083 167.098 174.952 166.956 174.783 166.848C174.617 166.74 174.427 166.686 174.214 166.686ZM180.578 166.206H181.197V169.862C181.197 170.188 181.137 170.465 181.017 170.694C180.897 170.922 180.728 171.095 180.51 171.213C180.292 171.331 180.035 171.39 179.739 171.39C179.459 171.39 179.21 171.339 178.992 171.238C178.774 171.135 178.602 170.988 178.477 170.798C178.353 170.609 178.29 170.383 178.29 170.122H178.9C178.9 170.267 178.935 170.393 179.007 170.501C179.08 170.608 179.18 170.691 179.307 170.751C179.433 170.811 179.577 170.841 179.739 170.841C179.917 170.841 180.068 170.803 180.193 170.728C180.318 170.654 180.413 170.544 180.478 170.399C180.544 170.252 180.578 170.073 180.578 169.862V166.206ZM184.564 169.752V167.485H185.154V171.32H184.564V170.671H184.524C184.435 170.866 184.295 171.031 184.105 171.168C183.915 171.303 183.675 171.37 183.386 171.37C183.146 171.37 182.933 171.318 182.746 171.213C182.56 171.106 182.414 170.947 182.307 170.733C182.2 170.519 182.147 170.248 182.147 169.922V167.485H182.736V169.882C182.736 170.162 182.815 170.385 182.971 170.551C183.129 170.718 183.331 170.801 183.576 170.801C183.722 170.801 183.871 170.763 184.023 170.689C184.176 170.614 184.304 170.499 184.407 170.344C184.512 170.189 184.564 169.992 184.564 169.752ZM186.612 166.206V171.32H186.022V166.206H186.612ZM187.86 172.759C187.76 172.759 187.671 172.75 187.592 172.734C187.514 172.719 187.46 172.704 187.43 172.689L187.58 172.169C187.723 172.206 187.85 172.219 187.959 172.209C188.069 172.199 188.167 172.15 188.252 172.062C188.338 171.975 188.417 171.835 188.489 171.64L188.599 171.34L187.18 167.485H187.82L188.878 170.541H188.918L189.977 167.485H190.616L188.988 171.88C188.915 172.078 188.824 172.242 188.716 172.372C188.608 172.503 188.482 172.601 188.339 172.664C188.197 172.727 188.038 172.759 187.86 172.759ZM194.608 171.39C194.232 171.39 193.912 171.288 193.647 171.083C193.382 170.877 193.18 170.578 193.04 170.187C192.9 169.794 192.83 169.319 192.83 168.763C192.83 168.21 192.9 167.739 193.04 167.347C193.182 166.954 193.385 166.655 193.649 166.448C193.916 166.24 194.235 166.136 194.608 166.136C194.981 166.136 195.3 166.24 195.565 166.448C195.831 166.655 196.034 166.954 196.174 167.347C196.316 167.739 196.386 168.21 196.386 168.763C196.386 169.319 196.316 169.794 196.177 170.187C196.037 170.578 195.834 170.877 195.57 171.083C195.305 171.288 194.985 171.39 194.608 171.39ZM194.608 170.841C194.981 170.841 195.271 170.661 195.477 170.301C195.684 169.942 195.787 169.429 195.787 168.763C195.787 168.32 195.74 167.943 195.645 167.632C195.551 167.321 195.417 167.083 195.24 166.92C195.065 166.757 194.855 166.676 194.608 166.676C194.239 166.676 193.95 166.858 193.742 167.222C193.534 167.585 193.43 168.099 193.43 168.763C193.43 169.206 193.476 169.582 193.569 169.892C193.663 170.202 193.797 170.437 193.971 170.599C194.148 170.76 194.36 170.841 194.608 170.841ZM198.792 171.39C198.416 171.39 198.096 171.288 197.831 171.083C197.566 170.877 197.364 170.578 197.224 170.187C197.084 169.794 197.014 169.319 197.014 168.763C197.014 168.21 197.084 167.739 197.224 167.347C197.366 166.954 197.569 166.655 197.833 166.448C198.1 166.24 198.419 166.136 198.792 166.136C199.165 166.136 199.484 166.24 199.749 166.448C200.015 166.655 200.218 166.954 200.358 167.347C200.5 167.739 200.57 168.21 200.57 168.763C200.57 169.319 200.5 169.794 200.361 170.187C200.221 170.578 200.018 170.877 199.754 171.083C199.489 171.288 199.169 171.39 198.792 171.39ZM198.792 170.841C199.165 170.841 199.455 170.661 199.661 170.301C199.868 169.942 199.971 169.429 199.971 168.763C199.971 168.32 199.924 167.943 199.829 167.632C199.735 167.321 199.601 167.083 199.424 166.92C199.249 166.757 199.039 166.676 198.792 166.676C198.423 166.676 198.134 166.858 197.926 167.222C197.718 167.585 197.614 168.099 197.614 168.763C197.614 169.206 197.66 169.582 197.754 169.892C197.847 170.202 197.981 170.437 198.156 170.599C198.332 170.76 198.544 170.841 198.792 170.841ZM201.748 170.666C201.625 170.666 201.519 170.622 201.431 170.534C201.342 170.445 201.298 170.34 201.298 170.217C201.298 170.093 201.342 169.988 201.431 169.899C201.519 169.811 201.625 169.767 201.748 169.767C201.871 169.767 201.977 169.811 202.065 169.899C202.153 169.988 202.197 170.093 202.197 170.217C202.197 170.298 202.177 170.373 202.135 170.441C202.095 170.51 202.041 170.564 201.973 170.606C201.906 170.646 201.831 170.666 201.748 170.666ZM201.748 168.079C201.625 168.079 201.519 168.035 201.431 167.947C201.342 167.858 201.298 167.753 201.298 167.629C201.298 167.506 201.342 167.401 201.431 167.312C201.519 167.224 201.625 167.18 201.748 167.18C201.871 167.18 201.977 167.224 202.065 167.312C202.153 167.401 202.197 167.506 202.197 167.629C202.197 167.711 202.177 167.786 202.135 167.854C202.095 167.922 202.041 167.977 201.973 168.019C201.906 168.059 201.831 168.079 201.748 168.079ZM204.702 171.39C204.326 171.39 204.005 171.288 203.741 171.083C203.476 170.877 203.274 170.578 203.134 170.187C202.994 169.794 202.924 169.319 202.924 168.763C202.924 168.21 202.994 167.739 203.134 167.347C203.275 166.954 203.478 166.655 203.743 166.448C204.009 166.24 204.329 166.136 204.702 166.136C205.075 166.136 205.394 166.24 205.658 166.448C205.925 166.655 206.128 166.954 206.268 167.347C206.409 167.739 206.48 168.21 206.48 168.763C206.48 169.319 206.41 169.794 206.27 170.187C206.13 170.578 205.928 170.877 205.663 171.083C205.399 171.288 205.078 171.39 204.702 171.39ZM204.702 170.841C205.075 170.841 205.365 170.661 205.571 170.301C205.777 169.942 205.881 169.429 205.881 168.763C205.881 168.32 205.833 167.943 205.738 167.632C205.645 167.321 205.51 167.083 205.334 166.92C205.159 166.757 204.948 166.676 204.702 166.676C204.332 166.676 204.044 166.858 203.836 167.222C203.627 167.585 203.523 168.099 203.523 168.763C203.523 169.206 203.57 169.582 203.663 169.892C203.756 170.202 203.89 170.437 204.065 170.599C204.242 170.76 204.454 170.841 204.702 170.841ZM208.886 171.39C208.51 171.39 208.189 171.288 207.925 171.083C207.66 170.877 207.458 170.578 207.318 170.187C207.178 169.794 207.108 169.319 207.108 168.763C207.108 168.21 207.178 167.739 207.318 167.347C207.459 166.954 207.662 166.655 207.927 166.448C208.194 166.24 208.513 166.136 208.886 166.136C209.259 166.136 209.578 166.24 209.843 166.448C210.109 166.655 210.312 166.954 210.452 167.347C210.593 167.739 210.664 168.21 210.664 168.763C210.664 169.319 210.594 169.794 210.454 170.187C210.315 170.578 210.112 170.877 209.848 171.083C209.583 171.288 209.262 171.39 208.886 171.39ZM208.886 170.841C209.259 170.841 209.549 170.661 209.755 170.301C209.962 169.942 210.065 169.429 210.065 168.763C210.065 168.32 210.017 167.943 209.922 167.632C209.829 167.321 209.694 167.083 209.518 166.92C209.343 166.757 209.133 166.676 208.886 166.676C208.517 166.676 208.228 166.858 208.02 167.222C207.811 167.585 207.707 168.099 207.707 168.763C207.707 169.206 207.754 169.582 207.847 169.892C207.941 170.202 208.075 170.437 208.249 170.599C208.426 170.76 208.638 170.841 208.886 170.841Z" fill="#7A7A7A"/>
<path d="M168.797 185.32V184.425L171.566 181.557C171.861 181.245 172.105 180.972 172.297 180.737C172.491 180.5 172.637 180.275 172.732 180.062C172.828 179.849 172.876 179.623 172.876 179.383C172.876 179.111 172.812 178.877 172.684 178.68C172.557 178.48 172.382 178.327 172.161 178.22C171.94 178.111 171.691 178.057 171.414 178.057C171.121 178.057 170.865 178.116 170.647 178.236C170.428 178.356 170.261 178.525 170.143 178.744C170.026 178.962 169.968 179.218 169.968 179.511H168.789C168.789 179.013 168.903 178.577 169.132 178.204C169.362 177.831 169.676 177.542 170.075 177.337C170.475 177.13 170.929 177.026 171.438 177.026C171.952 177.026 172.405 177.128 172.796 177.333C173.191 177.536 173.498 177.813 173.719 178.164C173.94 178.513 174.051 178.908 174.051 179.347C174.051 179.651 173.994 179.948 173.879 180.238C173.767 180.528 173.571 180.852 173.292 181.209C173.012 181.563 172.623 181.993 172.125 182.499L170.499 184.202V184.262H174.183V185.32H168.797ZM175.697 185.32V184.425L178.466 181.557C178.762 181.245 179.005 180.972 179.197 180.737C179.392 180.5 179.537 180.275 179.633 180.062C179.729 179.849 179.776 179.623 179.776 179.383C179.776 179.111 179.713 178.877 179.585 178.68C179.457 178.48 179.282 178.327 179.061 178.22C178.84 178.111 178.591 178.057 178.314 178.057C178.021 178.057 177.765 178.116 177.547 178.236C177.329 178.356 177.161 178.525 177.044 178.744C176.926 178.962 176.868 179.218 176.868 179.511H175.689C175.689 179.013 175.804 178.577 176.033 178.204C176.262 177.831 176.576 177.542 176.976 177.337C177.375 177.13 177.829 177.026 178.338 177.026C178.852 177.026 179.305 177.128 179.697 177.333C180.091 177.536 180.398 177.813 180.62 178.164C180.841 178.513 180.951 178.908 180.951 179.347C180.951 179.651 180.894 179.948 180.779 180.238C180.667 180.528 180.472 180.852 180.192 181.209C179.912 181.563 179.523 181.993 179.025 182.499L177.399 184.202V184.262H181.083V185.32H175.697ZM185.446 185.456C184.815 185.453 184.275 185.287 183.828 184.957C183.38 184.626 183.038 184.146 182.801 183.514C182.564 182.883 182.445 182.123 182.445 181.233C182.445 180.346 182.564 179.588 182.801 178.959C183.041 178.331 183.384 177.851 183.832 177.521C184.282 177.191 184.82 177.026 185.446 177.026C186.072 177.026 186.609 177.192 187.056 177.525C187.504 177.855 187.846 178.335 188.083 178.963C188.323 179.589 188.443 180.346 188.443 181.233C188.443 182.125 188.324 182.887 188.087 183.518C187.85 184.147 187.508 184.628 187.06 184.961C186.613 185.291 186.075 185.456 185.446 185.456ZM185.446 184.389C186 184.389 186.433 184.119 186.745 183.578C187.059 183.038 187.216 182.256 187.216 181.233C187.216 180.554 187.144 179.98 187 179.511C186.859 179.039 186.655 178.682 186.389 178.44C186.125 178.195 185.811 178.072 185.446 178.072C184.895 178.072 184.462 178.344 184.148 178.888C183.833 179.431 183.675 180.213 183.672 181.233C183.672 181.915 183.743 182.492 183.884 182.963C184.028 183.432 184.231 183.787 184.495 184.03C184.759 184.269 185.076 184.389 185.446 184.389ZM191.134 184.202L191.074 184.637C191.034 184.957 190.966 185.29 190.87 185.636C190.777 185.985 190.68 186.309 190.578 186.607C190.48 186.905 190.399 187.142 190.335 187.318H189.488C189.522 187.153 189.57 186.929 189.631 186.647C189.693 186.367 189.753 186.054 189.811 185.708C189.87 185.362 189.914 185.009 189.943 184.649L189.983 184.202H191.134ZM195.357 185.432C194.808 185.432 194.318 185.338 193.887 185.149C193.458 184.959 193.118 184.697 192.868 184.361C192.62 184.023 192.487 183.632 192.468 183.187H193.723C193.739 183.429 193.82 183.64 193.966 183.818C194.116 183.994 194.31 184.13 194.55 184.226C194.79 184.321 195.056 184.369 195.349 184.369C195.671 184.369 195.956 184.313 196.204 184.202C196.454 184.09 196.65 183.934 196.791 183.734C196.932 183.532 197.003 183.299 197.003 183.035C197.003 182.761 196.932 182.519 196.791 182.312C196.653 182.101 196.449 181.936 196.18 181.816C195.914 181.696 195.591 181.636 195.213 181.636H194.522V180.63H195.213C195.517 180.63 195.783 180.575 196.012 180.466C196.244 180.357 196.425 180.205 196.556 180.01C196.686 179.813 196.751 179.583 196.751 179.319C196.751 179.066 196.694 178.846 196.58 178.66C196.468 178.471 196.308 178.323 196.1 178.216C195.895 178.11 195.653 178.057 195.373 178.057C195.107 178.057 194.857 178.106 194.626 178.204C194.397 178.3 194.21 178.439 194.066 178.62C193.923 178.798 193.845 179.013 193.835 179.263H192.64C192.653 178.821 192.784 178.432 193.032 178.096C193.282 177.761 193.612 177.498 194.022 177.309C194.433 177.12 194.888 177.026 195.389 177.026C195.914 177.026 196.366 177.128 196.747 177.333C197.131 177.536 197.427 177.806 197.634 178.144C197.845 178.483 197.949 178.853 197.946 179.255C197.949 179.713 197.821 180.102 197.562 180.422C197.307 180.741 196.966 180.956 196.54 181.065V181.129C197.083 181.212 197.504 181.427 197.802 181.776C198.103 182.125 198.252 182.558 198.25 183.075C198.252 183.525 198.127 183.929 197.874 184.285C197.624 184.642 197.281 184.923 196.847 185.129C196.413 185.331 195.916 185.432 195.357 185.432ZM199.588 183.722V182.723L203.124 177.138H203.911V178.608H203.412L200.883 182.611V182.675H205.729V183.722H199.588ZM203.468 185.32V183.418L203.476 182.963V177.138H204.646V185.32H203.468ZM207.122 185.32V184.425L209.891 181.557C210.186 181.245 210.43 180.972 210.622 180.737C210.816 180.5 210.961 180.275 211.057 180.062C211.153 179.849 211.201 179.623 211.201 179.383C211.201 179.111 211.137 178.877 211.009 178.68C210.881 178.48 210.707 178.327 210.486 178.22C210.265 178.111 210.016 178.057 209.739 178.057C209.446 178.057 209.19 178.116 208.972 178.236C208.753 178.356 208.585 178.525 208.468 178.744C208.351 178.962 208.292 179.218 208.292 179.511H207.114C207.114 179.013 207.228 178.577 207.457 178.204C207.686 177.831 208.001 177.542 208.4 177.337C208.8 177.13 209.254 177.026 209.763 177.026C210.277 177.026 210.73 177.128 211.121 177.333C211.515 177.536 211.823 177.813 212.044 178.164C212.265 178.513 212.376 178.908 212.376 179.347C212.376 179.651 212.318 179.948 212.204 180.238C212.092 180.528 211.896 180.852 211.617 181.209C211.337 181.563 210.948 181.993 210.45 182.499L208.824 184.202V184.262H212.508V185.32H207.122ZM214.825 185.396C214.607 185.396 214.419 185.319 214.262 185.164C214.104 185.007 214.026 184.818 214.026 184.597C214.026 184.379 214.104 184.192 214.262 184.038C214.419 183.881 214.607 183.802 214.825 183.802C215.043 183.802 215.231 183.881 215.388 184.038C215.545 184.192 215.624 184.379 215.624 184.597C215.624 184.744 215.587 184.878 215.512 185.001C215.44 185.121 215.344 185.216 215.224 185.288C215.105 185.36 214.971 185.396 214.825 185.396ZM217.275 185.32L220.847 178.256V178.196H216.716V177.138H222.126V178.232L218.566 185.32H217.275ZM226.196 185.432C225.831 185.427 225.472 185.36 225.117 185.232C224.766 185.105 224.446 184.891 224.158 184.593C223.871 184.295 223.64 183.894 223.467 183.39C223.297 182.887 223.211 182.258 223.211 181.505C223.211 180.791 223.282 180.157 223.423 179.603C223.567 179.049 223.774 178.581 224.043 178.2C224.312 177.817 224.637 177.525 225.017 177.325C225.398 177.126 225.826 177.026 226.3 177.026C226.787 177.026 227.22 177.122 227.599 177.313C227.977 177.505 228.283 177.77 228.517 178.108C228.755 178.447 228.905 178.832 228.969 179.263H227.75C227.668 178.922 227.504 178.644 227.259 178.428C227.014 178.212 226.694 178.104 226.3 178.104C225.701 178.104 225.233 178.365 224.898 178.888C224.565 179.41 224.397 180.135 224.394 181.065H224.454C224.595 180.833 224.768 180.636 224.973 180.474C225.181 180.309 225.413 180.182 225.669 180.094C225.927 180.004 226.199 179.958 226.484 179.958C226.958 179.958 227.387 180.074 227.77 180.306C228.157 180.535 228.464 180.852 228.693 181.257C228.922 181.662 229.037 182.125 229.037 182.647C229.037 183.169 228.918 183.642 228.681 184.066C228.447 184.489 228.117 184.825 227.69 185.073C227.264 185.318 226.766 185.438 226.196 185.432ZM226.192 184.393C226.506 184.393 226.787 184.316 227.035 184.162C227.283 184.007 227.479 183.799 227.623 183.538C227.766 183.277 227.838 182.986 227.838 182.663C227.838 182.349 227.768 182.063 227.627 181.804C227.488 181.546 227.296 181.341 227.051 181.189C226.809 181.037 226.532 180.961 226.22 180.961C225.983 180.961 225.763 181.007 225.561 181.097C225.361 181.188 225.185 181.313 225.033 181.473C224.882 181.632 224.762 181.816 224.674 182.024C224.589 182.229 224.546 182.446 224.546 182.675C224.546 182.982 224.617 183.265 224.758 183.526C224.902 183.787 225.097 183.998 225.345 184.158C225.595 184.315 225.878 184.393 226.192 184.393Z" fill="#242424"/>
<rect x="234.229" y="174.32" width="31.6257" height="14.8128" rx="2.81283" fill="#E0F0E4"/>
<path d="M239.6 183.696V179.644H240.406V183.696H239.6ZM237.979 182.072V181.269H242.03V182.072H237.979ZM245.458 184.811C245.047 184.811 244.679 184.74 244.356 184.598C244.034 184.456 243.779 184.259 243.592 184.007C243.406 183.754 243.306 183.46 243.292 183.126H244.233C244.245 183.308 244.306 183.466 244.416 183.6C244.527 183.732 244.673 183.834 244.853 183.906C245.033 183.978 245.233 184.013 245.452 184.013C245.694 184.013 245.908 183.972 246.094 183.888C246.282 183.804 246.428 183.687 246.534 183.537C246.64 183.385 246.693 183.21 246.693 183.013C246.693 182.807 246.64 182.626 246.534 182.47C246.43 182.312 246.278 182.189 246.076 182.099C245.876 182.009 245.634 181.964 245.351 181.964H244.832V181.209H245.351C245.578 181.209 245.778 181.168 245.95 181.086C246.124 181.004 246.26 180.89 246.357 180.744C246.455 180.596 246.504 180.424 246.504 180.226C246.504 180.036 246.461 179.871 246.375 179.731C246.291 179.589 246.172 179.479 246.016 179.399C245.862 179.319 245.68 179.279 245.47 179.279C245.271 179.279 245.084 179.316 244.91 179.39C244.738 179.462 244.598 179.566 244.491 179.701C244.383 179.835 244.325 179.996 244.317 180.184H243.421C243.431 179.852 243.529 179.561 243.714 179.309C243.902 179.057 244.15 178.86 244.458 178.718C244.765 178.577 245.107 178.506 245.482 178.506C245.876 178.506 246.216 178.583 246.501 178.736C246.789 178.888 247.011 179.091 247.167 179.345C247.324 179.598 247.402 179.876 247.4 180.178C247.402 180.521 247.306 180.813 247.113 181.053C246.921 181.293 246.665 181.453 246.345 181.535V181.583C246.753 181.645 247.069 181.807 247.292 182.069C247.518 182.33 247.63 182.655 247.628 183.043C247.63 183.38 247.536 183.683 247.346 183.951C247.159 184.218 246.902 184.429 246.576 184.583C246.251 184.735 245.878 184.811 245.458 184.811ZM249.182 184.784C249.018 184.784 248.877 184.726 248.759 184.61C248.641 184.492 248.582 184.35 248.582 184.184C248.582 184.02 248.641 183.881 248.759 183.765C248.877 183.647 249.018 183.588 249.182 183.588C249.346 183.588 249.486 183.647 249.604 183.765C249.722 183.881 249.781 184.02 249.781 184.184C249.781 184.294 249.753 184.395 249.697 184.487C249.643 184.577 249.571 184.649 249.481 184.703C249.391 184.757 249.292 184.784 249.182 184.784ZM250.84 183.528V182.779L253.492 178.59H254.083V179.692H253.708L251.811 182.695V182.743H255.446V183.528H250.84ZM253.75 184.727V183.3L253.756 182.959V178.59H254.634V184.727H253.75ZM259.694 183.576V183.252C259.694 183.021 259.742 182.809 259.838 182.617C259.936 182.423 260.077 182.268 260.263 182.153C260.451 182.035 260.678 181.976 260.943 181.976C261.215 181.976 261.443 182.034 261.627 182.15C261.81 182.265 261.949 182.42 262.043 182.614C262.139 182.808 262.187 183.021 262.187 183.252V183.576C262.187 183.808 262.139 184.02 262.043 184.214C261.947 184.406 261.806 184.561 261.621 184.679C261.437 184.795 261.211 184.853 260.943 184.853C260.674 184.853 260.446 184.795 260.26 184.679C260.074 184.561 259.934 184.406 259.838 184.214C259.742 184.02 259.694 183.808 259.694 183.576ZM260.392 183.252V183.576C260.392 183.748 260.433 183.904 260.515 184.043C260.597 184.183 260.74 184.253 260.943 184.253C261.145 184.253 261.286 184.183 261.366 184.043C261.446 183.904 261.486 183.748 261.486 183.576V183.252C261.486 183.081 261.447 182.925 261.369 182.785C261.293 182.645 261.151 182.575 260.943 182.575C260.744 182.575 260.602 182.645 260.518 182.785C260.434 182.925 260.392 183.081 260.392 183.252ZM256.607 180.064V179.74C256.607 179.509 256.655 179.296 256.751 179.102C256.849 178.908 256.991 178.753 257.177 178.638C257.365 178.522 257.591 178.464 257.857 178.464C258.129 178.464 258.356 178.522 258.54 178.638C258.724 178.753 258.863 178.908 258.957 179.102C259.051 179.296 259.098 179.509 259.098 179.74V180.064C259.098 180.296 259.05 180.508 258.954 180.702C258.86 180.894 258.72 181.049 258.534 181.167C258.35 181.283 258.125 181.341 257.857 181.341C257.585 181.341 257.357 181.283 257.171 181.167C256.987 181.049 256.847 180.894 256.751 180.702C256.655 180.508 256.607 180.296 256.607 180.064ZM257.309 179.74V180.064C257.309 180.236 257.349 180.392 257.428 180.531C257.51 180.671 257.653 180.741 257.857 180.741C258.057 180.741 258.197 180.671 258.276 180.531C258.358 180.392 258.399 180.236 258.399 180.064V179.74C258.399 179.569 258.36 179.413 258.282 179.273C258.205 179.133 258.063 179.063 257.857 179.063C257.657 179.063 257.515 179.133 257.431 179.273C257.35 179.413 257.309 179.569 257.309 179.74ZM256.892 184.727L261.111 178.59H261.827L257.608 184.727H256.892Z" fill="#377E36"/>
</g>
<defs>
<filter id="filter0_d_1040_14995" x="156.054" y="157.288" width="121.051" height="44.6897" filterUnits="userSpaceOnUse" color-interpolation-filters="sRGB">
<feFlood flood-opacity="0" result="BackgroundImageFix"/>
<feColorMatrix in="SourceAlpha" type="matrix" values="0 0 0 0 0 0 0 0 0 0 0 0 0 0 0 0 0 0 127 0" result="hardAlpha"/>
<feOffset dy="1.40641"/>
<feGaussianBlur stdDeviation="1.40641"/>
<feComposite in2="hardAlpha" operator="out"/>
<feColorMatrix type="matrix" values="0 0 0 0 0 0 0 0 0 0 0 0 0 0 0 0 0 0 0.04 0"/>
<feBlend mode="normal" in2="BackgroundImageFix" result="effect1_dropShadow_1040_14995"/>
<feBlend mode="normal" in="SourceGraphic" in2="effect1_dropShadow_1040_14995" result="shape"/>
</filter>
<linearGradient id="paint0_linear_1040_14995" x1="245.635" y1="187.587" x2="316.291" y2="328.52" gradientUnits="userSpaceOnUse">
<stop stop-color="#E6E5FB"/>
<stop offset="1" stop-color="#FEFDFF"/>
</linearGradient>
<linearGradient id="paint1_linear_1040_14995" x1="244.276" y1="187.587" x2="314.932" y2="328.52" gradientUnits="userSpaceOnUse">
<stop stop-color="#E6E5FB"/>
<stop offset="1" stop-color="#FEFDFF"/>
</linearGradient>
<linearGradient id="paint2_linear_1040_14995" x1="254.482" y1="203.272" x2="254.482" y2="268.211" gradientUnits="userSpaceOnUse">
<stop stop-color="#3C76E1"/>
<stop offset="1" stop-color="#978FED" stop-opacity="0"/>
</linearGradient>
</defs>
</svg>
