<svg width="400" height="450" viewBox="0 0 400 450" fill="none" xmlns="http://www.w3.org/2000/svg">
<rect width="400" height="450" rx="24" fill="#F8FAFC"/>
<path d="M23.407 361V346.72H28.594C33.067 346.72 35.86 349.429 35.86 353.881C35.86 358.333 33.067 361 28.594 361H23.407ZM28.594 358.711C31.345 358.711 32.983 356.926 32.983 353.881C32.983 350.815 31.345 349.009 28.594 349.009H26.242V358.711H28.594ZM48.3146 357.325C47.7056 359.929 45.6896 361.315 43.0016 361.315C39.5996 361.315 37.5206 359.068 37.5206 355.393C37.5206 351.571 39.6206 349.429 42.8966 349.429C46.1936 349.429 48.2306 351.655 48.2306 355.288V355.918H40.2926C40.4186 357.976 41.3636 359.11 43.0016 359.11C44.2616 359.11 45.1226 358.522 45.4796 357.325H48.3146ZM42.8966 351.634C41.4686 351.634 40.6076 352.537 40.3556 354.238H45.4166C45.1646 352.558 44.3036 351.634 42.8966 351.634ZM52.9358 365.62H50.2478V349.744H52.9358V351.025C53.6498 349.996 54.6578 349.429 55.8968 349.429C58.8368 349.429 60.6428 351.676 60.6428 355.351C60.6428 359.173 58.7948 361.315 55.8968 361.315C54.6578 361.315 53.6288 360.79 52.9358 359.782V365.62ZM55.4138 351.655C53.7968 351.655 52.9358 352.957 52.9358 355.351C52.9358 357.745 53.8388 359.089 55.4138 359.089C57.0098 359.089 57.8708 357.766 57.8708 355.351C57.8708 352.978 56.9888 351.655 55.4138 351.655ZM67.4655 361.315C64.1265 361.315 62.0685 359.068 62.0685 355.393C62.0685 351.571 64.1895 349.429 67.4655 349.429C70.7835 349.429 72.8415 351.697 72.8415 355.393C72.8415 359.173 70.7205 361.315 67.4655 361.315ZM67.4655 359.089C69.1665 359.089 70.0695 357.787 70.0695 355.393C70.0695 352.999 69.1455 351.655 67.4655 351.655C65.7435 351.655 64.8405 352.978 64.8405 355.393C64.8405 357.766 65.7645 359.089 67.4655 359.089ZM77.0426 352.768C77.0426 355.351 84.1406 353.167 84.1406 357.682C84.1406 359.845 82.1456 361.315 79.3316 361.315C76.5596 361.315 74.5646 360.034 74.1656 357.325H76.8536C77.0426 358.543 78.0086 359.236 79.4156 359.236C80.7386 359.236 81.4316 358.669 81.4316 357.85C81.4316 355.33 74.4806 357.493 74.4806 352.936C74.4806 351.109 75.9086 349.429 78.8486 349.429C81.4316 349.429 83.3846 350.647 83.7206 353.44H81.0326C80.8226 352.075 80.0246 351.529 78.7436 351.529C77.6726 351.529 77.0426 352.054 77.0426 352.768ZM85.9724 348.484V345.88H88.6604V348.484H85.9724ZM85.9724 361V349.744H88.6604V361H85.9724ZM91.4769 357.493V351.823H90.0279V349.744H91.4769V347.161H94.1649V349.744H96.5379V351.823H94.1649V357.262C94.1649 358.438 94.5009 359.068 95.9919 359.068H96.4959V361.042C96.2019 361.189 95.5929 361.315 94.8579 361.315C92.5689 361.315 91.4769 360.013 91.4769 357.493ZM105.691 361V355.918L100.693 346.72H103.864L106.573 351.97L107.182 353.503L107.791 351.97L110.5 346.72H113.503L108.505 355.918V361H105.691ZM118.386 361.315C115.047 361.315 112.989 359.068 112.989 355.393C112.989 351.571 115.11 349.429 118.386 349.429C121.704 349.429 123.762 351.697 123.762 355.393C123.762 359.173 121.641 361.315 118.386 361.315ZM118.386 359.089C120.087 359.089 120.99 357.787 120.99 355.393C120.99 352.999 120.066 351.655 118.386 351.655C116.664 351.655 115.761 352.978 115.761 355.393C115.761 357.766 116.685 359.089 118.386 359.089ZM132.71 356.275V349.744H135.398V361H132.71V359.488C131.975 360.727 130.82 361.315 129.434 361.315C127.208 361.315 125.717 359.971 125.717 357.262V349.744H128.405V356.716C128.405 358.249 129.035 359.089 130.358 359.089C131.807 359.089 132.71 357.787 132.71 356.275ZM137.878 361V349.744H140.566V351.382C141.301 350.038 142.435 349.429 143.653 349.429C144.115 349.429 144.535 349.555 144.745 349.744V352.075C144.388 351.97 143.989 351.928 143.506 351.928C141.469 351.928 140.566 353.146 140.566 355.015V361H137.878ZM150.371 361V346.72H155.558C160.031 346.72 162.824 349.429 162.824 353.881C162.824 358.333 160.031 361 155.558 361H150.371ZM155.558 358.711C158.309 358.711 159.947 356.926 159.947 353.881C159.947 350.815 158.309 349.009 155.558 349.009H153.206V358.711H155.558ZM175.279 357.325C174.67 359.929 172.654 361.315 169.966 361.315C166.564 361.315 164.485 359.068 164.485 355.393C164.485 351.571 166.585 349.429 169.861 349.429C173.158 349.429 175.195 351.655 175.195 355.288V355.918H167.257C167.383 357.976 168.328 359.11 169.966 359.11C171.226 359.11 172.087 358.522 172.444 357.325H175.279ZM169.861 351.634C168.433 351.634 167.572 352.537 167.32 354.238H172.381C172.129 352.558 171.268 351.634 169.861 351.634ZM179.459 352.768C179.459 355.351 186.557 353.167 186.557 357.682C186.557 359.845 184.562 361.315 181.748 361.315C178.976 361.315 176.981 360.034 176.582 357.325H179.27C179.459 358.543 180.425 359.236 181.832 359.236C183.155 359.236 183.848 358.669 183.848 357.85C183.848 355.33 176.897 357.493 176.897 352.936C176.897 351.109 178.325 349.429 181.265 349.429C183.848 349.429 185.801 350.647 186.137 353.44H183.449C183.239 352.075 182.441 351.529 181.16 351.529C180.089 351.529 179.459 352.054 179.459 352.768ZM188.388 348.484V345.88H191.076V348.484H188.388ZM188.388 361V349.744H191.076V361H188.388ZM193.536 361V349.744H196.224V351.382C196.959 350.038 198.093 349.429 199.311 349.429C199.773 349.429 200.193 349.555 200.403 349.744V352.075C200.046 351.97 199.647 351.928 199.164 351.928C197.127 351.928 196.224 353.146 196.224 355.015V361H193.536ZM211.885 357.325C211.276 359.929 209.26 361.315 206.572 361.315C203.17 361.315 201.091 359.068 201.091 355.393C201.091 351.571 203.191 349.429 206.467 349.429C209.764 349.429 211.801 351.655 211.801 355.288V355.918H203.863C203.989 357.976 204.934 359.11 206.572 359.11C207.832 359.11 208.693 358.522 209.05 357.325H211.885ZM206.467 351.634C205.039 351.634 204.178 352.537 203.926 354.238H208.987C208.735 352.558 207.874 351.634 206.467 351.634ZM218.039 361.315C215.099 361.315 213.293 359.068 213.293 355.393C213.293 351.571 215.141 349.429 218.039 349.429C219.278 349.429 220.307 349.954 221 350.962V345.88H223.688V361H221V359.719C220.286 360.748 219.278 361.315 218.039 361.315ZM218.522 359.089C220.139 359.089 221 357.787 221 355.393C221 352.999 220.097 351.655 218.522 351.655C216.926 351.655 216.065 352.978 216.065 355.393C216.065 357.766 216.947 359.089 218.522 359.089ZM239.67 361L238.578 358.039H232.488L231.396 361H228.561L233.937 346.72H237.276L242.652 361H239.67ZM235.113 350.962L233.307 355.855H237.759L235.953 350.962L235.533 349.492L235.113 350.962ZM244.149 361V349.744H246.837V351.193C247.551 350.017 248.643 349.429 249.966 349.429C251.394 349.429 252.507 350.059 253.074 351.34C253.83 350.059 255.027 349.429 256.476 349.429C258.639 349.429 260.109 350.773 260.109 353.503V361H257.421V354.049C257.421 352.516 256.854 351.655 255.657 351.655C254.313 351.655 253.473 352.957 253.473 354.469V361H250.785V354.049C250.785 352.516 250.218 351.655 249.021 351.655C247.677 351.655 246.837 352.957 246.837 354.469V361H244.149ZM267.458 361.315C264.119 361.315 262.061 359.068 262.061 355.393C262.061 351.571 264.182 349.429 267.458 349.429C270.776 349.429 272.834 351.697 272.834 355.393C272.834 359.173 270.713 361.315 267.458 361.315ZM267.458 359.089C269.159 359.089 270.062 357.787 270.062 355.393C270.062 352.999 269.138 351.655 267.458 351.655C265.736 351.655 264.833 352.978 264.833 355.393C264.833 357.766 265.757 359.089 267.458 359.089ZM281.781 356.275V349.744H284.469V361H281.781V359.488C281.046 360.727 279.891 361.315 278.505 361.315C276.279 361.315 274.788 359.971 274.788 357.262V349.744H277.476V356.716C277.476 358.249 278.106 359.089 279.429 359.089C280.878 359.089 281.781 357.787 281.781 356.275ZM286.949 361V349.744H289.637V351.256C290.372 350.038 291.548 349.429 292.976 349.429C295.223 349.429 296.756 350.773 296.756 353.503V361H294.068V354.049C294.068 352.516 293.417 351.655 292.052 351.655C290.561 351.655 289.637 352.957 289.637 354.469V361H286.949ZM299.59 357.493V351.823H298.141V349.744H299.59V347.161H302.278V349.744H304.651V351.823H302.278V357.262C302.278 358.438 302.614 359.068 304.105 359.068H304.609V361.042C304.315 361.189 303.706 361.315 302.971 361.315C300.682 361.315 299.59 360.013 299.59 357.493Z" fill="#262626"/>
<path d="M24.072 382.804C24.072 385.492 29.91 383.406 29.91 387.312C29.91 389.146 28.426 390.168 26.396 390.168C24.352 390.168 22.952 389.23 22.532 387.312H23.876C24.184 388.446 25.038 389.062 26.41 389.062C27.838 389.062 28.594 388.432 28.594 387.48C28.594 384.568 22.756 386.738 22.756 382.888C22.756 381.516 23.904 380.312 26.004 380.312C27.838 380.312 29.308 381.194 29.658 383.224H28.3C28.006 381.964 27.194 381.418 25.976 381.418C24.772 381.418 24.072 381.964 24.072 382.804ZM31.5835 387.858V383.546H30.5475V382.566H31.5835V380.858H32.8155V382.566H34.4535V383.546H32.8155V387.858C32.8155 388.754 33.0815 389.174 34.1735 389.174H34.4255V390.056C34.2855 390.126 33.9775 390.168 33.6275 390.168C32.2415 390.168 31.5835 389.426 31.5835 387.858ZM36.7605 384.988H35.5285C35.7665 383.35 36.8445 382.384 38.6645 382.384C40.6525 382.384 41.6185 383.546 41.6185 385.282V388.208C41.6185 389.062 41.6885 389.594 41.8845 390H40.5825C40.4425 389.706 40.4005 389.272 40.3865 388.824C39.7565 389.762 38.7485 390.168 37.8525 390.168C36.3125 390.168 35.2765 389.454 35.2765 388.04C35.2765 387.018 35.8365 386.276 36.9285 385.912C37.9365 385.576 38.9585 385.492 40.3865 385.478V385.31C40.3865 384.106 39.8265 383.448 38.5525 383.448C37.4885 383.448 36.9145 384.036 36.7605 384.988ZM36.5365 388.012C36.5365 388.698 37.1105 389.104 37.9785 389.104C39.3505 389.104 40.3865 388.026 40.3865 386.752V386.402C37.2225 386.43 36.5365 387.102 36.5365 388.012ZM43.6382 390V382.566H44.8702V383.714C45.3742 382.804 46.1722 382.384 47.0682 382.384C47.3622 382.384 47.6282 382.454 47.7682 382.566V383.672C47.5582 383.602 47.2922 383.574 46.9982 383.574C45.5142 383.574 44.8702 384.498 44.8702 385.842V390H43.6382ZM49.0289 387.858V383.546H47.9929V382.566H49.0289V380.858H50.2609V382.566H51.8989V383.546H50.2609V387.858C50.2609 388.754 50.5269 389.174 51.6189 389.174H51.8709V390.056C51.7309 390.126 51.4229 390.168 51.0729 390.168C49.6869 390.168 49.0289 389.426 49.0289 387.858ZM62.3145 390L60.7045 384.442L60.5365 383.602L60.3685 384.442L58.7725 390H57.2465L55.0345 382.566H56.3645L57.8905 388.334L58.0725 389.09L58.2545 388.334L59.9485 382.566H61.2785L62.9725 388.334L63.1405 389.062L63.2945 388.334L64.8205 382.566H66.0945L63.8685 390H62.3145ZM67.2085 381.572V379.92H68.4405V381.572H67.2085ZM67.2085 390V382.566H68.4405V390H67.2085ZM70.5621 387.858V383.546H69.5261V382.566H70.5621V380.858H71.7941V382.566H73.4321V383.546H71.7941V387.858C71.7941 388.754 72.0601 389.174 73.1521 389.174H73.4041V390.056C73.2641 390.126 72.9561 390.168 72.6061 390.168C71.2201 390.168 70.5621 389.426 70.5621 387.858ZM74.605 390V379.92H75.837V383.574C76.341 382.79 77.153 382.384 78.133 382.384C79.715 382.384 80.653 383.308 80.653 385.03V390H79.421V385.282C79.421 384.162 78.917 383.434 77.797 383.434C76.565 383.434 75.837 384.54 75.837 385.604V390H74.605ZM86.5535 384.988H85.3215C85.5595 383.35 86.6375 382.384 88.4575 382.384C90.4455 382.384 91.4115 383.546 91.4115 385.282V388.208C91.4115 389.062 91.4815 389.594 91.6775 390H90.3755C90.2355 389.706 90.1935 389.272 90.1795 388.824C89.5495 389.762 88.5415 390.168 87.6455 390.168C86.1055 390.168 85.0695 389.454 85.0695 388.04C85.0695 387.018 85.6295 386.276 86.7215 385.912C87.7295 385.576 88.7515 385.492 90.1795 385.478V385.31C90.1795 384.106 89.6195 383.448 88.3455 383.448C87.2815 383.448 86.7075 384.036 86.5535 384.988ZM86.3295 388.012C86.3295 388.698 86.9035 389.104 87.7715 389.104C89.1435 389.104 90.1795 388.026 90.1795 386.752V386.402C87.0155 386.43 86.3295 387.102 86.3295 388.012ZM94.3412 384.47C94.3412 386.542 99.1712 384.834 99.1712 387.9C99.1712 389.286 97.9392 390.168 96.1892 390.168C94.4252 390.168 93.1932 389.328 92.9132 387.578H94.1452C94.3132 388.614 95.0832 389.188 96.2312 389.188C97.3512 389.188 97.9392 388.684 97.9392 387.984C97.9392 385.954 93.1652 387.634 93.1652 384.554C93.1652 383.42 94.0472 382.384 95.8672 382.384C97.4772 382.384 98.6672 383.14 98.9052 384.988H97.6732C97.4912 383.826 96.8472 383.392 95.7972 383.392C94.8732 383.392 94.3412 383.854 94.3412 384.47ZM103.439 390V379.92H104.671V390H103.439ZM106.625 381.572V379.92H107.857V381.572H106.625ZM106.625 390V382.566H107.857V390H106.625ZM109.978 387.858V383.546H108.942V382.566H109.978V380.858H111.21V382.566H112.848V383.546H111.21V387.858C111.21 388.754 111.476 389.174 112.568 389.174H112.82V390.056C112.68 390.126 112.372 390.168 112.022 390.168C110.636 390.168 109.978 389.426 109.978 387.858ZM114.189 387.858V383.546H113.153V382.566H114.189V380.858H115.421V382.566H117.059V383.546H115.421V387.858C115.421 388.754 115.687 389.174 116.779 389.174H117.031V390.056C116.891 390.126 116.583 390.168 116.233 390.168C114.847 390.168 114.189 389.426 114.189 387.858ZM118.232 390V379.92H119.464V390H118.232ZM127.844 387.578C127.438 389.314 126.192 390.168 124.498 390.168C122.342 390.168 121.04 388.712 121.04 386.29C121.04 383.77 122.342 382.384 124.428 382.384C126.528 382.384 127.788 383.826 127.788 386.192V386.5H122.3C122.37 388.166 123.154 389.104 124.498 389.104C125.548 389.104 126.29 388.6 126.556 387.578H127.844ZM124.428 383.448C123.238 383.448 122.524 384.19 122.342 385.576H126.5C126.332 384.204 125.59 383.448 124.428 383.448ZM133.366 384.988H132.134C132.372 383.35 133.45 382.384 135.27 382.384C137.258 382.384 138.224 383.546 138.224 385.282V388.208C138.224 389.062 138.294 389.594 138.49 390H137.188C137.048 389.706 137.006 389.272 136.992 388.824C136.362 389.762 135.354 390.168 134.458 390.168C132.918 390.168 131.882 389.454 131.882 388.04C131.882 387.018 132.442 386.276 133.534 385.912C134.542 385.576 135.564 385.492 136.992 385.478V385.31C136.992 384.106 136.432 383.448 135.158 383.448C134.094 383.448 133.52 384.036 133.366 384.988ZM133.142 388.012C133.142 388.698 133.716 389.104 134.584 389.104C135.956 389.104 136.992 388.026 136.992 386.752V386.402C133.828 386.43 133.142 387.102 133.142 388.012ZM141.154 384.47C141.154 386.542 145.984 384.834 145.984 387.9C145.984 389.286 144.752 390.168 143.002 390.168C141.238 390.168 140.006 389.328 139.726 387.578H140.958C141.126 388.614 141.896 389.188 143.044 389.188C144.164 389.188 144.752 388.684 144.752 387.984C144.752 385.954 139.978 387.634 139.978 384.554C139.978 383.42 140.86 382.384 142.68 382.384C144.29 382.384 145.48 383.14 145.718 384.988H144.486C144.304 383.826 143.66 383.392 142.61 383.392C141.686 383.392 141.154 383.854 141.154 384.47ZM152.645 391.498V390.112C151.147 389.874 150.153 388.992 149.915 387.424H151.161C151.315 388.516 152.211 389.104 153.485 389.104C154.745 389.104 155.417 388.474 155.417 387.592C155.417 385.086 150.153 386.85 150.153 383.308C150.153 382.146 151.007 381.054 152.645 380.858V379.5H153.905V380.886C155.235 381.11 156.229 381.936 156.411 383.518H155.165C154.997 382.384 154.241 381.894 153.107 381.894C152.001 381.894 151.413 382.482 151.413 383.35C151.413 385.632 156.677 383.994 156.677 387.48C156.677 389.062 155.515 390.014 153.905 390.154V391.498H152.645ZM164.842 387.004C164.842 388.852 163.694 390.168 161.496 390.168C159.48 390.168 158.276 389.16 158.038 387.466H159.27C159.424 388.474 160.152 389.104 161.482 389.104C162.896 389.104 163.61 388.32 163.61 387.018C163.61 385.968 163.106 384.876 161.482 384.876C160.418 384.876 159.83 385.324 159.494 385.828L158.388 385.716L158.668 380.998H164.422V381.978H159.648L159.494 384.526C160.012 384.106 160.656 383.812 161.58 383.812C163.96 383.812 164.842 385.324 164.842 387.004ZM169.436 390.168C167.21 390.168 165.922 388.432 165.922 385.506C165.922 382.496 167.238 380.83 169.436 380.83C171.648 380.83 172.936 382.566 172.936 385.506C172.936 388.516 171.62 390.168 169.436 390.168ZM169.436 389.104C170.878 389.104 171.676 387.816 171.676 385.506C171.676 383.21 170.864 381.894 169.436 381.894C167.98 381.894 167.182 383.168 167.182 385.506C167.182 387.774 167.994 389.104 169.436 389.104ZM174.311 390V388.488H175.823V390H174.311ZM182.812 390V386.486L179.396 380.48H180.838L183.064 384.442L183.498 385.352L183.918 384.442L186.144 380.48H187.516L184.1 386.486V390H182.812ZM190.818 390.168C188.69 390.168 187.416 388.712 187.416 386.29C187.416 383.77 188.732 382.384 190.818 382.384C192.946 382.384 194.22 383.868 194.22 386.29C194.22 388.796 192.904 390.168 190.818 390.168ZM190.818 389.104C192.204 389.104 192.96 388.11 192.96 386.29C192.96 384.484 192.19 383.448 190.818 383.448C189.432 383.448 188.676 384.456 188.676 386.29C188.676 388.082 189.446 389.104 190.818 389.104ZM200.538 386.962V382.566H201.77V390H200.538V388.992C200.034 389.776 199.25 390.168 198.284 390.168C196.73 390.168 195.806 389.258 195.806 387.536V382.566H197.038V387.284C197.038 388.404 197.528 389.118 198.62 389.118C199.824 389.118 200.538 388.026 200.538 386.962ZM212.685 385.128H211.453C211.257 383.994 210.501 383.448 209.521 383.448C208.149 383.448 207.421 384.456 207.421 386.29C207.421 388.096 208.191 389.118 209.563 389.118C210.557 389.118 211.271 388.586 211.509 387.522H212.741C212.405 389.37 211.159 390.168 209.535 390.168C207.421 390.168 206.161 388.698 206.161 386.29C206.161 383.77 207.449 382.384 209.521 382.384C211.159 382.384 212.447 383.308 212.685 385.128ZM215.397 384.988H214.165C214.403 383.35 215.481 382.384 217.301 382.384C219.289 382.384 220.255 383.546 220.255 385.282V388.208C220.255 389.062 220.325 389.594 220.521 390H219.219C219.079 389.706 219.037 389.272 219.023 388.824C218.393 389.762 217.385 390.168 216.489 390.168C214.949 390.168 213.913 389.454 213.913 388.04C213.913 387.018 214.473 386.276 215.565 385.912C216.573 385.576 217.595 385.492 219.023 385.478V385.31C219.023 384.106 218.463 383.448 217.189 383.448C216.125 383.448 215.551 384.036 215.397 384.988ZM215.173 388.012C215.173 388.698 215.747 389.104 216.615 389.104C217.987 389.104 219.023 388.026 219.023 386.752V386.402C215.859 386.43 215.173 387.102 215.173 388.012ZM222.275 390V382.566H223.507V383.574C224.011 382.79 224.823 382.384 225.803 382.384C227.385 382.384 228.323 383.308 228.323 385.03V390H227.091V385.282C227.091 384.162 226.587 383.434 225.467 383.434C224.235 383.434 223.507 384.54 223.507 385.604V390H222.275ZM234.223 384.988H232.991C233.229 383.35 234.307 382.384 236.127 382.384C238.115 382.384 239.081 383.546 239.081 385.282V388.208C239.081 389.062 239.151 389.594 239.347 390H238.045C237.905 389.706 237.863 389.272 237.849 388.824C237.219 389.762 236.211 390.168 235.315 390.168C233.775 390.168 232.739 389.454 232.739 388.04C232.739 387.018 233.299 386.276 234.391 385.912C235.399 385.576 236.421 385.492 237.849 385.478V385.31C237.849 384.106 237.289 383.448 236.015 383.448C234.951 383.448 234.377 384.036 234.223 384.988ZM233.999 388.012C233.999 388.698 234.573 389.104 235.441 389.104C236.813 389.104 237.849 388.026 237.849 386.752V386.402C234.685 386.43 233.999 387.102 233.999 388.012ZM241.101 390V379.92H242.333V390H241.101ZM250.727 390L249.117 384.442L248.949 383.602L248.781 384.442L247.185 390H245.659L243.447 382.566H244.777L246.303 388.334L246.485 389.09L246.667 388.334L248.361 382.566H249.691L251.385 388.334L251.553 389.062L251.707 388.334L253.233 382.566H254.507L252.281 390H250.727ZM256.755 384.988H255.523C255.761 383.35 256.839 382.384 258.659 382.384C260.647 382.384 261.613 383.546 261.613 385.282V388.208C261.613 389.062 261.683 389.594 261.879 390H260.577C260.437 389.706 260.395 389.272 260.381 388.824C259.751 389.762 258.743 390.168 257.847 390.168C256.307 390.168 255.271 389.454 255.271 388.04C255.271 387.018 255.831 386.276 256.923 385.912C257.931 385.576 258.953 385.492 260.381 385.478V385.31C260.381 384.106 259.821 383.448 258.547 383.448C257.483 383.448 256.909 384.036 256.755 384.988ZM256.531 388.012C256.531 388.698 257.105 389.104 257.973 389.104C259.345 389.104 260.381 388.026 260.381 386.752V386.402C257.217 386.43 256.531 387.102 256.531 388.012ZM263.832 393.248C263.552 393.248 263.258 393.178 263.104 393.136V392.184H263.482C264.392 392.184 264.644 392.002 265.372 390.336L265.624 389.762L262.586 382.566H263.916L265.932 387.48L266.268 388.474L266.604 387.48L268.564 382.566H269.824L266.352 390.98C265.61 392.772 265.12 393.248 263.832 393.248ZM271.652 384.47C271.652 386.542 276.482 384.834 276.482 387.9C276.482 389.286 275.25 390.168 273.5 390.168C271.736 390.168 270.504 389.328 270.224 387.578H271.456C271.624 388.614 272.394 389.188 273.542 389.188C274.662 389.188 275.25 388.684 275.25 387.984C275.25 385.954 270.476 387.634 270.476 384.554C270.476 383.42 271.358 382.384 273.178 382.384C274.788 382.384 275.978 383.14 276.216 384.988H274.984C274.802 383.826 274.158 383.392 273.108 383.392C272.184 383.392 271.652 383.854 271.652 384.47ZM281.884 384.988H280.652C280.89 383.35 281.968 382.384 283.788 382.384C285.776 382.384 286.742 383.546 286.742 385.282V388.208C286.742 389.062 286.812 389.594 287.008 390H285.706C285.566 389.706 285.524 389.272 285.51 388.824C284.88 389.762 283.872 390.168 282.976 390.168C281.436 390.168 280.4 389.454 280.4 388.04C280.4 387.018 280.96 386.276 282.052 385.912C283.06 385.576 284.082 385.492 285.51 385.478V385.31C285.51 384.106 284.95 383.448 283.676 383.448C282.612 383.448 282.038 384.036 281.884 384.988ZM281.66 388.012C281.66 388.698 282.234 389.104 283.102 389.104C284.474 389.104 285.51 388.026 285.51 386.752V386.402C282.346 386.43 281.66 387.102 281.66 388.012ZM291.547 390.168C289.573 390.168 288.383 388.712 288.383 386.29C288.383 383.77 289.601 382.384 291.547 382.384C292.429 382.384 293.143 382.748 293.633 383.434V379.92H294.865V390H293.633V389.062C293.143 389.762 292.429 390.168 291.547 390.168ZM291.631 389.104C292.933 389.104 293.633 388.11 293.633 386.29C293.633 384.484 292.905 383.448 291.631 383.448C290.343 383.448 289.643 384.456 289.643 386.29C289.643 388.082 290.371 389.104 291.631 389.104ZM299.614 390.168C297.64 390.168 296.45 388.712 296.45 386.29C296.45 383.77 297.668 382.384 299.614 382.384C300.496 382.384 301.21 382.748 301.7 383.434V379.92H302.932V390H301.7V389.062C301.21 389.762 300.496 390.168 299.614 390.168ZM299.698 389.104C301 389.104 301.7 388.11 301.7 386.29C301.7 384.484 300.972 383.448 299.698 383.448C298.41 383.448 297.71 384.456 297.71 386.29C297.71 388.082 298.438 389.104 299.698 389.104ZM307.697 390V382.566H308.929V383.518C309.405 382.762 310.147 382.384 311.057 382.384C312.079 382.384 312.821 382.832 313.171 383.7C313.661 382.832 314.473 382.384 315.467 382.384C316.979 382.384 317.889 383.308 317.889 385.03V390H316.657V385.282C316.657 384.162 316.209 383.434 315.201 383.434C314.081 383.434 313.409 384.54 313.409 385.604V390H312.177V385.282C312.177 384.162 311.729 383.434 310.721 383.434C309.601 383.434 308.929 384.54 308.929 385.604V390H307.697ZM322.875 390.168C320.747 390.168 319.473 388.712 319.473 386.29C319.473 383.77 320.789 382.384 322.875 382.384C325.003 382.384 326.277 383.868 326.277 386.29C326.277 388.796 324.961 390.168 322.875 390.168ZM322.875 389.104C324.261 389.104 325.017 388.11 325.017 386.29C325.017 384.484 324.247 383.448 322.875 383.448C321.489 383.448 320.733 384.456 320.733 386.29C320.733 388.082 321.503 389.104 322.875 389.104ZM327.863 390V382.566H329.095V383.714C329.599 382.804 330.397 382.384 331.293 382.384C331.587 382.384 331.853 382.454 331.993 382.566V383.672C331.783 383.602 331.517 383.574 331.223 383.574C329.739 383.574 329.095 384.498 329.095 385.842V390H327.863ZM339.375 387.578C338.969 389.314 337.723 390.168 336.029 390.168C333.873 390.168 332.571 388.712 332.571 386.29C332.571 383.77 333.873 382.384 335.959 382.384C338.059 382.384 339.319 383.826 339.319 386.192V386.5H333.831C333.901 388.166 334.685 389.104 336.029 389.104C337.079 389.104 337.821 388.6 338.087 387.578H339.375ZM335.959 383.448C334.769 383.448 334.055 384.19 333.873 385.576H338.031C337.863 384.204 337.121 383.448 335.959 383.448ZM22.07 405.546V404.566H23.106V404.062C23.106 402.494 23.75 401.752 25.122 401.752C25.43 401.752 25.682 401.808 25.808 401.864V402.746H25.682C24.604 402.746 24.338 403.166 24.338 404.062V404.566H25.808V405.546H24.338V412H23.106V405.546H22.07ZM31.5265 408.962V404.566H32.7585V412H31.5265V410.992C31.0225 411.776 30.2385 412.168 29.2725 412.168C27.7185 412.168 26.7945 411.258 26.7945 409.536V404.566H28.0265V409.284C28.0265 410.404 28.5165 411.118 29.6085 411.118C30.8125 411.118 31.5265 410.026 31.5265 408.962ZM34.7241 412V404.566H35.9561V405.574C36.4601 404.79 37.2721 404.384 38.2521 404.384C39.8341 404.384 40.7721 405.308 40.7721 407.03V412H39.5401V407.282C39.5401 406.162 39.0361 405.434 37.9161 405.434C36.6841 405.434 35.9561 406.54 35.9561 407.604V412H34.7241ZM45.5219 412.168C43.5479 412.168 42.3579 410.712 42.3579 408.29C42.3579 405.77 43.5759 404.384 45.5219 404.384C46.4039 404.384 47.1179 404.748 47.6079 405.434V401.92H48.8399V412H47.6079V411.062C47.1179 411.762 46.4039 412.168 45.5219 412.168ZM45.6059 411.104C46.9079 411.104 47.6079 410.11 47.6079 408.29C47.6079 406.484 46.8799 405.448 45.6059 405.448C44.3179 405.448 43.6179 406.456 43.6179 408.29C43.6179 410.082 44.3459 411.104 45.6059 411.104ZM51.7123 406.47C51.7123 408.542 56.5423 406.834 56.5423 409.9C56.5423 411.286 55.3103 412.168 53.5603 412.168C51.7963 412.168 50.5643 411.328 50.2843 409.578H51.5163C51.6843 410.614 52.4543 411.188 53.6023 411.188C54.7223 411.188 55.3103 410.684 55.3103 409.984C55.3103 407.954 50.5363 409.634 50.5363 406.554C50.5363 405.42 51.4183 404.384 53.2383 404.384C54.8483 404.384 56.0383 405.14 56.2763 406.988H55.0443C54.8623 405.826 54.2183 405.392 53.1683 405.392C52.2443 405.392 51.7123 405.854 51.7123 406.47ZM60.8101 412V401.92H62.0421V412H60.8101ZM65.1296 406.988H63.8976C64.1356 405.35 65.2136 404.384 67.0336 404.384C69.0216 404.384 69.9876 405.546 69.9876 407.282V410.208C69.9876 411.062 70.0576 411.594 70.2536 412H68.9516C68.8116 411.706 68.7696 411.272 68.7556 410.824C68.1256 411.762 67.1176 412.168 66.2216 412.168C64.6816 412.168 63.6456 411.454 63.6456 410.04C63.6456 409.018 64.2056 408.276 65.2976 407.912C66.3056 407.576 67.3276 407.492 68.7556 407.478V407.31C68.7556 406.106 68.1956 405.448 66.9216 405.448C65.8576 405.448 65.2836 406.036 65.1296 406.988ZM64.9056 410.012C64.9056 410.698 65.4796 411.104 66.3476 411.104C67.7196 411.104 68.7556 410.026 68.7556 408.752V408.402C65.5916 408.43 64.9056 409.102 64.9056 410.012ZM72.1753 409.858V405.546H71.1393V404.566H72.1753V402.858H73.4073V404.566H75.0453V405.546H73.4073V409.858C73.4073 410.754 73.6733 411.174 74.7653 411.174H75.0173V412.056C74.8773 412.126 74.5693 412.168 74.2193 412.168C72.8333 412.168 72.1753 411.426 72.1753 409.858ZM82.6443 409.578C82.2383 411.314 80.9923 412.168 79.2983 412.168C77.1423 412.168 75.8403 410.712 75.8403 408.29C75.8403 405.77 77.1423 404.384 79.2283 404.384C81.3283 404.384 82.5883 405.826 82.5883 408.192V408.5H77.1003C77.1703 410.166 77.9543 411.104 79.2983 411.104C80.3483 411.104 81.0903 410.6 81.3563 409.578H82.6443ZM79.2283 405.448C78.0383 405.448 77.3243 406.19 77.1423 407.576H81.3003C81.1323 406.204 80.3903 405.448 79.2283 405.448ZM84.23 412V404.566H85.462V405.714C85.966 404.804 86.764 404.384 87.66 404.384C87.954 404.384 88.22 404.454 88.36 404.566V405.672C88.15 405.602 87.884 405.574 87.59 405.574C86.106 405.574 85.462 406.498 85.462 407.842V412H84.23ZM93.3894 406.988H92.1574C92.3954 405.35 93.4734 404.384 95.2934 404.384C97.2814 404.384 98.2474 405.546 98.2474 407.282V410.208C98.2474 411.062 98.3174 411.594 98.5134 412H97.2114C97.0714 411.706 97.0294 411.272 97.0154 410.824C96.3854 411.762 95.3774 412.168 94.4814 412.168C92.9414 412.168 91.9054 411.454 91.9054 410.04C91.9054 409.018 92.4654 408.276 93.5574 407.912C94.5654 407.576 95.5874 407.492 97.0154 407.478V407.31C97.0154 406.106 96.4554 405.448 95.1814 405.448C94.1174 405.448 93.5434 406.036 93.3894 406.988ZM93.1654 410.012C93.1654 410.698 93.7394 411.104 94.6074 411.104C95.9794 411.104 97.0154 410.026 97.0154 408.752V408.402C93.8514 408.43 93.1654 409.102 93.1654 410.012ZM101.177 406.47C101.177 408.542 106.007 406.834 106.007 409.9C106.007 411.286 104.775 412.168 103.025 412.168C101.261 412.168 100.029 411.328 99.7491 409.578H100.981C101.149 410.614 101.919 411.188 103.067 411.188C104.187 411.188 104.775 410.684 104.775 409.984C104.775 407.954 100.001 409.634 100.001 406.554C100.001 405.42 100.883 404.384 102.703 404.384C104.313 404.384 105.503 405.14 105.741 406.988H104.509C104.327 405.826 103.683 405.392 102.633 405.392C101.709 405.392 101.177 405.854 101.177 406.47ZM110.611 415.248C110.331 415.248 110.037 415.178 109.883 415.136V414.184H110.261C111.171 414.184 111.423 414.002 112.151 412.336L112.403 411.762L109.365 404.566H110.695L112.711 409.48L113.047 410.474L113.383 409.48L115.343 404.566H116.603L113.131 412.98C112.389 414.772 111.899 415.248 110.611 415.248ZM120.613 412.168C118.485 412.168 117.211 410.712 117.211 408.29C117.211 405.77 118.527 404.384 120.613 404.384C122.741 404.384 124.015 405.868 124.015 408.29C124.015 410.796 122.699 412.168 120.613 412.168ZM120.613 411.104C121.999 411.104 122.755 410.11 122.755 408.29C122.755 406.484 121.985 405.448 120.613 405.448C119.227 405.448 118.471 406.456 118.471 408.29C118.471 410.082 119.241 411.104 120.613 411.104ZM130.333 408.962V404.566H131.565V412H130.333V410.992C129.829 411.776 129.045 412.168 128.079 412.168C126.525 412.168 125.601 411.258 125.601 409.536V404.566H126.833V409.284C126.833 410.404 127.323 411.118 128.415 411.118C129.619 411.118 130.333 410.026 130.333 408.962ZM138.98 412.056C137.09 412.056 135.956 410.614 135.956 408.234C135.956 405.742 137.118 404.384 138.98 404.384C139.974 404.384 140.716 404.734 141.206 405.378V404.566H142.438V412.224C142.438 414.296 141.108 415.262 139.4 415.262C137.65 415.262 136.418 414.422 136.152 412.728H137.384C137.538 413.708 138.308 414.24 139.386 414.24C140.478 414.24 141.206 413.652 141.206 412.266V410.992C140.688 411.692 139.932 412.056 138.98 412.056ZM139.204 410.992C140.506 410.992 141.206 410.012 141.206 408.22C141.206 406.47 140.478 405.448 139.204 405.448C137.916 405.448 137.216 406.428 137.216 408.234C137.216 409.984 137.93 410.992 139.204 410.992ZM150.84 409.578C150.434 411.314 149.188 412.168 147.494 412.168C145.338 412.168 144.036 410.712 144.036 408.29C144.036 405.77 145.338 404.384 147.424 404.384C149.524 404.384 150.784 405.826 150.784 408.192V408.5H145.296C145.366 410.166 146.15 411.104 147.494 411.104C148.544 411.104 149.286 410.6 149.552 409.578H150.84ZM147.424 405.448C146.234 405.448 145.52 406.19 145.338 407.576H149.496C149.328 406.204 148.586 405.448 147.424 405.448ZM152.593 409.858V405.546H151.557V404.566H152.593V402.858H153.825V404.566H155.463V405.546H153.825V409.858C153.825 410.754 154.091 411.174 155.183 411.174H155.435V412.056C155.295 412.126 154.987 412.168 154.637 412.168C153.251 412.168 152.593 411.426 152.593 409.858ZM165.585 407.128H164.353C164.157 405.994 163.401 405.448 162.421 405.448C161.049 405.448 160.321 406.456 160.321 408.29C160.321 410.096 161.091 411.118 162.463 411.118C163.457 411.118 164.171 410.586 164.409 409.522H165.641C165.305 411.37 164.059 412.168 162.435 412.168C160.321 412.168 159.061 410.698 159.061 408.29C159.061 405.77 160.349 404.384 162.421 404.384C164.059 404.384 165.347 405.308 165.585 407.128ZM170.188 412.168C168.06 412.168 166.786 410.712 166.786 408.29C166.786 405.77 168.102 404.384 170.188 404.384C172.316 404.384 173.59 405.868 173.59 408.29C173.59 410.796 172.274 412.168 170.188 412.168ZM170.188 411.104C171.574 411.104 172.33 410.11 172.33 408.29C172.33 406.484 171.56 405.448 170.188 405.448C168.802 405.448 168.046 406.456 168.046 408.29C168.046 410.082 168.816 411.104 170.188 411.104ZM175.175 412V404.566H176.407V405.518C176.883 404.762 177.625 404.384 178.535 404.384C179.557 404.384 180.299 404.832 180.649 405.7C181.139 404.832 181.951 404.384 182.945 404.384C184.457 404.384 185.367 405.308 185.367 407.03V412H184.135V407.282C184.135 406.162 183.687 405.434 182.679 405.434C181.559 405.434 180.887 406.54 180.887 407.604V412H179.655V407.282C179.655 406.162 179.207 405.434 178.199 405.434C177.079 405.434 176.407 406.54 176.407 407.604V412H175.175ZM186.42 405.546V404.566H187.456V404.062C187.456 402.494 188.1 401.752 189.472 401.752C189.78 401.752 190.032 401.808 190.158 401.864V402.746H190.032C188.954 402.746 188.688 403.166 188.688 404.062V404.566H190.158V405.546H188.688V412H187.456V405.546H186.42ZM194.168 412.168C192.04 412.168 190.766 410.712 190.766 408.29C190.766 405.77 192.082 404.384 194.168 404.384C196.296 404.384 197.57 405.868 197.57 408.29C197.57 410.796 196.254 412.168 194.168 412.168ZM194.168 411.104C195.554 411.104 196.31 410.11 196.31 408.29C196.31 406.484 195.54 405.448 194.168 405.448C192.782 405.448 192.026 406.456 192.026 408.29C192.026 410.082 192.796 411.104 194.168 411.104ZM199.156 412V404.566H200.388V405.714C200.892 404.804 201.69 404.384 202.586 404.384C202.88 404.384 203.146 404.454 203.286 404.566V405.672C203.076 405.602 202.81 405.574 202.516 405.574C201.032 405.574 200.388 406.498 200.388 407.842V412H199.156ZM204.546 409.858V405.546H203.51V404.566H204.546V402.858H205.778V404.566H207.416V405.546H205.778V409.858C205.778 410.754 206.044 411.174 207.136 411.174H207.388V412.056C207.248 412.126 206.94 412.168 206.59 412.168C205.204 412.168 204.546 411.426 204.546 409.858ZM209.723 406.988H208.491C208.729 405.35 209.807 404.384 211.627 404.384C213.615 404.384 214.581 405.546 214.581 407.282V410.208C214.581 411.062 214.651 411.594 214.847 412H213.545C213.405 411.706 213.363 411.272 213.349 410.824C212.719 411.762 211.711 412.168 210.815 412.168C209.275 412.168 208.239 411.454 208.239 410.04C208.239 409.018 208.799 408.276 209.891 407.912C210.899 407.576 211.921 407.492 213.349 407.478V407.31C213.349 406.106 212.789 405.448 211.515 405.448C210.451 405.448 209.877 406.036 209.723 406.988ZM209.499 410.012C209.499 410.698 210.073 411.104 210.941 411.104C212.313 411.104 213.349 410.026 213.349 408.752V408.402C210.185 408.43 209.499 409.102 209.499 410.012ZM217.833 412H216.601V401.92H217.833V405.49C218.323 404.79 219.037 404.384 219.919 404.384C221.893 404.384 223.083 405.84 223.083 408.262C223.083 410.782 221.865 412.168 219.919 412.168C219.037 412.168 218.323 411.804 217.833 411.118V412ZM219.835 405.448C218.533 405.448 217.833 406.442 217.833 408.262C217.833 410.068 218.561 411.104 219.835 411.104C221.123 411.104 221.823 410.096 221.823 408.262C221.823 406.47 221.095 405.448 219.835 405.448ZM224.668 412V401.92H225.9V412H224.668ZM234.279 409.578C233.873 411.314 232.627 412.168 230.933 412.168C228.777 412.168 227.475 410.712 227.475 408.29C227.475 405.77 228.777 404.384 230.863 404.384C232.963 404.384 234.223 405.826 234.223 408.192V408.5H228.735C228.805 410.166 229.589 411.104 230.933 411.104C231.983 411.104 232.725 410.6 232.991 409.578H234.279ZM230.863 405.448C229.673 405.448 228.959 406.19 228.777 407.576H232.935C232.767 406.204 232.025 405.448 230.863 405.448ZM235.451 412V410.488H236.963V412H235.451Z" fill="#595959"/>
<rect x="34.5" y="34.5" width="35" height="35" rx="17.5" fill="#D5E3A1"/>
<path d="M46.1156 59.875V59.175C46.1156 52.875 53.575 53.225 53.575 49.9C53.575 48.5875 52.7875 47.8 51.4094 47.8C49.9 47.8 49.1344 48.6094 48.9156 49.9656H46.05C46.4437 47.2094 48.3906 45.4812 51.4312 45.4812C54.7125 45.4812 56.3969 47.4281 56.3969 49.8781C56.3969 54.1 50.2063 54.4719 49.0469 57.7312H56.4406V59.875H46.1156Z" fill="black"/>
<path d="M190.397 67.051V65.826C188.672 65.6666 187.244 64.6156 187.186 62.934V62.9268L188.448 62.9195V62.934C188.578 63.8328 189.136 64.5504 190.397 64.6881V61.2017L190.231 61.1582C188.426 60.7233 187.455 59.9188 187.455 58.4981V58.4836C187.455 56.9325 188.679 55.8742 190.397 55.7148V54.4898H191.267V55.7148C192.941 55.867 194.239 56.9542 194.297 58.5488V58.5561L193.036 58.5633V58.5488C192.941 57.5776 192.246 56.976 191.267 56.8528V60.1797L191.492 60.2304C193.355 60.6798 194.398 61.4481 194.398 62.963V62.9775C194.398 64.7171 192.978 65.6956 191.267 65.8333V67.051H190.397ZM188.716 58.4111C188.716 59.1142 189.151 59.6651 190.397 59.9695V56.8528C189.296 57.005 188.716 57.7008 188.716 58.3966V58.4111ZM191.311 61.4191L191.267 61.4119V64.7026C192.615 64.5938 193.137 63.9125 193.137 63.079V63.0645C193.137 62.2744 192.746 61.767 191.311 61.4191ZM200.095 66.2464C198.146 66.2464 196.754 64.9925 196.602 63.3182L196.595 63.2384H197.848L197.856 63.2964C197.979 64.2967 198.885 65.094 200.11 65.094C201.502 65.094 202.458 64.101 202.458 62.6876V62.6731C202.458 61.2814 201.487 60.2884 200.132 60.2884C199.436 60.2884 198.841 60.4986 198.392 60.9263C198.211 61.1002 198.044 61.3032 197.914 61.5496H196.783L197.334 55.5408H203.154V56.7078H198.363L198.008 60.2449H198.124C198.588 59.5418 199.407 59.1577 200.356 59.1577C202.321 59.1577 203.734 60.6291 203.734 62.6513V62.6658C203.734 64.7751 202.219 66.2464 200.095 66.2464ZM209.337 66.2464C207.025 66.2464 205.648 64.1372 205.648 60.774V60.7595C205.648 57.3964 207.025 55.2944 209.337 55.2944C211.649 55.2944 213.041 57.3964 213.041 60.7595V60.774C213.041 64.1372 211.649 66.2464 209.337 66.2464ZM209.337 65.1085C210.837 65.1085 211.729 63.4414 211.729 60.774V60.7595C211.729 58.0922 210.837 56.4396 209.337 56.4396C207.836 56.4396 206.959 58.0922 206.959 60.7595V60.774C206.959 63.4414 207.836 65.1085 209.337 65.1085Z" fill="#D7D7D7"/>
<path d="M184.606 94.4113V92.9822C182.594 92.7961 180.928 91.57 180.86 89.6081V89.5997L182.332 89.5912V89.6081C182.484 90.6567 183.135 91.4939 184.606 91.6545V87.5871L184.412 87.5363C182.306 87.029 181.173 86.0903 181.173 84.4329V84.416C181.173 82.6064 182.602 81.3717 184.606 81.1857V79.7566H185.621V81.1857C187.575 81.3633 189.088 82.6317 189.156 84.4921V84.5006L187.684 84.509V84.4921C187.575 83.359 186.763 82.6571 185.621 82.5133V86.3948L185.883 86.4539C188.057 86.9782 189.274 87.8746 189.274 89.642V89.6589C189.274 91.6884 187.617 92.83 185.621 92.9906V94.4113H184.606ZM182.645 84.3314C182.645 85.1517 183.152 85.7944 184.606 86.1495V82.5133C183.321 82.6909 182.645 83.5027 182.645 84.3145V84.3314ZM185.672 87.8408L185.621 87.8323V91.6715C187.194 91.5446 187.803 90.7497 187.803 89.7773V89.7603C187.803 88.8386 187.346 88.2467 185.672 87.8408ZM194.898 93.1851V82.674H194.762L191.659 84.9234V83.3167L194.906 80.9828H196.42V93.1851H194.898ZM204.03 93.4726C201.333 93.4726 199.726 91.0119 199.726 87.0882V87.0713C199.726 83.1476 201.333 80.6952 204.03 80.6952C206.728 80.6952 208.352 83.1476 208.352 87.0713V87.0882C208.352 91.0119 206.728 93.4726 204.03 93.4726ZM204.03 92.145C205.781 92.145 206.821 90.2001 206.821 87.0882V87.0713C206.821 83.9594 205.781 82.0313 204.03 82.0313C202.28 82.0313 201.257 83.9594 201.257 87.0713V87.0882C201.257 90.2001 202.28 92.145 204.03 92.145ZM214.939 93.4726C212.241 93.4726 210.635 91.0119 210.635 87.0882V87.0713C210.635 83.1476 212.241 80.6952 214.939 80.6952C217.637 80.6952 219.26 83.1476 219.26 87.0713V87.0882C219.26 91.0119 217.637 93.4726 214.939 93.4726ZM214.939 92.145C216.689 92.145 217.73 90.2001 217.73 87.0882V87.0713C217.73 83.9594 216.689 82.0313 214.939 82.0313C213.189 82.0313 212.165 83.9594 212.165 87.0713V87.0882C212.165 90.2001 213.189 92.145 214.939 92.145Z" fill="#C2C2C2"/>
<path d="M180.025 125.947V124.109C177.437 123.87 175.295 122.294 175.208 119.771V119.76L177.1 119.75V119.771C177.296 121.119 178.133 122.196 180.025 122.402V117.173L179.775 117.108C177.067 116.455 175.61 115.248 175.61 113.117V113.096C175.61 110.769 177.448 109.182 180.025 108.942V107.105H181.329V108.942C183.841 109.171 185.787 110.802 185.874 113.194V113.204L183.982 113.215V113.194C183.841 111.737 182.797 110.834 181.329 110.649V115.64L181.666 115.716C184.461 116.39 186.026 117.542 186.026 119.815V119.837C186.026 122.446 183.895 123.914 181.329 124.12V125.947H180.025ZM177.502 112.987C177.502 114.042 178.155 114.868 180.025 115.325V110.649C178.372 110.878 177.502 111.921 177.502 112.965V112.987ZM181.395 117.499L181.329 117.488V122.424C183.352 122.261 184.134 121.239 184.134 119.989V119.967C184.134 118.782 183.547 118.021 181.395 117.499ZM193.256 124.37V110.856H193.082L189.092 113.748V111.682L193.267 108.682H195.213V124.37H193.256ZM204.9 124.74C201.976 124.74 199.888 122.859 199.66 120.348L199.649 120.228H201.53L201.541 120.315C201.726 121.815 203.085 123.011 204.922 123.011C207.01 123.011 208.445 121.522 208.445 119.402V119.38C208.445 117.292 206.988 115.803 204.955 115.803C203.911 115.803 203.02 116.118 202.345 116.76C202.074 117.021 201.824 117.325 201.628 117.695H199.932L200.758 108.682H209.489V110.432H202.302L201.769 115.738H201.943C202.639 114.683 203.868 114.107 205.292 114.107C208.238 114.107 210.358 116.314 210.358 119.347V119.369C210.358 122.533 208.086 124.74 204.9 124.74ZM218.763 124.74C215.294 124.74 213.229 121.576 213.229 116.531V116.51C213.229 111.465 215.294 108.312 218.763 108.312C222.231 108.312 224.318 111.465 224.318 116.51V116.531C224.318 121.576 222.231 124.74 218.763 124.74ZM218.763 123.033C221.013 123.033 222.351 120.532 222.351 116.531V116.51C222.351 112.509 221.013 110.03 218.763 110.03C216.512 110.03 215.197 112.509 215.197 116.51V116.531C215.197 120.532 216.512 123.033 218.763 123.033Z" fill="#AEAEAE"/>
<rect x="35" y="136.555" width="330.287" height="56.3184" rx="19.7925" fill="#3C76E1" fill-opacity="0.06"/>
<path d="M172.649 178.391V175.452C169.532 174.918 167.394 172.988 166.89 169.633H170.096C170.393 171.771 172.144 172.929 174.579 172.929C176.954 172.929 178.201 171.741 178.201 170.078C178.201 165.18 167.335 168.505 167.335 161.142C167.335 158.619 169.176 156.273 172.649 155.828V152.948H175.648V155.887C178.409 156.422 180.546 158.203 180.903 161.558H177.666C177.34 159.361 175.915 158.411 173.777 158.411C171.699 158.411 170.601 159.509 170.601 161.142C170.601 165.625 181.467 162.567 181.467 169.782C181.467 173.136 179.062 175.185 175.648 175.541V178.391H172.649ZM184.441 175.215V174.383C184.441 165.833 194.802 166.427 194.802 161.587C194.802 159.598 193.614 158.411 191.477 158.411C189.131 158.411 187.974 159.628 187.617 161.647H184.381C184.886 157.995 187.409 155.739 191.507 155.739C195.811 155.739 198.008 158.292 198.008 161.558C198.008 167.525 189.013 167.733 187.706 172.75H198.157V175.215H184.441ZM208.404 175.601C203.625 175.601 200.864 171.919 200.864 165.685C200.864 159.301 203.684 155.739 208.404 155.739C213.155 155.739 215.916 159.42 215.916 165.685C215.916 172.068 213.095 175.601 208.404 175.601ZM208.404 172.899C211.166 172.899 212.68 170.346 212.68 165.685C212.68 161.053 211.136 158.44 208.404 158.44C205.643 158.44 204.1 160.994 204.1 165.685C204.1 170.257 205.643 172.899 208.404 172.899ZM225.51 175.601C220.73 175.601 217.969 171.919 217.969 165.685C217.969 159.301 220.79 155.739 225.51 155.739C230.26 155.739 233.021 159.42 233.021 165.685C233.021 172.068 230.201 175.601 225.51 175.601ZM225.51 172.899C228.271 172.899 229.785 170.346 229.785 165.685C229.785 161.053 228.242 158.44 225.51 158.44C222.749 158.44 221.205 160.994 221.205 165.685C221.205 170.257 222.749 172.899 225.51 172.899Z" fill="#262626"/>
<path d="M178.525 221.635V219.798C175.937 219.559 173.795 217.982 173.708 215.46V215.449L175.6 215.438V215.46C175.796 216.808 176.633 217.884 178.525 218.091V212.861L178.275 212.796C175.567 212.144 174.11 210.937 174.11 208.806V208.784C174.11 206.458 175.948 204.87 178.525 204.631V202.794H179.829V204.631C182.341 204.859 184.287 206.49 184.374 208.882V208.893L182.482 208.904V208.882C182.341 207.425 181.297 206.523 179.829 206.338V211.328L180.166 211.405C182.961 212.079 184.526 213.231 184.526 215.503V215.525C184.526 218.135 182.395 219.602 179.829 219.809V221.635H178.525ZM176.002 208.676C176.002 209.73 176.655 210.557 178.525 211.013V206.338C176.872 206.566 176.002 207.61 176.002 208.654V208.676ZM179.895 213.188L179.829 213.177V218.113C181.852 217.95 182.634 216.928 182.634 215.677V215.656C182.634 214.471 182.047 213.71 179.895 213.188ZM187.918 220.059V218.711L193.224 212.97C195.225 210.807 195.812 209.991 195.812 208.621V208.6C195.812 206.947 194.692 205.708 192.843 205.708C190.963 205.708 189.712 206.936 189.712 208.784L189.701 208.806L187.831 208.795L187.81 208.784C187.82 206.001 189.973 204.001 192.974 204.001C195.714 204.001 197.812 205.86 197.812 208.393V208.415C197.812 210.209 197.04 211.513 194.203 214.438L190.636 218.124V218.298H198.073V220.059H187.918ZM206.51 220.429C203.585 220.429 201.498 218.548 201.27 216.036L201.259 215.917H203.14L203.15 216.004C203.335 217.504 204.694 218.7 206.532 218.7C208.619 218.7 210.054 217.21 210.054 215.09V215.069C210.054 212.981 208.597 211.492 206.564 211.492C205.521 211.492 204.629 211.807 203.955 212.448C203.683 212.709 203.433 213.014 203.237 213.383H201.541L202.368 204.37H211.098V206.121H203.911L203.379 211.426H203.553C204.249 210.372 205.477 209.795 206.901 209.795C209.848 209.795 211.968 212.003 211.968 215.036V215.058C211.968 218.222 209.696 220.429 206.51 220.429ZM220.372 220.429C216.904 220.429 214.838 217.265 214.838 212.22V212.198C214.838 207.154 216.904 204.001 220.372 204.001C223.84 204.001 225.928 207.154 225.928 212.198V212.22C225.928 217.265 223.84 220.429 220.372 220.429ZM220.372 218.722C222.623 218.722 223.96 216.221 223.96 212.22V212.198C223.96 208.197 222.623 205.718 220.372 205.718C218.122 205.718 216.806 208.197 216.806 212.198V212.22C216.806 216.221 218.122 218.722 220.372 218.722Z" fill="#AEAEAE"/>
<path d="M183.106 250.47V249.041C181.094 248.855 179.428 247.629 179.36 245.667V245.659L180.832 245.65V245.667C180.984 246.716 181.635 247.553 183.106 247.714V243.646L182.912 243.595C180.806 243.088 179.673 242.149 179.673 240.492V240.475C179.673 238.665 181.102 237.431 183.106 237.245V235.816H184.121V237.245C186.075 237.422 187.588 238.691 187.656 240.551V240.56L186.184 240.568V240.551C186.075 239.418 185.263 238.716 184.121 238.572V242.454L184.383 242.513C186.557 243.037 187.774 243.934 187.774 245.701V245.718C187.774 247.747 186.117 248.889 184.121 249.05V250.47H183.106ZM181.145 240.39C181.145 241.211 181.652 241.853 183.106 242.209V238.572C181.821 238.75 181.145 239.562 181.145 240.374V240.39ZM184.172 243.9L184.121 243.891V247.73C185.694 247.604 186.303 246.809 186.303 245.836V245.819C186.303 244.898 185.846 244.306 184.172 243.9ZM194.565 249.447C192.045 249.447 190.413 248.043 190.252 246.115L190.243 246.014H191.706L191.715 246.098C191.833 247.299 192.941 248.128 194.565 248.128C196.163 248.128 197.254 247.232 197.254 245.938V245.921C197.254 244.424 196.18 243.587 194.472 243.587H192.941V242.302H194.404C195.858 242.302 196.873 241.405 196.873 240.187V240.171C196.873 238.894 196.036 238.158 194.548 238.158C193.11 238.158 192.087 238.919 191.96 240.154L191.952 240.238H190.489L190.497 240.154C190.692 238.166 192.265 236.839 194.548 236.839C196.873 236.839 198.404 238.133 198.404 239.985V240.001C198.404 241.507 197.338 242.538 195.816 242.86V242.893C197.592 243.046 198.801 244.153 198.801 245.887V245.904C198.801 247.942 197.008 249.447 194.565 249.447ZM205.355 249.532C202.657 249.532 201.051 247.071 201.051 243.147V243.13C201.051 239.207 202.657 236.754 205.355 236.754C208.052 236.754 209.676 239.207 209.676 243.13V243.147C209.676 247.071 208.052 249.532 205.355 249.532ZM205.355 248.204C207.105 248.204 208.145 246.259 208.145 243.147V243.13C208.145 240.018 207.105 238.09 205.355 238.09C203.604 238.09 202.581 240.018 202.581 243.13V243.147C202.581 246.259 203.604 248.204 205.355 248.204ZM216.263 249.532C213.566 249.532 211.959 247.071 211.959 243.147V243.13C211.959 239.207 213.566 236.754 216.263 236.754C218.961 236.754 220.584 239.207 220.584 243.13V243.147C220.584 247.071 218.961 249.532 216.263 249.532ZM216.263 248.204C218.014 248.204 219.054 246.259 219.054 243.147V243.13C219.054 240.018 218.014 238.09 216.263 238.09C214.513 238.09 213.49 240.018 213.49 243.13V243.147C213.49 246.259 214.513 248.204 216.263 248.204Z" fill="#C2C2C2"/>
<path d="M185.397 274.48V273.255C183.672 273.096 182.244 272.045 182.186 270.363V270.356L183.448 270.349V270.363C183.578 271.262 184.136 271.98 185.397 272.117V268.631L185.231 268.587C183.426 268.153 182.455 267.348 182.455 265.927V265.913C182.455 264.362 183.679 263.304 185.397 263.144V261.919H186.267V263.144C187.941 263.296 189.239 264.383 189.297 265.978V265.985L188.036 265.993V265.978C187.941 265.007 187.246 264.405 186.267 264.282V267.609L186.492 267.66C188.355 268.109 189.398 268.877 189.398 270.392V270.407C189.398 272.146 187.978 273.125 186.267 273.263V274.48H185.397ZM183.716 265.84C183.716 266.543 184.151 267.094 185.397 267.399V264.282C184.296 264.434 183.716 265.13 183.716 265.826V265.84ZM186.311 268.848L186.267 268.841V272.132C187.615 272.023 188.137 271.342 188.137 270.508V270.494C188.137 269.704 187.746 269.196 186.311 268.848ZM195.219 273.603C193.059 273.603 191.66 272.4 191.522 270.747L191.515 270.66H192.769L192.776 270.733C192.877 271.762 193.827 272.472 195.219 272.472C196.589 272.472 197.524 271.704 197.524 270.595V270.581C197.524 269.298 196.603 268.58 195.139 268.58H193.827V267.478H195.081C196.328 267.478 197.197 266.71 197.197 265.666V265.652C197.197 264.557 196.48 263.927 195.204 263.927C193.972 263.927 193.095 264.579 192.986 265.637L192.979 265.71H191.725L191.732 265.637C191.899 263.934 193.247 262.796 195.204 262.796C197.197 262.796 198.509 263.905 198.509 265.492V265.507C198.509 266.797 197.596 267.681 196.291 267.957V267.986C197.813 268.116 198.85 269.066 198.85 270.552V270.566C198.85 272.313 197.313 273.603 195.219 273.603ZM204.402 273.676C202.452 273.676 201.061 272.422 200.908 270.747L200.901 270.668H202.155L202.162 270.726C202.286 271.726 203.192 272.523 204.417 272.523C205.808 272.523 206.765 271.53 206.765 270.117V270.102C206.765 268.711 205.794 267.718 204.438 267.718C203.743 267.718 203.148 267.928 202.699 268.356C202.518 268.529 202.351 268.732 202.22 268.979H201.09L201.641 262.97H207.461V264.137H202.67L202.315 267.674H202.431C202.894 266.971 203.714 266.587 204.663 266.587C206.627 266.587 208.041 268.058 208.041 270.081V270.095C208.041 272.204 206.526 273.676 204.402 273.676ZM213.644 273.676C211.331 273.676 209.954 271.566 209.954 268.203V268.189C209.954 264.826 211.331 262.724 213.644 262.724C215.956 262.724 217.347 264.826 217.347 268.189V268.203C217.347 271.566 215.956 273.676 213.644 273.676ZM213.644 272.538C215.144 272.538 216.035 270.871 216.035 268.203V268.189C216.035 265.521 215.144 263.869 213.644 263.869C212.143 263.869 211.266 265.521 211.266 268.189V268.203C211.266 270.871 212.143 272.538 213.644 272.538Z" fill="#D7D7D7"/>
</svg>
